<?xml version="1.0" encoding="utf-8" standalone="no"?>
<!DOCTYPE svg PUBLIC "-//W3C//DTD SVG 1.1//EN"
  "http://www.w3.org/Graphics/SVG/1.1/DTD/svg11.dtd">
<svg xmlns:xlink="http://www.w3.org/1999/xlink" width="1770.396875pt" height="824.92625pt" viewBox="0 0 1770.396875 824.92625" xmlns="http://www.w3.org/2000/svg" version="1.1">
 <metadata>
  <rdf:RDF xmlns:dc="http://purl.org/dc/elements/1.1/" xmlns:cc="http://creativecommons.org/ns#" xmlns:rdf="http://www.w3.org/1999/02/22-rdf-syntax-ns#">
   <cc:Work>
    <dc:type rdf:resource="http://purl.org/dc/dcmitype/StillImage"/>
    <dc:date>2025-02-15T00:46:13.609860</dc:date>
    <dc:format>image/svg+xml</dc:format>
    <dc:creator>
     <cc:Agent>
      <dc:title>Matplotlib v3.9.2, https://matplotlib.org/</dc:title>
     </cc:Agent>
    </dc:creator>
   </cc:Work>
  </rdf:RDF>
 </metadata>
 <defs>
  <style type="text/css">*{stroke-linejoin: round; stroke-linecap: butt}</style>
 </defs>
 <g id="figure_1">
  <g id="patch_1">
   <path d="M 0 824.92625 
L 1770.396875 824.92625 
L 1770.396875 0 
L 0 0 
z
" style="fill: #ffffff"/>
  </g>
  <g id="axes_1">
   <g id="patch_2">
    <path d="M 179.196875 681.12 
L 1763.196875 681.12 
L 1763.196875 162.72 
L 179.196875 162.72 
z
" style="fill: #ffffff"/>
   </g>
   <g id="patch_3">
    <path d="M 251.196875 681.12 
L 276.780631 681.12 
L 276.780631 679.973163 
L 251.196875 679.973163 
z
" clip-path="url(#pc281d0f35e)" style="fill: #384b70"/>
   </g>
   <g id="patch_4">
    <path d="M 324.293322 681.12 
L 349.877078 681.12 
L 349.877078 674.743197 
L 324.293322 674.743197 
z
" clip-path="url(#pc281d0f35e)" style="fill: #384b70"/>
   </g>
   <g id="patch_5">
    <path d="M 397.389768 681.12 
L 422.973525 681.12 
L 422.973525 667.100341 
L 397.389768 667.100341 
z
" clip-path="url(#pc281d0f35e)" style="fill: #384b70"/>
   </g>
   <g id="patch_6">
    <path d="M 470.486215 681.12 
L 496.069971 681.12 
L 496.069971 645.460998 
L 470.486215 645.460998 
z
" clip-path="url(#pc281d0f35e)" style="fill: #384b70"/>
   </g>
   <g id="patch_7">
    <path d="M 543.582662 681.12 
L 569.166418 681.12 
L 569.166418 677.121902 
L 543.582662 677.121902 
z
" clip-path="url(#pc281d0f35e)" style="fill: #384b70"/>
   </g>
   <g id="patch_8">
    <path d="M 616.679109 681.12 
L 642.262865 681.12 
L 642.262865 677.999239 
L 616.679109 677.999239 
z
" clip-path="url(#pc281d0f35e)" style="fill: #384b70"/>
   </g>
   <g id="patch_9">
    <path d="M 689.775555 681.12 
L 715.359312 681.12 
L 715.359312 651.312841 
L 689.775555 651.312841 
z
" clip-path="url(#pc281d0f35e)" style="fill: #384b70"/>
   </g>
   <g id="patch_10">
    <path d="M 762.872002 681.12 
L 788.455758 681.12 
L 788.455758 663.896252 
L 762.872002 663.896252 
z
" clip-path="url(#pc281d0f35e)" style="fill: #384b70"/>
   </g>
   <g id="patch_11">
    <path d="M 835.968449 681.12 
L 861.552205 681.12 
L 861.552205 678.810898 
L 835.968449 678.810898 
z
" clip-path="url(#pc281d0f35e)" style="fill: #384b70"/>
   </g>
   <g id="patch_12">
    <path d="M 909.064895 681.12 
L 934.648652 681.12 
L 934.648652 676.30479 
L 909.064895 676.30479 
z
" clip-path="url(#pc281d0f35e)" style="fill: #384b70"/>
   </g>
   <g id="patch_13">
    <path d="M 982.161342 681.12 
L 1007.745098 681.12 
L 1007.745098 662.640606 
L 982.161342 662.640606 
z
" clip-path="url(#pc281d0f35e)" style="fill: #384b70"/>
   </g>
   <g id="patch_14">
    <path d="M 1055.257789 681.12 
L 1080.841545 681.12 
L 1080.841545 652.869135 
L 1055.257789 652.869135 
z
" clip-path="url(#pc281d0f35e)" style="fill: #384b70"/>
   </g>
   <g id="patch_15">
    <path d="M 1128.354235 681.12 
L 1153.937992 681.12 
L 1153.937992 679.610805 
L 1128.354235 679.610805 
z
" clip-path="url(#pc281d0f35e)" style="fill: #384b70"/>
   </g>
   <g id="patch_16">
    <path d="M 1201.450682 681.12 
L 1227.034438 681.12 
L 1227.034438 678.239555 
L 1201.450682 678.239555 
z
" clip-path="url(#pc281d0f35e)" style="fill: #384b70"/>
   </g>
   <g id="patch_17">
    <path d="M 1274.547129 681.12 
L 1300.130885 681.12 
L 1300.130885 671.241738 
L 1274.547129 671.241738 
z
" clip-path="url(#pc281d0f35e)" style="fill: #384b70"/>
   </g>
   <g id="patch_18">
    <path d="M 1347.643576 681.12 
L 1373.227332 681.12 
L 1373.227332 666.672574 
L 1347.643576 666.672574 
z
" clip-path="url(#pc281d0f35e)" style="fill: #384b70"/>
   </g>
   <g id="patch_19">
    <path d="M 1420.740022 681.12 
L 1446.323779 681.12 
L 1446.323779 676.491285 
L 1420.740022 676.491285 
z
" clip-path="url(#pc281d0f35e)" style="fill: #384b70"/>
   </g>
   <g id="patch_20">
    <path d="M 1493.836469 681.12 
L 1519.420225 681.12 
L 1519.420225 665.628544 
L 1493.836469 665.628544 
z
" clip-path="url(#pc281d0f35e)" style="fill: #384b70"/>
   </g>
   <g id="patch_21">
    <path d="M 1566.932916 681.12 
L 1592.516672 681.12 
L 1592.516672 624.754077 
L 1566.932916 624.754077 
z
" clip-path="url(#pc281d0f35e)" style="fill: #384b70"/>
   </g>
   <g id="patch_22">
    <path d="M 1640.029362 681.12 
L 1665.613119 681.12 
L 1665.613119 519.549197 
L 1640.029362 519.549197 
z
" clip-path="url(#pc281d0f35e)" style="fill: #384b70"/>
   </g>
   <g id="patch_23">
    <path d="M 276.780631 681.12 
L 302.364388 681.12 
L 302.364388 680.790468 
L 276.780631 680.790468 
z
" clip-path="url(#pc281d0f35e)" style="fill: #6a9c89"/>
   </g>
   <g id="patch_24">
    <path d="M 349.877078 681.12 
L 375.460834 681.12 
L 375.460834 673.620965 
L 349.877078 673.620965 
z
" clip-path="url(#pc281d0f35e)" style="fill: #6a9c89"/>
   </g>
   <g id="patch_25">
    <path d="M 422.973525 681.12 
L 448.557281 681.12 
L 448.557281 657.774489 
L 422.973525 657.774489 
z
" clip-path="url(#pc281d0f35e)" style="fill: #6a9c89"/>
   </g>
   <g id="patch_26">
    <path d="M 496.069971 681.12 
L 521.653728 681.12 
L 521.653728 502.258926 
L 496.069971 502.258926 
z
" clip-path="url(#pc281d0f35e)" style="fill: #6a9c89"/>
   </g>
   <g id="patch_27">
    <path d="M 569.166418 681.12 
L 594.750174 681.12 
L 594.750174 678.727647 
L 569.166418 678.727647 
z
" clip-path="url(#pc281d0f35e)" style="fill: #6a9c89"/>
   </g>
   <g id="patch_28">
    <path d="M 642.262865 681.12 
L 667.846621 681.12 
L 667.846621 679.251377 
L 642.262865 679.251377 
z
" clip-path="url(#pc281d0f35e)" style="fill: #6a9c89"/>
   </g>
   <g id="patch_29">
    <path d="M 715.359312 681.12 
L 740.943068 681.12 
L 740.943068 667.807561 
L 715.359312 667.807561 
z
" clip-path="url(#pc281d0f35e)" style="fill: #6a9c89"/>
   </g>
   <g id="patch_30">
    <path d="M 788.455758 681.12 
L 814.039515 681.12 
L 814.039515 669.423841 
L 788.455758 669.423841 
z
" clip-path="url(#pc281d0f35e)" style="fill: #6a9c89"/>
   </g>
   <g id="patch_31">
    <path d="M 861.552205 681.12 
L 887.135961 681.12 
L 887.135961 680.005467 
L 861.552205 680.005467 
z
" clip-path="url(#pc281d0f35e)" style="fill: #6a9c89"/>
   </g>
   <g id="patch_32">
    <path d="M 934.648652 681.12 
L 960.232408 681.12 
L 960.232408 678.325397 
L 934.648652 678.325397 
z
" clip-path="url(#pc281d0f35e)" style="fill: #6a9c89"/>
   </g>
   <g id="patch_33">
    <path d="M 1007.745098 681.12 
L 1033.328855 681.12 
L 1033.328855 653.750829 
L 1007.745098 653.750829 
z
" clip-path="url(#pc281d0f35e)" style="fill: #6a9c89"/>
   </g>
   <g id="patch_34">
    <path d="M 1080.841545 681.12 
L 1106.425301 681.12 
L 1106.425301 620.611538 
L 1080.841545 620.611538 
z
" clip-path="url(#pc281d0f35e)" style="fill: #6a9c89"/>
   </g>
   <g id="patch_35">
    <path d="M 1153.937992 681.12 
L 1179.521748 681.12 
L 1179.521748 680.26707 
L 1153.937992 680.26707 
z
" clip-path="url(#pc281d0f35e)" style="fill: #6a9c89"/>
   </g>
   <g id="patch_36">
    <path d="M 1227.034438 681.12 
L 1252.618195 681.12 
L 1252.618195 679.196042 
L 1227.034438 679.196042 
z
" clip-path="url(#pc281d0f35e)" style="fill: #6a9c89"/>
   </g>
   <g id="patch_37">
    <path d="M 1300.130885 681.12 
L 1325.714641 681.12 
L 1325.714641 669.79546 
L 1300.130885 669.79546 
z
" clip-path="url(#pc281d0f35e)" style="fill: #6a9c89"/>
   </g>
   <g id="patch_38">
    <path d="M 1373.227332 681.12 
L 1398.811088 681.12 
L 1398.811088 660.223982 
L 1373.227332 660.223982 
z
" clip-path="url(#pc281d0f35e)" style="fill: #6a9c89"/>
   </g>
   <g id="patch_39">
    <path d="M 1446.323779 681.12 
L 1471.907535 681.12 
L 1471.907535 676.890109 
L 1446.323779 676.890109 
z
" clip-path="url(#pc281d0f35e)" style="fill: #6a9c89"/>
   </g>
   <g id="patch_40">
    <path d="M 1519.420225 681.12 
L 1545.003982 681.12 
L 1545.003982 667.437916 
L 1519.420225 667.437916 
z
" clip-path="url(#pc281d0f35e)" style="fill: #6a9c89"/>
   </g>
   <g id="patch_41">
    <path d="M 1592.516672 681.12 
L 1618.100428 681.12 
L 1618.100428 574.930775 
L 1592.516672 574.930775 
z
" clip-path="url(#pc281d0f35e)" style="fill: #6a9c89"/>
   </g>
   <g id="patch_42">
    <path d="M 1665.613119 681.12 
L 1691.196875 681.12 
L 1691.196875 187.405714 
L 1665.613119 187.405714 
z
" clip-path="url(#pc281d0f35e)" style="fill: #6a9c89"/>
   </g>
   <g id="matplotlib.axis_1">
    <g id="xtick_1">
     <g id="line2d_1">
      <defs>
       <path id="m20b35cfcba" d="M 0 0 
L 0 20 
" style="stroke: #000000; stroke-width: 5"/>
      </defs>
      <g>
       <use xlink:href="#m20b35cfcba" x="263.988753" y="681.12" style="fill: #f8d941; stroke: #000000; stroke-width: 5"/>
      </g>
     </g>
     <g id="text_1">
      <!-- 0 -->
      <g transform="translate(248.988753 746.2825) scale(0.6 -0.6)">
       <defs>
        <path id="TimesNewRomanPSMT-30" d="M 231 2094 
Q 231 2819 450 3342 
Q 669 3866 1031 4122 
Q 1313 4325 1613 4325 
Q 2100 4325 2488 3828 
Q 2972 3213 2972 2159 
Q 2972 1422 2759 906 
Q 2547 391 2217 158 
Q 1888 -75 1581 -75 
Q 975 -75 572 641 
Q 231 1244 231 2094 
z
M 844 2016 
Q 844 1141 1059 588 
Q 1238 122 1591 122 
Q 1759 122 1940 273 
Q 2122 425 2216 781 
Q 2359 1319 2359 2297 
Q 2359 3022 2209 3506 
Q 2097 3866 1919 4016 
Q 1791 4119 1609 4119 
Q 1397 4119 1231 3928 
Q 1006 3669 925 3112 
Q 844 2556 844 2016 
z
" transform="scale(0.015625)"/>
       </defs>
       <use xlink:href="#TimesNewRomanPSMT-30"/>
      </g>
     </g>
    </g>
    <g id="xtick_2">
     <g id="line2d_2">
      <g>
       <use xlink:href="#m20b35cfcba" x="629.470987" y="681.12" style="fill: #f8d941; stroke: #000000; stroke-width: 5"/>
      </g>
     </g>
     <g id="text_2">
      <!-- 5 -->
      <g transform="translate(614.470987 746.2825) scale(0.6 -0.6)">
       <defs>
        <path id="TimesNewRomanPSMT-35" d="M 2778 4238 
L 2534 3706 
L 1259 3706 
L 981 3138 
Q 1809 3016 2294 2522 
Q 2709 2097 2709 1522 
Q 2709 1188 2573 903 
Q 2438 619 2231 419 
Q 2025 219 1772 97 
Q 1413 -75 1034 -75 
Q 653 -75 479 54 
Q 306 184 306 341 
Q 306 428 378 495 
Q 450 563 559 563 
Q 641 563 702 538 
Q 763 513 909 409 
Q 1144 247 1384 247 
Q 1750 247 2026 523 
Q 2303 800 2303 1197 
Q 2303 1581 2056 1914 
Q 1809 2247 1375 2428 
Q 1034 2569 447 2591 
L 1259 4238 
L 2778 4238 
z
" transform="scale(0.015625)"/>
       </defs>
       <use xlink:href="#TimesNewRomanPSMT-35"/>
      </g>
     </g>
    </g>
    <g id="xtick_3">
     <g id="line2d_3">
      <g>
       <use xlink:href="#m20b35cfcba" x="994.95322" y="681.12" style="fill: #f8d941; stroke: #000000; stroke-width: 5"/>
      </g>
     </g>
     <g id="text_3">
      <!-- 10 -->
      <g transform="translate(964.95322 746.2825) scale(0.6 -0.6)">
       <defs>
        <path id="TimesNewRomanPSMT-31" d="M 750 3822 
L 1781 4325 
L 1884 4325 
L 1884 747 
Q 1884 391 1914 303 
Q 1944 216 2037 169 
Q 2131 122 2419 116 
L 2419 0 
L 825 0 
L 825 116 
Q 1125 122 1212 167 
Q 1300 213 1334 289 
Q 1369 366 1369 747 
L 1369 3034 
Q 1369 3497 1338 3628 
Q 1316 3728 1258 3775 
Q 1200 3822 1119 3822 
Q 1003 3822 797 3725 
L 750 3822 
z
" transform="scale(0.015625)"/>
       </defs>
       <use xlink:href="#TimesNewRomanPSMT-31"/>
       <use xlink:href="#TimesNewRomanPSMT-30" x="50"/>
      </g>
     </g>
    </g>
    <g id="xtick_4">
     <g id="line2d_4">
      <g>
       <use xlink:href="#m20b35cfcba" x="1360.435454" y="681.12" style="fill: #f8d941; stroke: #000000; stroke-width: 5"/>
      </g>
     </g>
     <g id="text_4">
      <!-- 15 -->
      <g transform="translate(1330.435454 746.2825) scale(0.6 -0.6)">
       <use xlink:href="#TimesNewRomanPSMT-31"/>
       <use xlink:href="#TimesNewRomanPSMT-35" x="50"/>
      </g>
     </g>
    </g>
    <g id="xtick_5">
     <g id="line2d_5">
      <g>
       <use xlink:href="#m20b35cfcba" x="1725.917687" y="681.12" style="fill: #f8d941; stroke: #000000; stroke-width: 5"/>
      </g>
     </g>
     <g id="text_5">
      <!-- 20 -->
      <g transform="translate(1695.917687 746.2825) scale(0.6 -0.6)">
       <defs>
        <path id="TimesNewRomanPSMT-32" d="M 2934 816 
L 2638 0 
L 138 0 
L 138 116 
Q 1241 1122 1691 1759 
Q 2141 2397 2141 2925 
Q 2141 3328 1894 3587 
Q 1647 3847 1303 3847 
Q 991 3847 742 3664 
Q 494 3481 375 3128 
L 259 3128 
Q 338 3706 661 4015 
Q 984 4325 1469 4325 
Q 1984 4325 2329 3994 
Q 2675 3663 2675 3213 
Q 2675 2891 2525 2569 
Q 2294 2063 1775 1497 
Q 997 647 803 472 
L 1909 472 
Q 2247 472 2383 497 
Q 2519 522 2628 598 
Q 2738 675 2819 816 
L 2934 816 
z
" transform="scale(0.015625)"/>
       </defs>
       <use xlink:href="#TimesNewRomanPSMT-32"/>
       <use xlink:href="#TimesNewRomanPSMT-30" x="50"/>
      </g>
     </g>
    </g>
    <g id="text_6">
     <!-- #layers -->
     <g transform="translate(884.5625 804.779375) scale(0.6 -0.6)">
      <defs>
       <path id="TimesNewRomanPSMT-23" d="M 359 -88 
L 650 1334 
L 116 1334 
L 116 1591 
L 700 1591 
L 916 2663 
L 116 2663 
L 116 2913 
L 975 2913 
L 1259 4334 
L 1519 4334 
L 1234 2913 
L 2288 2913 
L 2591 4334 
L 2850 4334 
L 2553 2913 
L 3084 2913 
L 3084 2663 
L 2506 2663 
L 2288 1591 
L 3084 1591 
L 3084 1334 
L 2234 1334 
L 1944 -88 
L 1691 -88 
L 1975 1334 
L 916 1334 
L 619 -88 
L 359 -88 
z
M 963 1591 
L 2022 1591 
L 2247 2663 
L 1181 2663 
L 963 1591 
z
" transform="scale(0.015625)"/>
       <path id="TimesNewRomanPSMT-6c" d="M 1184 4444 
L 1184 647 
Q 1184 378 1223 290 
Q 1263 203 1344 158 
Q 1425 113 1647 113 
L 1647 0 
L 244 0 
L 244 113 
Q 441 113 512 153 
Q 584 194 625 287 
Q 666 381 666 647 
L 666 3247 
Q 666 3731 644 3842 
Q 622 3953 573 3993 
Q 525 4034 450 4034 
Q 369 4034 244 3984 
L 191 4094 
L 1044 4444 
L 1184 4444 
z
" transform="scale(0.015625)"/>
       <path id="TimesNewRomanPSMT-61" d="M 1822 413 
Q 1381 72 1269 19 
Q 1100 -59 909 -59 
Q 613 -59 420 144 
Q 228 347 228 678 
Q 228 888 322 1041 
Q 450 1253 767 1440 
Q 1084 1628 1822 1897 
L 1822 2009 
Q 1822 2438 1686 2597 
Q 1550 2756 1291 2756 
Q 1094 2756 978 2650 
Q 859 2544 859 2406 
L 866 2225 
Q 866 2081 792 2003 
Q 719 1925 600 1925 
Q 484 1925 411 2006 
Q 338 2088 338 2228 
Q 338 2497 613 2722 
Q 888 2947 1384 2947 
Q 1766 2947 2009 2819 
Q 2194 2722 2281 2516 
Q 2338 2381 2338 1966 
L 2338 994 
Q 2338 584 2353 492 
Q 2369 400 2405 369 
Q 2441 338 2488 338 
Q 2538 338 2575 359 
Q 2641 400 2828 588 
L 2828 413 
Q 2478 -56 2159 -56 
Q 2006 -56 1915 50 
Q 1825 156 1822 413 
z
M 1822 616 
L 1822 1706 
Q 1350 1519 1213 1441 
Q 966 1303 859 1153 
Q 753 1003 753 825 
Q 753 600 887 451 
Q 1022 303 1197 303 
Q 1434 303 1822 616 
z
" transform="scale(0.015625)"/>
       <path id="TimesNewRomanPSMT-79" d="M 38 2863 
L 1372 2863 
L 1372 2747 
L 1306 2747 
Q 1166 2747 1095 2686 
Q 1025 2625 1025 2534 
Q 1025 2413 1128 2197 
L 1825 753 
L 2466 2334 
Q 2519 2463 2519 2588 
Q 2519 2644 2497 2672 
Q 2472 2706 2419 2726 
Q 2366 2747 2231 2747 
L 2231 2863 
L 3163 2863 
L 3163 2747 
Q 3047 2734 2984 2696 
Q 2922 2659 2847 2556 
Q 2819 2513 2741 2316 
L 1575 -541 
Q 1406 -956 1132 -1168 
Q 859 -1381 606 -1381 
Q 422 -1381 303 -1275 
Q 184 -1169 184 -1031 
Q 184 -900 270 -820 
Q 356 -741 506 -741 
Q 609 -741 788 -809 
Q 913 -856 944 -856 
Q 1038 -856 1148 -759 
Q 1259 -663 1372 -384 
L 1575 113 
L 547 2272 
Q 500 2369 397 2513 
Q 319 2622 269 2659 
Q 197 2709 38 2747 
L 38 2863 
z
" transform="scale(0.015625)"/>
       <path id="TimesNewRomanPSMT-65" d="M 681 1784 
Q 678 1147 991 784 
Q 1303 422 1725 422 
Q 2006 422 2214 576 
Q 2422 731 2563 1106 
L 2659 1044 
Q 2594 616 2278 264 
Q 1963 -88 1488 -88 
Q 972 -88 605 314 
Q 238 716 238 1394 
Q 238 2128 614 2539 
Q 991 2950 1559 2950 
Q 2041 2950 2350 2633 
Q 2659 2316 2659 1784 
L 681 1784 
z
M 681 1966 
L 2006 1966 
Q 1991 2241 1941 2353 
Q 1863 2528 1708 2628 
Q 1553 2728 1384 2728 
Q 1125 2728 920 2526 
Q 716 2325 681 1966 
z
" transform="scale(0.015625)"/>
       <path id="TimesNewRomanPSMT-72" d="M 1038 2947 
L 1038 2303 
Q 1397 2947 1775 2947 
Q 1947 2947 2059 2842 
Q 2172 2738 2172 2600 
Q 2172 2478 2090 2393 
Q 2009 2309 1897 2309 
Q 1788 2309 1652 2417 
Q 1516 2525 1450 2525 
Q 1394 2525 1328 2463 
Q 1188 2334 1038 2041 
L 1038 669 
Q 1038 431 1097 309 
Q 1138 225 1241 169 
Q 1344 113 1538 113 
L 1538 0 
L 72 0 
L 72 113 
Q 291 113 397 181 
Q 475 231 506 341 
Q 522 394 522 644 
L 522 1753 
Q 522 2253 501 2348 
Q 481 2444 426 2487 
Q 372 2531 291 2531 
Q 194 2531 72 2484 
L 41 2597 
L 906 2947 
L 1038 2947 
z
" transform="scale(0.015625)"/>
       <path id="TimesNewRomanPSMT-73" d="M 2050 2947 
L 2050 1972 
L 1947 1972 
Q 1828 2431 1642 2597 
Q 1456 2763 1169 2763 
Q 950 2763 815 2647 
Q 681 2531 681 2391 
Q 681 2216 781 2091 
Q 878 1963 1175 1819 
L 1631 1597 
Q 2266 1288 2266 781 
Q 2266 391 1970 151 
Q 1675 -88 1309 -88 
Q 1047 -88 709 6 
Q 606 38 541 38 
Q 469 38 428 -44 
L 325 -44 
L 325 978 
L 428 978 
Q 516 541 762 319 
Q 1009 97 1316 97 
Q 1531 97 1667 223 
Q 1803 350 1803 528 
Q 1803 744 1651 891 
Q 1500 1038 1047 1263 
Q 594 1488 453 1669 
Q 313 1847 313 2119 
Q 313 2472 555 2709 
Q 797 2947 1181 2947 
Q 1350 2947 1591 2875 
Q 1750 2828 1803 2828 
Q 1853 2828 1881 2850 
Q 1909 2872 1947 2947 
L 2050 2947 
z
" transform="scale(0.015625)"/>
      </defs>
      <use xlink:href="#TimesNewRomanPSMT-23"/>
      <use xlink:href="#TimesNewRomanPSMT-6c" x="50"/>
      <use xlink:href="#TimesNewRomanPSMT-61" x="77.783203"/>
      <use xlink:href="#TimesNewRomanPSMT-79" x="122.167969"/>
      <use xlink:href="#TimesNewRomanPSMT-65" x="172.167969"/>
      <use xlink:href="#TimesNewRomanPSMT-72" x="216.552734"/>
      <use xlink:href="#TimesNewRomanPSMT-73" x="249.853516"/>
     </g>
    </g>
   </g>
   <g id="matplotlib.axis_2">
    <g id="ytick_1">
     <g id="line2d_6">
      <path d="M 179.196875 681.12 
L 1763.196875 681.12 
" clip-path="url(#pc281d0f35e)" style="fill: none; stroke-dasharray: 5.55,2.4; stroke-dashoffset: 0; stroke: #b0b0b0; stroke-width: 1.5"/>
     </g>
     <g id="line2d_7">
      <defs>
       <path id="mc25c807f1f" d="M 0 0 
L -20 0 
" style="stroke: #000000; stroke-width: 5"/>
      </defs>
      <g>
       <use xlink:href="#mc25c807f1f" x="179.196875" y="681.12" style="fill: #f8d941; stroke: #000000; stroke-width: 5"/>
      </g>
     </g>
     <g id="text_7">
      <!-- 0 -->
      <g transform="translate(125.696875 701.95125) scale(0.6 -0.6)">
       <use xlink:href="#TimesNewRomanPSMT-30"/>
      </g>
     </g>
    </g>
    <g id="ytick_2">
     <g id="line2d_8">
      <path d="M 179.196875 537.499364 
L 1763.196875 537.499364 
" clip-path="url(#pc281d0f35e)" style="fill: none; stroke-dasharray: 5.55,2.4; stroke-dashoffset: 0; stroke: #b0b0b0; stroke-width: 1.5"/>
     </g>
     <g id="line2d_9">
      <g>
       <use xlink:href="#mc25c807f1f" x="179.196875" y="537.499364" style="fill: #f8d941; stroke: #000000; stroke-width: 5"/>
      </g>
     </g>
     <g id="text_8">
      <!-- 200 -->
      <g transform="translate(65.696875 558.330614) scale(0.6 -0.6)">
       <use xlink:href="#TimesNewRomanPSMT-32"/>
       <use xlink:href="#TimesNewRomanPSMT-30" x="50"/>
       <use xlink:href="#TimesNewRomanPSMT-30" x="100"/>
      </g>
     </g>
    </g>
    <g id="ytick_3">
     <g id="line2d_10">
      <path d="M 179.196875 393.878728 
L 1763.196875 393.878728 
" clip-path="url(#pc281d0f35e)" style="fill: none; stroke-dasharray: 5.55,2.4; stroke-dashoffset: 0; stroke: #b0b0b0; stroke-width: 1.5"/>
     </g>
     <g id="line2d_11">
      <g>
       <use xlink:href="#mc25c807f1f" x="179.196875" y="393.878728" style="fill: #f8d941; stroke: #000000; stroke-width: 5"/>
      </g>
     </g>
     <g id="text_9">
      <!-- 400 -->
      <g transform="translate(65.696875 414.709978) scale(0.6 -0.6)">
       <defs>
        <path id="TimesNewRomanPSMT-34" d="M 2978 1563 
L 2978 1119 
L 2409 1119 
L 2409 0 
L 1894 0 
L 1894 1119 
L 100 1119 
L 100 1519 
L 2066 4325 
L 2409 4325 
L 2409 1563 
L 2978 1563 
z
M 1894 1563 
L 1894 3666 
L 406 1563 
L 1894 1563 
z
" transform="scale(0.015625)"/>
       </defs>
       <use xlink:href="#TimesNewRomanPSMT-34"/>
       <use xlink:href="#TimesNewRomanPSMT-30" x="50"/>
       <use xlink:href="#TimesNewRomanPSMT-30" x="100"/>
      </g>
     </g>
    </g>
    <g id="ytick_4">
     <g id="line2d_12">
      <path d="M 179.196875 250.258092 
L 1763.196875 250.258092 
" clip-path="url(#pc281d0f35e)" style="fill: none; stroke-dasharray: 5.55,2.4; stroke-dashoffset: 0; stroke: #b0b0b0; stroke-width: 1.5"/>
     </g>
     <g id="line2d_13">
      <g>
       <use xlink:href="#mc25c807f1f" x="179.196875" y="250.258092" style="fill: #f8d941; stroke: #000000; stroke-width: 5"/>
      </g>
     </g>
     <g id="text_10">
      <!-- 600 -->
      <g transform="translate(65.696875 271.089342) scale(0.6 -0.6)">
       <defs>
        <path id="TimesNewRomanPSMT-36" d="M 2869 4325 
L 2869 4209 
Q 2456 4169 2195 4045 
Q 1934 3922 1679 3669 
Q 1425 3416 1258 3105 
Q 1091 2794 978 2366 
Q 1428 2675 1881 2675 
Q 2316 2675 2634 2325 
Q 2953 1975 2953 1425 
Q 2953 894 2631 456 
Q 2244 -75 1606 -75 
Q 1172 -75 869 213 
Q 275 772 275 1663 
Q 275 2231 503 2743 
Q 731 3256 1154 3653 
Q 1578 4050 1965 4187 
Q 2353 4325 2688 4325 
L 2869 4325 
z
M 925 2138 
Q 869 1716 869 1456 
Q 869 1156 980 804 
Q 1091 453 1309 247 
Q 1469 100 1697 100 
Q 1969 100 2183 356 
Q 2397 613 2397 1088 
Q 2397 1622 2184 2012 
Q 1972 2403 1581 2403 
Q 1463 2403 1327 2353 
Q 1191 2303 925 2138 
z
" transform="scale(0.015625)"/>
       </defs>
       <use xlink:href="#TimesNewRomanPSMT-36"/>
       <use xlink:href="#TimesNewRomanPSMT-30" x="50"/>
       <use xlink:href="#TimesNewRomanPSMT-30" x="100"/>
      </g>
     </g>
    </g>
    <g id="text_11">
     <!-- classcial -->
     <g transform="translate(48.8625 523.545) rotate(-90) scale(0.6 -0.6)">
      <defs>
       <path id="TimesNewRomanPSMT-63" d="M 2631 1088 
Q 2516 522 2178 217 
Q 1841 -88 1431 -88 
Q 944 -88 581 321 
Q 219 731 219 1428 
Q 219 2103 620 2525 
Q 1022 2947 1584 2947 
Q 2006 2947 2278 2723 
Q 2550 2500 2550 2259 
Q 2550 2141 2473 2067 
Q 2397 1994 2259 1994 
Q 2075 1994 1981 2113 
Q 1928 2178 1911 2362 
Q 1894 2547 1784 2644 
Q 1675 2738 1481 2738 
Q 1169 2738 978 2506 
Q 725 2200 725 1697 
Q 725 1184 976 792 
Q 1228 400 1656 400 
Q 1963 400 2206 609 
Q 2378 753 2541 1131 
L 2631 1088 
z
" transform="scale(0.015625)"/>
       <path id="TimesNewRomanPSMT-69" d="M 928 4444 
Q 1059 4444 1151 4351 
Q 1244 4259 1244 4128 
Q 1244 3997 1151 3903 
Q 1059 3809 928 3809 
Q 797 3809 703 3903 
Q 609 3997 609 4128 
Q 609 4259 701 4351 
Q 794 4444 928 4444 
z
M 1188 2947 
L 1188 647 
Q 1188 378 1227 289 
Q 1266 200 1342 156 
Q 1419 113 1622 113 
L 1622 0 
L 231 0 
L 231 113 
Q 441 113 512 153 
Q 584 194 626 287 
Q 669 381 669 647 
L 669 1750 
Q 669 2216 641 2353 
Q 619 2453 572 2492 
Q 525 2531 444 2531 
Q 356 2531 231 2484 
L 188 2597 
L 1050 2947 
L 1188 2947 
z
" transform="scale(0.015625)"/>
      </defs>
      <use xlink:href="#TimesNewRomanPSMT-63"/>
      <use xlink:href="#TimesNewRomanPSMT-6c" x="44.384766"/>
      <use xlink:href="#TimesNewRomanPSMT-61" x="72.167969"/>
      <use xlink:href="#TimesNewRomanPSMT-73" x="116.552734"/>
      <use xlink:href="#TimesNewRomanPSMT-73" x="155.46875"/>
      <use xlink:href="#TimesNewRomanPSMT-63" x="194.384766"/>
      <use xlink:href="#TimesNewRomanPSMT-69" x="238.769531"/>
      <use xlink:href="#TimesNewRomanPSMT-61" x="266.552734"/>
      <use xlink:href="#TimesNewRomanPSMT-6c" x="310.9375"/>
     </g>
    </g>
   </g>
   <g id="line2d_14">
    <path d="M 179.196875 610.745888 
L 1763.196875 610.745888 
" clip-path="url(#pc281d0f35e)" style="fill: none; stroke-dasharray: 11.1,4.8; stroke-dashoffset: 0; stroke: #ffa500; stroke-width: 3"/>
   </g>
   <g id="patch_43">
    <path d="M 179.196875 681.12 
L 179.196875 162.72 
" style="fill: none; stroke: #000000; stroke-width: 5; stroke-linejoin: miter; stroke-linecap: square"/>
   </g>
   <g id="patch_44">
    <path d="M 1763.196875 681.12 
L 1763.196875 162.72 
" style="fill: none; stroke: #000000; stroke-width: 5; stroke-linejoin: miter; stroke-linecap: square"/>
   </g>
   <g id="patch_45">
    <path d="M 179.196875 681.12 
L 1763.196875 681.12 
" style="fill: none; stroke: #000000; stroke-width: 5; stroke-linejoin: miter; stroke-linecap: square"/>
   </g>
   <g id="patch_46">
    <path d="M 179.196875 162.72 
L 1763.196875 162.72 
" style="fill: none; stroke: #000000; stroke-width: 5; stroke-linejoin: miter; stroke-linecap: square"/>
   </g>
   <g id="legend_1">
    <g id="patch_47">
     <path d="M 203.196875 73.2 
L 323.196875 73.2 
L 323.196875 31.2 
L 203.196875 31.2 
z
" style="fill: #384b70"/>
    </g>
    <g id="text_12">
     <!-- ChocoSolver -->
     <g transform="translate(371.196875 73.2) scale(0.6 -0.6)">
      <defs>
       <path id="TimesNewRomanPSMT-43" d="M 3853 4334 
L 3950 2894 
L 3853 2894 
Q 3659 3541 3300 3825 
Q 2941 4109 2438 4109 
Q 2016 4109 1675 3895 
Q 1334 3681 1139 3212 
Q 944 2744 944 2047 
Q 944 1472 1128 1050 
Q 1313 628 1683 403 
Q 2053 178 2528 178 
Q 2941 178 3256 354 
Q 3572 531 3950 1056 
L 4047 994 
Q 3728 428 3303 165 
Q 2878 -97 2294 -97 
Q 1241 -97 663 684 
Q 231 1266 231 2053 
Q 231 2688 515 3219 
Q 800 3750 1298 4042 
Q 1797 4334 2388 4334 
Q 2847 4334 3294 4109 
Q 3425 4041 3481 4041 
Q 3566 4041 3628 4100 
Q 3709 4184 3744 4334 
L 3853 4334 
z
" transform="scale(0.015625)"/>
       <path id="TimesNewRomanPSMT-68" d="M 1041 4444 
L 1041 2350 
Q 1388 2731 1591 2839 
Q 1794 2947 1997 2947 
Q 2241 2947 2416 2812 
Q 2591 2678 2675 2391 
Q 2734 2191 2734 1659 
L 2734 647 
Q 2734 375 2778 275 
Q 2809 200 2884 156 
Q 2959 113 3159 113 
L 3159 0 
L 1753 0 
L 1753 113 
L 1819 113 
Q 2019 113 2097 173 
Q 2175 234 2206 353 
Q 2216 403 2216 647 
L 2216 1659 
Q 2216 2128 2167 2275 
Q 2119 2422 2012 2495 
Q 1906 2569 1756 2569 
Q 1603 2569 1437 2487 
Q 1272 2406 1041 2159 
L 1041 647 
Q 1041 353 1073 281 
Q 1106 209 1195 161 
Q 1284 113 1503 113 
L 1503 0 
L 84 0 
L 84 113 
Q 275 113 384 172 
Q 447 203 484 290 
Q 522 378 522 647 
L 522 3238 
Q 522 3728 498 3840 
Q 475 3953 426 3993 
Q 378 4034 297 4034 
Q 231 4034 84 3984 
L 41 4094 
L 897 4444 
L 1041 4444 
z
" transform="scale(0.015625)"/>
       <path id="TimesNewRomanPSMT-6f" d="M 1600 2947 
Q 2250 2947 2644 2453 
Q 2978 2031 2978 1484 
Q 2978 1100 2793 706 
Q 2609 313 2286 112 
Q 1963 -88 1566 -88 
Q 919 -88 538 428 
Q 216 863 216 1403 
Q 216 1797 411 2186 
Q 606 2575 925 2761 
Q 1244 2947 1600 2947 
z
M 1503 2744 
Q 1338 2744 1170 2645 
Q 1003 2547 900 2300 
Q 797 2053 797 1666 
Q 797 1041 1045 587 
Q 1294 134 1700 134 
Q 2003 134 2200 384 
Q 2397 634 2397 1244 
Q 2397 2006 2069 2444 
Q 1847 2744 1503 2744 
z
" transform="scale(0.015625)"/>
       <path id="TimesNewRomanPSMT-53" d="M 2934 4334 
L 2934 2869 
L 2819 2869 
Q 2763 3291 2617 3541 
Q 2472 3791 2203 3937 
Q 1934 4084 1647 4084 
Q 1322 4084 1109 3886 
Q 897 3688 897 3434 
Q 897 3241 1031 3081 
Q 1225 2847 1953 2456 
Q 2547 2138 2764 1967 
Q 2981 1797 3098 1565 
Q 3216 1334 3216 1081 
Q 3216 600 2842 251 
Q 2469 -97 1881 -97 
Q 1697 -97 1534 -69 
Q 1438 -53 1133 45 
Q 828 144 747 144 
Q 669 144 623 97 
Q 578 50 556 -97 
L 441 -97 
L 441 1356 
L 556 1356 
Q 638 900 775 673 
Q 913 447 1195 297 
Q 1478 147 1816 147 
Q 2206 147 2432 353 
Q 2659 559 2659 841 
Q 2659 997 2573 1156 
Q 2488 1316 2306 1453 
Q 2184 1547 1640 1851 
Q 1097 2156 867 2337 
Q 638 2519 519 2737 
Q 400 2956 400 3219 
Q 400 3675 750 4004 
Q 1100 4334 1641 4334 
Q 1978 4334 2356 4169 
Q 2531 4091 2603 4091 
Q 2684 4091 2736 4139 
Q 2788 4188 2819 4334 
L 2934 4334 
z
" transform="scale(0.015625)"/>
       <path id="TimesNewRomanPSMT-76" d="M 53 2863 
L 1400 2863 
L 1400 2747 
L 1313 2747 
Q 1191 2747 1127 2687 
Q 1063 2628 1063 2528 
Q 1063 2419 1128 2269 
L 1794 688 
L 2463 2328 
Q 2534 2503 2534 2594 
Q 2534 2638 2509 2666 
Q 2475 2713 2422 2730 
Q 2369 2747 2206 2747 
L 2206 2863 
L 3141 2863 
L 3141 2747 
Q 2978 2734 2916 2681 
Q 2806 2588 2719 2369 
L 1703 -88 
L 1575 -88 
L 553 2328 
Q 484 2497 421 2570 
Q 359 2644 263 2694 
Q 209 2722 53 2747 
L 53 2863 
z
" transform="scale(0.015625)"/>
      </defs>
      <use xlink:href="#TimesNewRomanPSMT-43"/>
      <use xlink:href="#TimesNewRomanPSMT-68" x="66.699219"/>
      <use xlink:href="#TimesNewRomanPSMT-6f" x="116.699219"/>
      <use xlink:href="#TimesNewRomanPSMT-63" x="166.699219"/>
      <use xlink:href="#TimesNewRomanPSMT-6f" x="211.083984"/>
      <use xlink:href="#TimesNewRomanPSMT-53" x="261.083984"/>
      <use xlink:href="#TimesNewRomanPSMT-6f" x="316.699219"/>
      <use xlink:href="#TimesNewRomanPSMT-6c" x="366.699219"/>
      <use xlink:href="#TimesNewRomanPSMT-76" x="394.482422"/>
      <use xlink:href="#TimesNewRomanPSMT-65" x="444.482422"/>
      <use xlink:href="#TimesNewRomanPSMT-72" x="488.867188"/>
     </g>
    </g>
    <g id="patch_48">
     <path d="M 927.93125 73.2 
L 1047.93125 73.2 
L 1047.93125 31.2 
L 927.93125 31.2 
z
" style="fill: #6a9c89"/>
    </g>
    <g id="text_13">
     <!-- QtoSimplifyDiscardSolver -->
     <g transform="translate(1095.93125 73.2) scale(0.6 -0.6)">
      <defs>
       <path id="TimesNewRomanPSMT-51" d="M 2819 -47 
Q 3138 -597 3508 -856 
Q 3878 -1116 4350 -1153 
L 4350 -1253 
Q 3919 -1238 3428 -1080 
Q 2938 -922 2498 -642 
Q 2059 -363 1741 -47 
Q 1291 134 1028 338 
Q 647 641 436 1083 
Q 225 1525 225 2128 
Q 225 3078 840 3706 
Q 1456 4334 2331 4334 
Q 3163 4334 3770 3704 
Q 4378 3075 4378 2116 
Q 4378 1338 3945 750 
Q 3513 163 2819 -47 
z
M 2294 4094 
Q 1725 4094 1378 3688 
Q 941 3178 941 2128 
Q 941 1100 1384 544 
Q 1728 116 2294 116 
Q 2881 116 3241 544 
Q 3663 1050 3663 2038 
Q 3663 2797 3431 3316 
Q 3253 3716 2958 3905 
Q 2663 4094 2294 4094 
z
" transform="scale(0.015625)"/>
       <path id="TimesNewRomanPSMT-74" d="M 1031 3803 
L 1031 2863 
L 1700 2863 
L 1700 2644 
L 1031 2644 
L 1031 788 
Q 1031 509 1111 412 
Q 1191 316 1316 316 
Q 1419 316 1516 380 
Q 1613 444 1666 569 
L 1788 569 
Q 1678 263 1478 108 
Q 1278 -47 1066 -47 
Q 922 -47 784 33 
Q 647 113 581 261 
Q 516 409 516 719 
L 516 2644 
L 63 2644 
L 63 2747 
Q 234 2816 414 2980 
Q 594 3144 734 3369 
Q 806 3488 934 3803 
L 1031 3803 
z
" transform="scale(0.015625)"/>
       <path id="TimesNewRomanPSMT-6d" d="M 1050 2338 
Q 1363 2650 1419 2697 
Q 1559 2816 1721 2881 
Q 1884 2947 2044 2947 
Q 2313 2947 2506 2790 
Q 2700 2634 2766 2338 
Q 3088 2713 3309 2830 
Q 3531 2947 3766 2947 
Q 3994 2947 4170 2830 
Q 4347 2713 4450 2447 
Q 4519 2266 4519 1878 
L 4519 647 
Q 4519 378 4559 278 
Q 4591 209 4675 161 
Q 4759 113 4950 113 
L 4950 0 
L 3538 0 
L 3538 113 
L 3597 113 
Q 3781 113 3884 184 
Q 3956 234 3988 344 
Q 4000 397 4000 647 
L 4000 1878 
Q 4000 2228 3916 2372 
Q 3794 2572 3525 2572 
Q 3359 2572 3192 2489 
Q 3025 2406 2788 2181 
L 2781 2147 
L 2788 2013 
L 2788 647 
Q 2788 353 2820 281 
Q 2853 209 2943 161 
Q 3034 113 3253 113 
L 3253 0 
L 1806 0 
L 1806 113 
Q 2044 113 2133 169 
Q 2222 225 2256 338 
Q 2272 391 2272 647 
L 2272 1878 
Q 2272 2228 2169 2381 
Q 2031 2581 1784 2581 
Q 1616 2581 1450 2491 
Q 1191 2353 1050 2181 
L 1050 647 
Q 1050 366 1089 281 
Q 1128 197 1204 155 
Q 1281 113 1516 113 
L 1516 0 
L 100 0 
L 100 113 
Q 297 113 375 155 
Q 453 197 493 289 
Q 534 381 534 647 
L 534 1741 
Q 534 2213 506 2350 
Q 484 2453 437 2492 
Q 391 2531 309 2531 
Q 222 2531 100 2484 
L 53 2597 
L 916 2947 
L 1050 2947 
L 1050 2338 
z
" transform="scale(0.015625)"/>
       <path id="TimesNewRomanPSMT-70" d="M -6 2578 
L 875 2934 
L 994 2934 
L 994 2266 
Q 1216 2644 1439 2795 
Q 1663 2947 1909 2947 
Q 2341 2947 2628 2609 
Q 2981 2197 2981 1534 
Q 2981 794 2556 309 
Q 2206 -88 1675 -88 
Q 1444 -88 1275 -22 
Q 1150 25 994 166 
L 994 -706 
Q 994 -1000 1030 -1079 
Q 1066 -1159 1155 -1206 
Q 1244 -1253 1478 -1253 
L 1478 -1369 
L -22 -1369 
L -22 -1253 
L 56 -1253 
Q 228 -1256 350 -1188 
Q 409 -1153 442 -1076 
Q 475 -1000 475 -688 
L 475 2019 
Q 475 2297 450 2372 
Q 425 2447 370 2484 
Q 316 2522 222 2522 
Q 147 2522 31 2478 
L -6 2578 
z
M 994 2081 
L 994 1013 
Q 994 666 1022 556 
Q 1066 375 1236 237 
Q 1406 100 1666 100 
Q 1978 100 2172 344 
Q 2425 663 2425 1241 
Q 2425 1897 2138 2250 
Q 1938 2494 1663 2494 
Q 1513 2494 1366 2419 
Q 1253 2363 994 2081 
z
" transform="scale(0.015625)"/>
       <path id="TimesNewRomanPSMT-66" d="M 1319 2638 
L 1319 756 
Q 1319 356 1406 250 
Q 1522 113 1716 113 
L 1975 113 
L 1975 0 
L 266 0 
L 266 113 
L 394 113 
Q 519 113 622 175 
Q 725 238 764 344 
Q 803 450 803 756 
L 803 2638 
L 247 2638 
L 247 2863 
L 803 2863 
L 803 3050 
Q 803 3478 940 3775 
Q 1078 4072 1361 4255 
Q 1644 4438 1997 4438 
Q 2325 4438 2600 4225 
Q 2781 4084 2781 3909 
Q 2781 3816 2700 3733 
Q 2619 3650 2525 3650 
Q 2453 3650 2373 3701 
Q 2294 3753 2178 3923 
Q 2063 4094 1966 4153 
Q 1869 4213 1750 4213 
Q 1606 4213 1506 4136 
Q 1406 4059 1362 3898 
Q 1319 3738 1319 3069 
L 1319 2863 
L 2056 2863 
L 2056 2638 
L 1319 2638 
z
" transform="scale(0.015625)"/>
       <path id="TimesNewRomanPSMT-44" d="M 109 0 
L 109 116 
L 269 116 
Q 538 116 650 288 
Q 719 391 719 750 
L 719 3488 
Q 719 3884 631 3984 
Q 509 4122 269 4122 
L 109 4122 
L 109 4238 
L 1834 4238 
Q 2784 4238 3279 4022 
Q 3775 3806 4076 3303 
Q 4378 2800 4378 2141 
Q 4378 1256 3841 663 
Q 3238 0 2003 0 
L 109 0 
z
M 1319 306 
Q 1716 219 1984 219 
Q 2709 219 3187 728 
Q 3666 1238 3666 2109 
Q 3666 2988 3187 3494 
Q 2709 4000 1959 4000 
Q 1678 4000 1319 3909 
L 1319 306 
z
" transform="scale(0.015625)"/>
       <path id="TimesNewRomanPSMT-64" d="M 2222 322 
Q 2013 103 1813 7 
Q 1613 -88 1381 -88 
Q 913 -88 563 304 
Q 213 697 213 1313 
Q 213 1928 600 2439 
Q 988 2950 1597 2950 
Q 1975 2950 2222 2709 
L 2222 3238 
Q 2222 3728 2198 3840 
Q 2175 3953 2125 3993 
Q 2075 4034 2000 4034 
Q 1919 4034 1784 3984 
L 1744 4094 
L 2597 4444 
L 2738 4444 
L 2738 1134 
Q 2738 631 2761 520 
Q 2784 409 2836 365 
Q 2888 322 2956 322 
Q 3041 322 3181 375 
L 3216 266 
L 2366 -88 
L 2222 -88 
L 2222 322 
z
M 2222 541 
L 2222 2016 
Q 2203 2228 2109 2403 
Q 2016 2578 1861 2667 
Q 1706 2756 1559 2756 
Q 1284 2756 1069 2509 
Q 784 2184 784 1559 
Q 784 928 1059 592 
Q 1334 256 1672 256 
Q 1956 256 2222 541 
z
" transform="scale(0.015625)"/>
      </defs>
      <use xlink:href="#TimesNewRomanPSMT-51"/>
      <use xlink:href="#TimesNewRomanPSMT-74" x="72.216797"/>
      <use xlink:href="#TimesNewRomanPSMT-6f" x="100"/>
      <use xlink:href="#TimesNewRomanPSMT-53" x="150"/>
      <use xlink:href="#TimesNewRomanPSMT-69" x="205.615234"/>
      <use xlink:href="#TimesNewRomanPSMT-6d" x="233.398438"/>
      <use xlink:href="#TimesNewRomanPSMT-70" x="311.181641"/>
      <use xlink:href="#TimesNewRomanPSMT-6c" x="361.181641"/>
      <use xlink:href="#TimesNewRomanPSMT-69" x="388.964844"/>
      <use xlink:href="#TimesNewRomanPSMT-66" x="416.748047"/>
      <use xlink:href="#TimesNewRomanPSMT-79" x="450.048828"/>
      <use xlink:href="#TimesNewRomanPSMT-44" x="500.048828"/>
      <use xlink:href="#TimesNewRomanPSMT-69" x="572.265625"/>
      <use xlink:href="#TimesNewRomanPSMT-73" x="600.048828"/>
      <use xlink:href="#TimesNewRomanPSMT-63" x="638.964844"/>
      <use xlink:href="#TimesNewRomanPSMT-61" x="683.349609"/>
      <use xlink:href="#TimesNewRomanPSMT-72" x="727.734375"/>
      <use xlink:href="#TimesNewRomanPSMT-64" x="761.035156"/>
      <use xlink:href="#TimesNewRomanPSMT-53" x="811.035156"/>
      <use xlink:href="#TimesNewRomanPSMT-6f" x="866.650391"/>
      <use xlink:href="#TimesNewRomanPSMT-6c" x="916.650391"/>
      <use xlink:href="#TimesNewRomanPSMT-76" x="944.433594"/>
      <use xlink:href="#TimesNewRomanPSMT-65" x="994.433594"/>
      <use xlink:href="#TimesNewRomanPSMT-72" x="1038.818359"/>
     </g>
    </g>
   </g>
  </g>
 </g>
 <defs>
  <clipPath id="pc281d0f35e">
   <rect x="179.196875" y="162.72" width="1584" height="518.4"/>
  </clipPath>
 </defs>
</svg>
