<?xml version="1.0" encoding="utf-8" standalone="no"?>
<!DOCTYPE svg PUBLIC "-//W3C//DTD SVG 1.1//EN"
  "http://www.w3.org/Graphics/SVG/1.1/DTD/svg11.dtd">
<svg xmlns:xlink="http://www.w3.org/1999/xlink" width="1469.367523pt" height="670.00455pt" viewBox="0 0 1469.367523 670.00455" xmlns="http://www.w3.org/2000/svg" version="1.1">
 <metadata>
  <rdf:RDF xmlns:dc="http://purl.org/dc/elements/1.1/" xmlns:cc="http://creativecommons.org/ns#" xmlns:rdf="http://www.w3.org/1999/02/22-rdf-syntax-ns#">
   <cc:Work>
    <dc:type rdf:resource="http://purl.org/dc/dcmitype/StillImage"/>
    <dc:date>2025-02-20T21:15:54.869121</dc:date>
    <dc:format>image/svg+xml</dc:format>
    <dc:creator>
     <cc:Agent>
      <dc:title>Matplotlib v3.9.2, https://matplotlib.org/</dc:title>
     </cc:Agent>
    </dc:creator>
   </cc:Work>
  </rdf:RDF>
 </metadata>
 <defs>
  <style type="text/css">*{stroke-linejoin: round; stroke-linecap: butt}</style>
 </defs>
 <g id="figure_1">
  <g id="patch_1">
   <path d="M 0 670.00455 
L 1469.367523 670.00455 
L 1469.367523 0 
L 0 0 
z
" style="fill: #ffffff"/>
  </g>
  <g id="axes_1">
   <g id="patch_2">
    <path d="M 164.196875 526.3108 
L 662.820174 526.3108 
L 662.820174 126.9948 
L 164.196875 126.9948 
z
" style="fill: #ffffff"/>
   </g>
   <g id="matplotlib.axis_1">
    <g id="xtick_1">
     <g id="line2d_1">
      <defs>
       <path id="m7ca92fca1d" d="M 0 0 
L 0 20 
" style="stroke: #000000; stroke-width: 5"/>
      </defs>
      <g>
       <use xlink:href="#m7ca92fca1d" x="388.32553" y="526.3108" style="fill: #f8d941; stroke: #000000; stroke-width: 5"/>
      </g>
     </g>
     <g id="text_1">
      <!-- 5 -->
      <g transform="translate(373.32553 591.4733) scale(0.6 -0.6)">
       <defs>
        <path id="TimesNewRomanPSMT-35" d="M 2778 4238 
L 2534 3706 
L 1259 3706 
L 981 3138 
Q 1809 3016 2294 2522 
Q 2709 2097 2709 1522 
Q 2709 1188 2573 903 
Q 2438 619 2231 419 
Q 2025 219 1772 97 
Q 1413 -75 1034 -75 
Q 653 -75 479 54 
Q 306 184 306 341 
Q 306 428 378 495 
Q 450 563 559 563 
Q 641 563 702 538 
Q 763 513 909 409 
Q 1144 247 1384 247 
Q 1750 247 2026 523 
Q 2303 800 2303 1197 
Q 2303 1581 2056 1914 
Q 1809 2247 1375 2428 
Q 1034 2569 447 2591 
L 1259 4238 
L 2778 4238 
z
" transform="scale(0.015625)"/>
       </defs>
       <use xlink:href="#TimesNewRomanPSMT-35"/>
      </g>
     </g>
    </g>
    <g id="xtick_2">
     <g id="line2d_2">
      <g>
       <use xlink:href="#m7ca92fca1d" x="640.155479" y="526.3108" style="fill: #f8d941; stroke: #000000; stroke-width: 5"/>
      </g>
     </g>
     <g id="text_2">
      <!-- 10 -->
      <g transform="translate(610.155479 591.4733) scale(0.6 -0.6)">
       <defs>
        <path id="TimesNewRomanPSMT-31" d="M 750 3822 
L 1781 4325 
L 1884 4325 
L 1884 747 
Q 1884 391 1914 303 
Q 1944 216 2037 169 
Q 2131 122 2419 116 
L 2419 0 
L 825 0 
L 825 116 
Q 1125 122 1212 167 
Q 1300 213 1334 289 
Q 1369 366 1369 747 
L 1369 3034 
Q 1369 3497 1338 3628 
Q 1316 3728 1258 3775 
Q 1200 3822 1119 3822 
Q 1003 3822 797 3725 
L 750 3822 
z
" transform="scale(0.015625)"/>
        <path id="TimesNewRomanPSMT-30" d="M 231 2094 
Q 231 2819 450 3342 
Q 669 3866 1031 4122 
Q 1313 4325 1613 4325 
Q 2100 4325 2488 3828 
Q 2972 3213 2972 2159 
Q 2972 1422 2759 906 
Q 2547 391 2217 158 
Q 1888 -75 1581 -75 
Q 975 -75 572 641 
Q 231 1244 231 2094 
z
M 844 2016 
Q 844 1141 1059 588 
Q 1238 122 1591 122 
Q 1759 122 1940 273 
Q 2122 425 2216 781 
Q 2359 1319 2359 2297 
Q 2359 3022 2209 3506 
Q 2097 3866 1919 4016 
Q 1791 4119 1609 4119 
Q 1397 4119 1231 3928 
Q 1006 3669 925 3112 
Q 844 2556 844 2016 
z
" transform="scale(0.015625)"/>
       </defs>
       <use xlink:href="#TimesNewRomanPSMT-31"/>
       <use xlink:href="#TimesNewRomanPSMT-30" x="50"/>
      </g>
     </g>
    </g>
    <g id="text_3">
     <!-- #segments -->
     <g transform="translate(286.852274 649.857675) scale(0.6 -0.6)">
      <defs>
       <path id="TimesNewRomanPSMT-23" d="M 359 -88 
L 650 1334 
L 116 1334 
L 116 1591 
L 700 1591 
L 916 2663 
L 116 2663 
L 116 2913 
L 975 2913 
L 1259 4334 
L 1519 4334 
L 1234 2913 
L 2288 2913 
L 2591 4334 
L 2850 4334 
L 2553 2913 
L 3084 2913 
L 3084 2663 
L 2506 2663 
L 2288 1591 
L 3084 1591 
L 3084 1334 
L 2234 1334 
L 1944 -88 
L 1691 -88 
L 1975 1334 
L 916 1334 
L 619 -88 
L 359 -88 
z
M 963 1591 
L 2022 1591 
L 2247 2663 
L 1181 2663 
L 963 1591 
z
" transform="scale(0.015625)"/>
       <path id="TimesNewRomanPSMT-73" d="M 2050 2947 
L 2050 1972 
L 1947 1972 
Q 1828 2431 1642 2597 
Q 1456 2763 1169 2763 
Q 950 2763 815 2647 
Q 681 2531 681 2391 
Q 681 2216 781 2091 
Q 878 1963 1175 1819 
L 1631 1597 
Q 2266 1288 2266 781 
Q 2266 391 1970 151 
Q 1675 -88 1309 -88 
Q 1047 -88 709 6 
Q 606 38 541 38 
Q 469 38 428 -44 
L 325 -44 
L 325 978 
L 428 978 
Q 516 541 762 319 
Q 1009 97 1316 97 
Q 1531 97 1667 223 
Q 1803 350 1803 528 
Q 1803 744 1651 891 
Q 1500 1038 1047 1263 
Q 594 1488 453 1669 
Q 313 1847 313 2119 
Q 313 2472 555 2709 
Q 797 2947 1181 2947 
Q 1350 2947 1591 2875 
Q 1750 2828 1803 2828 
Q 1853 2828 1881 2850 
Q 1909 2872 1947 2947 
L 2050 2947 
z
" transform="scale(0.015625)"/>
       <path id="TimesNewRomanPSMT-65" d="M 681 1784 
Q 678 1147 991 784 
Q 1303 422 1725 422 
Q 2006 422 2214 576 
Q 2422 731 2563 1106 
L 2659 1044 
Q 2594 616 2278 264 
Q 1963 -88 1488 -88 
Q 972 -88 605 314 
Q 238 716 238 1394 
Q 238 2128 614 2539 
Q 991 2950 1559 2950 
Q 2041 2950 2350 2633 
Q 2659 2316 2659 1784 
L 681 1784 
z
M 681 1966 
L 2006 1966 
Q 1991 2241 1941 2353 
Q 1863 2528 1708 2628 
Q 1553 2728 1384 2728 
Q 1125 2728 920 2526 
Q 716 2325 681 1966 
z
" transform="scale(0.015625)"/>
       <path id="TimesNewRomanPSMT-67" d="M 966 1044 
Q 703 1172 562 1401 
Q 422 1631 422 1909 
Q 422 2334 742 2640 
Q 1063 2947 1563 2947 
Q 1972 2947 2272 2747 
L 2878 2747 
Q 3013 2747 3034 2739 
Q 3056 2731 3066 2713 
Q 3084 2684 3084 2613 
Q 3084 2531 3069 2500 
Q 3059 2484 3036 2475 
Q 3013 2466 2878 2466 
L 2506 2466 
Q 2681 2241 2681 1891 
Q 2681 1491 2375 1206 
Q 2069 922 1553 922 
Q 1341 922 1119 984 
Q 981 866 932 777 
Q 884 688 884 625 
Q 884 572 936 522 
Q 988 472 1138 450 
Q 1225 438 1575 428 
Q 2219 413 2409 384 
Q 2700 344 2873 169 
Q 3047 -6 3047 -263 
Q 3047 -616 2716 -925 
Q 2228 -1381 1444 -1381 
Q 841 -1381 425 -1109 
Q 191 -953 191 -784 
Q 191 -709 225 -634 
Q 278 -519 444 -313 
Q 466 -284 763 25 
Q 600 122 533 198 
Q 466 275 466 372 
Q 466 481 555 628 
Q 644 775 966 1044 
z
M 1509 2797 
Q 1278 2797 1122 2612 
Q 966 2428 966 2047 
Q 966 1553 1178 1281 
Q 1341 1075 1591 1075 
Q 1828 1075 1981 1253 
Q 2134 1431 2134 1813 
Q 2134 2309 1919 2591 
Q 1759 2797 1509 2797 
z
M 934 0 
Q 788 -159 713 -296 
Q 638 -434 638 -550 
Q 638 -700 819 -813 
Q 1131 -1006 1722 -1006 
Q 2284 -1006 2551 -807 
Q 2819 -609 2819 -384 
Q 2819 -222 2659 -153 
Q 2497 -84 2016 -72 
Q 1313 -53 934 0 
z
" transform="scale(0.015625)"/>
       <path id="TimesNewRomanPSMT-6d" d="M 1050 2338 
Q 1363 2650 1419 2697 
Q 1559 2816 1721 2881 
Q 1884 2947 2044 2947 
Q 2313 2947 2506 2790 
Q 2700 2634 2766 2338 
Q 3088 2713 3309 2830 
Q 3531 2947 3766 2947 
Q 3994 2947 4170 2830 
Q 4347 2713 4450 2447 
Q 4519 2266 4519 1878 
L 4519 647 
Q 4519 378 4559 278 
Q 4591 209 4675 161 
Q 4759 113 4950 113 
L 4950 0 
L 3538 0 
L 3538 113 
L 3597 113 
Q 3781 113 3884 184 
Q 3956 234 3988 344 
Q 4000 397 4000 647 
L 4000 1878 
Q 4000 2228 3916 2372 
Q 3794 2572 3525 2572 
Q 3359 2572 3192 2489 
Q 3025 2406 2788 2181 
L 2781 2147 
L 2788 2013 
L 2788 647 
Q 2788 353 2820 281 
Q 2853 209 2943 161 
Q 3034 113 3253 113 
L 3253 0 
L 1806 0 
L 1806 113 
Q 2044 113 2133 169 
Q 2222 225 2256 338 
Q 2272 391 2272 647 
L 2272 1878 
Q 2272 2228 2169 2381 
Q 2031 2581 1784 2581 
Q 1616 2581 1450 2491 
Q 1191 2353 1050 2181 
L 1050 647 
Q 1050 366 1089 281 
Q 1128 197 1204 155 
Q 1281 113 1516 113 
L 1516 0 
L 100 0 
L 100 113 
Q 297 113 375 155 
Q 453 197 493 289 
Q 534 381 534 647 
L 534 1741 
Q 534 2213 506 2350 
Q 484 2453 437 2492 
Q 391 2531 309 2531 
Q 222 2531 100 2484 
L 53 2597 
L 916 2947 
L 1050 2947 
L 1050 2338 
z
" transform="scale(0.015625)"/>
       <path id="TimesNewRomanPSMT-6e" d="M 1034 2341 
Q 1538 2947 1994 2947 
Q 2228 2947 2397 2830 
Q 2566 2713 2666 2444 
Q 2734 2256 2734 1869 
L 2734 647 
Q 2734 375 2778 278 
Q 2813 200 2889 156 
Q 2966 113 3172 113 
L 3172 0 
L 1756 0 
L 1756 113 
L 1816 113 
Q 2016 113 2095 173 
Q 2175 234 2206 353 
Q 2219 400 2219 647 
L 2219 1819 
Q 2219 2209 2117 2386 
Q 2016 2563 1775 2563 
Q 1403 2563 1034 2156 
L 1034 647 
Q 1034 356 1069 288 
Q 1113 197 1189 155 
Q 1266 113 1500 113 
L 1500 0 
L 84 0 
L 84 113 
L 147 113 
Q 366 113 442 223 
Q 519 334 519 647 
L 519 1709 
Q 519 2225 495 2337 
Q 472 2450 423 2490 
Q 375 2531 294 2531 
Q 206 2531 84 2484 
L 38 2597 
L 900 2947 
L 1034 2947 
L 1034 2341 
z
" transform="scale(0.015625)"/>
       <path id="TimesNewRomanPSMT-74" d="M 1031 3803 
L 1031 2863 
L 1700 2863 
L 1700 2644 
L 1031 2644 
L 1031 788 
Q 1031 509 1111 412 
Q 1191 316 1316 316 
Q 1419 316 1516 380 
Q 1613 444 1666 569 
L 1788 569 
Q 1678 263 1478 108 
Q 1278 -47 1066 -47 
Q 922 -47 784 33 
Q 647 113 581 261 
Q 516 409 516 719 
L 516 2644 
L 63 2644 
L 63 2747 
Q 234 2816 414 2980 
Q 594 3144 734 3369 
Q 806 3488 934 3803 
L 1031 3803 
z
" transform="scale(0.015625)"/>
      </defs>
      <use xlink:href="#TimesNewRomanPSMT-23"/>
      <use xlink:href="#TimesNewRomanPSMT-73" x="50"/>
      <use xlink:href="#TimesNewRomanPSMT-65" x="88.916016"/>
      <use xlink:href="#TimesNewRomanPSMT-67" x="133.300781"/>
      <use xlink:href="#TimesNewRomanPSMT-6d" x="183.300781"/>
      <use xlink:href="#TimesNewRomanPSMT-65" x="261.083984"/>
      <use xlink:href="#TimesNewRomanPSMT-6e" x="305.46875"/>
      <use xlink:href="#TimesNewRomanPSMT-74" x="355.46875"/>
      <use xlink:href="#TimesNewRomanPSMT-73" x="383.251953"/>
     </g>
    </g>
   </g>
   <g id="matplotlib.axis_2">
    <g id="ytick_1">
     <g id="line2d_3">
      <path d="M 164.196875 426.352076 
L 662.820174 426.352076 
" clip-path="url(#pc7ef48a924)" style="fill: none; stroke-dasharray: 5.55,2.4; stroke-dashoffset: 0; stroke: #b0b0b0; stroke-width: 1.5"/>
     </g>
     <g id="line2d_4">
      <defs>
       <path id="mf42365830e" d="M 0 0 
L -20 0 
" style="stroke: #000000; stroke-width: 5"/>
      </defs>
      <g>
       <use xlink:href="#mf42365830e" x="164.196875" y="426.352076" style="fill: #f8d941; stroke: #000000; stroke-width: 5"/>
      </g>
     </g>
     <g id="text_4">
      <!-- 0.5 -->
      <g transform="translate(65.696875 447.183326) scale(0.6 -0.6)">
       <defs>
        <path id="TimesNewRomanPSMT-2e" d="M 800 606 
Q 947 606 1047 504 
Q 1147 403 1147 259 
Q 1147 116 1045 14 
Q 944 -88 800 -88 
Q 656 -88 554 14 
Q 453 116 453 259 
Q 453 406 554 506 
Q 656 606 800 606 
z
" transform="scale(0.015625)"/>
       </defs>
       <use xlink:href="#TimesNewRomanPSMT-30"/>
       <use xlink:href="#TimesNewRomanPSMT-2e" x="50"/>
       <use xlink:href="#TimesNewRomanPSMT-35" x="75"/>
      </g>
     </g>
    </g>
    <g id="ytick_2">
     <g id="line2d_5">
      <path d="M 164.196875 307.371048 
L 662.820174 307.371048 
" clip-path="url(#pc7ef48a924)" style="fill: none; stroke-dasharray: 5.55,2.4; stroke-dashoffset: 0; stroke: #b0b0b0; stroke-width: 1.5"/>
     </g>
     <g id="line2d_6">
      <g>
       <use xlink:href="#mf42365830e" x="164.196875" y="307.371048" style="fill: #f8d941; stroke: #000000; stroke-width: 5"/>
      </g>
     </g>
     <g id="text_5">
      <!-- 1.0 -->
      <g transform="translate(65.696875 328.202298) scale(0.6 -0.6)">
       <use xlink:href="#TimesNewRomanPSMT-31"/>
       <use xlink:href="#TimesNewRomanPSMT-2e" x="50"/>
       <use xlink:href="#TimesNewRomanPSMT-30" x="75"/>
      </g>
     </g>
    </g>
    <g id="ytick_3">
     <g id="line2d_7">
      <path d="M 164.196875 188.39002 
L 662.820174 188.39002 
" clip-path="url(#pc7ef48a924)" style="fill: none; stroke-dasharray: 5.55,2.4; stroke-dashoffset: 0; stroke: #b0b0b0; stroke-width: 1.5"/>
     </g>
     <g id="line2d_8">
      <g>
       <use xlink:href="#mf42365830e" x="164.196875" y="188.39002" style="fill: #f8d941; stroke: #000000; stroke-width: 5"/>
      </g>
     </g>
     <g id="text_6">
      <!-- 1.5 -->
      <g transform="translate(65.696875 209.22127) scale(0.6 -0.6)">
       <use xlink:href="#TimesNewRomanPSMT-31"/>
       <use xlink:href="#TimesNewRomanPSMT-2e" x="50"/>
       <use xlink:href="#TimesNewRomanPSMT-35" x="75"/>
      </g>
     </g>
    </g>
    <g id="text_7">
     <!-- #shots  -->
     <g transform="translate(48.8625 410.8403) rotate(-90) scale(0.6 -0.6)">
      <defs>
       <path id="TimesNewRomanPSMT-68" d="M 1041 4444 
L 1041 2350 
Q 1388 2731 1591 2839 
Q 1794 2947 1997 2947 
Q 2241 2947 2416 2812 
Q 2591 2678 2675 2391 
Q 2734 2191 2734 1659 
L 2734 647 
Q 2734 375 2778 275 
Q 2809 200 2884 156 
Q 2959 113 3159 113 
L 3159 0 
L 1753 0 
L 1753 113 
L 1819 113 
Q 2019 113 2097 173 
Q 2175 234 2206 353 
Q 2216 403 2216 647 
L 2216 1659 
Q 2216 2128 2167 2275 
Q 2119 2422 2012 2495 
Q 1906 2569 1756 2569 
Q 1603 2569 1437 2487 
Q 1272 2406 1041 2159 
L 1041 647 
Q 1041 353 1073 281 
Q 1106 209 1195 161 
Q 1284 113 1503 113 
L 1503 0 
L 84 0 
L 84 113 
Q 275 113 384 172 
Q 447 203 484 290 
Q 522 378 522 647 
L 522 3238 
Q 522 3728 498 3840 
Q 475 3953 426 3993 
Q 378 4034 297 4034 
Q 231 4034 84 3984 
L 41 4094 
L 897 4444 
L 1041 4444 
z
" transform="scale(0.015625)"/>
       <path id="TimesNewRomanPSMT-6f" d="M 1600 2947 
Q 2250 2947 2644 2453 
Q 2978 2031 2978 1484 
Q 2978 1100 2793 706 
Q 2609 313 2286 112 
Q 1963 -88 1566 -88 
Q 919 -88 538 428 
Q 216 863 216 1403 
Q 216 1797 411 2186 
Q 606 2575 925 2761 
Q 1244 2947 1600 2947 
z
M 1503 2744 
Q 1338 2744 1170 2645 
Q 1003 2547 900 2300 
Q 797 2053 797 1666 
Q 797 1041 1045 587 
Q 1294 134 1700 134 
Q 2003 134 2200 384 
Q 2397 634 2397 1244 
Q 2397 2006 2069 2444 
Q 1847 2744 1503 2744 
z
" transform="scale(0.015625)"/>
       <path id="TimesNewRomanPSMT-20" transform="scale(0.015625)"/>
      </defs>
      <use xlink:href="#TimesNewRomanPSMT-23"/>
      <use xlink:href="#TimesNewRomanPSMT-73" x="50"/>
      <use xlink:href="#TimesNewRomanPSMT-68" x="88.916016"/>
      <use xlink:href="#TimesNewRomanPSMT-6f" x="138.916016"/>
      <use xlink:href="#TimesNewRomanPSMT-74" x="188.916016"/>
      <use xlink:href="#TimesNewRomanPSMT-73" x="216.699219"/>
      <use xlink:href="#TimesNewRomanPSMT-20" x="255.615234"/>
     </g>
    </g>
    <g id="text_8">
     <!-- 1e6 -->
     <g transform="translate(164.196875 123.9948) scale(0.6 -0.6)">
      <defs>
       <path id="TimesNewRomanPSMT-36" d="M 2869 4325 
L 2869 4209 
Q 2456 4169 2195 4045 
Q 1934 3922 1679 3669 
Q 1425 3416 1258 3105 
Q 1091 2794 978 2366 
Q 1428 2675 1881 2675 
Q 2316 2675 2634 2325 
Q 2953 1975 2953 1425 
Q 2953 894 2631 456 
Q 2244 -75 1606 -75 
Q 1172 -75 869 213 
Q 275 772 275 1663 
Q 275 2231 503 2743 
Q 731 3256 1154 3653 
Q 1578 4050 1965 4187 
Q 2353 4325 2688 4325 
L 2869 4325 
z
M 925 2138 
Q 869 1716 869 1456 
Q 869 1156 980 804 
Q 1091 453 1309 247 
Q 1469 100 1697 100 
Q 1969 100 2183 356 
Q 2397 613 2397 1088 
Q 2397 1622 2184 2012 
Q 1972 2403 1581 2403 
Q 1463 2403 1327 2353 
Q 1191 2303 925 2138 
z
" transform="scale(0.015625)"/>
      </defs>
      <use xlink:href="#TimesNewRomanPSMT-31"/>
      <use xlink:href="#TimesNewRomanPSMT-65" x="50"/>
      <use xlink:href="#TimesNewRomanPSMT-36" x="94.384766"/>
     </g>
    </g>
   </g>
   <g id="line2d_9">
    <path d="M 186.86157 507.28642 
L 237.22756 468.82341 
L 287.59355 430.535502 
L 337.95954 392.607593 
L 388.32553 353.171115 
L 438.691519 317.545244 
L 489.057509 279.597743 
L 539.423499 240.273918 
L 589.789489 203.364783 
L 640.155479 167.171362 
" clip-path="url(#pc7ef48a924)" style="fill: none; stroke: #384b70; stroke-width: 4; stroke-linecap: square"/>
    <defs>
     <path id="m6a5dca91d9" d="M 0 12.5 
C 3.315039 12.5 6.494748 11.182921 8.838835 8.838835 
C 11.182921 6.494748 12.5 3.315039 12.5 0 
C 12.5 -3.315039 11.182921 -6.494748 8.838835 -8.838835 
C 6.494748 -11.182921 3.315039 -12.5 0 -12.5 
C -3.315039 -12.5 -6.494748 -11.182921 -8.838835 -8.838835 
C -11.182921 -6.494748 -12.5 -3.315039 -12.5 0 
C -12.5 3.315039 -11.182921 6.494748 -8.838835 8.838835 
C -6.494748 11.182921 -3.315039 12.5 0 12.5 
z
" style="stroke: #000000; stroke-width: 4"/>
    </defs>
    <g clip-path="url(#pc7ef48a924)">
     <use xlink:href="#m6a5dca91d9" x="186.86157" y="507.28642" style="fill: #384b70; stroke: #000000; stroke-width: 4"/>
     <use xlink:href="#m6a5dca91d9" x="237.22756" y="468.82341" style="fill: #384b70; stroke: #000000; stroke-width: 4"/>
     <use xlink:href="#m6a5dca91d9" x="287.59355" y="430.535502" style="fill: #384b70; stroke: #000000; stroke-width: 4"/>
     <use xlink:href="#m6a5dca91d9" x="337.95954" y="392.607593" style="fill: #384b70; stroke: #000000; stroke-width: 4"/>
     <use xlink:href="#m6a5dca91d9" x="388.32553" y="353.171115" style="fill: #384b70; stroke: #000000; stroke-width: 4"/>
     <use xlink:href="#m6a5dca91d9" x="438.691519" y="317.545244" style="fill: #384b70; stroke: #000000; stroke-width: 4"/>
     <use xlink:href="#m6a5dca91d9" x="489.057509" y="279.597743" style="fill: #384b70; stroke: #000000; stroke-width: 4"/>
     <use xlink:href="#m6a5dca91d9" x="539.423499" y="240.273918" style="fill: #384b70; stroke: #000000; stroke-width: 4"/>
     <use xlink:href="#m6a5dca91d9" x="589.789489" y="203.364783" style="fill: #384b70; stroke: #000000; stroke-width: 4"/>
     <use xlink:href="#m6a5dca91d9" x="640.155479" y="167.171362" style="fill: #384b70; stroke: #000000; stroke-width: 4"/>
    </g>
   </g>
   <g id="line2d_10">
    <path d="M 186.86157 508.160073 
L 237.22756 464.811016 
L 287.59355 424.398419 
L 337.95954 381.864578 
L 388.32553 344.24085 
L 438.691519 309.406982 
L 489.057509 264.933661 
L 539.423499 228.742256 
L 589.789489 187.201927 
L 640.155479 145.145527 
" clip-path="url(#pc7ef48a924)" style="fill: none; stroke-dasharray: 14.8,6.4; stroke-dashoffset: 0; stroke: #6a9c89; stroke-width: 4"/>
    <defs>
     <path id="m8b424fec50" d="M -12.5 12.5 
L 12.5 12.5 
L 12.5 -12.5 
L -12.5 -12.5 
z
" style="stroke: #000000; stroke-width: 4; stroke-linejoin: miter"/>
    </defs>
    <g clip-path="url(#pc7ef48a924)">
     <use xlink:href="#m8b424fec50" x="186.86157" y="508.160073" style="fill: #6a9c89; stroke: #000000; stroke-width: 4; stroke-linejoin: miter"/>
     <use xlink:href="#m8b424fec50" x="237.22756" y="464.811016" style="fill: #6a9c89; stroke: #000000; stroke-width: 4; stroke-linejoin: miter"/>
     <use xlink:href="#m8b424fec50" x="287.59355" y="424.398419" style="fill: #6a9c89; stroke: #000000; stroke-width: 4; stroke-linejoin: miter"/>
     <use xlink:href="#m8b424fec50" x="337.95954" y="381.864578" style="fill: #6a9c89; stroke: #000000; stroke-width: 4; stroke-linejoin: miter"/>
     <use xlink:href="#m8b424fec50" x="388.32553" y="344.24085" style="fill: #6a9c89; stroke: #000000; stroke-width: 4; stroke-linejoin: miter"/>
     <use xlink:href="#m8b424fec50" x="438.691519" y="309.406982" style="fill: #6a9c89; stroke: #000000; stroke-width: 4; stroke-linejoin: miter"/>
     <use xlink:href="#m8b424fec50" x="489.057509" y="264.933661" style="fill: #6a9c89; stroke: #000000; stroke-width: 4; stroke-linejoin: miter"/>
     <use xlink:href="#m8b424fec50" x="539.423499" y="228.742256" style="fill: #6a9c89; stroke: #000000; stroke-width: 4; stroke-linejoin: miter"/>
     <use xlink:href="#m8b424fec50" x="589.789489" y="187.201927" style="fill: #6a9c89; stroke: #000000; stroke-width: 4; stroke-linejoin: miter"/>
     <use xlink:href="#m8b424fec50" x="640.155479" y="145.145527" style="fill: #6a9c89; stroke: #000000; stroke-width: 4; stroke-linejoin: miter"/>
    </g>
   </g>
   <g id="patch_3">
    <path d="M 164.196875 526.3108 
L 164.196875 126.9948 
" style="fill: none; stroke: #000000; stroke-width: 5; stroke-linejoin: miter; stroke-linecap: square"/>
   </g>
   <g id="patch_4">
    <path d="M 662.820174 526.3108 
L 662.820174 126.9948 
" style="fill: none; stroke: #000000; stroke-width: 5; stroke-linejoin: miter; stroke-linecap: square"/>
   </g>
   <g id="patch_5">
    <path d="M 164.196875 526.3108 
L 662.820174 526.3108 
" style="fill: none; stroke: #000000; stroke-width: 5; stroke-linejoin: miter; stroke-linecap: square"/>
   </g>
   <g id="patch_6">
    <path d="M 164.196875 126.9948 
L 662.820174 126.9948 
" style="fill: none; stroke: #000000; stroke-width: 5; stroke-linejoin: miter; stroke-linecap: square"/>
   </g>
   <g id="legend_1">
    <g id="line2d_11">
     <path d="M 188.196875 52.2 
L 248.196875 52.2 
L 308.196875 52.2 
" style="fill: none; stroke: #384b70; stroke-width: 4; stroke-linecap: square"/>
     <g>
      <use xlink:href="#m6a5dca91d9" x="248.196875" y="52.2" style="fill: #384b70; stroke: #000000; stroke-width: 4"/>
     </g>
    </g>
    <g id="text_9">
     <!-- pkid 1 - run_times -->
     <g transform="translate(356.196875 73.2) scale(0.6 -0.6)">
      <defs>
       <path id="TimesNewRomanPSMT-70" d="M -6 2578 
L 875 2934 
L 994 2934 
L 994 2266 
Q 1216 2644 1439 2795 
Q 1663 2947 1909 2947 
Q 2341 2947 2628 2609 
Q 2981 2197 2981 1534 
Q 2981 794 2556 309 
Q 2206 -88 1675 -88 
Q 1444 -88 1275 -22 
Q 1150 25 994 166 
L 994 -706 
Q 994 -1000 1030 -1079 
Q 1066 -1159 1155 -1206 
Q 1244 -1253 1478 -1253 
L 1478 -1369 
L -22 -1369 
L -22 -1253 
L 56 -1253 
Q 228 -1256 350 -1188 
Q 409 -1153 442 -1076 
Q 475 -1000 475 -688 
L 475 2019 
Q 475 2297 450 2372 
Q 425 2447 370 2484 
Q 316 2522 222 2522 
Q 147 2522 31 2478 
L -6 2578 
z
M 994 2081 
L 994 1013 
Q 994 666 1022 556 
Q 1066 375 1236 237 
Q 1406 100 1666 100 
Q 1978 100 2172 344 
Q 2425 663 2425 1241 
Q 2425 1897 2138 2250 
Q 1938 2494 1663 2494 
Q 1513 2494 1366 2419 
Q 1253 2363 994 2081 
z
" transform="scale(0.015625)"/>
       <path id="TimesNewRomanPSMT-6b" d="M 1047 4444 
L 1047 1594 
L 1775 2259 
Q 2006 2472 2044 2528 
Q 2069 2566 2069 2603 
Q 2069 2666 2017 2711 
Q 1966 2756 1847 2763 
L 1847 2863 
L 3091 2863 
L 3091 2763 
Q 2834 2756 2664 2684 
Q 2494 2613 2291 2428 
L 1556 1750 
L 2291 822 
Q 2597 438 2703 334 
Q 2853 188 2966 144 
Q 3044 113 3238 113 
L 3238 0 
L 1847 0 
L 1847 113 
Q 1966 116 2008 148 
Q 2050 181 2050 241 
Q 2050 313 1925 472 
L 1047 1594 
L 1047 644 
Q 1047 366 1086 278 
Q 1125 191 1197 153 
Q 1269 116 1509 113 
L 1509 0 
L 53 0 
L 53 113 
Q 272 113 381 166 
Q 447 200 481 272 
Q 528 375 528 628 
L 528 3234 
Q 528 3731 506 3842 
Q 484 3953 434 3995 
Q 384 4038 303 4038 
Q 238 4038 106 3984 
L 53 4094 
L 903 4444 
L 1047 4444 
z
" transform="scale(0.015625)"/>
       <path id="TimesNewRomanPSMT-69" d="M 928 4444 
Q 1059 4444 1151 4351 
Q 1244 4259 1244 4128 
Q 1244 3997 1151 3903 
Q 1059 3809 928 3809 
Q 797 3809 703 3903 
Q 609 3997 609 4128 
Q 609 4259 701 4351 
Q 794 4444 928 4444 
z
M 1188 2947 
L 1188 647 
Q 1188 378 1227 289 
Q 1266 200 1342 156 
Q 1419 113 1622 113 
L 1622 0 
L 231 0 
L 231 113 
Q 441 113 512 153 
Q 584 194 626 287 
Q 669 381 669 647 
L 669 1750 
Q 669 2216 641 2353 
Q 619 2453 572 2492 
Q 525 2531 444 2531 
Q 356 2531 231 2484 
L 188 2597 
L 1050 2947 
L 1188 2947 
z
" transform="scale(0.015625)"/>
       <path id="TimesNewRomanPSMT-64" d="M 2222 322 
Q 2013 103 1813 7 
Q 1613 -88 1381 -88 
Q 913 -88 563 304 
Q 213 697 213 1313 
Q 213 1928 600 2439 
Q 988 2950 1597 2950 
Q 1975 2950 2222 2709 
L 2222 3238 
Q 2222 3728 2198 3840 
Q 2175 3953 2125 3993 
Q 2075 4034 2000 4034 
Q 1919 4034 1784 3984 
L 1744 4094 
L 2597 4444 
L 2738 4444 
L 2738 1134 
Q 2738 631 2761 520 
Q 2784 409 2836 365 
Q 2888 322 2956 322 
Q 3041 322 3181 375 
L 3216 266 
L 2366 -88 
L 2222 -88 
L 2222 322 
z
M 2222 541 
L 2222 2016 
Q 2203 2228 2109 2403 
Q 2016 2578 1861 2667 
Q 1706 2756 1559 2756 
Q 1284 2756 1069 2509 
Q 784 2184 784 1559 
Q 784 928 1059 592 
Q 1334 256 1672 256 
Q 1956 256 2222 541 
z
" transform="scale(0.015625)"/>
       <path id="TimesNewRomanPSMT-2d" d="M 259 1672 
L 1875 1672 
L 1875 1200 
L 259 1200 
L 259 1672 
z
" transform="scale(0.015625)"/>
       <path id="TimesNewRomanPSMT-72" d="M 1038 2947 
L 1038 2303 
Q 1397 2947 1775 2947 
Q 1947 2947 2059 2842 
Q 2172 2738 2172 2600 
Q 2172 2478 2090 2393 
Q 2009 2309 1897 2309 
Q 1788 2309 1652 2417 
Q 1516 2525 1450 2525 
Q 1394 2525 1328 2463 
Q 1188 2334 1038 2041 
L 1038 669 
Q 1038 431 1097 309 
Q 1138 225 1241 169 
Q 1344 113 1538 113 
L 1538 0 
L 72 0 
L 72 113 
Q 291 113 397 181 
Q 475 231 506 341 
Q 522 394 522 644 
L 522 1753 
Q 522 2253 501 2348 
Q 481 2444 426 2487 
Q 372 2531 291 2531 
Q 194 2531 72 2484 
L 41 2597 
L 906 2947 
L 1038 2947 
z
" transform="scale(0.015625)"/>
       <path id="TimesNewRomanPSMT-75" d="M 2709 2863 
L 2709 1128 
Q 2709 631 2732 520 
Q 2756 409 2807 365 
Q 2859 322 2928 322 
Q 3025 322 3147 375 
L 3191 266 
L 2334 -88 
L 2194 -88 
L 2194 519 
Q 1825 119 1631 15 
Q 1438 -88 1222 -88 
Q 981 -88 804 51 
Q 628 191 559 409 
Q 491 628 491 1028 
L 491 2306 
Q 491 2509 447 2587 
Q 403 2666 317 2708 
Q 231 2750 6 2747 
L 6 2863 
L 1009 2863 
L 1009 947 
Q 1009 547 1148 422 
Q 1288 297 1484 297 
Q 1619 297 1789 381 
Q 1959 466 2194 703 
L 2194 2325 
Q 2194 2569 2105 2655 
Q 2016 2741 1734 2747 
L 1734 2863 
L 2709 2863 
z
" transform="scale(0.015625)"/>
       <path id="TimesNewRomanPSMT-5f" d="M 3256 -1381 
L -53 -1381 
L -53 -1119 
L 3256 -1119 
L 3256 -1381 
z
" transform="scale(0.015625)"/>
      </defs>
      <use xlink:href="#TimesNewRomanPSMT-70"/>
      <use xlink:href="#TimesNewRomanPSMT-6b" x="50"/>
      <use xlink:href="#TimesNewRomanPSMT-69" x="100"/>
      <use xlink:href="#TimesNewRomanPSMT-64" x="127.783203"/>
      <use xlink:href="#TimesNewRomanPSMT-20" x="177.783203"/>
      <use xlink:href="#TimesNewRomanPSMT-31" x="202.783203"/>
      <use xlink:href="#TimesNewRomanPSMT-20" x="252.783203"/>
      <use xlink:href="#TimesNewRomanPSMT-2d" x="277.783203"/>
      <use xlink:href="#TimesNewRomanPSMT-20" x="311.083984"/>
      <use xlink:href="#TimesNewRomanPSMT-72" x="336.083984"/>
      <use xlink:href="#TimesNewRomanPSMT-75" x="369.384766"/>
      <use xlink:href="#TimesNewRomanPSMT-6e" x="419.384766"/>
      <use xlink:href="#TimesNewRomanPSMT-5f" x="469.384766"/>
      <use xlink:href="#TimesNewRomanPSMT-74" x="519.384766"/>
      <use xlink:href="#TimesNewRomanPSMT-69" x="547.167969"/>
      <use xlink:href="#TimesNewRomanPSMT-6d" x="574.951172"/>
      <use xlink:href="#TimesNewRomanPSMT-65" x="652.734375"/>
      <use xlink:href="#TimesNewRomanPSMT-73" x="697.119141"/>
     </g>
    </g>
    <g id="line2d_12">
     <path d="M 29.201424 52.2 
L 89.201424 52.2 
L 149.201424 52.2 
" style="fill: none; stroke-dasharray: 14.8,6.4; stroke-dashoffset: 0; stroke: #6a9c89; stroke-width: 4"/>
     <g>
      <use xlink:href="#m8b424fec50" x="89.201424" y="52.2" style="fill: #6a9c89; stroke: #000000; stroke-width: 4; stroke-linejoin: miter"/>
     </g>
    </g>
    <g id="text_10">
     <!-- pkid 0 - run_times -->
     <g transform="translate(197.201424 73.2) scale(0.6 -0.6)">
      <use xlink:href="#TimesNewRomanPSMT-70"/>
      <use xlink:href="#TimesNewRomanPSMT-6b" x="50"/>
      <use xlink:href="#TimesNewRomanPSMT-69" x="100"/>
      <use xlink:href="#TimesNewRomanPSMT-64" x="127.783203"/>
      <use xlink:href="#TimesNewRomanPSMT-20" x="177.783203"/>
      <use xlink:href="#TimesNewRomanPSMT-30" x="202.783203"/>
      <use xlink:href="#TimesNewRomanPSMT-20" x="252.783203"/>
      <use xlink:href="#TimesNewRomanPSMT-2d" x="277.783203"/>
      <use xlink:href="#TimesNewRomanPSMT-20" x="311.083984"/>
      <use xlink:href="#TimesNewRomanPSMT-72" x="336.083984"/>
      <use xlink:href="#TimesNewRomanPSMT-75" x="369.384766"/>
      <use xlink:href="#TimesNewRomanPSMT-6e" x="419.384766"/>
      <use xlink:href="#TimesNewRomanPSMT-5f" x="469.384766"/>
      <use xlink:href="#TimesNewRomanPSMT-74" x="519.384766"/>
      <use xlink:href="#TimesNewRomanPSMT-69" x="547.167969"/>
      <use xlink:href="#TimesNewRomanPSMT-6d" x="574.951172"/>
      <use xlink:href="#TimesNewRomanPSMT-65" x="652.734375"/>
      <use xlink:href="#TimesNewRomanPSMT-73" x="697.119141"/>
     </g>
    </g>
   </g>
  </g>
  <g id="axes_2">
   <g id="patch_7">
    <path d="M 934.011538 526.3108 
L 1432.634837 526.3108 
L 1432.634837 126.9948 
L 934.011538 126.9948 
z
" style="fill: #ffffff"/>
   </g>
   <g id="patch_8">
    <path d="M 956.676233 526.3108 
L 973.032199 526.3108 
L 973.032199 505.877898 
L 956.676233 505.877898 
z
" clip-path="url(#p743bf20495)" style="fill: #384b70; stroke: #000000; stroke-width: 4; stroke-linejoin: miter"/>
   </g>
   <g id="patch_9">
    <path d="M 1003.407564 526.3108 
L 1019.76353 526.3108 
L 1019.76353 471.688302 
L 1003.407564 471.688302 
z
" clip-path="url(#p743bf20495)" style="fill: #384b70; stroke: #000000; stroke-width: 4; stroke-linejoin: miter"/>
   </g>
   <g id="patch_10">
    <path d="M 1050.138894 526.3108 
L 1066.49486 526.3108 
L 1066.49486 450.206198 
L 1050.138894 450.206198 
z
" clip-path="url(#p743bf20495)" style="fill: #384b70; stroke: #000000; stroke-width: 4; stroke-linejoin: miter"/>
   </g>
   <g id="patch_11">
    <path d="M 1096.870225 526.3108 
L 1113.226191 526.3108 
L 1113.226191 462.652136 
L 1096.870225 462.652136 
z
" clip-path="url(#p743bf20495)" style="fill: #384b70; stroke: #000000; stroke-width: 4; stroke-linejoin: miter"/>
   </g>
   <g id="patch_12">
    <path d="M 1143.601556 526.3108 
L 1159.957522 526.3108 
L 1159.957522 415.7837 
L 1143.601556 415.7837 
z
" clip-path="url(#p743bf20495)" style="fill: #384b70; stroke: #000000; stroke-width: 4; stroke-linejoin: miter"/>
   </g>
   <g id="patch_13">
    <path d="M 1190.332887 526.3108 
L 1206.688852 526.3108 
L 1206.688852 378.979381 
L 1190.332887 378.979381 
z
" clip-path="url(#p743bf20495)" style="fill: #384b70; stroke: #000000; stroke-width: 4; stroke-linejoin: miter"/>
   </g>
   <g id="patch_14">
    <path d="M 1237.064217 526.3108 
L 1253.420183 526.3108 
L 1253.420183 391.613161 
L 1237.064217 391.613161 
z
" clip-path="url(#p743bf20495)" style="fill: #384b70; stroke: #000000; stroke-width: 4; stroke-linejoin: miter"/>
   </g>
   <g id="patch_15">
    <path d="M 1283.795548 526.3108 
L 1300.151514 526.3108 
L 1300.151514 374.23013 
L 1283.795548 374.23013 
z
" clip-path="url(#p743bf20495)" style="fill: #384b70; stroke: #000000; stroke-width: 4; stroke-linejoin: miter"/>
   </g>
   <g id="patch_16">
    <path d="M 1330.526879 526.3108 
L 1346.882845 526.3108 
L 1346.882845 397.358713 
L 1330.526879 397.358713 
z
" clip-path="url(#p743bf20495)" style="fill: #384b70; stroke: #000000; stroke-width: 4; stroke-linejoin: miter"/>
   </g>
   <g id="patch_17">
    <path d="M 1377.25821 526.3108 
L 1393.614175 526.3108 
L 1393.614175 386.819134 
L 1377.25821 386.819134 
z
" clip-path="url(#p743bf20495)" style="fill: #384b70; stroke: #000000; stroke-width: 4; stroke-linejoin: miter"/>
   </g>
   <g id="patch_18">
    <path d="M 956.676233 505.877898 
L 973.032199 505.877898 
L 973.032199 416.380588 
L 956.676233 416.380588 
z
" clip-path="url(#p743bf20495)" style="fill: #384b70; opacity: 0.7; stroke: #000000; stroke-width: 4; stroke-linejoin: miter"/>
   </g>
   <g id="patch_19">
    <path d="M 1003.407564 471.688302 
L 1019.76353 471.688302 
L 1019.76353 382.171891 
L 1003.407564 382.171891 
z
" clip-path="url(#p743bf20495)" style="fill: #384b70; opacity: 0.7; stroke: #000000; stroke-width: 4; stroke-linejoin: miter"/>
   </g>
   <g id="patch_20">
    <path d="M 1050.138894 450.206198 
L 1066.49486 450.206198 
L 1066.49486 360.671982 
L 1050.138894 360.671982 
z
" clip-path="url(#p743bf20495)" style="fill: #384b70; opacity: 0.7; stroke: #000000; stroke-width: 4; stroke-linejoin: miter"/>
   </g>
   <g id="patch_21">
    <path d="M 1096.870225 462.652136 
L 1113.226191 462.652136 
L 1113.226191 373.099177 
L 1096.870225 373.099177 
z
" clip-path="url(#p743bf20495)" style="fill: #384b70; opacity: 0.7; stroke: #000000; stroke-width: 4; stroke-linejoin: miter"/>
   </g>
   <g id="patch_22">
    <path d="M 1143.601556 415.7837 
L 1159.957522 415.7837 
L 1159.957522 326.214164 
L 1143.601556 326.214164 
z
" clip-path="url(#p743bf20495)" style="fill: #384b70; opacity: 0.7; stroke: #000000; stroke-width: 4; stroke-linejoin: miter"/>
   </g>
   <g id="patch_23">
    <path d="M 1190.332887 378.979381 
L 1206.688852 378.979381 
L 1206.688852 289.394496 
L 1190.332887 289.394496 
z
" clip-path="url(#p743bf20495)" style="fill: #384b70; opacity: 0.7; stroke: #000000; stroke-width: 4; stroke-linejoin: miter"/>
   </g>
   <g id="patch_24">
    <path d="M 1237.064217 391.613161 
L 1253.420183 391.613161 
L 1253.420183 302.008681 
L 1237.064217 302.008681 
z
" clip-path="url(#p743bf20495)" style="fill: #384b70; opacity: 0.7; stroke: #000000; stroke-width: 4; stroke-linejoin: miter"/>
   </g>
   <g id="patch_25">
    <path d="M 1283.795548 374.23013 
L 1300.151514 374.23013 
L 1300.151514 284.609702 
L 1283.795548 284.609702 
z
" clip-path="url(#p743bf20495)" style="fill: #384b70; opacity: 0.7; stroke: #000000; stroke-width: 4; stroke-linejoin: miter"/>
   </g>
   <g id="patch_26">
    <path d="M 1330.526879 397.358713 
L 1346.882845 397.358713 
L 1346.882845 307.719983 
L 1330.526879 307.719983 
z
" clip-path="url(#p743bf20495)" style="fill: #384b70; opacity: 0.7; stroke: #000000; stroke-width: 4; stroke-linejoin: miter"/>
   </g>
   <g id="patch_27">
    <path d="M 1377.25821 386.819134 
L 1393.614175 386.819134 
L 1393.614175 297.161872 
L 1377.25821 297.161872 
z
" clip-path="url(#p743bf20495)" style="fill: #384b70; opacity: 0.7; stroke: #000000; stroke-width: 4; stroke-linejoin: miter"/>
   </g>
   <g id="patch_28">
    <path d="M 973.032199 526.3108 
L 989.388165 526.3108 
L 989.388165 502.70938 
L 973.032199 502.70938 
z
" clip-path="url(#p743bf20495)" style="fill: #6a9c89; stroke: #000000; stroke-width: 4; stroke-linejoin: miter"/>
   </g>
   <g id="patch_29">
    <path d="M 1019.76353 526.3108 
L 1036.119495 526.3108 
L 1036.119495 461.193848 
L 1019.76353 461.193848 
z
" clip-path="url(#p743bf20495)" style="fill: #6a9c89; stroke: #000000; stroke-width: 4; stroke-linejoin: miter"/>
   </g>
   <g id="patch_30">
    <path d="M 1066.49486 526.3108 
L 1082.850826 526.3108 
L 1082.850826 446.800232 
L 1066.49486 446.800232 
z
" clip-path="url(#p743bf20495)" style="fill: #6a9c89; stroke: #000000; stroke-width: 4; stroke-linejoin: miter"/>
   </g>
   <g id="patch_31">
    <path d="M 1113.226191 526.3108 
L 1129.582157 526.3108 
L 1129.582157 434.870355 
L 1113.226191 434.870355 
z
" clip-path="url(#p743bf20495)" style="fill: #6a9c89; stroke: #000000; stroke-width: 4; stroke-linejoin: miter"/>
   </g>
   <g id="patch_32">
    <path d="M 1159.957522 526.3108 
L 1176.313487 526.3108 
L 1176.313487 417.804904 
L 1159.957522 417.804904 
z
" clip-path="url(#p743bf20495)" style="fill: #6a9c89; stroke: #000000; stroke-width: 4; stroke-linejoin: miter"/>
   </g>
   <g id="patch_33">
    <path d="M 1206.688852 526.3108 
L 1223.044818 526.3108 
L 1223.044818 419.904122 
L 1206.688852 419.904122 
z
" clip-path="url(#p743bf20495)" style="fill: #6a9c89; stroke: #000000; stroke-width: 4; stroke-linejoin: miter"/>
   </g>
   <g id="patch_34">
    <path d="M 1253.420183 526.3108 
L 1269.776149 526.3108 
L 1269.776149 404.86979 
L 1253.420183 404.86979 
z
" clip-path="url(#p743bf20495)" style="fill: #6a9c89; stroke: #000000; stroke-width: 4; stroke-linejoin: miter"/>
   </g>
   <g id="patch_35">
    <path d="M 1300.151514 526.3108 
L 1316.50748 526.3108 
L 1316.50748 397.727624 
L 1300.151514 397.727624 
z
" clip-path="url(#p743bf20495)" style="fill: #6a9c89; stroke: #000000; stroke-width: 4; stroke-linejoin: miter"/>
   </g>
   <g id="patch_36">
    <path d="M 1346.882845 526.3108 
L 1363.23881 526.3108 
L 1363.23881 394.407611 
L 1346.882845 394.407611 
z
" clip-path="url(#p743bf20495)" style="fill: #6a9c89; stroke: #000000; stroke-width: 4; stroke-linejoin: miter"/>
   </g>
   <g id="patch_37">
    <path d="M 1393.614175 526.3108 
L 1409.970141 526.3108 
L 1409.970141 378.946546 
L 1393.614175 378.946546 
z
" clip-path="url(#p743bf20495)" style="fill: #6a9c89; stroke: #000000; stroke-width: 4; stroke-linejoin: miter"/>
   </g>
   <g id="patch_38">
    <path d="M 973.032199 502.70938 
L 989.388165 502.70938 
L 989.388165 269.922544 
L 973.032199 269.922544 
z
" clip-path="url(#p743bf20495)" style="fill: #6a9c89; opacity: 0.7; stroke: #000000; stroke-width: 4; stroke-linejoin: miter"/>
   </g>
   <g id="patch_39">
    <path d="M 1019.76353 461.193848 
L 1036.119495 461.193848 
L 1036.119495 228.390064 
L 1019.76353 228.390064 
z
" clip-path="url(#p743bf20495)" style="fill: #6a9c89; opacity: 0.7; stroke: #000000; stroke-width: 4; stroke-linejoin: miter"/>
   </g>
   <g id="patch_40">
    <path d="M 1066.49486 446.800232 
L 1082.850826 446.800232 
L 1082.850826 213.979577 
L 1066.49486 213.979577 
z
" clip-path="url(#p743bf20495)" style="fill: #6a9c89; opacity: 0.7; stroke: #000000; stroke-width: 4; stroke-linejoin: miter"/>
   </g>
   <g id="patch_41">
    <path d="M 1113.226191 434.870355 
L 1129.582157 434.870355 
L 1129.582157 202.032989 
L 1113.226191 202.032989 
z
" clip-path="url(#p743bf20495)" style="fill: #6a9c89; opacity: 0.7; stroke: #000000; stroke-width: 4; stroke-linejoin: miter"/>
   </g>
   <g id="patch_42">
    <path d="M 1159.957522 417.804904 
L 1176.313487 417.804904 
L 1176.313487 184.950162 
L 1159.957522 184.950162 
z
" clip-path="url(#p743bf20495)" style="fill: #6a9c89; opacity: 0.7; stroke: #000000; stroke-width: 4; stroke-linejoin: miter"/>
   </g>
   <g id="patch_43">
    <path d="M 1206.688852 419.904122 
L 1223.044818 419.904122 
L 1223.044818 187.033682 
L 1206.688852 187.033682 
z
" clip-path="url(#p743bf20495)" style="fill: #6a9c89; opacity: 0.7; stroke: #000000; stroke-width: 4; stroke-linejoin: miter"/>
   </g>
   <g id="patch_44">
    <path d="M 1253.420183 404.86979 
L 1269.776149 404.86979 
L 1269.776149 171.982629 
L 1253.420183 171.982629 
z
" clip-path="url(#p743bf20495)" style="fill: #6a9c89; opacity: 0.7; stroke: #000000; stroke-width: 4; stroke-linejoin: miter"/>
   </g>
   <g id="patch_45">
    <path d="M 1300.151514 397.727624 
L 1316.50748 397.727624 
L 1316.50748 164.823137 
L 1300.151514 164.823137 
z
" clip-path="url(#p743bf20495)" style="fill: #6a9c89; opacity: 0.7; stroke: #000000; stroke-width: 4; stroke-linejoin: miter"/>
   </g>
   <g id="patch_46">
    <path d="M 1346.882845 394.407611 
L 1363.23881 394.407611 
L 1363.23881 161.48686 
L 1346.882845 161.48686 
z
" clip-path="url(#p743bf20495)" style="fill: #6a9c89; opacity: 0.7; stroke: #000000; stroke-width: 4; stroke-linejoin: miter"/>
   </g>
   <g id="patch_47">
    <path d="M 1393.614175 378.946546 
L 1409.970141 378.946546 
L 1409.970141 146.009848 
L 1393.614175 146.009848 
z
" clip-path="url(#p743bf20495)" style="fill: #6a9c89; opacity: 0.7; stroke: #000000; stroke-width: 4; stroke-linejoin: miter"/>
   </g>
   <g id="matplotlib.axis_3">
    <g id="xtick_3">
     <g id="line2d_13">
      <g>
       <use xlink:href="#m7ca92fca1d" x="964.854216" y="526.3108" style="fill: #f8d941; stroke: #000000; stroke-width: 5"/>
      </g>
     </g>
     <g id="text_11">
      <!-- 0 -->
      <g transform="translate(949.854216 591.4733) scale(0.6 -0.6)">
       <use xlink:href="#TimesNewRomanPSMT-30"/>
      </g>
     </g>
    </g>
    <g id="xtick_4">
     <g id="line2d_14">
      <g>
       <use xlink:href="#m7ca92fca1d" x="1432.167523" y="526.3108" style="fill: #f8d941; stroke: #000000; stroke-width: 5"/>
      </g>
     </g>
     <g id="text_12">
      <!-- 10 -->
      <g transform="translate(1402.167523 591.4733) scale(0.6 -0.6)">
       <use xlink:href="#TimesNewRomanPSMT-31"/>
       <use xlink:href="#TimesNewRomanPSMT-30" x="50"/>
      </g>
     </g>
    </g>
    <g id="text_13">
     <!-- #segments -->
     <g transform="translate(1056.666937 649.857675) scale(0.6 -0.6)">
      <use xlink:href="#TimesNewRomanPSMT-23"/>
      <use xlink:href="#TimesNewRomanPSMT-73" x="50"/>
      <use xlink:href="#TimesNewRomanPSMT-65" x="88.916016"/>
      <use xlink:href="#TimesNewRomanPSMT-67" x="133.300781"/>
      <use xlink:href="#TimesNewRomanPSMT-6d" x="183.300781"/>
      <use xlink:href="#TimesNewRomanPSMT-65" x="261.083984"/>
      <use xlink:href="#TimesNewRomanPSMT-6e" x="305.46875"/>
      <use xlink:href="#TimesNewRomanPSMT-74" x="355.46875"/>
      <use xlink:href="#TimesNewRomanPSMT-73" x="383.251953"/>
     </g>
    </g>
   </g>
   <g id="matplotlib.axis_4">
    <g id="ytick_4">
     <g id="line2d_15">
      <path d="M 934.011538 526.3108 
L 1432.634837 526.3108 
" clip-path="url(#p743bf20495)" style="fill: none; stroke-dasharray: 5.55,2.4; stroke-dashoffset: 0; stroke: #b0b0b0; stroke-width: 1.5"/>
     </g>
     <g id="line2d_16">
      <g>
       <use xlink:href="#mf42365830e" x="934.011538" y="526.3108" style="fill: #f8d941; stroke: #000000; stroke-width: 5"/>
      </g>
     </g>
     <g id="text_14">
      <!-- 0 -->
      <g transform="translate(880.511538 547.14205) scale(0.6 -0.6)">
       <use xlink:href="#TimesNewRomanPSMT-30"/>
      </g>
     </g>
    </g>
    <g id="ytick_5">
     <g id="line2d_17">
      <path d="M 934.011538 357.799674 
L 1432.634837 357.799674 
" clip-path="url(#p743bf20495)" style="fill: none; stroke-dasharray: 5.55,2.4; stroke-dashoffset: 0; stroke: #b0b0b0; stroke-width: 1.5"/>
     </g>
     <g id="line2d_18">
      <g>
       <use xlink:href="#mf42365830e" x="934.011538" y="357.799674" style="fill: #f8d941; stroke: #000000; stroke-width: 5"/>
      </g>
     </g>
     <g id="text_15">
      <!-- 2000 -->
      <g transform="translate(790.511538 378.630924) scale(0.6 -0.6)">
       <defs>
        <path id="TimesNewRomanPSMT-32" d="M 2934 816 
L 2638 0 
L 138 0 
L 138 116 
Q 1241 1122 1691 1759 
Q 2141 2397 2141 2925 
Q 2141 3328 1894 3587 
Q 1647 3847 1303 3847 
Q 991 3847 742 3664 
Q 494 3481 375 3128 
L 259 3128 
Q 338 3706 661 4015 
Q 984 4325 1469 4325 
Q 1984 4325 2329 3994 
Q 2675 3663 2675 3213 
Q 2675 2891 2525 2569 
Q 2294 2063 1775 1497 
Q 997 647 803 472 
L 1909 472 
Q 2247 472 2383 497 
Q 2519 522 2628 598 
Q 2738 675 2819 816 
L 2934 816 
z
" transform="scale(0.015625)"/>
       </defs>
       <use xlink:href="#TimesNewRomanPSMT-32"/>
       <use xlink:href="#TimesNewRomanPSMT-30" x="50"/>
       <use xlink:href="#TimesNewRomanPSMT-30" x="100"/>
       <use xlink:href="#TimesNewRomanPSMT-30" x="150"/>
      </g>
     </g>
    </g>
    <g id="ytick_6">
     <g id="line2d_19">
      <path d="M 934.011538 189.288548 
L 1432.634837 189.288548 
" clip-path="url(#p743bf20495)" style="fill: none; stroke-dasharray: 5.55,2.4; stroke-dashoffset: 0; stroke: #b0b0b0; stroke-width: 1.5"/>
     </g>
     <g id="line2d_20">
      <g>
       <use xlink:href="#mf42365830e" x="934.011538" y="189.288548" style="fill: #f8d941; stroke: #000000; stroke-width: 5"/>
      </g>
     </g>
     <g id="text_16">
      <!-- 4000 -->
      <g transform="translate(790.511538 210.119798) scale(0.6 -0.6)">
       <defs>
        <path id="TimesNewRomanPSMT-34" d="M 2978 1563 
L 2978 1119 
L 2409 1119 
L 2409 0 
L 1894 0 
L 1894 1119 
L 100 1119 
L 100 1519 
L 2066 4325 
L 2409 4325 
L 2409 1563 
L 2978 1563 
z
M 1894 1563 
L 1894 3666 
L 406 1563 
L 1894 1563 
z
" transform="scale(0.015625)"/>
       </defs>
       <use xlink:href="#TimesNewRomanPSMT-34"/>
       <use xlink:href="#TimesNewRomanPSMT-30" x="50"/>
       <use xlink:href="#TimesNewRomanPSMT-30" x="100"/>
       <use xlink:href="#TimesNewRomanPSMT-30" x="150"/>
      </g>
     </g>
    </g>
    <g id="text_17">
     <!-- classical + quantum -->
     <g transform="translate(773.677163 565.180925) rotate(-90) scale(0.6 -0.6)">
      <defs>
       <path id="TimesNewRomanPSMT-63" d="M 2631 1088 
Q 2516 522 2178 217 
Q 1841 -88 1431 -88 
Q 944 -88 581 321 
Q 219 731 219 1428 
Q 219 2103 620 2525 
Q 1022 2947 1584 2947 
Q 2006 2947 2278 2723 
Q 2550 2500 2550 2259 
Q 2550 2141 2473 2067 
Q 2397 1994 2259 1994 
Q 2075 1994 1981 2113 
Q 1928 2178 1911 2362 
Q 1894 2547 1784 2644 
Q 1675 2738 1481 2738 
Q 1169 2738 978 2506 
Q 725 2200 725 1697 
Q 725 1184 976 792 
Q 1228 400 1656 400 
Q 1963 400 2206 609 
Q 2378 753 2541 1131 
L 2631 1088 
z
" transform="scale(0.015625)"/>
       <path id="TimesNewRomanPSMT-6c" d="M 1184 4444 
L 1184 647 
Q 1184 378 1223 290 
Q 1263 203 1344 158 
Q 1425 113 1647 113 
L 1647 0 
L 244 0 
L 244 113 
Q 441 113 512 153 
Q 584 194 625 287 
Q 666 381 666 647 
L 666 3247 
Q 666 3731 644 3842 
Q 622 3953 573 3993 
Q 525 4034 450 4034 
Q 369 4034 244 3984 
L 191 4094 
L 1044 4444 
L 1184 4444 
z
" transform="scale(0.015625)"/>
       <path id="TimesNewRomanPSMT-61" d="M 1822 413 
Q 1381 72 1269 19 
Q 1100 -59 909 -59 
Q 613 -59 420 144 
Q 228 347 228 678 
Q 228 888 322 1041 
Q 450 1253 767 1440 
Q 1084 1628 1822 1897 
L 1822 2009 
Q 1822 2438 1686 2597 
Q 1550 2756 1291 2756 
Q 1094 2756 978 2650 
Q 859 2544 859 2406 
L 866 2225 
Q 866 2081 792 2003 
Q 719 1925 600 1925 
Q 484 1925 411 2006 
Q 338 2088 338 2228 
Q 338 2497 613 2722 
Q 888 2947 1384 2947 
Q 1766 2947 2009 2819 
Q 2194 2722 2281 2516 
Q 2338 2381 2338 1966 
L 2338 994 
Q 2338 584 2353 492 
Q 2369 400 2405 369 
Q 2441 338 2488 338 
Q 2538 338 2575 359 
Q 2641 400 2828 588 
L 2828 413 
Q 2478 -56 2159 -56 
Q 2006 -56 1915 50 
Q 1825 156 1822 413 
z
M 1822 616 
L 1822 1706 
Q 1350 1519 1213 1441 
Q 966 1303 859 1153 
Q 753 1003 753 825 
Q 753 600 887 451 
Q 1022 303 1197 303 
Q 1434 303 1822 616 
z
" transform="scale(0.015625)"/>
       <path id="TimesNewRomanPSMT-2b" d="M 1672 441 
L 1672 2000 
L 116 2000 
L 116 2256 
L 1672 2256 
L 1672 3809 
L 1922 3809 
L 1922 2256 
L 3484 2256 
L 3484 2000 
L 1922 2000 
L 1922 441 
L 1672 441 
z
" transform="scale(0.015625)"/>
       <path id="TimesNewRomanPSMT-71" d="M 2734 2947 
L 2734 -734 
Q 2734 -1009 2771 -1087 
Q 2809 -1166 2889 -1209 
Q 2969 -1253 3200 -1253 
L 3200 -1369 
L 1756 -1369 
L 1756 -1253 
L 1816 -1253 
Q 1991 -1253 2081 -1203 
Q 2144 -1169 2181 -1080 
Q 2219 -991 2219 -734 
L 2219 497 
Q 1934 159 1721 35 
Q 1509 -88 1281 -88 
Q 866 -88 539 290 
Q 213 669 213 1303 
Q 213 2031 644 2489 
Q 1075 2947 1684 2947 
Q 1863 2947 2013 2897 
Q 2163 2847 2281 2747 
Q 2463 2834 2628 2947 
L 2734 2947 
z
M 2219 694 
L 2219 2038 
Q 2219 2272 2158 2406 
Q 2097 2541 1940 2634 
Q 1784 2728 1588 2728 
Q 1238 2728 988 2431 
Q 738 2134 738 1531 
Q 738 953 992 653 
Q 1247 353 1606 353 
Q 1791 353 1934 433 
Q 2078 513 2219 694 
z
" transform="scale(0.015625)"/>
      </defs>
      <use xlink:href="#TimesNewRomanPSMT-63"/>
      <use xlink:href="#TimesNewRomanPSMT-6c" x="44.384766"/>
      <use xlink:href="#TimesNewRomanPSMT-61" x="72.167969"/>
      <use xlink:href="#TimesNewRomanPSMT-73" x="116.552734"/>
      <use xlink:href="#TimesNewRomanPSMT-73" x="155.46875"/>
      <use xlink:href="#TimesNewRomanPSMT-69" x="194.384766"/>
      <use xlink:href="#TimesNewRomanPSMT-63" x="222.167969"/>
      <use xlink:href="#TimesNewRomanPSMT-61" x="266.552734"/>
      <use xlink:href="#TimesNewRomanPSMT-6c" x="310.9375"/>
      <use xlink:href="#TimesNewRomanPSMT-20" x="338.720703"/>
      <use xlink:href="#TimesNewRomanPSMT-2b" x="363.720703"/>
      <use xlink:href="#TimesNewRomanPSMT-20" x="420.117188"/>
      <use xlink:href="#TimesNewRomanPSMT-71" x="445.117188"/>
      <use xlink:href="#TimesNewRomanPSMT-75" x="495.117188"/>
      <use xlink:href="#TimesNewRomanPSMT-61" x="545.117188"/>
      <use xlink:href="#TimesNewRomanPSMT-6e" x="589.501953"/>
      <use xlink:href="#TimesNewRomanPSMT-74" x="639.501953"/>
      <use xlink:href="#TimesNewRomanPSMT-75" x="667.285156"/>
      <use xlink:href="#TimesNewRomanPSMT-6d" x="717.285156"/>
     </g>
    </g>
   </g>
   <g id="patch_48">
    <path d="M 934.011538 526.3108 
L 934.011538 126.9948 
" style="fill: none; stroke: #000000; stroke-width: 5; stroke-linejoin: miter; stroke-linecap: square"/>
   </g>
   <g id="patch_49">
    <path d="M 1432.634837 526.3108 
L 1432.634837 126.9948 
" style="fill: none; stroke: #000000; stroke-width: 5; stroke-linejoin: miter; stroke-linecap: square"/>
   </g>
   <g id="patch_50">
    <path d="M 934.011538 526.3108 
L 1432.634837 526.3108 
" style="fill: none; stroke: #000000; stroke-width: 5; stroke-linejoin: miter; stroke-linecap: square"/>
   </g>
   <g id="patch_51">
    <path d="M 934.011538 126.9948 
L 1432.634837 126.9948 
" style="fill: none; stroke: #000000; stroke-width: 5; stroke-linejoin: miter; stroke-linecap: square"/>
   </g>
  </g>
 </g>
 <defs>
  <clipPath id="pc7ef48a924">
   <rect x="164.196875" y="126.9948" width="498.623299" height="399.316"/>
  </clipPath>
  <clipPath id="p743bf20495">
   <rect x="934.011538" y="126.9948" width="498.623299" height="399.316"/>
  </clipPath>
 </defs>
</svg>
