<?xml version="1.0" encoding="utf-8" standalone="no"?>
<!DOCTYPE svg PUBLIC "-//W3C//DTD SVG 1.1//EN"
  "http://www.w3.org/Graphics/SVG/1.1/DTD/svg11.dtd">
<svg xmlns:xlink="http://www.w3.org/1999/xlink" width="1797.540315pt" height="1024.504221pt" viewBox="0 0 1797.540315 1024.504221" xmlns="http://www.w3.org/2000/svg" version="1.1">
 <metadata>
  <rdf:RDF xmlns:dc="http://purl.org/dc/elements/1.1/" xmlns:cc="http://creativecommons.org/ns#" xmlns:rdf="http://www.w3.org/1999/02/22-rdf-syntax-ns#">
   <cc:Work>
    <dc:type rdf:resource="http://purl.org/dc/dcmitype/StillImage"/>
    <dc:date>2024-11-22T10:32:49.267039</dc:date>
    <dc:format>image/svg+xml</dc:format>
    <dc:creator>
     <cc:Agent>
      <dc:title>Matplotlib v3.9.1, https://matplotlib.org/</dc:title>
     </cc:Agent>
    </dc:creator>
   </cc:Work>
  </rdf:RDF>
 </metadata>
 <defs>
  <style type="text/css">*{stroke-linejoin: round; stroke-linecap: butt}</style>
 </defs>
 <g id="figure_1">
  <g id="patch_1">
   <path d="M 0 1024.504221 
L 1797.540315 1024.504221 
L 1797.540315 0 
L 0 0 
z
" style="fill: #ffffff"/>
  </g>
  <g id="axes_1">
   <g id="patch_2">
    <path d="M 179.196875 880.810471 
L 971.196875 880.810471 
L 971.196875 16.810471 
L 179.196875 16.810471 
z
" style="fill: #ffffff"/>
   </g>
   <g id="matplotlib.axis_1">
    <g id="xtick_1">
     <g id="line2d_1">
      <defs>
       <path id="m744355b2a3" d="M 0 0 
L 0 20 
" style="stroke: #000000; stroke-width: 5"/>
      </defs>
      <g>
       <use xlink:href="#m744355b2a3" x="215.196875" y="880.810471" style="fill: #f8d941; stroke: #000000; stroke-width: 5"/>
      </g>
     </g>
     <g id="text_1">
      <!-- 0 -->
      <g transform="translate(200.196875 945.972971) scale(0.6 -0.6)">
       <defs>
        <path id="TimesNewRomanPSMT-30" d="M 231 2094 
Q 231 2819 450 3342 
Q 669 3866 1031 4122 
Q 1313 4325 1613 4325 
Q 2100 4325 2488 3828 
Q 2972 3213 2972 2159 
Q 2972 1422 2759 906 
Q 2547 391 2217 158 
Q 1888 -75 1581 -75 
Q 975 -75 572 641 
Q 231 1244 231 2094 
z
M 844 2016 
Q 844 1141 1059 588 
Q 1238 122 1591 122 
Q 1759 122 1940 273 
Q 2122 425 2216 781 
Q 2359 1319 2359 2297 
Q 2359 3022 2209 3506 
Q 2097 3866 1919 4016 
Q 1791 4119 1609 4119 
Q 1397 4119 1231 3928 
Q 1006 3669 925 3112 
Q 844 2556 844 2016 
z
" transform="scale(0.015625)"/>
       </defs>
       <use xlink:href="#TimesNewRomanPSMT-30"/>
      </g>
     </g>
    </g>
    <g id="xtick_2">
     <g id="line2d_2">
      <g>
       <use xlink:href="#m744355b2a3" x="575.196875" y="880.810471" style="fill: #f8d941; stroke: #000000; stroke-width: 5"/>
      </g>
     </g>
     <g id="text_2">
      <!-- 50 -->
      <g transform="translate(545.196875 945.972971) scale(0.6 -0.6)">
       <defs>
        <path id="TimesNewRomanPSMT-35" d="M 2778 4238 
L 2534 3706 
L 1259 3706 
L 981 3138 
Q 1809 3016 2294 2522 
Q 2709 2097 2709 1522 
Q 2709 1188 2573 903 
Q 2438 619 2231 419 
Q 2025 219 1772 97 
Q 1413 -75 1034 -75 
Q 653 -75 479 54 
Q 306 184 306 341 
Q 306 428 378 495 
Q 450 563 559 563 
Q 641 563 702 538 
Q 763 513 909 409 
Q 1144 247 1384 247 
Q 1750 247 2026 523 
Q 2303 800 2303 1197 
Q 2303 1581 2056 1914 
Q 1809 2247 1375 2428 
Q 1034 2569 447 2591 
L 1259 4238 
L 2778 4238 
z
" transform="scale(0.015625)"/>
       </defs>
       <use xlink:href="#TimesNewRomanPSMT-35"/>
       <use xlink:href="#TimesNewRomanPSMT-30" x="50"/>
      </g>
     </g>
    </g>
    <g id="xtick_3">
     <g id="line2d_3">
      <g>
       <use xlink:href="#m744355b2a3" x="935.196875" y="880.810471" style="fill: #f8d941; stroke: #000000; stroke-width: 5"/>
      </g>
     </g>
     <g id="text_3">
      <!-- 100 -->
      <g transform="translate(890.196875 945.972971) scale(0.6 -0.6)">
       <defs>
        <path id="TimesNewRomanPSMT-31" d="M 750 3822 
L 1781 4325 
L 1884 4325 
L 1884 747 
Q 1884 391 1914 303 
Q 1944 216 2037 169 
Q 2131 122 2419 116 
L 2419 0 
L 825 0 
L 825 116 
Q 1125 122 1212 167 
Q 1300 213 1334 289 
Q 1369 366 1369 747 
L 1369 3034 
Q 1369 3497 1338 3628 
Q 1316 3728 1258 3775 
Q 1200 3822 1119 3822 
Q 1003 3822 797 3725 
L 750 3822 
z
" transform="scale(0.015625)"/>
       </defs>
       <use xlink:href="#TimesNewRomanPSMT-31"/>
       <use xlink:href="#TimesNewRomanPSMT-30" x="50"/>
       <use xlink:href="#TimesNewRomanPSMT-30" x="100"/>
      </g>
     </g>
    </g>
    <g id="text_4">
     <!-- tau(%) -->
     <g transform="translate(493.578125 1004.469846) scale(0.6 -0.6)">
      <defs>
       <path id="TimesNewRomanPSMT-74" d="M 1031 3803 
L 1031 2863 
L 1700 2863 
L 1700 2644 
L 1031 2644 
L 1031 788 
Q 1031 509 1111 412 
Q 1191 316 1316 316 
Q 1419 316 1516 380 
Q 1613 444 1666 569 
L 1788 569 
Q 1678 263 1478 108 
Q 1278 -47 1066 -47 
Q 922 -47 784 33 
Q 647 113 581 261 
Q 516 409 516 719 
L 516 2644 
L 63 2644 
L 63 2747 
Q 234 2816 414 2980 
Q 594 3144 734 3369 
Q 806 3488 934 3803 
L 1031 3803 
z
" transform="scale(0.015625)"/>
       <path id="TimesNewRomanPSMT-61" d="M 1822 413 
Q 1381 72 1269 19 
Q 1100 -59 909 -59 
Q 613 -59 420 144 
Q 228 347 228 678 
Q 228 888 322 1041 
Q 450 1253 767 1440 
Q 1084 1628 1822 1897 
L 1822 2009 
Q 1822 2438 1686 2597 
Q 1550 2756 1291 2756 
Q 1094 2756 978 2650 
Q 859 2544 859 2406 
L 866 2225 
Q 866 2081 792 2003 
Q 719 1925 600 1925 
Q 484 1925 411 2006 
Q 338 2088 338 2228 
Q 338 2497 613 2722 
Q 888 2947 1384 2947 
Q 1766 2947 2009 2819 
Q 2194 2722 2281 2516 
Q 2338 2381 2338 1966 
L 2338 994 
Q 2338 584 2353 492 
Q 2369 400 2405 369 
Q 2441 338 2488 338 
Q 2538 338 2575 359 
Q 2641 400 2828 588 
L 2828 413 
Q 2478 -56 2159 -56 
Q 2006 -56 1915 50 
Q 1825 156 1822 413 
z
M 1822 616 
L 1822 1706 
Q 1350 1519 1213 1441 
Q 966 1303 859 1153 
Q 753 1003 753 825 
Q 753 600 887 451 
Q 1022 303 1197 303 
Q 1434 303 1822 616 
z
" transform="scale(0.015625)"/>
       <path id="TimesNewRomanPSMT-75" d="M 2709 2863 
L 2709 1128 
Q 2709 631 2732 520 
Q 2756 409 2807 365 
Q 2859 322 2928 322 
Q 3025 322 3147 375 
L 3191 266 
L 2334 -88 
L 2194 -88 
L 2194 519 
Q 1825 119 1631 15 
Q 1438 -88 1222 -88 
Q 981 -88 804 51 
Q 628 191 559 409 
Q 491 628 491 1028 
L 491 2306 
Q 491 2509 447 2587 
Q 403 2666 317 2708 
Q 231 2750 6 2747 
L 6 2863 
L 1009 2863 
L 1009 947 
Q 1009 547 1148 422 
Q 1288 297 1484 297 
Q 1619 297 1789 381 
Q 1959 466 2194 703 
L 2194 2325 
Q 2194 2569 2105 2655 
Q 2016 2741 1734 2747 
L 1734 2863 
L 2709 2863 
z
" transform="scale(0.015625)"/>
       <path id="TimesNewRomanPSMT-28" d="M 1988 -1253 
L 1988 -1369 
Q 1516 -1131 1200 -813 
Q 750 -359 506 256 
Q 263 872 263 1534 
Q 263 2503 741 3301 
Q 1219 4100 1988 4444 
L 1988 4313 
Q 1603 4100 1356 3731 
Q 1109 3363 987 2797 
Q 866 2231 866 1616 
Q 866 947 969 400 
Q 1050 -31 1165 -292 
Q 1281 -553 1476 -793 
Q 1672 -1034 1988 -1253 
z
" transform="scale(0.015625)"/>
       <path id="TimesNewRomanPSMT-25" d="M 4350 4334 
L 1263 -175 
L 984 -175 
L 4072 4334 
L 4350 4334 
z
M 1138 4334 
Q 1559 4334 1792 3984 
Q 2025 3634 2025 3181 
Q 2025 2638 1762 2341 
Q 1500 2044 1131 2044 
Q 884 2044 678 2180 
Q 472 2316 348 2584 
Q 225 2853 225 3181 
Q 225 3509 350 3786 
Q 475 4063 692 4198 
Q 909 4334 1138 4334 
z
M 1128 4159 
Q 969 4159 845 3971 
Q 722 3784 722 3184 
Q 722 2750 791 2522 
Q 844 2350 956 2256 
Q 1022 2200 1119 2200 
Q 1269 2200 1375 2363 
Q 1531 2603 1531 3166 
Q 1531 3759 1378 4000 
Q 1278 4159 1128 4159 
z
M 4206 2103 
Q 4428 2103 4648 1962 
Q 4869 1822 4989 1553 
Q 5109 1284 5109 963 
Q 5109 409 4843 117 
Q 4578 -175 4216 -175 
Q 3988 -175 3773 -34 
Q 3559 106 3436 367 
Q 3313 628 3313 963 
Q 3313 1291 3436 1562 
Q 3559 1834 3773 1968 
Q 3988 2103 4206 2103 
z
M 4209 1938 
Q 4059 1938 3950 1769 
Q 3809 1550 3809 941 
Q 3809 381 3953 159 
Q 4059 0 4209 0 
Q 4353 0 4466 172 
Q 4616 400 4616 956 
Q 4616 1544 4466 1778 
Q 4363 1938 4209 1938 
z
" transform="scale(0.015625)"/>
       <path id="TimesNewRomanPSMT-29" d="M 144 4313 
L 144 4444 
Q 619 4209 934 3891 
Q 1381 3434 1625 2820 
Q 1869 2206 1869 1541 
Q 1869 572 1392 -226 
Q 916 -1025 144 -1369 
L 144 -1253 
Q 528 -1038 776 -670 
Q 1025 -303 1145 264 
Q 1266 831 1266 1447 
Q 1266 2113 1163 2663 
Q 1084 3094 967 3353 
Q 850 3613 656 3853 
Q 463 4094 144 4313 
z
" transform="scale(0.015625)"/>
      </defs>
      <use xlink:href="#TimesNewRomanPSMT-74"/>
      <use xlink:href="#TimesNewRomanPSMT-61" x="27.783203"/>
      <use xlink:href="#TimesNewRomanPSMT-75" x="72.167969"/>
      <use xlink:href="#TimesNewRomanPSMT-28" x="122.167969"/>
      <use xlink:href="#TimesNewRomanPSMT-25" x="155.46875"/>
      <use xlink:href="#TimesNewRomanPSMT-29" x="238.769531"/>
     </g>
    </g>
   </g>
   <g id="matplotlib.axis_2">
    <g id="ytick_1">
     <g id="line2d_4">
      <defs>
       <path id="m0fc940db1b" d="M 0 0 
L -20 0 
" style="stroke: #000000; stroke-width: 5"/>
      </defs>
      <g>
       <use xlink:href="#m0fc940db1b" x="179.196875" y="848.613911" style="fill: #f8d941; stroke: #000000; stroke-width: 5"/>
      </g>
     </g>
     <g id="text_5">
      <!-- 0 -->
      <g transform="translate(125.696875 869.445161) scale(0.6 -0.6)">
       <use xlink:href="#TimesNewRomanPSMT-30"/>
      </g>
     </g>
    </g>
    <g id="ytick_2">
     <g id="line2d_5">
      <g>
       <use xlink:href="#m0fc940db1b" x="179.196875" y="671.709734" style="fill: #f8d941; stroke: #000000; stroke-width: 5"/>
      </g>
     </g>
     <g id="text_6">
      <!-- 50 -->
      <g transform="translate(95.696875 692.540984) scale(0.6 -0.6)">
       <use xlink:href="#TimesNewRomanPSMT-35"/>
       <use xlink:href="#TimesNewRomanPSMT-30" x="50"/>
      </g>
     </g>
    </g>
    <g id="ytick_3">
     <g id="line2d_6">
      <g>
       <use xlink:href="#m0fc940db1b" x="179.196875" y="494.805557" style="fill: #f8d941; stroke: #000000; stroke-width: 5"/>
      </g>
     </g>
     <g id="text_7">
      <!-- 100 -->
      <g transform="translate(65.696875 515.636807) scale(0.6 -0.6)">
       <use xlink:href="#TimesNewRomanPSMT-31"/>
       <use xlink:href="#TimesNewRomanPSMT-30" x="50"/>
       <use xlink:href="#TimesNewRomanPSMT-30" x="100"/>
      </g>
     </g>
    </g>
    <g id="ytick_4">
     <g id="line2d_7">
      <g>
       <use xlink:href="#m0fc940db1b" x="179.196875" y="317.90138" style="fill: #f8d941; stroke: #000000; stroke-width: 5"/>
      </g>
     </g>
     <g id="text_8">
      <!-- 150 -->
      <g transform="translate(65.696875 338.73263) scale(0.6 -0.6)">
       <use xlink:href="#TimesNewRomanPSMT-31"/>
       <use xlink:href="#TimesNewRomanPSMT-35" x="50"/>
       <use xlink:href="#TimesNewRomanPSMT-30" x="100"/>
      </g>
     </g>
    </g>
    <g id="ytick_5">
     <g id="line2d_8">
      <g>
       <use xlink:href="#m0fc940db1b" x="179.196875" y="140.997203" style="fill: #f8d941; stroke: #000000; stroke-width: 5"/>
      </g>
     </g>
     <g id="text_9">
      <!-- 200 -->
      <g transform="translate(65.696875 161.828453) scale(0.6 -0.6)">
       <defs>
        <path id="TimesNewRomanPSMT-32" d="M 2934 816 
L 2638 0 
L 138 0 
L 138 116 
Q 1241 1122 1691 1759 
Q 2141 2397 2141 2925 
Q 2141 3328 1894 3587 
Q 1647 3847 1303 3847 
Q 991 3847 742 3664 
Q 494 3481 375 3128 
L 259 3128 
Q 338 3706 661 4015 
Q 984 4325 1469 4325 
Q 1984 4325 2329 3994 
Q 2675 3663 2675 3213 
Q 2675 2891 2525 2569 
Q 2294 2063 1775 1497 
Q 997 647 803 472 
L 1909 472 
Q 2247 472 2383 497 
Q 2519 522 2628 598 
Q 2738 675 2819 816 
L 2934 816 
z
" transform="scale(0.015625)"/>
       </defs>
       <use xlink:href="#TimesNewRomanPSMT-32"/>
       <use xlink:href="#TimesNewRomanPSMT-30" x="50"/>
       <use xlink:href="#TimesNewRomanPSMT-30" x="100"/>
      </g>
     </g>
    </g>
    <g id="text_10">
     <!-- #state -->
     <g transform="translate(48.8625 518.790158) rotate(-90) scale(0.6 -0.6)">
      <defs>
       <path id="TimesNewRomanPSMT-23" d="M 359 -88 
L 650 1334 
L 116 1334 
L 116 1591 
L 700 1591 
L 916 2663 
L 116 2663 
L 116 2913 
L 975 2913 
L 1259 4334 
L 1519 4334 
L 1234 2913 
L 2288 2913 
L 2591 4334 
L 2850 4334 
L 2553 2913 
L 3084 2913 
L 3084 2663 
L 2506 2663 
L 2288 1591 
L 3084 1591 
L 3084 1334 
L 2234 1334 
L 1944 -88 
L 1691 -88 
L 1975 1334 
L 916 1334 
L 619 -88 
L 359 -88 
z
M 963 1591 
L 2022 1591 
L 2247 2663 
L 1181 2663 
L 963 1591 
z
" transform="scale(0.015625)"/>
       <path id="TimesNewRomanPSMT-73" d="M 2050 2947 
L 2050 1972 
L 1947 1972 
Q 1828 2431 1642 2597 
Q 1456 2763 1169 2763 
Q 950 2763 815 2647 
Q 681 2531 681 2391 
Q 681 2216 781 2091 
Q 878 1963 1175 1819 
L 1631 1597 
Q 2266 1288 2266 781 
Q 2266 391 1970 151 
Q 1675 -88 1309 -88 
Q 1047 -88 709 6 
Q 606 38 541 38 
Q 469 38 428 -44 
L 325 -44 
L 325 978 
L 428 978 
Q 516 541 762 319 
Q 1009 97 1316 97 
Q 1531 97 1667 223 
Q 1803 350 1803 528 
Q 1803 744 1651 891 
Q 1500 1038 1047 1263 
Q 594 1488 453 1669 
Q 313 1847 313 2119 
Q 313 2472 555 2709 
Q 797 2947 1181 2947 
Q 1350 2947 1591 2875 
Q 1750 2828 1803 2828 
Q 1853 2828 1881 2850 
Q 1909 2872 1947 2947 
L 2050 2947 
z
" transform="scale(0.015625)"/>
       <path id="TimesNewRomanPSMT-65" d="M 681 1784 
Q 678 1147 991 784 
Q 1303 422 1725 422 
Q 2006 422 2214 576 
Q 2422 731 2563 1106 
L 2659 1044 
Q 2594 616 2278 264 
Q 1963 -88 1488 -88 
Q 972 -88 605 314 
Q 238 716 238 1394 
Q 238 2128 614 2539 
Q 991 2950 1559 2950 
Q 2041 2950 2350 2633 
Q 2659 2316 2659 1784 
L 681 1784 
z
M 681 1966 
L 2006 1966 
Q 1991 2241 1941 2353 
Q 1863 2528 1708 2628 
Q 1553 2728 1384 2728 
Q 1125 2728 920 2526 
Q 716 2325 681 1966 
z
" transform="scale(0.015625)"/>
      </defs>
      <use xlink:href="#TimesNewRomanPSMT-23"/>
      <use xlink:href="#TimesNewRomanPSMT-73" x="50"/>
      <use xlink:href="#TimesNewRomanPSMT-74" x="88.916016"/>
      <use xlink:href="#TimesNewRomanPSMT-61" x="116.699219"/>
      <use xlink:href="#TimesNewRomanPSMT-74" x="161.083984"/>
      <use xlink:href="#TimesNewRomanPSMT-65" x="188.867188"/>
     </g>
    </g>
   </g>
   <g id="line2d_9">
    <path d="M 215.196875 841.537744 
L 241.863542 837.99966 
L 268.530208 837.99966 
L 295.196875 837.99966 
L 321.863542 830.923493 
L 348.530208 827.385409 
L 375.196875 823.847326 
L 401.863542 823.847326 
L 428.530208 823.847326 
L 455.196875 816.771159 
L 481.863542 809.694992 
L 508.530208 809.694992 
L 535.196875 802.618825 
L 561.863542 795.542658 
L 588.530208 792.004574 
L 615.196875 788.46649 
L 641.863542 781.390323 
L 668.530208 774.314156 
L 695.196875 763.699906 
L 721.863542 763.699906 
L 748.530208 763.699906 
L 775.196875 763.699906 
L 801.863542 763.699906 
L 828.530208 763.699906 
L 855.196875 763.699906 
L 881.863542 763.699906 
L 908.530208 763.699906 
L 935.196875 763.699906 
" clip-path="url(#p73c9cc40cb)" style="fill: none; stroke: #384b70; stroke-width: 7; stroke-linecap: square"/>
   </g>
   <g id="line2d_10">
    <path d="M 215.196875 841.537744 
L 241.863542 837.99966 
L 268.530208 830.923493 
L 295.196875 827.385409 
L 321.863542 823.847326 
L 348.530208 816.771159 
L 375.196875 809.694992 
L 401.863542 802.618825 
L 428.530208 795.542658 
L 455.196875 792.004574 
L 481.863542 788.46649 
L 508.530208 781.390323 
L 535.196875 774.314156 
L 561.863542 763.699906 
L 588.530208 763.699906 
L 615.196875 763.699906 
L 641.863542 763.699906 
L 668.530208 763.699906 
L 695.196875 763.699906 
L 721.863542 763.699906 
L 748.530208 763.699906 
L 775.196875 763.699906 
L 801.863542 763.699906 
L 828.530208 763.699906 
L 855.196875 763.699906 
L 881.863542 763.699906 
L 908.530208 763.699906 
L 935.196875 763.699906 
" clip-path="url(#p73c9cc40cb)" style="fill: none; stroke-dasharray: 25.9,11.2; stroke-dashoffset: 0; stroke: #384b70; stroke-width: 7"/>
   </g>
   <g id="line2d_11">
    <path d="M 215.196875 841.537744 
L 228.781781 837.99966 
L 242.366686 837.99966 
L 255.951592 837.99966 
L 269.536498 837.99966 
L 283.121403 837.99966 
L 296.706309 830.923493 
L 310.291215 827.385409 
L 323.87612 823.847326 
L 337.461026 823.847326 
L 351.045932 823.847326 
L 364.630837 816.771159 
L 378.215743 809.694992 
L 391.800649 795.542658 
L 405.385554 781.390323 
L 418.97046 781.390323 
L 432.555366 774.314156 
L 446.140271 767.237989 
L 459.725177 763.699906 
L 473.310083 760.161822 
L 486.894988 753.085655 
L 500.479894 738.933321 
L 514.0648 717.70482 
L 527.649705 696.476318 
L 541.234611 678.785901 
L 554.819517 678.785901 
L 568.404422 682.323984 
L 581.989328 678.785901 
L 595.574233 678.785901 
L 609.159139 668.17165 
L 622.744045 668.17165 
L 636.32895 671.709734 
L 649.913856 668.17165 
L 663.498762 664.633567 
L 677.083667 671.709734 
L 690.668573 664.633567 
L 704.253479 675.247817 
L 717.838384 661.095483 
L 731.42329 661.095483 
L 745.008196 664.633567 
L 758.593101 664.633567 
L 772.178007 661.095483 
L 785.762913 657.5574 
L 799.347818 657.5574 
L 812.932724 657.5574 
L 826.51763 657.5574 
L 840.102535 657.5574 
L 853.687441 657.5574 
L 867.272347 657.5574 
L 880.857252 657.5574 
L 894.442158 657.5574 
L 908.027064 657.5574 
L 921.611969 657.5574 
L 935.196875 657.5574 
" clip-path="url(#p73c9cc40cb)" style="fill: none; stroke: #b8001f; stroke-width: 7; stroke-linecap: square"/>
   </g>
   <g id="line2d_12">
    <path d="M 215.196875 841.537744 
L 228.781781 837.99966 
L 242.366686 830.923493 
L 255.951592 827.385409 
L 269.536498 823.847326 
L 283.121403 816.771159 
L 296.706309 809.694992 
L 310.291215 795.542658 
L 323.87612 781.390323 
L 337.461026 774.314156 
L 351.045932 767.237989 
L 364.630837 763.699906 
L 378.215743 760.161822 
L 391.800649 753.085655 
L 405.385554 738.933321 
L 418.97046 717.70482 
L 432.555366 696.476318 
L 446.140271 682.323984 
L 459.725177 678.785901 
L 473.310083 675.247817 
L 486.894988 671.709734 
L 500.479894 668.17165 
L 514.0648 664.633567 
L 527.649705 661.095483 
L 541.234611 657.5574 
L 554.819517 657.5574 
L 568.404422 657.5574 
L 581.989328 657.5574 
L 595.574233 657.5574 
L 609.159139 657.5574 
L 622.744045 657.5574 
L 636.32895 657.5574 
L 649.913856 657.5574 
L 663.498762 657.5574 
L 677.083667 657.5574 
L 690.668573 657.5574 
L 704.253479 657.5574 
L 717.838384 657.5574 
L 731.42329 657.5574 
L 745.008196 657.5574 
L 758.593101 657.5574 
L 772.178007 657.5574 
L 785.762913 657.5574 
L 799.347818 657.5574 
L 812.932724 657.5574 
L 826.51763 657.5574 
L 840.102535 657.5574 
L 853.687441 657.5574 
L 867.272347 657.5574 
L 880.857252 657.5574 
L 894.442158 657.5574 
L 908.027064 657.5574 
L 921.611969 657.5574 
L 935.196875 657.5574 
" clip-path="url(#p73c9cc40cb)" style="fill: none; stroke-dasharray: 25.9,11.2; stroke-dashoffset: 0; stroke: #b8001f; stroke-width: 7"/>
   </g>
   <g id="line2d_13">
    <path d="M 215.196875 841.537744 
L 221.403772 837.99966 
L 227.610668 834.461576 
L 233.817565 834.461576 
L 240.024461 834.461576 
L 246.231358 834.461576 
L 252.438254 834.461576 
L 258.645151 834.461576 
L 264.852047 834.461576 
L 271.058944 823.847326 
L 277.265841 820.309242 
L 283.472737 816.771159 
L 289.679634 813.233075 
L 295.88653 813.233075 
L 302.093427 813.233075 
L 308.300323 813.233075 
L 314.50722 806.156908 
L 320.714116 799.080741 
L 326.921013 792.004574 
L 333.127909 777.85224 
L 339.334806 763.699906 
L 345.541703 749.547572 
L 351.748599 749.547572 
L 357.955496 735.395237 
L 364.162392 728.31907 
L 370.369289 710.628653 
L 376.576185 700.014402 
L 382.783082 692.938235 
L 388.989978 689.400151 
L 395.196875 685.862068 
L 401.403772 678.785901 
L 407.610668 668.17165 
L 413.817565 643.405065 
L 420.024461 657.5574 
L 426.231358 654.019316 
L 432.438254 650.481232 
L 438.645151 629.252731 
L 444.852047 629.252731 
L 451.058944 615.100397 
L 457.265841 636.328898 
L 463.472737 629.252731 
L 469.679634 629.252731 
L 475.88653 618.638481 
L 482.093427 618.638481 
L 488.300323 593.871896 
L 494.50722 572.643395 
L 500.714116 572.643395 
L 506.921013 547.87681 
L 513.127909 530.186392 
L 519.334806 519.572142 
L 525.541703 526.648309 
L 531.748599 516.034058 
L 537.955496 526.648309 
L 544.162392 523.110225 
L 550.369289 491.267473 
L 556.576185 508.957891 
L 562.783082 501.881724 
L 568.989978 477.115139 
L 575.196875 459.424721 
L 581.403772 431.120053 
L 587.610668 424.043886 
L 593.817565 399.277301 
L 600.024461 392.201134 
L 606.231358 413.429635 
L 612.438254 388.663051 
L 618.645151 378.0488 
L 624.852047 378.0488 
L 631.058944 388.663051 
L 637.265841 381.586884 
L 643.472737 388.663051 
L 649.679634 363.896466 
L 655.88653 349.744132 
L 662.093427 335.591798 
L 668.300323 335.591798 
L 674.50722 307.287129 
L 680.714116 314.363296 
L 686.921013 300.210962 
L 693.127909 296.672879 
L 699.334806 303.749046 
L 705.541703 317.90138 
L 711.748599 300.210962 
L 717.955496 307.287129 
L 724.162392 289.596712 
L 730.369289 271.906294 
L 736.576185 243.601626 
L 742.783082 232.987375 
L 748.989978 229.449291 
L 755.196875 179.916122 
L 761.403772 194.068456 
L 767.610668 211.758874 
L 773.817565 179.916122 
L 780.024461 208.22079 
L 786.231358 201.144623 
L 792.438254 190.530372 
L 798.645151 183.454205 
L 804.852047 183.454205 
L 811.058944 151.611454 
L 817.265841 126.844869 
L 823.472737 133.921036 
L 829.679634 130.382952 
L 835.88653 66.697449 
L 842.093427 73.773616 
L 848.300323 80.849783 
L 854.50722 66.697449 
L 860.714116 66.697449 
L 866.921013 77.311699 
L 873.127909 73.773616 
L 879.334806 73.773616 
L 885.541703 66.697449 
L 891.748599 63.159365 
L 897.955496 59.621282 
L 904.162392 66.697449 
L 910.369289 56.083198 
L 916.576185 59.621282 
L 922.783082 56.083198 
L 928.989978 56.083198 
L 935.196875 56.083198 
" clip-path="url(#p73c9cc40cb)" style="fill: none; stroke: #6a9c89; stroke-width: 7; stroke-linecap: square"/>
   </g>
   <g id="line2d_14">
    <path d="M 215.196875 841.537744 
L 221.403772 837.99966 
L 227.610668 834.461576 
L 233.817565 823.847326 
L 240.024461 820.309242 
L 246.231358 816.771159 
L 252.438254 813.233075 
L 258.645151 806.156908 
L 264.852047 799.080741 
L 271.058944 792.004574 
L 277.265841 777.85224 
L 283.472737 763.699906 
L 289.679634 749.547572 
L 295.88653 735.395237 
L 302.093427 728.31907 
L 308.300323 710.628653 
L 314.50722 700.014402 
L 320.714116 692.938235 
L 326.921013 689.400151 
L 333.127909 685.862068 
L 339.334806 678.785901 
L 345.541703 668.17165 
L 351.748599 657.5574 
L 357.955496 654.019316 
L 364.162392 650.481232 
L 370.369289 643.405065 
L 376.576185 636.328898 
L 382.783082 629.252731 
L 388.989978 618.638481 
L 395.196875 615.100397 
L 401.403772 593.871896 
L 407.610668 572.643395 
L 413.817565 547.87681 
L 420.024461 530.186392 
L 426.231358 526.648309 
L 432.438254 523.110225 
L 438.645151 519.572142 
L 444.852047 516.034058 
L 451.058944 508.957891 
L 457.265841 501.881724 
L 463.472737 491.267473 
L 469.679634 477.115139 
L 475.88653 459.424721 
L 482.093427 431.120053 
L 488.300323 424.043886 
L 494.50722 413.429635 
L 500.714116 399.277301 
L 506.921013 392.201134 
L 513.127909 388.663051 
L 519.334806 381.586884 
L 525.541703 378.0488 
L 531.748599 363.896466 
L 537.955496 349.744132 
L 544.162392 335.591798 
L 550.369289 317.90138 
L 556.576185 314.363296 
L 562.783082 307.287129 
L 568.989978 303.749046 
L 575.196875 300.210962 
L 581.403772 296.672879 
L 587.610668 289.596712 
L 593.817565 271.906294 
L 600.024461 243.601626 
L 606.231358 232.987375 
L 612.438254 229.449291 
L 618.645151 211.758874 
L 624.852047 208.22079 
L 631.058944 201.144623 
L 637.265841 194.068456 
L 643.472737 190.530372 
L 649.679634 183.454205 
L 655.88653 179.916122 
L 662.093427 151.611454 
L 668.300323 133.921036 
L 674.50722 130.382952 
L 680.714116 126.844869 
L 686.921013 80.849783 
L 693.127909 77.311699 
L 699.334806 73.773616 
L 705.541703 66.697449 
L 711.748599 63.159365 
L 717.955496 59.621282 
L 724.162392 56.083198 
L 730.369289 56.083198 
L 736.576185 56.083198 
L 742.783082 56.083198 
L 748.989978 56.083198 
L 755.196875 56.083198 
L 761.403772 56.083198 
L 767.610668 56.083198 
L 773.817565 56.083198 
L 780.024461 56.083198 
L 786.231358 56.083198 
L 792.438254 56.083198 
L 798.645151 56.083198 
L 804.852047 56.083198 
L 811.058944 56.083198 
L 817.265841 56.083198 
L 823.472737 56.083198 
L 829.679634 56.083198 
L 835.88653 56.083198 
L 842.093427 56.083198 
L 848.300323 56.083198 
L 854.50722 56.083198 
L 860.714116 56.083198 
L 866.921013 56.083198 
L 873.127909 56.083198 
L 879.334806 56.083198 
L 885.541703 56.083198 
L 891.748599 56.083198 
L 897.955496 56.083198 
L 904.162392 56.083198 
L 910.369289 56.083198 
L 916.576185 56.083198 
L 922.783082 56.083198 
L 928.989978 56.083198 
L 935.196875 56.083198 
" clip-path="url(#p73c9cc40cb)" style="fill: none; stroke-dasharray: 25.9,11.2; stroke-dashoffset: 0; stroke: #6a9c89; stroke-width: 7"/>
   </g>
   <g id="patch_3">
    <path d="M 179.196875 880.810471 
L 179.196875 16.810471 
" style="fill: none; stroke: #000000; stroke-width: 5; stroke-linejoin: miter; stroke-linecap: square"/>
   </g>
   <g id="patch_4">
    <path d="M 971.196875 880.810471 
L 971.196875 16.810471 
" style="fill: none; stroke: #000000; stroke-width: 5; stroke-linejoin: miter; stroke-linecap: square"/>
   </g>
   <g id="patch_5">
    <path d="M 179.196875 880.810471 
L 971.196875 880.810471 
" style="fill: none; stroke: #000000; stroke-width: 5; stroke-linejoin: miter; stroke-linecap: square"/>
   </g>
   <g id="patch_6">
    <path d="M 179.196875 16.810471 
L 971.196875 16.810471 
" style="fill: none; stroke: #000000; stroke-width: 5; stroke-linejoin: miter; stroke-linecap: square"/>
   </g>
  </g>
  <g id="axes_2">
   <g id="patch_7">
    <path d="M 179.196875 448.810471 
L 416.796875 448.810471 
L 416.796875 16.810471 
L 179.196875 16.810471 
z
" style="fill: #ffffff"/>
   </g>
   <g id="matplotlib.axis_3"/>
   <g id="matplotlib.axis_4"/>
   <g id="line2d_15">
    <path d="M 179.196875 431.530471 
L 209.083667 422.890471 
L 238.97046 422.890471 
L 268.857252 422.890471 
L 298.744045 422.890471 
L 328.630837 422.890471 
L 358.51763 405.610471 
L 388.404422 396.970471 
L 418.291215 388.330471 
L 448.178007 388.330471 
L 478.0648 388.330471 
L 507.951592 371.050471 
L 537.838384 353.770471 
L 567.725177 319.210471 
L 597.611969 284.650471 
L 627.498762 284.650471 
L 657.385554 267.370471 
L 687.272347 250.090471 
L 717.159139 241.450471 
L 747.045932 232.810471 
L 776.932724 215.530471 
L 806.819517 180.970471 
L 836.706309 129.130471 
L 866.593101 77.290471 
L 896.479894 34.090471 
L 926.366686 34.090471 
L 956.253479 42.730471 
L 986.140271 34.090471 
L 1016.027064 34.090471 
L 1045.913856 8.170471 
L 1075.800649 8.170471 
L 1105.687441 16.810471 
L 1135.574233 8.170471 
L 1165.461026 -0.469529 
L 1195.347818 16.810471 
L 1225.234611 -0.469529 
L 1255.121403 25.450471 
L 1277.995238 -1 
M 1342.946819 -1 
L 1344.781781 -0.469529 
L 1374.668573 -0.469529 
L 1376.503535 -1 
" clip-path="url(#p7d98a444fd)" style="fill: none; stroke: #b8001f; stroke-width: 5; stroke-linecap: square"/>
   </g>
   <g id="line2d_16">
    <path d="M 179.196875 431.530471 
L 209.083667 422.890471 
L 238.97046 405.610471 
L 268.857252 396.970471 
L 298.744045 388.330471 
L 328.630837 371.050471 
L 358.51763 353.770471 
L 388.404422 319.210471 
L 418.291215 284.650471 
L 448.178007 267.370471 
L 478.0648 250.090471 
L 507.951592 241.450471 
L 537.838384 232.810471 
L 567.725177 215.530471 
L 597.611969 180.970471 
L 627.498762 129.130471 
L 657.385554 77.290471 
L 687.272347 42.730471 
L 717.159139 34.090471 
L 747.045932 25.450471 
L 776.932724 16.810471 
L 806.819517 8.170471 
L 836.706309 -0.469529 
L 838.541271 -1 
" clip-path="url(#p7d98a444fd)" style="fill: none; stroke-dasharray: 18.5,8; stroke-dashoffset: 0; stroke: #b8001f; stroke-width: 5"/>
   </g>
   <g id="line2d_17">
    <path d="M 179.196875 431.530471 
L 192.852047 422.890471 
L 206.50722 414.250471 
L 220.162392 414.250471 
L 233.817565 414.250471 
L 247.472737 414.250471 
L 261.127909 414.250471 
L 274.783082 414.250471 
L 288.438254 414.250471 
L 302.093427 388.330471 
L 315.748599 379.690471 
L 329.403772 371.050471 
L 343.058944 362.410471 
L 356.714116 362.410471 
L 370.369289 362.410471 
L 384.024461 362.410471 
L 397.679634 345.130471 
L 411.334806 327.850471 
L 424.989978 310.570471 
L 438.645151 276.010471 
L 452.300323 241.450471 
L 465.955496 206.890471 
L 479.610668 206.890471 
L 493.265841 172.330471 
L 506.921013 155.050471 
L 520.576185 111.850471 
L 534.231358 85.930471 
L 547.88653 68.650471 
L 561.541703 60.010471 
L 575.196875 51.370471 
L 588.852047 34.090471 
L 602.50722 8.170471 
L 604.577728 -1 
" clip-path="url(#p7d98a444fd)" style="fill: none; stroke: #6a9c89; stroke-width: 5; stroke-linecap: square"/>
   </g>
   <g id="line2d_18">
    <path d="M 179.196875 431.530471 
L 192.852047 422.890471 
L 206.50722 414.250471 
L 220.162392 388.330471 
L 233.817565 379.690471 
L 247.472737 371.050471 
L 261.127909 362.410471 
L 274.783082 345.130471 
L 288.438254 327.850471 
L 302.093427 310.570471 
L 315.748599 276.010471 
L 329.403772 241.450471 
L 343.058944 206.890471 
L 356.714116 172.330471 
L 370.369289 155.050471 
L 384.024461 111.850471 
L 397.679634 85.930471 
L 411.334806 68.650471 
L 424.989978 60.010471 
L 438.645151 51.370471 
L 452.300323 34.090471 
L 465.955496 8.170471 
L 470.786682 -1 
" clip-path="url(#p7d98a444fd)" style="fill: none; stroke-dasharray: 18.5,8; stroke-dashoffset: 0; stroke: #6a9c89; stroke-width: 5"/>
   </g>
   <g id="patch_8">
    <path d="M 179.196875 448.810471 
L 179.196875 16.810471 
" style="fill: none; stroke: #000000; stroke-width: 5; stroke-linejoin: miter; stroke-linecap: square"/>
   </g>
   <g id="patch_9">
    <path d="M 416.796875 448.810471 
L 416.796875 16.810471 
" style="fill: none; stroke: #000000; stroke-width: 5; stroke-linejoin: miter; stroke-linecap: square"/>
   </g>
   <g id="patch_10">
    <path d="M 179.196875 448.810471 
L 416.796875 448.810471 
" style="fill: none; stroke: #000000; stroke-width: 5; stroke-linejoin: miter; stroke-linecap: square"/>
   </g>
   <g id="patch_11">
    <path d="M 179.196875 16.810471 
L 416.796875 16.810471 
" style="fill: none; stroke: #000000; stroke-width: 5; stroke-linejoin: miter; stroke-linecap: square"/>
   </g>
  </g>
  <g id="axes_3">
   <g id="patch_12">
    <path d="M 1129.596875 880.810471 
L 1763.196875 880.810471 
L 1763.196875 16.810471 
L 1129.596875 16.810471 
z
" style="fill: #ffffff"/>
   </g>
   <g id="patch_13">
    <path d="M 1129.596875 841.537744 
L 1548.302414 841.537744 
L 1548.302414 729.329951 
L 1129.596875 729.329951 
z
" clip-path="url(#p68d0259edf)" style="fill: #384b70; stroke: #000000; stroke-width: 3; stroke-linejoin: miter"/>
   </g>
   <g id="patch_14">
    <path d="M 1129.596875 729.329951 
L 1437.468595 729.329951 
L 1437.468595 617.122159 
L 1129.596875 617.122159 
z
" clip-path="url(#p68d0259edf)" style="fill: #fff5e4; opacity: 0.5; stroke: #000000; stroke-width: 3; stroke-linejoin: miter"/>
   </g>
   <g id="patch_15">
    <path d="M 1129.596875 561.018263 
L 1622.191627 561.018263 
L 1622.191627 448.810471 
L 1129.596875 448.810471 
z
" clip-path="url(#p68d0259edf)" style="fill: #b8001f; stroke: #000000; stroke-width: 3; stroke-linejoin: miter"/>
   </g>
   <g id="patch_16">
    <path d="M 1129.596875 448.810471 
L 1412.838858 448.810471 
L 1412.838858 336.602679 
L 1129.596875 336.602679 
z
" clip-path="url(#p68d0259edf)" style="fill: #fff5e4; opacity: 0.5; stroke: #000000; stroke-width: 3; stroke-linejoin: miter"/>
   </g>
   <g id="patch_17">
    <path d="M 1129.596875 280.498782 
L 1733.025446 280.498782 
L 1733.025446 168.29099 
L 1129.596875 168.29099 
z
" clip-path="url(#p68d0259edf)" style="fill: #6a9c89; stroke: #000000; stroke-width: 3; stroke-linejoin: miter"/>
   </g>
   <g id="patch_18">
    <path d="M 1129.596875 168.29099 
L 1566.774718 168.29099 
L 1566.774718 56.083198 
L 1129.596875 56.083198 
z
" clip-path="url(#p68d0259edf)" style="fill: #fff5e4; opacity: 0.5; stroke: #000000; stroke-width: 3; stroke-linejoin: miter"/>
   </g>
   <g id="matplotlib.axis_5">
    <g id="xtick_4">
     <g id="line2d_19">
      <g>
       <use xlink:href="#m744355b2a3" x="1129.596875" y="880.810471" style="fill: #f8d941; stroke: #000000; stroke-width: 5"/>
      </g>
     </g>
     <g id="text_11">
      <!-- 0 -->
      <g transform="translate(1114.596875 945.972971) scale(0.6 -0.6)">
       <use xlink:href="#TimesNewRomanPSMT-30"/>
      </g>
     </g>
    </g>
    <g id="xtick_5">
     <g id="line2d_20">
      <g>
       <use xlink:href="#m744355b2a3" x="1437.468595" y="880.810471" style="fill: #f8d941; stroke: #000000; stroke-width: 5"/>
      </g>
     </g>
     <g id="text_12">
      <!-- 50 -->
      <g transform="translate(1407.468595 945.972971) scale(0.6 -0.6)">
       <use xlink:href="#TimesNewRomanPSMT-35"/>
       <use xlink:href="#TimesNewRomanPSMT-30" x="50"/>
      </g>
     </g>
    </g>
    <g id="xtick_6">
     <g id="line2d_21">
      <g>
       <use xlink:href="#m744355b2a3" x="1745.340315" y="880.810471" style="fill: #f8d941; stroke: #000000; stroke-width: 5"/>
      </g>
     </g>
     <g id="text_13">
      <!-- 100 -->
      <g transform="translate(1700.340315 945.972971) scale(0.6 -0.6)">
       <use xlink:href="#TimesNewRomanPSMT-31"/>
       <use xlink:href="#TimesNewRomanPSMT-30" x="50"/>
       <use xlink:href="#TimesNewRomanPSMT-30" x="100"/>
      </g>
     </g>
    </g>
   </g>
   <g id="matplotlib.axis_6">
    <g id="ytick_6">
     <g id="line2d_22">
      <g>
       <use xlink:href="#m0fc940db1b" x="1129.596875" y="869.589692" style="fill: #f8d941; stroke: #000000; stroke-width: 5"/>
      </g>
     </g>
     <g id="text_14">
      <!-- -0.5 -->
      <g transform="translate(1011.11875 890.420942) scale(0.6 -0.6)">
       <defs>
        <path id="TimesNewRomanPSMT-2d" d="M 259 1672 
L 1875 1672 
L 1875 1200 
L 259 1200 
L 259 1672 
z
" transform="scale(0.015625)"/>
        <path id="TimesNewRomanPSMT-2e" d="M 800 606 
Q 947 606 1047 504 
Q 1147 403 1147 259 
Q 1147 116 1045 14 
Q 944 -88 800 -88 
Q 656 -88 554 14 
Q 453 116 453 259 
Q 453 406 554 506 
Q 656 606 800 606 
z
" transform="scale(0.015625)"/>
       </defs>
       <use xlink:href="#TimesNewRomanPSMT-2d"/>
       <use xlink:href="#TimesNewRomanPSMT-30" x="33.300781"/>
       <use xlink:href="#TimesNewRomanPSMT-2e" x="83.300781"/>
       <use xlink:href="#TimesNewRomanPSMT-35" x="108.300781"/>
      </g>
     </g>
    </g>
    <g id="ytick_7">
     <g id="line2d_23">
      <g>
       <use xlink:href="#m0fc940db1b" x="1129.596875" y="729.329951" style="fill: #f8d941; stroke: #000000; stroke-width: 5"/>
      </g>
     </g>
     <g id="text_15">
      <!-- 0.0 -->
      <g transform="translate(1031.096875 750.161201) scale(0.6 -0.6)">
       <use xlink:href="#TimesNewRomanPSMT-30"/>
       <use xlink:href="#TimesNewRomanPSMT-2e" x="50"/>
       <use xlink:href="#TimesNewRomanPSMT-30" x="75"/>
      </g>
     </g>
    </g>
    <g id="ytick_8">
     <g id="line2d_24">
      <g>
       <use xlink:href="#m0fc940db1b" x="1129.596875" y="589.070211" style="fill: #f8d941; stroke: #000000; stroke-width: 5"/>
      </g>
     </g>
     <g id="text_16">
      <!-- 0.5 -->
      <g transform="translate(1031.096875 609.901461) scale(0.6 -0.6)">
       <use xlink:href="#TimesNewRomanPSMT-30"/>
       <use xlink:href="#TimesNewRomanPSMT-2e" x="50"/>
       <use xlink:href="#TimesNewRomanPSMT-35" x="75"/>
      </g>
     </g>
    </g>
    <g id="ytick_9">
     <g id="line2d_25">
      <g>
       <use xlink:href="#m0fc940db1b" x="1129.596875" y="448.810471" style="fill: #f8d941; stroke: #000000; stroke-width: 5"/>
      </g>
     </g>
     <g id="text_17">
      <!-- 1.0 -->
      <g transform="translate(1031.096875 469.641721) scale(0.6 -0.6)">
       <use xlink:href="#TimesNewRomanPSMT-31"/>
       <use xlink:href="#TimesNewRomanPSMT-2e" x="50"/>
       <use xlink:href="#TimesNewRomanPSMT-30" x="75"/>
      </g>
     </g>
    </g>
    <g id="ytick_10">
     <g id="line2d_26">
      <g>
       <use xlink:href="#m0fc940db1b" x="1129.596875" y="308.550731" style="fill: #f8d941; stroke: #000000; stroke-width: 5"/>
      </g>
     </g>
     <g id="text_18">
      <!-- 1.5 -->
      <g transform="translate(1031.096875 329.381981) scale(0.6 -0.6)">
       <use xlink:href="#TimesNewRomanPSMT-31"/>
       <use xlink:href="#TimesNewRomanPSMT-2e" x="50"/>
       <use xlink:href="#TimesNewRomanPSMT-35" x="75"/>
      </g>
     </g>
    </g>
    <g id="ytick_11">
     <g id="line2d_27">
      <g>
       <use xlink:href="#m0fc940db1b" x="1129.596875" y="168.29099" style="fill: #f8d941; stroke: #000000; stroke-width: 5"/>
      </g>
     </g>
     <g id="text_19">
      <!-- 2.0 -->
      <g transform="translate(1031.096875 189.12224) scale(0.6 -0.6)">
       <use xlink:href="#TimesNewRomanPSMT-32"/>
       <use xlink:href="#TimesNewRomanPSMT-2e" x="50"/>
       <use xlink:href="#TimesNewRomanPSMT-30" x="75"/>
      </g>
     </g>
    </g>
    <g id="ytick_12">
     <g id="line2d_28">
      <g>
       <use xlink:href="#m0fc940db1b" x="1129.596875" y="28.03125" style="fill: #f8d941; stroke: #000000; stroke-width: 5"/>
      </g>
     </g>
     <g id="text_20">
      <!-- 2.5 -->
      <g transform="translate(1031.096875 48.8625) scale(0.6 -0.6)">
       <use xlink:href="#TimesNewRomanPSMT-32"/>
       <use xlink:href="#TimesNewRomanPSMT-2e" x="50"/>
       <use xlink:href="#TimesNewRomanPSMT-35" x="75"/>
      </g>
     </g>
    </g>
   </g>
   <g id="patch_19">
    <path d="M 1129.596875 880.810471 
L 1129.596875 16.810471 
" style="fill: none; stroke: #000000; stroke-width: 5; stroke-linejoin: miter; stroke-linecap: square"/>
   </g>
   <g id="patch_20">
    <path d="M 1763.196875 880.810471 
L 1763.196875 16.810471 
" style="fill: none; stroke: #000000; stroke-width: 5; stroke-linejoin: miter; stroke-linecap: square"/>
   </g>
   <g id="patch_21">
    <path d="M 1129.596875 880.810471 
L 1763.196875 880.810471 
" style="fill: none; stroke: #000000; stroke-width: 5; stroke-linejoin: miter; stroke-linecap: square"/>
   </g>
   <g id="patch_22">
    <path d="M 1129.596875 16.810471 
L 1763.196875 16.810471 
" style="fill: none; stroke: #000000; stroke-width: 5; stroke-linejoin: miter; stroke-linecap: square"/>
   </g>
  </g>
 </g>
 <defs>
  <clipPath id="p73c9cc40cb">
   <rect x="179.196875" y="16.810471" width="792" height="864"/>
  </clipPath>
  <clipPath id="p7d98a444fd">
   <rect x="179.196875" y="16.810471" width="237.6" height="432"/>
  </clipPath>
  <clipPath id="p68d0259edf">
   <rect x="1129.596875" y="16.810471" width="633.6" height="864"/>
  </clipPath>
 </defs>
</svg>
