<?xml version="1.0" encoding="utf-8" standalone="no"?>
<!DOCTYPE svg PUBLIC "-//W3C//DTD SVG 1.1//EN"
  "http://www.w3.org/Graphics/SVG/1.1/DTD/svg11.dtd">
<svg xmlns:xlink="http://www.w3.org/1999/xlink" width="1773.045457pt" height="824.92625pt" viewBox="0 0 1773.045457 824.92625" xmlns="http://www.w3.org/2000/svg" version="1.1">
 <metadata>
  <rdf:RDF xmlns:dc="http://purl.org/dc/elements/1.1/" xmlns:cc="http://creativecommons.org/ns#" xmlns:rdf="http://www.w3.org/1999/02/22-rdf-syntax-ns#">
   <cc:Work>
    <dc:type rdf:resource="http://purl.org/dc/dcmitype/StillImage"/>
    <dc:date>2025-02-13T16:44:36.816416</dc:date>
    <dc:format>image/svg+xml</dc:format>
    <dc:creator>
     <cc:Agent>
      <dc:title>Matplotlib v3.9.2, https://matplotlib.org/</dc:title>
     </cc:Agent>
    </dc:creator>
   </cc:Work>
  </rdf:RDF>
 </metadata>
 <defs>
  <style type="text/css">*{stroke-linejoin: round; stroke-linecap: butt}</style>
 </defs>
 <g id="figure_1">
  <g id="patch_1">
   <path d="M 0 824.92625 
L 1773.045457 824.92625 
L 1773.045457 0 
L 0 0 
z
" style="fill: #ffffff"/>
  </g>
  <g id="axes_1">
   <g id="patch_2">
    <path d="M 179.309375 681.12 
L 1763.309375 681.12 
L 1763.309375 162.72 
L 179.309375 162.72 
z
" style="fill: #ffffff"/>
   </g>
   <g id="matplotlib.axis_1">
    <g id="xtick_1">
     <g id="line2d_1">
      <defs>
       <path id="m1c11973303" d="M 0 0 
L 0 20 
" style="stroke: #000000; stroke-width: 5"/>
      </defs>
      <g>
       <use xlink:href="#m1c11973303" x="251.309375" y="681.12" style="fill: #f8d941; stroke: #000000; stroke-width: 5"/>
      </g>
     </g>
     <g id="text_1">
      <!-- 0 -->
      <g transform="translate(236.309375 746.2825) scale(0.6 -0.6)">
       <defs>
        <path id="TimesNewRomanPSMT-30" d="M 231 2094 
Q 231 2819 450 3342 
Q 669 3866 1031 4122 
Q 1313 4325 1613 4325 
Q 2100 4325 2488 3828 
Q 2972 3213 2972 2159 
Q 2972 1422 2759 906 
Q 2547 391 2217 158 
Q 1888 -75 1581 -75 
Q 975 -75 572 641 
Q 231 1244 231 2094 
z
M 844 2016 
Q 844 1141 1059 588 
Q 1238 122 1591 122 
Q 1759 122 1940 273 
Q 2122 425 2216 781 
Q 2359 1319 2359 2297 
Q 2359 3022 2209 3506 
Q 2097 3866 1919 4016 
Q 1791 4119 1609 4119 
Q 1397 4119 1231 3928 
Q 1006 3669 925 3112 
Q 844 2556 844 2016 
z
" transform="scale(0.015625)"/>
       </defs>
       <use xlink:href="#TimesNewRomanPSMT-30"/>
      </g>
     </g>
    </g>
    <g id="xtick_2">
     <g id="line2d_2">
      <g>
       <use xlink:href="#m1c11973303" x="622.443396" y="681.12" style="fill: #f8d941; stroke: #000000; stroke-width: 5"/>
      </g>
     </g>
     <g id="text_2">
      <!-- 5 -->
      <g transform="translate(607.443396 746.2825) scale(0.6 -0.6)">
       <defs>
        <path id="TimesNewRomanPSMT-35" d="M 2778 4238 
L 2534 3706 
L 1259 3706 
L 981 3138 
Q 1809 3016 2294 2522 
Q 2709 2097 2709 1522 
Q 2709 1188 2573 903 
Q 2438 619 2231 419 
Q 2025 219 1772 97 
Q 1413 -75 1034 -75 
Q 653 -75 479 54 
Q 306 184 306 341 
Q 306 428 378 495 
Q 450 563 559 563 
Q 641 563 702 538 
Q 763 513 909 409 
Q 1144 247 1384 247 
Q 1750 247 2026 523 
Q 2303 800 2303 1197 
Q 2303 1581 2056 1914 
Q 1809 2247 1375 2428 
Q 1034 2569 447 2591 
L 1259 4238 
L 2778 4238 
z
" transform="scale(0.015625)"/>
       </defs>
       <use xlink:href="#TimesNewRomanPSMT-35"/>
      </g>
     </g>
    </g>
    <g id="xtick_3">
     <g id="line2d_3">
      <g>
       <use xlink:href="#m1c11973303" x="993.577416" y="681.12" style="fill: #f8d941; stroke: #000000; stroke-width: 5"/>
      </g>
     </g>
     <g id="text_3">
      <!-- 10 -->
      <g transform="translate(963.577416 746.2825) scale(0.6 -0.6)">
       <defs>
        <path id="TimesNewRomanPSMT-31" d="M 750 3822 
L 1781 4325 
L 1884 4325 
L 1884 747 
Q 1884 391 1914 303 
Q 1944 216 2037 169 
Q 2131 122 2419 116 
L 2419 0 
L 825 0 
L 825 116 
Q 1125 122 1212 167 
Q 1300 213 1334 289 
Q 1369 366 1369 747 
L 1369 3034 
Q 1369 3497 1338 3628 
Q 1316 3728 1258 3775 
Q 1200 3822 1119 3822 
Q 1003 3822 797 3725 
L 750 3822 
z
" transform="scale(0.015625)"/>
       </defs>
       <use xlink:href="#TimesNewRomanPSMT-31"/>
       <use xlink:href="#TimesNewRomanPSMT-30" x="50"/>
      </g>
     </g>
    </g>
    <g id="xtick_4">
     <g id="line2d_4">
      <g>
       <use xlink:href="#m1c11973303" x="1364.711437" y="681.12" style="fill: #f8d941; stroke: #000000; stroke-width: 5"/>
      </g>
     </g>
     <g id="text_4">
      <!-- 15 -->
      <g transform="translate(1334.711437 746.2825) scale(0.6 -0.6)">
       <use xlink:href="#TimesNewRomanPSMT-31"/>
       <use xlink:href="#TimesNewRomanPSMT-35" x="50"/>
      </g>
     </g>
    </g>
    <g id="xtick_5">
     <g id="line2d_5">
      <g>
       <use xlink:href="#m1c11973303" x="1735.845457" y="681.12" style="fill: #f8d941; stroke: #000000; stroke-width: 5"/>
      </g>
     </g>
     <g id="text_5">
      <!-- 20 -->
      <g transform="translate(1705.845457 746.2825) scale(0.6 -0.6)">
       <defs>
        <path id="TimesNewRomanPSMT-32" d="M 2934 816 
L 2638 0 
L 138 0 
L 138 116 
Q 1241 1122 1691 1759 
Q 2141 2397 2141 2925 
Q 2141 3328 1894 3587 
Q 1647 3847 1303 3847 
Q 991 3847 742 3664 
Q 494 3481 375 3128 
L 259 3128 
Q 338 3706 661 4015 
Q 984 4325 1469 4325 
Q 1984 4325 2329 3994 
Q 2675 3663 2675 3213 
Q 2675 2891 2525 2569 
Q 2294 2063 1775 1497 
Q 997 647 803 472 
L 1909 472 
Q 2247 472 2383 497 
Q 2519 522 2628 598 
Q 2738 675 2819 816 
L 2934 816 
z
" transform="scale(0.015625)"/>
       </defs>
       <use xlink:href="#TimesNewRomanPSMT-32"/>
       <use xlink:href="#TimesNewRomanPSMT-30" x="50"/>
      </g>
     </g>
    </g>
    <g id="text_6">
     <!-- #layers -->
     <g transform="translate(884.675 804.779375) scale(0.6 -0.6)">
      <defs>
       <path id="TimesNewRomanPSMT-23" d="M 359 -88 
L 650 1334 
L 116 1334 
L 116 1591 
L 700 1591 
L 916 2663 
L 116 2663 
L 116 2913 
L 975 2913 
L 1259 4334 
L 1519 4334 
L 1234 2913 
L 2288 2913 
L 2591 4334 
L 2850 4334 
L 2553 2913 
L 3084 2913 
L 3084 2663 
L 2506 2663 
L 2288 1591 
L 3084 1591 
L 3084 1334 
L 2234 1334 
L 1944 -88 
L 1691 -88 
L 1975 1334 
L 916 1334 
L 619 -88 
L 359 -88 
z
M 963 1591 
L 2022 1591 
L 2247 2663 
L 1181 2663 
L 963 1591 
z
" transform="scale(0.015625)"/>
       <path id="TimesNewRomanPSMT-6c" d="M 1184 4444 
L 1184 647 
Q 1184 378 1223 290 
Q 1263 203 1344 158 
Q 1425 113 1647 113 
L 1647 0 
L 244 0 
L 244 113 
Q 441 113 512 153 
Q 584 194 625 287 
Q 666 381 666 647 
L 666 3247 
Q 666 3731 644 3842 
Q 622 3953 573 3993 
Q 525 4034 450 4034 
Q 369 4034 244 3984 
L 191 4094 
L 1044 4444 
L 1184 4444 
z
" transform="scale(0.015625)"/>
       <path id="TimesNewRomanPSMT-61" d="M 1822 413 
Q 1381 72 1269 19 
Q 1100 -59 909 -59 
Q 613 -59 420 144 
Q 228 347 228 678 
Q 228 888 322 1041 
Q 450 1253 767 1440 
Q 1084 1628 1822 1897 
L 1822 2009 
Q 1822 2438 1686 2597 
Q 1550 2756 1291 2756 
Q 1094 2756 978 2650 
Q 859 2544 859 2406 
L 866 2225 
Q 866 2081 792 2003 
Q 719 1925 600 1925 
Q 484 1925 411 2006 
Q 338 2088 338 2228 
Q 338 2497 613 2722 
Q 888 2947 1384 2947 
Q 1766 2947 2009 2819 
Q 2194 2722 2281 2516 
Q 2338 2381 2338 1966 
L 2338 994 
Q 2338 584 2353 492 
Q 2369 400 2405 369 
Q 2441 338 2488 338 
Q 2538 338 2575 359 
Q 2641 400 2828 588 
L 2828 413 
Q 2478 -56 2159 -56 
Q 2006 -56 1915 50 
Q 1825 156 1822 413 
z
M 1822 616 
L 1822 1706 
Q 1350 1519 1213 1441 
Q 966 1303 859 1153 
Q 753 1003 753 825 
Q 753 600 887 451 
Q 1022 303 1197 303 
Q 1434 303 1822 616 
z
" transform="scale(0.015625)"/>
       <path id="TimesNewRomanPSMT-79" d="M 38 2863 
L 1372 2863 
L 1372 2747 
L 1306 2747 
Q 1166 2747 1095 2686 
Q 1025 2625 1025 2534 
Q 1025 2413 1128 2197 
L 1825 753 
L 2466 2334 
Q 2519 2463 2519 2588 
Q 2519 2644 2497 2672 
Q 2472 2706 2419 2726 
Q 2366 2747 2231 2747 
L 2231 2863 
L 3163 2863 
L 3163 2747 
Q 3047 2734 2984 2696 
Q 2922 2659 2847 2556 
Q 2819 2513 2741 2316 
L 1575 -541 
Q 1406 -956 1132 -1168 
Q 859 -1381 606 -1381 
Q 422 -1381 303 -1275 
Q 184 -1169 184 -1031 
Q 184 -900 270 -820 
Q 356 -741 506 -741 
Q 609 -741 788 -809 
Q 913 -856 944 -856 
Q 1038 -856 1148 -759 
Q 1259 -663 1372 -384 
L 1575 113 
L 547 2272 
Q 500 2369 397 2513 
Q 319 2622 269 2659 
Q 197 2709 38 2747 
L 38 2863 
z
" transform="scale(0.015625)"/>
       <path id="TimesNewRomanPSMT-65" d="M 681 1784 
Q 678 1147 991 784 
Q 1303 422 1725 422 
Q 2006 422 2214 576 
Q 2422 731 2563 1106 
L 2659 1044 
Q 2594 616 2278 264 
Q 1963 -88 1488 -88 
Q 972 -88 605 314 
Q 238 716 238 1394 
Q 238 2128 614 2539 
Q 991 2950 1559 2950 
Q 2041 2950 2350 2633 
Q 2659 2316 2659 1784 
L 681 1784 
z
M 681 1966 
L 2006 1966 
Q 1991 2241 1941 2353 
Q 1863 2528 1708 2628 
Q 1553 2728 1384 2728 
Q 1125 2728 920 2526 
Q 716 2325 681 1966 
z
" transform="scale(0.015625)"/>
       <path id="TimesNewRomanPSMT-72" d="M 1038 2947 
L 1038 2303 
Q 1397 2947 1775 2947 
Q 1947 2947 2059 2842 
Q 2172 2738 2172 2600 
Q 2172 2478 2090 2393 
Q 2009 2309 1897 2309 
Q 1788 2309 1652 2417 
Q 1516 2525 1450 2525 
Q 1394 2525 1328 2463 
Q 1188 2334 1038 2041 
L 1038 669 
Q 1038 431 1097 309 
Q 1138 225 1241 169 
Q 1344 113 1538 113 
L 1538 0 
L 72 0 
L 72 113 
Q 291 113 397 181 
Q 475 231 506 341 
Q 522 394 522 644 
L 522 1753 
Q 522 2253 501 2348 
Q 481 2444 426 2487 
Q 372 2531 291 2531 
Q 194 2531 72 2484 
L 41 2597 
L 906 2947 
L 1038 2947 
z
" transform="scale(0.015625)"/>
       <path id="TimesNewRomanPSMT-73" d="M 2050 2947 
L 2050 1972 
L 1947 1972 
Q 1828 2431 1642 2597 
Q 1456 2763 1169 2763 
Q 950 2763 815 2647 
Q 681 2531 681 2391 
Q 681 2216 781 2091 
Q 878 1963 1175 1819 
L 1631 1597 
Q 2266 1288 2266 781 
Q 2266 391 1970 151 
Q 1675 -88 1309 -88 
Q 1047 -88 709 6 
Q 606 38 541 38 
Q 469 38 428 -44 
L 325 -44 
L 325 978 
L 428 978 
Q 516 541 762 319 
Q 1009 97 1316 97 
Q 1531 97 1667 223 
Q 1803 350 1803 528 
Q 1803 744 1651 891 
Q 1500 1038 1047 1263 
Q 594 1488 453 1669 
Q 313 1847 313 2119 
Q 313 2472 555 2709 
Q 797 2947 1181 2947 
Q 1350 2947 1591 2875 
Q 1750 2828 1803 2828 
Q 1853 2828 1881 2850 
Q 1909 2872 1947 2947 
L 2050 2947 
z
" transform="scale(0.015625)"/>
      </defs>
      <use xlink:href="#TimesNewRomanPSMT-23"/>
      <use xlink:href="#TimesNewRomanPSMT-6c" x="50"/>
      <use xlink:href="#TimesNewRomanPSMT-61" x="77.783203"/>
      <use xlink:href="#TimesNewRomanPSMT-79" x="122.167969"/>
      <use xlink:href="#TimesNewRomanPSMT-65" x="172.167969"/>
      <use xlink:href="#TimesNewRomanPSMT-72" x="216.552734"/>
      <use xlink:href="#TimesNewRomanPSMT-73" x="249.853516"/>
     </g>
    </g>
   </g>
   <g id="matplotlib.axis_2">
    <g id="ytick_1">
     <g id="line2d_6">
      <path d="M 179.309375 657.556364 
L 1763.309375 657.556364 
" clip-path="url(#p5366ffa025)" style="fill: none; stroke-dasharray: 5.55,2.4; stroke-dashoffset: 0; stroke: #b0b0b0; stroke-width: 1.5"/>
     </g>
     <g id="line2d_7">
      <defs>
       <path id="mab3097db3c" d="M 0 0 
L -20 0 
" style="stroke: #000000; stroke-width: 5"/>
      </defs>
      <g>
       <use xlink:href="#mab3097db3c" x="179.309375" y="657.556364" style="fill: #f8d941; stroke: #000000; stroke-width: 5"/>
      </g>
     </g>
     <g id="text_7">
      <!-- 0 -->
      <g transform="translate(125.809375 678.387614) scale(0.6 -0.6)">
       <use xlink:href="#TimesNewRomanPSMT-30"/>
      </g>
     </g>
    </g>
    <g id="ytick_2">
     <g id="line2d_8">
      <path d="M 179.309375 420.111337 
L 1763.309375 420.111337 
" clip-path="url(#p5366ffa025)" style="fill: none; stroke-dasharray: 5.55,2.4; stroke-dashoffset: 0; stroke: #b0b0b0; stroke-width: 1.5"/>
     </g>
     <g id="line2d_9">
      <g>
       <use xlink:href="#mab3097db3c" x="179.309375" y="420.111337" style="fill: #f8d941; stroke: #000000; stroke-width: 5"/>
      </g>
     </g>
     <g id="text_8">
      <!-- 50 -->
      <g transform="translate(95.809375 440.942587) scale(0.6 -0.6)">
       <use xlink:href="#TimesNewRomanPSMT-35"/>
       <use xlink:href="#TimesNewRomanPSMT-30" x="50"/>
      </g>
     </g>
    </g>
    <g id="ytick_3">
     <g id="line2d_10">
      <path d="M 179.309375 182.66631 
L 1763.309375 182.66631 
" clip-path="url(#p5366ffa025)" style="fill: none; stroke-dasharray: 5.55,2.4; stroke-dashoffset: 0; stroke: #b0b0b0; stroke-width: 1.5"/>
     </g>
     <g id="line2d_11">
      <g>
       <use xlink:href="#mab3097db3c" x="179.309375" y="182.66631" style="fill: #f8d941; stroke: #000000; stroke-width: 5"/>
      </g>
     </g>
     <g id="text_9">
      <!-- 100 -->
      <g transform="translate(65.809375 203.49756) scale(0.6 -0.6)">
       <use xlink:href="#TimesNewRomanPSMT-31"/>
       <use xlink:href="#TimesNewRomanPSMT-30" x="50"/>
       <use xlink:href="#TimesNewRomanPSMT-30" x="100"/>
      </g>
     </g>
    </g>
    <g id="text_10">
     <!-- best_solution_probs (%) -->
     <g transform="translate(48.8625 716.060625) rotate(-90) scale(0.6 -0.6)">
      <defs>
       <path id="TimesNewRomanPSMT-62" d="M 984 2369 
Q 1400 2947 1881 2947 
Q 2322 2947 2650 2570 
Q 2978 2194 2978 1541 
Q 2978 778 2472 313 
Q 2038 -88 1503 -88 
Q 1253 -88 995 3 
Q 738 94 469 275 
L 469 3241 
Q 469 3728 445 3840 
Q 422 3953 372 3993 
Q 322 4034 247 4034 
Q 159 4034 28 3984 
L -16 4094 
L 844 4444 
L 984 4444 
L 984 2369 
z
M 984 2169 
L 984 456 
Q 1144 300 1314 220 
Q 1484 141 1663 141 
Q 1947 141 2192 453 
Q 2438 766 2438 1363 
Q 2438 1913 2192 2208 
Q 1947 2503 1634 2503 
Q 1469 2503 1303 2419 
Q 1178 2356 984 2169 
z
" transform="scale(0.015625)"/>
       <path id="TimesNewRomanPSMT-74" d="M 1031 3803 
L 1031 2863 
L 1700 2863 
L 1700 2644 
L 1031 2644 
L 1031 788 
Q 1031 509 1111 412 
Q 1191 316 1316 316 
Q 1419 316 1516 380 
Q 1613 444 1666 569 
L 1788 569 
Q 1678 263 1478 108 
Q 1278 -47 1066 -47 
Q 922 -47 784 33 
Q 647 113 581 261 
Q 516 409 516 719 
L 516 2644 
L 63 2644 
L 63 2747 
Q 234 2816 414 2980 
Q 594 3144 734 3369 
Q 806 3488 934 3803 
L 1031 3803 
z
" transform="scale(0.015625)"/>
       <path id="TimesNewRomanPSMT-5f" d="M 3256 -1381 
L -53 -1381 
L -53 -1119 
L 3256 -1119 
L 3256 -1381 
z
" transform="scale(0.015625)"/>
       <path id="TimesNewRomanPSMT-6f" d="M 1600 2947 
Q 2250 2947 2644 2453 
Q 2978 2031 2978 1484 
Q 2978 1100 2793 706 
Q 2609 313 2286 112 
Q 1963 -88 1566 -88 
Q 919 -88 538 428 
Q 216 863 216 1403 
Q 216 1797 411 2186 
Q 606 2575 925 2761 
Q 1244 2947 1600 2947 
z
M 1503 2744 
Q 1338 2744 1170 2645 
Q 1003 2547 900 2300 
Q 797 2053 797 1666 
Q 797 1041 1045 587 
Q 1294 134 1700 134 
Q 2003 134 2200 384 
Q 2397 634 2397 1244 
Q 2397 2006 2069 2444 
Q 1847 2744 1503 2744 
z
" transform="scale(0.015625)"/>
       <path id="TimesNewRomanPSMT-75" d="M 2709 2863 
L 2709 1128 
Q 2709 631 2732 520 
Q 2756 409 2807 365 
Q 2859 322 2928 322 
Q 3025 322 3147 375 
L 3191 266 
L 2334 -88 
L 2194 -88 
L 2194 519 
Q 1825 119 1631 15 
Q 1438 -88 1222 -88 
Q 981 -88 804 51 
Q 628 191 559 409 
Q 491 628 491 1028 
L 491 2306 
Q 491 2509 447 2587 
Q 403 2666 317 2708 
Q 231 2750 6 2747 
L 6 2863 
L 1009 2863 
L 1009 947 
Q 1009 547 1148 422 
Q 1288 297 1484 297 
Q 1619 297 1789 381 
Q 1959 466 2194 703 
L 2194 2325 
Q 2194 2569 2105 2655 
Q 2016 2741 1734 2747 
L 1734 2863 
L 2709 2863 
z
" transform="scale(0.015625)"/>
       <path id="TimesNewRomanPSMT-69" d="M 928 4444 
Q 1059 4444 1151 4351 
Q 1244 4259 1244 4128 
Q 1244 3997 1151 3903 
Q 1059 3809 928 3809 
Q 797 3809 703 3903 
Q 609 3997 609 4128 
Q 609 4259 701 4351 
Q 794 4444 928 4444 
z
M 1188 2947 
L 1188 647 
Q 1188 378 1227 289 
Q 1266 200 1342 156 
Q 1419 113 1622 113 
L 1622 0 
L 231 0 
L 231 113 
Q 441 113 512 153 
Q 584 194 626 287 
Q 669 381 669 647 
L 669 1750 
Q 669 2216 641 2353 
Q 619 2453 572 2492 
Q 525 2531 444 2531 
Q 356 2531 231 2484 
L 188 2597 
L 1050 2947 
L 1188 2947 
z
" transform="scale(0.015625)"/>
       <path id="TimesNewRomanPSMT-6e" d="M 1034 2341 
Q 1538 2947 1994 2947 
Q 2228 2947 2397 2830 
Q 2566 2713 2666 2444 
Q 2734 2256 2734 1869 
L 2734 647 
Q 2734 375 2778 278 
Q 2813 200 2889 156 
Q 2966 113 3172 113 
L 3172 0 
L 1756 0 
L 1756 113 
L 1816 113 
Q 2016 113 2095 173 
Q 2175 234 2206 353 
Q 2219 400 2219 647 
L 2219 1819 
Q 2219 2209 2117 2386 
Q 2016 2563 1775 2563 
Q 1403 2563 1034 2156 
L 1034 647 
Q 1034 356 1069 288 
Q 1113 197 1189 155 
Q 1266 113 1500 113 
L 1500 0 
L 84 0 
L 84 113 
L 147 113 
Q 366 113 442 223 
Q 519 334 519 647 
L 519 1709 
Q 519 2225 495 2337 
Q 472 2450 423 2490 
Q 375 2531 294 2531 
Q 206 2531 84 2484 
L 38 2597 
L 900 2947 
L 1034 2947 
L 1034 2341 
z
" transform="scale(0.015625)"/>
       <path id="TimesNewRomanPSMT-70" d="M -6 2578 
L 875 2934 
L 994 2934 
L 994 2266 
Q 1216 2644 1439 2795 
Q 1663 2947 1909 2947 
Q 2341 2947 2628 2609 
Q 2981 2197 2981 1534 
Q 2981 794 2556 309 
Q 2206 -88 1675 -88 
Q 1444 -88 1275 -22 
Q 1150 25 994 166 
L 994 -706 
Q 994 -1000 1030 -1079 
Q 1066 -1159 1155 -1206 
Q 1244 -1253 1478 -1253 
L 1478 -1369 
L -22 -1369 
L -22 -1253 
L 56 -1253 
Q 228 -1256 350 -1188 
Q 409 -1153 442 -1076 
Q 475 -1000 475 -688 
L 475 2019 
Q 475 2297 450 2372 
Q 425 2447 370 2484 
Q 316 2522 222 2522 
Q 147 2522 31 2478 
L -6 2578 
z
M 994 2081 
L 994 1013 
Q 994 666 1022 556 
Q 1066 375 1236 237 
Q 1406 100 1666 100 
Q 1978 100 2172 344 
Q 2425 663 2425 1241 
Q 2425 1897 2138 2250 
Q 1938 2494 1663 2494 
Q 1513 2494 1366 2419 
Q 1253 2363 994 2081 
z
" transform="scale(0.015625)"/>
       <path id="TimesNewRomanPSMT-20" transform="scale(0.015625)"/>
       <path id="TimesNewRomanPSMT-28" d="M 1988 -1253 
L 1988 -1369 
Q 1516 -1131 1200 -813 
Q 750 -359 506 256 
Q 263 872 263 1534 
Q 263 2503 741 3301 
Q 1219 4100 1988 4444 
L 1988 4313 
Q 1603 4100 1356 3731 
Q 1109 3363 987 2797 
Q 866 2231 866 1616 
Q 866 947 969 400 
Q 1050 -31 1165 -292 
Q 1281 -553 1476 -793 
Q 1672 -1034 1988 -1253 
z
" transform="scale(0.015625)"/>
       <path id="TimesNewRomanPSMT-25" d="M 4350 4334 
L 1263 -175 
L 984 -175 
L 4072 4334 
L 4350 4334 
z
M 1138 4334 
Q 1559 4334 1792 3984 
Q 2025 3634 2025 3181 
Q 2025 2638 1762 2341 
Q 1500 2044 1131 2044 
Q 884 2044 678 2180 
Q 472 2316 348 2584 
Q 225 2853 225 3181 
Q 225 3509 350 3786 
Q 475 4063 692 4198 
Q 909 4334 1138 4334 
z
M 1128 4159 
Q 969 4159 845 3971 
Q 722 3784 722 3184 
Q 722 2750 791 2522 
Q 844 2350 956 2256 
Q 1022 2200 1119 2200 
Q 1269 2200 1375 2363 
Q 1531 2603 1531 3166 
Q 1531 3759 1378 4000 
Q 1278 4159 1128 4159 
z
M 4206 2103 
Q 4428 2103 4648 1962 
Q 4869 1822 4989 1553 
Q 5109 1284 5109 963 
Q 5109 409 4843 117 
Q 4578 -175 4216 -175 
Q 3988 -175 3773 -34 
Q 3559 106 3436 367 
Q 3313 628 3313 963 
Q 3313 1291 3436 1562 
Q 3559 1834 3773 1968 
Q 3988 2103 4206 2103 
z
M 4209 1938 
Q 4059 1938 3950 1769 
Q 3809 1550 3809 941 
Q 3809 381 3953 159 
Q 4059 0 4209 0 
Q 4353 0 4466 172 
Q 4616 400 4616 956 
Q 4616 1544 4466 1778 
Q 4363 1938 4209 1938 
z
" transform="scale(0.015625)"/>
       <path id="TimesNewRomanPSMT-29" d="M 144 4313 
L 144 4444 
Q 619 4209 934 3891 
Q 1381 3434 1625 2820 
Q 1869 2206 1869 1541 
Q 1869 572 1392 -226 
Q 916 -1025 144 -1369 
L 144 -1253 
Q 528 -1038 776 -670 
Q 1025 -303 1145 264 
Q 1266 831 1266 1447 
Q 1266 2113 1163 2663 
Q 1084 3094 967 3353 
Q 850 3613 656 3853 
Q 463 4094 144 4313 
z
" transform="scale(0.015625)"/>
      </defs>
      <use xlink:href="#TimesNewRomanPSMT-62"/>
      <use xlink:href="#TimesNewRomanPSMT-65" x="50"/>
      <use xlink:href="#TimesNewRomanPSMT-73" x="94.384766"/>
      <use xlink:href="#TimesNewRomanPSMT-74" x="133.300781"/>
      <use xlink:href="#TimesNewRomanPSMT-5f" x="161.083984"/>
      <use xlink:href="#TimesNewRomanPSMT-73" x="211.083984"/>
      <use xlink:href="#TimesNewRomanPSMT-6f" x="250"/>
      <use xlink:href="#TimesNewRomanPSMT-6c" x="300"/>
      <use xlink:href="#TimesNewRomanPSMT-75" x="327.783203"/>
      <use xlink:href="#TimesNewRomanPSMT-74" x="377.783203"/>
      <use xlink:href="#TimesNewRomanPSMT-69" x="405.566406"/>
      <use xlink:href="#TimesNewRomanPSMT-6f" x="433.349609"/>
      <use xlink:href="#TimesNewRomanPSMT-6e" x="483.349609"/>
      <use xlink:href="#TimesNewRomanPSMT-5f" x="533.349609"/>
      <use xlink:href="#TimesNewRomanPSMT-70" x="583.349609"/>
      <use xlink:href="#TimesNewRomanPSMT-72" x="633.349609"/>
      <use xlink:href="#TimesNewRomanPSMT-6f" x="666.650391"/>
      <use xlink:href="#TimesNewRomanPSMT-62" x="716.650391"/>
      <use xlink:href="#TimesNewRomanPSMT-73" x="766.650391"/>
      <use xlink:href="#TimesNewRomanPSMT-20" x="805.566406"/>
      <use xlink:href="#TimesNewRomanPSMT-28" x="830.566406"/>
      <use xlink:href="#TimesNewRomanPSMT-25" x="863.867188"/>
      <use xlink:href="#TimesNewRomanPSMT-29" x="947.167969"/>
     </g>
    </g>
   </g>
   <g id="line2d_12">
    <path d="M 179.309375 192.164111 
L 1763.309375 192.164111 
" clip-path="url(#p5366ffa025)" style="fill: none; stroke-dasharray: 11.1,4.8; stroke-dashoffset: 0; stroke: #ffa500; stroke-width: 3"/>
   </g>
   <g id="line2d_13">
    <path d="M 251.309375 657.556364 
L 325.536179 655.302491 
L 399.762983 645.373393 
L 473.989787 635.671538 
L 548.216591 635.949794 
L 622.443396 634.637353 
L 696.6702 623.25205 
L 770.897004 585.418524 
L 845.123808 614.315398 
L 919.350612 611.68588 
L 993.577416 621.410923 
L 1067.80422 595.551676 
L 1142.031024 580.335716 
L 1216.257829 611.059804 
L 1290.484633 595.959785 
L 1364.711437 627.908198 
L 1438.938241 610.136922 
L 1513.165045 601.056505 
L 1587.391849 609.867942 
L 1661.618653 616.777963 
" clip-path="url(#p5366ffa025)" style="fill: none; stroke: #384b70; stroke-width: 4; stroke-linecap: square"/>
    <defs>
     <path id="m9ae7a77413" d="M 0 7.5 
C 1.989023 7.5 3.896849 6.709753 5.303301 5.303301 
C 6.709753 3.896849 7.5 1.989023 7.5 0 
C 7.5 -1.989023 6.709753 -3.896849 5.303301 -5.303301 
C 3.896849 -6.709753 1.989023 -7.5 0 -7.5 
C -1.989023 -7.5 -3.896849 -6.709753 -5.303301 -5.303301 
C -6.709753 -3.896849 -7.5 -1.989023 -7.5 0 
C -7.5 1.989023 -6.709753 3.896849 -5.303301 5.303301 
C -3.896849 6.709753 -1.989023 7.5 0 7.5 
z
" style="stroke: #000000; stroke-width: 3"/>
    </defs>
    <g clip-path="url(#p5366ffa025)">
     <use xlink:href="#m9ae7a77413" x="251.309375" y="657.556364" style="fill: #384b70; stroke: #000000; stroke-width: 3"/>
     <use xlink:href="#m9ae7a77413" x="325.536179" y="655.302491" style="fill: #384b70; stroke: #000000; stroke-width: 3"/>
     <use xlink:href="#m9ae7a77413" x="399.762983" y="645.373393" style="fill: #384b70; stroke: #000000; stroke-width: 3"/>
     <use xlink:href="#m9ae7a77413" x="473.989787" y="635.671538" style="fill: #384b70; stroke: #000000; stroke-width: 3"/>
     <use xlink:href="#m9ae7a77413" x="548.216591" y="635.949794" style="fill: #384b70; stroke: #000000; stroke-width: 3"/>
     <use xlink:href="#m9ae7a77413" x="622.443396" y="634.637353" style="fill: #384b70; stroke: #000000; stroke-width: 3"/>
     <use xlink:href="#m9ae7a77413" x="696.6702" y="623.25205" style="fill: #384b70; stroke: #000000; stroke-width: 3"/>
     <use xlink:href="#m9ae7a77413" x="770.897004" y="585.418524" style="fill: #384b70; stroke: #000000; stroke-width: 3"/>
     <use xlink:href="#m9ae7a77413" x="845.123808" y="614.315398" style="fill: #384b70; stroke: #000000; stroke-width: 3"/>
     <use xlink:href="#m9ae7a77413" x="919.350612" y="611.68588" style="fill: #384b70; stroke: #000000; stroke-width: 3"/>
     <use xlink:href="#m9ae7a77413" x="993.577416" y="621.410923" style="fill: #384b70; stroke: #000000; stroke-width: 3"/>
     <use xlink:href="#m9ae7a77413" x="1067.80422" y="595.551676" style="fill: #384b70; stroke: #000000; stroke-width: 3"/>
     <use xlink:href="#m9ae7a77413" x="1142.031024" y="580.335716" style="fill: #384b70; stroke: #000000; stroke-width: 3"/>
     <use xlink:href="#m9ae7a77413" x="1216.257829" y="611.059804" style="fill: #384b70; stroke: #000000; stroke-width: 3"/>
     <use xlink:href="#m9ae7a77413" x="1290.484633" y="595.959785" style="fill: #384b70; stroke: #000000; stroke-width: 3"/>
     <use xlink:href="#m9ae7a77413" x="1364.711437" y="627.908198" style="fill: #384b70; stroke: #000000; stroke-width: 3"/>
     <use xlink:href="#m9ae7a77413" x="1438.938241" y="610.136922" style="fill: #384b70; stroke: #000000; stroke-width: 3"/>
     <use xlink:href="#m9ae7a77413" x="1513.165045" y="601.056505" style="fill: #384b70; stroke: #000000; stroke-width: 3"/>
     <use xlink:href="#m9ae7a77413" x="1587.391849" y="609.867942" style="fill: #384b70; stroke: #000000; stroke-width: 3"/>
     <use xlink:href="#m9ae7a77413" x="1661.618653" y="616.777963" style="fill: #384b70; stroke: #000000; stroke-width: 3"/>
    </g>
   </g>
   <g id="line2d_14">
    <path d="M 266.154736 644.204718 
L 340.38154 633.023469 
L 414.608344 620.112396 
L 488.835148 640.921299 
L 563.061952 626.591121 
L 637.288756 621.332084 
L 711.515561 624.940136 
L 785.742365 615.507261 
L 859.969169 626.90184 
L 934.195973 629.02586 
L 1008.422777 628.297757 
L 1082.649581 638.899306 
L 1156.876385 632.323192 
L 1231.103189 632.907529 
L 1305.329994 631.043215 
L 1379.556798 635.421108 
L 1453.783602 637.146294 
L 1528.010406 619.60226 
L 1602.23721 635.875592 
L 1676.464014 632.657099 
" clip-path="url(#p5366ffa025)" style="fill: none; stroke: #6a9c89; stroke-width: 4; stroke-linecap: square"/>
    <defs>
     <path id="me43b209a49" d="M 0 7.5 
C 1.989023 7.5 3.896849 6.709753 5.303301 5.303301 
C 6.709753 3.896849 7.5 1.989023 7.5 0 
C 7.5 -1.989023 6.709753 -3.896849 5.303301 -5.303301 
C 3.896849 -6.709753 1.989023 -7.5 0 -7.5 
C -1.989023 -7.5 -3.896849 -6.709753 -5.303301 -5.303301 
C -6.709753 -3.896849 -7.5 -1.989023 -7.5 0 
C -7.5 1.989023 -6.709753 3.896849 -5.303301 5.303301 
C -3.896849 6.709753 -1.989023 7.5 0 7.5 
z
" style="stroke: #000000; stroke-width: 3"/>
    </defs>
    <g clip-path="url(#p5366ffa025)">
     <use xlink:href="#me43b209a49" x="266.154736" y="644.204718" style="fill: #6a9c89; stroke: #000000; stroke-width: 3"/>
     <use xlink:href="#me43b209a49" x="340.38154" y="633.023469" style="fill: #6a9c89; stroke: #000000; stroke-width: 3"/>
     <use xlink:href="#me43b209a49" x="414.608344" y="620.112396" style="fill: #6a9c89; stroke: #000000; stroke-width: 3"/>
     <use xlink:href="#me43b209a49" x="488.835148" y="640.921299" style="fill: #6a9c89; stroke: #000000; stroke-width: 3"/>
     <use xlink:href="#me43b209a49" x="563.061952" y="626.591121" style="fill: #6a9c89; stroke: #000000; stroke-width: 3"/>
     <use xlink:href="#me43b209a49" x="637.288756" y="621.332084" style="fill: #6a9c89; stroke: #000000; stroke-width: 3"/>
     <use xlink:href="#me43b209a49" x="711.515561" y="624.940136" style="fill: #6a9c89; stroke: #000000; stroke-width: 3"/>
     <use xlink:href="#me43b209a49" x="785.742365" y="615.507261" style="fill: #6a9c89; stroke: #000000; stroke-width: 3"/>
     <use xlink:href="#me43b209a49" x="859.969169" y="626.90184" style="fill: #6a9c89; stroke: #000000; stroke-width: 3"/>
     <use xlink:href="#me43b209a49" x="934.195973" y="629.02586" style="fill: #6a9c89; stroke: #000000; stroke-width: 3"/>
     <use xlink:href="#me43b209a49" x="1008.422777" y="628.297757" style="fill: #6a9c89; stroke: #000000; stroke-width: 3"/>
     <use xlink:href="#me43b209a49" x="1082.649581" y="638.899306" style="fill: #6a9c89; stroke: #000000; stroke-width: 3"/>
     <use xlink:href="#me43b209a49" x="1156.876385" y="632.323192" style="fill: #6a9c89; stroke: #000000; stroke-width: 3"/>
     <use xlink:href="#me43b209a49" x="1231.103189" y="632.907529" style="fill: #6a9c89; stroke: #000000; stroke-width: 3"/>
     <use xlink:href="#me43b209a49" x="1305.329994" y="631.043215" style="fill: #6a9c89; stroke: #000000; stroke-width: 3"/>
     <use xlink:href="#me43b209a49" x="1379.556798" y="635.421108" style="fill: #6a9c89; stroke: #000000; stroke-width: 3"/>
     <use xlink:href="#me43b209a49" x="1453.783602" y="637.146294" style="fill: #6a9c89; stroke: #000000; stroke-width: 3"/>
     <use xlink:href="#me43b209a49" x="1528.010406" y="619.60226" style="fill: #6a9c89; stroke: #000000; stroke-width: 3"/>
     <use xlink:href="#me43b209a49" x="1602.23721" y="635.875592" style="fill: #6a9c89; stroke: #000000; stroke-width: 3"/>
     <use xlink:href="#me43b209a49" x="1676.464014" y="632.657099" style="fill: #6a9c89; stroke: #000000; stroke-width: 3"/>
    </g>
   </g>
   <g id="line2d_15">
    <path d="M 281.000097 420.236552 
L 355.226901 287.179222 
L 429.453705 273.252515 
L 503.680509 229.162869 
L 577.907313 224.669037 
L 652.134117 226.389585 
L 726.360921 215.551518 
L 800.587726 207.676877 
L 874.81453 203.247971 
L 949.041334 200.163968 
L 1023.268138 201.490321 
L 1097.494942 196.416788 
L 1171.721746 192.187299 
L 1245.94855 193.355974 
L 1320.175354 191.649337 
L 1394.402159 195.744337 
L 1468.628963 194.515373 
L 1542.855767 194.779716 
L 1617.082571 186.283636 
L 1691.309375 189.534593 
" clip-path="url(#p5366ffa025)" style="fill: none; stroke: #b8001f; stroke-width: 4; stroke-linecap: square"/>
    <defs>
     <path id="meb7e008b79" d="M 0 7.5 
C 1.989023 7.5 3.896849 6.709753 5.303301 5.303301 
C 6.709753 3.896849 7.5 1.989023 7.5 0 
C 7.5 -1.989023 6.709753 -3.896849 5.303301 -5.303301 
C 3.896849 -6.709753 1.989023 -7.5 0 -7.5 
C -1.989023 -7.5 -3.896849 -6.709753 -5.303301 -5.303301 
C -6.709753 -3.896849 -7.5 -1.989023 -7.5 0 
C -7.5 1.989023 -6.709753 3.896849 -5.303301 5.303301 
C -3.896849 6.709753 -1.989023 7.5 0 7.5 
z
" style="stroke: #000000; stroke-width: 3"/>
    </defs>
    <g clip-path="url(#p5366ffa025)">
     <use xlink:href="#meb7e008b79" x="281.000097" y="420.236552" style="fill: #b8001f; stroke: #000000; stroke-width: 3"/>
     <use xlink:href="#meb7e008b79" x="355.226901" y="287.179222" style="fill: #b8001f; stroke: #000000; stroke-width: 3"/>
     <use xlink:href="#meb7e008b79" x="429.453705" y="273.252515" style="fill: #b8001f; stroke: #000000; stroke-width: 3"/>
     <use xlink:href="#meb7e008b79" x="503.680509" y="229.162869" style="fill: #b8001f; stroke: #000000; stroke-width: 3"/>
     <use xlink:href="#meb7e008b79" x="577.907313" y="224.669037" style="fill: #b8001f; stroke: #000000; stroke-width: 3"/>
     <use xlink:href="#meb7e008b79" x="652.134117" y="226.389585" style="fill: #b8001f; stroke: #000000; stroke-width: 3"/>
     <use xlink:href="#meb7e008b79" x="726.360921" y="215.551518" style="fill: #b8001f; stroke: #000000; stroke-width: 3"/>
     <use xlink:href="#meb7e008b79" x="800.587726" y="207.676877" style="fill: #b8001f; stroke: #000000; stroke-width: 3"/>
     <use xlink:href="#meb7e008b79" x="874.81453" y="203.247971" style="fill: #b8001f; stroke: #000000; stroke-width: 3"/>
     <use xlink:href="#meb7e008b79" x="949.041334" y="200.163968" style="fill: #b8001f; stroke: #000000; stroke-width: 3"/>
     <use xlink:href="#meb7e008b79" x="1023.268138" y="201.490321" style="fill: #b8001f; stroke: #000000; stroke-width: 3"/>
     <use xlink:href="#meb7e008b79" x="1097.494942" y="196.416788" style="fill: #b8001f; stroke: #000000; stroke-width: 3"/>
     <use xlink:href="#meb7e008b79" x="1171.721746" y="192.187299" style="fill: #b8001f; stroke: #000000; stroke-width: 3"/>
     <use xlink:href="#meb7e008b79" x="1245.94855" y="193.355974" style="fill: #b8001f; stroke: #000000; stroke-width: 3"/>
     <use xlink:href="#meb7e008b79" x="1320.175354" y="191.649337" style="fill: #b8001f; stroke: #000000; stroke-width: 3"/>
     <use xlink:href="#meb7e008b79" x="1394.402159" y="195.744337" style="fill: #b8001f; stroke: #000000; stroke-width: 3"/>
     <use xlink:href="#meb7e008b79" x="1468.628963" y="194.515373" style="fill: #b8001f; stroke: #000000; stroke-width: 3"/>
     <use xlink:href="#meb7e008b79" x="1542.855767" y="194.779716" style="fill: #b8001f; stroke: #000000; stroke-width: 3"/>
     <use xlink:href="#meb7e008b79" x="1617.082571" y="186.283636" style="fill: #b8001f; stroke: #000000; stroke-width: 3"/>
     <use xlink:href="#meb7e008b79" x="1691.309375" y="189.534593" style="fill: #b8001f; stroke: #000000; stroke-width: 3"/>
    </g>
   </g>
   <g id="patch_3">
    <path d="M 179.309375 681.12 
L 179.309375 162.72 
" style="fill: none; stroke: #000000; stroke-width: 5; stroke-linejoin: miter; stroke-linecap: square"/>
   </g>
   <g id="patch_4">
    <path d="M 1763.309375 681.12 
L 1763.309375 162.72 
" style="fill: none; stroke: #000000; stroke-width: 5; stroke-linejoin: miter; stroke-linecap: square"/>
   </g>
   <g id="patch_5">
    <path d="M 179.309375 681.12 
L 1763.309375 681.12 
" style="fill: none; stroke: #000000; stroke-width: 5; stroke-linejoin: miter; stroke-linecap: square"/>
   </g>
   <g id="patch_6">
    <path d="M 179.309375 162.72 
L 1763.309375 162.72 
" style="fill: none; stroke: #000000; stroke-width: 5; stroke-linejoin: miter; stroke-linecap: square"/>
   </g>
   <g id="legend_1">
    <g id="line2d_16">
     <path d="M 203.309375 52.2 
L 263.309375 52.2 
L 323.309375 52.2 
" style="fill: none; stroke: #384b70; stroke-width: 4; stroke-linecap: square"/>
     <g>
      <use xlink:href="#m9ae7a77413" x="263.309375" y="52.2" style="fill: #384b70; stroke: #000000; stroke-width: 3"/>
     </g>
    </g>
    <g id="text_11">
     <!-- HeaSolver -->
     <g transform="translate(371.309375 73.2) scale(0.6 -0.6)">
      <defs>
       <path id="TimesNewRomanPSMT-48" d="M 1316 2272 
L 3284 2272 
L 3284 3484 
Q 3284 3809 3244 3913 
Q 3213 3991 3113 4047 
Q 2978 4122 2828 4122 
L 2678 4122 
L 2678 4238 
L 4491 4238 
L 4491 4122 
L 4341 4122 
Q 4191 4122 4056 4050 
Q 3956 4000 3920 3898 
Q 3884 3797 3884 3484 
L 3884 750 
Q 3884 428 3925 325 
Q 3956 247 4053 191 
Q 4191 116 4341 116 
L 4491 116 
L 4491 0 
L 2678 0 
L 2678 116 
L 2828 116 
Q 3088 116 3206 269 
Q 3284 369 3284 750 
L 3284 2041 
L 1316 2041 
L 1316 750 
Q 1316 428 1356 325 
Q 1388 247 1488 191 
Q 1622 116 1772 116 
L 1925 116 
L 1925 0 
L 109 0 
L 109 116 
L 259 116 
Q 522 116 641 269 
Q 716 369 716 750 
L 716 3484 
Q 716 3809 675 3913 
Q 644 3991 547 4047 
Q 409 4122 259 4122 
L 109 4122 
L 109 4238 
L 1925 4238 
L 1925 4122 
L 1772 4122 
Q 1622 4122 1488 4050 
Q 1391 4000 1353 3898 
Q 1316 3797 1316 3484 
L 1316 2272 
z
" transform="scale(0.015625)"/>
       <path id="TimesNewRomanPSMT-53" d="M 2934 4334 
L 2934 2869 
L 2819 2869 
Q 2763 3291 2617 3541 
Q 2472 3791 2203 3937 
Q 1934 4084 1647 4084 
Q 1322 4084 1109 3886 
Q 897 3688 897 3434 
Q 897 3241 1031 3081 
Q 1225 2847 1953 2456 
Q 2547 2138 2764 1967 
Q 2981 1797 3098 1565 
Q 3216 1334 3216 1081 
Q 3216 600 2842 251 
Q 2469 -97 1881 -97 
Q 1697 -97 1534 -69 
Q 1438 -53 1133 45 
Q 828 144 747 144 
Q 669 144 623 97 
Q 578 50 556 -97 
L 441 -97 
L 441 1356 
L 556 1356 
Q 638 900 775 673 
Q 913 447 1195 297 
Q 1478 147 1816 147 
Q 2206 147 2432 353 
Q 2659 559 2659 841 
Q 2659 997 2573 1156 
Q 2488 1316 2306 1453 
Q 2184 1547 1640 1851 
Q 1097 2156 867 2337 
Q 638 2519 519 2737 
Q 400 2956 400 3219 
Q 400 3675 750 4004 
Q 1100 4334 1641 4334 
Q 1978 4334 2356 4169 
Q 2531 4091 2603 4091 
Q 2684 4091 2736 4139 
Q 2788 4188 2819 4334 
L 2934 4334 
z
" transform="scale(0.015625)"/>
       <path id="TimesNewRomanPSMT-76" d="M 53 2863 
L 1400 2863 
L 1400 2747 
L 1313 2747 
Q 1191 2747 1127 2687 
Q 1063 2628 1063 2528 
Q 1063 2419 1128 2269 
L 1794 688 
L 2463 2328 
Q 2534 2503 2534 2594 
Q 2534 2638 2509 2666 
Q 2475 2713 2422 2730 
Q 2369 2747 2206 2747 
L 2206 2863 
L 3141 2863 
L 3141 2747 
Q 2978 2734 2916 2681 
Q 2806 2588 2719 2369 
L 1703 -88 
L 1575 -88 
L 553 2328 
Q 484 2497 421 2570 
Q 359 2644 263 2694 
Q 209 2722 53 2747 
L 53 2863 
z
" transform="scale(0.015625)"/>
      </defs>
      <use xlink:href="#TimesNewRomanPSMT-48"/>
      <use xlink:href="#TimesNewRomanPSMT-65" x="72.216797"/>
      <use xlink:href="#TimesNewRomanPSMT-61" x="116.601562"/>
      <use xlink:href="#TimesNewRomanPSMT-53" x="160.986328"/>
      <use xlink:href="#TimesNewRomanPSMT-6f" x="216.601562"/>
      <use xlink:href="#TimesNewRomanPSMT-6c" x="266.601562"/>
      <use xlink:href="#TimesNewRomanPSMT-76" x="294.384766"/>
      <use xlink:href="#TimesNewRomanPSMT-65" x="344.384766"/>
      <use xlink:href="#TimesNewRomanPSMT-72" x="388.769531"/>
     </g>
    </g>
    <g id="line2d_17">
     <path d="M 203.309375 137.034375 
L 263.309375 137.034375 
L 323.309375 137.034375 
" style="fill: none; stroke: #6a9c89; stroke-width: 4; stroke-linecap: square"/>
     <g>
      <use xlink:href="#me43b209a49" x="263.309375" y="137.034375" style="fill: #6a9c89; stroke: #000000; stroke-width: 3"/>
     </g>
    </g>
    <g id="text_12">
     <!-- PenaltySolver -->
     <g transform="translate(371.309375 158.034375) scale(0.6 -0.6)">
      <defs>
       <path id="TimesNewRomanPSMT-50" d="M 1313 1984 
L 1313 750 
Q 1313 350 1400 253 
Q 1519 116 1759 116 
L 1922 116 
L 1922 0 
L 106 0 
L 106 116 
L 266 116 
Q 534 116 650 291 
Q 713 388 713 750 
L 713 3488 
Q 713 3888 628 3984 
Q 506 4122 266 4122 
L 106 4122 
L 106 4238 
L 1659 4238 
Q 2228 4238 2556 4120 
Q 2884 4003 3109 3725 
Q 3334 3447 3334 3066 
Q 3334 2547 2992 2222 
Q 2650 1897 2025 1897 
Q 1872 1897 1694 1919 
Q 1516 1941 1313 1984 
z
M 1313 2163 
Q 1478 2131 1606 2115 
Q 1734 2100 1825 2100 
Q 2150 2100 2386 2351 
Q 2622 2603 2622 3003 
Q 2622 3278 2509 3514 
Q 2397 3750 2190 3867 
Q 1984 3984 1722 3984 
Q 1563 3984 1313 3925 
L 1313 2163 
z
" transform="scale(0.015625)"/>
      </defs>
      <use xlink:href="#TimesNewRomanPSMT-50"/>
      <use xlink:href="#TimesNewRomanPSMT-65" x="55.615234"/>
      <use xlink:href="#TimesNewRomanPSMT-6e" x="100"/>
      <use xlink:href="#TimesNewRomanPSMT-61" x="150"/>
      <use xlink:href="#TimesNewRomanPSMT-6c" x="194.384766"/>
      <use xlink:href="#TimesNewRomanPSMT-74" x="222.167969"/>
      <use xlink:href="#TimesNewRomanPSMT-79" x="249.951172"/>
      <use xlink:href="#TimesNewRomanPSMT-53" x="299.951172"/>
      <use xlink:href="#TimesNewRomanPSMT-6f" x="355.566406"/>
      <use xlink:href="#TimesNewRomanPSMT-6c" x="405.566406"/>
      <use xlink:href="#TimesNewRomanPSMT-76" x="433.349609"/>
      <use xlink:href="#TimesNewRomanPSMT-65" x="483.349609"/>
      <use xlink:href="#TimesNewRomanPSMT-72" x="527.734375"/>
     </g>
    </g>
    <g id="line2d_18">
     <path d="M 1258.00625 52.2 
L 1318.00625 52.2 
L 1378.00625 52.2 
" style="fill: none; stroke: #b8001f; stroke-width: 4; stroke-linecap: square"/>
     <g>
      <use xlink:href="#meb7e008b79" x="1318.00625" y="52.2" style="fill: #b8001f; stroke: #000000; stroke-width: 3"/>
     </g>
    </g>
    <g id="text_13">
     <!-- ChocoSolver -->
     <g transform="translate(1426.00625 73.2) scale(0.6 -0.6)">
      <defs>
       <path id="TimesNewRomanPSMT-43" d="M 3853 4334 
L 3950 2894 
L 3853 2894 
Q 3659 3541 3300 3825 
Q 2941 4109 2438 4109 
Q 2016 4109 1675 3895 
Q 1334 3681 1139 3212 
Q 944 2744 944 2047 
Q 944 1472 1128 1050 
Q 1313 628 1683 403 
Q 2053 178 2528 178 
Q 2941 178 3256 354 
Q 3572 531 3950 1056 
L 4047 994 
Q 3728 428 3303 165 
Q 2878 -97 2294 -97 
Q 1241 -97 663 684 
Q 231 1266 231 2053 
Q 231 2688 515 3219 
Q 800 3750 1298 4042 
Q 1797 4334 2388 4334 
Q 2847 4334 3294 4109 
Q 3425 4041 3481 4041 
Q 3566 4041 3628 4100 
Q 3709 4184 3744 4334 
L 3853 4334 
z
" transform="scale(0.015625)"/>
       <path id="TimesNewRomanPSMT-68" d="M 1041 4444 
L 1041 2350 
Q 1388 2731 1591 2839 
Q 1794 2947 1997 2947 
Q 2241 2947 2416 2812 
Q 2591 2678 2675 2391 
Q 2734 2191 2734 1659 
L 2734 647 
Q 2734 375 2778 275 
Q 2809 200 2884 156 
Q 2959 113 3159 113 
L 3159 0 
L 1753 0 
L 1753 113 
L 1819 113 
Q 2019 113 2097 173 
Q 2175 234 2206 353 
Q 2216 403 2216 647 
L 2216 1659 
Q 2216 2128 2167 2275 
Q 2119 2422 2012 2495 
Q 1906 2569 1756 2569 
Q 1603 2569 1437 2487 
Q 1272 2406 1041 2159 
L 1041 647 
Q 1041 353 1073 281 
Q 1106 209 1195 161 
Q 1284 113 1503 113 
L 1503 0 
L 84 0 
L 84 113 
Q 275 113 384 172 
Q 447 203 484 290 
Q 522 378 522 647 
L 522 3238 
Q 522 3728 498 3840 
Q 475 3953 426 3993 
Q 378 4034 297 4034 
Q 231 4034 84 3984 
L 41 4094 
L 897 4444 
L 1041 4444 
z
" transform="scale(0.015625)"/>
       <path id="TimesNewRomanPSMT-63" d="M 2631 1088 
Q 2516 522 2178 217 
Q 1841 -88 1431 -88 
Q 944 -88 581 321 
Q 219 731 219 1428 
Q 219 2103 620 2525 
Q 1022 2947 1584 2947 
Q 2006 2947 2278 2723 
Q 2550 2500 2550 2259 
Q 2550 2141 2473 2067 
Q 2397 1994 2259 1994 
Q 2075 1994 1981 2113 
Q 1928 2178 1911 2362 
Q 1894 2547 1784 2644 
Q 1675 2738 1481 2738 
Q 1169 2738 978 2506 
Q 725 2200 725 1697 
Q 725 1184 976 792 
Q 1228 400 1656 400 
Q 1963 400 2206 609 
Q 2378 753 2541 1131 
L 2631 1088 
z
" transform="scale(0.015625)"/>
      </defs>
      <use xlink:href="#TimesNewRomanPSMT-43"/>
      <use xlink:href="#TimesNewRomanPSMT-68" x="66.699219"/>
      <use xlink:href="#TimesNewRomanPSMT-6f" x="116.699219"/>
      <use xlink:href="#TimesNewRomanPSMT-63" x="166.699219"/>
      <use xlink:href="#TimesNewRomanPSMT-6f" x="211.083984"/>
      <use xlink:href="#TimesNewRomanPSMT-53" x="261.083984"/>
      <use xlink:href="#TimesNewRomanPSMT-6f" x="316.699219"/>
      <use xlink:href="#TimesNewRomanPSMT-6c" x="366.699219"/>
      <use xlink:href="#TimesNewRomanPSMT-76" x="394.482422"/>
      <use xlink:href="#TimesNewRomanPSMT-65" x="444.482422"/>
      <use xlink:href="#TimesNewRomanPSMT-72" x="488.867188"/>
     </g>
    </g>
   </g>
  </g>
 </g>
 <defs>
  <clipPath id="p5366ffa025">
   <rect x="179.309375" y="162.72" width="1584" height="518.4"/>
  </clipPath>
 </defs>
</svg>
