<?xml version="1.0" encoding="utf-8" standalone="no"?>
<!DOCTYPE svg PUBLIC "-//W3C//DTD SVG 1.1//EN"
  "http://www.w3.org/Graphics/SVG/1.1/DTD/svg11.dtd">
<svg xmlns:xlink="http://www.w3.org/1999/xlink" width="1296pt" height="1152pt" viewBox="0 0 1296 1152" xmlns="http://www.w3.org/2000/svg" version="1.1">
 <metadata>
  <rdf:RDF xmlns:dc="http://purl.org/dc/elements/1.1/" xmlns:cc="http://creativecommons.org/ns#" xmlns:rdf="http://www.w3.org/1999/02/22-rdf-syntax-ns#">
   <cc:Work>
    <dc:type rdf:resource="http://purl.org/dc/dcmitype/StillImage"/>
    <dc:date>2025-02-13T10:46:53.178345</dc:date>
    <dc:format>image/svg+xml</dc:format>
    <dc:creator>
     <cc:Agent>
      <dc:title>Matplotlib v3.9.1, https://matplotlib.org/</dc:title>
     </cc:Agent>
    </dc:creator>
   </cc:Work>
  </rdf:RDF>
 </metadata>
 <defs>
  <style type="text/css">*{stroke-linejoin: round; stroke-linecap: butt}</style>
 </defs>
 <g id="figure_1">
  <g id="patch_1">
   <path d="M 0 1152 
L 1296 1152 
L 1296 0 
L 0 0 
z
" style="fill: #ffffff"/>
  </g>
  <g id="axes_1">
   <g id="patch_2">
    <path d="M 963.955408 806.725795 
Q 828.573764 545.2441 693.19212 283.762405 
" clip-path="url(#p7a3b651257)" style="fill: none; stroke: #000000; stroke-linecap: round"/>
   </g>
   <g id="patch_3">
    <path d="M 961.27059 810.811553 
Q 633.386547 787.306827 305.502504 763.802101 
" clip-path="url(#p7a3b651257)" style="fill: none; stroke: #000000; stroke-linecap: round"/>
   </g>
   <g id="patch_4">
    <path d="M 961.952348 808.625416 
Q 819.28652 724.30492 676.620693 639.984424 
" clip-path="url(#p7a3b651257)" style="fill: none; stroke: #000000; stroke-linecap: round"/>
   </g>
   <g id="patch_5">
    <path d="M 961.952348 808.625416 
Q 819.28652 724.30492 676.620693 639.984424 
" clip-path="url(#p7a3b651257)" style="fill: none; stroke: #000000; stroke-linecap: round"/>
   </g>
   <g id="patch_6">
    <path d="M 963.894035 815.575604 
Q 901.70897 931.601614 839.523904 1047.627623 
" clip-path="url(#p7a3b651257)" style="fill: none; stroke: #000000; stroke-linecap: round"/>
   </g>
   <g id="patch_7">
    <path d="M 967.335061 806.283666 
Q 991.178308 698.354602 1015.021555 590.425537 
" clip-path="url(#p7a3b651257)" style="fill: none; stroke: #000000; stroke-linecap: round"/>
   </g>
   <g id="patch_8">
    <path d="M 970.967085 809.501737 
Q 1074.89569 772.72416 1178.824294 735.946583 
" clip-path="url(#p7a3b651257)" style="fill: none; stroke: #000000; stroke-linecap: round"/>
   </g>
   <g id="patch_9">
    <path d="M 969.210528 815.204602 
Q 1030.58907 899.038541 1091.967612 982.872481 
" clip-path="url(#p7a3b651257)" style="fill: none; stroke: #000000; stroke-linecap: round"/>
   </g>
   <g id="patch_10">
    <path d="M 961.411705 812.41467 
Q 851.48227 840.684807 741.552834 868.954945 
" clip-path="url(#p7a3b651257)" style="fill: none; stroke: #000000; stroke-linecap: round"/>
   </g>
   <g id="patch_11">
    <path d="M 687.758033 283.213506 
Q 495.706432 521.381662 303.654831 759.549818 
" clip-path="url(#p7a3b651257)" style="fill: none; stroke: #000000; stroke-linecap: round"/>
   </g>
   <g id="patch_12">
    <path d="M 690.635322 284.315967 
Q 681.606309 458.382661 672.577296 632.449354 
" clip-path="url(#p7a3b651257)" style="fill: none; stroke: #000000; stroke-linecap: round"/>
   </g>
   <g id="patch_13">
    <path d="M 690.635322 284.315967 
Q 681.606309 458.382661 672.577296 632.449354 
" clip-path="url(#p7a3b651257)" style="fill: none; stroke: #000000; stroke-linecap: round"/>
   </g>
   <g id="patch_14">
    <path d="M 687.652241 283.127125 
Q 617.275584 365.679937 546.898927 448.23275 
" clip-path="url(#p7a3b651257)" style="fill: none; stroke: #000000; stroke-linecap: round"/>
   </g>
   <g id="patch_15">
    <path d="M 690.243212 274.367905 
Q 679.114545 189.646282 667.985878 104.92466 
" clip-path="url(#p7a3b651257)" style="fill: none; stroke: #000000; stroke-linecap: round"/>
   </g>
   <g id="patch_16">
    <path d="M 695.826389 278.518694 
Q 814.357311 259.160406 932.888233 239.802118 
" clip-path="url(#p7a3b651257)" style="fill: none; stroke: #000000; stroke-linecap: round"/>
   </g>
   <g id="patch_17">
    <path d="M 694.814068 282.429566 
Q 788.720774 356.824427 882.627479 431.219289 
" clip-path="url(#p7a3b651257)" style="fill: none; stroke: #000000; stroke-linecap: round"/>
   </g>
   <g id="patch_18">
    <path d="M 685.903219 279.049582 
Q 554.263716 271.806382 422.624212 264.563182 
" clip-path="url(#p7a3b651257)" style="fill: none; stroke: #000000; stroke-linecap: round"/>
   </g>
   <g id="patch_19">
    <path d="M 305.248618 761.840061 
Q 486.415642 700.443275 667.582665 639.046489 
" clip-path="url(#p7a3b651257)" style="fill: none; stroke: #000000; stroke-linecap: round"/>
   </g>
   <g id="patch_20">
    <path d="M 305.248618 761.840061 
Q 486.415642 700.443275 667.582665 639.046489 
" clip-path="url(#p7a3b651257)" style="fill: none; stroke: #000000; stroke-linecap: round"/>
   </g>
   <g id="patch_21">
    <path d="M 299.399608 768.320262 
Q 276.657025 867.801151 253.914442 967.28204 
" clip-path="url(#p7a3b651257)" style="fill: none; stroke: #000000; stroke-linecap: round"/>
   </g>
   <g id="patch_22">
    <path d="M 299.988003 758.474045 
Q 287.616338 641.625557 275.244673 524.777068 
" clip-path="url(#p7a3b651257)" style="fill: none; stroke: #000000; stroke-linecap: round"/>
   </g>
   <g id="patch_23">
    <path d="M 305.442921 762.587612 
Q 401.390223 745.906096 497.337525 729.22458 
" clip-path="url(#p7a3b651257)" style="fill: none; stroke: #000000; stroke-linecap: round"/>
   </g>
   <g id="patch_24">
    <path d="M 303.672627 767.326407 
Q 394.514669 878.978975 485.356712 990.631544 
" clip-path="url(#p7a3b651257)" style="fill: none; stroke: #000000; stroke-linecap: round"/>
   </g>
   <g id="patch_25">
    <path d="M 295.627614 762.381319 
Q 206.489328 742.987397 117.351043 723.593475 
" clip-path="url(#p7a3b651257)" style="fill: none; stroke: #000000; stroke-linecap: round"/>
   </g>
   <g id="patch_26">
    <path d="M 674.165851 642.088153 
Q 754.740965 844.738339 835.316078 1047.388525 
" clip-path="url(#p7a3b651257)" style="fill: none; stroke: #000000; stroke-linecap: round"/>
   </g>
   <g id="patch_27">
    <path d="M 674.165851 642.088153 
Q 754.740965 844.738339 835.316078 1047.388525 
" clip-path="url(#p7a3b651257)" style="fill: none; stroke: #000000; stroke-linecap: round"/>
   </g>
   <g id="patch_28">
    <path d="M 669.465715 633.331034 
Q 607.985063 544.73927 546.504411 456.147506 
" clip-path="url(#p7a3b651257)" style="fill: none; stroke: #000000; stroke-linecap: round"/>
   </g>
   <g id="patch_29">
    <path d="M 669.465715 633.331034 
Q 607.985063 544.73927 546.504411 456.147506 
" clip-path="url(#p7a3b651257)" style="fill: none; stroke: #000000; stroke-linecap: round"/>
   </g>
   <g id="patch_30">
    <path d="M 668.410327 640.559613 
Q 462.560108 804.798064 256.709889 969.036515 
" clip-path="url(#p7a3b651257)" style="fill: none; stroke: #000000; stroke-linecap: round"/>
   </g>
   <g id="patch_31">
    <path d="M 668.410327 640.559613 
Q 462.560108 804.798064 256.709889 969.036515 
" clip-path="url(#p7a3b651257)" style="fill: none; stroke: #000000; stroke-linecap: round"/>
   </g>
   <g id="patch_32">
    <path d="M 677.262405 636.69524 
Q 844.208402 611.493394 1011.154399 586.291548 
" clip-path="url(#p7a3b651257)" style="fill: none; stroke: #000000; stroke-linecap: round"/>
   </g>
   <g id="patch_33">
    <path d="M 677.262405 636.69524 
Q 844.208402 611.493394 1011.154399 586.291548 
" clip-path="url(#p7a3b651257)" style="fill: none; stroke: #000000; stroke-linecap: round"/>
   </g>
   <g id="patch_34">
    <path d="M 672.271995 632.442947 
Q 669.826509 368.705395 667.381024 104.967842 
" clip-path="url(#p7a3b651257)" style="fill: none; stroke: #000000; stroke-linecap: round"/>
   </g>
   <g id="patch_35">
    <path d="M 672.271995 632.442947 
Q 669.826509 368.705395 667.381024 104.967842 
" clip-path="url(#p7a3b651257)" style="fill: none; stroke: #000000; stroke-linecap: round"/>
   </g>
   <g id="patch_36">
    <path d="M 667.522464 636.022657 
Q 473.516395 578.623231 279.510326 521.223805 
" clip-path="url(#p7a3b651257)" style="fill: none; stroke: #000000; stroke-linecap: round"/>
   </g>
   <g id="patch_37">
    <path d="M 667.522464 636.022657 
Q 473.516395 578.623231 279.510326 521.223805 
" clip-path="url(#p7a3b651257)" style="fill: none; stroke: #000000; stroke-linecap: round"/>
   </g>
   <g id="patch_38">
    <path d="M 677.22881 638.371747 
Q 927.928174 685.860277 1178.627538 733.348807 
" clip-path="url(#p7a3b651257)" style="fill: none; stroke: #000000; stroke-linecap: round"/>
   </g>
   <g id="patch_39">
    <path d="M 677.22881 638.371747 
Q 927.928174 685.860277 1178.627538 733.348807 
" clip-path="url(#p7a3b651257)" style="fill: none; stroke: #000000; stroke-linecap: round"/>
   </g>
   <g id="patch_40">
    <path d="M 675.091469 633.279963 
Q 805.072249 438.218022 935.053029 243.156082 
" clip-path="url(#p7a3b651257)" style="fill: none; stroke: #000000; stroke-linecap: round"/>
   </g>
   <g id="patch_41">
    <path d="M 675.091469 633.279963 
Q 805.072249 438.218022 935.053029 243.156082 
" clip-path="url(#p7a3b651257)" style="fill: none; stroke: #000000; stroke-linecap: round"/>
   </g>
   <g id="patch_42">
    <path d="M 667.909789 639.798817 
Q 587.293114 682.904127 506.676439 726.009437 
" clip-path="url(#p7a3b651257)" style="fill: none; stroke: #000000; stroke-linecap: round"/>
   </g>
   <g id="patch_43">
    <path d="M 667.909789 639.798817 
Q 587.293114 682.904127 506.676439 726.009437 
" clip-path="url(#p7a3b651257)" style="fill: none; stroke: #000000; stroke-linecap: round"/>
   </g>
   <g id="patch_44">
    <path d="M 676.171254 640.627684 
Q 883.617404 812.171745 1091.063555 983.715805 
" clip-path="url(#p7a3b651257)" style="fill: none; stroke: #000000; stroke-linecap: round"/>
   </g>
   <g id="patch_45">
    <path d="M 676.171254 640.627684 
Q 883.617404 812.171745 1091.063555 983.715805 
" clip-path="url(#p7a3b651257)" style="fill: none; stroke: #000000; stroke-linecap: round"/>
   </g>
   <g id="patch_46">
    <path d="M 675.943484 634.004409 
Q 779.430124 535.883528 882.916764 437.762648 
" clip-path="url(#p7a3b651257)" style="fill: none; stroke: #000000; stroke-linecap: round"/>
   </g>
   <g id="patch_47">
    <path d="M 675.943484 634.004409 
Q 779.430124 535.883528 882.916764 437.762648 
" clip-path="url(#p7a3b651257)" style="fill: none; stroke: #000000; stroke-linecap: round"/>
   </g>
   <g id="patch_48">
    <path d="M 670.031152 641.884789 
Q 580.416566 815.974154 490.801979 990.063518 
" clip-path="url(#p7a3b651257)" style="fill: none; stroke: #000000; stroke-linecap: round"/>
   </g>
   <g id="patch_49">
    <path d="M 670.031152 641.884789 
Q 580.416566 815.974154 490.801979 990.063518 
" clip-path="url(#p7a3b651257)" style="fill: none; stroke: #000000; stroke-linecap: round"/>
   </g>
   <g id="patch_50">
    <path d="M 673.651609 642.26114 
Q 704.513542 753.822424 735.375474 865.383707 
" clip-path="url(#p7a3b651257)" style="fill: none; stroke: #000000; stroke-linecap: round"/>
   </g>
   <g id="patch_51">
    <path d="M 673.651609 642.26114 
Q 704.513542 753.822424 735.375474 865.383707 
" clip-path="url(#p7a3b651257)" style="fill: none; stroke: #000000; stroke-linecap: round"/>
   </g>
   <g id="patch_52">
    <path d="M 669.498928 633.310689 
Q 544.976081 450.864762 420.453235 268.418835 
" clip-path="url(#p7a3b651257)" style="fill: none; stroke: #000000; stroke-linecap: round"/>
   </g>
   <g id="patch_53">
    <path d="M 669.498928 633.310689 
Q 544.976081 450.864762 420.453235 268.418835 
" clip-path="url(#p7a3b651257)" style="fill: none; stroke: #000000; stroke-linecap: round"/>
   </g>
   <g id="patch_54">
    <path d="M 667.376382 638.192678 
Q 392.389933 679.985859 117.403485 721.77904 
" clip-path="url(#p7a3b651257)" style="fill: none; stroke: #000000; stroke-linecap: round"/>
   </g>
   <g id="patch_55">
    <path d="M 667.376382 638.192678 
Q 392.389933 679.985859 117.403485 721.77904 
" clip-path="url(#p7a3b651257)" style="fill: none; stroke: #000000; stroke-linecap: round"/>
   </g>
   <g id="patch_56">
    <path d="M 834.964906 1047.540156 
Q 690.407736 752.035393 545.850566 456.530629 
" clip-path="url(#p7a3b651257)" style="fill: none; stroke: #000000; stroke-linecap: round"/>
   </g>
   <g id="patch_57">
    <path d="M 832.209569 1051.355998 
Q 544.982612 1012.094608 257.755655 972.833219 
" clip-path="url(#p7a3b651257)" style="fill: none; stroke: #000000; stroke-linecap: round"/>
   </g>
   <g id="patch_58">
    <path d="M 838.952529 1047.367181 
Q 926.630749 818.790363 1014.308969 590.213545 
" clip-path="url(#p7a3b651257)" style="fill: none; stroke: #000000; stroke-linecap: round"/>
   </g>
   <g id="patch_59">
    <path d="M 840.849241 1048.651198 
Q 1010.351299 893.154729 1179.853357 737.658259 
" clip-path="url(#p7a3b651257)" style="fill: none; stroke: #000000; stroke-linecap: round"/>
   </g>
   <g id="patch_60">
    <path d="M 842.012237 1050.807725 
Q 966.040536 1019.468982 1090.068835 988.13024 
" clip-path="url(#p7a3b651257)" style="fill: none; stroke: #000000; stroke-linecap: round"/>
   </g>
   <g id="patch_61">
    <path d="M 834.745524 1047.657609 
Q 786.93626 961.118468 739.126996 874.579326 
" clip-path="url(#p7a3b651257)" style="fill: none; stroke: #000000; stroke-linecap: round"/>
   </g>
   <g id="patch_62">
    <path d="M 541.214877 456.40059 
Q 398.22769 712.09632 255.240503 967.792051 
" clip-path="url(#p7a3b651257)" style="fill: none; stroke: #000000; stroke-linecap: round"/>
   </g>
   <g id="patch_63">
    <path d="M 545.311522 447.320089 
Q 605.494065 276.003424 665.676609 104.68676 
" clip-path="url(#p7a3b651257)" style="fill: none; stroke: #000000; stroke-linecap: round"/>
   </g>
   <g id="patch_64">
    <path d="M 548.053263 449.661616 
Q 740.740189 345.517277 933.427114 241.372938 
" clip-path="url(#p7a3b651257)" style="fill: none; stroke: #000000; stroke-linecap: round"/>
   </g>
   <g id="patch_65">
    <path d="M 548.647641 451.781531 
Q 715.09949 443.181118 881.551339 434.580705 
" clip-path="url(#p7a3b651257)" style="fill: none; stroke: #000000; stroke-linecap: round"/>
   </g>
   <g id="patch_66">
    <path d="M 540.867311 447.888398 
Q 480.643225 358.163028 420.419138 268.437658 
" clip-path="url(#p7a3b651257)" style="fill: none; stroke: #000000; stroke-linecap: round"/>
   </g>
   <g id="patch_67">
    <path d="M 253.042197 967.162034 
Q 263.759301 745.980683 274.476405 524.799332 
" clip-path="url(#p7a3b651257)" style="fill: none; stroke: #000000; stroke-linecap: round"/>
   </g>
   <g id="patch_68">
    <path d="M 256.376475 968.660998 
Q 377.532437 850.262406 498.6884 731.863813 
" clip-path="url(#p7a3b651257)" style="fill: none; stroke: #000000; stroke-linecap: round"/>
   </g>
   <g id="patch_69">
    <path d="M 257.774446 972.627606 
Q 370.656177 983.333207 483.537908 994.038807 
" clip-path="url(#p7a3b651257)" style="fill: none; stroke: #000000; stroke-linecap: round"/>
   </g>
   <g id="patch_70">
    <path d="M 250.348348 967.794563 
Q 182.631139 847.342222 114.913931 726.889881 
" clip-path="url(#p7a3b651257)" style="fill: none; stroke: #000000; stroke-linecap: round"/>
   </g>
   <g id="patch_71">
    <path d="M 1013.18077 581.480989 
Q 841.715536 342.753663 670.250302 104.026337 
" clip-path="url(#p7a3b651257)" style="fill: none; stroke: #000000; stroke-linecap: round"/>
   </g>
   <g id="patch_72">
    <path d="M 1011.119377 585.103395 
Q 645.409172 552.675531 279.698968 520.247668 
" clip-path="url(#p7a3b651257)" style="fill: none; stroke: #000000; stroke-linecap: round"/>
   </g>
   <g id="patch_73">
    <path d="M 1019.837549 588.865284 
Q 1099.817723 659.911251 1179.797896 730.957219 
" clip-path="url(#p7a3b651257)" style="fill: none; stroke: #000000; stroke-linecap: round"/>
   </g>
   <g id="patch_74">
    <path d="M 1017.063702 590.453604 
Q 1055.509662 786.224552 1093.955623 981.995501 
" clip-path="url(#p7a3b651257)" style="fill: none; stroke: #000000; stroke-linecap: round"/>
   </g>
   <g id="patch_75">
    <path d="M 1012.59754 589.113197 
Q 876.403005 727.87385 740.208471 866.634502 
" clip-path="url(#p7a3b651257)" style="fill: none; stroke: #000000; stroke-linecap: round"/>
   </g>
   <g id="patch_76">
    <path d="M 663.916874 103.6217 
Q 471.026472 309.886518 278.136071 516.151337 
" clip-path="url(#p7a3b651257)" style="fill: none; stroke: #000000; stroke-linecap: round"/>
   </g>
   <g id="patch_77">
    <path d="M 671.779819 102.251703 
Q 802.579942 169.481372 933.380066 236.71104 
" clip-path="url(#p7a3b651257)" style="fill: none; stroke: #000000; stroke-linecap: round"/>
   </g>
   <g id="patch_78">
    <path d="M 670.075784 104.14792 
Q 776.940365 267.14577 883.804945 430.14362 
" clip-path="url(#p7a3b651257)" style="fill: none; stroke: #000000; stroke-linecap: round"/>
   </g>
   <g id="patch_79">
    <path d="M 663.154946 102.717505 
Q 542.483204 182.128614 421.811463 261.539723 
" clip-path="url(#p7a3b651257)" style="fill: none; stroke: #000000; stroke-linecap: round"/>
   </g>
   <g id="patch_80">
    <path d="M 278.402249 523.182557 
Q 388.491206 624.086033 498.580164 724.989508 
" clip-path="url(#p7a3b651257)" style="fill: none; stroke: #000000; stroke-linecap: round"/>
   </g>
   <g id="patch_81">
    <path d="M 276.771933 524.365763 
Q 381.615736 757.158703 486.459538 989.951644 
" clip-path="url(#p7a3b651257)" style="fill: none; stroke: #000000; stroke-linecap: round"/>
   </g>
   <g id="patch_82">
    <path d="M 271.596337 523.70671 
Q 193.592111 621.166072 115.587884 718.625434 
" clip-path="url(#p7a3b651257)" style="fill: none; stroke: #000000; stroke-linecap: round"/>
   </g>
   <g id="patch_83">
    <path d="M 1181.31575 729.801043 
Q 1060.682326 486.639539 940.048901 243.478034 
" clip-path="url(#p7a3b651257)" style="fill: none; stroke: #000000; stroke-linecap: round"/>
   </g>
   <g id="patch_84">
    <path d="M 1178.539614 734.235452 
Q 842.903857 731.323289 507.2681 728.411127 
" clip-path="url(#p7a3b651257)" style="fill: none; stroke: #000000; stroke-linecap: round"/>
   </g>
   <g id="patch_85">
    <path d="M 1181.883454 738.993189 
Q 1139.228925 860.590281 1096.574396 982.187372 
" clip-path="url(#p7a3b651257)" style="fill: none; stroke: #000000; stroke-linecap: round"/>
   </g>
   <g id="patch_86">
    <path d="M 1178.754313 735.733729 
Q 960.124014 802.239413 741.493715 868.745097 
" clip-path="url(#p7a3b651257)" style="fill: none; stroke: #000000; stroke-linecap: round"/>
   </g>
   <g id="patch_87">
    <path d="M 934.498875 242.733157 
Q 720.046069 483.681219 505.593263 724.629281 
" clip-path="url(#p7a3b651257)" style="fill: none; stroke: #000000; stroke-linecap: round"/>
   </g>
   <g id="patch_88">
    <path d="M 936.555292 243.833085 
Q 912.184578 336.661019 887.813864 429.488953 
" clip-path="url(#p7a3b651257)" style="fill: none; stroke: #000000; stroke-linecap: round"/>
   </g>
   <g id="patch_89">
    <path d="M 932.828606 239.238759 
Q 677.729355 251.642237 422.630104 264.045714 
" clip-path="url(#p7a3b651257)" style="fill: none; stroke: #000000; stroke-linecap: round"/>
   </g>
   <g id="patch_90">
    <path d="M 502.007995 733.358716 
Q 495.389397 861.438152 488.770799 989.517588 
" clip-path="url(#p7a3b651257)" style="fill: none; stroke: #000000; stroke-linecap: round"/>
   </g>
   <g id="patch_91">
    <path d="M 497.266678 728.292855 
Q 307.364595 725.448834 117.462512 722.604813 
" clip-path="url(#p7a3b651257)" style="fill: none; stroke: #000000; stroke-linecap: round"/>
   </g>
   <g id="patch_92">
    <path d="M 1093.156615 982.229164 
Q 990.732675 710.614749 888.308735 439.000334 
" clip-path="url(#p7a3b651257)" style="fill: none; stroke: #000000; stroke-linecap: round"/>
   </g>
   <g id="patch_93">
    <path d="M 1089.918409 986.967288 
Q 791.713957 990.707617 493.509506 994.447947 
" clip-path="url(#p7a3b651257)" style="fill: none; stroke: #000000; stroke-linecap: round"/>
   </g>
   <g id="patch_94">
    <path d="M 1090.167096 985.35619 
Q 915.814707 928.552977 741.462317 871.749764 
" clip-path="url(#p7a3b651257)" style="fill: none; stroke: #000000; stroke-linecap: round"/>
   </g>
   <g id="patch_95">
    <path d="M 883.649295 438.397855 
Q 687.528825 714.416631 491.408354 990.435407 
" clip-path="url(#p7a3b651257)" style="fill: none; stroke: #000000; stroke-linecap: round"/>
   </g>
   <g id="patch_96">
    <path d="M 881.847568 432.619398 
Q 652.090822 349.306117 422.334076 265.992837 
" clip-path="url(#p7a3b651257)" style="fill: none; stroke: #000000; stroke-linecap: round"/>
   </g>
   <g id="patch_97">
    <path d="M 484.458836 991.578577 
Q 300.485811 858.518843 116.512785 725.459109 
" clip-path="url(#p7a3b651257)" style="fill: none; stroke: #000000; stroke-linecap: round"/>
   </g>
   <g id="patch_98">
    <path d="M 734.377193 865.774577 
Q 577.171123 567.244632 419.965054 268.714687 
" clip-path="url(#p7a3b651257)" style="fill: none; stroke: #000000; stroke-linecap: round"/>
   </g>
   <g id="patch_99">
    <path d="M 731.845445 869.050554 
Q 424.585405 796.365386 117.325364 723.680218 
" clip-path="url(#p7a3b651257)" style="fill: none; stroke: #000000; stroke-linecap: round"/>
   </g>
   <g id="patch_100">
    <path d="M 414.861311 268.452481 
Q 265.047485 493.410875 115.233658 718.369269 
" clip-path="url(#p7a3b651257)" style="fill: none; stroke: #000000; stroke-linecap: round"/>
   </g>
   <g id="PathCollection_1">
    <defs>
     <path id="m7265f6ad22" d="M 0 5 
C 1.326016 5 2.597899 4.473168 3.535534 3.535534 
C 4.473168 2.597899 5 1.326016 5 0 
C 5 -1.326016 4.473168 -2.597899 3.535534 -3.535534 
C 2.597899 -4.473168 1.326016 -5 0 -5 
C -1.326016 -5 -2.597899 -4.473168 -3.535534 -3.535534 
C -4.473168 -2.597899 -5 -1.326016 -5 0 
C -5 1.326016 -4.473168 2.597899 -3.535534 3.535534 
C -2.597899 4.473168 -1.326016 5 0 5 
z
" style="stroke: #0000ff"/>
    </defs>
    <g clip-path="url(#p7a3b651257)">
     <use xlink:href="#m7265f6ad22" x="966.25583" y="811.168925" style="fill: #0000ff; stroke: #0000ff"/>
     <use xlink:href="#m7265f6ad22" x="690.89425" y="279.324203" style="fill: #0000ff; stroke: #0000ff"/>
     <use xlink:href="#m7265f6ad22" x="300.514266" y="763.444514" style="fill: #0000ff; stroke: #0000ff"/>
     <use xlink:href="#m7265f6ad22" x="672.318344" y="637.441586" style="fill: #0000ff; stroke: #0000ff"/>
     <use xlink:href="#m7265f6ad22" x="837.162777" y="1052.033058" style="fill: #0000ff; stroke: #0000ff"/>
     <use xlink:href="#m7265f6ad22" x="543.653597" y="452.039568" style="fill: #0000ff; stroke: #0000ff"/>
     <use xlink:href="#m7265f6ad22" x="252.800227" y="972.155855" style="fill: #0000ff; stroke: #0000ff"/>
     <use xlink:href="#m7265f6ad22" x="1016.099741" y="585.545009" style="fill: #0000ff; stroke: #0000ff"/>
     <use xlink:href="#m7265f6ad22" x="667.334653" y="99.966942" style="fill: #0000ff; stroke: #0000ff"/>
     <use xlink:href="#m7265f6ad22" x="274.71835" y="519.806032" style="fill: #0000ff; stroke: #0000ff"/>
     <use xlink:href="#m7265f6ad22" x="1183.53719" y="734.278814" style="fill: #0000ff; stroke: #0000ff"/>
     <use xlink:href="#m7265f6ad22" x="937.825252" y="238.995812" style="fill: #0000ff; stroke: #0000ff"/>
     <use xlink:href="#m7265f6ad22" x="502.265908" y="728.367725" style="fill: #0000ff; stroke: #0000ff"/>
     <use xlink:href="#m7265f6ad22" x="1094.919675" y="986.904558" style="fill: #0000ff; stroke: #0000ff"/>
     <use xlink:href="#m7265f6ad22" x="886.54483" y="434.322696" style="fill: #0000ff; stroke: #0000ff"/>
     <use xlink:href="#m7265f6ad22" x="488.512781" y="994.51062" style="fill: #0000ff; stroke: #0000ff"/>
     <use xlink:href="#m7265f6ad22" x="736.708073" y="870.200853" style="fill: #0000ff; stroke: #0000ff"/>
     <use xlink:href="#m7265f6ad22" x="417.634285" y="264.288621" style="fill: #0000ff; stroke: #0000ff"/>
     <use xlink:href="#m7265f6ad22" x="112.46281" y="722.529937" style="fill: #0000ff; stroke: #0000ff"/>
    </g>
   </g>
   <g id="text_1">
    <g clip-path="url(#p7a3b651257)">
     <!-- 0 -->
     <g transform="translate(961.483955 815.307988) scale(0.15 -0.15)">
      <defs>
       <path id="DejaVuSans-30" d="M 2034 4250 
Q 1547 4250 1301 3770 
Q 1056 3291 1056 2328 
Q 1056 1369 1301 889 
Q 1547 409 2034 409 
Q 2525 409 2770 889 
Q 3016 1369 3016 2328 
Q 3016 3291 2770 3770 
Q 2525 4250 2034 4250 
z
M 2034 4750 
Q 2819 4750 3233 4129 
Q 3647 3509 3647 2328 
Q 3647 1150 3233 529 
Q 2819 -91 2034 -91 
Q 1250 -91 836 529 
Q 422 1150 422 2328 
Q 422 3509 836 4129 
Q 1250 4750 2034 4750 
z
" transform="scale(0.015625)"/>
      </defs>
      <use xlink:href="#DejaVuSans-30"/>
     </g>
    </g>
   </g>
   <g id="text_2">
    <g clip-path="url(#p7a3b651257)">
     <!-- 1 -->
     <g transform="translate(686.122375 283.463266) scale(0.15 -0.15)">
      <defs>
       <path id="DejaVuSans-31" d="M 794 531 
L 1825 531 
L 1825 4091 
L 703 3866 
L 703 4441 
L 1819 4666 
L 2450 4666 
L 2450 531 
L 3481 531 
L 3481 0 
L 794 0 
L 794 531 
z
" transform="scale(0.015625)"/>
      </defs>
      <use xlink:href="#DejaVuSans-31"/>
     </g>
    </g>
   </g>
   <g id="text_3">
    <g clip-path="url(#p7a3b651257)">
     <!-- 2 -->
     <g transform="translate(295.742391 767.583576) scale(0.15 -0.15)">
      <defs>
       <path id="DejaVuSans-32" d="M 1228 531 
L 3431 531 
L 3431 0 
L 469 0 
L 469 531 
Q 828 903 1448 1529 
Q 2069 2156 2228 2338 
Q 2531 2678 2651 2914 
Q 2772 3150 2772 3378 
Q 2772 3750 2511 3984 
Q 2250 4219 1831 4219 
Q 1534 4219 1204 4116 
Q 875 4013 500 3803 
L 500 4441 
Q 881 4594 1212 4672 
Q 1544 4750 1819 4750 
Q 2544 4750 2975 4387 
Q 3406 4025 3406 3419 
Q 3406 3131 3298 2873 
Q 3191 2616 2906 2266 
Q 2828 2175 2409 1742 
Q 1991 1309 1228 531 
z
" transform="scale(0.015625)"/>
      </defs>
      <use xlink:href="#DejaVuSans-32"/>
     </g>
    </g>
   </g>
   <g id="text_4">
    <g clip-path="url(#p7a3b651257)">
     <!-- 18 -->
     <g transform="translate(662.774594 641.580648) scale(0.15 -0.15)">
      <defs>
       <path id="DejaVuSans-38" d="M 2034 2216 
Q 1584 2216 1326 1975 
Q 1069 1734 1069 1313 
Q 1069 891 1326 650 
Q 1584 409 2034 409 
Q 2484 409 2743 651 
Q 3003 894 3003 1313 
Q 3003 1734 2745 1975 
Q 2488 2216 2034 2216 
z
M 1403 2484 
Q 997 2584 770 2862 
Q 544 3141 544 3541 
Q 544 4100 942 4425 
Q 1341 4750 2034 4750 
Q 2731 4750 3128 4425 
Q 3525 4100 3525 3541 
Q 3525 3141 3298 2862 
Q 3072 2584 2669 2484 
Q 3125 2378 3379 2068 
Q 3634 1759 3634 1313 
Q 3634 634 3220 271 
Q 2806 -91 2034 -91 
Q 1263 -91 848 271 
Q 434 634 434 1313 
Q 434 1759 690 2068 
Q 947 2378 1403 2484 
z
M 1172 3481 
Q 1172 3119 1398 2916 
Q 1625 2713 2034 2713 
Q 2441 2713 2670 2916 
Q 2900 3119 2900 3481 
Q 2900 3844 2670 4047 
Q 2441 4250 2034 4250 
Q 1625 4250 1398 4047 
Q 1172 3844 1172 3481 
z
" transform="scale(0.015625)"/>
      </defs>
      <use xlink:href="#DejaVuSans-31"/>
      <use xlink:href="#DejaVuSans-38" x="63.623047"/>
     </g>
    </g>
   </g>
   <g id="text_5">
    <g clip-path="url(#p7a3b651257)">
     <!-- 3 -->
     <g transform="translate(832.390902 1056.17212) scale(0.15 -0.15)">
      <defs>
       <path id="DejaVuSans-33" d="M 2597 2516 
Q 3050 2419 3304 2112 
Q 3559 1806 3559 1356 
Q 3559 666 3084 287 
Q 2609 -91 1734 -91 
Q 1441 -91 1130 -33 
Q 819 25 488 141 
L 488 750 
Q 750 597 1062 519 
Q 1375 441 1716 441 
Q 2309 441 2620 675 
Q 2931 909 2931 1356 
Q 2931 1769 2642 2001 
Q 2353 2234 1838 2234 
L 1294 2234 
L 1294 2753 
L 1863 2753 
Q 2328 2753 2575 2939 
Q 2822 3125 2822 3475 
Q 2822 3834 2567 4026 
Q 2313 4219 1838 4219 
Q 1578 4219 1281 4162 
Q 984 4106 628 3988 
L 628 4550 
Q 988 4650 1302 4700 
Q 1616 4750 1894 4750 
Q 2613 4750 3031 4423 
Q 3450 4097 3450 3541 
Q 3450 3153 3228 2886 
Q 3006 2619 2597 2516 
z
" transform="scale(0.015625)"/>
      </defs>
      <use xlink:href="#DejaVuSans-33"/>
     </g>
    </g>
   </g>
   <g id="text_6">
    <g clip-path="url(#p7a3b651257)">
     <!-- 4 -->
     <g transform="translate(538.881722 456.178631) scale(0.15 -0.15)">
      <defs>
       <path id="DejaVuSans-34" d="M 2419 4116 
L 825 1625 
L 2419 1625 
L 2419 4116 
z
M 2253 4666 
L 3047 4666 
L 3047 1625 
L 3713 1625 
L 3713 1100 
L 3047 1100 
L 3047 0 
L 2419 0 
L 2419 1100 
L 313 1100 
L 313 1709 
L 2253 4666 
z
" transform="scale(0.015625)"/>
      </defs>
      <use xlink:href="#DejaVuSans-34"/>
     </g>
    </g>
   </g>
   <g id="text_7">
    <g clip-path="url(#p7a3b651257)">
     <!-- 5 -->
     <g transform="translate(248.028352 976.294918) scale(0.15 -0.15)">
      <defs>
       <path id="DejaVuSans-35" d="M 691 4666 
L 3169 4666 
L 3169 4134 
L 1269 4134 
L 1269 2991 
Q 1406 3038 1543 3061 
Q 1681 3084 1819 3084 
Q 2600 3084 3056 2656 
Q 3513 2228 3513 1497 
Q 3513 744 3044 326 
Q 2575 -91 1722 -91 
Q 1428 -91 1123 -41 
Q 819 9 494 109 
L 494 744 
Q 775 591 1075 516 
Q 1375 441 1709 441 
Q 2250 441 2565 725 
Q 2881 1009 2881 1497 
Q 2881 1984 2565 2268 
Q 2250 2553 1709 2553 
Q 1456 2553 1204 2497 
Q 953 2441 691 2322 
L 691 4666 
z
" transform="scale(0.015625)"/>
      </defs>
      <use xlink:href="#DejaVuSans-35"/>
     </g>
    </g>
   </g>
   <g id="text_8">
    <g clip-path="url(#p7a3b651257)">
     <!-- 6 -->
     <g transform="translate(1011.327866 589.684071) scale(0.15 -0.15)">
      <defs>
       <path id="DejaVuSans-36" d="M 2113 2584 
Q 1688 2584 1439 2293 
Q 1191 2003 1191 1497 
Q 1191 994 1439 701 
Q 1688 409 2113 409 
Q 2538 409 2786 701 
Q 3034 994 3034 1497 
Q 3034 2003 2786 2293 
Q 2538 2584 2113 2584 
z
M 3366 4563 
L 3366 3988 
Q 3128 4100 2886 4159 
Q 2644 4219 2406 4219 
Q 1781 4219 1451 3797 
Q 1122 3375 1075 2522 
Q 1259 2794 1537 2939 
Q 1816 3084 2150 3084 
Q 2853 3084 3261 2657 
Q 3669 2231 3669 1497 
Q 3669 778 3244 343 
Q 2819 -91 2113 -91 
Q 1303 -91 875 529 
Q 447 1150 447 2328 
Q 447 3434 972 4092 
Q 1497 4750 2381 4750 
Q 2619 4750 2861 4703 
Q 3103 4656 3366 4563 
z
" transform="scale(0.015625)"/>
      </defs>
      <use xlink:href="#DejaVuSans-36"/>
     </g>
    </g>
   </g>
   <g id="text_9">
    <g clip-path="url(#p7a3b651257)">
     <!-- 7 -->
     <g transform="translate(662.562778 104.106005) scale(0.15 -0.15)">
      <defs>
       <path id="DejaVuSans-37" d="M 525 4666 
L 3525 4666 
L 3525 4397 
L 1831 0 
L 1172 0 
L 2766 4134 
L 525 4134 
L 525 4666 
z
" transform="scale(0.015625)"/>
      </defs>
      <use xlink:href="#DejaVuSans-37"/>
     </g>
    </g>
   </g>
   <g id="text_10">
    <g clip-path="url(#p7a3b651257)">
     <!-- 8 -->
     <g transform="translate(269.946475 523.945094) scale(0.15 -0.15)">
      <use xlink:href="#DejaVuSans-38"/>
     </g>
    </g>
   </g>
   <g id="text_11">
    <g clip-path="url(#p7a3b651257)">
     <!-- 9 -->
     <g transform="translate(1178.765315 738.417876) scale(0.15 -0.15)">
      <defs>
       <path id="DejaVuSans-39" d="M 703 97 
L 703 672 
Q 941 559 1184 500 
Q 1428 441 1663 441 
Q 2288 441 2617 861 
Q 2947 1281 2994 2138 
Q 2813 1869 2534 1725 
Q 2256 1581 1919 1581 
Q 1219 1581 811 2004 
Q 403 2428 403 3163 
Q 403 3881 828 4315 
Q 1253 4750 1959 4750 
Q 2769 4750 3195 4129 
Q 3622 3509 3622 2328 
Q 3622 1225 3098 567 
Q 2575 -91 1691 -91 
Q 1453 -91 1209 -44 
Q 966 3 703 97 
z
M 1959 2075 
Q 2384 2075 2632 2365 
Q 2881 2656 2881 3163 
Q 2881 3666 2632 3958 
Q 2384 4250 1959 4250 
Q 1534 4250 1286 3958 
Q 1038 3666 1038 3163 
Q 1038 2656 1286 2365 
Q 1534 2075 1959 2075 
z
" transform="scale(0.015625)"/>
      </defs>
      <use xlink:href="#DejaVuSans-39"/>
     </g>
    </g>
   </g>
   <g id="text_12">
    <g clip-path="url(#p7a3b651257)">
     <!-- 10 -->
     <g transform="translate(928.281502 243.134874) scale(0.15 -0.15)">
      <use xlink:href="#DejaVuSans-31"/>
      <use xlink:href="#DejaVuSans-30" x="63.623047"/>
     </g>
    </g>
   </g>
   <g id="text_13">
    <g clip-path="url(#p7a3b651257)">
     <!-- 11 -->
     <g transform="translate(492.722158 732.506787) scale(0.15 -0.15)">
      <use xlink:href="#DejaVuSans-31"/>
      <use xlink:href="#DejaVuSans-31" x="63.623047"/>
     </g>
    </g>
   </g>
   <g id="text_14">
    <g clip-path="url(#p7a3b651257)">
     <!-- 12 -->
     <g transform="translate(1085.375925 991.043621) scale(0.15 -0.15)">
      <use xlink:href="#DejaVuSans-31"/>
      <use xlink:href="#DejaVuSans-32" x="63.623047"/>
     </g>
    </g>
   </g>
   <g id="text_15">
    <g clip-path="url(#p7a3b651257)">
     <!-- 13 -->
     <g transform="translate(877.00108 438.461759) scale(0.15 -0.15)">
      <use xlink:href="#DejaVuSans-31"/>
      <use xlink:href="#DejaVuSans-33" x="63.623047"/>
     </g>
    </g>
   </g>
   <g id="text_16">
    <g clip-path="url(#p7a3b651257)">
     <!-- 14 -->
     <g transform="translate(478.969031 998.649682) scale(0.15 -0.15)">
      <use xlink:href="#DejaVuSans-31"/>
      <use xlink:href="#DejaVuSans-34" x="63.623047"/>
     </g>
    </g>
   </g>
   <g id="text_17">
    <g clip-path="url(#p7a3b651257)">
     <!-- 15 -->
     <g transform="translate(727.164323 874.339916) scale(0.15 -0.15)">
      <use xlink:href="#DejaVuSans-31"/>
      <use xlink:href="#DejaVuSans-35" x="63.623047"/>
     </g>
    </g>
   </g>
   <g id="text_18">
    <g clip-path="url(#p7a3b651257)">
     <!-- 16 -->
     <g transform="translate(408.090535 268.427684) scale(0.15 -0.15)">
      <use xlink:href="#DejaVuSans-31"/>
      <use xlink:href="#DejaVuSans-36" x="63.623047"/>
     </g>
    </g>
   </g>
   <g id="text_19">
    <g clip-path="url(#p7a3b651257)">
     <!-- 17 -->
     <g transform="translate(102.91906 726.668999) scale(0.15 -0.15)">
      <use xlink:href="#DejaVuSans-31"/>
      <use xlink:href="#DejaVuSans-37" x="63.623047"/>
     </g>
    </g>
   </g>
  </g>
 </g>
 <defs>
  <clipPath id="p7a3b651257">
   <rect x="0" y="0" width="1296" height="1152"/>
  </clipPath>
 </defs>
</svg>
