<?xml version="1.0" encoding="utf-8" standalone="no"?>
<!DOCTYPE svg PUBLIC "-//W3C//DTD SVG 1.1//EN"
  "http://www.w3.org/Graphics/SVG/1.1/DTD/svg11.dtd">
<svg xmlns:xlink="http://www.w3.org/1999/xlink" width="576pt" height="432pt" viewBox="0 0 576 432" xmlns="http://www.w3.org/2000/svg" version="1.1">
 <metadata>
  <rdf:RDF xmlns:dc="http://purl.org/dc/elements/1.1/" xmlns:cc="http://creativecommons.org/ns#" xmlns:rdf="http://www.w3.org/1999/02/22-rdf-syntax-ns#">
   <cc:Work>
    <dc:type rdf:resource="http://purl.org/dc/dcmitype/StillImage"/>
    <dc:date>2025-02-12T21:05:34.391921</dc:date>
    <dc:format>image/svg+xml</dc:format>
    <dc:creator>
     <cc:Agent>
      <dc:title>Matplotlib v3.9.1, https://matplotlib.org/</dc:title>
     </cc:Agent>
    </dc:creator>
   </cc:Work>
  </rdf:RDF>
 </metadata>
 <defs>
  <style type="text/css">*{stroke-linejoin: round; stroke-linecap: butt}</style>
 </defs>
 <g id="figure_1">
  <g id="patch_1">
   <path d="M 0 432 
L 576 432 
L 576 0 
L 0 0 
z
" style="fill: #ffffff"/>
  </g>
  <g id="axes_1">
   <g id="patch_2">
    <path d="M 451.182439 218.343678 
Q 371.136457 211.309902 291.090476 204.276126 
" clip-path="url(#pcc88582a5f)" style="fill: none; stroke: #808080; stroke-linecap: round"/>
   </g>
   <g id="patch_3">
    <path d="M 451.182439 218.343678 
Q 371.136457 211.309902 291.090476 204.276126 
" clip-path="url(#pcc88582a5f)" style="fill: none; stroke: #808080; stroke-linecap: round"/>
   </g>
   <g id="patch_4">
    <path d="M 451.11791 219.782392 
Q 406.098239 219.938509 361.078567 220.094627 
" clip-path="url(#pcc88582a5f)" style="fill: none; stroke: #808080; stroke-linecap: round"/>
   </g>
   <g id="patch_5">
    <path d="M 451.142352 220.588562 
Q 374.395505 224.773748 297.648657 228.958934 
" clip-path="url(#pcc88582a5f)" style="fill: none; stroke: #808080; stroke-linecap: round"/>
   </g>
   <g id="patch_6">
    <path d="M 479.520788 210.159627 
Q 496.475671 197.274055 513.430554 184.388484 
" clip-path="url(#pcc88582a5f)" style="fill: none; stroke: #808080; stroke-linecap: round"/>
   </g>
   <g id="patch_7">
    <path d="M 477.673498 231.329723 
Q 492.254425 247.077889 506.835352 262.826056 
" clip-path="url(#pcc88582a5f)" style="fill: none; stroke: #808080; stroke-linecap: round"/>
   </g>
   <g id="patch_8">
    <path d="M 262.44801 193.732655 
Q 239.391288 177.348648 216.334566 160.964641 
" clip-path="url(#pcc88582a5f)" style="fill: none; stroke: #808080; stroke-linecap: round"/>
   </g>
   <g id="patch_9">
    <path d="M 262.44801 193.732655 
Q 239.391288 177.348648 216.334566 160.964641 
" clip-path="url(#pcc88582a5f)" style="fill: none; stroke: #808080; stroke-linecap: round"/>
   </g>
   <g id="patch_10">
    <path d="M 290.689872 206.680675 
Q 310.301516 211.520609 329.913161 216.360543 
" clip-path="url(#pcc88582a5f)" style="fill: none; stroke: #808080; stroke-linecap: round"/>
   </g>
   <g id="patch_11">
    <path d="M 290.689872 206.680675 
Q 310.301516 211.520609 329.913161 216.360543 
" clip-path="url(#pcc88582a5f)" style="fill: none; stroke: #808080; stroke-linecap: round"/>
   </g>
   <g id="patch_12">
    <path d="M 290.689872 206.680675 
Q 310.301516 211.520609 329.913161 216.360543 
" clip-path="url(#pcc88582a5f)" style="fill: none; stroke: #808080; stroke-linecap: round"/>
   </g>
   <g id="patch_13">
    <path d="M 265.547902 190.476473 
Q 241.633872 160.148174 217.719843 129.819874 
" clip-path="url(#pcc88582a5f)" style="fill: none; stroke: #808080; stroke-linecap: round"/>
   </g>
   <g id="patch_14">
    <path d="M 265.547902 190.476473 
Q 241.633872 160.148174 217.719843 129.819874 
" clip-path="url(#pcc88582a5f)" style="fill: none; stroke: #808080; stroke-linecap: round"/>
   </g>
   <g id="patch_15">
    <path d="M 265.547902 190.476473 
Q 241.633872 160.148174 217.719843 129.819874 
" clip-path="url(#pcc88582a5f)" style="fill: none; stroke: #808080; stroke-linecap: round"/>
   </g>
   <g id="patch_16">
    <path d="M 279.058825 218.259197 
Q 280.458592 224.039606 281.858358 229.820016 
" clip-path="url(#pcc88582a5f)" style="fill: none; stroke: #808080; stroke-linecap: round"/>
   </g>
   <g id="patch_17">
    <path d="M 279.058825 218.259197 
Q 280.458592 224.039606 281.858358 229.820016 
" clip-path="url(#pcc88582a5f)" style="fill: none; stroke: #808080; stroke-linecap: round"/>
   </g>
   <g id="patch_18">
    <path d="M 279.058825 218.259197 
Q 280.458592 224.039606 281.858358 229.820016 
" clip-path="url(#pcc88582a5f)" style="fill: none; stroke: #808080; stroke-linecap: round"/>
   </g>
   <g id="patch_19">
    <path d="M 279.058825 218.259197 
Q 280.458592 224.039606 281.858358 229.820016 
" clip-path="url(#pcc88582a5f)" style="fill: none; stroke: #808080; stroke-linecap: round"/>
   </g>
   <g id="patch_20">
    <path d="M 279.058825 218.259197 
Q 280.458592 224.039606 281.858358 229.820016 
" clip-path="url(#pcc88582a5f)" style="fill: none; stroke: #808080; stroke-linecap: round"/>
   </g>
   <g id="patch_21">
    <path d="M 282.214979 188.650247 
Q 310.387499 130.311392 338.560019 71.972538 
" clip-path="url(#pcc88582a5f)" style="fill: none; stroke: #808080; stroke-linecap: round"/>
   </g>
   <g id="patch_22">
    <path d="M 286.775551 191.97126 
Q 328.531582 152.104064 370.287614 112.236868 
" clip-path="url(#pcc88582a5f)" style="fill: none; stroke: #808080; stroke-linecap: round"/>
   </g>
   <g id="patch_23">
    <path d="M 275.717761 187.085636 
Q 277.157474 127.237627 278.597186 67.389617 
" clip-path="url(#pcc88582a5f)" style="fill: none; stroke: #808080; stroke-linecap: round"/>
   </g>
   <g id="patch_24">
    <path d="M 279.735301 218.080635 
Q 293.072027 264.142121 306.408753 310.203607 
" clip-path="url(#pcc88582a5f)" style="fill: none; stroke: #808080; stroke-linecap: round"/>
   </g>
   <g id="patch_25">
    <path d="M 279.735301 218.080635 
Q 293.072027 264.142121 306.408753 310.203607 
" clip-path="url(#pcc88582a5f)" style="fill: none; stroke: #808080; stroke-linecap: round"/>
   </g>
   <g id="patch_26">
    <path d="M 260.132927 207.225962 
Q 223.729601 217.602739 187.326276 227.979516 
" clip-path="url(#pcc88582a5f)" style="fill: none; stroke: #808080; stroke-linecap: round"/>
   </g>
   <g id="patch_27">
    <path d="M 260.132927 207.225962 
Q 223.729601 217.602739 187.326276 227.979516 
" clip-path="url(#pcc88582a5f)" style="fill: none; stroke: #808080; stroke-linecap: round"/>
   </g>
   <g id="patch_28">
    <path d="M 260.132927 207.225962 
Q 223.729601 217.602739 187.326276 227.979516 
" clip-path="url(#pcc88582a5f)" style="fill: none; stroke: #808080; stroke-linecap: round"/>
   </g>
   <g id="patch_29">
    <path d="M 275.806807 218.696939 
Q 277.981126 291.926015 280.155444 365.155091 
" clip-path="url(#pcc88582a5f)" style="fill: none; stroke: #808080; stroke-linecap: round"/>
   </g>
   <g id="patch_30">
    <path d="M 269.8882 217.735349 
Q 244.651239 286.478532 219.414278 355.221715 
" clip-path="url(#pcc88582a5f)" style="fill: none; stroke: #808080; stroke-linecap: round"/>
   </g>
   <g id="patch_31">
    <path d="M 265.204672 215.033084 
Q 219.013222 270.37974 172.821773 325.726396 
" clip-path="url(#pcc88582a5f)" style="fill: none; stroke: #808080; stroke-linecap: round"/>
   </g>
   <g id="patch_32">
    <path d="M 291.047037 201.132886 
Q 400.674489 188.857852 510.30194 176.582817 
" clip-path="url(#pcc88582a5f)" style="fill: none; stroke: #808080; stroke-linecap: round"/>
   </g>
   <g id="patch_33">
    <path d="M 290.503486 207.370641 
Q 396.458286 238.660806 502.413085 269.95097 
" clip-path="url(#pcc88582a5f)" style="fill: none; stroke: #808080; stroke-linecap: round"/>
   </g>
   <g id="patch_34">
    <path d="M 259.629258 204.690237 
Q 169.880832 214.96502 80.132405 225.239803 
" clip-path="url(#pcc88582a5f)" style="fill: none; stroke: #808080; stroke-linecap: round"/>
   </g>
   <g id="patch_35">
    <path d="M 260.633448 197.082463 
Q 179.946156 165.203771 99.258864 133.325079 
" clip-path="url(#pcc88582a5f)" style="fill: none; stroke: #808080; stroke-linecap: round"/>
   </g>
   <g id="patch_36">
    <path d="M 259.66081 200.849071 
Q 162.662325 188.209301 65.66384 175.569531 
" clip-path="url(#pcc88582a5f)" style="fill: none; stroke: #808080; stroke-linecap: round"/>
   </g>
   <g id="patch_37">
    <path d="M 285.142659 215.292134 
Q 351.096094 298.701369 417.049529 382.110604 
" clip-path="url(#pcc88582a5f)" style="fill: none; stroke: #808080; stroke-linecap: round"/>
   </g>
   <g id="patch_38">
    <path d="M 263.195623 192.758553 
Q 176.242642 120.189712 89.289662 47.620871 
" clip-path="url(#pcc88582a5f)" style="fill: none; stroke: #808080; stroke-linecap: round"/>
   </g>
   <g id="patch_39">
    <path d="M 217.689326 158.66994 
Q 274.354831 185.977181 331.020337 213.284423 
" clip-path="url(#pcc88582a5f)" style="fill: none; stroke: #808080; stroke-linecap: round"/>
   </g>
   <g id="patch_40">
    <path d="M 205.489806 136.130211 
Q 205.688593 134.605652 205.88738 133.081094 
" clip-path="url(#pcc88582a5f)" style="fill: none; stroke: #808080; stroke-linecap: round"/>
   </g>
   <g id="patch_41">
    <path d="M 205.489806 136.130211 
Q 205.688593 134.605652 205.88738 133.081094 
" clip-path="url(#pcc88582a5f)" style="fill: none; stroke: #808080; stroke-linecap: round"/>
   </g>
   <g id="patch_42">
    <path d="M 214.656866 162.960021 
Q 242.653728 190.814611 270.65059 218.669202 
" clip-path="url(#pcc88582a5f)" style="fill: none; stroke: #808080; stroke-linecap: round"/>
   </g>
   <g id="patch_43">
    <path d="M 214.656866 162.960021 
Q 242.653728 190.814611 270.65059 218.669202 
" clip-path="url(#pcc88582a5f)" style="fill: none; stroke: #808080; stroke-linecap: round"/>
   </g>
   <g id="patch_44">
    <path d="M 216.625086 143.07465 
Q 274.439371 104.772334 332.253656 66.470018 
" clip-path="url(#pcc88582a5f)" style="fill: none; stroke: #808080; stroke-linecap: round"/>
   </g>
   <g id="patch_45">
    <path d="M 218.660577 147.497153 
Q 292.58499 126.561709 366.509402 105.626265 
" clip-path="url(#pcc88582a5f)" style="fill: none; stroke: #808080; stroke-linecap: round"/>
   </g>
   <g id="patch_46">
    <path d="M 212.963371 139.176842 
Q 241.212976 101.691455 269.462581 64.206068 
" clip-path="url(#pcc88582a5f)" style="fill: none; stroke: #808080; stroke-linecap: round"/>
   </g>
   <g id="patch_47">
    <path d="M 197.71304 166.540003 
Q 187.784254 192.05821 177.855467 217.576417 
" clip-path="url(#pcc88582a5f)" style="fill: none; stroke: #808080; stroke-linecap: round"/>
   </g>
   <g id="patch_48">
    <path d="M 189.543062 159.329625 
Q 133.935899 189.422071 78.328736 219.514516 
" clip-path="url(#pcc88582a5f)" style="fill: none; stroke: #808080; stroke-linecap: round"/>
   </g>
   <g id="patch_49">
    <path d="M 187.956706 148.641415 
Q 144.000881 139.660879 100.045056 130.680342 
" clip-path="url(#pcc88582a5f)" style="fill: none; stroke: #808080; stroke-linecap: round"/>
   </g>
   <g id="patch_50">
    <path d="M 187.789577 154.021882 
Q 126.715078 162.666048 65.64058 171.310213 
" clip-path="url(#pcc88582a5f)" style="fill: none; stroke: #808080; stroke-linecap: round"/>
   </g>
   <g id="patch_51">
    <path d="M 332.606748 210.67872 
Q 276.598286 168.777351 220.589824 126.875983 
" clip-path="url(#pcc88582a5f)" style="fill: none; stroke: #808080; stroke-linecap: round"/>
   </g>
   <g id="patch_52">
    <path d="M 329.634715 222.533456 
Q 313.562975 224.98462 297.491235 227.435784 
" clip-path="url(#pcc88582a5f)" style="fill: none; stroke: #808080; stroke-linecap: round"/>
   </g>
   <g id="patch_53">
    <path d="M 329.634715 222.533456 
Q 313.562975 224.98462 297.491235 227.435784 
" clip-path="url(#pcc88582a5f)" style="fill: none; stroke: #808080; stroke-linecap: round"/>
   </g>
   <g id="patch_54">
    <path d="M 329.634715 222.533456 
Q 313.562975 224.98462 297.491235 227.435784 
" clip-path="url(#pcc88582a5f)" style="fill: none; stroke: #808080; stroke-linecap: round"/>
   </g>
   <g id="patch_55">
    <path d="M 345.282405 204.333564 
Q 345.350068 138.943074 345.41773 73.552585 
" clip-path="url(#pcc88582a5f)" style="fill: none; stroke: #808080; stroke-linecap: round"/>
   </g>
   <g id="patch_56">
    <path d="M 349.904567 205.030714 
Q 363.496105 160.730659 377.087642 116.430604 
" clip-path="url(#pcc88582a5f)" style="fill: none; stroke: #808080; stroke-linecap: round"/>
   </g>
   <g id="patch_57">
    <path d="M 339.479346 205.434135 
Q 312.12122 135.863538 284.763095 66.292942 
" clip-path="url(#pcc88582a5f)" style="fill: none; stroke: #808080; stroke-linecap: round"/>
   </g>
   <g id="patch_58">
    <path d="M 340.345358 235.176768 
Q 328.036031 272.76832 315.726704 310.359872 
" clip-path="url(#pcc88582a5f)" style="fill: none; stroke: #808080; stroke-linecap: round"/>
   </g>
   <g id="patch_59">
    <path d="M 329.496076 221.257374 
Q 258.697165 226.231323 187.898253 231.205272 
" clip-path="url(#pcc88582a5f)" style="fill: none; stroke: #808080; stroke-linecap: round"/>
   </g>
   <g id="patch_60">
    <path d="M 339.368653 234.820225 
Q 312.944769 300.554188 286.520885 366.288151 
" clip-path="url(#pcc88582a5f)" style="fill: none; stroke: #808080; stroke-linecap: round"/>
   </g>
   <g id="patch_61">
    <path d="M 334.849867 232.042338 
Q 279.615527 295.107271 224.381186 358.172204 
" clip-path="url(#pcc88582a5f)" style="fill: none; stroke: #808080; stroke-linecap: round"/>
   </g>
   <g id="patch_62">
    <path d="M 331.980017 228.715756 
Q 253.979455 279.007396 175.978892 329.299037 
" clip-path="url(#pcc88582a5f)" style="fill: none; stroke: #808080; stroke-linecap: round"/>
   </g>
   <g id="patch_63">
    <path d="M 360.603464 216.303345 
Q 435.640813 197.486472 510.678162 178.6696 
" clip-path="url(#pcc88582a5f)" style="fill: none; stroke: #808080; stroke-linecap: round"/>
   </g>
   <g id="patch_64">
    <path d="M 360.344996 224.899478 
Q 431.422482 247.289574 502.499968 269.67967 
" clip-path="url(#pcc88582a5f)" style="fill: none; stroke: #808080; stroke-linecap: round"/>
   </g>
   <g id="patch_65">
    <path d="M 216.619423 130.617076 
Q 244.895667 173.6142 273.171912 216.611323 
" clip-path="url(#pcc88582a5f)" style="fill: none; stroke: #808080; stroke-linecap: round"/>
   </g>
   <g id="patch_66">
    <path d="M 216.619423 130.617076 
Q 244.895667 173.6142 273.171912 216.611323 
" clip-path="url(#pcc88582a5f)" style="fill: none; stroke: #808080; stroke-linecap: round"/>
   </g>
   <g id="patch_67">
    <path d="M 222.437723 111.110878 
Q 276.682171 87.572071 330.926618 64.033264 
" clip-path="url(#pcc88582a5f)" style="fill: none; stroke: #808080; stroke-linecap: round"/>
   </g>
   <g id="patch_68">
    <path d="M 223.675452 115.948322 
Q 294.825975 109.361747 365.976498 102.775172 
" clip-path="url(#pcc88582a5f)" style="fill: none; stroke: #808080; stroke-linecap: round"/>
   </g>
   <g id="patch_69">
    <path d="M 219.528756 106.660556 
Q 243.453027 84.494355 267.377299 62.328155 
" clip-path="url(#pcc88582a5f)" style="fill: none; stroke: #808080; stroke-linecap: round"/>
   </g>
   <g id="patch_70">
    <path d="M 203.22664 132.502184 
Q 190.025805 174.86145 176.82497 217.220715 
" clip-path="url(#pcc88582a5f)" style="fill: none; stroke: #808080; stroke-linecap: round"/>
   </g>
   <g id="patch_71">
    <path d="M 203.22664 132.502184 
Q 190.025805 174.86145 176.82497 217.220715 
" clip-path="url(#pcc88582a5f)" style="fill: none; stroke: #808080; stroke-linecap: round"/>
   </g>
   <g id="patch_72">
    <path d="M 195.368912 127.002955 
Q 136.180474 172.220618 76.992035 217.438281 
" clip-path="url(#pcc88582a5f)" style="fill: none; stroke: #808080; stroke-linecap: round"/>
   </g>
   <g id="patch_73">
    <path d="M 192.174048 118.696962 
Q 146.244817 122.460452 100.315587 126.223943 
" clip-path="url(#pcc88582a5f)" style="fill: none; stroke: #808080; stroke-linecap: round"/>
   </g>
   <g id="patch_74">
    <path d="M 193.034496 122.698773 
Q 128.95883 145.465501 64.883164 168.232228 
" clip-path="url(#pcc88582a5f)" style="fill: none; stroke: #808080; stroke-linecap: round"/>
   </g>
   <g id="patch_75">
    <path d="M 194.43705 109.159844 
Q 142.537792 77.445621 90.638534 45.731398 
" clip-path="url(#pcc88582a5f)" style="fill: none; stroke: #808080; stroke-linecap: round"/>
   </g>
   <g id="patch_76">
    <path d="M 287.33839 214.987071 
Q 313.646606 143.777928 339.954823 72.568786 
" clip-path="url(#pcc88582a5f)" style="fill: none; stroke: #808080; stroke-linecap: round"/>
   </g>
   <g id="patch_77">
    <path d="M 291.559099 217.337594 
Q 331.789295 165.571417 372.01949 113.80524 
" clip-path="url(#pcc88582a5f)" style="fill: none; stroke: #808080; stroke-linecap: round"/>
   </g>
   <g id="patch_78">
    <path d="M 281.602828 214.010279 
Q 280.417911 140.699221 279.232994 67.388163 
" clip-path="url(#pcc88582a5f)" style="fill: none; stroke: #808080; stroke-linecap: round"/>
   </g>
   <g id="patch_79">
    <path d="M 286.442303 244.953876 
Q 296.332044 277.604783 306.221785 310.255691 
" clip-path="url(#pcc88582a5f)" style="fill: none; stroke: #808080; stroke-linecap: round"/>
   </g>
   <g id="patch_80">
    <path d="M 286.442303 244.953876 
Q 296.332044 277.604783 306.221785 310.255691 
" clip-path="url(#pcc88582a5f)" style="fill: none; stroke: #808080; stroke-linecap: round"/>
   </g>
   <g id="patch_81">
    <path d="M 266.048173 230.179285 
Q 226.988935 231.066864 187.929697 231.954443 
" clip-path="url(#pcc88582a5f)" style="fill: none; stroke: #808080; stroke-linecap: round"/>
   </g>
   <g id="patch_82">
    <path d="M 266.048173 230.179285 
Q 226.988935 231.066864 187.929697 231.954443 
" clip-path="url(#pcc88582a5f)" style="fill: none; stroke: #808080; stroke-linecap: round"/>
   </g>
   <g id="patch_83">
    <path d="M 281.729328 245.626398 
Q 281.241513 305.384512 280.753698 365.142626 
" clip-path="url(#pcc88582a5f)" style="fill: none; stroke: #808080; stroke-linecap: round"/>
   </g>
   <g id="patch_84">
    <path d="M 274.969152 244.05082 
Q 247.912138 299.941596 220.855123 355.832372 
" clip-path="url(#pcc88582a5f)" style="fill: none; stroke: #808080; stroke-linecap: round"/>
   </g>
   <g id="patch_85">
    <path d="M 270.144295 240.440842 
Q 222.271529 283.845793 174.398762 327.250744 
" clip-path="url(#pcc88582a5f)" style="fill: none; stroke: #808080; stroke-linecap: round"/>
   </g>
   <g id="patch_86">
    <path d="M 297.285894 226.344954 
Q 403.939719 202.321119 510.593545 178.297283 
" clip-path="url(#pcc88582a5f)" style="fill: none; stroke: #808080; stroke-linecap: round"/>
   </g>
   <g id="patch_87">
    <path d="M 297.392983 232.759914 
Q 399.71649 252.124445 502.039996 271.488976 
" clip-path="url(#pcc88582a5f)" style="fill: none; stroke: #808080; stroke-linecap: round"/>
   </g>
   <g id="patch_88">
    <path d="M 266.049292 229.617732 
Q 173.142998 228.428958 80.236705 227.240184 
" clip-path="url(#pcc88582a5f)" style="fill: none; stroke: #808080; stroke-linecap: round"/>
   </g>
   <g id="patch_89">
    <path d="M 267.819829 222.540868 
Q 183.204634 178.666863 98.589438 134.792857 
" clip-path="url(#pcc88582a5f)" style="fill: none; stroke: #808080; stroke-linecap: round"/>
   </g>
   <g id="patch_90">
    <path d="M 266.49226 226.089488 
Q 165.920531 201.673034 65.348803 177.25658 
" clip-path="url(#pcc88582a5f)" style="fill: none; stroke: #808080; stroke-linecap: round"/>
   </g>
   <g id="patch_91">
    <path d="M 292.307933 241.688944 
Q 354.357953 312.167149 416.407973 382.645353 
" clip-path="url(#pcc88582a5f)" style="fill: none; stroke: #808080; stroke-linecap: round"/>
   </g>
   <g id="patch_92">
    <path d="M 355.549953 69.885561 
Q 363.577726 79.525741 371.605499 89.16592 
" clip-path="url(#pcc88582a5f)" style="fill: none; stroke: #808080; stroke-linecap: round"/>
   </g>
   <g id="patch_93">
    <path d="M 329.692025 56.279324 
Q 312.207832 54.659335 294.723639 53.039347 
" clip-path="url(#pcc88582a5f)" style="fill: none; stroke: #808080; stroke-linecap: round"/>
   </g>
   <g id="patch_94">
    <path d="M 367.492047 94.427817 
Q 330.351213 76.448977 293.21038 58.470138 
" clip-path="url(#pcc88582a5f)" style="fill: none; stroke: #808080; stroke-linecap: round"/>
   </g>
   <g id="patch_95">
    <path d="M 297.674778 316.576359 
Q 241.463512 278.851268 185.252245 241.126176 
" clip-path="url(#pcc88582a5f)" style="fill: none; stroke: #808080; stroke-linecap: round"/>
   </g>
   <g id="patch_96">
    <path d="M 303.258433 339.284017 
Q 295.714976 353.172609 288.17152 367.061201 
" clip-path="url(#pcc88582a5f)" style="fill: none; stroke: #808080; stroke-linecap: round"/>
   </g>
   <g id="patch_97">
    <path d="M 296.445508 332.013612 
Q 262.382769 347.728094 228.320029 363.442576 
" clip-path="url(#pcc88582a5f)" style="fill: none; stroke: #808080; stroke-linecap: round"/>
   </g>
   <g id="patch_98">
    <path d="M 295.052687 326.716018 
Q 236.749469 331.628285 178.44625 336.540552 
" clip-path="url(#pcc88582a5f)" style="fill: none; stroke: #808080; stroke-linecap: round"/>
   </g>
   <g id="patch_99">
    <path d="M 324.387444 333.47866 
Q 368.828066 359.949026 413.268687 386.419392 
" clip-path="url(#pcc88582a5f)" style="fill: none; stroke: #808080; stroke-linecap: round"/>
   </g>
   <g id="patch_100">
    <path d="M 181.444243 245.085364 
Q 226.373996 306.636266 271.303749 368.187167 
" clip-path="url(#pcc88582a5f)" style="fill: none; stroke: #808080; stroke-linecap: round"/>
   </g>
   <g id="patch_101">
    <path d="M 176.717199 247.443292 
Q 193.043222 301.189512 209.369246 354.935731 
" clip-path="url(#pcc88582a5f)" style="fill: none; stroke: #808080; stroke-linecap: round"/>
   </g>
   <g id="patch_102">
    <path d="M 170.713996 248.062453 
Q 167.404983 285.090062 164.095969 322.117671 
" clip-path="url(#pcc88582a5f)" style="fill: none; stroke: #808080; stroke-linecap: round"/>
   </g>
   <g id="patch_103">
    <path d="M 156.329346 231.540044 
Q 118.274408 229.675801 80.21947 227.811557 
" clip-path="url(#pcc88582a5f)" style="fill: none; stroke: #808080; stroke-linecap: round"/>
   </g>
   <g id="patch_104">
    <path d="M 161.985228 220.182942 
Q 128.33957 179.91664 94.693911 139.650338 
" clip-path="url(#pcc88582a5f)" style="fill: none; stroke: #808080; stroke-linecap: round"/>
   </g>
   <g id="patch_105">
    <path d="M 157.87173 225.455016 
Q 111.050899 202.919213 64.230068 180.383411 
" clip-path="url(#pcc88582a5f)" style="fill: none; stroke: #808080; stroke-linecap: round"/>
   </g>
   <g id="patch_106">
    <path d="M 165.192867 218.100665 
Q 124.634467 134.900317 84.076067 51.699968 
" clip-path="url(#pcc88582a5f)" style="fill: none; stroke: #808080; stroke-linecap: round"/>
   </g>
   <g id="patch_107">
    <path d="M 265.0216 378.406892 
Q 247.294816 375.510644 229.568032 372.614397 
" clip-path="url(#pcc88582a5f)" style="fill: none; stroke: #808080; stroke-linecap: round"/>
   </g>
   <g id="patch_108">
    <path d="M 265.771011 375.529396 
Q 221.655443 359.411792 177.539875 343.294189 
" clip-path="url(#pcc88582a5f)" style="fill: none; stroke: #808080; stroke-linecap: round"/>
   </g>
   <g id="patch_109">
    <path d="M 200.5731 361.656278 
Q 188.326012 353.966245 176.078924 346.276212 
" clip-path="url(#pcc88582a5f)" style="fill: none; stroke: #808080; stroke-linecap: round"/>
   </g>
   <g id="patch_110">
    <path d="M 524.681933 190.578258 
Q 521.79775 224.62627 518.913567 258.674281 
" clip-path="url(#pcc88582a5f)" style="fill: none; stroke: #808080; stroke-linecap: round"/>
   </g>
   <g id="patch_111">
    <path d="M 67.560992 211.539136 
Q 74.490693 177.275019 81.420394 143.010901 
" clip-path="url(#pcc88582a5f)" style="fill: none; stroke: #808080; stroke-linecap: round"/>
   </g>
   <g id="patch_112">
    <path d="M 60.307075 211.775439 
Q 57.205079 200.28247 54.103083 188.7895 
" clip-path="url(#pcc88582a5f)" style="fill: none; stroke: #808080; stroke-linecap: round"/>
   </g>
   <g id="patch_113">
    <path d="M 75.056994 140.155494 
Q 67.269725 150.519693 59.482455 160.883892 
" clip-path="url(#pcc88582a5f)" style="fill: none; stroke: #808080; stroke-linecap: round"/>
   </g>
   <g id="PathCollection_1">
    <defs>
     <path id="m9cf44d15e3" d="M 0 15.811388 
C 4.193229 15.811388 8.215279 14.145401 11.18034 11.18034 
C 14.145401 8.215279 15.811388 4.193229 15.811388 0 
C 15.811388 -4.193229 14.145401 -8.215279 11.18034 -11.18034 
C 8.215279 -14.145401 4.193229 -15.811388 0 -15.811388 
C -4.193229 -15.811388 -8.215279 -14.145401 -11.18034 -11.18034 
C -14.145401 -8.215279 -15.811388 -4.193229 -15.811388 0 
C -15.811388 4.193229 -14.145401 8.215279 -11.18034 11.18034 
C -8.215279 14.145401 -4.193229 15.811388 0 15.811388 
z
" style="stroke: #add8e6"/>
    </defs>
    <g clip-path="url(#pcc88582a5f)">
     <use xlink:href="#m9cf44d15e3" x="466.931272" y="219.727555" style="fill: #add8e6; stroke: #add8e6"/>
     <use xlink:href="#m9cf44d15e3" x="275.337523" y="202.891888" style="fill: #add8e6; stroke: #add8e6"/>
     <use xlink:href="#m9cf44d15e3" x="203.445849" y="151.805975" style="fill: #add8e6; stroke: #add8e6"/>
     <use xlink:href="#m9cf44d15e3" x="345.266039" y="220.149461" style="fill: #add8e6; stroke: #add8e6"/>
     <use xlink:href="#m9cf44d15e3" x="207.931276" y="117.405798" style="fill: #add8e6; stroke: #add8e6"/>
     <use xlink:href="#m9cf44d15e3" x="281.858358" y="229.820016" style="fill: #add8e6; stroke: #add8e6"/>
     <use xlink:href="#m9cf44d15e3" x="345.434094" y="57.737897" style="fill: #add8e6; stroke: #add8e6"/>
     <use xlink:href="#m9cf44d15e3" x="381.724487" y="101.317343" style="fill: #add8e6; stroke: #add8e6"/>
     <use xlink:href="#m9cf44d15e3" x="278.977495" y="51.580396" style="fill: #add8e6; stroke: #add8e6"/>
     <use xlink:href="#m9cf44d15e3" x="310.805497" y="325.388784" style="fill: #add8e6; stroke: #add8e6"/>
     <use xlink:href="#m9cf44d15e3" x="172.121404" y="232.313669" style="fill: #add8e6; stroke: #add8e6"/>
     <use xlink:href="#m9cf44d15e3" x="280.624609" y="380.956152" style="fill: #add8e6; stroke: #add8e6"/>
     <use xlink:href="#m9cf44d15e3" x="213.964972" y="370.065129" style="fill: #add8e6; stroke: #add8e6"/>
     <use xlink:href="#m9cf44d15e3" x="162.688405" y="337.86821" style="fill: #add8e6; stroke: #add8e6"/>
     <use xlink:href="#m9cf44d15e3" x="526.016529" y="174.823247" style="fill: #add8e6; stroke: #add8e6"/>
     <use xlink:href="#m9cf44d15e3" x="517.578937" y="274.429691" style="fill: #add8e6; stroke: #add8e6"/>
     <use xlink:href="#m9cf44d15e3" x="64.426468" y="227.037886" style="fill: #add8e6; stroke: #add8e6"/>
     <use xlink:href="#m9cf44d15e3" x="84.554253" y="127.515443" style="fill: #add8e6; stroke: #add8e6"/>
     <use xlink:href="#m9cf44d15e3" x="49.983471" y="173.526239" style="fill: #add8e6; stroke: #add8e6"/>
     <use xlink:href="#m9cf44d15e3" x="426.855887" y="394.512397" style="fill: #add8e6; stroke: #add8e6"/>
     <use xlink:href="#m9cf44d15e3" x="77.147841" y="37.487603" style="fill: #add8e6; stroke: #add8e6"/>
    </g>
   </g>
   <g id="text_1">
    <g clip-path="url(#pcc88582a5f)">
     <!-- 2 -->
     <g transform="translate(462.159397 223.866617) scale(0.15 -0.15)">
      <defs>
       <path id="DejaVuSans-32" d="M 1228 531 
L 3431 531 
L 3431 0 
L 469 0 
L 469 531 
Q 828 903 1448 1529 
Q 2069 2156 2228 2338 
Q 2531 2678 2651 2914 
Q 2772 3150 2772 3378 
Q 2772 3750 2511 3984 
Q 2250 4219 1831 4219 
Q 1534 4219 1204 4116 
Q 875 4013 500 3803 
L 500 4441 
Q 881 4594 1212 4672 
Q 1544 4750 1819 4750 
Q 2544 4750 2975 4387 
Q 3406 4025 3406 3419 
Q 3406 3131 3298 2873 
Q 3191 2616 2906 2266 
Q 2828 2175 2409 1742 
Q 1991 1309 1228 531 
z
" transform="scale(0.015625)"/>
      </defs>
      <use xlink:href="#DejaVuSans-32"/>
     </g>
    </g>
   </g>
   <g id="text_2">
    <g clip-path="url(#pcc88582a5f)">
     <!-- 20 -->
     <g transform="translate(265.793773 207.03095) scale(0.15 -0.15)">
      <defs>
       <path id="DejaVuSans-30" d="M 2034 4250 
Q 1547 4250 1301 3770 
Q 1056 3291 1056 2328 
Q 1056 1369 1301 889 
Q 1547 409 2034 409 
Q 2525 409 2770 889 
Q 3016 1369 3016 2328 
Q 3016 3291 2770 3770 
Q 2525 4250 2034 4250 
z
M 2034 4750 
Q 2819 4750 3233 4129 
Q 3647 3509 3647 2328 
Q 3647 1150 3233 529 
Q 2819 -91 2034 -91 
Q 1250 -91 836 529 
Q 422 1150 422 2328 
Q 422 3509 836 4129 
Q 1250 4750 2034 4750 
z
" transform="scale(0.015625)"/>
      </defs>
      <use xlink:href="#DejaVuSans-32"/>
      <use xlink:href="#DejaVuSans-30" x="63.623047"/>
     </g>
    </g>
   </g>
   <g id="text_3">
    <g clip-path="url(#pcc88582a5f)">
     <!-- 0 -->
     <g transform="translate(198.673974 155.945037) scale(0.15 -0.15)">
      <use xlink:href="#DejaVuSans-30"/>
     </g>
    </g>
   </g>
   <g id="text_4">
    <g clip-path="url(#pcc88582a5f)">
     <!-- 3 -->
     <g transform="translate(340.494164 224.288524) scale(0.15 -0.15)">
      <defs>
       <path id="DejaVuSans-33" d="M 2597 2516 
Q 3050 2419 3304 2112 
Q 3559 1806 3559 1356 
Q 3559 666 3084 287 
Q 2609 -91 1734 -91 
Q 1441 -91 1130 -33 
Q 819 25 488 141 
L 488 750 
Q 750 597 1062 519 
Q 1375 441 1716 441 
Q 2309 441 2620 675 
Q 2931 909 2931 1356 
Q 2931 1769 2642 2001 
Q 2353 2234 1838 2234 
L 1294 2234 
L 1294 2753 
L 1863 2753 
Q 2328 2753 2575 2939 
Q 2822 3125 2822 3475 
Q 2822 3834 2567 4026 
Q 2313 4219 1838 4219 
Q 1578 4219 1281 4162 
Q 984 4106 628 3988 
L 628 4550 
Q 988 4650 1302 4700 
Q 1616 4750 1894 4750 
Q 2613 4750 3031 4423 
Q 3450 4097 3450 3541 
Q 3450 3153 3228 2886 
Q 3006 2619 2597 2516 
z
" transform="scale(0.015625)"/>
      </defs>
      <use xlink:href="#DejaVuSans-33"/>
     </g>
    </g>
   </g>
   <g id="text_5">
    <g clip-path="url(#pcc88582a5f)">
     <!-- 4 -->
     <g transform="translate(203.159401 121.54486) scale(0.15 -0.15)">
      <defs>
       <path id="DejaVuSans-34" d="M 2419 4116 
L 825 1625 
L 2419 1625 
L 2419 4116 
z
M 2253 4666 
L 3047 4666 
L 3047 1625 
L 3713 1625 
L 3713 1100 
L 3047 1100 
L 3047 0 
L 2419 0 
L 2419 1100 
L 313 1100 
L 313 1709 
L 2253 4666 
z
" transform="scale(0.015625)"/>
      </defs>
      <use xlink:href="#DejaVuSans-34"/>
     </g>
    </g>
   </g>
   <g id="text_6">
    <g clip-path="url(#pcc88582a5f)">
     <!-- 5 -->
     <g transform="translate(277.086483 233.959078) scale(0.15 -0.15)">
      <defs>
       <path id="DejaVuSans-35" d="M 691 4666 
L 3169 4666 
L 3169 4134 
L 1269 4134 
L 1269 2991 
Q 1406 3038 1543 3061 
Q 1681 3084 1819 3084 
Q 2600 3084 3056 2656 
Q 3513 2228 3513 1497 
Q 3513 744 3044 326 
Q 2575 -91 1722 -91 
Q 1428 -91 1123 -41 
Q 819 9 494 109 
L 494 744 
Q 775 591 1075 516 
Q 1375 441 1709 441 
Q 2250 441 2565 725 
Q 2881 1009 2881 1497 
Q 2881 1984 2565 2268 
Q 2250 2553 1709 2553 
Q 1456 2553 1204 2497 
Q 953 2441 691 2322 
L 691 4666 
z
" transform="scale(0.015625)"/>
      </defs>
      <use xlink:href="#DejaVuSans-35"/>
     </g>
    </g>
   </g>
   <g id="text_7">
    <g clip-path="url(#pcc88582a5f)">
     <!-- 7 -->
     <g transform="translate(340.662219 61.876959) scale(0.15 -0.15)">
      <defs>
       <path id="DejaVuSans-37" d="M 525 4666 
L 3525 4666 
L 3525 4397 
L 1831 0 
L 1172 0 
L 2766 4134 
L 525 4134 
L 525 4666 
z
" transform="scale(0.015625)"/>
      </defs>
      <use xlink:href="#DejaVuSans-37"/>
     </g>
    </g>
   </g>
   <g id="text_8">
    <g clip-path="url(#pcc88582a5f)">
     <!-- 8 -->
     <g transform="translate(376.952612 105.456405) scale(0.15 -0.15)">
      <defs>
       <path id="DejaVuSans-38" d="M 2034 2216 
Q 1584 2216 1326 1975 
Q 1069 1734 1069 1313 
Q 1069 891 1326 650 
Q 1584 409 2034 409 
Q 2484 409 2743 651 
Q 3003 894 3003 1313 
Q 3003 1734 2745 1975 
Q 2488 2216 2034 2216 
z
M 1403 2484 
Q 997 2584 770 2862 
Q 544 3141 544 3541 
Q 544 4100 942 4425 
Q 1341 4750 2034 4750 
Q 2731 4750 3128 4425 
Q 3525 4100 3525 3541 
Q 3525 3141 3298 2862 
Q 3072 2584 2669 2484 
Q 3125 2378 3379 2068 
Q 3634 1759 3634 1313 
Q 3634 634 3220 271 
Q 2806 -91 2034 -91 
Q 1263 -91 848 271 
Q 434 634 434 1313 
Q 434 1759 690 2068 
Q 947 2378 1403 2484 
z
M 1172 3481 
Q 1172 3119 1398 2916 
Q 1625 2713 2034 2713 
Q 2441 2713 2670 2916 
Q 2900 3119 2900 3481 
Q 2900 3844 2670 4047 
Q 2441 4250 2034 4250 
Q 1625 4250 1398 4047 
Q 1172 3844 1172 3481 
z
" transform="scale(0.015625)"/>
      </defs>
      <use xlink:href="#DejaVuSans-38"/>
     </g>
    </g>
   </g>
   <g id="text_9">
    <g clip-path="url(#pcc88582a5f)">
     <!-- 9 -->
     <g transform="translate(274.20562 55.719459) scale(0.15 -0.15)">
      <defs>
       <path id="DejaVuSans-39" d="M 703 97 
L 703 672 
Q 941 559 1184 500 
Q 1428 441 1663 441 
Q 2288 441 2617 861 
Q 2947 1281 2994 2138 
Q 2813 1869 2534 1725 
Q 2256 1581 1919 1581 
Q 1219 1581 811 2004 
Q 403 2428 403 3163 
Q 403 3881 828 4315 
Q 1253 4750 1959 4750 
Q 2769 4750 3195 4129 
Q 3622 3509 3622 2328 
Q 3622 1225 3098 567 
Q 2575 -91 1691 -91 
Q 1453 -91 1209 -44 
Q 966 3 703 97 
z
M 1959 2075 
Q 2384 2075 2632 2365 
Q 2881 2656 2881 3163 
Q 2881 3666 2632 3958 
Q 2384 4250 1959 4250 
Q 1534 4250 1286 3958 
Q 1038 3666 1038 3163 
Q 1038 2656 1286 2365 
Q 1534 2075 1959 2075 
z
" transform="scale(0.015625)"/>
      </defs>
      <use xlink:href="#DejaVuSans-39"/>
     </g>
    </g>
   </g>
   <g id="text_10">
    <g clip-path="url(#pcc88582a5f)">
     <!-- 1 -->
     <g transform="translate(306.033622 329.527846) scale(0.15 -0.15)">
      <defs>
       <path id="DejaVuSans-31" d="M 794 531 
L 1825 531 
L 1825 4091 
L 703 3866 
L 703 4441 
L 1819 4666 
L 2450 4666 
L 2450 531 
L 3481 531 
L 3481 0 
L 794 0 
L 794 531 
z
" transform="scale(0.015625)"/>
      </defs>
      <use xlink:href="#DejaVuSans-31"/>
     </g>
    </g>
   </g>
   <g id="text_11">
    <g clip-path="url(#pcc88582a5f)">
     <!-- 6 -->
     <g transform="translate(167.349529 236.452731) scale(0.15 -0.15)">
      <defs>
       <path id="DejaVuSans-36" d="M 2113 2584 
Q 1688 2584 1439 2293 
Q 1191 2003 1191 1497 
Q 1191 994 1439 701 
Q 1688 409 2113 409 
Q 2538 409 2786 701 
Q 3034 994 3034 1497 
Q 3034 2003 2786 2293 
Q 2538 2584 2113 2584 
z
M 3366 4563 
L 3366 3988 
Q 3128 4100 2886 4159 
Q 2644 4219 2406 4219 
Q 1781 4219 1451 3797 
Q 1122 3375 1075 2522 
Q 1259 2794 1537 2939 
Q 1816 3084 2150 3084 
Q 2853 3084 3261 2657 
Q 3669 2231 3669 1497 
Q 3669 778 3244 343 
Q 2819 -91 2113 -91 
Q 1303 -91 875 529 
Q 447 1150 447 2328 
Q 447 3434 972 4092 
Q 1497 4750 2381 4750 
Q 2619 4750 2861 4703 
Q 3103 4656 3366 4563 
z
" transform="scale(0.015625)"/>
      </defs>
      <use xlink:href="#DejaVuSans-36"/>
     </g>
    </g>
   </g>
   <g id="text_12">
    <g clip-path="url(#pcc88582a5f)">
     <!-- 10 -->
     <g transform="translate(271.080859 385.095214) scale(0.15 -0.15)">
      <use xlink:href="#DejaVuSans-31"/>
      <use xlink:href="#DejaVuSans-30" x="63.623047"/>
     </g>
    </g>
   </g>
   <g id="text_13">
    <g clip-path="url(#pcc88582a5f)">
     <!-- 11 -->
     <g transform="translate(204.421222 374.204191) scale(0.15 -0.15)">
      <use xlink:href="#DejaVuSans-31"/>
      <use xlink:href="#DejaVuSans-31" x="63.623047"/>
     </g>
    </g>
   </g>
   <g id="text_14">
    <g clip-path="url(#pcc88582a5f)">
     <!-- 12 -->
     <g transform="translate(153.144655 342.007273) scale(0.15 -0.15)">
      <use xlink:href="#DejaVuSans-31"/>
      <use xlink:href="#DejaVuSans-32" x="63.623047"/>
     </g>
    </g>
   </g>
   <g id="text_15">
    <g clip-path="url(#pcc88582a5f)">
     <!-- 13 -->
     <g transform="translate(516.472779 178.96231) scale(0.15 -0.15)">
      <use xlink:href="#DejaVuSans-31"/>
      <use xlink:href="#DejaVuSans-33" x="63.623047"/>
     </g>
    </g>
   </g>
   <g id="text_16">
    <g clip-path="url(#pcc88582a5f)">
     <!-- 14 -->
     <g transform="translate(508.035187 278.568754) scale(0.15 -0.15)">
      <use xlink:href="#DejaVuSans-31"/>
      <use xlink:href="#DejaVuSans-34" x="63.623047"/>
     </g>
    </g>
   </g>
   <g id="text_17">
    <g clip-path="url(#pcc88582a5f)">
     <!-- 15 -->
     <g transform="translate(54.882718 231.176948) scale(0.15 -0.15)">
      <use xlink:href="#DejaVuSans-31"/>
      <use xlink:href="#DejaVuSans-35" x="63.623047"/>
     </g>
    </g>
   </g>
   <g id="text_18">
    <g clip-path="url(#pcc88582a5f)">
     <!-- 16 -->
     <g transform="translate(75.010503 131.654506) scale(0.15 -0.15)">
      <use xlink:href="#DejaVuSans-31"/>
      <use xlink:href="#DejaVuSans-36" x="63.623047"/>
     </g>
    </g>
   </g>
   <g id="text_19">
    <g clip-path="url(#pcc88582a5f)">
     <!-- 17 -->
     <g transform="translate(40.439721 177.665301) scale(0.15 -0.15)">
      <use xlink:href="#DejaVuSans-31"/>
      <use xlink:href="#DejaVuSans-37" x="63.623047"/>
     </g>
    </g>
   </g>
   <g id="text_20">
    <g clip-path="url(#pcc88582a5f)">
     <!-- 18 -->
     <g transform="translate(417.312137 398.651459) scale(0.15 -0.15)">
      <use xlink:href="#DejaVuSans-31"/>
      <use xlink:href="#DejaVuSans-38" x="63.623047"/>
     </g>
    </g>
   </g>
   <g id="text_21">
    <g clip-path="url(#pcc88582a5f)">
     <!-- 19 -->
     <g transform="translate(67.604091 41.626666) scale(0.15 -0.15)">
      <use xlink:href="#DejaVuSans-31"/>
      <use xlink:href="#DejaVuSans-39" x="63.623047"/>
     </g>
    </g>
   </g>
  </g>
 </g>
 <defs>
  <clipPath id="pcc88582a5f">
   <rect x="0" y="0" width="576" height="432"/>
  </clipPath>
 </defs>
</svg>
1919 1581 
Q 1219 1581 811 2004 
Q 403 2428 403 3163 
Q 403 3881 828 4315 
Q 1253 4750 1959 4750 
Q 2769 4750 3195 4129 
Q 3622 3509 3622 2328 
Q 3622 1225 3098 567 
Q 2575 -91 1691 -91 
Q 1453 -91 1209 -44 
Q 966 3 703 97 
z
M 1959 2075 
Q 2384 2075 2632 2365 
Q 2881 2656 2881 3163 
Q 2881 3666 2632 3958 
Q 2384 4250 1959 4250 
Q 1534 4250 1286 3958 
Q 1038 3666 1038 3163 
Q 1038 2656 1286 2365 
Q 1534 2075 1959 2075 
z
" transform="scale(0.015625)"/>
      </defs>
      <use xlink:href="#DejaVuSans-39"/>
     </g>
    </g>
   </g>
   <g id="text_10">
    <g clip-path="url(#p7dc73e2cbf)">
     <!-- 10 -->
     <g transform="translate(348.372705 315.858512) scale(0.15 -0.15)">
      <use xlink:href="#DejaVuSans-31"/>
      <use xlink:href="#DejaVuSans-30" x="63.623047"/>
     </g>
    </g>
   </g>
   <g id="text_11">
    <g clip-path="url(#p7dc73e2cbf)">
     <!-- 11 -->
     <g transform="translate(266.925863 364.867282) scale(0.15 -0.15)">
      <use xlink:href="#DejaVuSans-31"/>
      <use xlink:href="#DejaVuSans-31" x="63.623047"/>
     </g>
    </g>
   </g>
   <g id="text_12">
    <g clip-path="url(#p7dc73e2cbf)">
     <!-- 20 -->
     <g transform="translate(250.83537 227.72888) scale(0.15 -0.15)">
      <use xlink:href="#DejaVuSans-32"/>
      <use xlink:href="#DejaVuSans-30" x="63.623047"/>
     </g>
    </g>
   </g>
   <g id="text_13">
    <g clip-path="url(#p7dc73e2cbf)">
     <!-- 4 -->
     <g transform="translate(245.776506 109.474545) scale(0.15 -0.15)">
      <defs>
       <path id="DejaVuSans-34" d="M 2419 4116 
L 825 1625 
L 2419 1625 
L 2419 4116 
z
M 2253 4666 
L 3047 4666 
L 3047 1625 
L 3713 1625 
L 3713 1100 
L 3047 1100 
L 3047 0 
L 2419 0 
L 2419 1100 
L 313 1100 
L 313 1709 
L 2253 4666 
z
" transform="scale(0.015625)"/>
      </defs>
      <use xlink:href="#DejaVuSans-34"/>
     </g>
    </g>
   </g>
   <g id="text_14">
    <g clip-path="url(#p7dc73e2cbf)">
     <!-- 12 -->
     <g transform="translate(91.481138 105.607944) scale(0.15 -0.15)">
      <use xlink:href="#DejaVuSans-31"/>
      <use xlink:href="#DejaVuSans-32" x="63.623047"/>
     </g>
    </g>
   </g>
   <g id="text_15">
    <g clip-path="url(#p7dc73e2cbf)">
     <!-- 13 -->
     <g transform="translate(60.681281 151.156873) scale(0.15 -0.15)">
      <use xlink:href="#DejaVuSans-31"/>
      <use xlink:href="#DejaVuSans-33" x="63.623047"/>
     </g>
    </g>
   </g>
   <g id="text_16">
    <g clip-path="url(#p7dc73e2cbf)">
     <!-- 14 -->
     <g transform="translate(156.066643 77.974681) scale(0.15 -0.15)">
      <use xlink:href="#DejaVuSans-31"/>
      <use xlink:href="#DejaVuSans-34" x="63.623047"/>
     </g>
    </g>
   </g>
   <g id="text_17">
    <g clip-path="url(#p7dc73e2cbf)">
     <!-- 15 -->
     <g transform="translate(516.472779 238.177158) scale(0.15 -0.15)">
      <use xlink:href="#DejaVuSans-31"/>
      <use xlink:href="#DejaVuSans-35" x="63.623047"/>
     </g>
    </g>
   </g>
   <g id="text_18">
    <g clip-path="url(#p7dc73e2cbf)">
     <!-- 16 -->
     <g transform="translate(499.635608 171.405977) scale(0.15 -0.15)">
      <use xlink:href="#DejaVuSans-31"/>
      <use xlink:href="#DejaVuSans-36" x="63.623047"/>
     </g>
    </g>
   </g>
   <g id="text_19">
    <g clip-path="url(#p7dc73e2cbf)">
     <!-- 17 -->
     <g transform="translate(40.439721 398.651459) scale(0.15 -0.15)">
      <use xlink:href="#DejaVuSans-31"/>
      <use xlink:href="#DejaVuSans-37" x="63.623047"/>
     </g>
    </g>
   </g>
   <g id="text_20">
    <g clip-path="url(#p7dc73e2cbf)">
     <!-- 18 -->
     <g transform="translate(324.707212 41.626666) scale(0.15 -0.15)">
      <use xlink:href="#DejaVuSans-31"/>
      <use xlink:href="#DejaVuSans-38" x="63.623047"/>
     </g>
    </g>
   </g>
   <g id="text_21">
    <g clip-path="url(#p7dc73e2cbf)">
     <!-- 19 -->
     <g transform="translate(412.00504 77.46124) scale(0.15 -0.15)">
      <use xlink:href="#DejaVuSans-31"/>
      <use xlink:href="#DejaVuSans-39" x="63.623047"/>
     </g>
    </g>
   </g>
  </g>
 </g>
 <defs>
  <clipPath id="p7dc73e2cbf">
   <rect x="0" y="0" width="576" height="432"/>
  </clipPath>
 </defs>
</svg>
