<?xml version="1.0" encoding="utf-8" standalone="no"?>
<!DOCTYPE svg PUBLIC "-//W3C//DTD SVG 1.1//EN"
  "http://www.w3.org/Graphics/SVG/1.1/DTD/svg11.dtd">
<svg xmlns:xlink="http://www.w3.org/1999/xlink" width="1296pt" height="1152pt" viewBox="0 0 1296 1152" xmlns="http://www.w3.org/2000/svg" version="1.1">
 <metadata>
  <rdf:RDF xmlns:dc="http://purl.org/dc/elements/1.1/" xmlns:cc="http://creativecommons.org/ns#" xmlns:rdf="http://www.w3.org/1999/02/22-rdf-syntax-ns#">
   <cc:Work>
    <dc:type rdf:resource="http://purl.org/dc/dcmitype/StillImage"/>
    <dc:date>2025-02-13T10:46:53.556564</dc:date>
    <dc:format>image/svg+xml</dc:format>
    <dc:creator>
     <cc:Agent>
      <dc:title>Matplotlib v3.9.1, https://matplotlib.org/</dc:title>
     </cc:Agent>
    </dc:creator>
   </cc:Work>
  </rdf:RDF>
 </metadata>
 <defs>
  <style type="text/css">*{stroke-linejoin: round; stroke-linecap: butt}</style>
 </defs>
 <g id="figure_1">
  <g id="patch_1">
   <path d="M 0 1152 
L 1296 1152 
L 1296 0 
L 0 0 
z
" style="fill: #ffffff"/>
  </g>
  <g id="axes_1">
   <g id="patch_2">
    <path d="M 303.868972 178.211523 
Q 415.198027 313.747535 526.527082 449.283547 
" clip-path="url(#p184b21ff9c)" style="fill: none; stroke: #000000; stroke-linecap: round"/>
   </g>
   <g id="patch_3">
    <path d="M 303.868972 178.211523 
Q 415.198027 313.747535 526.527082 449.283547 
" clip-path="url(#p184b21ff9c)" style="fill: none; stroke: #000000; stroke-linecap: round"/>
   </g>
   <g id="patch_4">
    <path d="M 303.806833 178.263906 
Q 470.536249 388.10481 637.265664 597.945715 
" clip-path="url(#p184b21ff9c)" style="fill: none; stroke: #000000; stroke-linecap: round"/>
   </g>
   <g id="patch_5">
    <path d="M 299.57649 179.217696 
Q 258.614488 357.705422 217.652487 536.193148 
" clip-path="url(#p184b21ff9c)" style="fill: none; stroke: #000000; stroke-linecap: round"/>
   </g>
   <g id="patch_6">
    <path d="M 305.449872 175.883522 
Q 513.426932 243.097158 721.403992 310.310793 
" clip-path="url(#p184b21ff9c)" style="fill: none; stroke: #000000; stroke-linecap: round"/>
   </g>
   <g id="patch_7">
    <path d="M 305.410378 172.688494 
Q 406.466154 137.157176 507.521929 101.625858 
" clip-path="url(#p184b21ff9c)" style="fill: none; stroke: #000000; stroke-linecap: round"/>
   </g>
   <g id="patch_8">
    <path d="M 301.278415 179.312529 
Q 328.410634 410.006095 355.542853 640.699661 
" clip-path="url(#p184b21ff9c)" style="fill: none; stroke: #000000; stroke-linecap: round"/>
   </g>
   <g id="patch_9">
    <path d="M 296.538317 177.125388 
Q 206.577649 237.273152 116.61698 297.420916 
" clip-path="url(#p184b21ff9c)" style="fill: none; stroke: #000000; stroke-linecap: round"/>
   </g>
   <g id="patch_10">
    <path d="M 532.683111 457.154861 
Q 585.036304 527.501147 637.389497 597.847432 
" clip-path="url(#p184b21ff9c)" style="fill: none; stroke: #000000; stroke-linecap: round"/>
   </g>
   <g id="patch_11">
    <path d="M 532.683111 457.154861 
Q 585.036304 527.501147 637.389497 597.847432 
" clip-path="url(#p184b21ff9c)" style="fill: none; stroke: #000000; stroke-linecap: round"/>
   </g>
   <g id="patch_12">
    <path d="M 532.683111 457.154861 
Q 585.036304 527.501147 637.389497 597.847432 
" clip-path="url(#p184b21ff9c)" style="fill: none; stroke: #000000; stroke-linecap: round"/>
   </g>
   <g id="patch_13">
    <path d="M 524.887061 454.496139 
Q 373.117309 497.10528 221.347557 539.714421 
" clip-path="url(#p184b21ff9c)" style="fill: none; stroke: #000000; stroke-linecap: round"/>
   </g>
   <g id="patch_14">
    <path d="M 524.887061 454.496139 
Q 373.117309 497.10528 221.347557 539.714421 
" clip-path="url(#p184b21ff9c)" style="fill: none; stroke: #000000; stroke-linecap: round"/>
   </g>
   <g id="patch_15">
    <path d="M 528.293906 457.947366 
Q 442.081232 752.590246 355.868557 1047.233125 
" clip-path="url(#p184b21ff9c)" style="fill: none; stroke: #000000; stroke-linecap: round"/>
   </g>
   <g id="patch_16">
    <path d="M 533.761072 450.223799 
Q 627.932463 382.496534 722.103855 314.769269 
" clip-path="url(#p184b21ff9c)" style="fill: none; stroke: #000000; stroke-linecap: round"/>
   </g>
   <g id="patch_17">
    <path d="M 533.761072 450.223799 
Q 627.932463 382.496534 722.103855 314.769269 
" clip-path="url(#p184b21ff9c)" style="fill: none; stroke: #000000; stroke-linecap: round"/>
   </g>
   <g id="patch_18">
    <path d="M 534.684921 453.536824 
Q 856.618555 478.824401 1178.552188 504.111977 
" clip-path="url(#p184b21ff9c)" style="fill: none; stroke: #000000; stroke-linecap: round"/>
   </g>
   <g id="patch_19">
    <path d="M 529.452205 448.152212 
Q 520.969529 276.555305 512.486852 104.958398 
" clip-path="url(#p184b21ff9c)" style="fill: none; stroke: #000000; stroke-linecap: round"/>
   </g>
   <g id="patch_20">
    <path d="M 526.348667 456.861237 
Q 442.911648 549.405403 359.474628 641.949569 
" clip-path="url(#p184b21ff9c)" style="fill: none; stroke: #000000; stroke-linecap: round"/>
   </g>
   <g id="patch_21">
    <path d="M 525.003718 451.424022 
Q 321.079679 376.671338 117.155639 301.918653 
" clip-path="url(#p184b21ff9c)" style="fill: none; stroke: #000000; stroke-linecap: round"/>
   </g>
   <g id="patch_22">
    <path d="M 635.424567 601.149291 
Q 428.454617 571.462552 221.484667 541.775814 
" clip-path="url(#p184b21ff9c)" style="fill: none; stroke: #000000; stroke-linecap: round"/>
   </g>
   <g id="patch_23">
    <path d="M 635.424567 601.149291 
Q 428.454617 571.462552 221.484667 541.775814 
" clip-path="url(#p184b21ff9c)" style="fill: none; stroke: #000000; stroke-linecap: round"/>
   </g>
   <g id="patch_24">
    <path d="M 637.694433 606.080462 
Q 497.420087 826.945603 357.145742 1047.810744 
" clip-path="url(#p184b21ff9c)" style="fill: none; stroke: #000000; stroke-linecap: round"/>
   </g>
   <g id="patch_25">
    <path d="M 641.79297 597.0669 
Q 683.269829 456.85385 724.746689 316.640799 
" clip-path="url(#p184b21ff9c)" style="fill: none; stroke: #000000; stroke-linecap: round"/>
   </g>
   <g id="patch_26">
    <path d="M 641.79297 597.0669 
Q 683.269829 456.85385 724.746689 316.640799 
" clip-path="url(#p184b21ff9c)" style="fill: none; stroke: #000000; stroke-linecap: round"/>
   </g>
   <g id="patch_27">
    <path d="M 645.29421 600.977734 
Q 911.953872 553.181895 1178.613535 505.386056 
" clip-path="url(#p184b21ff9c)" style="fill: none; stroke: #000000; stroke-linecap: round"/>
   </g>
   <g id="patch_28">
    <path d="M 639.13863 597.015541 
Q 576.307537 350.912548 513.476445 104.809556 
" clip-path="url(#p184b21ff9c)" style="fill: none; stroke: #000000; stroke-linecap: round"/>
   </g>
   <g id="patch_29">
    <path d="M 635.435112 602.620694 
Q 498.250634 623.761262 361.066155 644.901831 
" clip-path="url(#p184b21ff9c)" style="fill: none; stroke: #000000; stroke-linecap: round"/>
   </g>
   <g id="patch_30">
    <path d="M 636.037504 599.380692 
Q 376.421199 451.030126 116.804894 302.679561 
" clip-path="url(#p184b21ff9c)" style="fill: none; stroke: #000000; stroke-linecap: round"/>
   </g>
   <g id="patch_31">
    <path d="M 217.838076 545.895833 
Q 285.49908 796.549064 353.160085 1047.202296 
" clip-path="url(#p184b21ff9c)" style="fill: none; stroke: #000000; stroke-linecap: round"/>
   </g>
   <g id="patch_32">
    <path d="M 221.09507 539.014427 
Q 471.350325 426.456943 721.60558 313.899459 
" clip-path="url(#p184b21ff9c)" style="fill: none; stroke: #000000; stroke-linecap: round"/>
   </g>
   <g id="patch_33">
    <path d="M 219.32048 536.909584 
Q 364.38913 320.513434 509.457781 104.117284 
" clip-path="url(#p184b21ff9c)" style="fill: none; stroke: #000000; stroke-linecap: round"/>
   </g>
   <g id="patch_34">
    <path d="M 220.536539 544.064687 
Q 286.329871 593.363976 352.123203 642.663264 
" clip-path="url(#p184b21ff9c)" style="fill: none; stroke: #000000; stroke-linecap: round"/>
   </g>
   <g id="patch_35">
    <path d="M 214.550832 536.475246 
Q 164.498322 420.631594 114.445812 304.787942 
" clip-path="url(#p184b21ff9c)" style="fill: none; stroke: #000000; stroke-linecap: round"/>
   </g>
   <g id="patch_36">
    <path d="M 730.773721 313.790816 
Q 954.853157 408.177407 1178.932593 502 clip-path clip-path="url(#p184b21ff9c)" style="fill: none; stroke: #000000; stroke-linecap: round"/>
   </g>
   <g id="patch_37">
    <path d="M 722.609381 308.328353 
Q 619.201468 205.907414 515.793554 103.486475 
" clip-path="url(#p184b21ff9c)" style="fill: none; stroke: #000000; stroke-linecap: round"/>
   </g>
   <g id="patch_38">
    <path d="M 722.45166 315.198201 
Q 541.146301 478.755248 359.840942 642.312295 
" clip-path="url(#p184b21ff9c)" style="fill: none; stroke: #000000; stroke-linecap: round"/>
   </g>
   <g id="patch_39">
    <path d="M 721.168244 311.754318 
Q 419.31635 306.023834 117.464456 300.29335 
" clip-path="url(#p184b21ff9c)" style="fill: none; stroke: #000000; stroke-linecap: round"/>
   </g>
   <g id="patch_40">
    <path d="M 510.864442 104.775589 
Q 434.183196 372.815541 357.50195 640.855492 
" clip-path="url(#p184b21ff9c)" style="fill: none; stroke: #000000; stroke-linecap: round"/>
   </g>
   <g id="patch_41">
    <path d="M 507.77177 102.204942 
Q 312.35363 200.081581 116.93549 297.958221 
" clip-path="url(#p184b21ff9c)" style="fill: none; stroke: #000000; stroke-linecap: round"/>
   </g>
   <g id="patch_42">
    <path d="M 353.243282 641.575083 
Q 234.29418 472.929968 115.345077 304.284853 
" clip-path="url(#p184b21ff9c)" style="fill: none; stroke: #000000; stroke-linecap: round"/>
   </g>
   <g id="PathCollection_1">
    <defs>
     <path id="m4a445ce573" d="M 0 5 
C 1.326016 5 2.597899 4.473168 3.535534 3.535534 
C 4.473168 2.597899 5 1.326016 5 0 
C 5 -1.326016 4.473168 -2.597899 3.535534 -3.535534 
C 2.597899 -4.473168 1.326016 -5 0 -5 
C -1.326016 -5 -2.597899 -4.473168 -3.535534 -3.535534 
C -4.473168 -2.597899 -5 -1.326016 -5 0 
C -5 1.326016 -4.473168 2.597899 -3.535534 3.535534 
C -2.597899 4.473168 -1.326016 5 0 5 
z
" style="stroke: #0000ff"/>
    </defs>
    <g clip-path="url(#p184b21ff9c)">
     <use xlink:href="#m4a445ce573" x="300.69437" y="174.346648" style="fill: #0000ff; stroke: #0000ff"/>
     <use xlink:href="#m4a445ce573" x="529.699026" y="453.145187" style="fill: #0000ff; stroke: #0000ff"/>
     <use xlink:href="#m4a445ce573" x="640.375286" y="601.859397" style="fill: #0000ff; stroke: #0000ff"/>
     <use xlink:href="#m4a445ce573" x="216.53425" y="541.065751" style="fill: #0000ff; stroke: #0000ff"/>
     <use xlink:href="#m4a445ce573" x="354.464094" y="1052.033058" style="fill: #0000ff; stroke: #0000ff"/>
     <use xlink:href="#m4a445ce573" x="726.164118" y="311.849162" style="fill: #0000ff; stroke: #0000ff"/>
     <use xlink:href="#m4a445ce573" x="1183.53719" y="504.503544" style="fill: #0000ff; stroke: #0000ff"/>
     <use xlink:href="#m4a445ce573" x="512.240106" y="99.966942" style="fill: #0000ff; stroke: #0000ff"/>
     <use xlink:href="#m4a445ce573" x="356.126602" y="645.663032" style="fill: #0000ff; stroke: #0000ff"/>
     <use xlink:href="#m4a445ce573" x="112.46281" y="300.198397" style="fill: #0000ff; stroke: #0000ff"/>
    </g>
   </g>
   <g id="text_1">
    <g clip-path="url(#p184b21ff9c)">
     <!-- 2 -->
     <g transform="translate(295.922495 178.48571) scale(0.15 -0.15)">
      <defs>
       <path id="DejaVuSans-32" d="M 1228 531 
L 3431 531 
L 3431 0 
L 469 0 
L 469 531 
Q 828 903 1448 1529 
Q 2069 2156 2228 2338 
Q 2531 2678 2651 2914 
Q 2772 3150 2772 3378 
Q 2772 3750 2511 3984 
Q 2250 4219 1831 4219 
Q 1534 4219 1204 4116 
Q 875 4013 500 3803 
L 500 4441 
Q 881 4594 1212 4672 
Q 1544 4750 1819 4750 
Q 2544 4750 2975 4387 
Q 3406 4025 3406 3419 
Q 3406 3131 3298 2873 
Q 3191 2616 2906 2266 
Q 2828 2175 2409 1742 
Q 1991 1309 1228 531 
z
" transform="scale(0.015625)"/>
      </defs>
      <use xlink:href="#DejaVuSans-32"/>
     </g>
    </g>
   </g>
   <g id="text_2">
    <g clip-path="url(#p184b21ff9c)">
     <!-- 9 -->
     <g transform="translate(524.927151 457.28425) scale(0.15 -0.15)">
      <defs>
       <path id="DejaVuSans-39" d="M 703 97 
L 703 672 
Q 941 559 1184 500 
Q 1428 441 1663 441 
Q 2288 441 2617 861 
Q 2947 1281 2994 2138 
Q 2813 1869 2534 1725 
Q 2256 1581 1919 1581 
Q 1219 1581 811 2004 
Q 403 2428 403 3163 
Q 403 3881 828 4315 
Q 1253 4750 1959 4750 
Q 2769 4750 3195 4129 
Q 3622 3509 3622 2328 
Q 3622 1225 3098 567 
Q 2575 -91 1691 -91 
Q 1453 -91 1209 -44 
Q 966 3 703 97 
z
M 1959 2075 
Q 2384 2075 2632 2365 
Q 2881 2656 2881 3163 
Q 2881 3666 2632 3958 
Q 2384 4250 1959 4250 
Q 1534 4250 1286 3958 
Q 1038 3666 1038 3163 
Q 1038 2656 1286 2365 
Q 1534 2075 1959 2075 
z
" transform="scale(0.015625)"/>
      </defs>
      <use xlink:href="#DejaVuSans-39"/>
     </g>
    </g>
   </g>
   <g id="text_3">
    <g clip-path="url(#p184b21ff9c)">
     <!-- 0 -->
     <g transform="translate(635.603411 605.99846) scale(0.15 -0.15)">
      <defs>
       <path id="DejaVuSans-30" d="M 2034 4250 
Q 1547 4250 1301 3770 
Q 1056 3291 1056 2328 
Q 1056 1369 1301 889 
Q 1547 409 2034 409 
Q 2525 409 2770 889 
Q 3016 1369 3016 2328 
Q 3016 3291 2770 3770 
Q 2525 4250 2034 4250 
z
M 2034 4750 
Q 2819 4750 3233 4129 
Q 3647 3509 3647 2328 
Q 3647 1150 3233 529 
Q 2819 -91 2034 -91 
Q 1250 -91 836 529 
Q 422 1150 422 2328 
Q 422 3509 836 4129 
Q 1250 4750 2034 4750 
z
" transform="scale(0.015625)"/>
      </defs>
      <use xlink:href="#DejaVuSans-30"/>
     </g>
    </g>
   </g>
   <g id="text_4">
    <g clip-path="url(#p184b21ff9c)">
     <!-- 1 -->
     <g transform="translate(211.762375 545.204813) scale(0.15 -0.15)">
      <defs>
       <path id="DejaVuSans-31" d="M 794 531 
L 1825 531 
L 1825 4091 
L 703 3866 
L 703 4441 
L 1819 4666 
L 2450 4666 
L 2450 531 
L 3481 531 
L 3481 0 
L 794 0 
L 794 531 
z
" transform="scale(0.015625)"/>
      </defs>
      <use xlink:href="#DejaVuSans-31"/>
     </g>
    </g>
   </g>
   <g id="text_5">
    <g clip-path="url(#p184b21ff9c)">
     <!-- 4 -->
     <g transform="translate(349.692219 1056.17212) scale(0.15 -0.15)">
      <defs>
       <path id="DejaVuSans-34" d="M 2419 4116 
L 825 1625 
L 2419 1625 
L 2419 4116 
z
M 2253 4666 
L 3047 4666 
L 3047 1625 
L 3713 1625 
L 3713 1100 
L 3047 1100 
L 3047 0 
L 2419 0 
L 2419 1100 
L 313 1100 
L 313 1709 
L 2253 4666 
z
" transform="scale(0.015625)"/>
      </defs>
      <use xlink:href="#DejaVuSans-34"/>
     </g>
    </g>
   </g>
   <g id="text_6">
    <g clip-path="url(#p184b21ff9c)">
     <!-- 3 -->
     <g transform="translate(721.392243 315.988224) scale(0.15 -0.15)">
      <defs>
       <path id="DejaVuSans-33" d="M 2597 2516 
Q 3050 2419 3304 2112 
Q 3559 1806 3559 1356 
Q 3559 666 3084 287 
Q 2609 -91 1734 -91 
Q 1441 -91 1130 -33 
Q 819 25 488 141 
L 488 750 
Q 750 597 1062 519 
Q 1375 441 1716 441 
Q 2309 441 2620 675 
Q 2931 909 2931 1356 
Q 2931 1769 2642 2001 
Q 2353 2234 1838 2234 
L 1294 2234 
L 1294 2753 
L 1863 2753 
Q 2328 2753 2575 2939 
Q 2822 3125 2822 3475 
Q 2822 3834 2567 4026 
Q 2313 4219 1838 4219 
Q 1578 4219 1281 4162 
Q 984 4106 628 3988 
L 628 4550 
Q 988 4650 1302 4700 
Q 1616 4750 1894 4750 
Q 2613 4750 3031 4423 
Q 3450 4097 3450 3541 
Q 3450 3153 3228 2886 
Q 3006 2619 2597 2516 
z
" transform="scale(0.015625)"/>
      </defs>
      <use xlink:href="#DejaVuSans-33"/>
     </g>
    </g>
   </g>
   <g id="text_7">
    <g clip-path="url(#p184b21ff9c)">
     <!-- 5 -->
     <g transform="translate(1178.765315 508.642607) scale(0.15 -0.15)">
      <defs>
       <path id="DejaVuSans-35" d="M 691 4666 
L 3169 4666 
L 3169 4134 
L 1269 4134 
L 1269 2991 
Q 1406 3038 1543 3061 
Q 1681 3084 1819 3084 
Q 2600 3084 3056 2656 
Q 3513 2228 3513 1497 
Q 3513 744 3044 326 
Q 2575 -91 1722 -91 
Q 1428 -91 1123 -41 
Q 819 9 494 109 
L 494 744 
Q 775 591 1075 516 
Q 1375 441 1709 441 
Q 2250 441 2565 725 
Q 2881 1009 2881 1497 
Q 2881 1984 2565 2268 
Q 2250 2553 1709 2553 
Q 1456 2553 1204 2497 
Q 953 2441 691 2322 
L 691 4666 
z
" transform="scale(0.015625)"/>
      </defs>
      <use xlink:href="#DejaVuSans-35"/>
     </g>
    </g>
   </g>
   <g id="text_8">
    <g clip-path="url(#p184b21ff9c)">
     <!-- 6 -->
     <g transform="translate(507.468231 104.106005) scale(0.15 -0.15)">
      <defs>
       <path id="DejaVuSans-36" d="M 2113 2584 
Q 1688 2584 1439 2293 
Q 1191 2003 1191 1497 
Q 1191 994 1439 701 
Q 1688 409 2113 409 
Q 2538 409 2786 701 
Q 3034 994 3034 1497 
Q 3034 2003 2786 2293 
Q 2538 2584 2113 2584 
z
M 3366 4563 
L 3366 3988 
Q 3128 4100 2886 4159 
Q 2644 4219 2406 4219 
Q 1781 4219 1451 3797 
Q 1122 3375 1075 2522 
Q 1259 2794 1537 2939 
Q 1816 3084 2150 3084 
Q 2853 3084 3261 2657 
Q 3669 2231 3669 1497 
Q 3669 778 3244 343 
Q 2819 -91 2113 -91 
Q 1303 -91 875 529 
Q 447 1150 447 2328 
Q 447 3434 972 4092 
Q 1497 4750 2381 4750 
Q 2619 4750 2861 4703 
Q 3103 4656 3366 4563 
z
" transform="scale(0.015625)"/>
      </defs>
      <use xlink:href="#DejaVuSans-36"/>
     </g>
    </g>
   </g>
   <g id="text_9">
    <g clip-path="url(#p184b21ff9c)">
     <!-- 7 -->
     <g transform="translate(351.354727 649.802095) scale(0.15 -0.15)">
      <defs>
       <path id="DejaVuSans-37" d="M 525 4666 
L 3525 4666 
L 3525 4397 
L 1831 0 
L 1172 0 
L 2766 4134 
L 525 4134 
L 525 4666 
z
" transform="scale(0.015625)"/>
      </defs>
      <use xlink:href="#DejaVuSans-37"/>
     </g>
    </g>
   </g>
   <g id="text_10">
    <g clip-path="url(#p184b21ff9c)">
     <!-- 8 -->
     <g transform="translate(107.690935 304.337459) scale(0.15 -0.15)">
      <defs>
       <path id="DejaVuSans-38" d="M 2034 2216 
Q 1584 2216 1326 1975 
Q 1069 1734 1069 1313 
Q 1069 891 1326 650 
Q 1584 409 2034 409 
Q 2484 409 2743 651 
Q 3003 894 3003 1313 
Q 3003 1734 2745 1975 
Q 2488 2216 2034 2216 
z
M 1403 2484 
Q 997 2584 770 2862 
Q 544 3141 544 3541 
Q 544 4100 942 4425 
Q 1341 4750 2034 4750 
Q 2731 4750 3128 4425 
Q 3525 4100 3525 3541 
Q 3525 3141 3298 2862 
Q 3072 2584 2669 2484 
Q 3125 2378 3379 2068 
Q 3634 1759 3634 1313 
Q 3634 634 3220 271 
Q 2806 -91 2034 -91 
Q 1263 -91 848 271 
Q 434 634 434 1313 
Q 434 1759 690 2068 
Q 947 2378 1403 2484 
z
M 1172 3481 
Q 1172 3119 1398 2916 
Q 1625 2713 2034 2713 
Q 2441 2713 2670 2916 
Q 2900 3119 2900 3481 
Q 2900 3844 2670 4047 
Q 2441 4250 2034 4250 
Q 1625 4250 1398 4047 
Q 1172 3844 1172 3481 
z
" transform="scale(0.015625)"/>
      </defs>
      <use xlink:href="#DejaVuSans-38"/>
     </g>
    </g>
   </g>
  </g>
 </g>
 <defs>
  <clipPath id="p184b21ff9c">
   <rect x="0" y="0" width="1296" height="1152"/>
  </clipPath>
 </defs>
</svg>
 </clipPath>
 </defs>
</svg>
034 2216 
z
M 1403 2484 
Q 997 2584 770 2862 
Q 544 3141 544 3541 
Q 544 4100 942 4425 
Q 1341 4750 2034 4750 
Q 2731 4750 3128 4425 
Q 3525 4100 3525 3541 
Q 3525 3141 3298 2862 
Q 3072 2584 2669 2484 
Q 3125 2378 3379 2068 
Q 3634 1759 3634 1313 
Q 3634 634 3220 271 
Q 2806 -91 2034 -91 
Q 1263 -91 848 271 
Q 434 634 434 1313 
Q 434 1759 690 2068 
Q 947 2378 1403 2484 
z
M 1172 3481 
Q 1172 3119 1398 2916 
Q 1625 2713 2034 2713 
Q 2441 2713 2670 2916 
Q 2900 3119 2900 3481 
Q 2900 3844 2670 4047 
Q 2441 4250 2034 4250 
Q 1625 4250 1398 4047 
Q 1172 3844 1172 3481 
z
" transform="scale(0.015625)"/>
      </defs>
      <use xlink:href="#DejaVuSans-38"/>
     </g>
    </g>
   </g>
  </g>
 </g>
 <defs>
  <clipPath id="p67b7429c7c">
   <rect x="0" y="0" width="1296" height="1152"/>
  </clipPath>
 </defs>
</svg>
>
</svg>
