<?xml version="1.0" encoding="utf-8" standalone="no"?>
<!DOCTYPE svg PUBLIC "-//W3C//DTD SVG 1.1//EN"
  "http://www.w3.org/Graphics/SVG/1.1/DTD/svg11.dtd">
<svg xmlns:xlink="http://www.w3.org/1999/xlink" width="1296pt" height="1152pt" viewBox="0 0 1296 1152" xmlns="http://www.w3.org/2000/svg" version="1.1">
 <metadata>
  <rdf:RDF xmlns:dc="http://purl.org/dc/elements/1.1/" xmlns:cc="http://creativecommons.org/ns#" xmlns:rdf="http://www.w3.org/1999/02/22-rdf-syntax-ns#">
   <cc:Work>
    <dc:type rdf:resource="http://purl.org/dc/dcmitype/StillImage"/>
    <dc:date>2025-02-13T10:46:53.353163</dc:date>
    <dc:format>image/svg+xml</dc:format>
    <dc:creator>
     <cc:Agent>
      <dc:title>Matplotlib v3.9.1, https://matplotlib.org/</dc:title>
     </cc:Agent>
    </dc:creator>
   </cc:Work>
  </rdf:RDF>
 </metadata>
 <defs>
  <style type="text/css">*{stroke-linejoin: round; stroke-linecap: butt}</style>
 </defs>
 <g id="figure_1">
  <g id="patch_1">
   <path d="M 0 1152 
L 1296 1152 
L 1296 0 
L 0 0 
z
" style="fill: #ffffff"/>
  </g>
  <g id="axes_1">
   <g id="patch_2">
    <path d="M 274.925183 428.542614 
Q 518.690948 516.612353 762.456713 604.682093 
" clip-path="url(#pa4dfcab130)" style="fill: none; stroke: #000000; stroke-linecap: round"/>
   </g>
   <g id="patch_3">
    <path d="M 271.33603 431.713823 
Q 312.51821 611.475723 353.70039 791.237622 
" clip-path="url(#pa4dfcab130)" style="fill: none; stroke: #000000; stroke-linecap: round"/>
   </g>
   <g id="patch_4">
    <path d="M 274.933677 428.508573 
Q 422.692394 480.728763 570.45111 532.948954 
" clip-path="url(#pa4dfcab130)" style="fill: none; stroke: #000000; stroke-linecap: round"/>
   </g>
   <g id="patch_5">
    <path d="M 274.933677 428.508573 
Q 422.692394 480.728763 570.45111 532.948954 
" clip-path="url(#pa4dfcab130)" style="fill: none; stroke: #000000; stroke-linecap: round"/>
   </g>
   <g id="patch_6">
    <path d="M 274.755713 424.745638 
Q 405.698836 364.202961 536.641959 303.660283 
" clip-path="url(#pa4dfcab130)" style="fill: none; stroke: #000000; stroke-linecap: round"/>
   </g>
   <g id="patch_7">
    <path d="M 275.197768 426.392827 
Q 346.796294 419.921586 418.39482 413.450346 
" clip-path="url(#pa4dfcab130)" style="fill: none; stroke: #000000; stroke-linecap: round"/>
   </g>
   <g id="patch_8">
    <path d="M 269.356307 421.914097 
Q 244.879722 282.255031 220.403137 142.595965 
" clip-path="url(#pa4dfcab130)" style="fill: none; stroke: #000000; stroke-linecap: round"/>
   </g>
   <g id="patch_9">
    <path d="M 272.019157 422.1767 
Q 333.236812 263.403486 394.454467 104.630272 
" clip-path="url(#pa4dfcab130)" style="fill: none; stroke: #000000; stroke-linecap: round"/>
   </g>
   <g id="patch_10">
    <path d="M 266.655054 423.336593 
Q 191.341168 349.267307 116.027282 275.19802 
" clip-path="url(#pa4dfcab130)" style="fill: none; stroke: #000000; stroke-linecap: round"/>
   </g>
   <g id="patch_11">
    <path d="M 762.622718 608.470941 
Q 560.989506 701.246728 359.356294 794.022515 
" clip-path="url(#pa4dfcab130)" style="fill: none; stroke: #000000; stroke-linecap: round"/>
   </g>
   <g id="patch_12">
    <path d="M 762.477817 604.631139 
Q 671.16374 570.498573 579.849664 536.366007 
" clip-path="url(#pa4dfcab130)" style="fill: none; stroke: #000000; stroke-linecap: round"/>
   </g>
   <g id="patch_13">
    <path d="M 762.477817 604.631139 
Q 671.16374 570.498573 579.849664 536.366007 
" clip-path="url(#pa4dfcab130)" style="fill: none; stroke: #000000; stroke-linecap: round"/>
   </g>
   <g id="patch_14">
    <path d="M 772.140308 605.907222 
Q 857.634425 597.750213 943.128542 589.593204 
" clip-path="url(#pa4dfcab130)" style="fill: none; stroke: #000000; stroke-linecap: round"/>
   </g>
   <g id="patch_15">
    <path d="M 769.919248 602.21029 
Q 827.028784 515.790127 884.138319 429.369964 
" clip-path="url(#pa4dfcab130)" style="fill: none; stroke: #000000; stroke-linecap: round"/>
   </g>
   <g id="patch_16">
    <path d="M 771.955941 604.954645 
Q 975.349087 544.384706 1178.742233 483.814767 
" clip-path="url(#pa4dfcab130)" style="fill: none; stroke: #000000; stroke-linecap: round"/>
   </g>
   <g id="patch_17">
    <path d="M 358.039605 792.286666 
Q 464.991387 665.362631 571.943169 538.438596 
" clip-path="url(#pa4dfcab130)" style="fill: none; stroke: #000000; stroke-linecap: round"/>
   </g>
   <g id="patch_18">
    <path d="M 358.039605 792.286666 
Q 464.991387 665.362631 571.943169 538.438596 
" clip-path="url(#pa4dfcab130)" style="fill: none; stroke: #000000; stroke-linecap: round"/>
   </g>
   <g id="patch_19">
    <path d="M 359.761831 795.365984 
Q 455.398681 780.95339 551.035531 766.540796 
" clip-path="url(#pa4dfcab130)" style="fill: none; stroke: #000000; stroke-linecap: round"/>
   </g>
   <g id="patch_20">
    <path d="M 359.805367 796.450984 
Q 525.179624 807.715502 690.55388 818.980019 
" clip-path="url(#pa4dfcab130)" style="fill: none; stroke: #000000; stroke-linecap: round"/>
   </g>
   <g id="patch_21">
    <path d="M 356.948766 800.637154 
Q 415.091426 924.073786 473.234086 1047.510417 
" clip-path="url(#pa4dfcab130)" style="fill: none; stroke: #000000; stroke-linecap: round"/>
   </g>
   <g id="patch_22">
    <path d="M 574.443861 529.668391 
Q 558.174006 418.087551 541.90415 306.50671 
" clip-path="url(#pa4dfcab130)" style="fill: none; stroke: #000000; stroke-linecap: round"/>
   </g>
   <g id="patch_23">
    <path d="M 574.443861 529.668391 
Q 558.174006 418.087551 541.90415 306.50671 
" clip-path="url(#pa4dfcab130)" style="fill: none; stroke: #000000; stroke-linecap: round"/>
   </g>
   <g id="patch_24">
    <path d="M 580.113103 535.338088 
Q 761.633613 561.866609 943.154124 588.395131 
" clip-path="url(#pa4dfcab130)" style="fill: none; stroke: #000000; stroke-linecap: round"/>
   </g>
   <g id="patch_25">
    <path d="M 580.113103 535.338088 
Q 761.633613 561.866609 943.154124 588.395131 
" clip-path="url(#pa4dfcab130)" style="fill: none; stroke: #000000; stroke-linecap: round"/>
   </g>
   <g id="patch_26">
    <path d="M 574.751459 539.599376 
Q 565.571742 650.207371 556.392025 760.815366 
" clip-path="url(#pa4dfcab130)" style="fill: none; stroke: #000000; stroke-linecap: round"/>
   </g>
   <g id="patch_27">
    <path d="M 574.751459 539.599376 
Q 565.571742 650.207371 556.392025 760.815366 
" clip-path="url(#pa4dfcab130)" style="fill: none; stroke: #000000; stroke-linecap: round"/>
   </g>
   <g id="patch_28">
    <path d="M 571.262409 531.488121 
Q 499.268791 473.80724 427.275174 416.126358 
" clip-path="url(#pa4dfcab130)" style="fill: none; stroke: #000000; stroke-linecap: round"/>
   </g>
   <g id="patch_29">
    <path d="M 571.262409 531.488121 
Q 499.268791 473.80724 427.275174 416.126358 
" clip-path="url(#pa4dfcab130)" style="fill: none; stroke: #000000; stroke-linecap: round"/>
   </g>
   <g id="patch_30">
    <path d="M 579.881337 532.959566 
Q 731.029949 479.906154 882.178562 426.852741 
" clip-path="url(#pa4dfcab130)" style="fill: none; stroke: #000000; stroke-linecap: round"/>
   </g>
   <g id="patch_31">
    <path d="M 579.881337 532.959566 
Q 731.029949 479.906154 882.178562 426.852741 
" clip-path="url(#pa4dfcab130)" style="fill: none; stroke: #000000; stroke-linecap: round"/>
   </g>
   <g id="patch_32">
    <path d="M 577.113967 539.224211 
Q 635.354406 676.970461 693.594846 814.716711 
" clip-path="url(#pa4dfcab130)" style="fill: none; stroke: #000000; stroke-linecap: round"/>
   </g>
   <g id="patch_33">
    <path d="M 577.113967 539.224211 
Q 635.354406 676.970461 693.594846 814.716711 
" clip-path="url(#pa4dfcab130)" style="fill: none; stroke: #000000; stroke-linecap: round"/>
   </g>
   <g id="patch_34">
    <path d="M 571.830608 530.893027 
Q 397.353254 336.14467 222.8759 141.396312 
" clip-path="url(#pa4dfcab130)" style="fill: none; stroke: #000000; stroke-linecap: round"/>
   </g>
   <g id="patch_35">
    <path d="M 573.260964 529.989 
Q 485.708132 317.2893 398.155299 104.589601 
" clip-path="url(#pa4dfcab130)" style="fill: none; stroke: #000000; stroke-linecap: round"/>
   </g>
   <g id="patch_36">
    <path d="M 570.819532 532.14565 
Q 343.814546 403.154034 116.809561 274.162418 
" clip-path="url(#pa4dfcab130)" style="fill: none; stroke: #000000; stroke-linecap: round"/>
   </g>
   <g id="patch_37">
    <path d="M 580.145473 534.187404 
Q 879.348529 508.501127 1178.551585 482.81485 
" clip-path="url(#pa4dfcab130)" style="fill: none; stroke: #000000; stroke-linecap: round"/>
   </g>
   <g id="patch_38">
    <path d="M 574.218688 539.521812 
Q 525.264802 793.323815 476.310915 1047.125819 
" clip-path="url(#pa4dfcab130)" style="fill: none; stroke: #000000; stroke-linecap: round"/>
   </g>
   <g id="patch_39">
    <path d="M 545.265459 304.445679 
Q 744.642361 445.33888 944.019263 586.23208 
" clip-path="url(#pa4dfcab130)" style="fill: none; stroke: #000000; stroke-linecap: round"/>
   </g>
   <g id="patch_40">
    <path d="M 541.34224 306.558238 
Q 548.580784 533.677154 555.819328 760.796071 
" clip-path="url(#pa4dfcab130)" style="fill: none; stroke: #000000; stroke-linecap: round"/>
   </g>
   <g id="patch_41">
    <path d="M 537.548155 304.998989 
Q 482.277909 357.280842 427.007663 409.562695 
" clip-path="url(#pa4dfcab130)" style="fill: none; stroke: #000000; stroke-linecap: round"/>
   </g>
   <g id="patch_42">
    <path d="M 536.729065 299.291304 
Q 380.362298 219.617311 223.99553 139.943317 
" clip-path="url(#pa4dfcab130)" style="fill: none; stroke: #000000; stroke-linecap: round"/>
   </g>
   <g id="patch_43">
    <path d="M 538.266042 297.503366 
Q 468.718711 200.765195 399.171379 104.027025 
" clip-path="url(#pa4dfcab130)" style="fill: none; stroke: #000000; stroke-linecap: round"/>
   </g>
   <g id="patch_44">
    <path d="M 536.194878 301.213199 
Q 326.822964 286.626587 117.45105 272.039975 
" clip-path="url(#pa4dfcab130)" style="fill: none; stroke: #000000; stroke-linecap: round"/>
   </g>
   <g id="patch_45">
    <path d="M 943.547504 591.171425 
Q 752.041394 677.457121 560.535284 763.742816 
" clip-path="url(#pa4dfcab130)" style="fill: none; stroke: #000000; stroke-linecap: round"/>
   </g>
   <g id="patch_46">
    <path d="M 946.354527 584.433678 
Q 917.499427 507.156365 888.644326 429.879052 
" clip-path="url(#pa4dfcab130)" style="fill: none; stroke: #000000; stroke-linecap: round"/>
   </g>
   <g id="patch_47">
    <path d="M 952.655435 587.05508 
Q 1065.818708 535.753492 1178.981982 484.451905 
" clip-path="url(#pa4dfcab130)" style="fill: none; stroke: #000000; stroke-linecap: round"/>
   </g>
   <g id="patch_48">
    <path d="M 560.650916 767.587718 
Q 625.759854 792.557787 690.868792 817.527857 
" clip-path="url(#pa4dfcab130)" style="fill: none; stroke: #000000; stroke-linecap: round"/>
   </g>
   <g id="patch_49">
    <path d="M 554.624363 770.604622 
Q 515.672255 908.911909 476.720146 1047.219196 
" clip-path="url(#pa4dfcab130)" style="fill: none; stroke: #000000; stroke-linecap: round"/>
   </g>
   <g id="patch_50">
    <path d="M 428.370431 413.131844 
Q 655.133713 419.098605 881.896995 425.065365 
" clip-path="url(#pa4dfcab130)" style="fill: none; stroke: #000000; stroke-linecap: round"/>
   </g>
   <g id="patch_51">
    <path d="M 426.158054 417.157422 
Q 559.459186 616.162897 692.760317 815.168373 
" clip-path="url(#pa4dfcab130)" style="fill: none; stroke: #000000; stroke-linecap: round"/>
   </g>
   <g id="patch_52">
    <path d="M 420.398552 408.981954 
Q 321.45669 275.336473 222.514828 141.690993 
" clip-path="url(#pa4dfcab130)" style="fill: none; stroke: #000000; stroke-linecap: round"/>
   </g>
   <g id="patch_53">
    <path d="M 422.941874 408.01846 
Q 409.81282 256.481612 396.683766 104.944764 
" clip-path="url(#pa4dfcab130)" style="fill: none; stroke: #000000; stroke-linecap: round"/>
   </g>
   <g id="patch_54">
    <path d="M 418.821519 410.931499 
Q 267.917557 342.346134 117.013594 273.760769 
" clip-path="url(#pa4dfcab130)" style="fill: none; stroke: #000000; stroke-linecap: round"/>
   </g>
   <g id="patch_55">
    <path d="M 884.713442 429.692247 
Q 791.219077 622.257196 697.724711 814.822145 
" clip-path="url(#pa4dfcab130)" style="fill: none; stroke: #000000; stroke-linecap: round"/>
   </g>
   <g id="patch_56">
    <path d="M 891.807155 426.143728 
Q 1035.217199 453.791986 1178.627244 481.440245 
" clip-path="url(#pa4dfcab130)" style="fill: none; stroke: #000000; stroke-linecap: round"/>
   </g>
   <g id="patch_57">
    <path d="M 692.104142 822.952316 
Q 585.452352 935.676778 478.800563 1048.401239 
" clip-path="url(#pa4dfcab130)" style="fill: none; stroke: #000000; stroke-linecap: round"/>
   </g>
   <g id="patch_58">
    <path d="M 224.428985 136.630162 
Q 307.895892 118.820226 391.362799 101.010291 
" clip-path="url(#pa4dfcab130)" style="fill: none; stroke: #000000; stroke-linecap: round"/>
   </g>
   <g id="patch_59">
    <path d="M 216.418055 141.581215 
Q 166.000491 204.684252 115.582927 267.787289 
" clip-path="url(#pa4dfcab130)" style="fill: none; stroke: #000000; stroke-linecap: round"/>
   </g>
   <g id="patch_60">
    <path d="M 391.976332 102.554511 
Q 254.358488 185.82919 116.740643 269.10387 
" clip-path="url(#pa4dfcab130)" style="fill: none; stroke: #000000; stroke-linecap: round"/>
   </g>
   <g id="PathCollection_1">
    <defs>
     <path id="mc4dbe88b9e" d="M 0 5 
C 1.326016 5 2.597899 4.473168 3.535534 3.535534 
C 4.473168 2.597899 5 1.326016 5 0 
C 5 -1.326016 4.473168 -2.597899 3.535534 -3.535534 
C 2.597899 -4.473168 1.326016 -5 0 -5 
C -1.326016 -5 -2.597899 -4.473168 -3.535534 -3.535534 
C -4.473168 -2.597899 -5 -1.326016 -5 0 
C -5 1.326016 -4.473168 2.597899 -3.535534 3.535534 
C -2.597899 4.473168 -1.326016 5 0 5 
z
" style="stroke: #0000ff"/>
    </defs>
    <g clip-path="url(#pa4dfcab130)">
     <use xlink:href="#mc4dbe88b9e" x="270.220095" y="426.84272" style="fill: #0000ff; stroke: #0000ff"/>
     <use xlink:href="#mc4dbe88b9e" x="767.162318" y="606.382173" style="fill: #0000ff; stroke: #0000ff"/>
     <use xlink:href="#mc4dbe88b9e" x="354.816891" y="796.111192" style="fill: #0000ff; stroke: #0000ff"/>
     <use xlink:href="#mc4dbe88b9e" x="575.165132" y="534.614961" style="fill: #0000ff; stroke: #0000ff"/>
     <use xlink:href="#mc4dbe88b9e" x="541.182963" y="301.560711" style="fill: #0000ff; stroke: #0000ff"/>
     <use xlink:href="#mc4dbe88b9e" x="948.103829" y="589.118511" style="fill: #0000ff; stroke: #0000ff"/>
     <use xlink:href="#mc4dbe88b9e" x="555.978677" y="765.795858" style="fill: #0000ff; stroke: #0000ff"/>
     <use xlink:href="#mc4dbe88b9e" x="423.373503" y="413.000361" style="fill: #0000ff; stroke: #0000ff"/>
     <use xlink:href="#mc4dbe88b9e" x="886.896027" y="425.196903" style="fill: #0000ff; stroke: #0000ff"/>
     <use xlink:href="#mc4dbe88b9e" x="695.541042" y="819.319721" style="fill: #0000ff; stroke: #0000ff"/>
     <use xlink:href="#mc4dbe88b9e" x="219.540388" y="137.673277" style="fill: #0000ff; stroke: #0000ff"/>
     <use xlink:href="#mc4dbe88b9e" x="396.252491" y="99.966942" style="fill: #0000ff; stroke: #0000ff"/>
     <use xlink:href="#mc4dbe88b9e" x="112.46281" y="271.692452" style="fill: #0000ff; stroke: #0000ff"/>
     <use xlink:href="#mc4dbe88b9e" x="1183.53719" y="482.386841" style="fill: #0000ff; stroke: #0000ff"/>
     <use xlink:href="#mc4dbe88b9e" x="475.364396" y="1052.033058" style="fill: #0000ff; stroke: #0000ff"/>
    </g>
   </g>
   <g id="text_1">
    <g clip-path="url(#pa4dfcab130)">
     <!-- 0 -->
     <g transform="translate(265.44822 430.981783) scale(0.15 -0.15)">
      <defs>
       <path id="DejaVuSans-30" d="M 2034 4250 
Q 1547 4250 1301 3770 
Q 1056 3291 1056 2328 
Q 1056 1369 1301 889 
Q 1547 409 2034 409 
Q 2525 409 2770 889 
Q 3016 1369 3016 2328 
Q 3016 3291 2770 3770 
Q 2525 4250 2034 4250 
z
M 2034 4750 
Q 2819 4750 3233 4129 
Q 3647 3509 3647 2328 
Q 3647 1150 3233 529 
Q 2819 -91 2034 -91 
Q 1250 -91 836 529 
Q 422 1150 422 2328 
Q 422 3509 836 4129 
Q 1250 4750 2034 4750 
z
" transform="scale(0.015625)"/>
      </defs>
      <use xlink:href="#DejaVuSans-30"/>
     </g>
    </g>
   </g>
   <g id="text_2">
    <g clip-path="url(#pa4dfcab130)">
     <!-- 1 -->
     <g transform="translate(762.390443 610.521236) scale(0.15 -0.15)">
      <defs>
       <path id="DejaVuSans-31" d="M 794 531 
L 1825 531 
L 1825 4091 
L 703 3866 
L 703 4441 
L 1819 4666 
L 2450 4666 
L 2450 531 
L 3481 531 
L 3481 0 
L 794 0 
L 794 531 
z
" transform="scale(0.015625)"/>
      </defs>
      <use xlink:href="#DejaVuSans-31"/>
     </g>
    </g>
   </g>
   <g id="text_3">
    <g clip-path="url(#pa4dfcab130)">
     <!-- 2 -->
     <g transform="translate(350.045016 800.250255) scale(0.15 -0.15)">
      <defs>
       <path id="DejaVuSans-32" d="M 1228 531 
L 3431 531 
L 3431 0 
L 469 0 
L 469 531 
Q 828 903 1448 1529 
Q 2069 2156 2228 2338 
Q 2531 2678 2651 2914 
Q 2772 3150 2772 3378 
Q 2772 3750 2511 3984 
Q 2250 4219 1831 4219 
Q 1534 4219 1204 4116 
Q 875 4013 500 3803 
L 500 4441 
Q 881 4594 1212 4672 
Q 1544 4750 1819 4750 
Q 2544 4750 2975 4387 
Q 3406 4025 3406 3419 
Q 3406 3131 3298 2873 
Q 3191 2616 2906 2266 
Q 2828 2175 2409 1742 
Q 1991 1309 1228 531 
z
" transform="scale(0.015625)"/>
      </defs>
      <use xlink:href="#DejaVuSans-32"/>
     </g>
    </g>
   </g>
   <g id="text_4">
    <g clip-path="url(#pa4dfcab130)">
     <!-- 14 -->
     <g transform="translate(565.621382 538.754024) scale(0.15 -0.15)">
      <defs>
       <path id="DejaVuSans-34" d="M 2419 4116 
L 825 1625 
L 2419 1625 
L 2419 4116 
z
M 2253 4666 
L 3047 4666 
L 3047 1625 
L 3713 1625 
L 3713 1100 
L 3047 1100 
L 3047 0 
L 2419 0 
L 2419 1100 
L 313 1100 
L 313 1709 
L 2253 4666 
z
" transform="scale(0.015625)"/>
      </defs>
      <use xlink:href="#DejaVuSans-31"/>
      <use xlink:href="#DejaVuSans-34" x="63.623047"/>
     </g>
    </g>
   </g>
   <g id="text_5">
    <g clip-path="url(#pa4dfcab130)">
     <!-- 3 -->
     <g transform="translate(536.411088 305.699774) scale(0.15 -0.15)">
      <defs>
       <path id="DejaVuSans-33" d="M 2597 2516 
Q 3050 2419 3304 2112 
Q 3559 1806 3559 1356 
Q 3559 666 3084 287 
Q 2609 -91 1734 -91 
Q 1441 -91 1130 -33 
Q 819 25 488 141 
L 488 750 
Q 750 597 1062 519 
Q 1375 441 1716 441 
Q 2309 441 2620 675 
Q 2931 909 2931 1356 
Q 2931 1769 2642 2001 
Q 2353 2234 1838 2234 
L 1294 2234 
L 1294 2753 
L 1863 2753 
Q 2328 2753 2575 2939 
Q 2822 3125 2822 3475 
Q 2822 3834 2567 4026 
Q 2313 4219 1838 4219 
Q 1578 4219 1281 4162 
Q 984 4106 628 3988 
L 628 4550 
Q 988 4650 1302 4700 
Q 1616 4750 1894 4750 
Q 2613 4750 3031 4423 
Q 3450 4097 3450 3541 
Q 3450 3153 3228 2886 
Q 3006 2619 2597 2516 
z
" transform="scale(0.015625)"/>
      </defs>
      <use xlink:href="#DejaVuSans-33"/>
     </g>
    </g>
   </g>
   <g id="text_6">
    <g clip-path="url(#pa4dfcab130)">
     <!-- 4 -->
     <g transform="translate(943.331954 593.257573) scale(0.15 -0.15)">
      <use xlink:href="#DejaVuSans-34"/>
     </g>
    </g>
   </g>
   <g id="text_7">
    <g clip-path="url(#pa4dfcab130)">
     <!-- 5 -->
     <g transform="translate(551.206802 769.93492) scale(0.15 -0.15)">
      <defs>
       <path id="DejaVuSans-35" d="M 691 4666 
L 3169 4666 
L 3169 4134 
L 1269 4134 
L 1269 2991 
Q 1406 3038 1543 3061 
Q 1681 3084 1819 3084 
Q 2600 3084 3056 2656 
Q 3513 2228 3513 1497 
Q 3513 744 3044 326 
Q 2575 -91 1722 -91 
Q 1428 -91 1123 -41 
Q 819 9 494 109 
L 494 744 
Q 775 591 1075 516 
Q 1375 441 1709 441 
Q 2250 441 2565 725 
Q 2881 1009 2881 1497 
Q 2881 1984 2565 2268 
Q 2250 2553 1709 2553 
Q 1456 2553 1204 2497 
Q 953 2441 691 2322 
L 691 4666 
z
" transform="scale(0.015625)"/>
      </defs>
      <use xlink:href="#DejaVuSans-35"/>
     </g>
    </g>
   </g>
   <g id="text_8">
    <g clip-path="url(#pa4dfcab130)">
     <!-- 6 -->
     <g transform="translate(418.601628 417.139424) scale(0.15 -0.15)">
      <defs>
       <path id="DejaVuSans-36" d="M 2113 2584 
Q 1688 2584 1439 2293 
Q 1191 2003 1191 1497 
Q 1191 994 1439 701 
Q 1688 409 2113 409 
Q 2538 409 2786 701 
Q 3034 994 3034 1497 
Q 3034 2003 2786 2293 
Q 2538 2584 2113 2584 
z
M 3366 4563 
L 3366 3988 
Q 3128 4100 2886 4159 
Q 2644 4219 2406 4219 
Q 1781 4219 1451 3797 
Q 1122 3375 1075 2522 
Q 1259 2794 1537 2939 
Q 1816 3084 2150 3084 
Q 2853 3084 3261 2657 
Q 3669 2231 3669 1497 
Q 3669 778 3244 343 
Q 2819 -91 2113 -91 
Q 1303 -91 875 529 
Q 447 1150 447 2328 
Q 447 3434 972 4092 
Q 1497 4750 2381 4750 
Q 2619 4750 2861 4703 
Q 3103 4656 3366 4563 
z
" transform="scale(0.015625)"/>
      </defs>
      <use xlink:href="#DejaVuSans-36"/>
     </g>
    </g>
   </g>
   <g id="text_9">
    <g clip-path="url(#pa4dfcab130)">
     <!-- 7 -->
     <g transform="translate(882.124152 429.335966) scale(0.15 -0.15)">
      <defs>
       <path id="DejaVuSans-37" d="M 525 4666 
L 3525 4666 
L 3525 4397 
L 1831 0 
L 1172 0 
L 2766 4134 
L 525 4134 
L 525 4666 
z
" transform="scale(0.015625)"/>
      </defs>
      <use xlink:href="#DejaVuSans-37"/>
     </g>
    </g>
   </g>
   <g id="text_10">
    <g clip-path="url(#pa4dfcab130)">
     <!-- 8 -->
     <g transform="translate(690.769167 823.458784) scale(0.15 -0.15)">
      <defs>
       <path id="DejaVuSans-38" d="M 2034 2216 
Q 1584 2216 1326 1975 
Q 1069 1734 1069 1313 
Q 1069 891 1326 650 
Q 1584 409 2034 409 
Q 2484 409 2743 651 
Q 3003 894 3003 1313 
Q 3003 1734 2745 1975 
Q 2488 2216 2034 2216 
z
M 1403 2484 
Q 997 2584 770 2862 
Q 544 3141 544 3541 
Q 544 4100 942 4425 
Q 1341 4750 2034 4750 
Q 2731 4750 3128 4425 
Q 3525 4100 3525 3541 
Q 3525 3141 3298 2862 
Q 3072 2584 2669 2484 
Q 3125 2378 3379 2068 
Q 3634 1759 3634 1313 
Q 3634 634 3220 271 
Q 2806 -91 2034 -91 
Q 1263 -91 848 271 
Q 434 634 434 1313 
Q 434 1759 690 2068 
Q 947 2378 1403 2484 
z
M 1172 3481 
Q 1172 3119 1398 2916 
Q 1625 2713 2034 2713 
Q 2441 2713 2670 2916 
Q 2900 3119 2900 3481 
Q 2900 3844 2670 4047 
Q 2441 4250 2034 4250 
Q 1625 4250 1398 4047 
Q 1172 3844 1172 3481 
z
" transform="scale(0.015625)"/>
      </defs>
      <use xlink:href="#DejaVuSans-38"/>
     </g>
    </g>
   </g>
   <g id="text_11">
    <g clip-path="url(#pa4dfcab130)">
     <!-- 9 -->
     <g transform="translate(214.768513 141.812339) scale(0.15 -0.15)">
      <defs>
       <path id="DejaVuSans-39" d="M 703 97 
L 703 672 
Q 941 559 1184 500 
Q 1428 441 1663 441 
Q 2288 441 2617 861 
Q 2947 1281 2994 2138 
Q 2813 1869 2534 1725 
Q 2256 1581 1919 1581 
Q 1219 1581 811 2004 
Q 403 2428 403 3163 
Q 403 3881 828 4315 
Q 1253 4750 1959 4750 
Q 2769 4750 3195 4129 
Q 3622 3509 3622 2328 
Q 3622 1225 3098 567 
Q 2575 -91 1691 -91 
Q 1453 -91 1209 -44 
Q 966 3 703 97 
z
M 1959 2075 
Q 2384 2075 2632 2365 
Q 2881 2656 2881 3163 
Q 2881 3666 2632 3958 
Q 2384 4250 1959 4250 
Q 1534 4250 1286 3958 
Q 1038 3666 1038 3163 
Q 1038 2656 1286 2365 
Q 1534 2075 1959 2075 
z
" transform="scale(0.015625)"/>
      </defs>
      <use xlink:href="#DejaVuSans-39"/>
     </g>
    </g>
   </g>
   <g id="text_12">
    <g clip-path="url(#pa4dfcab130)">
     <!-- 10 -->
     <g transform="translate(386.708741 104.106005) scale(0.15 -0.15)">
      <use xlink:href="#DejaVuSans-31"/>
      <use xlink:href="#DejaVuSans-30" x="63.623047"/>
     </g>
    </g>
   </g>
   <g id="text_13">
    <g clip-path="url(#pa4dfcab130)">
     <!-- 11 -->
     <g transform="translate(102.91906 275.831515) scale(0.15 -0.15)">
      <use xlink:href="#DejaVuSans-31"/>
      <use xlink:href="#DejaVuSans-31" x="63.623047"/>
     </g>
    </g>
   </g>
   <g id="text_14">
    <g clip-path="url(#pa4dfcab130)">
     <!-- 12 -->
     <g transform="translate(1173.99344 486.525904) scale(0.15 -0.15)">
      <use xlink:href="#DejaVuSans-31"/>
      <use xlink:href="#DejaVuSans-32" x="63.623047"/>
     </g>
    </g>
   </g>
   <g id="text_15">
    <g clip-path="url(#pa4dfcab130)">
     <!-- 13 -->
     <g transform="translate(465.820646 1056.17212) scale(0.15 -0.15)">
      <use xlink:href="#DejaVuSans-31"/>
      <use xlink:href="#DejaVuSans-33" x="63.623047"/>
     </g>
    </g>
   </g>
  </g>
 </g>
 <defs>
  <clipPath id="pa4dfcab130">
   <rect x="0" y="0" width="1296" height="1152"/>
  </clipPath>
 </defs>
</svg>
defs>
</svg>

</svg>
lipPath>
 </defs>
</svg>

