<?xml version="1.0" encoding="utf-8" standalone="no"?>
<!DOCTYPE svg PUBLIC "-//W3C//DTD SVG 1.1//EN"
  "http://www.w3.org/Graphics/SVG/1.1/DTD/svg11.dtd">
<svg xmlns:xlink="http://www.w3.org/1999/xlink" width="576pt" height="432pt" viewBox="0 0 576 432" xmlns="http://www.w3.org/2000/svg" version="1.1">
 <metadata>
  <rdf:RDF xmlns:dc="http://purl.org/dc/elements/1.1/" xmlns:cc="http://creativecommons.org/ns#" xmlns:rdf="http://www.w3.org/1999/02/22-rdf-syntax-ns#">
   <cc:Work>
    <dc:type rdf:resource="http://purl.org/dc/dcmitype/StillImage"/>
    <dc:date>2025-02-12T21:05:33.949220</dc:date>
    <dc:format>image/svg+xml</dc:format>
    <dc:creator>
     <cc:Agent>
      <dc:title>Matplotlib v3.9.1, https://matplotlib.org/</dc:title>
     </cc:Agent>
    </dc:creator>
   </cc:Work>
  </rdf:RDF>
 </metadata>
 <defs>
  <style type="text/css">*{stroke-linejoin: round; stroke-linecap: butt}</style>
 </defs>
 <g id="figure_1">
  <g id="patch_1">
   <path d="M 0 432 
L 576 432 
L 576 0 
L 0 0 
z
" style="fill: #ffffff"/>
  </g>
  <g id="axes_1">
   <g id="patch_2">
    <path d="M 262.387815 311.632896 
Q 222.156037 286.636376 181.92426 261.639855 
" clip-path="url(#paf646c44aa)" style="fill: none; stroke: #808080; stroke-linecap: round"/>
   </g>
   <g id="patch_3">
    <path d="M 276.247385 304.175375 
Q 278.100114 235.681293 279.952843 167.187211 
" clip-path="url(#paf646c44aa)" style="fill: none; stroke: #808080; stroke-linecap: round"/>
   </g>
   <g id="patch_4">
    <path d="M 289.443839 311.955611 
Q 331.35944 287.272436 373.275042 262.58926 
" clip-path="url(#paf646c44aa)" style="fill: none; stroke: #808080; stroke-linecap: round"/>
   </g>
   <g id="patch_5">
    <path d="M 277.912579 304.307925 
Q 282.602545 269.187923 287.292511 234.067921 
" clip-path="url(#paf646c44aa)" style="fill: none; stroke: #808080; stroke-linecap: round"/>
   </g>
   <g id="patch_6">
    <path d="M 277.912579 304.307925 
Q 282.602545 269.187923 287.292511 234.067921 
" clip-path="url(#paf646c44aa)" style="fill: none; stroke: #808080; stroke-linecap: round"/>
   </g>
   <g id="patch_7">
    <path d="M 290.836208 315.040847 
Q 309.695057 308.839763 328.553906 302.638679 
" clip-path="url(#paf646c44aa)" style="fill: none; stroke: #808080; stroke-linecap: round"/>
   </g>
   <g id="patch_8">
    <path d="M 263.642927 309.893369 
Q 254.101108 301.990771 244.559289 294.088173 
" clip-path="url(#paf646c44aa)" style="fill: none; stroke: #808080; stroke-linecap: round"/>
   </g>
   <g id="patch_9">
    <path d="M 284.590415 333.136974 
Q 300.65884 357.244734 316.727265 381.352493 
" clip-path="url(#paf646c44aa)" style="fill: none; stroke: #808080; stroke-linecap: round"/>
   </g>
   <g id="patch_10">
    <path d="M 268.264977 333.868995 
Q 255.986863 356.443598 243.70875 379.018201 
" clip-path="url(#paf646c44aa)" style="fill: none; stroke: #808080; stroke-linecap: round"/>
   </g>
   <g id="patch_11">
    <path d="M 180.181906 242.649774 
Q 224.436088 202.341262 268.69027 162.03275 
" clip-path="url(#paf646c44aa)" style="fill: none; stroke: #808080; stroke-linecap: round"/>
   </g>
   <g id="patch_12">
    <path d="M 184.307279 253.387514 
Q 277.697329 253.930839 371.087378 254.474164 
" clip-path="url(#paf646c44aa)" style="fill: none; stroke: #808080; stroke-linecap: round"/>
   </g>
   <g id="patch_13">
    <path d="M 183.682945 248.910907 
Q 228.938959 235.846731 274.194973 222.782554 
" clip-path="url(#paf646c44aa)" style="fill: none; stroke: #808080; stroke-linecap: round"/>
   </g>
   <g id="patch_14">
    <path d="M 183.682945 248.910907 
Q 228.938959 235.846731 274.194973 222.782554 
" clip-path="url(#paf646c44aa)" style="fill: none; stroke: #808080; stroke-linecap: round"/>
   </g>
   <g id="patch_15">
    <path d="M 180.273934 242.741991 
Q 195.903589 228.739436 211.533245 214.736881 
" clip-path="url(#paf646c44aa)" style="fill: none; stroke: #808080; stroke-linecap: round"/>
   </g>
   <g id="patch_16">
    <path d="M 164.438277 238.014158 
Q 159.221572 218.358812 154.004867 198.703466 
" clip-path="url(#paf646c44aa)" style="fill: none; stroke: #808080; stroke-linecap: round"/>
   </g>
   <g id="patch_17">
    <path d="M 153.271578 249.016564 
Q 109.238277 236.639081 65.204976 224.261597 
" clip-path="url(#paf646c44aa)" style="fill: none; stroke: #808080; stroke-linecap: round"/>
   </g>
   <g id="patch_18">
    <path d="M 291.735002 162.383902 
Q 333.638078 202.973857 375.541154 243.563812 
" clip-path="url(#paf646c44aa)" style="fill: none; stroke: #808080; stroke-linecap: round"/>
   </g>
   <g id="patch_19">
    <path d="M 282.485853 167.054266 
Q 284.882542 184.889983 287.27923 202.7257 
" clip-path="url(#paf646c44aa)" style="fill: none; stroke: #808080; stroke-linecap: round"/>
   </g>
   <g id="patch_20">
    <path d="M 282.485853 167.054266 
Q 284.882542 184.889983 287.27923 202.7257 
" clip-path="url(#paf646c44aa)" style="fill: none; stroke: #808080; stroke-linecap: round"/>
   </g>
   <g id="patch_21">
    <path d="M 295.227959 145.948886 
Q 315.482253 138.533259 335.736547 131.117631 
" clip-path="url(#paf646c44aa)" style="fill: none; stroke: #808080; stroke-linecap: round"/>
   </g>
   <g id="patch_22">
    <path d="M 267.623129 142.043356 
Q 256.470755 133.876833 245.31838 125.71031 
" clip-path="url(#paf646c44aa)" style="fill: none; stroke: #808080; stroke-linecap: round"/>
   </g>
   <g id="patch_23">
    <path d="M 287.198878 137.116212 
Q 307.268345 95.118231 327.337812 53.120249 
" clip-path="url(#paf646c44aa)" style="fill: none; stroke: #808080; stroke-linecap: round"/>
   </g>
   <g id="patch_24">
    <path d="M 276.100506 136.164161 
Q 264.367747 94.437119 252.634989 52.710076 
" clip-path="url(#paf646c44aa)" style="fill: none; stroke: #808080; stroke-linecap: round"/>
   </g>
   <g id="patch_25">
    <path d="M 372.076477 249.068239 
Q 338.143709 236.482386 304.210941 223.896534 
" clip-path="url(#paf646c44aa)" style="fill: none; stroke: #808080; stroke-linecap: round"/>
   </g>
   <g id="patch_26">
    <path d="M 372.076477 249.068239 
Q 338.143709 236.482386 304.210941 223.896534 
" clip-path="url(#paf646c44aa)" style="fill: none; stroke: #808080; stroke-linecap: round"/>
   </g>
   <g id="patch_27">
    <path d="M 397.589903 242.913561 
Q 410.24662 229.117761 422.903337 215.32196 
" clip-path="url(#paf646c44aa)" style="fill: none; stroke: #808080; stroke-linecap: round"/>
   </g>
   <g id="patch_28">
    <path d="M 381.124215 239.845272 
Q 374.011754 221.715792 366.899293 203.586313 
" clip-path="url(#paf646c44aa)" style="fill: none; stroke: #808080; stroke-linecap: round"/>
   </g>
   <g id="patch_29">
    <path d="M 402.323396 251.095644 
Q 456.456128 238.915355 510.588861 226.735067 
" clip-path="url(#paf646c44aa)" style="fill: none; stroke: #808080; stroke-linecap: round"/>
   </g>
   <g id="patch_30">
    <path d="M 298.307463 231.4539 
Q 316.481414 258.048482 334.655365 284.643064 
" clip-path="url(#paf646c44aa)" style="fill: none; stroke: #808080; stroke-linecap: round"/>
   </g>
   <g id="patch_31">
    <path d="M 298.307463 231.4539 
Q 316.481414 258.048482 334.655365 284.643064 
" clip-path="url(#paf646c44aa)" style="fill: none; stroke: #808080; stroke-linecap: round"/>
   </g>
   <g id="patch_32">
    <path d="M 273.92663 215.073177 
Q 256.345859 211.292395 238.765089 207.511613 
" clip-path="url(#paf646c44aa)" style="fill: none; stroke: #808080; stroke-linecap: round"/>
   </g>
   <g id="patch_33">
    <path d="M 273.92663 215.073177 
Q 256.345859 211.292395 238.765089 207.511613 
" clip-path="url(#paf646c44aa)" style="fill: none; stroke: #808080; stroke-linecap: round"/>
   </g>
   <g id="patch_34">
    <path d="M 298.094304 205.203634 
Q 319.985513 172.039551 341.876723 138.875469 
" clip-path="url(#paf646c44aa)" style="fill: none; stroke: #808080; stroke-linecap: round"/>
   </g>
   <g id="patch_35">
    <path d="M 298.094304 205.203634 
Q 319.985513 172.039551 341.876723 138.875469 
" clip-path="url(#paf646c44aa)" style="fill: none; stroke: #808080; stroke-linecap: round"/>
   </g>
   <g id="patch_36">
    <path d="M 305.118423 216.790648 
Q 361.493277 211.032806 417.868131 205.274963 
" clip-path="url(#paf646c44aa)" style="fill: none; stroke: #808080; stroke-linecap: round"/>
   </g>
   <g id="patch_37">
    <path d="M 305.118423 216.790648 
Q 361.493277 211.032806 417.868131 205.274963 
" clip-path="url(#paf646c44aa)" style="fill: none; stroke: #808080; stroke-linecap: round"/>
   </g>
   <g id="patch_38">
    <path d="M 279.015504 230.332253 
Q 260.88347 251.200874 242.751435 272.069496 
" clip-path="url(#paf646c44aa)" style="fill: none; stroke: #808080; stroke-linecap: round"/>
   </g>
   <g id="patch_39">
    <path d="M 279.015504 230.332253 
Q 260.88347 251.200874 242.751435 272.069496 
" clip-path="url(#paf646c44aa)" style="fill: none; stroke: #808080; stroke-linecap: round"/>
   </g>
   <g id="patch_40">
    <path d="M 274.044857 214.5493 
Q 219.663515 200.907197 165.282172 187.265094 
" clip-path="url(#paf646c44aa)" style="fill: none; stroke: #808080; stroke-linecap: round"/>
   </g>
   <g id="patch_41">
    <path d="M 274.044857 214.5493 
Q 219.663515 200.907197 165.282172 187.265094 
" clip-path="url(#paf646c44aa)" style="fill: none; stroke: #808080; stroke-linecap: round"/>
   </g>
   <g id="patch_42">
    <path d="M 281.69094 204.582276 
Q 260.972961 167.382236 240.254982 130.182195 
" clip-path="url(#paf646c44aa)" style="fill: none; stroke: #808080; stroke-linecap: round"/>
   </g>
   <g id="patch_43">
    <path d="M 281.69094 204.582276 
Q 260.972961 167.382236 240.254982 130.182195 
" clip-path="url(#paf646c44aa)" style="fill: none; stroke: #808080; stroke-linecap: round"/>
   </g>
   <g id="patch_44">
    <path d="M 304.005292 212.379046 
Q 325.255768 203.631086 346.506245 194.883127 
" clip-path="url(#paf646c44aa)" style="fill: none; stroke: #808080; stroke-linecap: round"/>
   </g>
   <g id="patch_45">
    <path d="M 304.005292 212.379046 
Q 325.255768 203.631086 346.506245 194.883127 
" clip-path="url(#paf646c44aa)" style="fill: none; stroke: #808080; stroke-linecap: round"/>
   </g>
   <g id="patch_46">
    <path d="M 292.560842 233.88447 
Q 307.441819 306.454538 322.322795 379.024606 
" clip-path="url(#paf646c44aa)" style="fill: none; stroke: #808080; stroke-linecap: round"/>
   </g>
   <g id="patch_47">
    <path d="M 284.772347 233.51988 
Q 262.769588 305.652319 240.766829 377.784757 
" clip-path="url(#paf646c44aa)" style="fill: none; stroke: #808080; stroke-linecap: round"/>
   </g>
   <g id="patch_48">
    <path d="M 273.5714 218.502287 
Q 169.684006 219.190249 65.796613 219.878211 
" clip-path="url(#paf646c44aa)" style="fill: none; stroke: #808080; stroke-linecap: round"/>
   </g>
   <g id="patch_49">
    <path d="M 293.209968 203.058579 
Q 311.769498 128.627768 330.329027 54.196958 
" clip-path="url(#paf646c44aa)" style="fill: none; stroke: #808080; stroke-linecap: round"/>
   </g>
   <g id="patch_50">
    <path d="M 285.888525 202.980357 
Q 268.870439 127.944737 251.852353 52.909116 
" clip-path="url(#paf646c44aa)" style="fill: none; stroke: #808080; stroke-linecap: round"/>
   </g>
   <g id="patch_51">
    <path d="M 305.196441 218.722713 
Q 407.703447 220.830696 510.210452 222.93868 
" clip-path="url(#paf646c44aa)" style="fill: none; stroke: #808080; stroke-linecap: round"/>
   </g>
   <g id="patch_52">
    <path d="M 331.094505 287.993219 
Q 283.44301 250.943354 235.791515 213.893488 
" clip-path="url(#paf646c44aa)" style="fill: none; stroke: #808080; stroke-linecap: round"/>
   </g>
   <g id="patch_53">
    <path d="M 344.22099 281.900174 
Q 347.081922 211.687701 349.942854 141.475228 
" clip-path="url(#paf646c44aa)" style="fill: none; stroke: #808080; stroke-linecap: round"/>
   </g>
   <g id="patch_54">
    <path d="M 354.51347 286.275019 
Q 388.586453 250.683088 422.659436 215.091158 
" clip-path="url(#paf646c44aa)" style="fill: none; stroke: #808080; stroke-linecap: round"/>
   </g>
   <g id="patch_55">
    <path d="M 327.882805 295.765741 
Q 287.979797 290.851029 248.076788 285.936317 
" clip-path="url(#paf646c44aa)" style="fill: none; stroke: #808080; stroke-linecap: round"/>
   </g>
   <g id="patch_56">
    <path d="M 340.674679 313.242486 
Q 334.537908 346.105857 328.401137 378.969229 
" clip-path="url(#paf646c44aa)" style="fill: none; stroke: #808080; stroke-linecap: round"/>
   </g>
   <g id="patch_57">
    <path d="M 331.745778 308.185137 
Q 289.867112 345.302678 247.988445 382.420219 
" clip-path="url(#paf646c44aa)" style="fill: none; stroke: #808080; stroke-linecap: round"/>
   </g>
   <g id="patch_58">
    <path d="M 236.767165 195.886019 
Q 286.946914 164.934446 337.126663 133.982873 
" clip-path="url(#paf646c44aa)" style="fill: none; stroke: #808080; stroke-linecap: round"/>
   </g>
   <g id="patch_59">
    <path d="M 239.11766 204.148601 
Q 328.449161 203.928192 417.780662 203.707783 
" clip-path="url(#paf646c44aa)" style="fill: none; stroke: #808080; stroke-linecap: round"/>
   </g>
   <g id="patch_60">
    <path d="M 208.098089 199.88139 
Q 186.630779 193.803722 165.16347 187.726054 
" clip-path="url(#paf646c44aa)" style="fill: none; stroke: #808080; stroke-linecap: round"/>
   </g>
   <g id="patch_61">
    <path d="M 207.564283 205.622384 
Q 136.648589 212.085023 65.732896 218.547663 
" clip-path="url(#paf646c44aa)" style="fill: none; stroke: #808080; stroke-linecap: round"/>
   </g>
   <g id="patch_62">
    <path d="M 362.109961 136.507351 
Q 392.089646 164.67403 422.06933 192.840709 
" clip-path="url(#paf646c44aa)" style="fill: none; stroke: #808080; stroke-linecap: round"/>
   </g>
   <g id="patch_63">
    <path d="M 334.82128 124.436926 
Q 291.573028 121.024905 248.324777 117.612883 
" clip-path="url(#paf646c44aa)" style="fill: none; stroke: #808080; stroke-linecap: round"/>
   </g>
   <g id="patch_64">
    <path d="M 347.646346 110.145546 
Q 342.370722 82.269604 337.095099 54.393663 
" clip-path="url(#paf646c44aa)" style="fill: none; stroke: #808080; stroke-linecap: round"/>
   </g>
   <g id="patch_65">
    <path d="M 338.615515 115.353645 
Q 299.472126 81.585476 260.328738 47.817306 
" clip-path="url(#paf646c44aa)" style="fill: none; stroke: #808080; stroke-linecap: round"/>
   </g>
   <g id="patch_66">
    <path d="M 418.099774 200.503746 
Q 397.358118 196.266925 376.616461 192.030105 
" clip-path="url(#paf646c44aa)" style="fill: none; stroke: #808080; stroke-linecap: round"/>
   </g>
   <g id="patch_67">
    <path d="M 449.059163 206.947548 
Q 479.804063 213.465951 510.548963 219.984353 
" clip-path="url(#paf646c44aa)" style="fill: none; stroke: #808080; stroke-linecap: round"/>
   </g>
   <g id="patch_68">
    <path d="M 222.362511 271.777063 
Q 191.166268 233.71202 159.970026 195.646977 
" clip-path="url(#paf646c44aa)" style="fill: none; stroke: #808080; stroke-linecap: round"/>
   </g>
   <g id="patch_69">
    <path d="M 232.399482 268.192983 
Q 232.472326 200.187855 232.545171 132.182728 
" clip-path="url(#paf646c44aa)" style="fill: none; stroke: #808080; stroke-linecap: round"/>
   </g>
   <g id="patch_70">
    <path d="M 245.100334 274.60509 
Q 296.754783 236.433356 348.409232 198.261621 
" clip-path="url(#paf646c44aa)" style="fill: none; stroke: #808080; stroke-linecap: round"/>
   </g>
   <g id="patch_71">
    <path d="M 242.569964 296.093617 
Q 278.941116 339.258457 315.312267 382.423298 
" clip-path="url(#paf646c44aa)" style="fill: none; stroke: #808080; stroke-linecap: round"/>
   </g>
   <g id="patch_72">
    <path d="M 232.929701 299.806879 
Q 234.267898 338.45825 235.606094 377.109621 
" clip-path="url(#paf646c44aa)" style="fill: none; stroke: #808080; stroke-linecap: round"/>
   </g>
   <g id="patch_73">
    <path d="M 162.223696 173.455553 
Q 191.25482 149.894062 220.285944 126.33257 
" clip-path="url(#paf646c44aa)" style="fill: none; stroke: #808080; stroke-linecap: round"/>
   </g>
   <g id="patch_74">
    <path d="M 165.753405 183.82607 
Q 255.534321 186.141916 345.315237 188.457761 
" clip-path="url(#paf646c44aa)" style="fill: none; stroke: #808080; stroke-linecap: round"/>
   </g>
   <g id="patch_75">
    <path d="M 135.100421 188.849279 
Q 99.967081 201.700175 64.83374 214.551072 
" clip-path="url(#paf646c44aa)" style="fill: none; stroke: #808080; stroke-linecap: round"/>
   </g>
   <g id="patch_76">
    <path d="M 246.337171 124.137076 
Q 296.84546 152.618747 347.353748 181.100417 
" clip-path="url(#paf646c44aa)" style="fill: none; stroke: #808080; stroke-linecap: round"/>
   </g>
   <g id="patch_77">
    <path d="M 245.134038 106.777072 
Q 283.359189 77.61173 321.58434 48.446388 
" clip-path="url(#paf646c44aa)" style="fill: none; stroke: #808080; stroke-linecap: round"/>
   </g>
   <g id="patch_78">
    <path d="M 235.666852 100.861618 
Q 240.458502 76.928102 245.250151 52.994587 
" clip-path="url(#paf646c44aa)" style="fill: none; stroke: #808080; stroke-linecap: round"/>
   </g>
   <g id="patch_79">
    <path d="M 376.600394 192.094045 
Q 443.56817 206.064182 510.535945 220.034318 
" clip-path="url(#paf646c44aa)" style="fill: none; stroke: #808080; stroke-linecap: round"/>
   </g>
   <g id="patch_80">
    <path d="M 309.692516 394.228914 
Q 280.829298 393.711253 251.966079 393.193592 
" clip-path="url(#paf646c44aa)" style="fill: none; stroke: #808080; stroke-linecap: round"/>
   </g>
   <g id="patch_81">
    <path d="M 318.347178 38.603518 
Q 291.256299 38.171598 264.16542 37.739679 
" clip-path="url(#paf646c44aa)" style="fill: none; stroke: #808080; stroke-linecap: round"/>
   </g>
   <g id="PathCollection_1">
    <defs>
     <path id="m611953ea6a" d="M 0 15.811388 
C 4.193229 15.811388 8.215279 14.145401 11.18034 11.18034 
C 14.145401 8.215279 15.811388 4.193229 15.811388 0 
C 15.811388 -4.193229 14.145401 -8.215279 11.18034 -11.18034 
C 8.215279 -14.145401 4.193229 -15.811388 0 -15.811388 
C -4.193229 -15.811388 -8.215279 -14.145401 -11.18034 -11.18034 
C -14.145401 -8.215279 -15.811388 -4.193229 -15.811388 0 
C -15.811388 4.193229 -14.145401 8.215279 -11.18034 11.18034 
C -8.215279 14.145401 -4.193229 15.811388 0 15.811388 
z
" style="stroke: #add8e6"/>
    </defs>
    <g clip-path="url(#paf646c44aa)">
     <use xlink:href="#m611953ea6a" x="275.819921" y="319.978436" style="fill: #add8e6; stroke: #add8e6"/>
     <use xlink:href="#m611953ea6a" x="168.494087" y="253.295516" style="fill: #add8e6; stroke: #add8e6"/>
     <use xlink:href="#m611953ea6a" x="280.380285" y="151.385009" style="fill: #add8e6; stroke: #add8e6"/>
     <use xlink:href="#m611953ea6a" x="386.899434" y="254.566156" style="fill: #add8e6; stroke: #add8e6"/>
     <use xlink:href="#m611953ea6a" x="289.385149" y="218.397565" style="fill: #add8e6; stroke: #add8e6"/>
     <use xlink:href="#m611953ea6a" x="343.577248" y="297.698769" style="fill: #add8e6; stroke: #add8e6"/>
     <use xlink:href="#m611953ea6a" x="223.308347" y="204.187607" style="fill: #add8e6; stroke: #add8e6"/>
     <use xlink:href="#m611953ea6a" x="350.58643" y="125.6807" style="fill: #add8e6; stroke: #add8e6"/>
     <use xlink:href="#m611953ea6a" x="433.594357" y="203.668766" style="fill: #add8e6; stroke: #add8e6"/>
     <use xlink:href="#m611953ea6a" x="232.382546" y="284.003313" style="fill: #add8e6; stroke: #add8e6"/>
     <use xlink:href="#m611953ea6a" x="149.948068" y="183.418381" style="fill: #add8e6; stroke: #add8e6"/>
     <use xlink:href="#m611953ea6a" x="232.56211" y="116.369306" style="fill: #add8e6; stroke: #add8e6"/>
     <use xlink:href="#m611953ea6a" x="361.124119" y="188.865542" style="fill: #add8e6; stroke: #add8e6"/>
     <use xlink:href="#m611953ea6a" x="325.49867" y="394.512397" style="fill: #add8e6; stroke: #add8e6"/>
     <use xlink:href="#m611953ea6a" x="236.153138" y="392.909987" style="fill: #add8e6; stroke: #add8e6"/>
     <use xlink:href="#m611953ea6a" x="49.983471" y="219.982928" style="fill: #add8e6; stroke: #add8e6"/>
     <use xlink:href="#m611953ea6a" x="334.154453" y="38.855539" style="fill: #add8e6; stroke: #add8e6"/>
     <use xlink:href="#m611953ea6a" x="248.354753" y="37.487603" style="fill: #add8e6; stroke: #add8e6"/>
     <use xlink:href="#m611953ea6a" x="526.016529" y="223.263721" style="fill: #add8e6; stroke: #add8e6"/>
    </g>
   </g>
   <g id="text_1">
    <g clip-path="url(#paf646c44aa)">
     <!-- 0 -->
     <g transform="translate(271.048046 324.117499) scale(0.15 -0.15)">
      <defs>
       <path id="DejaVuSans-30" d="M 2034 4250 
Q 1547 4250 1301 3770 
Q 1056 3291 1056 2328 
Q 1056 1369 1301 889 
Q 1547 409 2034 409 
Q 2525 409 2770 889 
Q 3016 1369 3016 2328 
Q 3016 3291 2770 3770 
Q 2525 4250 2034 4250 
z
M 2034 4750 
Q 2819 4750 3233 4129 
Q 3647 3509 3647 2328 
Q 3647 1150 3233 529 
Q 2819 -91 2034 -91 
Q 1250 -91 836 529 
Q 422 1150 422 2328 
Q 422 3509 836 4129 
Q 1250 4750 2034 4750 
z
" transform="scale(0.015625)"/>
      </defs>
      <use xlink:href="#DejaVuSans-30"/>
     </g>
    </g>
   </g>
   <g id="text_2">
    <g clip-path="url(#paf646c44aa)">
     <!-- 1 -->
     <g transform="translate(163.722212 257.434578) scale(0.15 -0.15)">
      <defs>
       <path id="DejaVuSans-31" d="M 794 531 
L 1825 531 
L 1825 4091 
L 703 3866 
L 703 4441 
L 1819 4666 
L 2450 4666 
L 2450 531 
L 3481 531 
L 3481 0 
L 794 0 
L 794 531 
z
" transform="scale(0.015625)"/>
      </defs>
      <use xlink:href="#DejaVuSans-31"/>
     </g>
    </g>
   </g>
   <g id="text_3">
    <g clip-path="url(#paf646c44aa)">
     <!-- 2 -->
     <g transform="translate(275.60841 155.524071) scale(0.15 -0.15)">
      <defs>
       <path id="DejaVuSans-32" d="M 1228 531 
L 3431 531 
L 3431 0 
L 469 0 
L 469 531 
Q 828 903 1448 1529 
Q 2069 2156 2228 2338 
Q 2531 2678 2651 2914 
Q 2772 3150 2772 3378 
Q 2772 3750 2511 3984 
Q 2250 4219 1831 4219 
Q 1534 4219 1204 4116 
Q 875 4013 500 3803 
L 500 4441 
Q 881 4594 1212 4672 
Q 1544 4750 1819 4750 
Q 2544 4750 2975 4387 
Q 3406 4025 3406 3419 
Q 3406 3131 3298 2873 
Q 3191 2616 2906 2266 
Q 2828 2175 2409 1742 
Q 1991 1309 1228 531 
z
" transform="scale(0.015625)"/>
      </defs>
      <use xlink:href="#DejaVuSans-32"/>
     </g>
    </g>
   </g>
   <g id="text_4">
    <g clip-path="url(#paf646c44aa)">
     <!-- 3 -->
     <g transform="translate(382.127559 258.705218) scale(0.15 -0.15)">
      <defs>
       <path id="DejaVuSans-33" d="M 2597 2516 
Q 3050 2419 3304 2112 
Q 3559 1806 3559 1356 
Q 3559 666 3084 287 
Q 2609 -91 1734 -91 
Q 1441 -91 1130 -33 
Q 819 25 488 141 
L 488 750 
Q 750 597 1062 519 
Q 1375 441 1716 441 
Q 2309 441 2620 675 
Q 2931 909 2931 1356 
Q 2931 1769 2642 2001 
Q 2353 2234 1838 2234 
L 1294 2234 
L 1294 2753 
L 1863 2753 
Q 2328 2753 2575 2939 
Q 2822 3125 2822 3475 
Q 2822 3834 2567 4026 
Q 2313 4219 1838 4219 
Q 1578 4219 1281 4162 
Q 984 4106 628 3988 
L 628 4550 
Q 988 4650 1302 4700 
Q 1616 4750 1894 4750 
Q 2613 4750 3031 4423 
Q 3450 4097 3450 3541 
Q 3450 3153 3228 2886 
Q 3006 2619 2597 2516 
z
" transform="scale(0.015625)"/>
      </defs>
      <use xlink:href="#DejaVuSans-33"/>
     </g>
    </g>
   </g>
   <g id="text_5">
    <g clip-path="url(#paf646c44aa)">
     <!-- 18 -->
     <g transform="translate(279.841399 222.536628) scale(0.15 -0.15)">
      <defs>
       <path id="DejaVuSans-38" d="M 2034 2216 
Q 1584 2216 1326 1975 
Q 1069 1734 1069 1313 
Q 1069 891 1326 650 
Q 1584 409 2034 409 
Q 2484 409 2743 651 
Q 3003 894 3003 1313 
Q 3003 1734 2745 1975 
Q 2488 2216 2034 2216 
z
M 1403 2484 
Q 997 2584 770 2862 
Q 544 3141 544 3541 
Q 544 4100 942 4425 
Q 1341 4750 2034 4750 
Q 2731 4750 3128 4425 
Q 3525 4100 3525 3541 
Q 3525 3141 3298 2862 
Q 3072 2584 2669 2484 
Q 3125 2378 3379 2068 
Q 3634 1759 3634 1313 
Q 3634 634 3220 271 
Q 2806 -91 2034 -91 
Q 1263 -91 848 271 
Q 434 634 434 1313 
Q 434 1759 690 2068 
Q 947 2378 1403 2484 
z
M 1172 3481 
Q 1172 3119 1398 2916 
Q 1625 2713 2034 2713 
Q 2441 2713 2670 2916 
Q 2900 3119 2900 3481 
Q 2900 3844 2670 4047 
Q 2441 4250 2034 4250 
Q 1625 4250 1398 4047 
Q 1172 3844 1172 3481 
z
" transform="scale(0.015625)"/>
      </defs>
      <use xlink:href="#DejaVuSans-31"/>
      <use xlink:href="#DejaVuSans-38" x="63.623047"/>
     </g>
    </g>
   </g>
   <g id="text_6">
    <g clip-path="url(#paf646c44aa)">
     <!-- 4 -->
     <g transform="translate(338.805373 301.837832) scale(0.15 -0.15)">
      <defs>
       <path id="DejaVuSans-34" d="M 2419 4116 
L 825 1625 
L 2419 1625 
L 2419 4116 
z
M 2253 4666 
L 3047 4666 
L 3047 1625 
L 3713 1625 
L 3713 1100 
L 3047 1100 
L 3047 0 
L 2419 0 
L 2419 1100 
L 313 1100 
L 313 1709 
L 2253 4666 
z
" transform="scale(0.015625)"/>
      </defs>
      <use xlink:href="#DejaVuSans-34"/>
     </g>
    </g>
   </g>
   <g id="text_7">
    <g clip-path="url(#paf646c44aa)">
     <!-- 5 -->
     <g transform="translate(218.536472 208.32667) scale(0.15 -0.15)">
      <defs>
       <path id="DejaVuSans-35" d="M 691 4666 
L 3169 4666 
L 3169 4134 
L 1269 4134 
L 1269 2991 
Q 1406 3038 1543 3061 
Q 1681 3084 1819 3084 
Q 2600 3084 3056 2656 
Q 3513 2228 3513 1497 
Q 3513 744 3044 326 
Q 2575 -91 1722 -91 
Q 1428 -91 1123 -41 
Q 819 9 494 109 
L 494 744 
Q 775 591 1075 516 
Q 1375 441 1709 441 
Q 2250 441 2565 725 
Q 2881 1009 2881 1497 
Q 2881 1984 2565 2268 
Q 2250 2553 1709 2553 
Q 1456 2553 1204 2497 
Q 953 2441 691 2322 
L 691 4666 
z
" transform="scale(0.015625)"/>
      </defs>
      <use xlink:href="#DejaVuSans-35"/>
     </g>
    </g>
   </g>
   <g id="text_8">
    <g clip-path="url(#paf646c44aa)">
     <!-- 6 -->
     <g transform="translate(345.814555 129.819762) scale(0.15 -0.15)">
      <defs>
       <path id="DejaVuSans-36" d="M 2113 2584 
Q 1688 2584 1439 2293 
Q 1191 2003 1191 1497 
Q 1191 994 1439 701 
Q 1688 409 2113 409 
Q 2538 409 2786 701 
Q 3034 994 3034 1497 
Q 3034 2003 2786 2293 
Q 2538 2584 2113 2584 
z
M 3366 4563 
L 3366 3988 
Q 3128 4100 2886 4159 
Q 2644 4219 2406 4219 
Q 1781 4219 1451 3797 
Q 1122 3375 1075 2522 
Q 1259 2794 1537 2939 
Q 1816 3084 2150 3084 
Q 2853 3084 3261 2657 
Q 3669 2231 3669 1497 
Q 3669 778 3244 343 
Q 2819 -91 2113 -91 
Q 1303 -91 875 529 
Q 447 1150 447 2328 
Q 447 3434 972 4092 
Q 1497 4750 2381 4750 
Q 2619 4750 2861 4703 
Q 3103 4656 3366 4563 
z
" transform="scale(0.015625)"/>
      </defs>
      <use xlink:href="#DejaVuSans-36"/>
     </g>
    </g>
   </g>
   <g id="text_9">
    <g clip-path="url(#paf646c44aa)">
     <!-- 7 -->
     <g transform="translate(428.822482 207.807828) scale(0.15 -0.15)">
      <defs>
       <path id="DejaVuSans-37" d="M 525 4666 
L 3525 4666 
L 3525 4397 
L 1831 0 
L 1172 0 
L 2766 4134 
L 525 4134 
L 525 4666 
z
" transform="scale(0.015625)"/>
      </defs>
      <use xlink:href="#DejaVuSans-37"/>
     </g>
    </g>
   </g>
   <g id="text_10">
    <g clip-path="url(#paf646c44aa)">
     <!-- 8 -->
     <g transform="translate(227.610671 288.142376) scale(0.15 -0.15)">
      <use xlink:href="#DejaVuSans-38"/>
     </g>
    </g>
   </g>
   <g id="text_11">
    <g clip-path="url(#paf646c44aa)">
     <!-- 9 -->
     <g transform="translate(145.176193 187.557444) scale(0.15 -0.15)">
      <defs>
       <path id="DejaVuSans-39" d="M 703 97 
L 703 672 
Q 941 559 1184 500 
Q 1428 441 1663 441 
Q 2288 441 2617 861 
Q 2947 1281 2994 2138 
Q 2813 1869 2534 1725 
Q 2256 1581 1919 1581 
Q 1219 1581 811 2004 
Q 403 2428 403 3163 
Q 403 3881 828 4315 
Q 1253 4750 1959 4750 
Q 2769 4750 3195 4129 
Q 3622 3509 3622 2328 
Q 3622 1225 3098 567 
Q 2575 -91 1691 -91 
Q 1453 -91 1209 -44 
Q 966 3 703 97 
z
M 1959 2075 
Q 2384 2075 2632 2365 
Q 2881 2656 2881 3163 
Q 2881 3666 2632 3958 
Q 2384 4250 1959 4250 
Q 1534 4250 1286 3958 
Q 1038 3666 1038 3163 
Q 1038 2656 1286 2365 
Q 1534 2075 1959 2075 
z
" transform="scale(0.015625)"/>
      </defs>
      <use xlink:href="#DejaVuSans-39"/>
     </g>
    </g>
   </g>
   <g id="text_12">
    <g clip-path="url(#paf646c44aa)">
     <!-- 10 -->
     <g transform="translate(223.01836 120.508368) scale(0.15 -0.15)">
      <use xlink:href="#DejaVuSans-31"/>
      <use xlink:href="#DejaVuSans-30" x="63.623047"/>
     </g>
    </g>
   </g>
   <g id="text_13">
    <g clip-path="url(#paf646c44aa)">
     <!-- 11 -->
     <g transform="translate(351.580369 193.004604) scale(0.15 -0.15)">
      <use xlink:href="#DejaVuSans-31"/>
      <use xlink:href="#DejaVuSans-31" x="63.623047"/>
     </g>
    </g>
   </g>
   <g id="text_14">
    <g clip-path="url(#paf646c44aa)">
     <!-- 12 -->
     <g transform="translate(315.95492 398.651459) scale(0.15 -0.15)">
      <use xlink:href="#DejaVuSans-31"/>
      <use xlink:href="#DejaVuSans-32" x="63.623047"/>
     </g>
    </g>
   </g>
   <g id="text_15">
    <g clip-path="url(#paf646c44aa)">
     <!-- 13 -->
     <g transform="translate(226.609388 397.049049) scale(0.15 -0.15)">
      <use xlink:href="#DejaVuSans-31"/>
      <use xlink:href="#DejaVuSans-33" x="63.623047"/>
     </g>
    </g>
   </g>
   <g id="text_16">
    <g clip-path="url(#paf646c44aa)">
     <!-- 14 -->
     <g transform="translate(40.439721 224.121991) scale(0.15 -0.15)">
      <use xlink:href="#DejaVuSans-31"/>
      <use xlink:href="#DejaVuSans-34" x="63.623047"/>
     </g>
    </g>
   </g>
   <g id="text_17">
    <g clip-path="url(#paf646c44aa)">
     <!-- 15 -->
     <g transform="translate(324.610703 42.994602) scale(0.15 -0.15)">
      <use xlink:href="#DejaVuSans-31"/>
      <use xlink:href="#DejaVuSans-35" x="63.623047"/>
     </g>
    </g>
   </g>
   <g id="text_18">
    <g clip-path="url(#paf646c44aa)">
     <!-- 16 -->
     <g transform="translate(238.811003 41.626666) scale(0.15 -0.15)">
      <use xlink:href="#DejaVuSans-31"/>
      <use xlink:href="#DejaVuSans-36" x="63.623047"/>
     </g>
    </g>
   </g>
   <g id="text_19">
    <g clip-path="url(#paf646c44aa)">
     <!-- 17 -->
     <g transform="translate(516.472779 227.402783) scale(0.15 -0.15)">
      <use xlink:href="#DejaVuSans-31"/>
      <use xlink:href="#DejaVuSans-37" x="63.623047"/>
     </g>
    </g>
   </g>
  </g>
 </g>
 <defs>
  <clipPath id="paf646c44aa">
   <rect x="0" y="0" width="576" height="432"/>
  </clipPath>
 </defs>
</svg>
nk:href="#DejaVuSans-37" x="63.623047"/>
     </g>
    </g>
   </g>
  </g>
 </g>
 <defs>
  <clipPath id="pe4556f6ed1">
   <rect x="0" y="0" width="576" height="432"/>
  </clipPath>
 </defs>
</svg>

h>
 </defs>
</svg>
