<?xml version="1.0" encoding="utf-8" standalone="no"?>
<!DOCTYPE svg PUBLIC "-//W3C//DTD SVG 1.1//EN"
  "http://www.w3.org/Graphics/SVG/1.1/DTD/svg11.dtd">
<svg xmlns:xlink="http://www.w3.org/1999/xlink" width="1296pt" height="1152pt" viewBox="0 0 1296 1152" xmlns="http://www.w3.org/2000/svg" version="1.1">
 <metadata>
  <rdf:RDF xmlns:dc="http://purl.org/dc/elements/1.1/" xmlns:cc="http://creativecommons.org/ns#" xmlns:rdf="http://www.w3.org/1999/02/22-rdf-syntax-ns#">
   <cc:Work>
    <dc:type rdf:resource="http://purl.org/dc/dcmitype/StillImage"/>
    <dc:date>2025-02-13T10:59:01.398000</dc:date>
    <dc:format>image/svg+xml</dc:format>
    <dc:creator>
     <cc:Agent>
      <dc:title>Matplotlib v3.9.1, https://matplotlib.org/</dc:title>
     </cc:Agent>
    </dc:creator>
   </cc:Work>
  </rdf:RDF>
 </metadata>
 <defs>
  <style type="text/css">*{stroke-linejoin: round; stroke-linecap: butt}</style>
 </defs>
 <g id="figure_1">
  <g id="patch_1">
   <path d="M 0 1152 
L 1296 1152 
L 1296 0 
L 0 0 
z
" style="fill: #ffffff"/>
  </g>
  <g id="axes_1">
   <g id="patch_2">
    <path d="M 525.195131 491.361077 
Q 587.90144 631.003826 650.607748 770.646574 
" clip-path="url(#p566dc4c98a)" style="fill: none; stroke: #000000; stroke-linecap: round"/>
   </g>
   <g id="patch_3">
    <path d="M 521.530672 491.526654 
Q 488.211193 589.08509 454.891715 686.643526 
" clip-path="url(#p566dc4c98a)" style="fill: none; stroke: #000000; stroke-linecap: round"/>
   </g>
   <g id="patch_4">
    <path d="M 527.699475 488.854444 
Q 650.568296 544.357181 773.437117 599.859917 
" clip-path="url(#p566dc4c98a)" style="fill: none; stroke: #000000; stroke-linecap: round"/>
   </g>
   <g id="patch_5">
    <path d="M 527.484228 489.276457 
Q 585.115495 522.20754 642.746762 555.138622 
" clip-path="url(#p566dc4c98a)" style="fill: none; stroke: #000000; stroke-linecap: round"/>
   </g>
   <g id="patch_6">
    <path d="M 523.1862 481.796432 
Q 524.187805 357.659241 525.189411 233.522051 
" clip-path="url(#p566dc4c98a)" style="fill: none; stroke: #000000; stroke-linecap: round"/>
   </g>
   <g id="patch_7">
    <path d="M 519.992872 482.914281 
Q 428.791814 370.591713 337.590756 258.269144 
" clip-path="url(#p566dc4c98a)" style="fill: none; stroke: #000000; stroke-linecap: round"/>
   </g>
   <g id="patch_8">
    <path d="M 648.046657 773.269276 
Q 552.966274 733.290315 457.885891 693.311354 
" clip-path="url(#p566dc4c98a)" style="fill: none; stroke: #000000; stroke-linecap: round"/>
   </g>
   <g id="patch_9">
    <path d="M 655.587587 771.153742 
Q 715.325233 688.561759 775.062879 605.969775 
" clip-path="url(#p566dc4c98a)" style="fill: none; stroke: #000000; stroke-linecap: round"/>
   </g>
   <g id="patch_10">
    <path d="M 652.52783 770.210461 
Q 649.871177 666.413872 647.214525 562.617283 
" clip-path="url(#p566dc4c98a)" style="fill: none; stroke: #000000; stroke-linecap: round"/>
   </g>
   <g id="patch_11">
    <path d="M 656.513077 778.384674 
Q 722.06698 832.383056 787.620882 886.381439 
" clip-path="url(#p566dc4c98a)" style="fill: none; stroke: #000000; stroke-linecap: round"/>
   </g>
   <g id="patch_12">
    <path d="M 654.435484 779.883272 
Q 705.338754 913.622284 756.242025 1047.361297 
" clip-path="url(#p566dc4c98a)" style="fill: none; stroke: #000000; stroke-linecap: round"/>
   </g>
   <g id="patch_13">
    <path d="M 458.094915 690.045731 
Q 615.634034 646.64587 773.173154 603.24601 
" clip-path="url(#p566dc4c98a)" style="fill: none; stroke: #000000; stroke-linecap: round"/>
   </g>
   <g id="patch_14">
    <path d="M 457.39 688.534229 
Q 550.18172 624.49564 642.973439 560.457051 
" clip-path="url(#p566dc4c98a)" style="fill: none; stroke: #000000; stroke-linecap: round"/>
   </g>
   <g id="patch_15">
    <path d="M 448.30411 690.860864 
Q 360.756149 681.840567 273.208188 672.820271 
" clip-path="url(#p566dc4c98a)" style="fill: none; stroke: #000000; stroke-linecap: round"/>
   </g>
   <g id="patch_16">
    <path d="M 448.575302 693.062472 
Q 301.20846 746.017758 153.841618 798.973045 
" clip-path="url(#p566dc4c98a)" style="fill: none; stroke: #000000; stroke-linecap: round"/>
   </g>
   <g id="patch_17">
    <path d="M 773.259375 600.316075 
Q 712.542953 579.769271 651.826532 559.222466 
" clip-path="url(#p566dc4c98a)" style="fill: none; stroke: #000000; stroke-linecap: round"/>
   </g>
   <g id="patch_18">
    <path d="M 782.166373 599.165128 
Q 892.997477 526.048234 1003.828582 452.93134 
" clip-path="url(#p566dc4c98a)" style="fill: none; stroke: #000000; stroke-linecap: round"/>
   </g>
   <g id="patch_19">
    <path d="M 782.995695 601.837724 
Q 940.124711 599.31307 1097.253727 596.788416 
" clip-path="url(#p566dc4c98a)" style="fill: none; stroke: #000000; stroke-linecap: round"/>
   </g>
   <g id="patch_20">
    <path d="M 648.649803 552.869078 
Q 675.062631 472.621992 701.475459 392.374906 
" clip-path="url(#p566dc4c98a)" style="fill: none; stroke: #000000; stroke-linecap: round"/>
   </g>
   <g id="patch_21">
    <path d="M 651.198879 560.458292 
Q 736.031466 619.041621 820.864052 677.624949 
" clip-path="url(#p566dc4c98a)" style="fill: none; stroke: #000000; stroke-linecap: round"/>
   </g>
   <g id="patch_22">
    <path d="M 643.153585 560.708619 
Q 605.753688 590.093959 568.353791 619.479298 
" clip-path="url(#p566dc4c98a)" style="fill: none; stroke: #000000; stroke-linecap: round"/>
   </g>
   <g id="patch_23">
    <path d="M 651.965096 556.53832 
Q 763.178182 531.915409 874.391267 507.292497 
" clip-path="url(#p566dc4c98a)" style="fill: none; stroke: #000000; stroke-linecap: round"/>
   </g>
   <g id="patch_24">
    <path d="M 644.467649 553.355628 
Q 590.516308 465.539565 536.564967 377.723501 
" clip-path="url(#p566dc4c98a)" style="fill: none; stroke: #000000; stroke-linecap: round"/>
   </g>
   <g id="patch_25">
    <path d="M 646.389355 562.570394 
Q 638.979329 615.199131 631.569304 667.827869 
" clip-path="url(#p566dc4c98a)" style="fill: none; stroke: #000000; stroke-linecap: round"/>
   </g>
   <g id="patch_26">
    <path d="M 642.12255 557.03233 
Q 531.970328 544.026545 421.818106 531.02076 
" clip-path="url(#p566dc4c98a)" style="fill: none; stroke: #000000; stroke-linecap: round"/>
   </g>
   <g id="patch_27">
    <path d="M 650.387075 553.856899 
Q 697.0191 500.710852 743.651126 447.564806 
" clip-path="url(#p566dc4c98a)" style="fill: none; stroke: #000000; stroke-linecap: round"/>
   </g>
   <g id="patch_28">
    <path d="M 704.960198 392.242933 
Q 764.007951 534.047295 823.055705 675.851657 
" clip-path="url(#p566dc4c98a)" style="fill: none; stroke: #000000; stroke-linecap: round"/>
   </g>
   <g id="patch_29">
    <path d="M 700.497882 391.932637 
Q 633.728895 505.099157 566.959908 618.265676 
" clip-path="url(#p566dc4c98a)" style="fill: none; stroke: #000000; stroke-linecap: round"/>
   </g>
   <g id="patch_30">
    <path d="M 707.187451 390.419125 
Q 791.156328 446.920645 875.125206 503.422165 
" clip-path="url(#p566dc4c98a)" style="fill: none; stroke: #000000; stroke-linecap: round"/>
   </g>
   <g id="patch_31">
    <path d="M 699.313019 384.293887 
Q 614.134769 308.076852 528.956518 231.859816 
" clip-path="url(#p566dc4c98a)" style="fill: none; stroke: #000000; stroke-linecap: round"/>
   </g>
   <g id="patch_32">
    <path d="M 702.693701 382.642423 
Q 693.432022 248.616596 684.170343 114.590769 
" clip-path="url(#p566dc4c98a)" style="fill: none; stroke: #000000; stroke-linecap: round"/>
   </g>
   <g id="patch_33">
    <path d="M 820.098473 679.381128 
Q 694.699772 651.517648 569.301072 623.654168 
" clip-path="url(#p566dc4c98a)" style="fill: none; stroke: #000000; stroke-linecap: round"/>
   </g>
   <g id="patch_34">
    <path d="M 826.463849 675.692367 
Q 852.12426 593.337846 877.784671 510.983325 
" clip-path="url(#p566dc4c98a)" style="fill: none; stroke: #000000; stroke-linecap: round"/>
   </g>
   <g id="patch_35">
    <path d="M 824.186 685.400805 
Q 808.227595 785.010985 792.26919 884.621165 
" clip-path="url(#p566dc4c98a)" style="fill: none; stroke: #000000; stroke-linecap: round"/>
   </g>
   <g id="patch_36">
    <path d="M 827.984428 684.455858 
Q 911.963182 795.884169 995.941935 907.312481 
" clip-path="url(#p566dc4c98a)" style="fill: none; stroke: #000000; stroke-linecap: round"/>
   </g>
   <g id="patch_37">
    <path d="M 569.111843 620.835956 
Q 721.847738 564.390199 874.583633 507.944443 
" clip-path="url(#p566dc4c98a)" style="fill: none; stroke: #000000; stroke-linecap: round"/>
   </g>
   <g id="patch_38">
    <path d="M 559.489752 623.397713 
Q 416.325276 647.438818 273.1608 671.479923 
" clip-path="url(#p566dc4c98a)" style="fill: none; stroke: #000000; stroke-linecap: round"/>
   </g>
   <g id="patch_39">
    <path d="M 560.431843 625.585303 
Q 437.402884 718.60039 314.373924 811.615477 
" clip-path="url(#p566dc4c98a)" style="fill: none; stroke: #000000; stroke-linecap: round"/>
   </g>
   <g id="patch_40">
    <path d="M 883.855935 504.21645 
Q 943.634782 478.195914 1003.413628 452.175379 
" clip-path="url(#p566dc4c98a)" style="fill: none; stroke: #000000; stroke-linecap: round"/>
   </g>
   <g id="patch_41">
    <path d="M 884.06727 504.781954 
Q 1031.405502 460.847758 1178.743734 416.913561 
" clip-path="url(#p566dc4c98a)" style="fill: none; stroke: #000000; stroke-linecap: round"/>
   </g>
   <g id="patch_42">
    <path d="M 535.485554 378.215089 
Q 582.407976 523.118657 629.330399 668.022225 
" clip-path="url(#p566dc4c98a)" style="fill: none; stroke: #000000; stroke-linecap: round"/>
   </g>
   <g id="patch_43">
    <path d="M 530.956754 377.467764 
Q 475.398677 451.947222 419.8406 526.426679 
" clip-path="url(#p566dc4c98a)" style="fill: none; stroke: #000000; stroke-linecap: round"/>
   </g>
   <g id="patch_44">
    <path d="M 538.694433 375.028778 
Q 640.446192 408.633253 742.197951 442.237729 
" clip-path="url(#p566dc4c98a)" style="fill: none; stroke: #000000; stroke-linecap: round"/>
   </g>
   <g id="patch_45">
    <path d="M 533.645634 368.46689 
Q 529.587801 300.992213 525.529967 233.517535 
" clip-path="url(#p566dc4c98a)" style="fill: none; stroke: #000000; stroke-linecap: round"/>
   </g>
   <g id="patch_46">
    <path d="M 532.105513 368.815795 
Q 479.762111 236.715326 427.418709 104.614857 
" clip-path="url(#p566dc4c98a)" style="fill: none; stroke: #000000; stroke-linecap: round"/>
   </g>
   <g id="patch_47">
    <path d="M 626.707988 670.01278 
Q 523.862554 601.608975 421.01712 533.20517 
" clip-path="url(#p566dc4c98a)" style="fill: none; stroke: #000000; stroke-linecap: round"/>
   </g>
   <g id="patch_48">
    <path d="M 633.133563 668.320456 
Q 688.911383 558.292058 744.689202 448.263659 
" clip-path="url(#p566dc4c98a)" style="fill: none; stroke: #000000; stroke-linecap: round"/>
   </g>
   <g id="patch_49">
    <path d="M 633.849301 676.801066 
Q 711.176091 781.172 788.502881 885.542934 
" clip-path="url(#p566dc4c98a)" style="fill: none; stroke: #000000; stroke-linecap: round"/>
   </g>
   <g id="patch_50">
    <path d="M 630.98525 677.783133 
Q 634.154316 817.417638 637.323383 957.052143 
" clip-path="url(#p566dc4c98a)" style="fill: none; stroke: #000000; stroke-linecap: round"/>
   </g>
   <g id="patch_51">
    <path d="M 421.689039 529.164682 
Q 581.900576 487.120306 742.112114 445.07593 
" clip-path="url(#p566dc4c98a)" style="fill: none; stroke: #000000; stroke-linecap: round"/>
   </g>
   <g id="patch_52">
    <path d="M 413.234053 533.887181 
Q 342.541859 601.370714 271.849664 668.854247 
" clip-path="url(#p566dc4c98a)" style="fill: none; stroke: #000000; stroke-linecap: round"/>
   </g>
   <g id="patch_53">
    <path d="M 411.867455 530.840315 
Q 264.657278 542.83339 117.447101 554.826465 
" clip-path="url(#p566dc4c98a)" style="fill: none; stroke: #000000; stroke-linecap: round"/>
   </g>
   <g id="patch_54">
    <path d="M 751.947731 443.928698 
Q 877.47612 446.992517 1003.004509 450.056335 
" clip-path="url(#p566dc4c98a)" style="fill: none; stroke: #000000; stroke-linecap: round"/>
   </g>
   <g id="patch_55">
    <path d="M 751.139769 441.083083 
Q 875.659752 360.164262 1000.179734 279.245441 
" clip-path="url(#p566dc4c98a)" style="fill: none; stroke: #000000; stroke-linecap: round"/>
   </g>
   <g id="patch_56">
    <path d="M 520.277731 229.196384 
Q 429.835569 241.456461 339.393407 253.716539 
" clip-path="url(#p566dc4c98a)" style="fill: none; stroke: #000000; stroke-linecap: round"/>
   </g>
   <g id="patch_57">
    <path d="M 529.229961 225.525579 
Q 604.528637 169.06376 679.827313 112.601942 
" clip-path="url(#p566dc4c98a)" style="fill: none; stroke: #000000; stroke-linecap: round"/>
   </g>
   <g id="patch_58">
    <path d="M 522.167282 224.574359 
Q 475.403483 164.246162 428.639683 103.917965 
" clip-path="url(#p566dc4c98a)" style="fill: none; stroke: #000000; stroke-linecap: round"/>
   </g>
   <g id="patch_59">
    <path d="M 790.469851 894.455105 
Q 774.749563 970.793948 759.029275 1047.132791 
" clip-path="url(#p566dc4c98a)" style="fill: none; stroke: #000000; stroke-linecap: round"/>
   </g>
   <g id="patch_60">
    <path d="M 796.451563 890.080017 
Q 895.214872 900.431225 993.978181 910.782432 
" clip-path="url(#p566dc4c98a)" style="fill: none; stroke: #000000; stroke-linecap: round"/>
   </g>
   <g id="patch_61">
    <path d="M 786.953465 891.68816 
Q 714.457227 925.806227 641.960989 959.924295 
" clip-path="url(#p566dc4c98a)" style="fill: none; stroke: #000000; stroke-linecap: round"/>
   </g>
   <g id="patch_62">
    <path d="M 264.832157 675.972006 
Q 208.687014 736.484075 152.54187 796.996144 
" clip-path="url(#p566dc4c98a)" style="fill: none; stroke: #000000; stroke-linecap: round"/>
   </g>
   <g id="patch_63">
    <path d="M 269.651104 677.098271 
Q 289.308512 743.465412 308.96592 809.832554 
" clip-path="url(#p566dc4c98a)" style="fill: none; stroke: #000000; stroke-linecap: round"/>
   </g>
   <g id="patch_64">
    <path d="M 264.236652 669.304598 
Q 190.347182 613.769833 116.457712 558.235068 
" clip-path="url(#p566dc4c98a)" style="fill: none; stroke: #000000; stroke-linecap: round"/>
   </g>
   <g id="patch_65">
    <path d="M 1010.706946 454.383967 
Q 1055.128935 523.442714 1099.550924 592.501461 
" clip-path="url(#p566dc4c98a)" style="fill: none; stroke: #000000; stroke-linecap: round"/>
   </g>
   <g id="patch_66">
    <path d="M 1012.905915 449.20899 
Q 1095.770238 432.8311 1178.634561 416.45321 
" clip-path="url(#p566dc4c98a)" style="fill: none; stroke: #000000; stroke-linecap: round"/>
   </g>
   <g id="patch_67">
    <path d="M 1007.897151 445.178129 
Q 1006.186927 363.349717 1004.476703 281.521304 
" clip-path="url(#p566dc4c98a)" style="fill: none; stroke: #000000; stroke-linecap: round"/>
   </g>
   <g id="PathCollection_1">
    <defs>
     <path id="me38028d213" d="M 0 5 
C 1.326016 5 2.597899 4.473168 3.535534 3.535534 
C 4.473168 2.597899 5 1.326016 5 0 
C 5 -1.326016 4.473168 -2.597899 3.535534 -3.535534 
C 2.597899 -4.473168 1.326016 -5 0 -5 
C -1.326016 -5 -2.597899 -4.473168 -3.535534 -3.535534 
C -4.473168 -2.597899 -5 -1.326016 -5 0 
C -5 1.326016 -4.473168 2.597899 -3.535534 3.535534 
C -2.597899 4.473168 -1.326016 5 0 5 
z
" style="stroke: #0000ff"/>
    </defs>
    <g clip-path="url(#p566dc4c98a)">
     <use xlink:href="#me38028d213" x="523.145849" y="486.797464" style="fill: #0000ff; stroke: #0000ff"/>
     <use xlink:href="#me38028d213" x="652.655722" y="775.207275" style="fill: #0000ff; stroke: #0000ff"/>
     <use xlink:href="#me38028d213" x="453.276383" y="691.37317" style="fill: #0000ff; stroke: #0000ff"/>
     <use xlink:href="#me38028d213" x="777.993402" y="601.918098" style="fill: #0000ff; stroke: #0000ff"/>
     <use xlink:href="#me38028d213" x="647.086581" y="557.618438" style="fill: #0000ff; stroke: #0000ff"/>
     <use xlink:href="#me38028d213" x="703.038162" y="387.627125" style="fill: #0000ff; stroke: #0000ff"/>
     <use xlink:href="#me38028d213" x="824.976746" y="680.465076" style="fill: #0000ff; stroke: #0000ff"/>
     <use xlink:href="#me38028d213" x="564.4205" y="622.56971" style="fill: #0000ff; stroke: #0000ff"/>
     <use xlink:href="#me38028d213" x="879.271331" y="506.212036" style="fill: #0000ff; stroke: #0000ff"/>
     <use xlink:href="#me38028d213" x="533.945945" y="373.460546" style="fill: #0000ff; stroke: #0000ff"/>
     <use xlink:href="#me38028d213" x="630.87175" y="672.782151" style="fill: #0000ff; stroke: #0000ff"/>
     <use xlink:href="#me38028d213" x="416.851107" y="530.434302" style="fill: #0000ff; stroke: #0000ff"/>
     <use xlink:href="#me38028d213" x="746.948623" y="443.806683" style="fill: #0000ff; stroke: #0000ff"/>
     <use xlink:href="#me38028d213" x="525.229729" y="228.525105" style="fill: #0000ff; stroke: #0000ff"/>
     <use xlink:href="#me38028d213" x="334.439497" y="254.388076" style="fill: #0000ff; stroke: #0000ff"/>
     <use xlink:href="#me38028d213" x="791.478145" y="889.558762" style="fill: #0000ff; stroke: #0000ff"/>
     <use xlink:href="#me38028d213" x="758.020174" y="1052.033058" style="fill: #0000ff; stroke: #0000ff"/>
     <use xlink:href="#me38028d213" x="268.232139" y="672.307576" style="fill: #0000ff; stroke: #0000ff"/>
     <use xlink:href="#me38028d213" x="149.140097" y="800.662505" style="fill: #0000ff; stroke: #0000ff"/>
     <use xlink:href="#me38028d213" x="1008.001655" y="450.178303" style="fill: #0000ff; stroke: #0000ff"/>
     <use xlink:href="#me38028d213" x="1102.256796" y="596.70803" style="fill: #0000ff; stroke: #0000ff"/>
     <use xlink:href="#me38028d213" x="683.825724" y="109.603781" style="fill: #0000ff; stroke: #0000ff"/>
     <use xlink:href="#me38028d213" x="998.949795" y="911.303498" style="fill: #0000ff; stroke: #0000ff"/>
     <use xlink:href="#me38028d213" x="310.386848" y="814.629875" style="fill: #0000ff; stroke: #0000ff"/>
     <use xlink:href="#me38028d213" x="1183.53719" y="415.48422" style="fill: #0000ff; stroke: #0000ff"/>
     <use xlink:href="#me38028d213" x="425.577022" y="99.966942" style="fill: #0000ff; stroke: #0000ff"/>
     <use xlink:href="#me38028d213" x="637.43689" y="962.053419" style="fill: #0000ff; stroke: #0000ff"/>
     <use xlink:href="#me38028d213" x="112.46281" y="555.23253" style="fill: #0000ff; stroke: #0000ff"/>
     <use xlink:href="#me38028d213" x="1004.372196" y="276.520986" style="fill: #0000ff; stroke: #0000ff"/>
    </g>
   </g>
   <g id="text_1">
    <g clip-path="url(#p566dc4c98a)">
     <!-- 4 -->
     <g transform="translate(518.373974 490.936526) scale(0.15 -0.15)">
      <defs>
       <path id="DejaVuSans-34" d="M 2419 4116 
L 825 1625 
L 2419 1625 
L 2419 4116 
z
M 2253 4666 
L 3047 4666 
L 3047 1625 
L 3713 1625 
L 3713 1100 
L 3047 1100 
L 3047 0 
L 2419 0 
L 2419 1100 
L 313 1100 
L 313 1709 
L 2253 4666 
z
" transform="scale(0.015625)"/>
      </defs>
      <use xlink:href="#DejaVuSans-34"/>
     </g>
    </g>
   </g>
   <g id="text_2">
    <g clip-path="url(#p566dc4c98a)">
     <!-- 5 -->
     <g transform="translate(647.883847 779.346337) scale(0.15 -0.15)">
      <defs>
       <path id="DejaVuSans-35" d="M 691 4666 
L 3169 4666 
L 3169 4134 
L 1269 4134 
L 1269 2991 
Q 1406 3038 1543 3061 
Q 1681 3084 1819 3084 
Q 2600 3084 3056 2656 
Q 3513 2228 3513 1497 
Q 3513 744 3044 326 
Q 2575 -91 1722 -91 
Q 1428 -91 1123 -41 
Q 819 9 494 109 
L 494 744 
Q 775 591 1075 516 
Q 1375 441 1709 441 
Q 2250 441 2565 725 
Q 2881 1009 2881 1497 
Q 2881 1984 2565 2268 
Q 2250 2553 1709 2553 
Q 1456 2553 1204 2497 
Q 953 2441 691 2322 
L 691 4666 
z
" transform="scale(0.015625)"/>
      </defs>
      <use xlink:href="#DejaVuSans-35"/>
     </g>
    </g>
   </g>
   <g id="text_3">
    <g clip-path="url(#p566dc4c98a)">
     <!-- 6 -->
     <g transform="translate(448.504508 695.512232) scale(0.15 -0.15)">
      <defs>
       <path id="DejaVuSans-36" d="M 2113 2584 
Q 1688 2584 1439 2293 
Q 1191 2003 1191 1497 
Q 1191 994 1439 701 
Q 1688 409 2113 409 
Q 2538 409 2786 701 
Q 3034 994 3034 1497 
Q 3034 2003 2786 2293 
Q 2538 2584 2113 2584 
z
M 3366 4563 
L 3366 3988 
Q 3128 4100 2886 4159 
Q 2644 4219 2406 4219 
Q 1781 4219 1451 3797 
Q 1122 3375 1075 2522 
Q 1259 2794 1537 2939 
Q 1816 3084 2150 3084 
Q 2853 3084 3261 2657 
Q 3669 2231 3669 1497 
Q 3669 778 3244 343 
Q 2819 -91 2113 -91 
Q 1303 -91 875 529 
Q 447 1150 447 2328 
Q 447 3434 972 4092 
Q 1497 4750 2381 4750 
Q 2619 4750 2861 4703 
Q 3103 4656 3366 4563 
z
" transform="scale(0.015625)"/>
      </defs>
      <use xlink:href="#DejaVuSans-36"/>
     </g>
    </g>
   </g>
   <g id="text_4">
    <g clip-path="url(#p566dc4c98a)">
     <!-- 7 -->
     <g transform="translate(773.221527 606.057161) scale(0.15 -0.15)">
      <defs>
       <path id="DejaVuSans-37" d="M 525 4666 
L 3525 4666 
L 3525 4397 
L 1831 0 
L 1172 0 
L 2766 4134 
L 525 4134 
L 525 4666 
z
" transform="scale(0.015625)"/>
      </defs>
      <use xlink:href="#DejaVuSans-37"/>
     </g>
    </g>
   </g>
   <g id="text_5">
    <g clip-path="url(#p566dc4c98a)">
     <!-- 28 -->
     <g transform="translate(637.542831 561.757501) scale(0.15 -0.15)">
      <defs>
       <path id="DejaVuSans-32" d="M 1228 531 
L 3431 531 
L 3431 0 
L 469 0 
L 469 531 
Q 828 903 1448 1529 
Q 2069 2156 2228 2338 
Q 2531 2678 2651 2914 
Q 2772 3150 2772 3378 
Q 2772 3750 2511 3984 
Q 2250 4219 1831 4219 
Q 1534 4219 1204 4116 
Q 875 4013 500 3803 
L 500 4441 
Q 881 4594 1212 4672 
Q 1544 4750 1819 4750 
Q 2544 4750 2975 4387 
Q 3406 4025 3406 3419 
Q 3406 3131 3298 2873 
Q 3191 2616 2906 2266 
Q 2828 2175 2409 1742 
Q 1991 1309 1228 531 
z
" transform="scale(0.015625)"/>
       <path id="DejaVuSans-38" d="M 2034 2216 
Q 1584 2216 1326 1975 
Q 1069 1734 1069 1313 
Q 1069 891 1326 650 
Q 1584 409 2034 409 
Q 2484 409 2743 651 
Q 3003 894 3003 1313 
Q 3003 1734 2745 1975 
Q 2488 2216 2034 2216 
z
M 1403 2484 
Q 997 2584 770 2862 
Q 544 3141 544 3541 
Q 544 4100 942 4425 
Q 1341 4750 2034 4750 
Q 2731 4750 3128 4425 
Q 3525 4100 3525 3541 
Q 3525 3141 3298 2862 
Q 3072 2584 2669 2484 
Q 3125 2378 3379 2068 
Q 3634 1759 3634 1313 
Q 3634 634 3220 271 
Q 2806 -91 2034 -91 
Q 1263 -91 848 271 
Q 434 634 434 1313 
Q 434 1759 690 2068 
Q 947 2378 1403 2484 
z
M 1172 3481 
Q 1172 3119 1398 2916 
Q 1625 2713 2034 2713 
Q 2441 2713 2670 2916 
Q 2900 3119 2900 3481 
Q 2900 3844 2670 4047 
Q 2441 4250 2034 4250 
Q 1625 4250 1398 4047 
Q 1172 3844 1172 3481 
z
" transform="scale(0.015625)"/>
      </defs>
      <use xlink:href="#DejaVuSans-32"/>
      <use xlink:href="#DejaVuSans-38" x="63.623047"/>
     </g>
    </g>
   </g>
   <g id="text_6">
    <g clip-path="url(#p566dc4c98a)">
     <!-- 8 -->
     <g transform="translate(698.266287 391.766188) scale(0.15 -0.15)">
      <use xlink:href="#DejaVuSans-38"/>
     </g>
    </g>
   </g>
   <g id="text_7">
    <g clip-path="url(#p566dc4c98a)">
     <!-- 9 -->
     <g transform="translate(820.204871 684.604138) scale(0.15 -0.15)">
      <defs>
       <path id="DejaVuSans-39" d="M 703 97 
L 703 672 
Q 941 559 1184 500 
Q 1428 441 1663 441 
Q 2288 441 2617 861 
Q 2947 1281 2994 2138 
Q 2813 1869 2534 1725 
Q 2256 1581 1919 1581 
Q 1219 1581 811 2004 
Q 403 2428 403 3163 
Q 403 3881 828 4315 
Q 1253 4750 1959 4750 
Q 2769 4750 3195 4129 
Q 3622 3509 3622 2328 
Q 3622 1225 3098 567 
Q 2575 -91 1691 -91 
Q 1453 -91 1209 -44 
Q 966 3 703 97 
z
M 1959 2075 
Q 2384 2075 2632 2365 
Q 2881 2656 2881 3163 
Q 2881 3666 2632 3958 
Q 2384 4250 1959 4250 
Q 1534 4250 1286 3958 
Q 1038 3666 1038 3163 
Q 1038 2656 1286 2365 
Q 1534 2075 1959 2075 
z
" transform="scale(0.015625)"/>
      </defs>
      <use xlink:href="#DejaVuSans-39"/>
     </g>
    </g>
   </g>
   <g id="text_8">
    <g clip-path="url(#p566dc4c98a)">
     <!-- 10 -->
     <g transform="translate(554.87675 626.708772) scale(0.15 -0.15)">
      <defs>
       <path id="DejaVuSans-31" d="M 794 531 
L 1825 531 
L 1825 4091 
L 703 3866 
L 703 4441 
L 1819 4666 
L 2450 4666 
L 2450 531 
L 3481 531 
L 3481 0 
L 794 0 
L 794 531 
z
" transform="scale(0.015625)"/>
       <path id="DejaVuSans-30" d="M 2034 4250 
Q 1547 4250 1301 3770 
Q 1056 3291 1056 2328 
Q 1056 1369 1301 889 
Q 1547 409 2034 409 
Q 2525 409 2770 889 
Q 3016 1369 3016 2328 
Q 3016 3291 2770 3770 
Q 2525 4250 2034 4250 
z
M 2034 4750 
Q 2819 4750 3233 4129 
Q 3647 3509 3647 2328 
Q 3647 1150 3233 529 
Q 2819 -91 2034 -91 
Q 1250 -91 836 529 
Q 422 1150 422 2328 
Q 422 3509 836 4129 
Q 1250 4750 2034 4750 
z
" transform="scale(0.015625)"/>
      </defs>
      <use xlink:href="#DejaVuSans-31"/>
      <use xlink:href="#DejaVuSans-30" x="63.623047"/>
     </g>
    </g>
   </g>
   <g id="text_9">
   id="text_9">
    <g clip-path="url(#pd44132e45b)">
     <!-- 11 -->
     <g transform="translate(643.081712 699.424293) scale(0.15 -0.15)">
      <use xlink:href="#DejaVuSans-31"/>
      <use xlink:href="#DejaVuSans-31" x="63.623047"/>
     </g>
    </g>
   </g>
   <g id="text_10">
    <g clip-path="url(#pd44132e45b)">
     <!-- 12 -->
     <g transform="translate(782.337056 533.246032) scale(0.15 -0.15)">
      <use xlink:href="#DejaVuSans-31"/>
      <use xlink:href="#DejaVuSans-32" x="63.623047"/>
     </g>
    </g>
   </g>
   <g id="text_11">
    <g clip-path="url(#pd44132e45b)">
     <!-- 13 -->
     <g transform="translate(905.484507 509.102422) scale(0.15 -0.15)">
      <defs>
       <path id="DejaVuSans-33" d="M 2597 2516 
Q 3050 2419 3304 2112 
Q 3559 1806 3559 1356 
Q 3559 666 3084 287 
Q 2609 -91 1734 -91 
Q 1441 -91 1130 -33 
Q 819 25 488 141 
L 488 750 
Q 750 597 1062 519 
Q 1375 441 1716 441 
Q 2309 441 2620 675 
Q 2931 909 2931 1356 
Q 2931 1769 2642 2001 
Q 2353 2234 1838 2234 
L 1294 2234 
L 1294 2753 
L 1863 2753 
Q 2328 2753 2575 2939 
Q 2822 3125 2822 3475 
Q 2822 3834 2567 4026 
Q 2313 4219 1838 4219 
Q 1578 4219 1281 4162 
Q 984 4106 628 3988 
L 628 4550 
Q 988 4650 1302 4700 
Q 1616 4750 1894 4750 
Q 2613 4750 3031 4423 
Q 3450 4097 3450 3541 
Q 3450 3153 3228 2886 
Q 3006 2619 2597 2516 
z
" transform="scale(0.015625)"/>
      </defs>
      <use xlink:href="#DejaVuSans-31"/>
      <use xlink:href="#DejaVuSans-33" x="63.623047"/>
     </g>
    </g>
   </g>
   <g id="text_12">
    <g clip-path="url(#pd44132e45b)">
     <!-- 14 -->
     <g transform="translate(913.035876 746.743294) scale(0.15 -0.15)">
      <use xlink:href="#DejaVuSans-31"/>
      <use xlink:href="#DejaVuSans-34" x="63.623047"/>
     </g>
    </g>
   </g>
   <g id="text_13">
    <g clip-path="url(#pd44132e45b)">
     <!-- 15 -->
     <g transform="translate(680.091883 786.50789) scale(0.15 -0.15)">
      <use xlink:href="#DejaVuSans-31"/>
      <use xlink:href="#DejaVuSans-35" x="63.623047"/>
     </g>
    </g>
   </g>
   <g id="text_14">
    <g clip-path="url(#pd44132e45b)">
     <!-- 0 -->
     <g transform="translate(533.668543 319.724637) scale(0.15 -0.15)">
      <use xlink:href="#DejaVuSans-30"/>
     </g>
    </g>
   </g>
   <g id="text_15">
    <g clip-path="url(#pd44132e45b)">
     <!-- 16 -->
     <g transform="translate(225.606392 268.256865) scale(0.15 -0.15)">
      <use xlink:href="#DejaVuSans-31"/>
      <use xlink:href="#DejaVuSans-36" x="63.623047"/>
     </g>
    </g>
   </g>
   <g id="text_16">
    <g clip-path="url(#pd44132e45b)">
     <!-- 1 -->
     <g transform="translate(780.882849 236.7434) scale(0.15 -0.15)">
      <use xlink:href="#DejaVuSans-31"/>
     </g>
    </g>
   </g>
   <g id="text_17">
    <g clip-path="url(#pd44132e45b)">
     <!-- 17 -->
     <g transform="translate(522.545289 122.503924) scale(0.15 -0.15)">
      <use xlink:href="#DejaVuSans-31"/>
      <use xlink:href="#DejaVuSans-37" x="63.623047"/>
     </g>
    </g>
   </g>
   <g id="text_18">
    <g clip-path="url(#pd44132e45b)">
     <!-- 2 -->
     <g transform="translate(920.311042 880.979809) scale(0.15 -0.15)">
      <use xlink:href="#DejaVuSans-32"/>
     </g>
    </g>
   </g>
   <g id="text_19">
    <g clip-path="url(#pd44132e45b)">
     <!-- 18 -->
     <g transform="translate(729.597361 1007.521477) scale(0.15 -0.15)">
      <use xlink:href="#DejaVuSans-31"/>
      <use xlink:href="#DejaVuSans-38" x="63.623047"/>
     </g>
    </g>
   </g>
   <g id="text_20">
    <g clip-path="url(#pd44132e45b)">
     <!-- 3 -->
     <g transform="translate(382.959208 861.046636) scale(0.15 -0.15)">
      <use xlink:href="#DejaVuSans-33"/>
     </g>
    </g>
   </g>
   <g id="text_21">
    <g clip-path="url(#pd44132e45b)">
     <!-- 19 -->
     <g transform="translate(102.91906 838.70849) scale(0.15 -0.15)">
      <use xlink:href="#DejaVuSans-31"/>
      <use xlink:href="#DejaVuSans-39" x="63.623047"/>
     </g>
    </g>
   </g>
   <g id="text_22">
    <g clip-path="url(#pd44132e45b)">
     <!-- 20 -->
     <g transform="translate(600.252506 343.516347) scale(0.15 -0.15)">
      <use xlink:href="#DejaVuSans-32"/>
      <use xlink:href="#DejaVuSans-30" x="63.623047"/>
     </g>
    </g>
   </g>
   <g id="text_23">
    <g clip-path="url(#pd44132e45b)">
     <!-- 21 -->
     <g transform="translate(917.402539 104.106005) scale(0.15 -0.15)">
      <use xlink:href="#DejaVuSans-32"/>
      <use xlink:href="#DejaVuSans-31" x="63.623047"/>
     </g>
    </g>
   </g>
   <g id="text_24">
    <g clip-path="url(#pd44132e45b)">
     <!-- 22 -->
     <g transform="translate(1173.99344 820.371282) scale(0.15 -0.15)">
      <use xlink:href="#DejaVuSans-32"/>
      <use xlink:href="#DejaVuSans-32" x="63.623047"/>
     </g>
    </g>
   </g>
   <g id="text_25">
    <g clip-path="url(#pd44132e45b)">
     <!-- 23 -->
     <g transform="translate(466.523848 956.723294) scale(0.15 -0.15)">
      <use xlink:href="#DejaVuSans-32"/>
      <use xlink:href="#DejaVuSans-33" x="63.623047"/>
     </g>
    </g>
   </g>
   <g id="text_26">
    <g clip-path="url(#pd44132e45b)">
     <!-- 24 -->
     <g transform="translate(849.230783 280.357327) scale(0.15 -0.15)">
      <use xlink:href="#DejaVuSans-32"/>
      <use xlink:href="#DejaVuSans-34" x="63.623047"/>
     </g>
    </g>
   </g>
   <g id="text_27">
    <g clip-path="url(#pd44132e45b)">
     <!-- 25 -->
     <g transform="translate(1072.124246 254.481793) scale(0.15 -0.15)">
      <use xlink:href="#DejaVuSans-32"/>
      <use xlink:href="#DejaVuSans-35" x="63.623047"/>
     </g>
    </g>
   </g>
   <g id="text_28">
    <g clip-path="url(#pd44132e45b)">
     <!-- 26 -->
     <g transform="translate(1110.212141 985.21232) scale(0.15 -0.15)">
      <use xlink:href="#DejaVuSans-32"/>
      <use xlink:href="#DejaVuSans-36" x="63.623047"/>
     </g>
    </g>
   </g>
   <g id="text_29">
    <g clip-path="url(#pd44132e45b)">
     <!-- 27 -->
     <g transform="translate(453.729409 1056.17212) scale(0.15 -0.15)">
      <use xlink:href="#DejaVuSans-32"/>
      <use xlink:href="#DejaVuSans-37" x="63.623047"/>
     </g>
    </g>
   </g>
  </g>
 </g>
 <defs>
  <clipPath id="pd44132e45b">
   <rect x="0" y="0" width="1296" height="1152"/>
  </clipPath>
 </defs>
</svg>
