<?xml version="1.0" encoding="utf-8" standalone="no"?>
<!DOCTYPE svg PUBLIC "-//W3C//DTD SVG 1.1//EN"
  "http://www.w3.org/Graphics/SVG/1.1/DTD/svg11.dtd">
<svg xmlns:xlink="http://www.w3.org/1999/xlink" width="1296pt" height="1152pt" viewBox="0 0 1296 1152" xmlns="http://www.w3.org/2000/svg" version="1.1">
 <metadata>
  <rdf:RDF xmlns:dc="http://purl.org/dc/elements/1.1/" xmlns:cc="http://creativecommons.org/ns#" xmlns:rdf="http://www.w3.org/1999/02/22-rdf-syntax-ns#">
   <cc:Work>
    <dc:type rdf:resource="http://purl.org/dc/dcmitype/StillImage"/>
    <dc:date>2025-02-13T10:59:01.203005</dc:date>
    <dc:format>image/svg+xml</dc:format>
    <dc:creator>
     <cc:Agent>
      <dc:title>Matplotlib v3.9.1, https://matplotlib.org/</dc:title>
     </cc:Agent>
    </dc:creator>
   </cc:Work>
  </rdf:RDF>
 </metadata>
 <defs>
  <style type="text/css">*{stroke-linejoin: round; stroke-linecap: butt}</style>
 </defs>
 <g id="figure_1">
  <g id="patch_1">
   <path d="M 0 1152 
L 1296 1152 
L 1296 0 
L 0 0 
z
" style="fill: #ffffff"/>
  </g>
  <g id="axes_1">
   <g id="patch_2">
    <path d="M 759.385206 668.321423 
Q 598.265623 690.200259 437.14604 712.079094 
" clip-path="url(#p4308265ba6)" style="fill: none; stroke: #000000; stroke-linecap: round"/>
   </g>
   <g id="patch_3">
    <path d="M 759.794447 665.563267 
Q 586.939356 586.249155 414.084264 506.935043 
" clip-path="url(#p4308265ba6)" style="fill: none; stroke: #000000; stroke-linecap: round"/>
   </g>
   <g id="patch_4">
    <path d="M 759.803688 665.553457 
Q 692.540479 634.481535 625.277269 603.409613 
" clip-path="url(#p4308265ba6)" style="fill: none; stroke: #000000; stroke-linecap: round"/>
   </g>
   <g id="patch_5">
    <path d="M 769.329972 667.985648 
Q 885.206906 675.809533 1001.08384 683.633419 
" clip-path="url(#p4308265ba6)" style="fill: none; stroke: #000000; stroke-linecap: round"/>
   </g>
   <g id="patch_6">
    <path d="M 769.171932 668.935681 
Q 941.569021 714.847866 1113.96611 760.76005 
" clip-path="url(#p4308265ba6)" style="fill: none; stroke: #000000; stroke-linecap: round"/>
   </g>
   <g id="patch_7">
    <path d="M 431.649272 707.780906 
Q 420.864776 608.800067 410.08028 509.819228 
" clip-path="url(#p4308265ba6)" style="fill: none; stroke: #000000; stroke-linecap: round"/>
   </g>
   <g id="patch_8">
    <path d="M 436.497824 710.206452 
Q 526.467132 657.03211 616.43644 603.857768 
" clip-path="url(#p4308265ba6)" style="fill: none; stroke: #000000; stroke-linecap: round"/>
   </g>
   <g id="patch_9">
    <path d="M 434.935081 716.937013 
Q 454.471023 746.730493 474.006964 776.523973 
" clip-path="url(#p4308265ba6)" style="fill: none; stroke: #000000; stroke-linecap: round"/>
   </g>
   <g id="patch_10">
    <path d="M 428.531368 716.163478 
Q 334.93351 803.417968 241.335652 890.672458 
" clip-path="url(#p4308265ba6)" style="fill: none; stroke: #000000; stroke-linecap: round"/>
   </g>
   <g id="patch_11">
    <path d="M 414.085993 506.926259 
Q 515.138178 553.080949 616.190363 599.235639 
" clip-path="url(#p4308265ba6)" style="fill: none; stroke: #000000; stroke-linecap: round"/>
   </g>
   <g id="patch_12">
    <path d="M 407.603163 500.237617 
Q 370.2163 411.161048 332.829436 322.084478 
" clip-path="url(#p4308265ba6)" style="fill: none; stroke: #000000; stroke-linecap: round"/>
   </g>
   <g id="patch_13">
    <path d="M 404.720187 503.52313 
Q 261.001855 463.967251 117.283523 424.411372 
" clip-path="url(#p4308265ba6)" style="fill: none; stroke: #000000; stroke-linecap: round"/>
   </g>
   <g id="patch_14">
    <path d="M 623.313152 605.602646 
Q 676.828335 694.817615 730.343517 784.032584 
" clip-path="url(#p4308265ba6)" style="fill: none; stroke: #000000; stroke-linecap: round"/>
   </g>
   <g id="patch_15">
    <path d="M 618.877394 605.950861 
Q 569.392718 729.105013 519.908041 852.259165 
" clip-path="url(#p4308265ba6)" style="fill: none; stroke: #000000; stroke-linecap: round"/>
   </g>
   <g id="patch_16">
    <path d="M 615.746919 601.134467 
Q 503.107528 597.086937 390.468137 593.039406 
" clip-path="url(#p4308265ba6)" style="fill: none; stroke: #000000; stroke-linecap: round"/>
   </g>
   <g id="patch_17">
    <path d="M 625.215779 599.084595 
Q 759.212948 532.334264 893.210116 465.583934 
" clip-path="url(#p4308265ba6)" style="fill: none; stroke: #000000; stroke-linecap: round"/>
   </g>
   <g id="patch_18">
    <path d="M 623.422638 597.095901 
Q 653.954875 549.078737 684.487112 501.061573 
" clip-path="url(#p4308265ba6)" style="fill: none; stroke: #000000; stroke-linecap: round"/>
   </g>
   <g id="patch_19">
    <path d="M 620.745488 596.31204 
Q 620.882734 456.652815 621.01998 316.993591 
" clip-path="url(#p4308265ba6)" style="fill: none; stroke: #000000; stroke-linecap: round"/>
   </g>
   <g id="patch_20">
    <path d="M 728.15009 789.838212 
Q 625.477873 822.607478 522.805656 855.376745 
" clip-path="url(#p4308265ba6)" style="fill: none; stroke: #000000; stroke-linecap: round"/>
   </g>
   <g id="patch_21">
    <path d="M 728.558691 785.867672 
Q 559.192492 690.589588 389.826293 595.311503 
" clip-path="url(#p4308265ba6)" style="fill: none; stroke: #000000; stroke-linecap: round"/>
   </g>
   <g id="patch_22">
    <path d="M 737.586365 786.532883 
Q 869.492259 736.14439 1001.398152 685.755897 
" clip-path="url(#p4308265ba6)" style="fill: none; stroke: #000000; stroke-linecap: round"/>
   </g>
   <g id="patch_23">
    <path d="M 737.442096 790.438102 
Q 869.668417 852.354367 1001.894738 914.270633 
" clip-path="url(#p4308265ba6)" style="fill: none; stroke: #000000; stroke-linecap: round"/>
   </g>
   <g id="patch_24">
    <path d="M 515.801353 852.428208 
Q 451.75733 724.879787 387.713307 597.331366 
" clip-path="url(#p4308265ba6)" style="fill: none; stroke: #000000; stroke-linecap: round"/>
   </g>
   <g id="patch_25">
    <path d="M 515.661779 852.499516 
Q 497.397226 818.801317 479.132672 785.103119 
" clip-path="url(#p4308265ba6)" style="fill: none; stroke: #000000; stroke-linecap: round"/>
   </g>
   <g id="patch_26">
    <path d="M 515.959394 861.442954 
Q 473.293299 954.465268 430.627204 1047.487582 
" clip-path="url(#p4308265ba6)" style="fill: none; stroke: #000000; stroke-linecap: round"/>
   </g>
   <g id="patch_27">
    <path d="M 384.496243 587.955951 
Q 358.181678 455.168951 331.867112 322.38195 
" clip-path="url(#p4308265ba6)" style="fill: none; stroke: #000000; stroke-linecap: round"/>
   </g>
   <g id="patch_28">
    <path d="M 382.019627 589.239042 
Q 263.899489 465.217419 145.77935 341.195796 
" clip-path="url(#p4308265ba6)" style="fill: none; stroke: #000000; stroke-linecap: round"/>
   </g>
   <g id="patch_29">
    <path d="M 892.750617 464.138779 
Q 792.430544 480.09768 692.110472 496.056581 
" clip-path="url(#p4308265ba6)" style="fill: none; stroke: #000000; stroke-linecap: round"/>
   </g>
   <g id="patch_30">
    <path d="M 893.301663 460.953691 
Q 759.354838 387.671559 625.408013 314.389427 
" clip-path="url(#p4308265ba6)" style="fill: none; stroke: #000000; stroke-linecap: round"/>
   </g>
   <g id="patch_31">
    <path d="M 899.892386 467.840705 
Q 951.879946 573.661275 1003.867506 679.481845 
" clip-path="url(#p4308265ba6)" style="fill: none; stroke: #000000; stroke-linecap: round"/>
   </g>
   <g id="patch_32">
    <path d="M 902.647115 463.994538 
Q 1040.612677 481.831779 1178.578239 499.66902 
" clip-path="url(#p4308265ba6)" style="fill: none; stroke: #000000; stroke-linecap: round"/>
   </g>
   <g id="patch_33">
    <path d="M 685.485325 492.134949 
Q 654.097553 404.417512 622.709782 316.700076 
" clip-path="url(#p4308265ba6)" style="fill: none; stroke: #000000; stroke-linecap: round"/>
   </g>
   <g id="patch_34">
    <path d="M 684.191868 500.859953 
Q 581.959716 638.77603 479.727564 776.692106 
" clip-path="url(#p4308265ba6)" style="fill: none; stroke: #000000; stroke-linecap: round"/>
   </g>
   <g id="patch_35">
    <path d="M 682.22145 497.539741 
Q 615.103803 506.996304 547.986155 516.452868 
" clip-path="url(#p4308265ba6)" style="fill: none; stroke: #000000; stroke-linecap: round"/>
   </g>
   <g id="patch_36">
    <path d="M 616.026771 312.08589 
Q 475.960221 314.733051 335.89367 317.380211 
" clip-path="url(#p59ebf31b18)" style="fill: none; stroke: #000000; stroke-linecap: round"/>
   </g>
   <g id="patch_37">
    <path d="M 617.929042 308.067087 
Q 537.394877 205.980972 456.860712 103.894858 
" clip-path="url(#p59ebf31b18)" style="fill: none; stroke: #000000; stroke-linecap: round"/>
   </g>
   <g id="patch_38">
    <path d="M 1010.183457 686.817579 
Q 1062.433418 723.007515 1114.68338 759.197452 
" clip-path="url(#p59ebf31b18)" style="fill: none; stroke: #000000; stroke-linecap: round"/>
   </g>
   <g id="patch_39">
    <path d="M 1006.08008 688.967202 
Q 1006.247176 800.178553 1006.414272 911.389904 
" clip-path="url(#p59ebf31b18)" style="fill: none; stroke: #000000; stroke-linecap: round"/>
   </g>
   <g id="patch_40">
    <path d="M 1009.546801 680.374734 
Q 1094.804375 592.140726 1180.061949 503.906717 
" clip-path="url(#p59ebf31b18)" style="fill: none; stroke: #000000; stroke-linecap: round"/>
   </g>
   <g id="patch_41">
    <path d="M 472.230831 782.851535 
Q 357.215975 837.393739 242.201119 891.935942 
" clip-path="url(#p59ebf31b18)" style="fill: none; stroke: #000000; stroke-linecap: round"/>
   </g>
   <g id="patch_42">
    <path d="M 475.875969 785.630744 
Q 452.646485 916.370557 429.417001 1047.110371 
" clip-path="url(#p59ebf31b18)" style="fill: none; stroke: #000000; stroke-linecap: round"/>
   </g>
   <g id="patch_43">
    <path d="M 477.969408 775.862177 
Q 509.893469 648.931946 541.81753 522.001715 
" clip-path="url(#p59ebf31b18)" style="fill: none; stroke: #000000; stroke-linecap: round"/>
   </g>
   <g id="patch_44">
    <path d="M 326.391744 319.651797 
Q 221.67801 370.279968 116.964275 420.908139 
" clip-path="url(#p59ebf31b18)" style="fill: none; stroke: #000000; stroke-linecap: round"/>
   </g>
   <g id="patch_45">
    <path d="M 325.925653 318.004412 
Q 236.615234 327.525424 147.304815 337.046436 
" clip-path="url(#p59ebf31b18)" style="fill: none; stroke: #000000; stroke-linecap: round"/>
   </g>
   <g id="patch_46">
    <path d="M 333.352507 313.123605 
Q 392.327199 208.722831 451.30189 104.322056 
" clip-path="url(#p59ebf31b18)" style="fill: none; stroke: #000000; stroke-linecap: round"/>
   </g>
   <g id="PathCollection_1">
    <defs>
     <path id="mb192db0405" d="M 0 5 
C 1.326016 5 2.597899 4.473168 3.535534 3.535534 
C 4.473168 2.597899 5 1.326016 5 0 
C 5 -1.326016 4.473168 -2.597899 3.535534 -3.535534 
C 2.597899 -4.473168 1.326016 -5 0 -5 
C -1.326016 -5 -2.597899 -4.473168 -3.535534 -3.535534 
C -4.473168 -2.597899 -5 -1.326016 -5 0 
C -5 1.326016 -4.473168 2.597899 -3.535534 3.535534 
C -2.597899 4.473168 -1.326016 5 0 5 
z
" style="stroke: #0000ff"/>
    </defs>
    <g clip-path="url(#p59ebf31b18)">
     <use xlink:href="#mb192db0405" x="764.339355" y="667.648687" style="fill: #0000ff; stroke: #0000ff"/>
     <use xlink:href="#mb192db0405" x="432.190895" y="712.751966" style="fill: #0000ff; stroke: #0000ff"/>
     <use xlink:href="#mb192db0405" x="409.538787" y="504.849363" style="fill: #0000ff; stroke: #0000ff"/>
     <use xlink:href="#mb192db0405" x="620.740573" y="601.313907" style="fill: #0000ff; stroke: #0000ff"/>
     <use xlink:href="#mb192db0405" x="732.913959" y="788.317757" style="fill: #0000ff; stroke: #0000ff"/>
     <use xlink:href="#mb192db0405" x="518.044817" y="856.896233" style="fill: #0000ff; stroke: #0000ff"/>
     <use xlink:href="#mb192db0405" x="385.468032" y="592.859735" style="fill: #0000ff; stroke: #0000ff"/>
     <use xlink:href="#mb192db0405" x="897.687845" y="463.353365" style="fill: #0000ff; stroke: #0000ff"/>
     <use xlink:href="#mb192db0405" x="687.169832" y="496.842537" style="fill: #0000ff; stroke: #0000ff"/>
     <use xlink:href="#mb192db0405" x="621.024895" y="311.991429" style="fill: #0000ff; stroke: #0000ff"/>
     <use xlink:href="#mb192db0405" x="1006.072572" y="683.970253" style="fill: #0000ff; stroke: #0000ff"/>
     <use xlink:href="#mb192db0405" x="1118.796819" y="762.046547" style="fill: #0000ff; stroke: #0000ff"/>
     <use xlink:href="#mb192db0405" x="476.750597" y="780.708178" style="fill: #0000ff; stroke: #0000ff"/>
     <use xlink:href="#mb192db0405" x="237.680908" y="894.079511" style="fill: #0000ff; stroke: #0000ff"/>
     <use xlink:href="#mb192db0405" x="330.894634" y="317.47469" style="fill: #0000ff; stroke: #0000ff"/>
     <use xlink:href="#mb192db0405" x="112.46281" y="423.084558" style="fill: #0000ff; stroke: #0000ff"/>
     <use xlink:href="#mb192db0405" x="1006.421786" y="916.390467" style="fill: #0000ff; stroke: #0000ff"/>
     <use xlink:href="#mb192db0405" x="428.542352" y="1052.033058" style="fill: #0000ff; stroke: #0000ff"/>
     <use xlink:href="#mb192db0405" x="142.332309" y="337.576534" style="fill: #0000ff; stroke: #0000ff"/>
     <use xlink:href="#mb192db0405" x="1183.53719" y="500.310151" style="fill: #0000ff; stroke: #0000ff"/>
     <use xlink:href="#mb192db0405" x="543.03776" y="517.150073" style="fill: #0000ff; stroke: #0000ff"/>
     <use xlink:href="#mb192db0405" x="453.76204" y="99.966942" style="fill: #0000ff; stroke: #0000ff"/>
    </g>
   </g>
   <g id="text_1">
    <g clip-path="url(#p59ebf31b18)">
     <!-- 3 -->
     <g transform="translate(759.56748 671.787749) scale(0.15 -0.15)">
      <defs>
       <path id="DejaVuSans-33" d="M 2597 2516 
Q 3050 2419 3304 2112 
Q 3559 1806 3559 1356 
Q 3559 666 3084 287 
Q 2609 -91 1734 -91 
Q 1441 -91 1130 -33 
Q 819 25 488 141 
L 488 750 
Q 750 597 1062 519 
Q 1375 441 1716 441 
Q 2309 441 2620 675 
Q 2931 909 2931 1356 
Q 2931 1769 2642 2001 
Q 2353 2234 1838 2234 
L 1294 2234 
L 1294 2753 
L 1863 2753 
Q 2328 2753 2575 2939 
Q 2822 3125 2822 3475 
Q 2822 3834 2567 4026 
Q 2313 4219 1838 4219 
Q 1578 4219 1281 4162 
Q 984 4106 628 3988 
L 628 4550 
Q 988 4650 1302 4700 
Q 1616 4750 1894 4750 
Q 2613 4750 3031 4423 
Q 3450 4097 3450 3541 
Q 3450 3153 3228 2886 
Q 3006 2619 2597 2516 
z
" transform="scale(0.015625)"/>
      </defs>
      <use xlink:href="#DejaVuSans-33"/>
     </g>
    </g>
   </g>
   <g id="text_2">
    <g clip-path="url(#p59ebf31b18)">
     <!-- 4 -->
     <g transform="translate(427.41902 716.891028) scale(0.15 -0.15)">
      <defs>
       <path id="DejaVuSans-34" d="M 2419 4116 
L 825 1625 
L 2419 1625 
L 2419 4116 
z
M 2253 4666 
L 3047 4666 
L 3047 1625 
L 3713 1625 
L 3713 1100 
L 3047 1100 
L 3047 0 
L 2419 0 
L 2419 1100 
L 313 1100 
L 313 1709 
L 2253 4666 
z
" transform="scale(0.015625)"/>
      </defs>
      <use xlink:href="#DejaVuSans-34"/>
     </g>
    </g>
   </g>
   <g id="text_3">
    <g clip-path="url(#p59ebf31b18)">
     <!-- 5 -->
     <g transform="translate(404.766912 508.988425) scale(0.15 -0.15)">
      <defs>
       <path id="DejaVuSans-35" d="M 691 4666 
L 3169 4666 
L 3169 4134 
L 1269 4134 
L 1269 2991 
Q 1406 3038 1543 3061 
Q 1681 3084 1819 3084 
Q 2600 3084 3056 2656 
Q 3513 2228 3513 1497 
Q 3513 744 3044 326 
Q 2575 -91 1722 -91 
Q 1428 -91 1123 -41 
Q 819 9 494 109 
L 494 744 
Q 775 591 1075 516 
Q 1375 441 1709 441 
Q 2250 441 2565 725 
Q 2881 1009 2881 1497 
Q 2881 1984 2565 2268 
Q 2250 2553 1709 2553 
Q 1456 2553 1204 2497 
Q 953 2441 691 2322 
L 691 4666 
z
" transform="scale(0.015625)"/>
      </defs>
      <use xlink:href="#DejaVuSans-35"/>
     </g>
    </g>
   </g>
   <g id="text_4">
    <g clip-path="url(#p59ebf31b18)">
     <!-- 21 -->
     <g transform="translate(611.196823 605.45297) scale(0.15 -0.15)">
      <defs>
       <path id="DejaVuSans-32" d="M 1228 531 
L 3431 531 
L 3431 0 
L 469 0 
L 469 531 
Q 828 903 1448 1529 
Q 2069 2156 2228 2338 
Q 2531 2678 2651 2914 
Q 2772 3150 2772 3378 
Q 2772 3750 2511 3984 
Q 2250 4219 1831 4219 
Q 1534 4219 1204 4116 
Q 875 4013 500 3803 
L 500 4441 
Q 881 4594 1212 4672 
Q 1544 4750 1819 4750 
Q 2544 4750 2975 4387 
Q 3406 4025 3406 3419 
Q 3406 3131 3298 2873 
Q 3191 2616 2906 2266 
Q 2828 2175 2409 1742 
Q 1991 1309 1228 531 
z
" transform="scale(0.015625)"/>
       <path id="DejaVuSans-31" d="M 794 531 
L 1825 531 
L 1825 4091 
L 703 3866 
L 703 4441 
L 1819 4666 
L 2450 4666 
L 2450 531 
L 3481 531 
L 3481 0 
L 794 0 
L 794 531 
z
" transform="scale(0.015625)"/>
      </defs>
      <use xlink:href="#DejaVuSans-32"/>
      <use xlink:href="#DejaVuSans-31" x="63.623047"/>
     </g>
    </g>
   </g>
   <g id="text_5">
    <g clip-path="url(#p59ebf31b18)">
     <!-- 6 -->
     <g transform="translate(728.142084 792.45682) scale(0.15 -0.15)">
      <defs>
       <path id="DejaVuSans-36" d="M 2113 2584 
Q 1688 2584 1439 2293 
Q 1191 2003 1191 1497 
Q 1191 994 1439 701 
Q 1688 409 2113 409 
Q 2538 409 2786 701 
Q 3034 994 3034 1497 
Q 3034 2003 2786 2293 
Q 2538 2584 2113 2584 
z
M 3366 4563 
L 3366 3988 
Q 3128 4100 2886 4159 
Q 2644 4219 2406 4219 
Q 1781 4219 1451 3797 
Q 1122 3375 1075 2522 
Q 1259 2794 1537 2939 
Q 1816 3084 2150 3084 
Q 2853 3084 3261 2657 
Q 3669 2231 3669 1497 
Q 3669 778 3244 343 
Q 2819 -91 2113 -91 
Q 1303 -91 875 529 
Q 447 1150 447 2328 
Q 447 3434 972 4092 
Q 1497 4750 2381 4750 
Q 2619 4750 2861 4703 
Q 3103 4656 3366 4563 
z
" transform="scale(0.015625)"/>
      </defs>
      <use xlink:href="#DejaVuSans-36"/>
     </g>
    </g>
   </g>
   <g id="text_6">
    <g clip-path="url(#p59ebf31b18)">
     <!-- 7 -->
     <g transform="translate(513.272942 861.035295) scale(0.15 -0.15)">
      <defs>
       <path id="DejaVuSans-37" d="M 525 4666 
L 3525 4666 
L 3525 4397 
L 1831 0 
L 1172 0 
L 2766 4134 
L 525 4134 
L 525 4666 
z
" transform="scale(0.015625)"/>
      </defs>
      <use xlink:href="#DejaVuSans-37"/>
     </g>
    </g>
   </g>
   <g id="text_7">
    <g clip-path="url(#p59ebf31b18)">
     <!-- 8 -->
     <g transform="translate(380.696157 596.998797) scale(0.15 -0.15)">
      <defs>
       <path id="DejaVuSans-38" d="M 2034 2216 
Q 1584 2216 1326 1975 
Q 1069 1734 1069 1313 
Q 1069 891 1326 650 
Q 1584 409 2034 409 
Q 2484 409 2743 651 
Q 3003 894 3003 1313 
Q 3003 1734 2745 1975 
Q 2488 2216 2034 2216 
z
M 1403 2484 
Q 997 2584 770 2862 
Q 544 3141 544 3541 
Q 544 4100 942 4425 
Q 1341 4750 2034 4750 
Q 2731 4750 3128 4425 
Q 3525 4100 3525 3541 
Q 3525 3141 3298 2862 
Q 3072 2584 2669 2484 
Q 3125 2378 3379 2068 
Q 3634 1759 3634 1313 
Q 3634 634 3220 271 
Q 2806 -91 2034 -91 
Q 1263 -91 848 271 
Q 434 634 434 1313 
Q 434 1759 690 2068 
Q 947 2378 1403 2484 
z
M 1172 3481 
Q 1172 3119 1398 2916 
Q 1625 2713 2034 2713 
Q 2441 2713 2670 2916 
Q 2900 3119 2900 3481 
Q 2900 3844 2670 4047 
Q 2441 4250 2034 4250 
Q 1625 4250 1398 4047 
Q 1172 3844 1172 3481 
z
" transform="scale(0.015625)"/>
      </defs>
      <use xlink:href="#DejaVuSans-38"/>
     </g>
    </g>
   </g>
   <g id="text_8">
    <g clip-path="url(#p59ebf31b18)">
     <!-- 9 -->
     <g transform="translate(892.91597 467.492428) scale(0.15 -0.15)">
      <defs>
       <path id="DejaVuSans-39" d="M 703 97 
L 703 672 
Q 941 559 1184 500 
Q 1428 441 1663 441 
Q 2288 441 2617 861 
Q 2947 1281 2994 2138 
Q 2813 1869 2534 1725 
Q 2256 1581 1919 1581 
Q 1219 1581 811 2004 
Q 403 2428 403 3163 
Q 403 3881 828 4315 
Q 1253 4750 1959 4750 
Q 2769 4750 3195 4129 
Q 3622 3509 3622 2328 
Q 3622 1225 3098 567 
Q 2575 -91 1691 -91 
Q 1453 -91 1209 -44 
Q 966 3 703 97 
z
M 1959 2075 
Q 2384 2075 2632 2365 
Q 2881 2656 2881 3163 
Q 2881 3666 2632 3958 
Q 2384 4250 1959 4250 
Q 1534 4250 1286 3958 
Q 1038 3666 1038 3163 
Q 1038 2656 1286 2365 
Q 1534 2075 1959 2075 
z
" transform="scale(0.015625)"/>
      </defs>
      <use xlink:href="#DejaVuSans-39"/>
     </g>
    </g>
   </g>
   <g id="text_9">
    <g clip-path="url(#p59ebf31b18)">
     <!-- 10 -->
     <g transform="translate(677.626082 500.981599) scale(0.15 -0.15)">
      <defs>
       <path id="DejaVuSans-30" d="M 2034 4250 
Q 1547 4250 1301 3770 
Q 1056 3291 1056 2328 
Q 1056 1369 1301 889 
Q 1547 409 2034 409 
Q 2525 409 2770 889 
Q 3016 1369 3016 2328 
Q 3016 3291 2770 3770 
Q 2525 4250 2034 4250 
z
M 2034 4750 
Q 2819 4750 3233 4129 
Q 3647 3509 3647 2328 
Q 3647 1150 3233 529 
Q 2819 -91 2034 -91 
Q 1250 -91 836 529 
Q 422 1150 422 2328 
Q 422 3509 836 4129 
Q 1250 4750 2034 4750 
z
" transform="scale(0.015625)"/>
      </defs>
      <use xlink:href="#DejaVuSans-31"/>
      <use xlink:href="#DejaVuSans-30" x="63.623047"/>
     </g>
    </g>
   </g>
   <g id="text_10">
    <g clip-path="url(#p59ebf31b18)">
     <!-- 11 -->
     <g transform="translate(611.481145 316.130492) scale(0.15 -0.15)">
      <use xlink:href="#DejaVuSans-31"/>
      <use xlink:href="#DejaVuSans-31" x="63.623047"/>
     </g>
    </g>
   </g>
   <g id="text_11">
    <g clip-path="url(#p59ebf31b18)">
     <!-- 0 -->
     <g transform="translate(1001.300697 688.109315) scale(0.15 -0.15)">
      <use xlink:href="#DejaVuSans-30"/>
     </g>
    </g>
   </g>
   <g id="text_12">
    <g clip-path="url(#p59ebf31b18)">
     <!-- 12 -->
     <g transform="translate(1109.253069 766.18561) scale(0.15 -0.15)">
      <use xlink:href="#DejaVuSans-31"/>
      <use xlink:href="#DejaVuSans-32" x="63.623047"/>
     </g>
    </g>
   </g>
   <g id="text_13">
    <g clip-path="url(#p59ebf31b18)">
     <!-- 1 -->
     <g transform="translate(471.978722 784.84724) scale(0.15 -0.15)">
      <use xlink:href="#DejaVuSans-31"/>
     </g>
    </g>
   </g>
   <g id="text_14">
    <g clip-path="url(#p59ebf31b18)">
     <!-- 13 -->
     <g transform="translate(228.137158 898.218573) scale(0.15 -0.15)">
      <use xlink:href="#DejaVuSans-31"/>
      <use xlink:href="#DejaVuSans-33" x="63.623047"/>
     </g>
    </g>
   </g>
   <g id="text_15">
    <g clip-path="url(#p59ebf31b18)">
     <!-- 2 -->
     <g transform="translate(326.122759 321.613752) scale(0.15 -0.15)">
      <use xlink:href="#DejaVuSans-32"/>
     </g>
    </g>
   </g>
   <g id="text_16">
    <g clip-path="url(#p59ebf31b18)">
     <!-- 14 -->
     <g transform="translate(102.91906 427.22362) scale(0.15 -0.15)">
      <use xlink:href="#DejaVuSans-31"/>
      <use xlink:href="#DejaVuSans-34" x="63.623047"/>
     </g>
    </g>
   </g>
   <g id="text_17">
    <g clip-path="url(#p59ebf31b18)">
     <!-- 15 -->
     <g transform="translate(996.878036 920.52953) scale(0.15 -0.15)">
      <use xlink:href="#DejaVuSans-31"/>
      <use xlink:href="#DejaVuSans-35" x="63.623047"/>
     </g>
    </g>
   </g>
   <g id="text_18">
    <g clip-path="url(#p59ebf31b18)">
     <!-- 16 -->
     <g transform="translate(418.998602 1056.17212) scale(0.15 -0.15)">
      <use xlink:href="#DejaVuSans-31"/>
      <use xlink:href="#DejaVuSans-36" x="63.623047"/>
     </g>
    </g>
   </g>
   <g id="text_19">
    <g clip-path="url(#p59ebf31b18)">
     <!-- 17 -->
     <g transform="translate(132.788559 341.715597) scale(0.15 -0.15)">
      <use xlink:href="#DejaVuSans-31"/>
      <use xlink:href="#DejaVuSans-37" x="63.623047"/>
     </g>
    </g>
   </g>
   <g id="text_20">
    <g clip-path="url(#p59ebf31b18)">
     <!-- 18 -->
     <g transform="translate(1173.99344 504.449214) scale(0.15 -0.15)">
      <use xlink:href="#DejaVuSans-31"/>
      <use xlink:href="#DejaVuSans-38" x="63.623047"/>
     </g>
    </g>
   </g>
   <g id="text_21">
    <g clip-path="url(#p59ebf31b18)">
     <!-- 19 -->
     <g transform="translate(533.49401 521.289136) scale(0.15 -0.15)">
      <use xlink:href="#DejaVuSans-31"/>
      <use xlink:href="#DejaVuSans-39" x="63.623047"/>
     </g>
    </g>
   </g>
   <g id="text_22">
    <g clip-path="url(#p59ebf31b18)">
     <!-- 20 -->
     <g transform="translate(444.21829 104.106005) scale(0.15 -0.15)">
      <use xlink:href="#DejaVuSans-32"/>
      <use xlink:href="#DejaVuSans-30" x="63.623047"/>
     </g>
    </g>
   </g>
  </g>
 </g>
 <defs>
  <clipPath id="p59ebf31b18">
   <rect x="0" y="0" width="1296" height="1152"/>
  </clipPath>
 </defs>
</svg>

</svg>
