<?xml version="1.0" encoding="utf-8" standalone="no"?>
<!DOCTYPE svg PUBLIC "-//W3C//DTD SVG 1.1//EN"
  "http://www.w3.org/Graphics/SVG/1.1/DTD/svg11.dtd">
<svg xmlns:xlink="http://www.w3.org/1999/xlink" width="576pt" height="432pt" viewBox="0 0 576 432" xmlns="http://www.w3.org/2000/svg" version="1.1">
 <metadata>
  <rdf:RDF xmlns:dc="http://purl.org/dc/elements/1.1/" xmlns:cc="http://creativecommons.org/ns#" xmlns:rdf="http://www.w3.org/1999/02/22-rdf-syntax-ns#">
   <cc:Work>
    <dc:type rdf:resource="http://purl.org/dc/dcmitype/StillImage"/>
    <dc:date>2025-02-12T21:05:32.241735</dc:date>
    <dc:format>image/svg+xml</dc:format>
    <dc:creator>
     <cc:Agent>
      <dc:title>Matplotlib v3.9.1, https://matplotlib.org/</dc:title>
     </cc:Agent>
    </dc:creator>
   </cc:Work>
  </rdf:RDF>
 </metadata>
 <defs>
  <style type="text/css">*{stroke-linejoin: round; stroke-linecap: butt}</style>
 </defs>
 <g id="figure_1">
  <g id="patch_1">
   <path d="M 0 432 
L 576 432 
L 576 0 
L 0 0 
z
" style="fill: #ffffff"/>
  </g>
  <g id="axes_1">
   <g id="patch_2">
    <path d="M 151.040495 229.550338 
Q 140.624386 222.647482 130.208278 215.744627 
" clip-path="url(#pe1dafab1b0)" style="fill: none; stroke: #808080; stroke-linecap: round"/>
   </g>
   <g id="patch_3">
    <path d="M 172.824432 225.022309 
Q 192.950885 194.007162 213.077338 162.992016 
" clip-path="url(#pe1dafab1b0)" style="fill: none; stroke: #808080; stroke-linecap: round"/>
   </g>
   <g id="patch_4">
    <path d="M 162.465108 222.568172 
Q 159.564292 196.572652 156.663476 170.577131 
" clip-path="url(#pe1dafab1b0)" style="fill: none; stroke: #808080; stroke-linecap: round"/>
   </g>
   <g id="patch_5">
    <path d="M 179.940661 236.575403 
Q 233.970912 230.704543 288.001163 224.833683 
" clip-path="url(#pe1dafab1b0)" style="fill: none; stroke: #808080; stroke-linecap: round"/>
   </g>
   <g id="patch_6">
    <path d="M 179.940661 236.575403 
Q 233.970912 230.704543 288.001163 224.833683 
" clip-path="url(#pe1dafab1b0)" style="fill: none; stroke: #808080; stroke-linecap: round"/>
   </g>
   <g id="patch_7">
    <path d="M 179.041556 243.776901 
Q 231.435628 263.193659 283.8297 282.610416 
" clip-path="url(#pe1dafab1b0)" style="fill: none; stroke: #808080; stroke-linecap: round"/>
   </g>
   <g id="patch_8">
    <path d="M 159.551445 253.389373 
Q 149.338559 286.44291 139.125672 319.496447 
" clip-path="url(#pe1dafab1b0)" style="fill: none; stroke: #808080; stroke-linecap: round"/>
   </g>
   <g id="patch_9">
    <path d="M 130.896182 199.415788 
Q 169.357281 178.365954 207.81838 157.31612 
" clip-path="url(#pe1dafab1b0)" style="fill: none; stroke: #808080; stroke-linecap: round"/>
   </g>
   <g id="patch_10">
    <path d="M 126.317872 194.216158 
Q 135.967457 180.934105 145.617041 167.652053 
" clip-path="url(#pe1dafab1b0)" style="fill: none; stroke: #808080; stroke-linecap: round"/>
   </g>
   <g id="patch_11">
    <path d="M 132.775271 208.367524 
Q 210.371082 215.066692 287.966893 221.765861 
" clip-path="url(#pe1dafab1b0)" style="fill: none; stroke: #808080; stroke-linecap: round"/>
   </g>
   <g id="patch_12">
    <path d="M 132.775271 208.367524 
Q 210.371082 215.066692 287.966893 221.765861 
" clip-path="url(#pe1dafab1b0)" style="fill: none; stroke: #808080; stroke-linecap: round"/>
   </g>
   <g id="patch_13">
    <path d="M 129.475328 216.753017 
Q 164.786911 244.391845 200.098494 272.030672 
" clip-path="url(#pe1dafab1b0)" style="fill: none; stroke: #808080; stroke-linecap: round"/>
   </g>
   <g id="patch_14">
    <path d="M 105.41806 217.741056 
Q 83.505089 238.005377 61.592118 258.269699 
" clip-path="url(#pe1dafab1b0)" style="fill: none; stroke: #808080; stroke-linecap: round"/>
   </g>
   <g id="patch_15">
    <path d="M 205.916816 150.939086 
Q 188.29441 152.294141 170.672005 153.649196 
" clip-path="url(#pe1dafab1b0)" style="fill: none; stroke: #808080; stroke-linecap: round"/>
   </g>
   <g id="patch_16">
    <path d="M 233.469387 160.270089 
Q 262.701821 186.425762 291.934255 212.581436 
" clip-path="url(#pe1dafab1b0)" style="fill: none; stroke: #808080; stroke-linecap: round"/>
   </g>
   <g id="patch_17">
    <path d="M 233.469387 160.270089 
Q 262.701821 186.425762 291.934255 212.581436 
" clip-path="url(#pe1dafab1b0)" style="fill: none; stroke: #808080; stroke-linecap: round"/>
   </g>
   <g id="patch_18">
    <path d="M 234.971903 158.300864 
Q 285.133656 190.672693 335.29541 223.044523 
" clip-path="url(#pe1dafab1b0)" style="fill: none; stroke: #808080; stroke-linecap: round"/>
   </g>
   <g id="patch_19">
    <path d="M 233.32704 139.028519 
Q 254.907356 119.197025 276.487672 99.36553 
" clip-path="url(#pe1dafab1b0)" style="fill: none; stroke: #808080; stroke-linecap: round"/>
   </g>
   <g id="patch_20">
    <path d="M 169.282957 161.454765 
Q 229.315159 188.993873 289.34736 216.532981 
" clip-path="url(#pe1dafab1b0)" style="fill: none; stroke: #808080; stroke-linecap: round"/>
   </g>
   <g id="patch_21">
    <path d="M 169.282957 161.454765 
Q 229.315159 188.993873 289.34736 216.532981 
" clip-path="url(#pe1dafab1b0)" style="fill: none; stroke: #808080; stroke-linecap: round"/>
   </g>
   <g id="patch_22">
    <path d="M 170.469154 157.678538 
Q 224.428644 167.448918 278.388135 177.219298 
" clip-path="url(#pe1dafab1b0)" style="fill: none; stroke: #808080; stroke-linecap: round"/>
   </g>
   <g id="patch_23">
    <path d="M 149.884162 139.866591 
Q 144.736143 124.506676 139.588123 109.146761 
" clip-path="url(#pe1dafab1b0)" style="fill: none; stroke: #808080; stroke-linecap: round"/>
   </g>
   <g id="patch_24">
    <path d="M 315.464099 212.54358 
Q 379.136964 155.174999 442.809828 97.806418 
" clip-path="url(#pe1dafab1b0)" style="fill: none; stroke: #808080; stroke-linecap: round"/>
   </g>
   <g id="patch_25">
    <path d="M 314.996545 212.042123 
Q 394.987555 133.426284 474.978564 54.810445 
" clip-path="url(#pe1dafab1b0)" style="fill: none; stroke: #808080; stroke-linecap: round"/>
   </g>
   <g id="patch_26">
    <path d="M 317.446374 215.275548 
Q 414.86833 159.563034 512.290286 103.85052 
" clip-path="url(#pe1dafab1b0)" style="fill: none; stroke: #808080; stroke-linecap: round"/>
   </g>
   <g id="patch_27">
    <path d="M 311.57776 209.407454 
Q 356.892217 130.306117 402.206673 51.20478 
" clip-path="url(#pe1dafab1b0)" style="fill: none; stroke: #808080; stroke-linecap: round"/>
   </g>
   <g id="patch_28">
    <path d="M 302.490005 238.890461 
Q 301.18605 255.61686 299.882095 272.343259 
" clip-path="url(#pe1dafab1b0)" style="fill: none; stroke: #808080; stroke-linecap: round"/>
   </g>
   <g id="patch_29">
    <path d="M 302.490005 238.890461 
Q 301.18605 255.61686 299.882095 272.343259 
" clip-path="url(#pe1dafab1b0)" style="fill: none; stroke: #808080; stroke-linecap: round"/>
   </g>
   <g id="patch_30">
    <path d="M 302.490005 238.890461 
Q 301.18605 255.61686 299.882095 272.343259 
" clip-path="url(#pe1dafab1b0)" style="fill: none; stroke: #808080; stroke-linecap: round"/>
   </g>
   <g id="patch_31">
    <path d="M 290.422417 231.679518 
Q 258.133939 252.450771 225.845462 273.222025 
" clip-path="url(#pe1dafab1b0)" style="fill: none; stroke: #808080; stroke-linecap: round"/>
   </g>
   <g id="patch_32">
    <path d="M 290.422417 231.679518 
Q 258.133939 252.450771 225.845462 273.222025 
" clip-path="url(#pe1dafab1b0)" style="fill: none; stroke: #808080; stroke-linecap: round"/>
   </g>
   <g id="patch_33">
    <path d="M 290.422417 231.679518 
Q 258.133939 252.450771 225.845462 273.222025 
" clip-path="url(#pe1dafab1b0)" style="fill: none; stroke: #808080; stroke-linecap: round"/>
   </g>
   <g id="patch_34">
    <path d="M 319.256778 226.066593 
Q 326.148471 227.370962 333.040164 228.675331 
" clip-path="url(#pe1dafab1b0)" style="fill: none; stroke: #808080; stroke-linecap: round"/>
   </g>
   <g id="patch_35">
    <path d="M 319.256778 226.066593 
Q 326.148471 227.370962 333.040164 228.675331 
" clip-path="url(#pe1dafab1b0)" style="fill: none; stroke: #808080; stroke-linecap: round"/>
   </g>
   <g id="patch_36">
    <path d="M 319.256778 226.066593 
Q 326.148471 227.370962 333.040164 228.675331 
" clip-path="url(#pe1dafab1b0)" style="fill: none; stroke: #808080; stroke-linecap: round"/>
   </g>
   <g id="patch_37">
    <path d="M 300.222178 207.706359 
Q 298.833069 201.580972 297.44396 195.455586 
" clip-path="url(#pe1dafab1b0)" style="fill: none; stroke: #808080; stroke-linecap: round"/>
   </g>
   <g id="patch_38">
    <path d="M 300.222178 207.706359 
Q 298.833069 201.580972 297.44396 195.455586 
" clip-path="url(#pe1dafab1b0)" style="fill: none; stroke: #808080; stroke-linecap: round"/>
   </g>
   <g id="patch_39">
    <path d="M 300.222178 207.706359 
Q 298.833069 201.580972 297.44396 195.455586 
" clip-path="url(#pe1dafab1b0)" style="fill: none; stroke: #808080; stroke-linecap: round"/>
   </g>
   <g id="patch_40">
    <path d="M 316.335792 232.653001 
Q 361.931158 267.082951 407.526524 301.512901 
" clip-path="url(#pe1dafab1b0)" style="fill: none; stroke: #808080; stroke-linecap: round"/>
   </g>
   <g id="patch_41">
    <path d="M 316.335792 232.653001 
Q 361.931158 267.082951 407.526524 301.512901 
" clip-path="url(#pe1dafab1b0)" style="fill: none; stroke: #808080; stroke-linecap: round"/>
   </g>
   <g id="patch_42">
    <path d="M 303.850207 238.938569 
Q 304.233222 285.093427 304.616238 331.248285 
" clip-path="url(#pe1dafab1b0)" style="fill: none; stroke: #808080; stroke-linecap: round"/>
   </g>
   <g id="patch_43">
    <path d="M 303.850207 238.938569 
Q 304.233222 285.093427 304.616238 331.248285 
" clip-path="url(#pe1dafab1b0)" style="fill: none; stroke: #808080; stroke-linecap: round"/>
   </g>
   <g id="patch_44">
    <path d="M 312.380489 236.351609 
Q 339.653837 277.997034 366.927185 319.642458 
" clip-path="url(#pe1dafab1b0)" style="fill: none; stroke: #808080; stroke-linecap: round"/>
   </g>
   <g id="patch_45">
    <path d="M 312.380489 236.351609 
Q 339.653837 277.997034 366.927185 319.642458 
" clip-path="url(#pe1dafab1b0)" style="fill: none; stroke: #808080; stroke-linecap: round"/>
   </g>
   <g id="patch_46">
    <path d="M 318.907409 227.524339 
Q 362.56305 240.166917 406.218691 252.809496 
" clip-path="url(#pe1dafab1b0)" style="fill: none; stroke: #808080; stroke-linecap: round"/>
   </g>
   <g id="patch_47">
    <path d="M 318.907409 227.524339 
Q 362.56305 240.166917 406.218691 252.809496 
" clip-path="url(#pe1dafab1b0)" style="fill: none; stroke: #808080; stroke-linecap: round"/>
   </g>
   <g id="patch_48">
    <path d="M 290.513567 231.823011 
Q 219.087811 278.864651 147.662055 325.90629 
" clip-path="url(#pe1dafab1b0)" style="fill: none; stroke: #808080; stroke-linecap: round"/>
   </g>
   <g id="patch_49">
    <path d="M 288.158636 225.939347 
Q 176.850197 246.065566 65.541758 266.191785 
" clip-path="url(#pe1dafab1b0)" style="fill: none; stroke: #808080; stroke-linecap: round"/>
   </g>
   <g id="patch_50">
    <path d="M 301.898527 207.422042 
Q 295.925301 155.895371 289.952074 104.3687 
" clip-path="url(#pe1dafab1b0)" style="fill: none; stroke: #808080; stroke-linecap: round"/>
   </g>
   <g id="patch_51">
    <path d="M 291.146446 213.540089 
Q 219.142557 158.641969 147.138668 103.743848 
" clip-path="url(#pe1dafab1b0)" style="fill: none; stroke: #808080; stroke-linecap: round"/>
   </g>
   <g id="patch_52">
    <path d="M 318.217079 229.44021 
Q 405.383619 267.404157 492.55016 305.368105 
" clip-path="url(#pe1dafab1b0)" style="fill: none; stroke: #808080; stroke-linecap: round"/>
   </g>
   <g id="patch_53">
    <path d="M 296.111369 236.983494 
Q 256.676167 308.816876 217.240964 380.650257 
" clip-path="url(#pe1dafab1b0)" style="fill: none; stroke: #808080; stroke-linecap: round"/>
   </g>
   <g id="patch_54">
    <path d="M 314.653996 234.547587 
Q 373.991474 296.526472 433.328953 358.505358 
" clip-path="url(#pe1dafab1b0)" style="fill: none; stroke: #808080; stroke-linecap: round"/>
   </g>
   <g id="patch_55">
    <path d="M 319.249602 220.173885 
Q 393.015116 206.153203 466.780629 192.132521 
" clip-path="url(#pe1dafab1b0)" style="fill: none; stroke: #808080; stroke-linecap: round"/>
   </g>
   <g id="patch_56">
    <path d="M 463.868714 74.445285 
Q 470.406547 65.474316 476.94438 56.503347 
" clip-path="url(#pe1dafab1b0)" style="fill: none; stroke: #808080; stroke-linecap: round"/>
   </g>
   <g id="patch_57">
    <path d="M 470.25441 89.150497 
Q 490.288816 91.61174 510.323223 94.072984 
" clip-path="url(#pe1dafab1b0)" style="fill: none; stroke: #808080; stroke-linecap: round"/>
   </g>
   <g id="patch_58">
    <path d="M 444.012575 75.435042 
Q 432.308831 62.352394 420.605087 49.269746 
" clip-path="url(#pe1dafab1b0)" style="fill: none; stroke: #808080; stroke-linecap: round"/>
   </g>
   <g id="patch_59">
    <path d="M 495.828527 56.31476 
Q 506.136558 69.866043 516.444589 83.417326 
" clip-path="url(#pe1dafab1b0)" style="fill: none; stroke: #808080; stroke-linecap: round"/>
   </g>
   <g id="patch_60">
    <path d="M 470.494775 42.437493 
Q 448.159945 40.608022 425.825114 38.77855 
" clip-path="url(#pe1dafab1b0)" style="fill: none; stroke: #808080; stroke-linecap: round"/>
   </g>
   <g id="patch_61">
    <path d="M 511.901186 88.877823 
Q 468.04235 66.745118 424.183514 44.612413 
" clip-path="url(#pe1dafab1b0)" style="fill: none; stroke: #808080; stroke-linecap: round"/>
   </g>
   <g id="patch_62">
    <path d="M 282.884583 286.94503 
Q 255.600735 284.939819 228.316886 282.934609 
" clip-path="url(#pe1dafab1b0)" style="fill: none; stroke: #808080; stroke-linecap: round"/>
   </g>
   <g id="patch_63">
    <path d="M 309.126356 276.254032 
Q 323.615878 259.85942 338.1054 243.464807 
" clip-path="url(#pe1dafab1b0)" style="fill: none; stroke: #808080; stroke-linecap: round"/>
   </g>
   <g id="patch_64">
    <path d="M 297.965623 272.310046 
Q 296.300355 234.070675 294.635087 195.831305 
" clip-path="url(#pe1dafab1b0)" style="fill: none; stroke: #808080; stroke-linecap: round"/>
   </g>
   <g id="patch_65">
    <path d="M 283.438008 292.412811 
Q 216.556683 311.35296 149.675358 330.293109 
" clip-path="url(#pe1dafab1b0)" style="fill: none; stroke: #808080; stroke-linecap: round"/>
   </g>
   <g id="patch_66">
    <path d="M 314.192051 291.037593 
Q 359.400066 299.572716 404.608081 308.10784 
" clip-path="url(#pe1dafab1b0)" style="fill: none; stroke: #808080; stroke-linecap: round"/>
   </g>
   <g id="patch_67">
    <path d="M 314.364905 289.881551 
Q 402.85102 299.892885 491.337135 309.904219 
" clip-path="url(#pe1dafab1b0)" style="fill: none; stroke: #808080; stroke-linecap: round"/>
   </g>
   <g id="patch_68">
    <path d="M 227.381328 276.306364 
Q 280.561776 256.696368 333.742224 237.086373 
" clip-path="url(#pe1dafab1b0)" style="fill: none; stroke: #808080; stroke-linecap: round"/>
   </g>
   <g id="patch_69">
    <path d="M 222.428069 269.427826 
Q 253.249544 230.904307 284.07102 192.380789 
" clip-path="url(#pe1dafab1b0)" style="fill: none; stroke: #808080; stroke-linecap: round"/>
   </g>
   <g id="patch_70">
    <path d="M 196.787455 280.537564 
Q 131.268203 275.390511 65.74895 270.243457 
" clip-path="url(#pe1dafab1b0)" style="fill: none; stroke: #808080; stroke-linecap: round"/>
   </g>
   <g id="patch_71">
    <path d="M 225.455211 290.913964 
Q 258.648902 314.416468 291.842592 337.918972 
" clip-path="url(#pe1dafab1b0)" style="fill: none; stroke: #808080; stroke-linecap: round"/>
   </g>
   <g id="patch_72">
    <path d="M 212.139696 297.584613 
Q 211.089837 338.146205 210.039977 378.707796 
" clip-path="url(#pe1dafab1b0)" style="fill: none; stroke: #808080; stroke-linecap: round"/>
   </g>
   <g id="patch_73">
    <path d="M 337.083818 220.7643 
Q 321.264356 205.82823 305.444893 190.892159 
" clip-path="url(#pe1dafab1b0)" style="fill: none; stroke: #808080; stroke-linecap: round"/>
   </g>
   <g id="patch_74">
    <path d="M 342.418037 217.049571 
Q 318.353797 160.138934 294.289557 103.228297 
" clip-path="url(#pe1dafab1b0)" style="fill: none; stroke: #808080; stroke-linecap: round"/>
   </g>
   <g id="patch_75">
    <path d="M 352.652218 246.890134 
Q 362.0832 282.240939 371.514181 317.591744 
" clip-path="url(#pe1dafab1b0)" style="fill: none; stroke: #808080; stroke-linecap: round"/>
   </g>
   <g id="patch_76">
    <path d="M 357.57275 244.618513 
Q 396.41933 300.769735 435.265909 356.920958 
" clip-path="url(#pe1dafab1b0)" style="fill: none; stroke: #808080; stroke-linecap: round"/>
   </g>
   <g id="patch_77">
    <path d="M 280.02894 172.537002 
Q 214.256085 137.096787 148.48323 101.656572 
" clip-path="url(#pe1dafab1b0)" style="fill: none; stroke: #808080; stroke-linecap: round"/>
   </g>
   <g id="patch_78">
    <path d="M 307.471746 188.225138 
Q 357.673947 218.62067 407.876147 249.016201 
" clip-path="url(#pe1dafab1b0)" style="fill: none; stroke: #808080; stroke-linecap: round"/>
   </g>
   <g id="patch_79">
    <path d="M 309.741268 180.80322 
Q 388.131954 184.608355 466.52264 188.413491 
" clip-path="url(#pe1dafab1b0)" style="fill: none; stroke: #808080; stroke-linecap: round"/>
   </g>
   <g id="patch_80">
    <path d="M 405.054403 315.750699 
Q 362.448118 329.047957 319.841832 342.345214 
" clip-path="url(#pe1dafab1b0)" style="fill: none; stroke: #808080; stroke-linecap: round"/>
   </g>
   <g id="patch_81">
    <path d="M 405.946783 317.997462 
Q 397.866688 321.956376 389.786594 325.915289 
" clip-path="url(#pe1dafab1b0)" style="fill: none; stroke: #808080; stroke-linecap: round"/>
   </g>
   <g id="patch_82">
    <path d="M 420.514746 295.233367 
Q 420.774865 284.123127 421.034984 273.012887 
" clip-path="url(#pe1dafab1b0)" style="fill: none; stroke: #808080; stroke-linecap: round"/>
   </g>
   <g id="patch_83">
    <path d="M 435.953329 311.157596 
Q 463.595892 311.361311 491.238454 311.565026 
" clip-path="url(#pe1dafab1b0)" style="fill: none; stroke: #808080; stroke-linecap: round"/>
   </g>
   <g id="patch_84">
    <path d="M 320.248641 343.952228 
Q 340.169168 339.963432 360.089695 335.974636 
" clip-path="url(#pe1dafab1b0)" style="fill: none; stroke: #808080; stroke-linecap: round"/>
   </g>
   <g id="patch_85">
    <path d="M 317.275438 337.407149 
Q 363.078412 302.130089 408.881387 266.853029 
" clip-path="url(#pe1dafab1b0)" style="fill: none; stroke: #808080; stroke-linecap: round"/>
   </g>
   <g id="patch_86">
    <path d="M 290.596631 354.116344 
Q 257.186656 370.78551 223.776681 387.454676 
" clip-path="url(#pe1dafab1b0)" style="fill: none; stroke: #808080; stroke-linecap: round"/>
   </g>
   <g id="patch_87">
    <path d="M 383.779358 319.346659 
Q 398.496406 295.041284 413.213454 270.735908 
" clip-path="url(#pe1dafab1b0)" style="fill: none; stroke: #808080; stroke-linecap: round"/>
   </g>
   <g id="patch_88">
    <path d="M 389.501901 340.37747 
Q 409.925558 351.398025 430.349216 362.418581 
" clip-path="url(#pe1dafab1b0)" style="fill: none; stroke: #808080; stroke-linecap: round"/>
   </g>
   <g id="patch_89">
    <path d="M 431.953734 245.425948 
Q 451.860961 223.192262 471.768189 200.958576 
" clip-path="url(#pe1dafab1b0)" style="fill: none; stroke: #808080; stroke-linecap: round"/>
   </g>
   <g id="PathCollection_1">
    <defs>
     <path id="m9ba82116cc" d="M 0 15.811388 
C 4.193229 15.811388 8.215279 14.145401 11.18034 11.18034 
C 14.145401 8.215279 15.811388 4.193229 15.811388 0 
C 15.811388 -4.193229 14.145401 -8.215279 11.18034 -11.18034 
C 8.215279 -14.145401 4.193229 -15.811388 0 -15.811388 
C -4.193229 -15.811388 -8.215279 -14.145401 -11.18034 -11.18034 
C -14.145401 -8.215279 -15.811388 -4.193229 -15.811388 0 
C -15.811388 4.193229 -14.145401 8.215279 -11.18034 11.18034 
C -8.215279 14.145401 -4.193229 15.811388 0 15.811388 
z
" style="stroke: #add8e6"/>
    </defs>
    <g clip-path="url(#pe1dafab1b0)">
     <use xlink:href="#m9ba82116cc" x="164.218792" y="238.283722" style="fill: #add8e6; stroke: #add8e6"/>
     <use xlink:href="#m9ba82116cc" x="117.024645" y="207.007707" style="fill: #add8e6; stroke: #add8e6"/>
     <use xlink:href="#m9ba82116cc" x="221.6856" y="149.726564" style="fill: #add8e6; stroke: #add8e6"/>
     <use xlink:href="#m9ba82116cc" x="154.909751" y="154.861216" style="fill: #add8e6; stroke: #add8e6"/>
     <use xlink:href="#m9ba82116cc" x="303.718985" y="223.125804" style="fill: #add8e6; stroke: #add8e6"/>
     <use xlink:href="#m9ba82116cc" x="454.557276" y="87.222091" style="fill: #add8e6; stroke: #add8e6"/>
     <use xlink:href="#m9ba82116cc" x="486.254472" y="43.728387" style="fill: #add8e6; stroke: #add8e6"/>
     <use xlink:href="#m9ba82116cc" x="526.016529" y="96.000919" style="fill: #add8e6; stroke: #add8e6"/>
     <use xlink:href="#m9ba82116cc" x="410.064776" y="37.487603" style="fill: #add8e6; stroke: #add8e6"/>
     <use xlink:href="#m9ba82116cc" x="298.653424" y="288.103951" style="fill: #add8e6; stroke: #add8e6"/>
     <use xlink:href="#m9ba82116cc" x="212.548878" y="281.775748" style="fill: #add8e6; stroke: #add8e6"/>
     <use xlink:href="#m9ba82116cc" x="348.577345" y="231.616004" style="fill: #add8e6; stroke: #add8e6"/>
     <use xlink:href="#m9ba82116cc" x="293.94725" y="180.036568" style="fill: #add8e6; stroke: #add8e6"/>
     <use xlink:href="#m9ba82116cc" x="420.144648" y="311.041092" style="fill: #add8e6; stroke: #add8e6"/>
     <use xlink:href="#m9ba82116cc" x="304.747419" y="347.056122" style="fill: #add8e6; stroke: #add8e6"/>
     <use xlink:href="#m9ba82116cc" x="375.590382" y="332.870849" style="fill: #add8e6; stroke: #add8e6"/>
     <use xlink:href="#m9ba82116cc" x="421.405029" y="257.207427" style="fill: #add8e6; stroke: #add8e6"/>
     <use xlink:href="#m9ba82116cc" x="134.458214" y="334.602458" style="fill: #add8e6; stroke: #add8e6"/>
     <use xlink:href="#m9ba82116cc" x="49.983471" y="269.004955" style="fill: #add8e6; stroke: #add8e6"/>
     <use xlink:href="#m9ba82116cc" x="288.131643" y="88.665161" style="fill: #add8e6; stroke: #add8e6"/>
     <use xlink:href="#m9ba82116cc" x="134.564" y="94.15651" style="fill: #add8e6; stroke: #add8e6"/>
     <use xlink:href="#m9ba82116cc" x="507.045982" y="311.681521" style="fill: #add8e6; stroke: #add8e6"/>
     <use xlink:href="#m9ba82116cc" x="209.630905" y="394.512397" style="fill: #add8e6; stroke: #add8e6"/>
     <use xlink:href="#m9ba82116cc" x="444.263575" y="369.926734" style="fill: #add8e6; stroke: #add8e6"/>
     <use xlink:href="#m9ba82116cc" x="482.31427" y="189.180027" style="fill: #add8e6; stroke: #add8e6"/>
    </g>
   </g>
   <g id="text_1">
    <g clip-path="url(#pe1dafab1b0)">
     <!-- 0 -->
     <g transform="translate(159.446917 242.422784) scale(0.15 -0.15)">
      <defs>
       <path id="DejaVuSans-30" d="M 2034 4250 
Q 1547 4250 1301 3770 
Q 1056 3291 1056 2328 
Q 1056 1369 1301 889 
Q 1547 409 2034 409 
Q 2525 409 2770 889 
Q 3016 1369 3016 2328 
Q 3016 3291 2770 3770 
Q 2525 4250 2034 4250 
z
M 2034 4750 
Q 2819 4750 3233 4129 
Q 3647 3509 3647 2328 
Q 3647 1150 3233 529 
Q 2819 -91 2034 -91 
Q 1250 -91 836 529 
Q 422 1150 422 2328 
Q 422 3509 836 4129 
Q 1250 4750 2034 4750 
z
" transform="scale(0.015625)"/>
      </defs>
      <use xlink:href="#DejaVuSans-30"/>
     </g>
    </g>
   </g>
   <g id="text_2">
    <g clip-path="url(#pe1dafab1b0)">
     <!-- 1 -->
     <g transform="translate(112.25277 211.146769) scale(0.15 -0.15)">
      <defs>
       <path id="DejaVuSans-31" d="M 794 531 
L 1825 531 
L 1825 4091 
L 703 3866 
L 703 4441 
L 1819 4666 
L 2450 4666 
L 2450 531 
L 3481 531 
L 3481 0 
L 794 0 
L 794 531 
z
" transform="scale(0.015625)"/>
      </defs>
      <use xlink:href="#DejaVuSans-31"/>
     </g>
    </g>
   </g>
   <g id="text_3">
    <g clip-path="url(#pe1dafab1b0)">
     <!-- 2 -->
     <g transform="translate(216.913725 153.865626) scale(0.15 -0.15)">
      <defs>
       <path id="DejaVuSans-32" d="M 1228 531 
L 3431 531 
L 3431 0 
L 469 0 
L 469 531 
Q 828 903 1448 1529 
Q 2069 2156 2228 2338 
Q 2531 2678 2651 2914 
Q 2772 3150 2772 3378 
Q 2772 3750 2511 3984 
Q 2250 4219 1831 4219 
Q 1534 4219 1204 4116 
Q 875 4013 500 3803 
L 500 4441 
Q 881 4594 1212 4672 
Q 1544 4750 1819 4750 
Q 2544 4750 2975 4387 
Q 3406 4025 3406 3419 
Q 3406 3131 3298 2873 
Q 3191 2616 2906 2266 
Q 2828 2175 2409 1742 
Q 1991 1309 1228 531 
z
" transform="scale(0.015625)"/>
      </defs>
      <use xlink:href="#DejaVuSans-32"/>
     </g>
    </g>
   </g>
   <g id="text_4">
    <g clip-path="url(#pe1dafab1b0)">
     <!-- 3 -->
     <g transform="translate(150.137876 159.000279) scale(0.15 -0.15)">
      <defs>
       <path id="DejaVuSans-33" d="M 2597 2516 
Q 3050 2419 3304 2112 
Q 3559 1806 3559 1356 
Q 3559 666 3084 287 
Q 2609 -91 1734 -91 
Q 1441 -91 1130 -33 
Q 819 25 488 141 
L 488 750 
Q 750 597 1062 519 
Q 1375 441 1716 441 
Q 2309 441 2620 675 
Q 2931 909 2931 1356 
Q 2931 1769 2642 2001 
Q 2353 2234 1838 2234 
L 1294 2234 
L 1294 2753 
L 1863 2753 
Q 2328 2753 2575 2939 
Q 2822 3125 2822 3475 
Q 2822 3834 2567 4026 
Q 2313 4219 1838 4219 
Q 1578 4219 1281 4162 
Q 984 4106 628 3988 
L 628 4550 
Q 988 4650 1302 4700 
Q 1616 4750 1894 4750 
Q 2613 4750 3031 4423 
Q 3450 4097 3450 3541 
Q 3450 3153 3228 2886 
Q 3006 2619 2597 2516 
z
" transform="scale(0.015625)"/>
      </defs>
      <use xlink:href="#DejaVuSans-33"/>
     </g>
    </g>
   </g>
   <g id="text_5">
    <g clip-path="url(#pe1dafab1b0)">
     <!-- 24 -->
     <g transform="translate(294.175235 227.264867) scale(0.15 -0.15)">
      <defs>
       <path id="DejaVuSans-34" d="M 2419 4116 
L 825 1625 
L 2419 1625 
L 2419 4116 
z
M 2253 4666 
L 3047 4666 
L 3047 1625 
L 3713 1625 
L 3713 1100 
L 3047 1100 
L 3047 0 
L 2419 0 
L 2419 1100 
L 313 1100 
L 313 1709 
L 2253 4666 
z
" transform="scale(0.015625)"/>
      </defs>
      <use xlink:href="#DejaVuSans-32"/>
      <use xlink:href="#DejaVuSans-34" x="63.623047"/>
     </g>
    </g>
   </g>
   <g id="text_6">
    <g clip-path="url(#pe1dafab1b0)">
     <!-- 4 -->
     <g transform="translate(449.785401 91.361154) scale(0.15 -0.15)">
      <use xlink:href="#DejaVuSans-34"/>
     </g>
    </g>
   </g>
   <g id="text_7">
    <g clip-path="url(#pe1dafab1b0)">
     <!-- 5 -->
     <g transform="translate(481.482597 47.86745) scale(0.15 -0.15)">
      <defs>
       <path id="DejaVuSans-35" d="M 691 4666 
L 3169 4666 
L 3169 4134 
L 1269 4134 
L 1269 2991 
Q 1406 3038 1543 3061 
Q 1681 3084 1819 3084 
Q 2600 3084 3056 2656 
Q 3513 2228 3513 1497 
Q 3513 744 3044 326 
Q 2575 -91 1722 -91 
Q 1428 -91 1123 -41 
Q 819 9 494 109 
L 494 744 
Q 775 591 1075 516 
Q 1375 441 1709 441 
Q 2250 441 2565 725 
Q 2881 1009 2881 1497 
Q 2881 1984 2565 2268 
Q 2250 2553 1709 2553 
Q 1456 2553 1204 2497 
Q 953 2441 691 2322 
L 691 4666 
z
" transform="scale(0.015625)"/>
      </defs>
      <use xlink:href="#DejaVuSans-35"/>
     </g>
    </g>
   </g>
   <g id="text_8">
    <g clip-path="url(#pe1dafab1b0)">
     <!-- 6 -->
     <g transform="translate(521.244654 100.139982) scale(0.15 -0.15)">
      <defs>
       <path id="DejaVuSans-36" d="M 2113 2584 
Q 1688 2584 1439 2293 
Q 1191 2003 1191 1497 
Q 1191 994 1439 701 
Q 1688 409 2113 409 
Q 2538 409 2786 701 
Q 3034 994 3034 1497 
Q 3034 2003 2786 2293 
Q 2538 2584 2113 2584 
z
M 3366 4563 
L 3366 3988 
Q 3128 4100 2886 4159 
Q 2644 4219 2406 4219 
Q 1781 4219 1451 3797 
Q 1122 3375 1075 2522 
Q 1259 2794 1537 2939 
Q 1816 3084 2150 3084 
Q 2853 3084 3261 2657 
Q 3669 2231 3669 1497 
Q 3669 778 3244 343 
Q 2819 -91 2113 -91 
Q 1303 -91 875 529 
Q 447 1150 447 2328 
Q 447 3434 972 4092 
Q 1497 4750 2381 4750 
Q 2619 4750 2861 4703 
Q 3103 4656 3366 4563 
z
" transform="scale(0.015625)"/>
      </defs>
      <use xlink:href="#DejaVuSans-36"/>
     </g>
    </g>
   </g>
   <g id="text_9">
    <g clip-path="url(#pe1dafab1b0)">
     <!-- 7 -->
     <g transform="translate(405.292901 41.626666) scale(0.15 -0.15)">
      <defs>
       <path id="DejaVuSans-37" d="M 525 4666 
L 3525 4666 
L 3525 4397 
L 1831 0 
L 1172 0 
L 2766 4134 
L 525 4134 
L 525 4666 
z
" transform="scale(0.015625)"/>
      </defs>
      <use xlink:href="#DejaVuSans-37"/>
     </g>
    </g>
   </g>
   <g id="text_10">
    <g clip-path="url(#pe1dafab1b0)">
     <!-- 8 -->
     <g transform="translate(293.881549 292.243014) scale(0.15 -0.15)">
      <defs>
       <path id="DejaVuSans-38" d="M 2034 2216 
Q 1584 2216 1326 1975 
Q 1069 1734 1069 1313 
Q 1069 891 1326 650 
Q 1584 409 2034 409 
Q 2484 409 2743 651 
Q 3003 894 3003 1313 
Q 3003 1734 2745 1975 
Q 2488 2216 2034 2216 
z
M 1403 2484 
Q 997 2584 770 2862 
Q 544 3141 544 3541 
Q 544 4100 942 4425 
Q 1341 4750 2034 4750 
Q 2731 4750 3128 4425 
Q 3525 4100 3525 3541 
Q 3525 3141 3298 2862 
Q 3072 2584 2669 2484 
Q 3125 2378 3379 2068 
Q 3634 1759 3634 1313 
Q 3634 634 3220 271 
Q 2806 -91 2034 -91 
Q 1263 -91 848 271 
Q 434 634 434 1313 
Q 434 1759 690 2068 
Q 947 2378 1403 2484 
z
M 1172 3481 
Q 1172 3119 1398 2916 
Q 1625 2713 2034 2713 
Q 2441 2713 2670 2916 
Q 2900 3119 2900 3481 
Q 2900 3844 2670 4047 
Q 2441 4250 2034 4250 
Q 1625 4250 1398 4047 
Q 1172 3844 1172 3481 
z
" transform="scale(0.015625)"/>
      </defs>
      <use xlink:href="#DejaVuSans-38"/>
     </g>
    </g>
   </g>
   <g id="text_11">
    <g clip-path="url(#pe1dafab1b0)">
     <!-- 9 -->
     <g transform="translate(207.777003 285.914811) scale(0.15 -0.15)">
      <defs>
       <path id="DejaVuSans-39" d="M 703 97 
L 703 672 
Q 941 559 1184 500 
Q 1428 441 1663 441 
Q 2288 441 2617 861 
Q 2947 1281 2994 2138 
Q 2813 1869 2534 1725 
Q 2256 1581 1919 1581 
Q 1219 1581 811 2004 
Q 403 2428 403 3163 
Q 403 3881 828 4315 
Q 1253 4750 1959 4750 
Q 2769 4750 3195 4129 
Q 3622 3509 3622 2328 
Q 3622 1225 3098 567 
Q 2575 -91 1691 -91 
Q 1453 -91 1209 -44 
Q 966 3 703 97 
z
M 1959 2075 
Q 2384 2075 2632 2365 
Q 2881 2656 2881 3163 
Q 2881 3666 2632 3958 
Q 2384 4250 1959 4250 
Q 1534 4250 1286 3958 
Q 1038 3666 1038 3163 
Q 1038 2656 1286 2365 
Q 1534 2075 1959 2075 
z
" transform="scale(0.015625)"/>
      </defs>
      <use xlink:href="#DejaVuSans-39"/>
     </g>
    </g>
   </g>
   <g id="text_12">
    <g clip-path="url(#pe1dafab1b0)">
     <!-- 10 -->
     <g transform="translate(339.033595 235.755067) scale(0.15 -0.15)">
      <use xlink:href="#DejaVuSans-31"/>
      <use xlink:href="#DejaVuSans-30" x="63.623047"/>
     </g>
    </g>
   </g>
   <g id="text_13">
    <g clip-path="url(#pe1dafab1b0)">
     <!-- 11 -->
     <g transform="translate(284.4035 184.17563) scale(0.15 -0.15)">
      <use xlink:href="#DejaVuSans-31"/>
      <use xlink:href="#DejaVuSans-31" x="63.623047"/>
     </g>
    </g>
   </g>
   <g id="text_14">
    <g clip-path="url(#pe1dafab1b0)">
     <!-- 12 -->
     <g transform="translate(410.600898 315.180155) scale(0.15 -0.15)">
      <use xlink:href="#DejaVuSans-31"/>
      <use xlink:href="#DejaVuSans-32" x="63.623047"/>
     </g>
    </g>
   </g>
   <g id="text_15">
    <g clip-path="url(#pe1dafab1b0)">
     <!-- 13 -->
     <g transform="translate(295.203669 351.195185) scale(0.15 -0.15)">
      <use xlink:href="#DejaVuSans-31"/>
      <use xlink:href="#DejaVuSans-33" x="63.623047"/>
     </g>
    </g>
   </g>
   <g id="text_16">
    <g clip-path="url(#pe1dafab1b0)">
     <!-- 14 -->
     <g transform="translate(366.046632 337.009912) scale(0.15 -0.15)">
      <use xlink:href="#DejaVuSans-31"/>
      <use xlink:href="#DejaVuSans-34" x="63.623047"/>
     </g>
    </g>
   </g>
   <g id="text_17">
    <g clip-path="url(#pe1dafab1b0)">
     <!-- 15 -->
     <g transform="translate(411.861279 261.346489) scale(0.15 -0.15)">
      <use xlink:href="#DejaVuSans-31"/>
      <use xlink:href="#DejaVuSans-35" x="63.623047"/>
     </g>
    </g>
   </g>
   <g id="text_18">
    <g clip-path="url(#pe1dafab1b0)">
     <!-- 16 -->
     <g transform="translate(124.914464 338.74152) scale(0.15 -0.15)">
      <use xlink:href="#DejaVuSans-31"/>
      <use xlink:href="#DejaVuSans-36" x="63.623047"/>
     </g>
    </g>
   </g>
   <g id="text_19">
    <g clip-path="url(#pe1dafab1b0)">
     <!-- 17 -->
     <g transform="translate(40.439721 273.144017) scale(0.15 -0.15)">
      <use xlink:href="#DejaVuSans-31"/>
      <use xlink:href="#DejaVuSans-37" x="63.623047"/>
     </g>
    </g>
   </g>
   <g id="text_20">
    <g clip-path="url(#pe1dafab1b0)">
     <!-- 18 -->
     <g transform="translate(278.587893 92.804223) scale(0.15 -0.15)">
      <use xlink:href="#DejaVuSans-31"/>
      <use xlink:href="#DejaVuSans-38" x="63.623047"/>
     </g>
    </g>
   </g>
   <g id="text_21">
    <g clip-path="url(#pe1dafab1b0)">
     <!-- 19 -->
     <g transform="translate(125.02025 98.295573) scale(0.15 -0.15)">
      <use xlink:href="#DejaVuSans-31"/>
      <use xlink:href="#DejaVuSans-39" x="63.623047"/>
     </g>
    </g>
   </g>
   <g id="text_22">
    <g clip-path="url(#pe1dafab1b0)">
     <!-- 20 -->
     <g transform="translate(497.502232 315.820584) scale(0.15 -0.15)">
      <use xlink:href="#DejaVuSans-32"/>
      <use xlink:href="#DejaVuSans-30" x="63.623047"/>
     </g>
    </g>
   </g>
   <g id="text_23">
    <g clip-path="url(#pe1dafab1b0)">
     <!-- 21 -->
     <g transform="translate(200.087155 398.651459) scale(0.15 -0.15)">
      <use xlink:href="#DejaVuSans-32"/>
      <use xlink:href="#DejaVuSans-31" x="63.623047"/>
     </g>
    </g>
   </g>
   <g id="text_24">
    <g clip-path="url(#pe1dafab1b0)">
     <!-- 22 -->
     <g transform="translate(434.719825 374.065796) scale(0.15 -0.15)">
      <use xlink:href="#DejaVuSans-32"/>
      <use xlink:href="#DejaVuSans-32" x="63.623047"/>
     </g>
    </g>
   </g>
   <g id="text_25">
    <g clip-path="url(#pe1dafab1b0)">
     <!-- 23 -->
     <g transform="translate(472.77052 193.319089) scale(0.15 -0.15)">
      <use xlink:href="#DejaVuSans-32"/>
      <use xlink:href="#DejaVuSans-33" x="63.623047"/>
     </g>
    </g>
   </g>
  </g>
 </g>
 <defs>
  <clipPath id="pe1dafab1b0">
   <rect x="0" y="0" width="576" height="432"/>
  </clipPath>
 </defs>
</svg>
ipPath>
 </defs>
</svg>
fs>
</svg>
