<?xml version="1.0" encoding="utf-8" standalone="no"?>
<!DOCTYPE svg PUBLIC "-//W3C//DTD SVG 1.1//EN"
  "http://www.w3.org/Graphics/SVG/1.1/DTD/svg11.dtd">
<svg xmlns:xlink="http://www.w3.org/1999/xlink" width="1296pt" height="1152pt" viewBox="0 0 1296 1152" xmlns="http://www.w3.org/2000/svg" version="1.1">
 <metadata>
  <rdf:RDF xmlns:dc="http://purl.org/dc/elements/1.1/" xmlns:cc="http://creativecommons.org/ns#" xmlns:rdf="http://www.w3.org/1999/02/22-rdf-syntax-ns#">
   <cc:Work>
    <dc:type rdf:resource="http://purl.org/dc/dcmitype/StillImage"/>
    <dc:date>2025-02-13T10:46:54.302220</dc:date>
    <dc:format>image/svg+xml</dc:format>
    <dc:creator>
     <cc:Agent>
      <dc:title>Matplotlib v3.9.1, https://matplotlib.org/</dc:title>
     </cc:Agent>
    </dc:creator>
   </cc:Work>
  </rdf:RDF>
 </metadata>
 <defs>
  <style type="text/css">*{stroke-linejoin: round; stroke-linecap: butt}</style>
 </defs>
 <g id="figure_1">
  <g id="patch_1">
   <path d="M 0 1152 
L 1296 1152 
L 1296 0 
L 0 0 
z
" style="fill: #ffffff"/>
  </g>
  <g id="axes_1">
   <g id="patch_2">
    <path d="M 736.14158 540.742017 
Q 743.430398 603.52572 750.719217 666.309422 
" clip-path="url(#p3a9cef4ddf)" style="fill: none; stroke: #000000; stroke-linecap: round"/>
   </g>
   <g id="patch_3">
    <path d="M 736.14158 540.742017 
Q 743.430398 603.52572 750.719217 666.309422 
" clip-path="url(#p3a9cef4ddf)" style="fill: none; stroke: #000000; stroke-linecap: round"/>
   </g>
   <g id="patch_4">
    <path d="M 732.173251 539.452334 
Q 615.735457 665.670339 499.297663 791.888344 
" clip-path="url(#p3a9cef4ddf)" style="fill: none; stroke: #000000; stroke-linecap: round"/>
   </g>
   <g id="patch_5">
    <path d="M 735.818014 540.770265 
Q 746.790845 757.392084 757.763676 974.013904 
" clip-path="url(#p3a9cef4ddf)" style="fill: none; stroke: #000000; stroke-linecap: round"/>
   </g>
   <g id="patch_6">
    <path d="M 737.592744 540.347198 
Q 821.134748 728.69305 904.676752 917.038901 
" clip-path="url(#p3a9cef4ddf)" style="fill: none; stroke: #000000; stroke-linecap: round"/>
   </g>
   <g id="patch_7">
    <path d="M 731.600581 538.828593 
Q 682.800265 576.408551 633.999949 613.988508 
" clip-path="url(#p3a9cef4ddf)" style="fill: none; stroke: #000000; stroke-linecap: round"/>
   </g>
   <g id="patch_8">
    <path d="M 731.600581 538.828593 
Q 682.800265 576.408551 633.999949 613.988508 
" clip-path="url(#p3a9cef4ddf)" style="fill: none; stroke: #000000; stroke-linecap: round"/>
   </g>
   <g id="patch_9">
    <path d="M 731.600581 538.828593 
Q 682.800265 576.408551 633.999949 613.988508 
" clip-path="url(#p3a9cef4ddf)" style="fill: none; stroke: #000000; stroke-linecap: round"/>
   </g>
   <g id="patch_10">
    <path d="M 740.490709 534.90033 
Q 831.69691 518.692057 922.903111 502.483783 
" clip-path="url(#p3a9cef4ddf)" style="fill: none; stroke: #000000; stroke-linecap: round"/>
   </g>
   <g id="patch_11">
    <path d="M 730.642796 534.892303 
Q 618.941096 514.845604 507.239396 494.798905 
" clip-path="url(#p3a9cef4ddf)" style="fill: none; stroke: #000000; stroke-linecap: round"/>
   </g>
   <g id="patch_12">
    <path d="M 738.960343 532.103107 
Q 782.589137 484.911845 826.217931 437.720583 
" clip-path="url(#p3a9cef4ddf)" style="fill: none; stroke: #000000; stroke-linecap: round"/>
   </g>
   <g id="patch_13">
    <path d="M 738.960343 532.103107 
Q 782.589137 484.911845 826.217931 437.720583 
" clip-path="url(#p3a9cef4ddf)" style="fill: none; stroke: #000000; stroke-linecap: round"/>
   </g>
   <g id="patch_14">
    <path d="M 734.884265 530.823017 
Q 719.642774 419.936857 704.401284 309.050697 
" clip-path="url(#p3a9cef4ddf)" style="fill: none; stroke: #000000; stroke-linecap: round"/>
   </g>
   <g id="patch_15">
    <path d="M 736.743314 530.918856 
Q 770.88944 390.172012 805.035567 249.425168 
" clip-path="url(#p3a9cef4ddf)" style="fill: none; stroke: #000000; stroke-linecap: round"/>
   </g>
   <g id="patch_16">
    <path d="M 738.782387 531.950477 
Q 826.058879 428.185636 913.335372 324.420794 
" clip-path="url(#p3a9cef4ddf)" style="fill: none; stroke: #000000; stroke-linecap: round"/>
   </g>
   <g id="patch_17">
    <path d="M 732.698793 531.678264 
Q 662.018005 430.636492 591.337217 329.594719 
" clip-path="url(#p3a9cef4ddf)" style="fill: none; stroke: #000000; stroke-linecap: round"/>
   </g>
   <g id="patch_18">
    <path d="M 734.018199 531.024313 
Q 664.625885 317.871718 595.23357 104.719123 
" clip-path="url(#p3a9cef4ddf)" style="fill: none; stroke: #000000; stroke-linecap: round"/>
   </g>
   <g id="patch_19">
    <path d="M 746.802767 673.46361 
Q 623.604064 733.419119 500.405361 793.374628 
" clip-path="url(#p3a9cef4ddf)" style="fill: none; stroke: #000000; stroke-linecap: round"/>
   </g>
   <g id="patch_20">
    <path d="M 746.802767 673.46361 
Q 623.604064 733.419119 500.405361 793.374628 
" clip-path="url(#p3a9cef4ddf)" style="fill: none; stroke: #000000; stroke-linecap: round"/>
   </g>
   <g id="patch_21">
    <path d="M 751.405136 676.277764 
Q 754.656207 825.140405 757.907277 974.003045 
" clip-path="url(#p3a9cef4ddf)" style="fill: none; stroke: #000000; stroke-linecap: round"/>
   </g>
   <g id="patch_22">
    <path d="M 753.935217 675.528375 
Q 829.001232 796.445107 904.067247 917.361839 
" clip-path="url(#p3a9cef4ddf)" style="fill: none; stroke: #000000; stroke-linecap: round"/>
   </g>
   <g id="patch_23">
    <path d="M 746.73312 669.236195 
Q 690.665422 644.158978 634.597724 619.081761 
" clip-path="url(#p3a9cef4ddf)" style="fill: none; stroke: #000000; stroke-linecap: round"/>
   </g>
   <g id="patch_24">
    <path d="M 746.73312 669.236195 
Q 690.665422 644.158978 634.597724 619.081761 
" clip-path="url(#p3a9cef4ddf)" style="fill: none; stroke: #000000; stroke-linecap: round"/>
   </g>
   <g id="patch_25">
    <path d="M 746.73312 669.236195 
Q 690.665422 644.158978 634.597724 619.081761 
" clip-path="url(#p3a9cef4ddf)" style="fill: none; stroke: #000000; stroke-linecap: round"/>
   </g>
   <g id="patch_26">
    <path d="M 746.73312 669.236195 
Q 690.665422 644.158978 634.597724 619.081761 
" clip-path="url(#p3a9cef4ddf)" style="fill: none; stroke: #000000; stroke-linecap: round"/>
   </g>
   <g id="patch_27">
    <path d="M 754.902749 667.8104 
Q 839.56206 586.442839 924.221371 505.075277 
" clip-path="url(#p3a9cef4ddf)" style="fill: none; stroke: #000000; stroke-linecap: round"/>
   </g>
   <g id="patch_28">
    <path d="M 754.902749 667.8104 
Q 839.56206 586.442839 924.221371 505.075277 
" clip-path="url(#p3a9cef4ddf)" style="fill: none; stroke: #000000; stroke-linecap: round"/>
   </g>
   <g id="patch_29">
    <path d="M 752.862586 666.53141 
Q 790.453437 552.665159 828.044288 438.798908 
" clip-path="url(#p3a9cef4ddf)" style="fill: none; stroke: #000000; stroke-linecap: round"/>
   </g>
   <g id="patch_30">
    <path d="M 752.862586 666.53141 
Q 790.453437 552.665159 828.044288 438.798908 
" clip-path="url(#p3a9cef4ddf)" style="fill: none; stroke: #000000; stroke-linecap: round"/>
   </g>
   <g id="patch_31">
    <path d="M 756.289059 671.590451 
Q 946.893186 683.556486 1137.497313 695.522521 
" clip-path="url(#p3a9cef4ddf)" style="fill: none; stroke: #000000; stroke-linecap: round"/>
   </g>
   <g id="patch_32">
    <path d="M 756.047964 669.720232 
Q 967.416586 600.476586 1178.785208 531.23294 
" clip-path="url(#p3a9cef4ddf)" style="fill: none; stroke: #000000; stroke-linecap: round"/>
   </g>
   <g id="patch_33">
    <path d="M 747.22706 668.378513 
Q 626.806612 582.596475 506.386163 496.814438 
" clip-path="url(#p3a9cef4ddf)" style="fill: none; stroke: #000000; stroke-linecap: round"/>
   </g>
   <g id="patch_34">
    <path d="M 750.653104 666.315817 
Q 727.508325 487.688201 704.363546 309.060586 
" clip-path="url(#p3a9cef4ddf)" style="fill: none; stroke: #000000; stroke-linecap: round"/>
   </g>
   <g id="patch_35">
    <path d="M 751.934063 666.31874 
Q 778.755648 457.919626 805.577234 249.520511 
" clip-path="url(#p3a9cef4ddf)" style="fill: none; stroke: #000000; stroke-linecap: round"/>
   </g>
   <g id="patch_36">
    <path d="M 753.427983 666.752699 
Q 833.925637 495.93468 914.423291 325.116661 
" clip-path="url(#p3a9cef4ddf)" style="fill: none; stroke: #000000; stroke-linecap: round"/>
   </g>
   <g id="patch_37">
    <path d="M 749.165436 666.752635 
Q 669.882321 498.385207 590.599206 330.017778 
" clip-path="url(#p3a9cef4ddf)" style="fill: none; stroke: #000000; stroke-linecap: round"/>
   </g>
   <g id="patch_38">
    <path d="M 746.446796 672.482959 
Q 540.419219 723.721877 334.391642 774.960795 
" clip-path="url(#p3a9cef4ddf)" style="fill: none; stroke: #000000; stroke-linecap: round"/>
   </g>
   <g id="patch_39">
    <path d="M 747.39977 674.408426 
Q 548.806832 834.022835 350.213894 993.637243 
" clip-path="url(#p3a9cef4ddf)" style="fill: none; stroke: #000000; stroke-linecap: round"/>
   </g>
   <g id="patch_40">
    <path d="M 748.615216 675.49786 
Q 630.385292 861.655435 512.155368 1047.813009 
" clip-path="url(#p3a9cef4ddf)" style="fill: none; stroke: #000000; stroke-linecap: round"/>
   </g>
   <g id="patch_41">
    <path d="M 500.006492 798.432851 
Q 626.962345 887.285133 753.918198 976.137415 
" clip-path="url(#p3a9cef4ddf)" style="fill: none; stroke: #000000; stroke-linecap: round"/>
   </g>
   <g id="patch_42">
    <path d="M 500.68658 797.030281 
Q 701.305281 858.586171 901.923982 920.14206 
" clip-path="url(#p3a9cef4ddf)" style="fill: none; stroke: #000000; stroke-linecap: round"/>
   </g>
   <g id="patch_43">
    <path d="M 498.909454 791.56761 
Q 562.97094 706.303084 627.032427 621.038558 
" clip-path="url(#p3a9cef4ddf)" style="fill: none; stroke: #000000; stroke-linecap: round"/>
   </g>
   <g id="patch_44">
    <path d="M 498.909454 791.56761 
Q 562.97094 706.303084 627.032427 621.038558 
" clip-path="url(#p3a9cef4ddf)" style="fill: none; stroke: #000000; stroke-linecap: round"/>
   </g>
   <g id="patch_45">
    <path d="M 498.909454 791.56761 
Q 562.97094 706.303084 627.032427 621.038558 
" clip-path="url(#p3a9cef4ddf)" style="fill: none; stroke: #000000; stroke-linecap: round"/>
   </g>
   <g id="patch_46">
    <path d="M 490.939102 794.98456 
Q 412.724963 785.865566 334.510824 776.746573 
" clip-path="url(#p3a9cef4ddf)" style="fill: none; stroke: #000000; stroke-linecap: round"/>
   </g>
   <g id="patch_47">
    <path d="M 490.939102 794.98456 
Q 412.724963 785.865566 334.510824 776.746573 
" clip-path="url(#p3a9cef4ddf)" style="fill: none; stroke: #000000; stroke-linecap: round"/>
   </g>
   <g id="patch_48">
    <path d="M 492.923753 799.576436 
Q 421.112102 896.166818 349.300451 992.7572 
" clip-path="url(#p3a9cef4ddf)" style="fill: none; stroke: #000000; stroke-linecap: round"/>
   </g>
   <g id="patch_49">
    <path d="M 496.171 800.55337 
Q 502.691038 923.797066 509.211076 1047.040762 
" clip-path="url(#p3a9cef4ddf)" style="fill: none; stroke: #000000; stroke-linecap: round"/>
   </g>
   <g id="patch_50">
    <path d="M 496.013342 790.56054 
Q 499.111796 644.738839 502.210251 498.917138 
" clip-path="url(#p3a9cef4ddf)" style="fill: none; stroke: #000000; stroke-linecap: round"/>
   </g>
   <g id="patch_51">
    <path d="M 491.012759 794.553115 
Q 304.185455 755.973701 117.358151 717.394287 
" clip-path="url(#p3a9cef4ddf)" style="fill: none; stroke: #000000; stroke-linecap: round"/>
   </g>
   <g id="patch_52">
    <path d="M 491.751991 792.777871 
Q 317.813611 676.154463 143.875231 559.531056 
" clip-path="url(#p3a9cef4ddf)" style="fill: none; stroke: #000000; stroke-linecap: round"/>
   </g>
   <g id="patch_53">
    <path d="M 762.676618 977.206792 
Q 832.358411 950.307815 902.040204 923.408838 
" clip-path="url(#p3a9cef4ddf)" style="fill: none; stroke: #000000; stroke-linecap: round"/>
   </g>
   <g id="patch_54">
    <path d="M 756.349789 974.291707 
Q 694.025848 798.022791 631.701907 621.753875 
" clip-path="url(#p3a9cef4ddf)" style="fill: none; stroke: #000000; stroke-linecap: round"/>
   </g>
   <g id="patch_55">
    <path d="M 903.341159 917.907019 
Q 768.370092 769.325421 633.399025 620.743823 
" clip-path="url(#p3a9cef4ddf)" style="fill: none; stroke: #000000; stroke-linecap: round"/>
   </g>
   <g id="patch_56">
    <path d="M 634.693224 615.235906 
Q 778.928194 559.326394 923.163164 503.416882 
" clip-path="url(#p3a9cef4ddf)" style="fill: none; stroke: #000000; stroke-linecap: round"/>
   </g>
   <g id="patch_57">
    <path d="M 634.693224 615.235906 
Q 778.928194 559.326394 923.163164 503.416882 
" clip-path="url(#p3a9cef4ddf)" style="fill: none; stroke: #000000; stroke-linecap: round"/>
   </g>
   <g id="patch_58">
    <path d="M 633.723526 613.6599 
Q 729.82523 525.544027 825.926933 437.428155 
" clip-path="url(#p3a9cef4ddf)" style="fill: none; stroke: #000000; stroke-linecap: round"/>
   </g>
   <g id="patch_59">
    <path d="M 633.723526 613.6599 
Q 729.82523 525.544027 825.926933 437.428155 
" clip-path="url(#p3a9cef4ddf)" style="fill: none; stroke: #000000; stroke-linecap: round"/>
   </g>
   <g id="patch_60">
    <path d="M 633.723526 613.6599 
Q 729.82523 525.544027 825.926933 437.428155 
" clip-path="url(#p3a9cef4ddf)" style="fill: none; stroke: #000000; stroke-linecap: round"/>
   </g>
   <g id="patch_61">
    <path d="M 634.981418 617.801764 
Q 886.261292 656.438593 1137.541166 695.075422 
" clip-path="url(#p3a9cef4ddf)" style="fill: none; stroke: #000000; stroke-linecap: round"/>
   </g>
   <g id="patch_62">
    <path d="M 634.972217 616.262117 
Q 906.783332 573.359245 1178.594447 530.456373 
" clip-path="url(#p3a9cef4ddf)" style="fill: none; stroke: #000000; stroke-linecap: round"/>
   </g>
   <g id="patch_63">
    <path d="M 626.436162 613.57125 
Q 566.176512 555.478759 505.916862 497.386268 
" clip-path="url(#p3a9cef4ddf)" style="fill: none; stroke: #000000; stroke-linecap: round"/>
   </g>
   <g id="patch_64">
    <path d="M 626.436162 613.57125 
Q 566.176512 555.478759 505.916862 497.386268 
" clip-path="url(#p3a9cef4ddf)" style="fill: none; stroke: #000000; stroke-linecap: round"/>
   </g>
   <g id="patch_65">
    <path d="M 626.436162 613.57125 
Q 566.176512 555.478759 505.916862 497.386268 
" clip-path="url(#p3a9cef4ddf)" style="fill: none; stroke: #000000; stroke-linecap: round"/>
   </g>
   <g id="patch_66">
    <path d="M 631.181378 612.175475 
Q 666.878296 460.570495 702.575215 308.965515 
" clip-path="url(#p3a9cef4ddf)" style="fill: none; stroke: #000000; stroke-linecap: round"/>
   </g>
   <g id="patch_67">
    <path d="M 632.174203 612.520014 
Q 718.125242 430.802265 804.076281 249.084515 
" clip-path="url(#p3a9cef4ddf)" style="fill: none; stroke: #000000; stroke-linecap: round"/>
   </g>
   <g id="patch_68">
    <path d="M 633.509176 613.447426 
Q 773.294908 468.817532 913.080639 324.187639 
" clip-path="url(#p3a9cef4ddf)" style="fill: none; stroke: #000000; stroke-linecap: round"/>
   </g>
   <g id="patch_69">
    <path d="M 629.329751 612.089971 
Q 609.252263 471.26564 589.174775 330.44131 
" clip-path="url(#p3a9cef4ddf)" style="fill: none; stroke: #000000; stroke-linecap: round"/>
   </g>
   <g id="patch_70">
    <path d="M 629.684856 612.050925 
Q 611.861033 358.503483 594.037209 104.956042 
" clip-path="url(#p3a9cef4ddf)" style="fill: none; stroke: #000000; stroke-linecap: round"/>
   </g>
   <g id="patch_71">
    <path d="M 625.617844 619.380748 
Q 479.78975 696.603478 333.961657 773.826208 
" clip-path="url(#p3a9cef4ddf)" style="fill: none; stroke: #000000; stroke-linecap: round"/>
   </g>
   <g id="patch_72">
    <path d="M 625.617844 619.380748 
Q 479.78975 696.603478 333.961657 773.826208 
" clip-path="url(#p3a9cef4ddf)" style="fill: none; stroke: #000000; stroke-linecap: round"/>
   </g>
   <g id="patch_73">
    <path d="M 627.042041 621.047974 
Q 488.176286 806.90576 349.310531 992.763547 
" clip-path="url(#p3a9cef4ddf)" style="fill: none; stroke: #000000; stroke-linecap: round"/>
   </g>
   <g id="patch_74">
    <path d="M 628.701034 621.856773 
Q 569.756227 834.534298 510.81142 1047.211822 
" clip-path="url(#p3a9cef4ddf)" style="fill: none; stroke: #000000; stroke-linecap: round"/>
   </g>
   <g id="patch_75">
    <path d="M 625.127351 617.9834 
Q 371.249434 666.71232 117.371517 715.441241 
" clip-path="url(#p3a9cef4ddf)" style="fill: none; stroke: #000000; stroke-linecap: round"/>
   </g>
   <g id="patch_76">
    <path d="M 625.071615 616.430855 
Q 384.878785 586.89337 144.685954 557.355884 
" clip-path="url(#p3a9cef4ddf)" style="fill: none; stroke: #000000; stroke-linecap: round"/>
   </g>
   <g id="patch_77">
    <path d="M 923.707079 498.773599 
Q 878.720073 467.828503 833.733066 436.883408 
" clip-path="url(#p3a9cef4ddf)" style="fill: none; stroke: #000000; stroke-linecap: round"/>
   </g>
   <g id="patch_78">
    <path d="M 923.707079 498.773599 
Q 878.720073 467.828503 833.733066 436.883408 
" clip-path="url(#p3a9cef4ddf)" style="fill: none; stroke: #000000; stroke-linecap: round"/>
   </g>
   <g id="patch_79">
    <path d="M 931.532875 504.960424 
Q 1035.156793 598.721897 1138.780711 692.48337 
" clip-path="url(#p3a9cef4ddf)" style="fill: none; stroke: #000000; stroke-linecap: round"/>
   </g>
   <g id="patch_80">
    <path d="M 932.795386 502.153711 
Q 1055.68129 515.642195 1178.567195 529.130679 
" clip-path="url(#p3a9cef4ddf)" style="fill: none; stroke: #000000; stroke-linecap: round"/>
   </g>
   <g id="patch_81">
    <path d="M 922.83218 501.518182 
Q 715.075208 497.762013 507.318237 494.005845 
" clip-path="url(#p3a9cef4ddf)" style="fill: none; stroke: #000000; stroke-linecap: round"/>
   </g>
   <g id="patch_82">
    <path d="M 924.077074 498.30244 
Q 815.773468 402.853319 707.469862 307.404199 
" clip-path="url(#p3a9cef4ddf)" style="fill: none; stroke: #000000; stroke-linecap: round"/>
   </g>
   <g id="patch_83">
    <path d="M 925.688802 497.086193 
Q 867.021309 373.083986 808.353815 249.08178 
" clip-path="url(#p3a9cef4ddf)" style="fill: none; stroke: #000000; stroke-linecap: round"/>
   </g>
   <g id="patch_84">
    <path d="M 927.517555 496.617427 
Q 922.191703 411.098916 916.86585 325.580405 
" clip-path="url(#p3a9cef4ddf)" style="fill: none; stroke: #000000; stroke-linecap: round"/>
   </g>
   <g id="patch_85">
    <path d="M 923.388076 499.304174 
Q 758.148063 413.551441 592.908049 327.798708 
" clip-path="url(#p3a9cef4ddf)" style="fill: none; stroke: #000000; stroke-linecap: round"/>
   </g>
   <g id="patch_86">
    <path d="M 833.448366 437.258558 
Q 986.048963 564.94226 1138.649559 692.625962 
" clip-path="url(#p3a9cef4ddf)" style="fill: none; stroke: #000000; stroke-linecap: round"/>
   </g>
   <g id="patch_87">
    <path d="M 834.437718 435.352695 
Q 1006.573066 481.862105 1178.708414 528.371515 
" clip-path="url(#p3a9cef4ddf)" style="fill: none; stroke: #000000; stroke-linecap: round"/>
   </g>
   <g id="patch_88">
    <path d="M 824.695674 434.948269 
Q 665.964429 463.982184 507.233184 493.016099 
" clip-path="url(#p3a9cef4ddf)" style="fill: none; stroke: #000000; stroke-linecap: round"/>
   </g>
   <g id="patch_89">
    <path d="M 826.133557 430.457976 
Q 766.66711 369.075047 707.200662 307.692118 
" clip-path="url(#p3a9cef4ddf)" style="fill: none; stroke: #000000; stroke-linecap: round"/>
   </g>
   <g id="patch_90">
    <path d="M 828.999418 429.084504 
Q 817.913875 339.305175 806.828332 249.525846 
" clip-path="url(#p3a9cef4ddf)" style="fill: none; stroke: #000000; stroke-linecap: round"/>
   </g>
   <g id="patch_91">
    <path d="M 832.655721 430.077553 
Q 873.08587 377.318108 913.51602 324.558664 
" clip-path="url(#p3a9cef4ddf)" style="fill: none; stroke: #000000; stroke-linecap: round"/>
   </g>
   <g id="patch_92">
    <path d="M 825.053445 431.996663 
Q 709.041238 379.772245 593.029031 327.547826 
" clip-path="url(#p3a9cef4ddf)" style="fill: none; stroke: #000000; stroke-linecap: round"/>
   </g>
   <g id="patch_93">
    <path d="M 826.727048 429.963142 
Q 711.649581 267.008133 596.572113 104.053123 
" clip-path="url(#p3a9cef4ddf)" style="fill: none; stroke: #000000; stroke-linecap: round"/>
   </g>
   <g id="patch_94">
    <path d="M 1143.685197 690.98041 
Q 1163.011309 612.756387 1182.337422 534.532365 
" clip-path="url(#p3a9cef4ddf)" style="fill: none; stroke: #000000; stroke-linecap: round"/>
   </g>
   <g id="patch_95">
    <path d="M 505.958254 490.483239 
Q 603.021422 399.005182 700.084591 307.527125 
" clip-path="url(#p3a9cef4ddf)" style="fill: none; stroke: #000000; stroke-linecap: round"/>
   </g>
   <g id="patch_96">
    <path d="M 506.181576 490.744089 
Q 654.26537 369.239181 802.349164 247.734274 
" clip-path="url(#p3a9cef4ddf)" style="fill: none; stroke: #000000; stroke-linecap: round"/>
   </g>
   <g id="patch_97">
    <path d="M 506.927538 491.98611 
Q 709.436539 407.253752 911.945539 322.521394 
" clip-path="url(#p3a9cef4ddf)" style="fill: none; stroke: #000000; stroke-linecap: round"/>
   </g>
   <g id="patch_98">
    <path d="M 504.594716 489.461803 
Q 545.393761 409.704042 586.192807 329.946281 
" clip-path="url(#p3a9cef4ddf)" style="fill: none; stroke: #000000; stroke-linecap: round"/>
   </g>
   <g id="patch_99">
    <path d="M 499.705229 498.181321 
Q 415.927863 635.042764 332.150498 771.904207 
" clip-path="url(#p3a9cef4ddf)" style="fill: none; stroke: #000000; stroke-linecap: round"/>
   </g>
   <g id="patch_100">
    <path d="M 497.971006 496.395165 
Q 307.38898 605.149806 116.806954 713.904447 
" clip-path="url(#p3a9cef4ddf)" style="fill: none; stroke: #000000; stroke-linecap: round"/>
   </g>
   <g id="patch_101">
    <path d="M 497.389589 494.769144 
Q 321.017695 525.330454 144.6458 555.891763 
" clip-path="url(#p3a9cef4ddf)" style="fill: none; stroke: #000000; stroke-linecap: round"/>
   </g>
   <g id="patch_102">
    <path d="M 708.046687 301.587272 
Q 754.969529 274.330224 801.892371 247.073176 
" clip-path="url(#p3a9cef4ddf)" style="fill: none; stroke: #000000; stroke-linecap: round"/>
   </g>
   <g id="patch_103">
    <path d="M 708.705878 304.48642 
Q 810.139316 312.346486 911.572753 320.206551 
" clip-path="url(#p3a9cef4ddf)" style="fill: none; stroke: #000000; stroke-linecap: round"/>
   </g>
   <g id="patch_104">
    <path d="M 698.807309 305.012272 
Q 646.094867 314.797804 593.382425 324.583336 
" clip-path="url(#p3a9cef4ddf)" style="fill: none; stroke: #000000; stroke-linecap: round"/>
   </g>
   <g id="patch_105">
    <path d="M 810.333626 247.399653 
Q 861.384373 282.576649 912.435119 317.753645 
" clip-path="url(#p3a9cef4ddf)" style="fill: none; stroke: #000000; stroke-linecap: round"/>
   </g>
   <g id="patch_106">
    <path d="M 801.527314 246.304468 
Q 697.340816 285.029287 593.154318 323.754106 
" clip-path="url(#p3a9cef4ddf)" style="fill: none; stroke: #000000; stroke-linecap: round"/>
   </g>
   <g id="patch_107">
    <path d="M 911.556546 320.66734 
Q 752.515017 323.043957 593.473487 325.420574 
" clip-path="url(#p3a9cef4ddf)" style="fill: none; stroke: #000000; stroke-linecap: round"/>
   </g>
   <g id="patch_108">
    <path d="M 329.920158 781.152341 
Q 337.929791 886.468004 345.939424 991.783668 
" clip-path="url(#p3a9cef4ddf)" style="fill: none; stroke: #000000; stroke-linecap: round"/>
   </g>
   <g id="patch_109">
    <path d="M 332.271492 780.35337 
Q 419.506511 914.097662 506.74153 1047.841954 
" clip-path="url(#p3a9cef4ddf)" style="fill: none; stroke: #000000; stroke-linecap: round"/>
   </g>
   <g id="patch_110">
    <path d="M 324.721545 774.839851 
Q 221.003473 746.275706 117.2854 717.71156 
" clip-path="url(#p3a9cef4ddf)" style="fill: none; stroke: #000000; stroke-linecap: round"/>
   </g>
   <g id="patch_111">
    <path d="M 326.270942 772.387123 
Q 234.630964 666.456536 142.990987 560.525948 
" clip-path="url(#p3a9cef4ddf)" style="fill: none; stroke: #000000; stroke-linecap: round"/>
   </g>
   <g id="patch_112">
    <path d="M 351.056163 998.372826 
Q 427.897947 1024.400937 504.73973 1050.429048 
" clip-path="url(#p3a9cef4ddf)" style="fill: none; stroke: #000000; stroke-linecap: round"/>
   </g>
   <g id="patch_113">
    <path d="M 113.303793 711.45805 
Q 126.091638 636.563886 138.879483 561.669723 
" clip-path="url(#p3a9cef4ddf)" style="fill: none; stroke: #000000; stroke-linecap: round"/>
   </g>
   <g id="PathCollection_1">
    <defs>
     <path id="m25b7ebb187" d="M 0 5 
C 1.326016 5 2.597899 4.473168 3.535534 3.535534 
C 4.473168 2.597899 5 1.326016 5 0 
C 5 -1.326016 4.473168 -2.597899 3.535534 -3.535534 
C 2.597899 -4.473168 1.326016 -5 0 -5 
C -1.326016 -5 -2.597899 -4.473168 -3.535534 -3.535534 
C -4.473168 -2.597899 -5 -1.326016 -5 0 
C -5 1.326016 -4.473168 2.597899 -3.535534 3.535534 
C -2.597899 4.473168 -1.326016 5 0 5 
z
" style="stroke: #0000ff"/>
    </defs>
    <g clip-path="url(#p3a9cef4ddf)">
     <use xlink:href="#m25b7ebb187" x="735.565017" y="535.775676" style="fill: #0000ff; stroke: #0000ff"/>
     <use xlink:href="#m25b7ebb187" x="751.295922" y="671.276985" style="fill: #0000ff; stroke: #0000ff"/>
     <use xlink:href="#m25b7ebb187" x="495.907032" y="795.563771" style="fill: #0000ff; stroke: #0000ff"/>
     <use xlink:href="#m25b7ebb187" x="758.016532" y="979.005706" style="fill: #0000ff; stroke: #0000ff"/>
     <use xlink:href="#m25b7ebb187" x="906.703678" y="921.608616" style="fill: #0000ff; stroke: #0000ff"/>
     <use xlink:href="#m25b7ebb187" x="630.035669" y="617.041305" style="fill: #0000ff; stroke: #0000ff"/>
     <use xlink:href="#m25b7ebb187" x="927.828386" y="501.608511" style="fill: #0000ff; stroke: #0000ff"/>
     <use xlink:href="#m25b7ebb187" x="829.612403" y="434.048938" style="fill: #0000ff; stroke: #0000ff"/>
     <use xlink:href="#m25b7ebb187" x="1142.485647" y="695.835686" style="fill: #0000ff; stroke: #0000ff"/>
     <use xlink:href="#m25b7ebb187" x="1183.53719" y="529.676207" style="fill: #0000ff; stroke: #0000ff"/>
     <use xlink:href="#m25b7ebb187" x="502.316529" y="493.915416" style="fill: #0000ff; stroke: #0000ff"/>
     <use xlink:href="#m25b7ebb187" x="703.72082" y="304.100128" style="fill: #0000ff; stroke: #0000ff"/>
     <use xlink:href="#m25b7ebb187" x="806.215414" y="244.56196" style="fill: #0000ff; stroke: #0000ff"/>
     <use xlink:href="#m25b7ebb187" x="916.555226" y="320.592643" style="fill: #0000ff; stroke: #0000ff"/>
     <use xlink:href="#m25b7ebb187" x="588.469623" y="325.495348" style="fill: #0000ff; stroke: #0000ff"/>
     <use xlink:href="#m25b7ebb187" x="593.686487" y="99.966942" style="fill: #0000ff; stroke: #0000ff"/>
     <use xlink:href="#m25b7ebb187" x="329.541016" y="776.167142" style="fill: #0000ff; stroke: #0000ff"/>
     <use xlink:href="#m25b7ebb187" x="346.318505" y="996.768071" style="fill: #0000ff; stroke: #0000ff"/>
     <use xlink:href="#m25b7ebb187" x="509.475187" y="1052.033058" style="fill: #0000ff; stroke: #0000ff"/>
     <use xlink:href="#m25b7ebb187" x="112.46281" y="716.38341" style="fill: #0000ff; stroke: #0000ff"/>
     <use xlink:href="#m25b7ebb187" x="139.720316" y="556.74524" style="fill: #0000ff; stroke: #0000ff"/>
    </g>
   </g>
   <g id="text_1">
    <g clip-path="url(#p3a9cef4ddf)">
     <!-- 0 -->
     <g transform="translate(730.793142 539.914739) scale(0.15 -0.15)">
      <defs>
       <path id="DejaVuSans-30" d="M 2034 4250 
Q 1547 4250 1301 3770 
Q 1056 3291 1056 2328 
Q 1056 1369 1301 889 
Q 1547 409 2034 409 
Q 2525 409 2770 889 
Q 3016 1369 3016 2328 
Q 3016 3291 2770 3770 
Q 2525 4250 2034 4250 
z
M 2034 4750 
Q 2819 4750 3233 4129 
Q 3647 3509 3647 2328 
Q 3647 1150 3233 529 
Q 2819 -91 2034 -91 
Q 1250 -91 836 529 
Q 422 1150 422 2328 
Q 422 3509 836 4129 
Q 1250 4750 2034 4750 
z
" transform="scale(0.015625)"/>
      </defs>
      <use xlink:href="#DejaVuSans-30"/>
     </g>
    </g>
   </g>
   <g id="text_2">
    <g clip-path="url(#p3a9cef4ddf)">
     <!-- 1 -->
     <g transform="translate(746.524047 675.416047) scale(0.15 -0.15)">
      <defs>
       <path id="DejaVuSans-31" d="M 794 531 
L 1825 531 
L 1825 4091 
L 703 3866 
L 703 4441 
L 1819 4666 
L 2450 4666 
L 2450 531 
L 3481 531 
L 3481 0 
L 794 0 
L 794 531 
z
" transform="scale(0.015625)"/>
      </defs>
      <use xlink:href="#DejaVuSans-31"/>
     </g>
    </g>
   </g>
   <g id="text_3">
    <g clip-path="url(#p3a9cef4ddf)">
     <!-- 6 -->
     <g transform="translate(491.135157 799.702834) scale(0.15 -0.15)">
      <defs>
       <path id="DejaVuSans-36" d="M 2113 2584 
Q 1688 2584 1439 2293 
Q 1191 2003 1191 1497 
Q 1191 994 1439 701 
Q 1688 409 2113 409 
Q 2538 409 2786 701 
Q 3034 994 3034 1497 
Q 3034 2003 2786 2293 
Q 2538 2584 2113 2584 
z
M 3366 4563 
L 3366 3988 
Q 3128 4100 2886 4159 
Q 2644 4219 2406 4219 
Q 1781 4219 1451 3797 
Q 1122 3375 1075 2522 
Q 1259 2794 1537 2939 
Q 1816 3084 2150 3084 
Q 2853 3084 3261 2657 
Q 3669 2231 3669 1497 
Q 3669 778 3244 343 
Q 2819 -91 2113 -91 
Q 1303 -91 875 529 
Q 447 1150 447 2328 
Q 447 3434 972 4092 
Q 1497 4750 2381 4750 
Q 2619 4750 2861 4703 
Q 3103 4656 3366 4563 
z
" transform="scale(0.015625)"/>
      </defs>
      <use xlink:href="#DejaVuSans-36"/>
     </g>
    </g>
   </g>
   <g id="text_4">
    <g clip-path="url(#p3a9cef4ddf)">
     <!-- 7 -->
     <g transform="translate(753.244657 983.144768) scale(0.15 -0.15)">
      <defs>
       <path id="DejaVuSans-37" d="M 525 4666 
L 3525 4666 
L 3525 4397 
L 1831 0 
L 1172 0 
L 2766 4134 
L 525 4134 
L 525 4666 
z
" transform="scale(0.015625)"/>
      </defs>
      <use xlink:href="#DejaVuSans-37"/>
     </g>
    </g>
   </g>
   <g id="text_5">
    <g clip-path="url(#p3a9cef4ddf)">
     <!-- 8 -->
     <g transform="translate(901.931803 925.747679) scale(0.15 -0.15)">
      <defs>
       <path id="DejaVuSans-38" d="M 2034 2216 
Q 1584 2216 1326 1975 
Q 1069 1734 1069 1313 
Q 1069 891 1326 650 
Q 1584 409 2034 409 
Q 2484 409 2743 651 
Q 3003 894 3003 1313 
Q 3003 1734 2745 1975 
Q 2488 2216 2034 2216 
z
M 1403 2484 
Q 997 2584 770 2862 
Q 544 3141 544 3541 
Q 544 4100 942 4425 
Q 1341 4750 2034 4750 
Q 2731 4750 3128 4425 
Q 3525 4100 3525 3541 
Q 3525 3141 3298 2862 
Q 3072 2584 2669 2484 
Q 3125 2378 3379 2068 
Q 3634 1759 3634 1313 
Q 3634 634 3220 271 
Q 2806 -91 2034 -91 
Q 1263 -91 848 271 
Q 434 634 434 1313 
Q 434 1759 690 2068 
Q 947 2378 1403 2484 
z
M 1172 3481 
Q 1172 3119 1398 2916 
Q 1625 2713 2034 2713 
Q 2441 2713 2670 2916 
Q 2900 3119 2900 3481 
Q 2900 3844 2670 4047 
Q 2441 4250 2034 4250 
Q 1625 4250 1398 4047 
Q 1172 3844 1172 3481 
z
" transform="scale(0.015625)"/>
      </defs>
      <use xlink:href="#DejaVuSans-38"/>
     </g>
    </g>
   </g>
   <g id="text_6">
    <g clip-path="url(#p3a9cef4ddf)">
     <!-- 20 -->
     <g transform="translate(620.491919 621.180368) scale(0.15 -0.15)">
      <defs>
       <path id="DejaVuSans-32" d="M 1228 531 
L 3431 531 
L 3431 0 
L 469 0 
L 469 531 
Q 828 903 1448 1529 
Q 2069 2156 2228 2338 
Q 2531 2678 2651 2914 
Q 2772 3150 2772 3378 
Q 2772 3750 2511 3984 
Q 2250 4219 1831 4219 
Q 1534 4219 1204 4116 
Q 875 4013 500 3803 
L 500 4441 
Q 881 4594 1212 4672 
Q 1544 4750 1819 4750 
Q 2544 4750 2975 4387 
Q 3406 4025 3406 3419 
Q 3406 3131 3298 2873 
Q 3191 2616 2906 2266 
Q 2828 2175 2409 1742 
Q 1991 1309 1228 531 
z
" transform="scale(0.015625)"/>
      </defs>
      <use xlink:href="#DejaVuSans-32"/>
      <use xlink:href="#DejaVuSans-30" x="63.623047"/>
     </g>
    </g>
   </g>
   <g id="text_7">
    <g clip-path="url(#p3a9cef4ddf)">
     <!-- 2 -->
     <g transform="translate(923.056511 505.747574) scale(0.15 -0.15)">
      <use xlink:href="#DejaVuSans-32"/>
     </g>
    </g>
   </g>
   <g id="text_8">
    <g clip-path="url(#p3a9cef4ddf)">
     <!-- 5 -->
     <g transform="translate(824.840528 438.188001) scale(0.15 -0.15)">
      <defs>
       <path id="DejaVuSans-35" d="M 691 4666 
L 3169 4666 
L 3169 4134 
L 1269 4134 
L 1269 2991 
Q 1406 3038 1543 3061 
Q 1681 3084 1819 3084 
Q 2600 3084 3056 2656 
Q 3513 2228 3513 1497 
Q 3513 744 3044 326 
Q 2575 -91 1722 -91 
Q 1428 -91 1123 -41 
Q 819 9 494 109 
L 494 744 
Q 775 591 1075 516 
Q 1375 441 1709 441 
Q 2250 441 2565 725 
Q 2881 1009 2881 1497 
Q 2881 1984 2565 2268 
Q 2250 2553 1709 2553 
Q 1456 2553 1204 2497 
Q 953 2441 691 2322 
L 691 4666 
z
" transform="scale(0.015625)"/>
      </defs>
      <use xlink:href="#DejaVuSans-35"/>
     </g>
    </g>
   </g>
   <g id="text_9">
    <g clip-path="url(#p3a9cef4ddf)">
     <!-- 9 -->
     <g transform="translate(1137.713772 699.974749) scale(0.15 -0.15)">
      <defs>
       <path id="DejaVuSans-39" d="M 703 97 
L 703 672 
Q 941 559 1184 500 
Q 1428 441 1663 441 
Q 2288 441 2617 861 
Q 2947 1281 2994 2138 
Q 2813 1869 2534 1725 
Q 2256 1581 1919 1581 
Q 1219 1581 811 2004 
Q 403 2428 403 3163 
Q 403 3881 828 4315 
Q 1253 4750 1959 4750 
Q 2769 4750 3195 4129 
Q 3622 3509 3622 2328 
Q 3622 1225 3098 567 
Q 2575 -91 1691 -91 
Q 1453 -91 1209 -44 
Q 966 3 703 97 
z
M 1959 2075 
Q 2384 2075 2632 2365 
Q 2881 2656 2881 3163 
Q 2881 3666 2632 3958 
Q 2384 4250 1959 4250 
Q 1534 4250 1286 3958 
Q 1038 3666 1038 3163 
Q 1038 2656 1286 2365 
Q 1534 2075 1959 2075 
z
" transform="scale(0.015625)"/>
      </defs>
      <use xlink:href="#DejaVuSans-39"/>
     </g>
    </g>
   </g>
   <g id="text_10">
    <g clip-path="url(#p3a9cef4ddf)">
     <!-- 10 -->
     <g transform="translate(1173.99344 533.815269) scale(0.15 -0.15)">
      <use xlink:href="#DejaVuSans-31"/>
      <use xlink:href="#DejaVuSans-30" x="63.623047"/>
     </g>
    </g>
   </g>
   <g id="text_11">
    <g clip-path="url(#p3a9cef4ddf)">
     <!-- 4 -->
     <g transform="translate(497.544654 498.054478) scale(0.15 -0.15)">
      <defs>
       <path id="DejaVuSans-34" d="M 2419 4116 
L 825 1625 
L 2419 1625 
L 2419 4116 
z
M 2253 4666 
L 3047 4666 
L 3047 1625 
L 3713 1625 
L 3713 1100 
L 3047 1100 
L 3047 0 
L 2419 0 
L 2419 1100 
L 313 1100 
L 313 1709 
L 2253 4666 
z
" transform="scale(0.015625)"/>
      </defs>
      <use xlink:href="#DejaVuSans-34"/>
     </g>
    </g>
   </g>
   <g id="text_12">
    <g clip-path="url(#p3a9cef4ddf)">
     <!-- 11 -->
     <g transform="translate(694.17707 308.239191) scale(0.15 -0.15)">
      <use xlink:href="#DejaVuSans-31"/>
      <use xlink:href="#DejaVuSans-31" x="63.623047"/>
     </g>
    </g>
   </g>
   <g id="text_13">
    <g clip-path="url(#p3a9cef4ddf)">
     <!-- 12 -->
     <g transform="translate(796.671664 248.701022) scale(0.15 -0.15)">
      <use xlink:href="#DejaVuSans-31"/>
      <use xlink:href="#DejaVuSans-32" x="63.623047"/>
     </g>
    </g>
   </g>
   <g id="text_14">
    <g clip-path="url(#p3a9cef4ddf)">
     <!-- 13 -->
     <g transform="translate(907.011476 324.731705) scale(0.15 -0.15)">
      <defs>
       <path id="DejaVuSans-33" d="M 2597 2516 
Q 3050 2419 3304 2112 
Q 3559 1806 3559 1356 
Q 3559 666 3084 287 
Q 2609 -91 1734 -91 
Q 1441 -91 1130 -33 
Q 819 25 488 141 
L 488 750 
Q 750 597 1062 519 
Q 1375 441 1716 441 
Q 2309 441 2620 675 
Q 2931 909 2931 1356 
Q 2931 1769 2642 2001 
Q 2353 2234 1838 2234 
L 1294 2234 
L 1294 2753 
L 1863 2753 
Q 2328 2753 2575 2939 
Q 2822 3125 2822 3475 
Q 2822 3834 2567 4026 
Q 2313 4219 1838 4219 
Q 1578 4219 1281 4162 
Q 984 4106 628 3988 
L 628 4550 
Q 988 4650 1302 4700 
Q 1616 4750 1894 4750 
Q 2613 4750 3031 4423 
Q 3450 4097 3450 3541 
Q 3450 3153 3228 2886 
Q 3006 2619 2597 2516 
z
" transform="scale(0.015625)"/>
      </defs>
      <use xlink:href="#DejaVuSans-31"/>
      <use xlink:href="#DejaVuSans-33" x="63.623047"/>
     </g>
    </g>
   </g>
   <g id="text_15">
    <g clip-path="url(#p3a9cef4ddf)">
     <!-- 14 -->
     <g transform="translate(578.925873 329.634411) scale(0.15 -0.15)">
      <use xlink:href="#DejaVuSans-31"/>
      <use xlink:href="#DejaVuSans-34" x="63.623047"/>
     </g>
    </g>
   </g>
   <g id="text_16">
    <g clip-path="url(#p3a9cef4ddf)">
     <!-- 15 -->
     <g transform="translate(584.142737 104.106005) scale(0.15 -0.15)">
      <use xlink:href="#DejaVuSans-31"/>
      <use xlink:href="#DejaVuSans-35" x="63.623047"/>
     </g>
    </g>
   </g>
   <g id="text_17">
    <g clip-path="url(#p3a9cef4ddf)">
     <!-- 3 -->
     <g transform="translate(324.769141 780.306205) scale(0.15 -0.15)">
      <use xlink:href="#DejaVuSans-33"/>
     </g>
    </g>
   </g>
   <g id="text_18">
    <g clip-path="url(#p3a9cef4ddf)">
     <!-- 16 -->
     <g transform="translate(336.774755 1000.907133) scale(0.15 -0.15)">
      <use xlink:href="#DejaVuSans-31"/>
      <use xlink:href="#DejaVuSans-36" x="63.623047"/>
     </g>
    </g>
   </g>
   <g id="text_19">
    <g clip-path="url(#p3a9cef4ddf)">
     <!-- 17 -->
     <g transform="translate(499.931437 1056.17212) scale(0.15 -0.15)">
      <use xlink:href="#DejaVuSans-31"/>
      <use xlink:href="#DejaVuSans-37" x="63.623047"/>
     </g>
    </g>
   </g>
   <g id="text_20">
    <g clip-path="url(#p3a9cef4ddf)">
     <!-- 18 -->
     <g transform="translate(102.91906 720.522473) scale(0.15 -0.15)">
      <use xlink:href="#DejaVuSans-31"/>
      <use xlink:href="#DejaVuSans-38" x="63.623047"/>
     </g>
    </g>
   </g>
   <g id="text_21">
    <g clip-path="url(#p3a9cef4ddf)">
     <!-- 19 -->
     <g transform="translate(130.176566 560.884302) scale(0.15 -0.15)">
      <use xlink:href="#DejaVuSans-31"/>
      <use xlink:href="#DejaVuSans-39" x="63.623047"/>
     </g>
    </g>
   </g>
  </g>
 </g>
 <defs>
  <clipPath id="p3a9cef4ddf">
   <rect x="0" y="0" width="1296" height="1152"/>
  </clipPath>
 </defs>
</svg>
