<?xml version="1.0" encoding="utf-8" standalone="no"?>
<!DOCTYPE svg PUBLIC "-//W3C//DTD SVG 1.1//EN"
  "http://www.w3.org/Graphics/SVG/1.1/DTD/svg11.dtd">
<svg xmlns:xlink="http://www.w3.org/1999/xlink" width="1296pt" height="1152pt" viewBox="0 0 1296 1152" xmlns="http://www.w3.org/2000/svg" version="1.1">
 <metadata>
  <rdf:RDF xmlns:dc="http://purl.org/dc/elements/1.1/" xmlns:cc="http://creativecommons.org/ns#" xmlns:rdf="http://www.w3.org/1999/02/22-rdf-syntax-ns#">
   <cc:Work>
    <dc:type rdf:resource="http://purl.org/dc/dcmitype/StillImage"/>
    <dc:date>2025-02-13T10:46:53.520473</dc:date>
    <dc:format>image/svg+xml</dc:format>
    <dc:creator>
     <cc:Agent>
      <dc:title>Matplotlib v3.9.1, https://matplotlib.org/</dc:title>
     </cc:Agent>
    </dc:creator>
   </cc:Work>
  </rdf:RDF>
 </metadata>
 <defs>
  <style type="text/css">*{stroke-linejoin: round; stroke-linecap: butt}</style>
 </defs>
 <g id="figure_1">
  <g id="patch_1">
   <path d="M 0 1152 
L 1296 1152 
L 1296 0 
L 0 0 
z
" style="fill: #ffffff"/>
  </g>
  <g id="axes_1">
   <g id="patch_2">
    <path d="M 865.534267 564.161482 
Q 624.994564 511.634094 384.45486 459.106705 
" clip-path="url(#p36b6ae44f7)" style="fill: none; stroke: #000000; stroke-linecap: round"/>
   </g>
   <g id="patch_3">
    <path d="M 867.02744 561.559586 
Q 743.104794 427.588433 619.182149 293.61728 
" clip-path="url(#p36b6ae44f7)" style="fill: none; stroke: #000000; stroke-linecap: round"/>
   </g>
   <g id="patch_4">
    <path d="M 865.518652 566.20962 
Q 659.454581 607.439034 453.390511 648.668449 
" clip-path="url(#p36b6ae44f7)" style="fill: none; stroke: #000000; stroke-linecap: round"/>
   </g>
   <g id="patch_5">
    <path d="M 865.492767 566.053194 
Q 765.756667 582.738152 666.020567 599.42311 
" clip-path="url(#p36b6ae44f7)" style="fill: none; stroke: #000000; stroke-linecap: round"/>
   </g>
   <g id="patch_6">
    <path d="M 865.492767 566.053194 
Q 765.756667 582.738152 666.020567 599.42311 
" clip-path="url(#p36b6ae44f7)" style="fill: none; stroke: #000000; stroke-linecap: round"/>
   </g>
   <g id="patch_7">
    <path d="M 869.125094 570.054482 
Q 841.93403 671.284085 814.742965 772.513689 
" clip-path="url(#p36b6ae44f7)" style="fill: none; stroke: #000000; stroke-linecap: round"/>
   </g>
   <g id="patch_8">
    <path d="M 872.76401 569.647875 
Q 915.078085 649.468714 957.39216 729.289552 
" clip-path="url(#p36b6ae44f7)" style="fill: none; stroke: #000000; stroke-linecap: round"/>
   </g>
   <g id="patch_9">
    <path d="M 873.848594 568.866842 
Q 1002.309661 705.232941 1130.770728 841.59904 
" clip-path="url(#p36b6ae44f7)" style="fill: none; stroke: #000000; stroke-linecap: round"/>
   </g>
   <g id="patch_10">
    <path d="M 875.232554 566.579437 
Q 1026.978594 609.182201 1178.724634 651.784965 
" clip-path="url(#p36b6ae44f7)" style="fill: none; stroke: #000000; stroke-linecap: round"/>
   </g>
   <g id="patch_11">
    <path d="M 383.648488 455.139512 
Q 497.679471 373.994054 611.710454 292.848596 
" clip-path="url(#p36b6ae44f7)" style="fill: none; stroke: #000000; stroke-linecap: round"/>
   </g>
   <g id="patch_12">
    <path d="M 381.263926 462.744678 
Q 414.029991 553.845636 446.796056 644.946593 
" clip-path="url(#p36b6ae44f7)" style="fill: none; stroke: #000000; stroke-linecap: round"/>
   </g>
   <g id="patch_13">
    <path d="M 384.035099 460.294953 
Q 520.332292 529.145008 656.629485 597.995063 
" clip-path="url(#p36b6ae44f7)" style="fill: none; stroke: #000000; stroke-linecap: round"/>
   </g>
   <g id="patch_14">
    <path d="M 384.035099 460.294953 
Q 520.332292 529.145008 656.629485 597.995063 
" clip-path="url(#p36b6ae44f7)" style="fill: none; stroke: #000000; stroke-linecap: round"/>
   </g>
   <g id="patch_15">
    <path d="M 378.389463 462.89949 
Q 351.267683 574.348075 324.145903 685.79666 
" clip-path="url(#p36b6ae44f7)" style="fill: none; stroke: #000000; stroke-linecap: round"/>
   </g>
   <g id="patch_16">
    <path d="M 382.30661 462.221543 
Q 461.107484 582.703545 539.908358 703.185547 
" clip-path="url(#p36b6ae44f7)" style="fill: none; stroke: #000000; stroke-linecap: round"/>
   </g>
   <g id="patch_17">
    <path d="M 375.068236 460.203566 
Q 246.019483 522.186289 116.970731 584.169011 
" clip-path="url(#p36b6ae44f7)" style="fill: none; stroke: #000000; stroke-linecap: round"/>
   </g>
   <g id="patch_18">
    <path d="M 613.677595 294.483692 
Q 532.136798 469.799903 450.596001 645.116115 
" clip-path="url(#p36b6ae44f7)" style="fill: none; stroke: #000000; stroke-linecap: round"/>
   </g>
   <g id="patch_19">
    <path d="M 616.509841 294.895228 
Q 638.438814 445.099863 660.367787 595.304499 
" clip-path="url(#p36b6ae44f7)" style="fill: none; stroke: #000000; stroke-linecap: round"/>
   </g>
   <g id="patch_20">
    <path d="M 616.509841 294.895228 
Q 638.438814 445.099863 660.367787 595.304499 
" clip-path="url(#p36b6ae44f7)" style="fill: none; stroke: #000000; stroke-linecap: round"/>
   </g>
   <g id="patch_21">
    <path d="M 614.932189 294.877296 
Q 603.860845 358.693139 592.789501 422.508982 
" clip-path="url(#p36b6ae44f7)" style="fill: none; stroke: #000000; stroke-linecap: round"/>
   </g>
   <g id="patch_22">
    <path d="M 619.895988 292.802597 
Q 708.699215 354.517297 797.502442 416.231998 
" clip-path="url(#p36b6ae44f7)" style="fill: none; stroke: #000000; stroke-linecap: round"/>
   </g>
   <g id="patch_23">
    <path d="M 619.993415 287.245118 
Q 728.109274 217.782798 836.225134 148.320479 
" clip-path="url(#p36b6ae44f7)" style="fill: none; stroke: #000000; stroke-linecap: round"/>
   </g>
   <g id="patch_24">
    <path d="M 616.579284 285.010571 
Q 631.022721 194.957944 645.466157 104.905317 
" clip-path="url(#p36b6ae44f7)" style="fill: none; stroke: #000000; stroke-linecap: round"/>
   </g>
   <g id="patch_25">
    <path d="M 453.356836 648.51798 
Q 554.787223 624.949037 656.217609 601.380094 
" clip-path="url(#p36b6ae44f7)" style="fill: none; stroke: #000000; stroke-linecap: round"/>
   </g>
   <g id="patch_26">
    <path d="M 453.356836 648.51798 
Q 554.787223 624.949037 656.217609 601.380094 
" clip-path="url(#p36b6ae44f7)" style="fill: none; stroke: #000000; stroke-linecap: round"/>
   </g>
   <g id="patch_27">
    <path d="M 449.163533 654.60048 
Q 463.264931 757.877201 477.366329 861.153922 
" clip-path="url(#p36b6ae44f7)" style="fill: none; stroke: #000000; stroke-linecap: round"/>
   </g>
   <g id="patch_28">
    <path d="M 451.959285 653.250361 
Q 562.307223 767.703322 672.655162 882.156283 
" clip-path="url(#p36b6ae44f7)" style="fill: none; stroke: #000000; stroke-linecap: round"/>
   </g>
   <g id="patch_29">
    <path d="M 447.82808 654.607401 
Q 421.727775 850.841474 395.627469 1047.075546 
" clip-path="url(#p36b6ae44f7)" style="fill: none; stroke: #000000; stroke-linecap: round"/>
   </g>
   <g id="patch_30">
    <path d="M 664.351165 604.039306 
Q 737.268357 688.796711 810.185548 773.554116 
" clip-path="url(#p36b6ae44f7)" style="fill: none; stroke: #000000; stroke-linecap: round"/>
   </g>
   <g id="patch_31">
    <path d="M 664.351165 604.039306 
Q 737.268357 688.796711 810.185548 773.554116 
" clip-path="url(#p36b6ae44f7)" style="fill: none; stroke: #000000; stroke-linecap: round"/>
   </g>
   <g id="patch_32">
    <path d="M 656.257755 601.539884 
Q 492.025508 645.450179 327.793261 689.360474 
" clip-path="url(#p36b6ae44f7)" style="fill: none; stroke: #000000; stroke-linecap: round"/>
   </g>
   <g id="patch_33">
    <path d="M 656.257755 601.539884 
Q 492.025508 645.450179 327.793261 689.360474 
" clip-path="url(#p36b6ae44f7)" style="fill: none; stroke: #000000; stroke-linecap: round"/>
   </g>
   <g id="patch_34">
    <path d="M 659.231292 595.60434 
Q 626.512137 513.839238 593.792981 432.074136 
" clip-path="url(#p36b6ae44f7)" style="fill: none; stroke: #000000; stroke-linecap: round"/>
   </g>
   <g id="patch_35">
    <path d="M 659.231292 595.60434 
Q 626.512137 513.839238 593.792981 432.074136 
" clip-path="url(#p36b6ae44f7)" style="fill: none; stroke: #000000; stroke-linecap: round"/>
   </g>
   <g id="patch_36">
    <path d="M 658.254545 604.365581 
Q 569.566174 733.1779 480.877803 8 clip-path=  clip-path="url(#p36b6ae44f7)" style="fill: none; stroke: #000000; stroke-linecap: round"/>
   </g>
   <g id="patch_37">
    <path d="M 658.254545 604.365581 
Q 569.566174 733.1779 480.877803 861.990219 
" clip-path="url(#p36b6ae44f7)" style="fill: none; stroke: #000000; stroke-linecap: round"/>
   </g>
   <g id="patch_38">
    <path d="M 665.65103 602.286505 
Q 810.410908 666.977531 955.170785 731.668557 
" clip-path="url(#p36b6ae44f7)" style="fill: none; stroke: #000000; stroke-linecap: round"/>
   </g>
   <g id="patch_39">
    <path d="M 665.65103 602.286505 
Q 810.410908 666.977531 955.170785 731.668557 
" clip-path="url(#p36b6ae44f7)" style="fill: none; stroke: #000000; stroke-linecap: round"/>
   </g>
   <g id="patch_40">
    <path d="M 657.384542 603.598905 
Q 601.86938 653.808276 546.354219 704.017648 
" clip-path="url(#p36b6ae44f7)" style="fill: none; stroke: #000000; stroke-linecap: round"/>
   </g>
   <g id="patch_41">
    <path d="M 657.384542 603.598905 
Q 601.86938 653.808276 546.354219 704.017648 
" clip-path="url(#p36b6ae44f7)" style="fill: none; stroke: #000000; stroke-linecap: round"/>
   </g>
   <g id="patch_42">
    <path d="M 664.15351 596.297823 
Q 731.349022 509.667103 798.544534 423.036383 
" clip-path="url(#p36b6ae44f7)" style="fill: none; stroke: #000000; stroke-linecap: round"/>
   </g>
   <g id="patch_43">
    <path d="M 664.15351 596.297823 
Q 731.349022 509.667103 798.544534 423.036383 
" clip-path="url(#p36b6ae44f7)" style="fill: none; stroke: #000000; stroke-linecap: round"/>
   </g>
   <g id="patch_44">
    <path d="M 661.352697 605.244966 
Q 668.608304 743.003577 675.863911 880.762189 
" clip-path="url(#p36b6ae44f7)" style="fill: none; stroke: #000000; stroke-linecap: round"/>
   </g>
   <g id="patch_45">
    <path d="M 661.352697 605.244966 
Q 668.608304 743.003577 675.863911 880.762189 
" clip-path="url(#p36b6ae44f7)" style="fill: none; stroke: #000000; stroke-linecap: round"/>
   </g>
   <g id="patch_46">
    <path d="M 665.532876 602.548948 
Q 897.648306 722.745827 1129.763736 842.942707 
" clip-path="url(#p36b6ae44f7)" style="fill: none; stroke: #000000; stroke-linecap: round"/>
   </g>
   <g id="patch_47">
    <path d="M 666.067977 600.752007 
Q 922.313384 626.692065 1178.558791 652.632122 
" clip-path="url(#p36b6ae44f7)" style="fill: none; stroke: #000000; stroke-linecap: round"/>
   </g>
   <g id="patch_48">
    <path d="M 656.087614 600.121177 
Q 386.774098 593.291056 117.460581 586.460936 
" clip-path="url(#p36b6ae44f7)" style="fill: none; stroke: #000000; stroke-linecap: round"/>
   </g>
   <g id="patch_49">
    <path d="M 662.92438 595.596692 
Q 750.761188 372.932741 838.597996 150.268789 
" clip-path="url(#p36b6ae44f7)" style="fill: none; stroke: #000000; stroke-linecap: round"/>
   </g>
   <g id="patch_50">
    <path d="M 660.941395 595.251785 
Q 653.67391 350.108989 646.406425 104.966193 
" clip-path="url(#p36b6ae44f7)" style="fill: none; stroke: #000000; stroke-linecap: round"/>
   </g>
   <g id="patch_51">
    <path d="M 658.553612 604.553142 
Q 528.028785 826.140572 397.503959 1047.728003 
" clip-path="url(#p36b6ae44f7)" style="fill: none; stroke: #000000; stroke-linecap: round"/>
   </g>
   <g id="patch_52">
    <path d="M 808.524796 776.473809 
Q 568.206276 733.997772 327.887756 691.521735 
" clip-path="url(#p36b6ae44f7)" style="fill: none; stroke: #000000; stroke-linecap: round"/>
   </g>
   <g id="patch_53">
    <path d="M 810.770372 773.117562 
Q 702.689385 602.386022 594.608398 431.654482 
" clip-path="url(#p36b6ae44f7)" style="fill: none; stroke: #000000; stroke-linecap: round"/>
   </g>
   <g id="patch_54">
    <path d="M 808.611823 778.622825 
Q 645.744661 821.725604 482.8775 864.828382 
" clip-path="url(#p36b6ae44f7)" style="fill: none; stroke: #000000; stroke-linecap: round"/>
   </g>
   <g id="patch_55">
    <path d="M 818.235904 775.914697 
Q 886.590728 755.52556 954.945551 735.136424 
" clip-path="url(#p36b6ae44f7)" style="fill: none; stroke: #000000; stroke-linecap: round"/>
   </g>
   <g id="patch_56">
    <path d="M 818.337517 778.379067 
Q 973.823325 811.292034 1129.309133 844.205002 
" clip-path="url(#p36b6ae44f7)" style="fill: none; stroke: #000000; stroke-linecap: round"/>
   </g>
   <g id="patch_57">
    <path d="M 818.186406 775.752493 
Q 998.49111 715.239926 1178.795814 654.727359 
" clip-path="url(#p36b6ae44f7)" style="fill: none; stroke: #000000; stroke-linecap: round"/>
   </g>
   <g id="patch_58">
    <path d="M 326.537115 687.155257 
Q 457.449348 559.042355 588.361581 430.929453 
" clip-path="url(#p36b6ae44f7)" style="fill: none; stroke: #000000; stroke-linecap: round"/>
   </g>
   <g id="patch_59">
    <path d="M 326.274898 694.397018 
Q 400.504187 778.380397 474.733476 862.363776 
" clip-path="url(#p36b6ae44f7)" style="fill: none; stroke: #000000; stroke-linecap: round"/>
   </g>
   <g id="patch_60">
    <path d="M 327.948971 691.030913 
Q 432.806118 699.011526 537.663265 706.992139 
" clip-path="url(#p36b6ae44f7)" style="fill: none; stroke: #000000; stroke-linecap: round"/>
   </g>
   <g id="patch_61">
    <path d="M 318.483694 688.431043 
Q 217.713088 638.4926 116.942482 588.554158 
" clip-path="url(#p36b6ae44f7)" style="fill: none; stroke: #000000; stroke-linecap: round"/>
   </g>
   <g id="patch_62">
    <path d="M 590.678058 432.274916 
Q 534.989008 646.770228 479.299959 861.265541 
" clip-path="url(#p36b6ae44f7)" style="fill: none; stroke: #000000; stroke-linecap: round"/>
   </g>
   <g id="patch_63">
    <path d="M 596.929608 427.233252 
Q 696.772259 423.258909 796.614909 419.284567 
" clip-path="url(#p36b6ae44f7)" style="fill: none; stroke: #000000; stroke-linecap: round"/>
   </g>
   <g id="patch_64">
    <path d="M 595.243725 423.680164 
Q 716.185672 286.522874 837.127618 149.365584 
" clip-path="url(#p36b6ae44f7)" style="fill: none; stroke: #000000; stroke-linecap: round"/>
   </g>
   <g id="patch_65">
    <path d="M 592.753942 422.497789 
Q 619.09665 263.700463 645.439358 104.903137 
" clip-path="url(#p36b6ae44f7)" style="fill: none; stroke: #000000; stroke-linecap: round"/>
   </g>
   <g id="patch_66">
    <path d="M 483.020845 866.601712 
Q 577.085546 875.932653 671.150247 885.263594 
" clip-path="url(#p36b6ae44f7)" style="fill: none; stroke: #000000; stroke-linecap: round"/>
   </g>
   <g id="patch_67">
    <path d="M 476.003147 870.672621 
Q 436.50511 959.071167 397.007073 1047.469713 
" clip-path="url(#p36b6ae44f7)" style="fill: none; stroke: #000000; stroke-linecap: round"/>
   </g>
   <g id="patch_68">
    <path d="M 954.741662 733.392717 
Q 751.188671 720.539579 547.635679 707.686441 
" clip-path="url(#p36b6ae44f7)" style="fill: none; stroke: #000000; stroke-linecap: round"/>
   </g>
   <g id="patch_69">
    <path d="M 957.489312 729.240878 
Q 880.671154 576.395928 803.852997 423.550978 
" clip-path="url(#p36b6ae44f7)" style="fill: none; stroke: #000000; stroke-linecap: round"/>
   </g>
   <g id="patch_70">
    <path d="M 955.324698 736.07215 
Q 817.930511 809.732734 680.536324 883.393319 
" clip-path="url(#p36b6ae44f7)" style="fill: none; stroke: #000000; stroke-linecap: round"/>
   </g>
   <g id="patch_71">
    <path d="M 963.948611 736.402011 
Q 1046.969312 789.475238 1129.990014 842.548464 
" clip-path="url(#p36b6ae44f7)" style="fill: none; stroke: #000000; stroke-linecap: round"/>
   </g>
   <g id="patch_72">
    <path d="M 964.436825 732.015055 
Q 1071.635062 693.422305 1178.833299 654.829554 
" clip-path="url(#p36b6ae44f7)" style="fill: none; stroke: #000000; stroke-linecap: round"/>
   </g>
   <g id="patch_73">
    <path d="M 545.987046 703.652118 
Q 672.127562 563.228469 798.268078 422.80482 
" clip-path="url(#p36b6ae44f7)" style="fill: none; stroke: #000000; stroke-linecap: round"/>
   </g>
   <g id="patch_74">
    <path d="M 545.642158 711.375371 
Q 609.38632 796.564028 673.130481 881.752684 
" clip-path="url(#p36b6ae44f7)" style="fill: none; stroke: #000000; stroke-linecap: round"/>
   </g>
   <g id="patch_75">
    <path d="M 537.831339 706.016692 
Q 327.553467 646.852506 117.275596 587.688321 
" clip-path="url(#p36b6ae44f7)" style="fill: none; stroke: #000000; stroke-linecap: round"/>
   </g>
   <g id="patch_76">
    <path d="M 800.309713 423.91727 
Q 738.867825 652.421871 677.425936 880.926473 
" clip-path="url(#p36b6ae44f7)" style="fill: none; stroke: #000000; stroke-linecap: round"/>
   </g>
   <g id="patch_77">
    <path d="M 802.312029 414.132662 
Q 821.020914 282.35159 839.729798 150.570519 
" clip-path="url(#p36b6ae44f7)" style="fill: none; stroke: #000000; stroke-linecap: round"/>
   </g>
   <g id="patch_78">
    <path d="M 799.419716 414.588918 
Q 723.933295 259.525881 648.446873 104.462845 
" clip-path="url(#p36b6ae44f7)" style="fill: none; stroke: #000000; stroke-linecap: round"/>
   </g>
   <g id="patch_79">
    <path d="M 671.823983 888.302052 
Q 535.548412 968.894652 399.272841 1049.487253 
" clip-path="url(#p36b6ae44f7)" style="fill: none; stroke: #000000; stroke-linecap: round"/>
   </g>
   <g id="patch_80">
    <path d="M 1135.445517 840.395122 
Q 1158.86944 749.187208 1182.293364 657.979294 
" clip-path="url(#p36b6ae44f7)" style="fill: none; stroke: #000000; stroke-linecap: round"/>
   </g>
   <g id="patch_81">
    <path d="M 835.56505 144.47252 
Q 743.345273 122.791874 651.125497 101.111228 
" clip-path="url(#p36b6ae44f7)" style="fill: none; stroke: #000000; stroke-linecap: round"/>
   </g>
   <g id="PathCollection_1">
    <defs>
     <path id="m2adc6354e4" d="M 0 5 
C 1.326016 5 2.597899 4.473168 3.535534 3.535534 
C 4.473168 2.597899 5 1.326016 5 0 
C 5 -1.326016 4.473168 -2.597899 3.535534 -3.535534 
C 2.597899 -4.473168 1.326016 -5 0 -5 
C -1.326016 -5 -2.597899 -4.473168 -3.535534 -3.535534 
C -4.473168 -2.597899 -5 -1.326016 -5 0 
C -5 1.326016 -4.473168 2.597899 -3.535534 3.535534 
C -2.597899 4.473168 -1.326016 5 0 5 
z
" style="stroke: #0000ff"/>
    </defs>
    <g clip-path="url(#p36b6ae44f7)">
     <use xlink:href="#m2adc6354e4" x="870.421341" y="565.228687" style="fill: #0000ff; stroke: #0000ff"/>
     <use xlink:href="#m2adc6354e4" x="379.571953" y="458.04041" style="fill: #0000ff; stroke: #0000ff"/>
     <use xlink:href="#m2adc6354e4" x="615.78748" y="289.947348" style="fill: #0000ff; stroke: #0000ff"/>
     <use xlink:href="#m2adc6354e4" x="448.487519" y="649.649442" style="fill: #0000ff; stroke: #0000ff"/>
     <use xlink:href="#m2adc6354e4" x="661.089513" y="600.248031" style="fill: #0000ff; stroke: #0000ff"/>
     <use xlink:href="#m2adc6354e4" x="813.445624" y="777.34356" style="fill: #0000ff; stroke: #0000ff"/>
     <use xlink:href="#m2adc6354e4" x="322.964434" y="690.651543" style="fill: #0000ff; stroke: #0000ff"/>
     <use xlink:href="#m2adc6354e4" x="591.935403" y="427.432051" style="fill: #0000ff; stroke: #0000ff"/>
     <use xlink:href="#m2adc6354e4" x="478.042745" y="866.1079" style="fill: #0000ff; stroke: #0000ff"/>
     <use xlink:href="#m2adc6354e4" x="959.734427" y="733.70798" style="fill: #0000ff; stroke: #0000ff"/>
     <use xlink:href="#m2adc6354e4" x="542.646088" y="707.371379" style="fill: #0000ff; stroke: #0000ff"/>
     <use xlink:href="#m2adc6354e4" x="801.608838" y="419.085779" style="fill: #0000ff; stroke: #0000ff"/>
     <use xlink:href="#m2adc6354e4" x="676.126997" y="885.757273" style="fill: #0000ff; stroke: #0000ff"/>
     <use xlink:href="#m2adc6354e4" x="1134.201124" y="845.24053" style="fill: #0000ff; stroke: #0000ff"/>
     <use xlink:href="#m2adc6354e4" x="1183.53719" y="653.136092" style="fill: #0000ff; stroke: #0000ff"/>
     <use xlink:href="#m2adc6354e4" x="112.46281" y="586.334187" style="fill: #0000ff; stroke: #0000ff"/>
     <use xlink:href="#m2adc6354e4" x="840.43305" y="145.616975" style="fill: #0000ff; stroke: #0000ff"/>
     <use xlink:href="#m2adc6354e4" x="646.258218" y="99.966942" style="fill: #0000ff; stroke: #0000ff"/>
     <use xlink:href="#m2adc6354e4" x="394.96809" y="1052.033058" style="fill: #0000ff; stroke: #0000ff"/>
    </g>
   </g>
   <g id="text_1">
    <g clip-path="url(#p36b6ae44f7)">
     <!-- 0 -->
     <g transform="translate(865.649466 569.36775) scale(0.15 -0.15)">
      <defs>
       <path id="DejaVuSans-30" d="M 2034 4250 
Q 1547 4250 1301 3770 
Q 1056 3291 1056 2328 
Q 1056 1369 1301 889 
Q 1547 409 2034 409 
Q 2525 409 2770 889 
Q 3016 1369 3016 2328 
Q 3016 3291 2770 3770 
Q 2525 4250 2034 4250 
z
M 2034 4750 
Q 2819 4750 3233 4129 
Q 3647 3509 3647 2328 
Q 3647 1150 3233 529 
Q 2819 -91 2034 -91 
Q 1250 -91 836 529 
Q 422 1150 422 2328 
Q 422 3509 836 4129 
Q 1250 4750 2034 4750 
z
" transform="scale(0.015625)"/>
      </defs>
      <use xlink:href="#DejaVuSans-30"/>
     </g>
    </g>
   </g>
   <g id="text_2">
    <g clip-path="url(#p36b6ae44f7)">
     <!-- 1 -->
     <g transform="translate(374.800078 462.179472) scale(0.15 -0.15)">
      <defs>
       <path id="DejaVuSans-31" d="M 794 531 
L 1825 531 
L 1825 4091 
L 703 3866 
L 703 4441 
L 1819 4666 
L 2450 4666 
L 2450 531 
L 3481 531 
L 3481 0 
L 794 0 
L 794 531 
z
" transform="scale(0.015625)"/>
      </defs>
      <use xlink:href="#DejaVuSans-31"/>
     </g>
    </g>
   </g>
   <g id="text_3">
    <g clip-path="url(#p36b6ae44f7)">
     <!-- 2 -->
     <g transform="translate(611.015605 294.086411) scale(0.15 -0.15)">
      <defs>
       <path id="DejaVuSans-32" d="M 1228 531 
L 3431 531 
L 3431 0 
L 469 0 
L 469 531 
Q 828 903 1448 1529 
Q 2069 2156 2228 2338 
Q 2531 2678 2651 2914 
Q 2772 3150 2772 3378 
Q 2772 3750 2511 3984 
Q 2250 4219 1831 4219 
Q 1534 4219 1204 4116 
Q 875 4013 500 3803 
L 500 4441 
Q 881 4594 1212 4672 
Q 1544 4750 1819 4750 
Q 2544 4750 2975 4387 
Q 3406 4025 3406 3419 
Q 3406 3131 3298 2873 
Q 3191 2616 2906 2266 
Q 2828 2175 2409 1742 
Q 1991 1309 1228 531 
z
" transform="scale(0.015625)"/>
      </defs>
      <use xlink:href="#DejaVuSans-32"/>
     </g>
    </g>
   </g>
   <g id="text_4">
    <g clip-path="url(#p36b6ae44f7)">
     <!-- 3 -->
     <g transform="translate(443.715644 653.788505) scale(0.15 -0.15)">
      <defs>
       <path id="DejaVuSans-33" d="M 2597 2516 
Q 3050 2419 3304 2112 
Q 3559 1806 3559 1356 
Q 3559 666 3084 287 
Q 2609 -91 1734 -91 
Q 1441 -91 1130 -33 
Q 819 25 488 141 
L 488 750 
Q 750 597 1062 519 
Q 1375 441 1716 441 
Q 2309 441 2620 675 
Q 2931 909 2931 1356 
Q 2931 1769 2642 2001 
Q 2353 2234 1838 2234 
L 1294 2234 
L 1294 2753 
L 1863 2753 
Q 2328 2753 2575 2939 
Q 2822 3125 2822 3475 
Q 2822 3834 2567 4026 
Q 2313 4219 1838 4219 
Q 1578 4219 1281 4162 
Q 984 4106 628 3988 
L 628 4550 
Q 988 4650 1302 4700 
Q 1616 4750 1894 4750 
Q 2613 4750 3031 4423 
Q 3450 4097 3450 3541 
Q 3450 3153 3228 2886 
Q 3006 2619 2597 2516 
z
" transform="scale(0.015625)"/>
      </defs>
      <use xlink:href="#DejaVuSans-33"/>
     </g>
    </g>
   </g>
   <g id="text_5">
    <g clip-path="url(#p36b6ae44f7)">
     <!-- 18 -->
     <g transform="translate(651.545763 604.387094) scale(0.15 -0.15)">
      <defs>
       <path id="DejaVuSans-38" d="M 2034 2216 
Q 1584 2216 1326 1975 
Q 1069 1734 1069 1313 
Q 1069 891 1326 650 
Q 1584 409 2034 409 
Q 2484 409 2743 651 
Q 3003 894 3003 1313 
Q 3003 1734 2745 1975 
Q 2488 2216 2034 2216 
z
M 1403 2484 
Q 997 2584 770 2862 
Q 544 3141 544 3541 
Q 544 4100 942 4425 
Q 1341 4750 2034 4750 
Q 2731 4750 3128 4425 
Q 3525 4100 3525 3541 
Q 3525 3141 3298 2862 
Q 3072 2584 2669 2484 
Q 3125 2378 3379 2068 
Q 3634 1759 3634 1313 
Q 3634 634 3220 271 
Q 2806 -91 2034 -91 
Q 1263 -91 848 271 
Q 434 634 434 1313 
Q 434 1759 690 2068 
Q 947 2378 1403 2484 
z
M 1172 3481 
Q 1172 3119 1398 2916 
Q 1625 2713 2034 2713 
Q 2441 2713 2670 2916 
Q 2900 3119 2900 3481 
Q 2900 3844 2670 4047 
Q 2441 4250 2034 4250 
Q 1625 4250 1398 4047 
Q 1172 3844 1172 3481 
z
" transform="scale(0.015625)"/>
      </defs>
      <use xlink:href="#DejaVuSans-31"/>
      <use xlink:href="#DejaVuSans-38" x="63.623047"/>
     </g>
    </g>
   </g>
   <g id="text_6">
    <g clip-path="url(#p36b6ae44f7)">
     <!-- 4 -->
     <g transform="translate(808.673749 781.482622) scale(0.15 -0.15)">
      <defs>
       <path id="DejaVuSans-34" d="M 2419 4116 
L 825 1625 
L 2419 1625 
L 2419 4116 
z
M 2253 4666 
L 3047 4666 
L 3047 1625 
L 3713 1625 
L 3713 1100 
L 3047 1100 
L 3047 0 
L 2419 0 
L 2419 1100 
L 313 1100 
L 313 1709 
L 2253 4666 
z
" transform="scale(0.015625)"/>
      </defs>
      <use xlink:href="#DejaVuSans-34"/>
     </g>
    </g>
   </g>
   <g id="text_7">
    <g clip-path="url(#p36b6ae44f7)">
     <!-- 5 -->
     <g transform="translate(318.192559 694.790605) scale(0.15 -0.15)">
      <defs>
       <path id="DejaVuSans-35" d="M 691 4666 
L 3169 4666 
L 3169 4134 
L 1269 4134 
L 1269 2991 
Q 1406 3038 1543 3061 
Q 1681 3084 1819 3084 
Q 2600 3084 3056 2656 
Q 3513 2228 3513 1497 
Q 3513 744 3044 326 
Q 2575 -91 1722 -91 
Q 1428 -91 1123 -41 
Q 819 9 494 109 
L 494 744 
Q 775 591 1075 516 
Q 1375 441 1709 441 
Q 2250 441 2565 725 
Q 2881 1009 2881 1497 
Q 2881 1984 2565 2268 
Q 2250 2553 1709 2553 
Q 1456 2553 1204 2497 
Q 953 2441 691 2322 
L 691 4666 
z
" transform="scale(0.015625)"/>
      </defs>
      <use xlink:href="#DejaVuSans-35"/>
     </g>
    </g>
   </g>
   <g id="text_8">
    <g clip-path="url(#p36b6ae44f7)">
     <!-- 6 -->
     <g transform="translate(587.163528 431.571114) scale(0.15 -0.15)">
      <defs>
       <path id="DejaVuSans-36" d="M 2113 2584 
Q 1688 2584 1439 2293 
Q 1191 2003 1191 1497 
Q 1191 994 1439 701 
Q 1688 409 2113 409 
Q 2538 409 2786 701 
Q 3034 994 3034 1497 
Q 3034 2003 2786 2293 
Q 2538 2584 2113 2584 
z
M 3366 4563 
L 3366 3988 
Q 3128 4100 2886 4159 
Q 2644 4219 2406 4219 
Q 1781 4219 1451 3797 
Q 1122 3375 1075 2522 
Q 1259 2794 1537 2939 
Q 1816 3084 2150 3084 
Q 2853 3084 3261 2657 
Q 3669 2231 3669 1497 
Q 3669 778 3244 343 
Q 2819 -91 2113 -91 
Q 1303 -91 875 529 
Q 447 1150 447 2328 
Q 447 3434 972 4092 
Q 1497 4750 2381 4750 
Q 2619 4750 2861 4703 
Q 3103 4656 3366 4563 
z
" transform="scale(0.015625)"/>
      </defs>
      <use xlink:href="#DejaVuSans-36"/>
     </g>
    </g>
   </g>
   <g id="text_9">
    <g clip-path="url(#p36b6ae44f7)">
     <!-- 7 -->
     <g transform="translate(473.27087 870.246962) scale(0.15 -0.15)">
      <defs>
       <path id="DejaVuSans-37" d="M 525 4666 
L 3525 4666 
L 3525 4397 
L 1831 0 
L 1172 0 
L 2766 4134 
L 525 4134 
L 525 4666 
z
" transform="scale(0.015625)"/>
      </defs>
      <use xlink:href="#DejaVuSans-37"/>
     </g>
    </g>
   </g>
   <g id="text_10">
    <g clip-path="url(#p36b6ae44f7)">
     <!-- 8 -->
     <g transform="translate(954.962552 737.847042) scale(0.15 -0.15)">
      <use xlink:href="#DejaVuSans-38"/>
     </g>
    </g>
   </g>
   <g id="text_11">
    <g clip-path="url(#p36b6ae44f7)">
     <!-- 9 -->
     <g transform="translate(537.874213 711.510441) scale(0.15 -0.15)">
      <defs>
       <path id="DejaVuSans-39" d="M 703 97 
L 703 672 
Q 941 559 1184 500 
Q 1428 441 1663 441 
Q 2288 441 2617 861 
Q 2947 1281 2994 2138 
Q 2813 1869 2534 1725 
Q 2256 1581 1919 1581 
Q 1219 1581 811 2004 
Q 403 2428 403 3163 
Q 403 3881 828 4315 
Q 1253 4750 1959 4750 
Q 2769 4750 3195 4129 
Q 3622 3509 3622 2328 
Q 3622 1225 3098 567 
Q 2575 -91 1691 -91 
Q 1453 -91 1209 -44 
Q 966 3 703 97 
z
M 1959 2075 
Q 2384 2075 2632 2365 
Q 2881 2656 2881 3163 
Q 2881 3666 2632 3958 
Q 2384 4250 1959 4250 
Q 1534 4250 1286 3958 
Q 1038 3666 1038 3163 
Q 1038 2656 1286 2365 
Q 1534 2075 1959 2075 
z
" transform="scale(0.015625)"/>
      </defs>
      <use xlink:href="#DejaVuSans-39"/>
     </g>
    </g>
   </g>
   <g id="text_12">
    <g clip-path="url(#p36b6ae44f7)">
     <!-- 10 -->
     <g transform="translate(792.065088 423.224841) scale(0.15 -0.15)">
      <use xlink:href="#DejaVuSans-31"/>
      <use xlink:href="#DejaVuSans-30" x="63.623047"/>
     </g>
    </g>
   </g>
   <g id="text_13">
    <g clip-path="url(#p36b6ae44f7)">
     <!-- 11 -->
     <g transform="translate(666.583247 889.896336) scale(0.15 -0.15)">
      <use xlink:href="#DejaVuSans-31"/>
      <use xlink:href="#DejaVuSans-31" x="63.623047"/>
     </g>
    </g>
   </g>
   <g id="text_14">
    <g clip-path="url(#p36b6ae44f7)">
     <!-- 12 -->
     <g transform="translate(1124.657374 849.379593) scale(0.15 -0.15)">
      <use xlink:href="#DejaVuSans-31"/>
      <use xlink:href="#DejaVuSans-32" x="63.623047"/>
     </g>
    </g>
   </g>
   <g id="text_15">
    <g clip-path="url(#p36b6ae44f7)">
     <!-- 13 -->
     <g transform="translate(1173.99344 657.275155) scale(0.15 -0.15)">
      <use xlink:href="#DejaVuSans-31"/>
      <use xlink:href="#DejaVuSans-33" x="63.623047"/>
     </g>
    </g>
   </g>
   <g id="text_16">
    <g clip-path="url(#p36b6ae44f7)">
     <!-- 14 -->
     <g transform="translate(102.91906 590.473249) scale(0.15 -0.15)">
      <use xlink:href="#DejaVuSans-31"/>
      <use xlink:href="#DejaVuSans-34" x="63.623047"/>
     </g>
    </g>
   </g>
   <g id="text_17">
    <g clip-path="url(#p36b6ae44f7)">
     <!-- 15 -->
     <g transform="translate(830.8893 149.756038) scale(0.15 -0.15)">
      <use xlink:href="#DejaVuSans-31"/>
      <use xlink:href="#DejaVuSans-35" x="63.623047"/>
     </g>
    </g>
   </g>
   <g id="text_18">
    <g clip-path="url(#p36b6ae44f7)">
     <!-- 16 -->
     <g transform="translate(636.714468 104.106005) scale(0.15 -0.15)">
      <use xlink:href="#DejaVuSans-31"/>
      <use xlink:href="#DejaVuSans-36" x="63.623047"/>
     </g>
    </g>
   </g>
   <g id="text_19">
    <g clip-path="url(#p36b6ae44f7)">
     <!-- 17 -->
     <g transform="translate(385.42434 1056.17212) scale(0.15 -0.15)">
      <use xlink:href="#DejaVuSans-31"/>
      <use xlink:href="#DejaVuSans-37" x="63.623047"/>
     </g>
    </g>
   </g>
  </g>
 </g>
 <defs>
  <clipPath id="p36b6ae44f7">
   <rect x="0" y="0" width="1296" height="1152"/>
  </clipPath>
 </defs>
</svg>

nk:href="#DejaVuSans-37" x="63.623047"/>
     </g>
    </g>
   </g>
  </g>
 </g>
 <defs>
  <clipPath id="pf996e920b2">
   <rect x="0" y="0" width="1296" height="1152"/>
  </clipPath>
 </defs>
</svg>
/clipPath>
 </defs>
</svg>

