<?xml version="1.0" encoding="utf-8" standalone="no"?>
<!DOCTYPE svg PUBLIC "-//W3C//DTD SVG 1.1//EN"
  "http://www.w3.org/Graphics/SVG/1.1/DTD/svg11.dtd">
<svg xmlns:xlink="http://www.w3.org/1999/xlink" width="576pt" height="432pt" viewBox="0 0 576 432" xmlns="http://www.w3.org/2000/svg" version="1.1">
 <metadata>
  <rdf:RDF xmlns:dc="http://purl.org/dc/elements/1.1/" xmlns:cc="http://creativecommons.org/ns#" xmlns:rdf="http://www.w3.org/1999/02/22-rdf-syntax-ns#">
   <cc:Work>
    <dc:type rdf:resource="http://purl.org/dc/dcmitype/StillImage"/>
    <dc:date>2025-02-12T21:05:33.790448</dc:date>
    <dc:format>image/svg+xml</dc:format>
    <dc:creator>
     <cc:Agent>
      <dc:title>Matplotlib v3.9.1, https://matplotlib.org/</dc:title>
     </cc:Agent>
    </dc:creator>
   </cc:Work>
  </rdf:RDF>
 </metadata>
 <defs>
  <style type="text/css">*{stroke-linejoin: round; stroke-linecap: butt}</style>
 </defs>
 <g id="figure_1">
  <g id="patch_1">
   <path d="M 0 432 
L 576 432 
L 576 0 
L 0 0 
z
" style="fill: #ffffff"/>
  </g>
  <g id="axes_1">
   <g id="patch_2">
    <path d="M 397.276411 362.123785 
Q 318.313847 346.617316 239.351283 331.110847 
" clip-path="url(#p1e19d22e65)" style="fill: none; stroke: #808080; stroke-linecap: round"/>
   </g>
   <g id="patch_3">
    <path d="M 414.250369 349.42654 
Q 420.716683 279.659224 427.182997 209.891909 
" clip-path="url(#p1e19d22e65)" style="fill: none; stroke: #808080; stroke-linecap: round"/>
   </g>
   <g id="patch_4">
    <path d="M 403.749595 352.199277 
Q 368.794949 302.052435 333.840302 251.905593 
" clip-path="url(#p1e19d22e65)" style="fill: none; stroke: #808080; stroke-linecap: round"/>
   </g>
   <g id="patch_5">
    <path d="M 403.749595 352.199277 
Q 368.794949 302.052435 333.840302 251.905593 
" clip-path="url(#p1e19d22e65)" style="fill: none; stroke: #808080; stroke-linecap: round"/>
   </g>
   <g id="patch_6">
    <path d="M 422.146167 352.420309 
Q 442.734392 324.360016 463.322616 296.299724 
" clip-path="url(#p1e19d22e65)" style="fill: none; stroke: #808080; stroke-linecap: round"/>
   </g>
   <g id="patch_7">
    <path d="M 400.952806 354.691111 
Q 384.090512 339.764443 367.228217 324.837775 
" clip-path="url(#p1e19d22e65)" style="fill: none; stroke: #808080; stroke-linecap: round"/>
   </g>
   <g id="patch_8">
    <path d="M 428.094961 369.136447 
Q 469.404128 379.841538 510.713296 390.54663 
" clip-path="url(#p1e19d22e65)" style="fill: none; stroke: #808080; stroke-linecap: round"/>
   </g>
   <g id="patch_9">
    <path d="M 237.069673 319.409786 
Q 326.239494 261.10373 415.409314 202.797673 
" clip-path="url(#p1e19d22e65)" style="fill: none; stroke: #808080; stroke-linecap: round"/>
   </g>
   <g id="patch_10">
    <path d="M 235.687965 317.599698 
Q 274.315894 283.498676 312.943823 249.397654 
" clip-path="url(#p1e19d22e65)" style="fill: none; stroke: #808080; stroke-linecap: round"/>
   </g>
   <g id="patch_11">
    <path d="M 235.687965 317.599698 
Q 274.315894 283.498676 312.943823 249.397654 
" clip-path="url(#p1e19d22e65)" style="fill: none; stroke: #808080; stroke-linecap: round"/>
   </g>
   <g id="patch_12">
    <path d="M 224.770568 312.279176 
Q 226.099383 289.86465 227.428198 267.450124 
" clip-path="url(#p1e19d22e65)" style="fill: none; stroke: #808080; stroke-linecap: round"/>
   </g>
   <g id="patch_13">
    <path d="M 214.971612 314.970508 
Q 189.626648 277.529358 164.281685 240.088207 
" clip-path="url(#p1e19d22e65)" style="fill: none; stroke: #808080; stroke-linecap: round"/>
   </g>
   <g id="patch_14">
    <path d="M 208.103723 329.662189 
Q 155.231728 335.034494 102.359732 340.406799 
" clip-path="url(#p1e19d22e65)" style="fill: none; stroke: #808080; stroke-linecap: round"/>
   </g>
   <g id="patch_15">
    <path d="M 208.960771 322.703899 
Q 136.91084 296.740686 64.860909 270.777473 
" clip-path="url(#p1e19d22e65)" style="fill: none; stroke: #808080; stroke-linecap: round"/>
   </g>
   <g id="patch_16">
    <path d="M 414.124899 200.406226 
Q 376.719429 216.539161 339.313959 232.672095 
" clip-path="url(#p1e19d22e65)" style="fill: none; stroke: #808080; stroke-linecap: round"/>
   </g>
   <g id="patch_17">
    <path d="M 414.124899 200.406226 
Q 376.719429 216.539161 339.313959 232.672095 
" clip-path="url(#p1e19d22e65)" style="fill: none; stroke: #808080; stroke-linecap: round"/>
   </g>
   <g id="patch_18">
    <path d="M 422.823978 179.439467 
Q 417.203062 165.233553 411.582147 151.027639 
" clip-path="url(#p1e19d22e65)" style="fill: none; stroke: #808080; stroke-linecap: round"/>
   </g>
   <g id="patch_19">
    <path d="M 414.669483 186.737219 
Q 367.639883 161.805192 320.610282 136.873165 
" clip-path="url(#p1e19d22e65)" style="fill: none; stroke: #808080; stroke-linecap: round"/>
   </g>
   <g id="patch_20">
    <path d="M 435.583409 179.942389 
Q 459.105846 131.811019 482.628283 83.67965 
" clip-path="url(#p1e19d22e65)" style="fill: none; stroke: #808080; stroke-linecap: round"/>
   </g>
   <g id="patch_21">
    <path d="M 423.97206 179.03987 
Q 404.423553 115.816963 384.875046 52.594057 
" clip-path="url(#p1e19d22e65)" style="fill: none; stroke: #808080; stroke-linecap: round"/>
   </g>
   <g id="patch_22">
    <path d="M 339.938377 243.501427 
Q 398.737742 261.243462 457.537108 278.985497 
" clip-path="url(#p1e19d22e65)" style="fill: none; stroke: #808080; stroke-linecap: round"/>
   </g>
   <g id="patch_23">
    <path d="M 339.938377 243.501427 
Q 398.737742 261.243462 457.537108 278.985497 
" clip-path="url(#p1e19d22e65)" style="fill: none; stroke: #808080; stroke-linecap: round"/>
   </g>
   <g id="patch_24">
    <path d="M 309.120807 241.002505 
Q 276.582018 245.298103 244.043229 249.593701 
" clip-path="url(#p1e19d22e65)" style="fill: none; stroke: #808080; stroke-linecap: round"/>
   </g>
   <g id="patch_25">
    <path d="M 309.120807 241.002505 
Q 276.582018 245.298103 244.043229 249.593701 
" clip-path="url(#p1e19d22e65)" style="fill: none; stroke: #808080; stroke-linecap: round"/>
   </g>
   <g id="patch_26">
    <path d="M 334.590022 226.523481 
Q 365.280524 187.630366 395.971025 148.737251 
" clip-path="url(#p1e19d22e65)" style="fill: none; stroke: #808080; stroke-linecap: round"/>
   </g>
   <g id="patch_27">
    <path d="M 334.590022 226.523481 
Q 365.280524 187.630366 395.971025 148.737251 
" clip-path="url(#p1e19d22e65)" style="fill: none; stroke: #808080; stroke-linecap: round"/>
   </g>
   <g id="patch_28">
    <path d="M 330.741002 253.586159 
Q 340.093339 276.644599 349.445677 299.703038 
" clip-path="url(#p1e19d22e65)" style="fill: none; stroke: #808080; stroke-linecap: round"/>
   </g>
   <g id="patch_29">
    <path d="M 330.741002 253.586159 
Q 340.093339 276.644599 349.445677 299.703038 
" clip-path="url(#p1e19d22e65)" style="fill: none; stroke: #808080; stroke-linecap: round"/>
   </g>
   <g id="patch_30">
    <path d="M 309.024374 237.821145 
Q 240.108269 232.963655 171.192165 228.106165 
" clip-path="url(#p1e19d22e65)" style="fill: none; stroke: #808080; stroke-linecap: round"/>
   </g>
   <g id="patch_31">
    <path d="M 309.024374 237.821145 
Q 240.108269 232.963655 171.192165 228.106165 
" clip-path="url(#p1e19d22e65)" style="fill: none; stroke: #808080; stroke-linecap: round"/>
   </g>
   <g id="patch_32">
    <path d="M 322.210803 223.33565 
Q 315.719925 184.200775 309.229047 145.0659 
" clip-path="url(#p1e19d22e65)" style="fill: none; stroke: #808080; stroke-linecap: round"/>
   </g>
   <g id="patch_33">
    <path d="M 322.210803 223.33565 
Q 315.719925 184.200775 309.229047 145.0659 
" clip-path="url(#p1e19d22e65)" style="fill: none; stroke: #808080; stroke-linecap: round"/>
   </g>
   <g id="patch_34">
    <path d="M 337.303308 248.602034 
Q 425.407008 316.722554 513.510707 384.843074 
" clip-path="url(#p1e19d22e65)" style="fill: none; stroke: #808080; stroke-linecap: round"/>
   </g>
   <g id="patch_35">
    <path d="M 310.286626 245.21293 
Q 205.712378 290.469762 101.13813 335.726594 
" clip-path="url(#p1e19d22e65)" style="fill: none; stroke: #808080; stroke-linecap: round"/>
   </g>
   <g id="patch_36">
    <path d="M 309.060173 240.449526 
Q 187.39066 252.174646 65.721147 26 clip-path="url(#p9bfd0369ef)" style="fill: none; stroke: #808080; stroke-linecap: round"/>
   </g>
   <g id="patch_37">
    <path d="M 334.925576 198.973803 
Q 423.250033 159.592624 511.57449 120.211446 
" clip-path="url(#p9bfd0369ef)" style="fill: none; stroke: #808080; stroke-linecap: round"/>
   </g>
   <g id="patch_38">
    <path d="M 332.259889 194.861425 
Q 402.956045 131.517751 473.652201 68.174077 
" clip-path="url(#p9bfd0369ef)" style="fill: none; stroke: #808080; stroke-linecap: round"/>
   </g>
   <g id="patch_39">
    <path d="M 166.722039 174.736985 
Q 221.535428 223.228011 276.348817 271.719036 
" clip-path="url(#p9bfd0369ef)" style="fill: none; stroke: #808080; stroke-linecap: round"/>
   </g>
   <g id="patch_40">
    <path d="M 169.955622 159.484886 
Q 241.955387 136.668906 313.955153 113.852927 
" clip-path="url(#p9bfd0369ef)" style="fill: none; stroke: #808080; stroke-linecap: round"/>
   </g>
   <g id="patch_41">
    <path d="M 159.406924 179.410533 
Q 170.708215 217.238041 182.009507 255.065549 
" clip-path="url(#p9bfd0369ef)" style="fill: none; stroke: #808080; stroke-linecap: round"/>
   </g>
   <g id="patch_42">
    <path d="M 141.061445 171.94788 
Q 102.430854 193.432921 63.800262 214.917962 
" clip-path="url(#p9bfd0369ef)" style="fill: none; stroke: #808080; stroke-linecap: round"/>
   </g>
   <g id="patch_43">
    <path d="M 291.821992 266.809469 
Q 308.608982 195.637891 325.395973 124.466312 
" clip-path="url(#p9bfd0369ef)" style="fill: none; stroke: #808080; stroke-linecap: round"/>
   </g>
   <g id="patch_44">
    <path d="M 297.989786 294.602152 
Q 310.065986 309.893352 322.142186 325.184552 
" clip-path="url(#p9bfd0369ef)" style="fill: none; stroke: #808080; stroke-linecap: round"/>
   </g>
   <g id="patch_45">
    <path d="M 299.706442 293.036547 
Q 347.844475 338.356625 395.982508 383.676703 
" clip-path="url(#p9bfd0369ef)" style="fill: none; stroke: #808080; stroke-linecap: round"/>
   </g>
   <g id="patch_46">
    <path d="M 340.932674 119.484364 
Q 373.966488 148.357297 407.000302 177.230229 
" clip-path="url(#p9bfd0369ef)" style="fill: none; stroke: #808080; stroke-linecap: round"/>
   </g>
   <g id="patch_47">
    <path d="M 340.429722 98.120734 
Q 366.282733 73.282207 392.135745 48.443681 
" clip-path="url(#p9bfd0369ef)" style="fill: none; stroke: #808080; stroke-linecap: round"/>
   </g>
   <g id="patch_48">
    <path d="M 344.833463 109.453965 
Q 427.522289 111.424724 510.211115 113.395484 
" clip-path="url(#p9bfd0369ef)" style="fill: none; stroke: #808080; stroke-linecap: round"/>
   </g>
   <g id="patch_49">
    <path d="M 344.044167 104.136286 
Q 407.226918 83.349725 470.409669 62.563164 
" clip-path="url(#p9bfd0369ef)" style="fill: none; stroke: #808080; stroke-linecap: round"/>
   </g>
   <g id="patch_50">
    <path d="M 200.881927 276.863126 
Q 259.238611 303.90426 317.595296 330.945393 
" clip-path="url(#p9bfd0369ef)" style="fill: none; stroke: #808080; stroke-linecap: round"/>
   </g>
   <g id="patch_51">
    <path d="M 201.431039 264.921845 
Q 302.719935 228.925606 404.008831 192.929367 
" clip-path="url(#p9bfd0369ef)" style="fill: none; stroke: #808080; stroke-linecap: round"/>
   </g>
   <g id="patch_52">
    <path d="M 171.604426 265.009177 
Q 118.259785 246.408975 64.915145 227.808773 
" clip-path="url(#p9bfd0369ef)" style="fill: none; stroke: #808080; stroke-linecap: round"/>
   </g>
   <g id="patch_53">
    <path d="M 339.873179 323.916899 
Q 375.422825 262.615642 410.972471 201.314386 
" clip-path="url(#p9bfd0369ef)" style="fill: none; stroke: #808080; stroke-linecap: round"/>
   </g>
   <g id="patch_54">
    <path d="M 344.569771 347.107045 
Q 369.715217 366.051536 394.860663 384.996027 
" clip-path="url(#p9bfd0369ef)" style="fill: none; stroke: #808080; stroke-linecap: round"/>
   </g>
   <g id="patch_55">
    <path d="M 417.295262 171.904985 
Q 411.222247 112.562058 405.149232 53.21913 
" clip-path="url(#p9bfd0369ef)" style="fill: none; stroke: #808080; stroke-linecap: round"/>
   </g>
   <g id="patch_56">
    <path d="M 431.924645 178.657308 
Q 472.462431 150.702725 513.000217 122.748142 
" clip-path="url(#p9bfd0369ef)" style="fill: none; stroke: #808080; stroke-linecap: round"/>
   </g>
   <g id="patch_57">
    <path d="M 426.106051 173.56207 
Q 452.165857 122.631242 478.225663 71.700414 
" clip-path="url(#p9bfd0369ef)" style="fill: none; stroke: #808080; stroke-linecap: round"/>
   </g>
   <g id="patch_58">
    <path d="M 416.961415 45.847525 
Q 464.777862 75.629858 512.59431 105.412192 
" clip-path="url(#p9bfd0369ef)" style="fill: none; stroke: #808080; stroke-linecap: round"/>
   </g>
   <g id="patch_59">
    <path d="M 418.891169 41.262162 
Q 444.482581 47.554314 470.073992 53.846467 
" clip-path="url(#p9bfd0369ef)" style="fill: none; stroke: #808080; stroke-linecap: round"/>
   </g>
   <g id="patch_60">
    <path d="M 516.754087 100.958091 
Q 505.723284 85.697569 494.692481 70.437047 
" clip-path="url(#p9bfd0369ef)" style="fill: none; stroke: #808080; stroke-linecap: round"/>
   </g>
   <g id="PathCollection_1">
    <defs>
     <path id="mfd20af7a71" d="M 0 15.811388 
C 4.193229 15.811388 8.215279 14.145401 11.18034 11.18034 
C 14.145401 8.215279 15.811388 4.193229 15.811388 0 
C 15.811388 -4.193229 14.145401 -8.215279 11.18034 -11.18034 
C 8.215279 -14.145401 4.193229 -15.811388 0 -15.811388 
C -4.193229 -15.811388 -8.215279 -14.145401 -11.18034 -11.18034 
C -14.145401 -8.215279 -15.811388 -4.193229 -15.811388 0 
C -15.811388 4.193229 -14.145401 8.215279 -11.18034 11.18034 
C -8.215279 14.145401 -4.193229 15.811388 0 15.811388 
z
" style="stroke: #add8e6"/>
    </defs>
    <g clip-path="url(#p9bfd0369ef)">
     <use xlink:href="#mfd20af7a71" x="217.333621" y="201.841101" style="fill: #add8e6; stroke: #add8e6"/>
     <use xlink:href="#mfd20af7a71" x="412.679537" y="284.197234" style="fill: #add8e6; stroke: #add8e6"/>
     <use xlink:href="#mfd20af7a71" x="413.053025" y="135.464217" style="fill: #add8e6; stroke: #add8e6"/>
     <use xlink:href="#mfd20af7a71" x="320.483439" y="205.413111" style="fill: #add8e6; stroke: #add8e6"/>
     <use xlink:href="#mfd20af7a71" x="154.881121" y="164.261839" style="fill: #add8e6; stroke: #add8e6"/>
     <use xlink:href="#mfd20af7a71" x="288.192646" y="282.196758" style="fill: #add8e6; stroke: #add8e6"/>
     <use xlink:href="#mfd20af7a71" x="329.025746" y="109.077212" style="fill: #add8e6; stroke: #add8e6"/>
     <use xlink:href="#mfd20af7a71" x="186.535653" y="270.215396" style="fill: #add8e6; stroke: #add8e6"/>
     <use xlink:href="#mfd20af7a71" x="331.941989" y="337.593318" style="fill: #add8e6; stroke: #add8e6"/>
     <use xlink:href="#mfd20af7a71" x="418.905087" y="187.635508" style="fill: #add8e6; stroke: #add8e6"/>
     <use xlink:href="#mfd20af7a71" x="49.983471" y="222.602398" style="fill: #add8e6; stroke: #add8e6"/>
     <use xlink:href="#mfd20af7a71" x="407.491953" y="394.512397" style="fill: #add8e6; stroke: #add8e6"/>
     <use xlink:href="#mfd20af7a71" x="403.539304" y="37.487603" style="fill: #add8e6; stroke: #add8e6"/>
     <use xlink:href="#mfd20af7a71" x="526.016529" y="113.772181" style="fill: #add8e6; stroke: #add8e6"/>
     <use xlink:href="#mfd20af7a71" x="485.429245" y="57.621858" style="fill: #add8e6; stroke: #add8e6"/>
    </g>
   </g>
   <g id="text_1">
    <g clip-path="url(#p9bfd0369ef)">
     <!-- 0 -->
     <g transform="translate(212.561746 205.980164) scale(0.15 -0.15)">
      <defs>
       <path id="DejaVuSans-30" d="M 2034 4250 
Q 1547 4250 1301 3770 
Q 1056 3291 1056 2328 
Q 1056 1369 1301 889 
Q 1547 409 2034 409 
Q 2525 409 2770 889 
Q 3016 1369 3016 2328 
Q 3016 3291 2770 3770 
Q 2525 4250 2034 4250 
z
M 2034 4750 
Q 2819 4750 3233 4129 
Q 3647 3509 3647 2328 
Q 3647 1150 3233 529 
Q 2819 -91 2034 -91 
Q 1250 -91 836 529 
Q 422 1150 422 2328 
Q 422 3509 836 4129 
Q 1250 4750 2034 4750 
z
" transform="scale(0.015625)"/>
      </defs>
      <use xlink:href="#DejaVuSans-30"/>
     </g>
    </g>
   </g>
   <g id="text_2">
    <g clip-path="url(#p9bfd0369ef)">
     <!-- 1 -->
     <g transform="translate(407.907662 288.336296) scale(0.15 -0.15)">
      <defs>
       <path id="Deja xlink:hre d="M 794 531 
L 1825 531 
L 1825 4091 
L 703 3866 
L 703 4441 
L 1819 4666 
L 2450 4666 
L 2450 531 
L 3481 531 
L 3481 0 
L 794 0 
L 794 531 
z
" transform="scale(0.015625)"/>
      </defs>
      <use xlink:href="#DejaVuSans-31"/>
     </g>
    </g>
   </g>
   <g id="text_3">
    <g clip-path="url(#p9bfd0369ef)">
     <!-- 2 -->
     <g transform="translate(408.28115 139.60328) scale(0.15 -0.15)">
      <defs>
       <path id="DejaVuSans-32" d="M 1228 531 
L 3431 531 
L 3431 0 
L 469 0 
L 469 531 
Q 828 903 1448 1529 
Q 2069 2156 2228 2338 
Q 2531 2678 2651 2914 
Q 2772 3150 2772 3378 
Q 2772 3750 2511 3984 
Q 2250 4219 1831 4219 
Q 1534 4219 1204 4116 
Q 875 4013 500 3803 
L 500 4441 
Q 881 4594 1212 4672 
Q 1544 4750 1819 4750 
Q 2544 4750 2975 4387 
Q 3406 4025 3406 3419 
Q 3406 3131 3298 2873 
Q 3191 2616 2906 2266 
Q 2828 2175 2409 1742 
Q 1991 1309 1228 531 
z
" transform="scale(0.015625)"/>
      </defs>
      <use xlink:href="#DejaVuSans-32"/>
     </g>
    </g>
   </g>
   <g id="text_4">
    <g clip-path="url(#p9bfd0369ef)">
     <!-- 14 -->
     <g transform="translate(310.939689 209.552174) scale(0.15 -0.15)">
      <defs>
       <path id="DejaVuSans-34" d="M 2419 4116 
L 825 1625 
L 2419 1625 
L 2419 4116 
z
M 2253 4666 
L 3047 4666 
L 3047 1625 
L 3713 1625 
L 3713 1100 
L 3047 1100 
L 3047 0 
L 2419 0 
L 2419 1100 
L 313 1100 
L 313 1709 
L 2253 4666 
z
" transform="scale(0.015625)"/>
      </defs>
      <use xlink:href="#DejaVuSans-31"/>
      <use xlink:href="#DejaVuSans-34" x="63.623047"/>
     </g>
    </g>
   </g>
   <g id="text_5">
    <g clip-path="url(#p9bfd0369ef)">
     <!-- 3 -->
     <g transform="translate(150.109246 168.400901) scale(0.15 -0.15)">
      <defs>
       <path id="DejaVuSans-33" d="M 2597 2516 
Q 3050 2419 3304 2112 
Q 3559 1806 3559 1356 
Q 3559 666 3084 287 
Q 2609 -91 1734 -91 
Q 1441 -91 1130 -33 
Q 819 25 488 141 
L 488 750 
Q 750 597 1062 519 
Q 1375 441 1716 441 
Q 2309 441 2620 675 
Q 2931 909 2931 1356 
Q 2931 1769 2642 2001 
Q 2353 2234 1838 2234 
L 1294 2234 
L 1294 2753 
L 1863 2753 
Q 2328 2753 2575 2939 
Q 2822 3125 2822 3475 
Q 2822 3834 2567 4026 
Q 2313 4219 1838 4219 
Q 1578 4219 1281 4162 
Q 984 4106 628 3988 
L 628 4550 
Q 988 4650 1302 4700 
Q 1616 4750 1894 4750 
Q 2613 4750 3031 4423 
Q 3450 4097 3450 3541 
Q 3450 3153 3228 2886 
Q 3006 2619 2597 2516 
z
" transform="scale(0.015625)"/>
      </defs>
      <use xlink:href="#DejaVuSans-33"/>
     </g>
    </g>
   </g>
   <g id="text_6">
    <g clip-path="url(#p9bfd0369ef)">
     <!-- 4 -->
     <g transform="translate(283.420771 286.33582) scale(0.15 -0.15)">
      <use xlink:href="#DejaVuSans-34"/>
     </g>
    </g>
   </g>
   <g id="text_7">
    <g clip-path="url(#p9bfd0369ef)">
     <!-- 5 -->
     <g transform="translate(324.253871 113.216275) scale(0.15 -0.15)">
      <defs>
       <path id="DejaVuSans-35" d="M 691 4666 
L 3169 4666 
L 3169 4134 
L 1269 4134 
L 1269 2991 
Q 1406 3038 1543 3061 
Q 1681 3084 1819 3084 
Q 2600 3084 3056 2656 
Q 3513 2228 3513 1497 
Q 3513 744 3044 326 
Q 2575 -91 1722 -91 
Q 1428 -91 1123 -41 
Q 819 9 494 109 
L 494 744 
Q 775 591 1075 516 
Q 1375 441 1709 441 
Q 2250 441 2565 725 
Q 2881 1009 2881 1497 
Q 2881 1984 2565 2268 
Q 2250 2553 1709 2553 
Q 1456 2553 1204 2497 
Q 953 2441 691 2322 
L 691 4666 
z
" transform="scale(0.015625)"/>
      </defs>
      <use xlink:href="#DejaVuSans-35"/>
     </g>
    </g>
   </g>
   <g id="text_8">
    <g clip-path="url(#p9bfd0369ef)">
     <!-- 6 -->
     <g transform="translate(181.763778 274.354458) scale(0.15 -0.15)">
      <defs>
       <path id="DejaVuSans-36" d="M 2113 2584 
Q 1688 2584 1439 2293 
Q 1191 2003 1191 1497 
Q 1191 994 1439 701 
Q 1688 409 2113 409 
Q 2538 409 2786 701 
Q 3034 994 3034 1497 
Q 3034 2003 2786 2293 
Q 2538 2584 2113 2584 
z
M 3366 4563 
L 3366 3988 
Q 3128 4100 2886 4159 
Q 2644 4219 2406 4219 
Q 1781 4219 1451 3797 
Q 1122 3375 1075 2522 
Q 1259 2794 1537 2939 
Q 1816 3084 2150 3084 
Q 2853 3084 3261 2657 
Q 3669 2231 3669 1497 
Q 3669 778 3244 343 
Q 2819 -91 2113 -91 
Q 1303 -91 875 529 
Q 447 1150 447 2328 
Q 447 3434 972 4092 
Q 1497 4750 2381 4750 
Q 2619 4750 2861 4703 
Q 3103 4656 3366 4563 
z
" transform="scale(0.015625)"/>
      </defs>
      <use xlink:href="#DejaVuSans-36"/>
     </g>
    </g>
   </g>
   <g id="text_9">
    <g clip-path="url(#p9bfd0369ef)">
     <!-- 7 -->
     <g transform="translate(327.170114 341.732381) scale(0.15 -0.15)">
      <defs>
       <path id="DejaVuSans-37" d="M 525 4666 
L 3525 4666 
L 3525 4397 
L 1831 0 
L 1172 0 
L 2766 4134 
L 525 4134 
L 525 4666 
z
" transform="scale(0.015625)"/>
      </defs>
      <use xlink:href="#DejaVuSans-37"/>
     </g>
    </g>
   </g>
   <g id="text_10">
    <g clip-path="url(#p9bfd0369ef)">
     <!-- 8 -->
     <g transform="translate(414.133212 191.77457) scale(0.15 -0.15)">
      <defs>
       <path id="DejaVuSans-38" d="M 2034 2216 
Q 1584 2216 1326 1975 
Q 1069 1734 1069 1313 
Q 1069 891 1326 650 
Q 1584 409 2034 409 
Q 2484 409 2743 651 
Q 3003 894 3003 1313 
Q 3003 1734 2745 1975 
Q 2488 2216 2034 2216 
z
M 1403 2484 
Q 997 2584 770 2862 
Q 544 3141 544 3541 
Q 544 4100 942 4425 
Q 1341 4750 2034 4750 
Q 2731 4750 3128 4425 
Q 3525 4100 3525 3541 
Q 3525 3141 3298 2862 
Q 3072 2584 2669 2484 
Q 3125 2378 3379 2068 
Q 3634 1759 3634 1313 
Q 3634 634 3220 271 
Q 2806 -91 2034 -91 
Q 1263 -91 848 271 
Q 434 634 434 1313 
Q 434 1759 690 2068 
Q 947 2378 1403 2484 
z
M 1172 3481 
Q 1172 3119 1398 2916 
Q 1625 2713 2034 2713 
Q 2441 2713 2670 2916 
Q 2900 3119 2900 3481 
Q 2900 3844 2670 4047 
Q 2441 4250 2034 4250 
Q 1625 4250 1398 4047 
Q 1172 3844 1172 3481 
z
" transform="scale(0.015625)"/>
      </defs>
      <use xlink:href="#DejaVuSans-38"/>
     </g>
    </g>
   </g>
   <g id="text_11">
    <g clip-path="url(#p9bfd0369ef)">
     <!-- 9 -->
     <g transform="translate(45.211596 226.741461) scale(0.15 -0.15)">
      <defs>
       <path id="DejaVuSans-39" d="M 703 97 
L 703 672 
Q 941 559 1184 500 
Q 1428 441 1663 441 
Q 2288 441 2617 861 
Q 2947 1281 2994 2138 
Q 2813 1869 2534 1725 
Q 2256 1581 1919 1581 
Q 1219 1581 811 2004 
Q 403 2428 403 3163 
Q 403 3881 828 4315 
Q 1253 4750 1959 4750 
Q 2769 4750 3195 4129 
Q 3622 3509 3622 2328 
Q 3622 1225 3098 567 
Q 2575 -91 1691 -91 
Q 1453 -91 1209 -44 
Q 966 3 703 97 
z
M 1959 2075 
Q 2384 2075 2632 2365 
Q 2881 2656 2881 3163 
Q 2881 3666 2632 3958 
Q 2384 4250 1959 4250 
Q 1534 4250 1286 3958 
Q 1038 3666 1038 3163 
Q 1038 2656 1286 2365 
Q 1534 2075 1959 2075 
z
" transform="scale(0.015625)"/>
      </defs>
      <use xlink:href="#DejaVuSans-39"/>
     </g>
    </g>
   </g>
   <g id="text_12">
    <g clip-path="url(#p9bfd0369ef)">
     <!-- 10 -->
     <g transform="translate(397.948203 398.651459) scale(0.15 -0.15)">
      <use xlink:href="#DejaVuSans-31"/>
      <use xlink:href="#DejaVuSans-30" x="63.623047"/>
     </g>
    </g>
   </g>
   <g id="text_13">
    <g clip-path="url(#p9bfd0369ef)">
     <!-- 11 -->
     <g transform="translate(393.995554 41.626666) scale(0.15 -0.15)">
      <use xlink:href="#DejaVuSans-31"/>
      <use xlink:href="#DejaVuSans-31" x="63.623047"/>
     </g>
    </g>
   </g>
   <g id="text_14">
    <g clip-path="url(#p9bfd0369ef)">
     <!-- 12 -->
     <g transform="translate(516.472779 117.911244) scale(0.15 -0.15)">
      <use xlink:href="#DejaVuSans-31"/>
      <use xlink:href="#DejaVuSans-32" x="63.623047"/>
     </g>
    </g>
   </g>
   <g id="text_15">
    <g clip-path="url(#p9bfd0369ef)">
     <!-- 13 -->
     <g transform="translate(475.885495 61.760921) scale(0.15 -0.15)">
      <use xlink:href="#DejaVuSans-31"/>
      <use xlink:href="#DejaVuSans-33" x="63.623047"/>
     </g>
    </g>
   </g>
  </g>
 </g>
 <defs>
  <clipPath id="p9bfd0369ef">
   <rect x="0" y="0" width="576" height="432"/>
  </clipPath>
 </defs>
</svg>
