<?xml version="1.0" encoding="utf-8" standalone="no"?>
<!DOCTYPE svg PUBLIC "-//W3C//DTD SVG 1.1//EN"
  "http://www.w3.org/Graphics/SVG/1.1/DTD/svg11.dtd">
<svg xmlns:xlink="http://www.w3.org/1999/xlink" width="1296pt" height="1152pt" viewBox="0 0 1296 1152" xmlns="http://www.w3.org/2000/svg" version="1.1">
 <metadata>
  <rdf:RDF xmlns:dc="http://purl.org/dc/elements/1.1/" xmlns:cc="http://creativecommons.org/ns#" xmlns:rdf="http://www.w3.org/1999/02/22-rdf-syntax-ns#">
   <cc:Work>
    <dc:type rdf:resource="http://purl.org/dc/dcmitype/StillImage"/>
    <dc:date>2025-02-13T10:46:54.176411</dc:date>
    <dc:format>image/svg+xml</dc:format>
    <dc:creator>
     <cc:Agent>
      <dc:title>Matplotlib v3.9.1, https://matplotlib.org/</dc:title>
     </cc:Agent>
    </dc:creator>
   </cc:Work>
  </rdf:RDF>
 </metadata>
 <defs>
  <style type="text/css">*{stroke-linejoin: round; stroke-linecap: butt}</style>
 </defs>
 <g id="figure_1">
  <g id="patch_1">
   <path d="M 0 1152 
L 1296 1152 
L 1296 0 
L 0 0 
z
" style="fill: #ffffff"/>
  </g>
  <g id="axes_1">
   <g id="patch_2">
    <path d="M 780.953684 820.182918 
Q 623.328142 804.028567 465.702599 787.874216 
" clip-path="url(#p27fe4de276)" style="fill: none; stroke: #000000; stroke-linecap: round"/>
   </g>
   <g id="patch_3">
    <path d="M 780.953684 820.182918 
Q 623.328142 804.028567 465.702599 787.874216 
" clip-path="url(#p27fe4de276)" style="fill: none; stroke: #000000; stroke-linecap: round"/>
   </g>
   <g id="patch_4">
    <path d="M 781.54331 818.300949 
Q 714.54772 781.774316 647.552129 745.247684 
" clip-path="url(#p27fe4de276)" style="fill: none; stroke: #000000; stroke-linecap: round"/>
   </g>
   <g id="patch_5">
    <path d="M 781.54331 818.300949 
Q 714.54772 781.774316 647.552129 745.247684 
" clip-path="url(#p27fe4de276)" style="fill: none; stroke: #000000; stroke-linecap: round"/>
   </g>
   <g id="patch_6">
    <path d="M 781.54331 818.300949 
Q 714.54772 781.774316 647.552129 745.247684 
" clip-path="url(#p27fe4de276)" style="fill: none; stroke: #000000; stroke-linecap: round"/>
   </g>
   <g id="patch_7">
    <path d="M 784.395826 825.447858 
Q 748.5936 936.360027 712.791374 1047.272196 
" clip-path="url(#p27fe4de276)" style="fill: none; stroke: #000000; stroke-linecap: round"/>
   </g>
   <g id="patch_8">
    <path d="M 789.128248 824.539944 
Q 855.55182 904.453527 921.975391 984.367111 
" clip-path="url(#p27fe4de276)" style="fill: none; stroke: #000000; stroke-linecap: round"/>
   </g>
   <g id="patch_9">
    <path d="M 782.881651 816.725649 
Q 705.02915 715.425657 627.176648 614.125666 
" clip-path="url(#p27fe4de276)" style="fill: none; stroke: #000000; stroke-linecap: round"/>
   </g>
   <g id="patch_10">
    <path d="M 782.881651 816.725649 
Q 705.02915 715.425657 627.176648 614.125666 
" clip-path="url(#p27fe4de276)" style="fill: none; stroke: #000000; stroke-linecap: round"/>
   </g>
   <g id="patch_11">
    <path d="M 782.881651 816.725649 
Q 705.02915 715.425657 627.176648 614.125666 
" clip-path="url(#p27fe4de276)" style="fill: none; stroke: #000000; stroke-linecap: round"/>
   </g>
   <g id="patch_12">
    <path d="M 781.038312 821.722144 
Q 520.732229 876.479873 260.426147 931.237601 
" clip-path="url(#p27fe4de276)" style="fill: none; stroke: #000000; stroke-linecap: round"/>
   </g>
   <g id="patch_13">
    <path d="M 781.666524 823.301523 
Q 611.379893 927.471645 441.093262 1031.641767 
" clip-path="url(#p27fe4de276)" style="fill: none; stroke: #000000; stroke-linecap: round"/>
   </g>
   <g id="patch_14">
    <path d="M 788.097753 816.188954 
Q 862.408557 661.741176 936.719361 507.293398 
" clip-path="url(#p27fe4de276)" style="fill: none; stroke: #000000; stroke-linecap: round"/>
   </g>
   <g id="patch_15">
    <path d="M 790.338359 818.327905 
Q 984.734371 714.018199 1179.130383 609.708493 
" clip-path="url(#p27fe4de276)" style="fill: none; stroke: #000000; stroke-linecap: round"/>
   </g>
   <g id="patch_16">
    <path d="M 790.857758 819.849963 
Q 977.109236 787.982189 1163.360714 756.114415 
" clip-path="url(#p27fe4de276)" style="fill: none; stroke: #000000; stroke-linecap: round"/>
   </g>
   <g id="patch_17">
    <path d="M 465.590877 786.179805 
Q 551.948542 765.110296 638.306208 744.040787 
" clip-path="url(#p27fe4de276)" style="fill: none; stroke: #000000; stroke-linecap: round"/>
   </g>
   <g id="patch_18">
    <path d="M 465.590877 786.179805 
Q 551.948542 765.110296 638.306208 744.040787 
" clip-path="url(#p27fe4de276)" style="fill: none; stroke: #000000; stroke-linecap: round"/>
   </g>
   <g id="patch_19">
    <path d="M 465.590877 786.179805 
Q 551.948542 765.110296 638.306208 744.040787 
" clip-path="url(#p27fe4de276)" style="fill: none; stroke: #000000; stroke-linecap: round"/>
   </g>
   <g id="patch_20">
    <path d="M 464.171834 790.997584 
Q 585.994945 919.70003 707.818056 1048.402476 
" clip-path="url(#p27fe4de276)" style="fill: none; stroke: #000000; stroke-linecap: round"/>
   </g>
   <g id="patch_21">
    <path d="M 465.322025 789.349309 
Q 692.949839 887.78697 920.577653 986.224631 
" clip-path="url(#p27fe4de276)" style="fill: none; stroke: #000000; stroke-linecap: round"/>
   </g>
   <g id="patch_22">
    <path d="M 464.121703 783.690373 
Q 542.431077 698.765962 620.740451 613.84155 
" clip-path="url(#p27fe4de276)" style="fill: none; stroke: #000000; stroke-linecap: round"/>
   </g>
   <g id="patch_23">
    <path d="M 464.121703 783.690373 
Q 542.431077 698.765962 620.740451 613.84155 
" clip-path="url(#p27fe4de276)" style="fill: none; stroke: #000000; stroke-linecap: round"/>
   </g>
   <g id="patch_24">
    <path d="M 464.121703 783.690373 
Q 542.431077 698.765962 620.740451 613.84155 
" clip-path="url(#p27fe4de276)" style="fill: none; stroke: #000000; stroke-linecap: round"/>
   </g>
   <g id="patch_25">
    <path d="M 456.647218 790.250342 
Q 358.131284 859.816719 259.61535 929.383096 
" clip-path="url(#p27fe4de276)" style="fill: none; stroke: #000000; stroke-linecap: round"/>
   </g>
   <g id="patch_26">
    <path d="M 460.251514 792.34138 
Q 448.78111 910.806261 437.310706 1029.271142 
" clip-path="url(#p27fe4de276)" style="fill: none; stroke: #000000; stroke-linecap: round"/>
   </g>
   <g id="patch_27">
    <path d="M 461.128019 782.38106 
Q 475.504525 600.829893 489.881032 419.278727 
" clip-path="url(#p27fe4de276)" style="fill: none; stroke: #000000; stroke-linecap: round"/>
   </g>
   <g id="patch_28">
    <path d="M 456.059532 785.596546 
Q 286.59818 721.478984 117.136828 657.361423 
" clip-path="url(#p27fe4de276)" style="fill: none; stroke: #000000; stroke-linecap: round"/>
   </g>
   <g id="patch_29">
    <path d="M 457.116113 783.915736 
Q 321.859751 654.942828 186.60339 525.969921 
" clip-path="url(#p27fe4de276)" style="fill: none; stroke: #000000; stroke-linecap: round"/>
   </g>
   <g id="patch_30">
    <path d="M 644.239782 747.738271 
Q 677.209822 897.445678 710.179862 1047.153086 
" clip-path="url(#p27fe4de276)" style="fill: none; stroke: #000000; stroke-linecap: round"/>
   </g>
   <g id="patch_31">
    <path d="M 646.936081 746.136937 
Q 784.167021 865.532837 921.39796 984.928737 
" clip-path="url(#p27fe4de276)" style="fill: none; stroke: #000000; stroke-linecap: round"/>
   </g>
   <g id="patch_32">
    <path d="M 642.454089 737.903023 
Q 633.647716 676.506852 624.841343 615.110681 
" clip-path="url(#p27fe4de276)" style="fill: none; stroke: #000000; stroke-linecap: round"/>
   </g>
   <g id="patch_33">
    <path d="M 642.454089 737.903023 
Q 633.647716 676.506852 624.841343 615.110681 
" clip-path="url(#p27fe4de276)" style="fill: none; stroke: #000000; stroke-linecap: round"/>
   </g>
   <g id="patch_34">
    <path d="M 642.454089 737.903023 
Q 633.647716 676.506852 624.841343 615.110681 
" clip-path="url(#p27fe4de276)" style="fill: none; stroke: #000000; stroke-linecap: round"/>
   </g>
   <g id="patch_35">
    <path d="M 642.454089 737.903023 
Q 633.647716 676.506852 624.841343 615.110681 
" clip-path="url(#p27fe4de276)" style="fill: none; stroke: #000000; stroke-linecap: round"/>
   </g>
   <g id="patch_36">
    <path d="M 638.672139 745.050581 
Q 449.347893 837.561295 260.023647 930.072009  c clip-path="url(#p27fe4de276)" style="fill: none; stroke: #000000; stroke-linecap: round"/>
   </g>
   <g id="patch_37">
    <path d="M 640.275755 746.934991 
Q 539.996463 888.553112 439.71717 1030.171233 
" clip-path="url(#p27fe4de276)" style="fill: none; stroke: #000000; stroke-linecap: round"/>
   </g>
   <g id="patch_38">
    <path d="M 647.04735 739.703322 
Q 791.02719 622.82004 935.00703 505.936757 
" clip-path="url(#p27fe4de276)" style="fill: none; stroke: #000000; stroke-linecap: round"/>
   </g>
   <g id="patch_39">
    <path d="M 648.016883 741.63861 
Q 913.352176 675.099334 1178.687469 608.560058 
" clip-path="url(#p27fe4de276)" style="fill: none; stroke: #000000; stroke-linecap: round"/>
   </g>
   <g id="patch_40">
    <path d="M 648.160391 742.9736 
Q 905.726 749.063444 1163.291609 755.153288 
" clip-path="url(#p27fe4de276)" style="fill: none; stroke: #000000; stroke-linecap: round"/>
   </g>
   <g id="patch_41">
    <path d="M 641.05434 738.320811 
Q 566.719343 578.573125 492.384346 418.825438 
" clip-path="url(#p27fe4de276)" style="fill: none; stroke: #000000; stroke-linecap: round"/>
   </g>
   <g id="patch_42">
    <path d="M 638.228797 742.043915 
Q 377.810733 699.223741 117.392668 656.403566 
" clip-path="url(#p27fe4de276)" style="fill: none; stroke: #000000; stroke-linecap: round"/>
   </g>
   <g id="patch_43">
    <path d="M 638.652932 740.695336 
Q 413.072495 632.686024 187.492058 524.676711 
" clip-path="url(#p27fe4de276)" style="fill: none; stroke: #000000; stroke-linecap: round"/>
   </g>
   <g id="patch_44">
    <path d="M 716.043001 1050.604416 
Q 818.211685 1020.122041 920.380369 989.639667 
" clip-path="url(#p27fe4de276)" style="fill: none; stroke: #000000; stroke-linecap: round"/>
   </g>
   <g id="patch_45">
    <path d="M 710.287448 1047.127969 
Q 667.693069 831.097848 625.09869 615.067726 
" clip-path="url(#p27fe4de276)" style="fill: none; stroke: #000000; stroke-linecap: round"/>
   </g>
   <g id="patch_46">
    <path d="M 922.053423 984.296682 
Q 774.650716 799.186911 627.248009 614.07714 
" clip-path="url(#p27fe4de276)" style="fill: none; stroke: #000000; stroke-linecap: round"/>
   </g>
   <g id="patch_47">
    <path d="M 622.753557 605.356519 
Q 550.995804 355.065832 479.238051 104.775145 
" clip-path="url(#p27fe4de276)" style="fill: none; stroke: #000000; stroke-linecap: round"/>
   </g>
   <g id="patch_48">
    <path d="M 621.311112 606.036305 
Q 557.20404 512.229286 493.096967 418.422268 
" clip-path="url(#p27fe4de276)" style="fill: none; stroke: #000000; stroke-linecap: round"/>
   </g>
   <g id="patch_49">
    <path d="M 621.311112 606.036305 
Q 557.20404 512.229286 493.096967 418.422268 
" clip-path="url(#p27fe4de276)" style="fill: none; stroke: #000000; stroke-linecap: round"/>
   </g>
   <g id="patch_50">
    <path d="M 621.311112 606.036305 
Q 557.20404 512.229286 493.096967 418.422268 
" clip-path="url(#p27fe4de276)" style="fill: none; stroke: #000000; stroke-linecap: round"/>
   </g>
   <g id="patch_51">
    <path d="M 620.651414 606.574005 
Q 413.135102 392.536035 205.61879 178.498065 
" clip-path="url(#p27fe4de276)" style="fill: none; stroke: #000000; stroke-linecap: round"/>
   </g>
   <g id="patch_52">
    <path d="M 620.366239 613.45428 
Q 439.831533 771.215347 259.296826 928.976413 
" clip-path="url(#p27fe4de276)" style="fill: none; stroke: #000000; stroke-linecap: round"/>
   </g>
   <g id="patch_53">
    <path d="M 622.112587 614.735546 
Q 530.480597 822.206225 438.848607 1029.676904 
" clip-path="url(#p27fe4de276)" style="fill: none; stroke: #000000; stroke-linecap: round"/>
   </g>
   <g id="patch_54">
    <path d="M 628.864936 608.549054 
Q 781.508783 556.475353 934.152631 504.401652 
" clip-path="url(#p27fe4de276)" style="fill: none; stroke: #000000; stroke-linecap: round"/>
   </g>
   <g id="patch_55">
    <path d="M 628.864936 608.549054 
Q 781.508783 556.475353 934.152631 504.401652 
" clip-path="url(#p27fe4de276)" style="fill: none; stroke: #000000; stroke-linecap: round"/>
   </g>
   <g id="patch_56">
    <path d="M 629.129518 610.138554 
Q 903.83143 608.753825 1178.533343 607.369096 
" clip-path="url(#p27fe4de276)" style="fill: none; stroke: #000000; stroke-linecap: round"/>
   </g>
   <g id="patch_57">
    <path d="M 628.960066 611.451285 
Q 896.206443 682.716709 1163.452821 753.982132 
" clip-path="url(#p27fe4de276)" style="fill: none; stroke: #000000; stroke-linecap: round"/>
   </g>
   <g id="patch_58">
    <path d="M 619.15453 610.605659 
Q 368.300146 632.878099 117.445763 655.150538 
" clip-path="url(#p27fe4de276)" style="fill: none; stroke: #000000; stroke-linecap: round"/>
   </g>
   <g id="patch_59">
    <path d="M 619.227957 609.189472 
Q 403.556788 566.340635 187.885619 523.491799 
" clip-path="url(#p27fe4de276)" style="fill: none; stroke: #000000; stroke-linecap: round"/>
   </g>
   <g id="patch_60">
    <path d="M 627.153219 606.182185 
Q 773.349953 413.528623 919.546688 220.87506 
" clip-path="url(#p27fe4de276)" style="fill: none; stroke: #000000; stroke-linecap: round"/>
   </g>
   <g id="patch_61">
    <path d="M 478.056774 104.959839 
Q 484.067541 257.127659 490.078309 409.295479 
" clip-path="url(#p27fe4de276)" style="fill: none; stroke: #000000; stroke-linecap: round"/>
   </g>
   <g id="patch_62">
    <path d="M 473.033869 101.278495 
Q 339.996482 137.436211 206.959094 173.593927 
" clip-path="url(#p27fe4de276)" style="fill: none; stroke: #000000; stroke-linecap: round"/>
   </g>
   <g id="patch_63">
    <path d="M 486.430863 411.099665 
Q 346.205853 294.599823 205.980843 178.09998 
" clip-path="url(#p27fe4de276)" style="fill: none; stroke: #000000; stroke-linecap: round"/>
   </g>
   <g id="patch_64">
    <path d="M 486.064447 416.983677 
Q 301.371465 534.942098 116.678484 652.900519 
" clip-path="url(#p27fe4de276)" style="fill: none; stroke: #000000; stroke-linecap: round"/>
   </g>
   <g id="patch_65">
    <path d="M 485.563397 415.953648 
Q 336.63021 468.405617 187.697023 520.857587 
" clip-path="url(#p27fe4de276)" style="fill: none; stroke: #000000; stroke-linecap: round"/>
   </g>
   <g id="patch_66">
    <path d="M 495.180398 415.261506 
Q 714.581576 458.540073 933.982753 501.81864 
" clip-path="url(#p27fe4de276)" style="fill: none; stroke: #000000; stroke-linecap: round"/>
   </g>
   <g id="patch_67">
    <path d="M 494.823886 412.217176 
Q 706.423506 315.592634 918.023125 218.968092 
" clip-path="url(#p27fe4de276)" style="fill: none; stroke: #000000; stroke-linecap: round"/>
   </g>
   <g id="patch_68">
    <path d="M 259.887842 934.718306 
Q 346.178034 983.258082 432.468225 1031.797858 
" clip-path="url(#p27fe4de276)" style="fill: none; stroke: #000000; stroke-linecap: round"/>
   </g>
   <g id="patch_69">
    <path d="M 943.483323 504.750191 
Q 1061.211767 555.064709 1178.940211 605.379226 
" clip-path="url(#p27fe4de276)" style="fill: none; stroke: #000000; stroke-linecap: round"/>
   </g>
   <g id="patch_70">
    <path d="M 942.250034 506.486665 
Q 1053.588284 629.029363 1164.926534 751.572061 
" clip-path="url(#p27fe4de276)" style="fill: none; stroke: #000000; stroke-linecap: round"/>
   </g>
   <g id="patch_71">
    <path d="M 938.602825 497.791282 
Q 930.728471 359.838454 922.854116 221.885627 
" clip-path="url(#p27fe4de276)" style="fill: none; stroke: #000000; stroke-linecap: round"/>
   </g>
   <g id="patch_72">
    <path d="M 1183.024808 612.314216 
Q 1175.912804 681.30389 1168.8008 750.293564 
" clip-path="url(#p27fe4de276)" style="fill: none; stroke: #000000; stroke-linecap: round"/>
   </g>
   <g id="patch_73">
    <path d="M 114.80215 651.178506 
Q 147.722201 589.056747 180.642251 526.934989 
" clip-path="url(#p27fe4de276)" style="fill: none; stroke: #000000; stroke-linecap: round"/>
   </g>
   <g id="PathCollection_1">
    <defs>
     <path id="md3dc228dfc" d="M 0 5 
C 1.326016 5 2.597899 4.473168 3.535534 3.535534 
C 4.473168 2.597899 5 1.326016 5 0 
C 5 -1.326016 4.473168 -2.597899 3.535534 -3.535534 
C 2.597899 -4.473168 1.326016 -5 0 -5 
C -1.326016 -5 -2.597899 -4.473168 -3.535534 -3.535534 
C -4.473168 -2.597899 -5 -1.326016 -5 0 
C -5 1.326016 -4.473168 2.597899 -3.535534 3.535534 
C -2.597899 4.473168 -1.326016 5 0 <path d="M 931.593105 813.696402 
Q 1022.08535 657.273435 1112.577594 500.850468 
" clip-path="url(#p73e883d8ac)" style="fill: none; stroke: #000000; stroke-linecap: round"/>
   </g>
   <g id="patch_77">
    <path d="M 929.549376 813.04484 
Q 945.970346 635.560526 962.391315 458.076211 
" clip-path="url(#p73e883d8ac)" style="fill: none; stroke: #000000; stroke-linecap: round"/>
   </g>
   <g id="patch_78">
    <path d="M 933.695411 816.077493 
Q 1036.076741 772.780364 1138.458071 729.483234 
" clip-path="url(#p73e883d8ac)" style="fill: none; stroke: #000000; stroke-linecap: round"/>
   </g>
   <g id="patch_79">
    <path d="M 924.285856 819.411868 
Q 672.151712 892.181536 420.017569 964.951204 
" clip-path="url(#p73e883d8ac)" style="fill: none; stroke: #000000; stroke-linecap: round"/>
   </g>
   <g id="patch_80">
    <path d="M 924.982478 820.880491 
Q 760.799414 935.029178 596.61635 1049.177864 
" clip-path="url(#p73e883d8ac)" style="fill: none; stroke: #000000; stroke-linecap: round"/>
   </g>
   <g id="patch_81">
    <path d="M 926.848093 822.494044 
Q 870.683146 934.508302 814.5182 1046.52256 
" clip-path="url(#p73e883d8ac)" style="fill: none; stroke: #000000; stroke-linecap: round"/>
   </g>
   <g id="patch_82">
    <path d="M 718.040811 501.55609 
Q 948.354478 555.164616 1178.668145 608.773143 
" clip-path="url(#p73e883d8ac)" style="fill: none; stroke: #000000; stroke-linecap: round"/>
   </g>
   <g id="patch_83">
    <path d="M 718.172265 500.374048 
Q 914.127385 498.471964 1110.082505 496.569879 
" clip-path="url(#p73e883d8ac)" style="fill: none; stroke: #000000; stroke-linecap: round"/>
   </g>
   <g id="patch_84">
    <path d="M 718.081937 499.491774 
Q 838.011256 476.760038 957.940574 454.028303 
" clip-path="url(#p73e883d8ac)" style="fill: none; stroke: #000000; stroke-linecap: round"/>
   </g>
   <g id="patch_85">
    <path d="M 717.588966 502.756595 
Q 928.116311 613.979485 1138.643657 725.202375 
" clip-path="url(#p73e883d8ac)" style="fill: none; stroke: #000000; stroke-linecap: round"/>
   </g>
   <g id="patch_86">
    <path d="M 708.381792 501.871479 
Q 412.816034 591.288125 117.250275 680.704771 
" clip-path="url(#p73e883d8ac)" style="fill: none; stroke: #000000; stroke-linecap: round"/>
   </g>
   <g id="patch_87">
    <path d="M 708.169819 500.394049 
Q 432.791912 498.822336 157.414004 497.250623 
" clip-path="url(#p73e883d8ac)" style="fill: none; stroke: #000000; stroke-linecap: round"/>
   </g>
   <g id="patch_88">
    <path d="M 1180.952991 605.626161 
Q 1149.309079 553.213033 1117.665168 500.799905 
" clip-path="url(#p73e883d8ac)" style="fill: none; stroke: #000000; stroke-linecap: round"/>
   </g>
   <g id="patch_89">
    <path d="M 1179.459282 607.008897 
Q 1073.193255 531.500993 966.927229 455.993089 
" clip-path="url(#p73e883d8ac)" style="fill: none; stroke: #000000; stroke-linecap: round"/>
   </g>
   <g id="patch_90">
    <path d="M 1181.910409 614.634218 
Q 1163.299898 668.719972 1144.689387 722.805727 
" clip-path="url(#p73e883d8ac)" style="fill: none; stroke: #000000; stroke-linecap: round"/>
   </g>
   <g id="patch_91">
    <path d="M 1110.27374 495.149774 
Q 1038.967542 474.809523 967.661344 454.469272 
" clip-path="url(#p73e883d8ac)" style="fill: none; stroke: #000000; stroke-linecap: round"/>
   </g>
   <g id="patch_92">
    <path d="M 1115.683583 501.488089 
Q 1129.072015 612.030528 1142.460447 722.572968 
" clip-path="url(#p73e883d8ac)" style="fill: none; stroke: #000000; stroke-linecap: round"/>
   </g>
   <g id="patch_93">
    <path d="M 965.597616 457.278711 
Q 1052.958063 590.318848 1140.318509 723.358986 
" clip-path="url(#p73e883d8ac)" style="fill: none; stroke: #000000; stroke-linecap: round"/>
   </g>
   <g id="patch_94">
    <path d="M 419.717538 968.51499 
Q 503.863257 1009.186337 588.008976 1049.857683 
" clip-path="url(#p73e883d8ac)" style="fill: none; stroke: #000000; stroke-linecap: round"/>
   </g>
   <g id="patch_95">
    <path d="M 420.105597 967.380852 
Q 613.746187 1008.663378 807.386778 1049.945904 
" clip-path="url(#p73e883d8ac)" style="fill: none; stroke: #000000; stroke-linecap: round"/>
   </g>
   <g id="patch_96">
    <path d="M 597.509584 1052.009301 
Q 702.395375 1051.510941 807.281165 1051.012581 
" clip-path="url(#p73e883d8ac)" style="fill: none; stroke: #000000; stroke-linecap: round"/>
   </g>
   <g id="patch_97">
    <path d="M 113.518065 677.268533 
Q 132.438576 589.689027 151.359087 502.109521 
" clip-path="url(#p73e883d8ac)" style="fill: none; stroke: #000000; stroke-linecap: round"/>
   </g>
   <g id="PathCollection_1">
    <defs>
     <path id="m75976aa657" d="M 0 5 
C 1.326016 5 2.597899 4.473168 3.535534 3.535534 
C 4.473168 2.597899 5 1.326016 5 0 
C 5 -1.326016 4.473168 -2.597899 3.535534 -3.535534 
C 2.597899 -4.473168 1.326016 -5 0 -5 
C -1.326016 -5 -2.597899 -4.473168 -3.535534 -3.535534 
C -4.473168 -2.597899 -5 -1.326016 -5 0 
C -5 1.326016 -4.473168 2.597899 -3.535534 3.535534 
C -2.597899 4.473168 -1.326016 5 0 5 
z
" style="stroke: #0000ff"/>
    </defs>
    <g clip-path="url(#p73e883d8ac)">
     <use xlink:href="#m75976aa657" x="672.042048" y="626.08213" style="fill: #0000ff; stroke: #0000ff"/>
     <use xlink:href="#m75976aa657" x="250.265866" y="251.76602" style="fill: #0000ff; stroke: #0000ff"/>
     <use xlink:href="#m75976aa657" x="489.022638" y="99.966942" style="fill: #0000ff; stroke: #0000ff"/>
     <use xlink:href="#m75976aa657" x="562.693788" y="596.383255" style="fill: #0000ff; stroke: #0000ff"/>
     <use xlink:href="#m75976aa657" x="824.438897" y="776.716804" style="fill: #0000ff; stroke: #0000ff"/>
     <use xlink:href="#m75976aa657" x="639.53315" y="749.264994" style="fill: #0000ff; stroke: #0000ff"/>
     <use xlink:href="#m75976aa657" x="929.088539" y="818.025742" style="fill: #0000ff; stroke: #0000ff"/>
     <use xlink:href="#m75976aa657" x="713.171069" y="500.422593" style="fill: #0000ff; stroke: #0000ff"/>
     <use xlink:href="#m75976aa657" x="1183.53719" y="609.906477" style="fill: #0000ff; stroke: #0000ff"/>
     <use xlink:href="#m75976aa657" x="1115.082032" y="496.52135" style="fill: #0000ff; stroke: #0000ff"/>
     <use xlink:href="#m75976aa657" x="962.85196" y="453.097385" style="fill: #0000ff; stroke: #0000ff"/>
     <use xlink:href="#m75976aa657" x="1143.061597" y="727.5364" style="fill: #0000ff; stroke: #0000ff"/>
     <use xlink:href="#m75976aa657" x="415.213164" y="966.337827" style="fill: #0000ff; stroke: #0000ff"/>
     <use xlink:href="#m75976aa657" x="592.509649" y="1052.033058" style="fill: #0000ff; stroke: #0000ff"/>
     <use xlink:href="#m75976aa657" x="812.27877" y="1050.988835" style="fill: #0000ff; stroke: #0000ff"/>
     <use xlink:href="#m75976aa657" x="112.46281" y="682.153109" style="fill: #0000ff; stroke: #0000ff"/>
     <use xlink:href="#m75976aa657" x="152.414958" y="497.222091" style="fill: #0000ff; stroke: #0000ff"/>
    </g>
   </g>
   <g id="text_1">
    <g clip-path="url(#p73e883d8ac)">
     <!-- 1 -->
     <g transform="translate(667.270173 630.221192) scale(0.15 -0.15)">
      <defs>
       <path id="DejaVuSans-31" d="M 794 531 
L 1825 531 
L 1825 4091 
L 703 3866 
L 703 4441 
L 1819 4666 
L 2450 4666 
L 2450 531 
L 3481 531 
L 3481 0 
L 794 0 
L 794 531 
z
" transform="scale(0.015625)"/>
      </defs>
      <use xlink:href="#DejaVuSans-31"/>
     </g>
    </g>
   </g>
   <g id="text_2">
    <g clip-path="url(#p73e883d8ac)">
     <!-- 3 -->
     <g transform="translate(245.493991 255.905083) scale(0.15 -0.15)">
      <defs>
       <path id="DejaVuSans-33" d="M 2597 2516 
Q 3050 2419 3304 2112 
Q 3559 1806 3559 1356 
Q 3559 666 3084 287 
Q 2609 -91 1734 -91 
Q 1441 -91 1130 -33 
Q 819 25 488 141 
L 488 750 
Q 750 597 1062 519 
Q 1375 441 1716 441 
Q 2309 441 2620 675 
Q 2931 909 2931 1356 
Q 2931 1769 2642 2001 
Q 2353 2234 1838 2234 
L 1294 2234 
L 1294 2753 
L 1863 2753 
Q 2328 2753 2575 2939 
Q 2822 3125 2822 3475 
Q 2822 3834 2567 4026 
Q 2313 4219 1838 4219 
Q 1578 4219 1281 4162 
Q 984 4106 628 3988 
L 628 4550 
Q 988 4650 1302 4700 
Q 1616 4750 1894 4750 
Q 2613 4750 3031 4423 
Q 3450 4097 3450 3541 
Q 3450 3153 3228 2886 
Q 3006 2619 2597 2516 
z
" transform="scale(0.015625)"/>
      </defs>
      <use xlink:href="#DejaVuSans-33"/>
     </g>
    </g>
   </g>
   <g id="text_3">
    <g clip-path="url(#p73e883d8ac)">
     <!-- 6 -->
     <g transform="translate(484.250763 104.106005) scale(0.15 -0.15)">
      <defs>
       <path id="DejaVuSans-36" d="M 2113 2584 
Q 1688 2584 1439 2293 
Q 1191 2003 1191 1497 
Q 1191 994 1439 701 
Q 1688 409 2113 409 
Q 2538 409 2786 701 
Q 3034 994 3034 1497 
Q 3034 2003 2786 2293 
Q 2538 2584 2113 2584 
z
M 3366 4563 
L 3366 3988 
Q 3128 4100 2886 4159 
Q 2644 4219 2406 4219 
Q 1781 4219 1451 3797 
Q 1122 3375 1075 2522 
Q 1259 2794 1537 2939 
Q 1816 3084 2150 3084 
Q 2853 3084 3261 2657 
Q 3669 2231 3669 1497 
Q 3669 778 3244 343 
Q 2819 -91 2113 -91 
Q 1303 -91 875 529 
Q 447 1150 447 2328 
Q 447 3434 972 4092 
Q 1497 4750 2381 4750 
Q 2619 4750 2861 4703 
Q 3103 4656 3366 4563 
z
" transform="scale(0.015625)"/>
      </defs>
      <use xlink:href="#DejaVuSans-36"/>
     </g>
    </g>
   </g>
   <g id="text_4">
    <g clip-path="url(#p73e883d8ac)">
     <!-- 16 -->
     <g transform="translate(553.150038 600.522317) scale(0.15 -0.15)">
      <use xlink:href="#DejaVuSans-31"/>
      <use xlink:href="#DejaVuSans-36" x="63.623047"/>
     </g>
    </g>
   </g>
   <g id="text_5">
    <g clip-path="url(#p73e883d8ac)">
     <!-- 0 -->
     <g transform="translate(819.667022 780.855866) scale(0.15 -0.15)">
      <defs>
       <path id="DejaVuSans-30" d="M 2034 4250 
Q 1547 4250 1301 3770 
Q 1056 3291 1056 2328 
Q 1056 1369 1301 889 
Q 1547 409 2034 409 
Q 2525 409 2770 889 
Q 3016 1369 3016 2328 
Q 3016 3291 2770 3770 
Q 2525 4250 2034 4250 
z
M 2034 4750 
Q 2819 4750 3233 4129 
Q 3647 3509 3647 2328 
Q 3647 1150 3233 529 
Q 2819 -91 2034 -91 
Q 1250 -91 836 529 
Q 422 1150 422 2328 
Q 422 3509 836 4129 
Q 1250 4750 2034 4750 
z
" transform="scale(0.015625)"/>
      </defs>
      <use xlink:href="#DejaVuSans-30"/>
     </g>
    </g>
   </g>
   <g id="text_6">
    <g clip-path="url(#p73e883d8ac)">
     <!-- 2 -->
     <g transform="translate(634.761275 753.404057) scale(0.15 -0.15)">
      <defs>
       <path id="DejaVuSans-32" d="M 1228 531 
L 3431 531 
L 3431 0 
L 469 0 
L 469 531 
Q 828 903 1448 1529 
Q 2069 2156 2228 2338 
Q 2531 2678 2651 2914 
Q 2772 3150 2772 3378 
Q 2772 3750 2511 3984 
Q 2250 4219 1831 4219 
Q 1534 4219 1204 4116 
Q 875 4013 500 3803 
L 500 4441 
Q 881 4594 1212 4672 
Q 1544 4750 1819 4750 
Q 2544 4750 2975 4387 
Q 3406 4025 3406 3419 
Q 3406 3131 3298 2873 
Q 3191 2616 2906 2266 
Q 2828 2175 2409 1742 
Q 1991 1309 1228 531 
z
" transform="scale(0.015625)"/>
      </defs>
      <use xlink:href="#DejaVuSans-32"/>
     </g>
    </g>
   </g>
   <g id="text_7">
    <g clip-path="url(#p73e883d8ac)">
     <!-- 4 -->
     <g transform="translate(924.316664 822.164805) scale(0.15 -0.15)">
      <defs>
       <path id="DejaVuSans-34" d="M 2419 4116 
L 825 1625 
L 2419 1625 
L 2419 4116 
z
M 2253 4666 
L 3047 4666 
L 3047 1625 
L 3713 1625 
L 3713 1100 
L 3047 1100 
L 3047 0 
L 2419 0 
L 2419 1100 
L 313 1100 
L 313 1709 
L 2253 4666 
z
" transform="scale(0.015625)"/>
      </defs>
      <use xlink:href="#DejaVuSans-34"/>
     </g>
    </g>
   </g>
   <g id="text_8">
    <g clip-path="url(#p73e883d8ac)">
     <!-- 5 -->
     <g transform="translate(708.399194 504.561656) scale(0.15 -0.15)">
      <defs>
       <path id="DejaVuSans-35" d="M 691 4666 
L 3169 4666 
L 3169 4134 
L 1269 4134 
L 1269 2991 
Q 1406 3038 1543 3061 
Q 1681 3084 1819 3084 
Q 2600 3084 3056 2656 
Q 3513 2228 3513 1497 
Q 3513 744 3044 326 
Q 2575 -91 1722 -91 
Q 1428 -91 1123 -41 
Q 819 9 494 109 
L 494 744 
Q 775 591 1075 516 
Q 1375 441 1709 441 
Q 2250 441 2565 725 
Q 2881 1009 2881 1497 
Q 2881 1984 2565 2268 
Q 2250 2553 1709 2553 
Q 1456 2553 1204 2497 
Q 953 2441 691 2322 
L 691 4666 
z
" transform="scale(0.015625)"/>
      </defs>
      <use xlink:href="#DejaVuSans-35"/>
     </g>
    </g>
   </g>
   <g id="text_9">
    <g clip-path="url(#p73e883d8ac)">
     <!-- 7 -->
     <g transform="translate(1178.765315 614.045539) scale(0.15 -0.15)">
      <defs>
       <path id="DejaVuSans-37" d="M 525 4666 
L 3525 4666 
L 3525 4397 
L 1831 0 
L 1172 0 
L 2766 4134 
L 525 4134 
L 525 4666 
z
" transform="scale(0.015625)"/>
      </defs>
      <use xlink:href="#DejaVuSans-37"/>
     </g>
    </g>
   </g>
   <g id="text_10">
    <g clip-path="url(#p73e883d8ac)">
     <!-- 8 -->
     <g transform="translate(1110.310157 500.660412) scale(0.15 -0.15)">
      <defs>
       <path id="DejaVuSans-38" d="M 2034 2216 
Q 1584 2216 1326 1975 
Q 1069 1734 1069 1313 
Q 1069 891 1326 650 
Q 1584 409 2034 409 
Q 2484 409 2743 651 
Q 3003 894 3003 1313 
Q 3003 1734 2745 1975 
Q 2488 2216 2034 2216 
z
M 1403 2484 
Q 997 2584 770 2862 
Q 544 3141 544 3541 
Q 544 4100 942 4425 
Q 1341 4750 2034 4750 
Q 2731 4750 3128 4425 
Q 3525 4100 3525 3541 
Q 3525 3141 3298 2862 
Q 3072 2584 2669 2484 
Q 3125 2378 3379 2068 
Q 3634 1759 3634 1313 
Q 3634 634 3220 271 
Q 2806 -91 2034 -91 
Q 1263 -91 848 271 
Q 434 634 434 1313 
Q 434 1759 690 2068 
Q 947 2378 1403 2484 
z
M 1172 3481 
Q 1172 3119 1398 2916 
Q 1625 2713 2034 2713 
Q 2441 2713 2670 2916 
Q 2900 3119 2900 3481 
Q 2900 3844 2670 4047 
Q 2441 4250 2034 4250 
Q 1625 4250 1398 4047 
Q 1172 3844 1172 3481 
z
" transform="scale(0.015625)"/>
      </defs>
      <use xlink:href="#DejaVuSans-38"/>
     </g>
    </g>
   </g>
   <g id="text_11">
    <g clip-path="url(#p73e883d8ac)">
     <!-- 9 -->
     <g transform="translate(958.080085 457.236447) scale(0.15 -0.15)">
      <defs>
       <path id="DejaVuSans-39" d="M 703 97 
L 703 672 
Q 941 559 1184 500 
Q 1428 441 1663 441 
Q 2288 441 2617 861 
Q 2947 1281 2994 2138 
Q 2813 1869 2534 1725 
Q 2256 1581 1919 1581 
Q 1219 1581 811 2004 
Q 403 2428 403 3163 
Q 403 3881 828 4315 
Q 1253 4750 1959 4750 
Q 2769 4750 3195 4129 
Q 3622 3509 3622 2328 
Q 3622 1225 3098 567 
Q 2575 -91 1691 -91 
Q 1453 -91 1209 -44 
Q 966 3 703 97 
z
M 1959 2075 
Q 2384 2075 2632 2365 
Q 2881 2656 2881 3163 
Q 2881 3666 2632 3958 
Q 2384 4250 1959 4250 
Q 1534 4250 1286 3958 
Q 1038 3666 1038 3163 
Q 1038 2656 1286 2365 
Q 1534 2075 1959 2075 
z
" transform="scale(0.015625)"/>
      </defs>
      <use xlink:href="#DejaVuSans-39"/>
     </g>
    </g>
   </g>
   <g id="text_12">
    <g clip-path="url(#p73e883d8ac)">
     <!-- 10 -->
     <g transform="translate(1133.517847 731.675463) scale(0.15 -0.15)">
      <use xlink:href="#DejaVuSans-31"/>
      <use xlink:href="#DejaVuSans-30" x="63.623047"/>
     </g>
    </g>
   </g>
   <g id="text_13">
    <g clip-path="url(#p73e883d8ac)">
     <!-- 11 -->
     <g transform="translate(405.669414 970.476889) scale(0.15 -0.15)">
      <use xlink:href="#DejaVuSans-31"/>
      <use xlink:href="#DejaVuSans-31" x="63.623047"/>
     </g>
    </g>
   </g>
   <g id="text_14">
    <g clip-path="url(#p73e883d8ac)">
     <!-- 12 -->
     <g transform="translate(582.965899 1056.17212) scale(0.15 -0.15)">
      <use xlink:href="#DejaVuSans-31"/>
      <use xlink:href="#DejaVuSans-32" x="63.623047"/>
     </g>
    </g>
   </g>
   <g id="text_15">
    <g clip-path="url(#p73e883d8ac)">
     <!-- 13 -->
     <g transform="translate(802.73502 1055.127898) scale(0.15 -0.15)">
      <use xlink:href="#DejaVuSans-31"/>
      <use xlink:href="#DejaVuSans-33" x="63.623047"/>
     </g>
    </g>
   </g>
   <g id="text_16">
    <g clip-path="url(#p73e883d8ac)">
     <!-- 14 -->
     <g transform="translate(102.91906 686.292172) scale(0.15 -0.15)">
      <use xlink:href="#DejaVuSans-31"/>
      <use xlink:href="#DejaVuSans-34" x="63.623047"/>
     </g>
    </g>
   </g>
   <g id="text_17">
    <g clip-path="url(#p73e883d8ac)">
     <!-- 15 -->
     <g transform="translate(142.871208 501.361154) scale(0.15 -0.15)">
      <use xlink:href="#DejaVuSans-31"/>
      <use xlink:href="#DejaVuSans-35" x="63.623047"/>
     </g>
    </g>
   </g>
  </g>
 </g>
 <defs>
  <clipPath id="p73e883d8ac">
   <rect x="0" y="0" width="1296" height="1152"/>
  </clipPath>
 </defs>
</svg>
