<?xml version="1.0" encoding="utf-8" standalone="no"?>
<!DOCTYPE svg PUBLIC "-//W3C//DTD SVG 1.1//EN"
  "http://www.w3.org/Graphics/SVG/1.1/DTD/svg11.dtd">
<svg xmlns:xlink="http://www.w3.org/1999/xlink" width="1296pt" height="1152pt" viewBox="0 0 1296 1152" xmlns="http://www.w3.org/2000/svg" version="1.1">
 <metadata>
  <rdf:RDF xmlns:dc="http://purl.org/dc/elements/1.1/" xmlns:cc="http://creativecommons.org/ns#" xmlns:rdf="http://www.w3.org/1999/02/22-rdf-syntax-ns#">
   <cc:Work>
    <dc:type rdf:resource="http://purl.org/dc/dcmitype/StillImage"/>
    <dc:date>2025-02-13T10:46:51.670768</dc:date>
    <dc:format>image/svg+xml</dc:format>
    <dc:creator>
     <cc:Agent>
      <dc:title>Matplotlib v3.9.1, https://matplotlib.org/</dc:title>
     </cc:Agent>
    </dc:creator>
   </cc:Work>
  </rdf:RDF>
 </metadata>
 <defs>
  <style type="text/css">*{stroke-linejoin: round; stroke-linecap: butt}</style>
 </defs>
 <g id="figure_1">
  <g id="patch_1">
   <path d="M 0 1152 
L 1296 1152 
L 1296 0 
L 0 0 
z
" style="fill: #ffffff"/>
  </g>
  <g id="axes_1">
   <g id="patch_2">
    <path d="M 445.52277 502.213436 
Q 572.695673 443.662958 699.868575 385.11248 
" clip-path="url(#p13220a2edf)" style="fill: none; stroke: #000000; stroke-linecap: round"/>
   </g>
   <g id="patch_3">
    <path d="M 444.400987 507.953219 
Q 553.322936 624.343135 662.244886 740.733052 
" clip-path="url(#p13220a2edf)" style="fill: none; stroke: #000000; stroke-linecap: round"/>
   </g>
   <g id="patch_4">
    <path d="M 445.850374 505.456372 
Q 585.013179 538.451393 724.175985 571.446414 
" clip-path="url(#p13220a2edf)" style="fill: none; stroke: #000000; stroke-linecap: round"/>
   </g>
   <g id="patch_5">
    <path d="M 436.324831 506.112234 
Q 337.881095 544.338869 239.43736 582.565503 
" clip-path="url(#p13220a2edf)" style="fill: none; stroke: #000000; stroke-linecap: round"/>
   </g>
   <g id="patch_6">
    <path d="M 436.124787 503.13788 
Q 276.724868 464.931838 117.32495 426.725795 
" clip-path="url(#p13220a2edf)" style="fill: none; stroke: #000000; stroke-linecap: round"/>
   </g>
   <g id="patch_7">
    <path d="M 703.874404 387.99355 
Q 685.03291 563.700399 666.191415 739.407248 
" clip-path="url(#p13220a2edf)" style="fill: none; stroke: #000000; stroke-linecap: round"/>
   </g>
   <g id="patch_8">
    <path d="M 705.051964 387.983774 
Q 716.722336 477.811011 728.392708 567.638248 
" clip-path="url(#p13220a2edf)" style="fill: none; stroke: #000000; stroke-linecap: round"/>
   </g>
   <g id="patch_9">
    <path d="M 708.778599 380.596417 
Q 831.275428 312.600231 953.772257 244.604045 
" clip-path="url(#p13220a2edf)" style="fill: none; stroke: #000000; stroke-linecap: round"/>
   </g>
   <g id="patch_10">
    <path d="M 705.909946 378.250194 
Q 748.964085 241.492846 792.018223 104.735498 
" clip-path="url(#p13220a2edf)" style="fill: none; stroke: #000000; stroke-linecap: round"/>
   </g>
   <g id="patch_11">
    <path d="M 667.38826 739.691044 
Q 697.347771 658.489396 727.307283 577.287749 
" clip-path="url(#p13220a2edf)" style="fill: none; stroke: #000000; stroke-linecap: round"/>
   </g>
   <g id="patch_12">
    <path d="M 668.933297 748.157367 
Q 764.02763 857.823883 859.121964 967.490399 
" clip-path="url(#p13220a2edf)" style="fill: none; stroke: #000000; stroke-linecap: round"/>
   </g>
   <g id="patch_13">
    <path d="M 665.645834 749.379871 
Q 665.279515 898.205752 664.913196 1047.031633 
" clip-path="url(#p13220a2edf)" style="fill: none; stroke: #000000; stroke-linecap: round"/>
   </g>
   <g id="patch_14">
    <path d="M 724.489427 574.682898 
Q 647.648299 609.893382 570.80717 645.103866 
" clip-path="url(#p13220a2edf)" style="fill: none; stroke: #000000; stroke-linecap: round"/>
   </g>
   <g id="patch_15">
    <path d="M 733.676464 570.732122 
Q 831.407623 531.404369 929.138781 492.076616 
" clip-path="url(#p13220a2edf)" style="fill: none; stroke: #000000; stroke-linecap: round"/>
   </g>
   <g id="patch_16">
    <path d="M 732.454866 576.246356 
Q 815.649605 665.032731 898.844343 753.819106 
" clip-path="url(#p13220a2edf)" style="fill: none; stroke: #000000; stroke-linecap: round"/>
   </g>
   <g id="patch_17">
    <path d="M 570.856531 645.224149 
Q 750.017089 568.699412 929.177647 492.174674 
" clip-path="url(#p13220a2edf)" style="fill: none; stroke: #000000; stroke-linecap: round"/>
   </g>
   <g id="patch_18">
    <path d="M 571.011037 648.746126 
Q 734.262142 702.326977 897.513248 755.907828 
" clip-path="url(#p13220a2edf)" style="fill: none; stroke: #000000; stroke-linecap: round"/>
   </g>
   <g id="patch_19">
    <path d="M 561.34703 646.255953 
Q 400.518007 615.780598 239.688984 585.305243 
" clip-path="url(#p13220a2edf)" style="fill: none; stroke: #000000; stroke-linecap: round"/>
   </g>
   <g id="patch_20">
    <path d="M 561.543265 648.845625 
Q 400.482303 705.468747 239.421341 762.091868 
" clip-path="url(#p13220a2edf)" style="fill: none; stroke: #000000; stroke-linecap: round"/>
   </g>
   <g id="patch_21">
    <path d="M 933.191498 495.173205 
Q 918.019562 623.836391 902.847626 752.499577 
" clip-path="url(#p13220a2edf)" style="fill: none; stroke: #000000; stroke-linecap: round"/>
   </g>
   <g id="patch_22">
    <path d="M 934.265667 485.233414 
Q 945.960643 366.192035 957.655619 247.150656 
" clip-path="url(#p13220a2edf)" style="fill: none; stroke: #000000; stroke-linecap: round"/>
   </g>
   <g id="patch_23">
    <path d="M 937.675422 487.074933 
Q 1058.657374 389.780991 1179.639327 292.487049 
" clip-path="url(#p13220a2edf)" style="fill: none; stroke: #000000; stroke-linecap: round"/>
   </g>
   <g id="patch_24">
    <path d="M 901.345216 762.382719 
Q 882.328994 864.365275 863.312773 966.347831 
" clip-path="url(#p13220a2edf)" style="fill: none; stroke: #000000; stroke-linecap: round"/>
   </g>
   <g id="patch_25">
    <path d="M 905.401317 761.362343 
Q 998.313124 876.665097 1091.22493 991.96785 
" clip-path="url(#p13220a2edf)" style="fill: none; stroke: #000000; stroke-linecap: round"/>
   </g>
   <g id="patch_26">
    <path d="M 231.726654 580.412583 
Q 173.620653 504.967749 115.514651 429.522915 
" clip-path="url(#p13220a2edf)" style="fill: none; stroke: #000000; stroke-linecap: round"/>
   </g>
   <g id="patch_27">
    <path d="M 234.77618 589.375281 
Q 234.742096 674.062679 234.708011 758.750077 
" clip-path="url(#p13220a2edf)" style="fill: none; stroke: #000000; stroke-linecap: round"/>
   </g>
   <g id="patch_28">
    <path d="M 954.358677 238.907106 
Q 875.830042 171.070529 797.301407 103.233953 
" clip-path="url(#p13220a2edf)" style="fill: none; stroke: #000000; stroke-linecap: round"/>
   </g>
   <g id="patch_29">
    <path d="M 963.038238 243.201557 
Q 1070.840006 265.764659 1178.641774 288.32776 
" clip-path="url(#p13220a2edf)" style="fill: none; stroke: #000000; stroke-linecap: round"/>
   </g>
   <g id="patch_30">
    <path d="M 857.769963 973.157589 
Q 763.650053 1011.648736 669.530143 1050.139883 
" clip-path="url(#p13220a2edf)" style="fill: none; stroke: #000000; stroke-linecap: round"/>
   </g>
   <g id="patch_31">
    <path d="M 867.368829 971.793201 
Q 978.381672 983.565329 1089.394516 995.337457 
" clip-path="url(#p13220a2edf)" style="fill: none; stroke: #000000; stroke-linecap: round"/>
   </g>
   <g id="PathCollection_1">
    <defs>
     <path id="mf4cc0047d1" d="M 0 5 
C 1.326016 5 2.597899 4.473168 3.535534 3.535534 
C 4.473168 2.597899 5 1.326016 5 0 
C 5 -1.326016 4.473168 -2.597899 3.535534 -3.535534 
C 2.597899 -4.473168 1.326016 -5 0 -5 
C -1.326016 -5 -2.597899 -4.473168 -3.535534 -3.535534 
C -4.473168 -2.597899 -5 -1.326016 -5 0 
C -5 1.326016 -4.473168 2.597899 -3.535534 3.535534 
C -2.597899 4.473168 -1.326016 5 0 5 
z
" style="stroke: #0000ff"/>
    </defs>
    <g clip-path="url(#p13220a2edf)">
     <use xlink:href="#mf4cc0047d1" x="440.984742" y="504.302747" style="fill: #0000ff; stroke: #0000ff"/>
     <use xlink:href="#mf4cc0047d1" x="704.407431" y="383.022788" style="fill: #0000ff; stroke: #0000ff"/>
     <use xlink:href="#mf4cc0047d1" x="665.658139" y="744.380327" style="fill: #0000ff; stroke: #0000ff"/>
     <use xlink:href="#mf4cc0047d1" x="729.037209" y="572.598993" style="fill: #0000ff; stroke: #0000ff"/>
     <use xlink:href="#mf4cc0047d1" x="566.260901" y="647.187078" style="fill: #0000ff; stroke: #0000ff"/>
     <use xlink:href="#mf4cc0047d1" x="933.776725" y="490.210273" style="fill: #0000ff; stroke: #0000ff"/>
     <use xlink:href="#mf4cc0047d1" x="902.261939" y="757.466402" style="fill: #0000ff; stroke: #0000ff"/>
     <use xlink:href="#mf4cc0047d1" x="234.778193" y="584.374701" style="fill: #0000ff; stroke: #0000ff"/>
     <use xlink:href="#mf4cc0047d1" x="112.46281" y="425.560404" style="fill: #0000ff; stroke: #0000ff"/>
     <use xlink:href="#mf4cc0047d1" x="958.144222" y="242.177231" style="fill: #0000ff; stroke: #0000ff"/>
     <use xlink:href="#mf4cc0047d1" x="793.519467" y="99.966942" style="fill: #0000ff; stroke: #0000ff"/>
     <use xlink:href="#mf4cc0047d1" x="862.395735" y="971.26584" style="fill: #0000ff; stroke: #0000ff"/>
     <use xlink:href="#mf4cc0047d1" x="664.900885" y="1052.033058" style="fill: #0000ff; stroke: #0000ff"/>
     <use xlink:href="#mf4cc0047d1" x="234.705999" y="763.749609" style="fill: #0000ff; stroke: #0000ff"/>
     <use xlink:href="#mf4cc0047d1" x="1183.53719" y="289.352379" style="fill: #0000ff; stroke: #0000ff"/>
     <use xlink:href="#mf4cc0047d1" x="1094.364905" y="995.864531" style="fill: #0000ff; stroke: #0000ff"/>
    </g>
   </g>
   <g id="text_1">
    <g clip-path="url(#p13220a2edf)">
     <!-- 3 -->
     <g transform="translate(436.212867 508.44181) scale(0.15 -0.15)">
      <defs>
       <path id="DejaVuSans-33" d="M 2597 2516 
Q 3050 2419 3304 2112 
Q 3559 1806 3559 1356 
Q 3559 666 3084 287 
Q 2609 -91 1734 -91 
Q 1441 -91 1130 -33 
Q 819 25 488 141 
L 488 750 
Q 750 597 1062 519 
Q 1375 441 1716 441 
Q 2309 441 2620 675 
Q 2931 909 2931 1356 
Q 2931 1769 2642 2001 
Q 2353 2234 1838 2234 
L 1294 2234 
L 1294 2753 
L 1863 2753 
Q 2328 2753 2575 2939 
Q 2822 3125 2822 3475 
Q 2822 3834 2567 4026 
Q 2313 4219 1838 4219 
Q 1578 4219 1281 4162 
Q 984 4106 628 3988 
L 628 4550 
Q 988 4650 1302 4700 
Q 1616 4750 1894 4750 
Q 2613 4750 3031 4423 
Q 3450 4097 3450 3541 
Q 3450 3153 3228 2886 
Q 3006 2619 2597 2516 
z
" transform="scale(0.015625)"/>
      </defs>
      <use xlink:href="#DejaVuSans-33"/>
     </g>
    </g>
   </g>
   <g id="text_2">
    <g clip-path="url(#p13220a2edf)">
     <!-- 4 -->
     <g transform="translate(699.635556 387.161851) scale(0.15 -0.15)">
      <defs>
       <path id="DejaVuSans-34" d="M 2419 4116 
L 825 1625 
L 2419 1625 
L 2419 4116 
z
M 2253 4666 
L 3047 4666 
L 3047 1625 
L 3713 1625 
L 3713 1100 
L 3047 1100 
L 3047 0 
L 2419 0 
L 2419 1100 
L 313 1100 
L 313 1709 
L 2253 4666 
z
" transform="scale(0.015625)"/>
      </defs>
      <use xlink:href="#DejaVuSans-34"/>
     </g>
    </g>
   </g>
   <g id="text_3">
    <g clip-path="url(#p13220a2edf)">
     <!-- 5 -->
     <g transform="translate(660.886264 748.519389) scale(0.15 -0.15)">
      <defs>
       <path id="DejaVuSans-35" d="M 691 4666 
L 3169 4666 
L 3169 4134 
L 1269 4134 
L 1269 2991 
Q 1406 3038 1543 3061 
Q 1681 3084 1819 3084 
Q 2600 3084 3056 2656 
Q 3513 2228 3513 1497 
Q 3513 744 3044 326 
Q 2575 -91 1722 -91 
Q 1428 -91 1123 -41 
Q 819 9 494 109 
L 494 744 
Q 775 591 1075 516 
Q 1375 441 1709 441 
Q 2250 441 2565 725 
Q 2881 1009 2881 1497 
Q 2881 1984 2565 2268 
Q 2250 2553 1709 2553 
Q 1456 2553 1204 2497 
Q 953 2441 691 2322 
L 691 4666 
z
" transform="scale(0.015625)"/>
      </defs>
      <use xlink:href="#DejaVuSans-35"/>
     </g>
    </g>
   </g>
   <g id="text_4">
    <g clip-path="url(#p13220a2edf)">
     <!-- 15 -->
     <g transform="translate(719.493459 576.738056) scale(0.15 -0.15)">
      <defs>
       <path id="DejaVuSans-31" d="M 794 531 
L 1825 531 
L 1825 4091 
L 703 3866 
L 703 4441 
L 1819 4666 
L 2450 4666 
L 2450 531 
L 3481 531 
L 3481 0 
L 794 0 
L 794 531 
z
" transform="scale(0.015625)"/>
      </defs>
      <use xlink:href="#DejaVuSans-31"/>
      <use xlink:href="#DejaVuSans-35" x="63.623047"/>
     </g>
    </g>
   </g>
   <g id="text_5">
    <g clip-path="url(#p13220a2edf)">
     <!-- 6 -->
     <g transform="translate(561.489026 651.32614) scale(0.15 -0.15)">
      <defs>
       <path id="DejaVuSans-36" d="M 2113 2584 
Q 1688 2584 1439 2293 
Q 1191 2003 1191 1497 
Q 1191 994 1439 701 
Q 1688 409 2113 409 
Q 2538 409 2786 701 
Q 3034 994 3034 1497 
Q 3034 2003 2786 2293 
Q 2538 2584 2113 2584 
z
M 3366 4563 
L 3366 3988 
Q 3128 4100 2886 4159 
Q 2644 4219 2406 4219 
Q 1781 4219 1451 3797 
Q 1122 3375 1075 2522 
Q 1259 2794 1537 2939 
Q 1816 3084 2150 3084 
Q 2853 3084 3261 2657 
Q 3669 2231 3669 1497 
Q 3669 778 3244 343 
Q 2819 -91 2113 -91 
Q 1303 -91 875 529 
Q 447 1150 447 2328 
Q 447 3434 972 4092 
Q 1497 4750 2381 4750 
Q 2619 4750 2861 4703 
Q 3103 4656 3366 4563 
z
" transform="scale(0.015625)"/>
      </defs>
      <use xlink:href="#DejaVuSans-36"/>
     </g>
    </g>
   </g>
   <g id="text_6">
    <g clip-path="url(#p13220a2edf)">
     <!-- 7 -->
     <g transform="translate(929.00485 494.349335) scale(0.15 -0.15)">
      <defs>
       <path id="DejaVuSans-37" d="M 525 4666 
L 3525 4666 
L 3525 4397 
L 1831 0 
L 1172 0 
L 2766 4134 
L 525 4134 
L 525 4666 
z
" transform="scale(0.015625)"/>
      </defs>
      <use xlink:href="#DejaVuSans-37"/>
     </g>
    </g>
   </g>
   <g id="text_7">
    <g clip-path="url(#p13220a2edf)">
     <!-- 8 -->
     <g transform="translate(897.490064 761.605465) scale(0.15 -0.15)">
      <defs>
       <path id="DejaVuSans-38" d="M 2034 2216 
Q 1584 2216 1326 1975 
Q 1069 1734 1069 1313 
Q 1069 891 1326 650 
Q 1584 409 2034 409 
Q 2484 409 2743 651 
Q 3003 894 3003 1313 
Q 3003 1734 2745 1975 
Q 2488 2216 2034 2216 
z
M 1403 2484 
Q 997 2584 770 2862 
Q 544 3141 544 3541 
Q 544 4100 942 4425 
Q 1341 4750 2034 4750 
Q 2731 4750 3128 4425 
Q 3525 4100 3525 3541 
Q 3525 3141 3298 2862 
Q 3072 2584 2669 2484 
Q 3125 2378 3379 2068 
Q 3634 1759 3634 1313 
Q 3634 634 3220 271 
Q 2806 -91 2034 -91 
Q 1263 -91 848 271 
Q 434 634 434 1313 
Q 434 1759 690 2068 
Q 947 2378 1403 2484 
z
M 1172 3481 
Q 1172 3119 1398 2916 
Q 1625 2713 2034 2713 
Q 2441 2713 2670 2916 
Q 2900 3119 2900 3481 
Q 2900 3844 2670 4047 
Q 2441 4250 2034 4250 
Q 1625 4250 1398 4047 
Q 1172 3844 1172 3481 
z
" transform="scale(0.015625)"/>
      </defs>
      <use xlink:href="#DejaVuSans-38"/>
     </g>
    </g>
   </g>
   <g id="text_8">
    <g clip-path="url(#p13220a2edf)">
     <!-- 0 -->
     <g transform="translate(230.006318 588.513764) scale(0.15 -0.15)">
      <defs>
       <path id="DejaVuSans-30" d="M 2034 4250 
Q 1547 4250 1301 3770 
Q 1056 3291 1056 2328 
Q 1056 1369 1301 889 
Q 1547 409 2034 409 
Q 2525 409 2770 889 
Q 3016 1369 3016 2328 
Q 3016 3291 2770 3770 
Q 2525 4250 2034 4250 
z
M 2034 4750 
Q 2819 4750 3233 4129 
Q 3647 3509 3647 2328 
Q 3647 1150 3233 529 
Q 2819 -91 2034 -91 
Q 1250 -91 836 529 
Q 422 1150 422 2328 
Q 422 3509 836 4129 
Q 1250 4750 2034 4750 
z
" transform="scale(0.015625)"/>
      </defs>
      <use xlink:href="#DejaVuSans-30"/>
     </g>
    </g>
   </g>
   <g id="text_9">
    <g clip-path="url(#p13220a2edf)">
     <!-- 9 -->
     <g transform="translate(107.690935 429.699467) scale(0.15 -0.15)">
      <defs>
       <path id="DejaVuSans-39" d="M 703 97 
L 703 672 
Q 941 559 1184 500 
Q 1428 441 1663 441 
Q 2288 441 2617 861 
Q 2947 1281 2994 2138 
Q 2813 1869 2534 1725 
Q 2256 1581 1919 1581 
Q 1219 1581 811 2004 
Q 403 2428 403 3163 
Q 403 3881 828 4315 
Q 1253 4750 1959 4750 
Q 2769 4750 3195 4129 
Q 3622 3509 3622 2328 
Q 3622 1225 3098 567 
Q 2575 -91 1691 -91 
Q 1453 -91 1209 -44 
Q 966 3 703 97 
z
M 1959 2075 
Q 2384 2075 2632 2365 
Q 2881 2656 2881 3163 
Q 2881 3666 2632 3958 
Q 2384 4250 1959 4250 
Q 1534 4250 1286 3958 
Q 1038 3666 1038 3163 
Q 1038 2656 1286 2365 
Q 1534 2075 1959 2075 
z
" transform="scale(0.015625)"/>
      </defs>
      <use xlink:href="#DejaVuSans-39"/>
     </g>
    </g>
   </g>
   <g id="text_10">
    <g clip-path="url(#p13220a2edf)">
     <!-- 1 -->
     <g transform="translate(953.372347 246.316294) scale(0.15 -0.15)">
      <use xlink:href="#DejaVuSans-31"/>
     </g>
    </g>
   </g>
   <g id="text_11">
    <g clip-path="url(#pd84d152f8b)">
     <!-- 10 -->
     <g transform="translate(783.975717 104.106005) scale(0.15 -0.15)">
      <use xlink:href="#DejaVuSans-31"/>
      <use xlink:href="#DejaVuSans-30" x="63.623047"/>
     </g>
    </g>
   </g>
   <g id="text_12">
    <g clip-path="url(#pd84d152f8b)">
     <!-- 2 -->
     <g transform="translate(857.62386 975.404903) scale(0.15 -0.15)">
      <defs>
       <path id="DejaVuSans-32" d="M 1228 531 
L 3431 531 
L 3431 0 
L 469 0 
L 469 531 
Q 828 903 1448 1529 
Q 2069 2156 2228 2338 
Q 2531 2678 2651 2914 
Q 2772 3150 2772 3378 
Q 2772 3750 2511 3984 
Q 2250 4219 1831 4219 
Q 1534 4219 1204 4116 
Q 875 4013 500 3803 
L 500 4441 
Q 881 4594 1212 4672 
Q 1544 4750 1819 4750 
Q 2544 4750 2975 4387 
Q 3406 4025 3406 3419 
Q 3406 3131 3298 2873 
Q 3191 2616 2906 2266 
Q 2828 2175 2409 1742 
Q 1991 1309 1228 531 
z
" transform="scale(0.015625)"/>
      </defs>
      <use xlink:href="#DejaVuSans-32"/>
     </g>
    </g>
   </g>
   <g id="text_13">
    <g clip-path="url(#pd84d152f8b)">
     <!-- 11 -->
     <g transform="translate(655.357135 1056.17212) scale(0.15 -0.15)">
      <use xlink:href="#DejaVuSans-31"/>
      <use xlink:href="#DejaVuSans-31" x="63.623047"/>
     </g>
    </g>
   </g>
   <g id="text_14">
    <g clip-path="url(#pd84d152f8b)">
     <!-- 12 -->
     <g transform="translate(225.162249 767.888672) scale(0.15 -0.15)">
      <use xlink:href="#DejaVuSans-31"/>
      <use xlink:href="#DejaVuSans-32" x="63.623047"/>
     </g>
    </g>
   </g>
   <g id="text_15">
    <g clip-path="url(#pd84d152f8b)">
     <!-- 13 -->
     <g transform="translate(1173.99344 293.491442) scale(0.15 -0.15)">
      <use xlink:href="#DejaVuSans-31"/>
      <use xlink:href="#DejaVuSans-33" x="63.623047"/>
     </g>
    </g>
   </g>
   <g id="text_16">
    <g clip-path="url(#pd84d152f8b)">
     <!-- 14 -->
     <g transform="translate(1084.821155 1000.003594) scale(0.15 -0.15)">
      <use xlink:href="#DejaVuSans-31"/>
      <use xlink:href="#DejaVuSans-34" x="63.623047"/>
     </g>
    </g>
   </g>
  </g>
 </g>
 <defs>
  <clipPath id="pd84d152f8b">
   <rect x="0" y="0" width="1296" height="1152"/>
  </clipPath>
 </defs>
</svg>
