<?xml version="1.0" encoding="utf-8" standalone="no"?>
<!DOCTYPE svg PUBLIC "-//W3C//DTD SVG 1.1//EN"
  "http://www.w3.org/Graphics/SVG/1.1/DTD/svg11.dtd">
<svg xmlns:xlink="http://www.w3.org/1999/xlink" width="576pt" height="432pt" viewBox="0 0 576 432" xmlns="http://www.w3.org/2000/svg" version="1.1">
 <metadata>
  <rdf:RDF xmlns:dc="http://purl.org/dc/elements/1.1/" xmlns:cc="http://creativecommons.org/ns#" xmlns:rdf="http://www.w3.org/1999/02/22-rdf-syntax-ns#">
   <cc:Work>
    <dc:type rdf:resource="http://purl.org/dc/dcmitype/StillImage"/>
    <dc:date>2025-02-12T21:05:31.344266</dc:date>
    <dc:format>image/svg+xml</dc:format>
    <dc:creator>
     <cc:Agent>
      <dc:title>Matplotlib v3.9.1, https://matplotlib.org/</dc:title>
     </cc:Agent>
    </dc:creator>
   </cc:Work>
  </rdf:RDF>
 </metadata>
 <defs>
  <style type="text/css">*{stroke-linejoin: round; stroke-linecap: butt}</style>
 </defs>
 <g id="figure_1">
  <g id="patch_1">
   <path d="M 0 432 
L 576 432 
L 576 0 
L 0 0 
z
" style="fill: #ffffff"/>
  </g>
  <g id="axes_1">
   <g id="patch_2">
    <path d="M 185.916657 213.646417 
Q 203.461133 244.155081 221.005609 274.663746 
" clip-path="url(#p3c81837519)" style="fill: none; stroke: #808080; stroke-linecap: round"/>
   </g>
   <g id="patch_3">
    <path d="M 193.803309 198.806587 
Q 257.457192 194.23301 321.111074 189.659433 
" clip-path="url(#p3c81837519)" style="fill: none; stroke: #808080; stroke-linecap: round"/>
   </g>
   <g id="patch_4">
    <path d="M 193.828128 200.673281 
Q 229.08248 202.310981 264.336832 203.948682 
" clip-path="url(#p3c81837519)" style="fill: none; stroke: #808080; stroke-linecap: round"/>
   </g>
   <g id="patch_5">
    <path d="M 170.880203 185.841949 
Q 156.734598 157.967206 142.588994 130.092462 
" clip-path="url(#p3c81837519)" style="fill: none; stroke: #808080; stroke-linecap: round"/>
   </g>
   <g id="patch_6">
    <path d="M 162.750926 195.876177 
Q 114.008804 182.917047 65.266682 169.957916 
" clip-path="url(#p3c81837519)" style="fill: none; stroke: #808080; stroke-linecap: round"/>
   </g>
   <g id="patch_7">
    <path d="M 240.498698 277.636724 
Q 282.883647 238.448442 325.268597 199.26016 
" clip-path="url(#p3c81837519)" style="fill: none; stroke: #808080; stroke-linecap: round"/>
   </g>
   <g id="patch_8">
    <path d="M 237.143787 274.888895 
Q 254.509835 246.527128 271.875883 218.165361 
" clip-path="url(#p3c81837519)" style="fill: none; stroke: #808080; stroke-linecap: round"/>
   </g>
   <g id="patch_9">
    <path d="M 239.07007 300.46694 
Q 257.032037 321.805279 274.994003 343.143618 
" clip-path="url(#p3c81837519)" style="fill: none; stroke: #808080; stroke-linecap: round"/>
   </g>
   <g id="patch_10">
    <path d="M 222.977734 303.035088 
Q 207.496868 341.441432 192.016003 379.847776 
" clip-path="url(#p3c81837519)" style="fill: none; stroke: #808080; stroke-linecap: round"/>
   </g>
   <g id="patch_11">
    <path d="M 321.669451 192.856434 
Q 308.505053 196.604381 295.340656 200.352329 
" clip-path="url(#p3c81837519)" style="fill: none; stroke: #808080; stroke-linecap: round"/>
   </g>
   <g id="patch_12">
    <path d="M 349.909009 179.567043 
Q 383.979943 156.141865 418.050876 132.716687 
" clip-path="url(#p3c81837519)" style="fill: none; stroke: #808080; stroke-linecap: round"/>
   </g>
   <g id="patch_13">
    <path d="M 351.44047 182.356782 
Q 408.466429 158.196558 465.492388 134.036334 
" clip-path="url(#p3c81837519)" style="fill: none; stroke: #808080; stroke-linecap: round"/>
   </g>
   <g id="patch_14">
    <path d="M 276.171877 189.371427 
Q 272.933644 176.850096 269.695411 164.328764 
" clip-path="url(#p3c81837519)" style="fill: none; stroke: #808080; stroke-linecap: round"/>
   </g>
   <g id="patch_15">
    <path d="M 290.784325 216.365198 
Q 312.268319 239.926504 333.752313 263.48781 
" clip-path="url(#p3c81837519)" style="fill: none; stroke: #808080; stroke-linecap: round"/>
   </g>
   <g id="patch_16">
    <path d="M 295.865686 203.092404 
Q 339.987618 198.633685 384.109551 194.174966 
" clip-path="url(#p3c81837519)" style="fill: none; stroke: #808080; stroke-linecap: round"/>
   </g>
   <g id="patch_17">
    <path d="M 268.080845 194.446373 
Q 241.37999 171.76632 214.679134 149.086268 
" clip-path="url(#p3c81837519)" style="fill: none; stroke: #808080; stroke-linecap: round"/>
   </g>
   <g id="patch_18">
    <path d="M 275.569705 219.824094 
Q 272.298303 230.682514 269.026901 241.540933 
" clip-path="url(#p3c81837519)" style="fill: none; stroke: #808080; stroke-linecap: round"/>
   </g>
   <g id="patch_19">
    <path d="M 288.240703 191.107543 
Q 303.493213 165.574534 318.745724 140.041525 
" clip-path="url(#p3c81837519)" style="fill: none; stroke: #808080; stroke-linecap: round"/>
   </g>
   <g id="patch_20">
    <path d="M 274.103813 162.439644 
Q 305.071962 212.098329 336.040112 261.757015 
" clip-path="url(#p3c81837519)" style="fill: none; stroke: #808080; stroke-linecap: round"/>
   </g>
   <g id="patch_21">
    <path d="M 280.776873 153.908993 
Q 332.788012 170.804602 384.79915 187.700211 
" clip-path="url(#p3c81837519)" style="fill: none; stroke: #808080; stroke-linecap: round"/>
   </g>
   <g id="patch_22">
    <path d="M 250.407691 145.137674 
Q 200.585867 132.508787 150.764044 119.879899 
" clip-path="url(#p3c81837519)" style="fill: none; stroke: #808080; stroke-linecap: round"/>
   </g>
   <g id="patch_23">
    <path d="M 256.095182 136.488838 
Q 226.212552 97.641505 196.329922 58.794173 
" clip-path="url(#p3c81837519)" style="fill: none; stroke: #808080; stroke-linecap: round"/>
   </g>
   <g id="patch_24">
    <path d="M 353.217078 262.042425 
Q 372.121984 233.877494 391.02689 205.712563 
" clip-path="url(#p3c81837519)" style="fill: none; stroke: #808080; stroke-linecap: round"/>
   </g>
   <g id="patch_25">
    <path d="M 335.000993 287.884759 
Q 314.791889 315.20685 294.582786 342.528941 
" clip-path="url(#p3c81837519)" style="fill: none; stroke: #808080; stroke-linecap: round"/>
   </g>
   <g id="patch_26">
    <path d="M 349.238511 290.225076 
Q 362.423741 331.292783 375.608971 372.36049 
" clip-path="url(#p3c81837519)" style="fill: none; stroke: #808080; stroke-linecap: round"/>
   </g>
   <g id="patch_27">
    <path d="M 406.37238 178.189495 
Q 415.458232 158.172152 424.544085 138.154808 
" clip-path="url(#p3c81837519)" style="fill: none; stroke: #808080; stroke-linecap: round"/>
   </g>
   <g id="patch_28">
    <path d="M 415.437066 190.01673 
Q 462.926369 182.196334 510.415673 174.375938 
" clip-path="url(#p3c81837519)" style="fill: none; stroke: #808080; stroke-linecap: round"/>
   </g>
   <g id="patch_29">
    <path d="M 209.975112 152.849107 
Q 233.546216 197.763462 257.117321 242.677818 
" clip-path="url(#p3c81837519)" style="fill: none; stroke: #808080; stroke-linecap: round"/>
   </g>
   <g id="patch_30">
    <path d="M 218.365453 137.281412 
Q 264.74233 132.657759 311.119208 128.034106 
" clip-path="url(#p3c81837519)" style="fill: none; stroke: #808080; stroke-linecap: round"/>
   </g>
   <g id="patch_31">
    <path d="M 187.663274 133.759873 
Q 169.032235 127.422487 150.401196 121.0851 
" clip-path="url(#p3c81837519)" style="fill: none; stroke: #808080; stroke-linecap: round"/>
   </g>
   <g id="patch_32">
    <path d="M 189.558407 129.945538 
Q 144.70536 99.386753 99.852312 68.827968 
" clip-path="url(#p3c81837519)" style="fill: none; stroke: #808080; stroke-linecap: round"/>
   </g>
   <g id="patch_33">
    <path d="M 271.299199 242.418052 
Q 295.661978 191.570143 320.024756 140.722234 
" clip-path="url(#p3c81837519)" style="fill: none; stroke: #808080; stroke-linecap: round"/>
   </g>
   <g id="patch_34">
    <path d="M 267.717988 272.1558 
Q 274.82236 305.961901 281.926731 339.768001 
" clip-path="url(#p3c81837519)" style="fill: none; stroke: #808080; stroke-linecap: round"/>
   </g>
   <g id="patch_35">
    <path d="M 263.311942 272.445933 
Q 259.439383 325.359672 255.566824 378.273411 
" clip-path="url(#p3c81837519)" style="fill: none; stroke: #808080; stroke-linecap: round"/>
   </g>
   <g id="patch_36">
    <path d="M 342.660157 126.055011 
Q 378.967036 125.112664 415.273915 124.170318 
" clip-path="url(#p3c81837519)" style="fill: none; stroke: #808080; stroke-linecap: round"/>
   </g>
   <g id="patch_37">
    <path d="M 338.119202 115.367453 
Q 372.009313 81.975945 405.899424 48.584436 
" clip-path="url(#p3c81837519)" style="fill: none; stroke: #808080; stroke-linecap: round"/>
   </g>
   <g id="patch_38">
    <path d="M 121.782903 123.966218 
Q 92.709698 140.943942 63.636494 157.921666 
" clip-path="url(#p3c81837519)" style="fill: none; stroke: #808080; stroke-linecap: round"/>
   </g>
   <g id="patch_39">
    <path d="M 144.799462 103.253688 
Q 161.062207 81.129149 177.324952 59.00461 
" clip-path="url(#p3c81837519)" style="fill: none; stroke: #808080; stroke-linecap: round"/>
   </g>
   <g id="patch_40">
    <path d="M 125.074026 104.053815 
Q 111.108566 87.958799 97.143107 71.863783 
" clip-path="url(#p3c81837519)" style="fill: none; stroke: #808080; stroke-linecap: round"/>
   </g>
   <g id="patch_41">
    <path d="M 270.481585 361.068341 
Q 235.643531 374.876976 200.805477 388.685611 
" clip-path="url(#p3c81837519)" style="fill: none; stroke: #808080; stroke-linecap: round"/>
   </g>
   <g id="patch_42">
    <path d="M 300.159536 360.301779 
Q 332.809651 371.327534 365.459766 382.35329 
" clip-path="url(#p3c81837519)" style="fill: none; stroke: #808080; stroke-linecap: round"/>
   </g>
   <g id="patch_43">
    <path d="M 275.356006 367.629969 
Q 269.796826 374.640424 264.237646 381.650879 
" clip-path="url(#p3c81837519)" style="fill: none; stroke: #808080; stroke-linecap: round"/>
   </g>
   <g id="patch_44">
    <path d="M 446.832843 125.081974 
Q 455.564817 125.814587 464.29679 126.5472 
" clip-path="url(#p3c81837519)" style="fill: none; stroke: #808080; stroke-linecap: round"/>
   </g>
   <g id="patch_45">
    <path d="M 445.184767 130.899391 
Q 478.546863 147.783325 511.908959 164.667258 
" clip-path="url(#p3c81837519)" style="fill: none; stroke: #808080; stroke-linecap: round"/>
   </g>
   <g id="patch_46">
    <path d="M 428.559898 108.150087 
Q 424.11975 80.62303 419.679603 53.095973 
" clip-path="url(#p3c81837519)" style="fill: none; stroke: #808080; stroke-linecap: round"/>
   </g>
   <g id="PathCollection_1">
    <defs>
     <path id="m5dad2ef45f" d="M 0 15.811388 
C 4.193229 15.811388 8.215279 14.145401 11.18034 11.18034 
C 14.145401 8.215279 15.811388 4.193229 15.811388 0 
C 15.811388 -4.193229 14.145401 -8.215279 11.18034 -11.18034 
C 8.215279 -14.145401 4.193229 -15.811388 0 -15.811388 
C -4.193229 -15.811388 -8.215279 -14.145401 -11.18034 -11.18034 
C -14.145401 -8.215279 -15.811388 -4.193229 -15.811388 0 
C -15.811388 4.193229 -14.145401 8.215279 -11.18034 11.18034 
C -8.215279 14.145401 -4.193229 15.811388 0 15.811388 
z
" style="stroke: #add8e6"/>
    </defs>
    <g clip-path="url(#p3c81837519)">
     <use xlink:href="#m5dad2ef45f" x="178.034341" y="199.939598" style="fill: #add8e6; stroke: #add8e6"/>
     <use xlink:href="#m5dad2ef45f" x="228.888395" y="288.37138" style="fill: #add8e6; stroke: #add8e6"/>
     <use xlink:href="#m5dad2ef45f" x="336.877729" y="188.526588" style="fill: #add8e6; stroke: #add8e6"/>
     <use xlink:href="#m5dad2ef45f" x="280.131562" y="204.682408" style="fill: #add8e6; stroke: #add8e6"/>
     <use xlink:href="#m5dad2ef45f" x="265.737181" y="149.02341" style="fill: #add8e6; stroke: #add8e6"/>
     <use xlink:href="#m5dad2ef45f" x="344.405127" y="275.170657" style="fill: #add8e6; stroke: #add8e6"/>
     <use xlink:href="#m5dad2ef45f" x="399.838034" y="192.585532" style="fill: #add8e6; stroke: #add8e6"/>
     <use xlink:href="#m5dad2ef45f" x="202.628544" y="138.85034" style="fill: #add8e6; stroke: #add8e6"/>
     <use xlink:href="#m5dad2ef45f" x="264.465778" y="256.680184" style="fill: #add8e6; stroke: #add8e6"/>
     <use xlink:href="#m5dad2ef45f" x="326.855727" y="126.465216" style="fill: #add8e6; stroke: #add8e6"/>
     <use xlink:href="#m5dad2ef45f" x="135.434522" y="115.994155" style="fill: #add8e6; stroke: #add8e6"/>
     <use xlink:href="#m5dad2ef45f" x="49.983471" y="165.894549" style="fill: #add8e6; stroke: #add8e6"/>
     <use xlink:href="#m5dad2ef45f" x="285.178783" y="355.242866" style="fill: #add8e6; stroke: #add8e6"/>
     <use xlink:href="#m5dad2ef45f" x="186.104974" y="394.512397" style="fill: #add8e6; stroke: #add8e6"/>
     <use xlink:href="#m5dad2ef45f" x="431.077816" y="123.760127" style="fill: #add8e6; stroke: #add8e6"/>
     <use xlink:href="#m5dad2ef45f" x="480.049619" y="127.868863" style="fill: #add8e6; stroke: #add8e6"/>
     <use xlink:href="#m5dad2ef45f" x="186.690637" y="46.26313" style="fill: #add8e6; stroke: #add8e6"/>
     <use xlink:href="#m5dad2ef45f" x="380.441603" y="387.412569" style="fill: #add8e6; stroke: #add8e6"/>
     <use xlink:href="#m5dad2ef45f" x="526.016529" y="171.806835" style="fill: #add8e6; stroke: #add8e6"/>
     <use xlink:href="#m5dad2ef45f" x="86.782654" y="59.923492" style="fill: #add8e6; stroke: #add8e6"/>
     <use xlink:href="#m5dad2ef45f" x="254.412892" y="394.040477" style="fill: #add8e6; stroke: #add8e6"/>
     <use xlink:href="#m5dad2ef45f" x="417.161955" y="37.487603" style="fill: #add8e6; stroke: #add8e6"/>
    </g>
   </g>
   <g id="text_1">
    <g clip-path="url(#p3c81837519)">
     <!-- 3 -->
     <g transform="translate(173.262466 204.078661) scale(0.15 -0.15)">
      <defs>
       <path id="DejaVuSans-33" d="M 2597 2516 
Q 3050 2419 3304 2112 
Q 3559 1806 3559 1356 
Q 3559 666 3084 287 
Q 2609 -91 1734 -91 
Q 1441 -91 1130 -33 
Q 819 25 488 141 
L 488 750 
Q 750 597 1062 519 
Q 1375 441 1716 441 
Q 2309 441 2620 675 
Q 2931 909 2931 1356 
Q 2931 1769 2642 2001 
Q 2353 2234 1838 2234 
L 1294 2234 
L 1294 2753 
L 1863 2753 
Q 2328 2753 2575 2939 
Q 2822 3125 2822 3475 
Q 2822 3834 2567 4026 
Q 2313 4219 1838 4219 
Q 1578 4219 1281 4162 
Q 984 4106 628 3988 
L 628 4550 
Q 988 4650 1302 4700 
Q 1616 4750 1894 4750 
Q 2613 4750 3031 4423 
Q 3450 4097 3450 3541 
Q 3450 3153 3228 2886 
Q 3006 2619 2597 2516 
z
" transform="scale(0.015625)"/>
      </defs>
      <use xlink:href="#DejaVuSans-33"/>
     </g>
    </g>
   </g>
   <g id="text_2">
    <g clip-path="url(#p3c81837519)">
     <!-- 4 -->
     <g transform="translate(224.11652 292.510443) scale(0.15 -0.15)">
      <defs>
       <path id="DejaVuSans-34" d="M 2419 4116 
L 825 1625 
L 2419 1625 
L 2419 4116 
z
M 2253 4666 
L 3047 4666 
L 3047 1625 
L 3713 1625 
L 3713 1100 
L 3047 1100 
L 3047 0 
L 2419 0 
L 2419 1100 
L 313 1100 
L 313 1709 
L 2253 4666 
z
" transform="scale(0.015625)"/>
      </defs>
      <use xlink:href="#DejaVuSans-34"/>
     </g>
    </g>
   </g>
   <g id="text_3">
    <g clip-path="url(#p3c81837519)">
     <!-- 5 -->
     <g transform="translate(332.105854 192.66565) scale(0.15 -0.15)">
      <defs>
       <path id="DejaVuSans-35" d="M 691 4666 
L 3169 4666 
L 3169 4134 
L 1269 4134 
L 1269 2991 
Q 1406 3038 1543 3061 
Q 1681 3084 1819 3084 
Q 2600 3084 3056 2656 
Q 3513 2228 3513 1497 
Q 3513 744 3044 326 
Q 2575 -91 1722 -91 
Q 1428 -91 1123 -41 
Q 819 9 494 109 
L 494 744 
Q 775 591 1075 516 
Q 1375 441 1709 441 
Q 2250 441 2565 725 
Q 2881 1009 2881 1497 
Q 2881 1984 2565 2268 
Q 2250 2553 1709 2553 
Q 1456 2553 1204 2497 
Q 953 2441 691 2322 
L 691 4666 
z
" transform="scale(0.015625)"/>
      </defs>
      <use xlink:href="#DejaVuSans-35"/>
     </g>
    </g>
   </g>
   <g id="text_4">
    <g clip-path="url(#p3c81837519)">
     <!-- 21 -->
     <g transform="translate(270.587812 208.82147) scale(0.15 -0.15)">
      <defs>
       <path id="DejaVuSans-32" d="M 1228 531 
L 3431 531 
L 3431 0 
L 469 0 
L 469 531 
Q 828 903 1448 1529 
Q 2069 2156 2228 2338 
Q 2531 2678 2651 2914 
Q 2772 3150 2772 3378 
Q 2772 3750 2511 3984 
Q 2250 4219 1831 4219 
Q 1534 4219 1204 4116 
Q 875 4013 500 3803 
L 500 4441 
Q 881 4594 1212 4672 
Q 1544 4750 1819 4750 
Q 2544 4750 2975 4387 
Q 3406 4025 3406 3419 
Q 3406 3131 3298 2873 
Q 3191 2616 2906 2266 
Q 2828 2175 2409 1742 
Q 1991 1309 1228 531 
z
" transform="scale(0.015625)"/>
       <path id="DejaVuSans-31" d="M 794 531 
L 1825 531 
L 1825 4091 
L 703 3866 
L 703 4441 
L 1819 4666 
L 2450 4666 
L 2450 531 
L 3481 531 
L 3481 0 
L 794 0 
L 794 531 
z
" transform="scale(0.015625)"/>
      </defs>
      <use xlink:href="#DejaVuSans-32"/>
      <use xlink:href="#DejaVuSans-31" x="63.623047"/>
     </g>
    </g>
   </g>
   <g id="text_5">
    <g clip-path="url(#p3c81837519)">
     <!-- 6 -->
     <g transform="translate(260.965306 153.162472) scale(0.15 -0.15)">
      <defs>
       <path id="DejaVuSans-36" d="M 2113 2584 
Q 1688 2584 1439 2293 
Q 1191 2003 1191 1497 
Q 1191 994 1439 701 
Q 1688 409 2113 409 
Q 2538 409 2786 701 
Q 3034 994 3034 1497 
Q 3034 2003 2786 2293 
Q 2538 2584 2113 2584 
z
M 3366 4563 
L 3366 3988 
Q 3128 4100 2886 4159 
Q 2644 4219 2406 4219 
Q 1781 4219 1451 3797 
Q 1122 3375 1075 2522 
Q 1259 2794 1537 2939 
Q 1816 3084 2150 3084 
Q 2853 3084 3261 2657 
Q 3669 2231 3669 1497 
Q 3669 778 3244 343 
Q 2819 -91 2113 -91 
Q 1303 -91 875 529 
Q 447 1150 447 2328 
Q 447 3434 972 4092 
Q 1497 4750 2381 4750 
Q 2619 4750 2861 4703 
Q 3103 4656 3366 4563 
z
" transform="scale(0.015625)"/>
      </defs>
      <use xlink:href="#DejaVuSans-36"/>
     </g>
    </g>
   </g>
   <g id="text_6">
    <g clip-path="url(#p3c81837519)">
     <!-- 7 -->
     <g transform="translate(339.633252 279.30972) scale(0.15 -0.15)">
      <defs>
       <path id="DejaVuSans-37" d="M 525 4666 
L 3525 4666 
L 3525 4397 
L 1831 0 
L 1172 0 
L 2766 4134 
L 525 4134 
L 525 4666 
z
" transform="scale(0.015625)"/>
      </defs>
      <use xlink:href="#DejaVuSans-37"/>
     </g>
    </g>
   </g>
   <g id="text_7">
    <g clip-path="url(#p3c81837519)">
     <!-- 8 -->
     <g transform="translate(395.066159 196.724595) scale(0.15 -0.15)">
      <defs>
       <path id="DejaVuSans-38" d="M 2034 2216 
Q 1584 2216 1326 1975 
Q 1069 1734 1069 1313 
Q 1069 891 1326 650 
Q 1584 409 2034 409 
Q 2484 409 2743 651 
Q 3003 894 3003 1313 
Q 3003 1734 2745 1975 
Q 2488 2216 2034 2216 
z
M 1403 2484 
Q 997 2584 770 2862 
Q 544 3141 544 3541 
Q 544 4100 942 4425 
Q 1341 4750 2034 4750 
Q 2731 4750 3128 4425 
Q 3525 4100 3525 3541 
Q 3525 3141 3298 2862 
Q 3072 2584 2669 2484 
Q 3125 2378 3379 2068 
Q 3634 1759 3634 1313 
Q 3634 634 3220 271 
Q 2806 -91 2034 -91 
Q 1263 -91 848 271 
Q 434 634 434 1313 
Q 434 1759 690 2068 
Q 947 2378 1403 2484 
z
M 1172 3481 
Q 1172 3119 1398 2916 
Q 1625 2713 2034 2713 
Q 2441 2713 2670 2916 
Q 2900 3119 2900 3481 
Q 2900 3844 2670 4047 
Q 2441 4250 2034 4250 
Q 1625 4250 1398 4047 
Q 1172 3844 1172 3481 
z
" transform="scale(0.015625)"/>
      </defs>
      <use xlink:href="#DejaVuSans-38"/>
     </g>
    </g>
   </g>
   <g id="text_8">
    <g clip-path="url(#p3c81837519)">
     <!-- 9 -->
     <g transform="translate(197.856669 142.989403) scale(0.15 -0.15)">
      <defs>
       <path id="DejaVuSans-39" d="M 703 97 
L 703 672 
Q 941 559 1184 500 
Q 1428 441 1663 441 
Q 2288 441 2617 861 
Q 2947 1281 2994 2138 
Q 2813 1869 2534 1725 
Q 2256 1581 1919 1581 
Q 1219 1581 811 2004 
Q 403 2428 403 3163 
Q 403 3881 828 4315 
Q 1253 4750 1959 4750 
Q 2769 4750 3195 4129 
Q 3622 3509 3622 2328 
Q 3622 1225 3098 567 
Q 2575 -91 1691 -91 
Q 1453 -91 1209 -44 
Q 966 3 703 97 
z
M 1959 2075 
Q 2384 2075 2632 2365 
Q 2881 2656 2881 3163 
Q 2881 3666 2632 3958 
Q 2384 4250 1959 4250 
Q 1534 4250 1286 3958 
Q 1038 3666 1038 3163 
Q 1038 2656 1286 2365 
Q 1534 2075 1959 2075 
z
" transform="scale(0.015625)"/>
      </defs>
      <use xlink:href="#DejaVuSans-39"/>
     </g>
    </g>
   </g>
   <g id="text_9">
    <g clip-path="url(#p3c81837519)">
     <!-- 10 -->
     <g transform="translate(254.922028 260.819246) scale(0.15 -0.15)">
      <defs>
       <path id="DejaVuSans-30" d="M 2034 4250 
Q 1547 4250 1301 3770 
Q 1056 3291 1056 2328 
Q 1056 1369 1301 889 
Q 1547 409 2034 409 
Q 2525 409 2770 889 
Q 3016 1369 3016 2328 
Q 3016 3291 2770 3770 
Q 2525 4250 2034 4250 
z
M 2034 4750 
Q 2819 4750 3233 4129 
Q 3647 3509 3647 2328 
Q 3647 1150 3233 529 
Q 2819 -91 2034 -91 
Q 1250 -91 836 529 
Q 422 1150 422 2328 
Q 422 3509 836 4129 
Q 1250 4750 2034 4750 
z
" transform="scale(0.015625)"/>
      </defs>
      <use xlink:href="#DejaVuSans-31"/>
      <use xlink:href="#DejaVuSans-30" x="63.623047"/>
     </g>
    </g>
   </g>
   <g id="text_10">
    <g clip-path="url(#p3c81837519)">
     <!-- 11 -->
     <g transform="translate(317.311977 130.604279) scale(0.15 -0.15)">
      <use xlink:href="#DejaVuSans-31"/>
      <use xlink:href="#DejaVuSans-31" x="63.623047"/>
     </g>
    </g>
   </g>
   <g id="text_11">
    <g clip-path="url(#p3c81837519)">
     <!-- 0 -->
     <g transform="translate(130.662647 120.133218) scale(0.15 -0.15)">
      <use xlink:href="#DejaVuSans-30"/>
     </g>
    </g>
   </g>
   <g id="text_12">
    <g clip-path="url(#p3c81837519)">
     <!-- 12 -->
     <g transform="translate(40.439721 170.033612) scale(0.15 -0.15)">
      <use xlink:href="#DejaVuSans-31"/>
      <use xlink:href="#DejaVuSans-32" x="63.623047"/>
     </g>
    </g>
   </g>
   <g id="text_13">
    <g clip-path="url(#p3c81837519)">
     <!-- 1 -->
     <g transform="translate(280.406908 359.381928) scale(0.15 -0.15)">
      <use xlink:href="#DejaVuSans-31"/>
     </g>
    </g>
   </g>
   <g id="text_14">
    <g clip-path="url(#p3c81837519)">
     <!-- 13 -->
     <g transform="translate(176.561224 398.651459) scale(0.15 -0.15)">
      <use xlink:href="#DejaVuSans-31"/>
      <use xlink:href="#DejaVuSans-33" x="63.623047"/>
     </g>
    </g>
   </g>
   <g id="text_15">
    <g clip-path="url(#p3c81837519)">
     <!-- 2 -->
     <g transform="translate(426.305941 127.899189) scale(0.15 -0.15)">
      <use xlink:href="#DejaVuSans-32"/>
     </g>
    </g>
   </g>
   <g id="text_16">
    <g clip-path="url(#p3c81837519)">
     <!-- 14 -->
     <g transform="translate(470.505869 132.007925) scale(0.15 -0.15)">
      <use xlink:href="#DejaVuSans-31"/>
      <use xlink:href="#DejaVuSans-34" x="63.623047"/>
     </g>
    </g>
   </g>
   <g id="text_17">
    <g clip-path="url(#p3c81837519)">
     <!-- 15 -->
     <g transform="translate(177.146887 50.402193) scale(0.15 -0.15)">
      <use xlink:href="#DejaVuSans-31"/>
      <use xlink:href="#DejaVuSans-35" x="63.623047"/>
     </g>
    </g>
   </g>
   <g id="text_18">
    <g clip-path="url(#p3c81837519)">
     <!-- 16 -->
     <g transform="translate(370.897853 391.551632) scale(0.15 -0.15)">
      <use xlink:href="#DejaVuSans-31"/>
      <use xlink:href="#DejaVuSans-36" x="63.623047"/>
     </g>
    </g>
   </g>
   <g id="text_19">
    <g clip-path="url(#p3c81837519)">
     <!-- 17 -->
     <g transform="translate(516.472779 175.945898) scale(0.15 -0.15)">
      <use xlink:href="#DejaVuSans-31"/>
      <use xlink:href="#DejaVuSans-37" x="63.623047"/>
     </g>
    </g>
   </g>
   <g id="text_20">
    <g clip-path="url(#p3c81837519)">
     <!-- 18 -->
     <g transform="translate(77.238904 64.062555) scale(0.15 -0.15)">
      <use xlink:href="#DejaVuSans-31"/>
      <use xlink:href="#DejaVuSans-38" x="63.623047"/>
     </g>
    </g>
   </g>
   <g id="text_21">
    <g clip-path="url(#p3c81837519)">
     <!-- 19 -->
     <g transform="translate(244.869142 398.179539) scale(0.15 -0.15)">
      <use xlink:href="#DejaVuSans-31"/>
      <use xlink:href="#DejaVuSans-39" x="63.623047"/>
     </g>
    </g>
   </g>
   <g id="text_22">
    <g clip-path="url(#p3c81837519)">
     <!-- 20 -->
     <g transform="translate(407.618205 41.626666) scale(0.15 -0.15)">
      <use xlink:href="#DejaVuSans-32"/>
      <use xlink:href="#DejaVuSans-30" x="63.623047"/>
     </g>
    </g>
   </g>
  </g>
 </g>
 <defs>
  <clipPath id="p3c81837519">
   <rect x="0" y="0" width="576" height="432"/>
  </clipPath>
 </defs>
</svg>
