<?xml version="1.0" encoding="utf-8" standalone="no"?>
<!DOCTYPE svg PUBLIC "-//W3C//DTD SVG 1.1//EN"
  "http://www.w3.org/Graphics/SVG/1.1/DTD/svg11.dtd">
<svg xmlns:xlink="http://www.w3.org/1999/xlink" width="1296pt" height="1152pt" viewBox="0 0 1296 1152" xmlns="http://www.w3.org/2000/svg" version="1.1">
 <metadata>
  <rdf:RDF xmlns:dc="http://purl.org/dc/elements/1.1/" xmlns:cc="http://creativecommons.org/ns#" xmlns:rdf="http://www.w3.org/1999/02/22-rdf-syntax-ns#">
   <cc:Work>
    <dc:type rdf:resource="http://purl.org/dc/dcmitype/StillImage"/>
    <dc:date>2025-02-13T10:46:53.264630</dc:date>
    <dc:format>image/svg+xml</dc:format>
    <dc:creator>
     <cc:Agent>
      <dc:title>Matplotlib v3.9.1, https://matplotlib.org/</dc:title>
     </cc:Agent>
    </dc:creator>
   </cc:Work>
  </rdf:RDF>
 </metadata>
 <defs>
  <style type="text/css">*{stroke-linejoin: round; stroke-linecap: butt}</style>
 </defs>
 <g id="figure_1">
  <g id="patch_1">
   <path d="M 0 1152 
L 1296 1152 
L 1296 0 
L 0 0 
z
" style="fill: #ffffff"/>
  </g>
  <g id="axes_1">
   <g id="patch_2">
    <path d="M 831.545492 306.029592 
Q 694.100712 617.023149 556.655931 928.016706 
" clip-path="url(#pe22595667f)" style="fill: none; stroke: #000000; stroke-linecap: round"/>
   </g>
   <g id="patch_3">
    <path d="M 836.033507 305.808699 
Q 1000.529782 595.885732 1165.026057 885.962764 
" clip-path="url(#pe22595667f)" style="fill: none; stroke: #000000; stroke-linecap: round"/>
   </g>
   <g id="patch_4">
    <path d="M 830.82011 305.638788 
Q 731.720446 456.532982 632.620781 607.427176 
" clip-path="url(#pe22595667f)" style="fill: none; stroke: #000000; stroke-linecap: round"/>
   </g>
   <g id="patch_5">
    <path d="M 830.82011 305.638788 
Q 731.720446 456.532982 632.620781 607.427176 
" clip-path="url(#pe22595667f)" style="fill: none; stroke: #000000; stroke-linecap: round"/>
   </g>
   <g id="patch_6">
    <path d="M 829.019824 299.383854 
Q 612.702726 200.712253 396.385627 102.040652 
" clip-path="url(#pe22595667f)" style="fill: none; stroke: #000000; stroke-linecap: round"/>
   </g>
   <g id="patch_7">
    <path d="M 828.867806 303.168649 
Q 739.405072 335.749523 649.942339 368.330398 
" clip-path="url(#pe22595667f)" style="fill: none; stroke: #000000; stroke-linecap: round"/>
   </g>
   <g id="patch_8">
    <path d="M 828.563812 301.578127 
Q 551.196809 308.260724 273.829806 314.943322 
" clip-path="url(#pe22595667f)" style="fill: none; stroke: #000000; stroke-linecap: round"/>
   </g>
   <g id="patch_9">
    <path d="M 828.793619 302.953652 
Q 622.091262 367.749328 415.388904 432.545004 
" clip-path="url(#pe22595667f)" style="fill: none; stroke: #000000; stroke-linecap: round"/>
   </g>
   <g id="patch_10">
    <path d="M 831.296484 297.003412 
Q 786.526432 209.140685 741.75638 121.277957 
" clip-path="url(#pe22595667f)" style="fill: none; stroke: #000000; stroke-linecap: round"/>
   </g>
   <g id="patch_11">
    <path d="M 828.96221 299.508548 
Q 684.34766 238.285902 539.733109 177.063256 
" clip-path="url(#pe22595667f)" style="fill: none; stroke: #000000; stroke-linecap: round"/>
   </g>
   <g id="patch_12">
    <path d="M 559.624181 932.244882 
Q 861.06581 911.450857 1162.507439 890.656831 
" clip-path="url(#pe22595667f)" style="fill: none; stroke: #000000; stroke-linecap: round"/>
   </g>
   <g id="patch_13">
    <path d="M 555.77578 927.723087 
Q 592.254979 772.099024 628.734178 616.47496 
" clip-path="url(#pe22595667f)" style="fill: none; stroke: #000000; stroke-linecap: round"/>
   </g>
   <g id="patch_14">
    <path d="M 555.77578 927.723087 
Q 592.254979 772.099024 628.734178 616.47496 
" clip-path="url(#pe22595667f)" style="fill: none; stroke: #000000; stroke-linecap: round"/>
   </g>
   <g id="patch_15">
    <path d="M 550.729324 929.466815 
Q 359.087267 776.273931 167.445209 623.081046 
" clip-path="url(#pe22595667f)" style="fill: none; stroke: #000000; stroke-linecap: round"/>
   </g>
   <g id="patch_16">
    <path d="M 552.175961 936.944978 
Q 520.917019 992.313204 489.658077 1047.68143 
" clip-path="url(#pe22595667f)" style="fill: none; stroke: #000000; stroke-linecap: round"/>
   </g>
   <g id="patch_17">
    <path d="M 549.679491 931.948061 
Q 333.551242 903.993857 117.422994 876.039653 
" clip-path="url(#pe22595667f)" style="fill: none; stroke: #000000; stroke-linecap: round"/>
   </g>
   <g id="patch_18">
    <path d="M 549.901675 934.208692 
Q 410.349481 981.959178 270.797287 1029.709664 
" clip-path="url(#pe22595667f)" style="fill: none; stroke: #000000; stroke-linecap: round"/>
   </g>
   <g id="patch_19">
    <path d="M 552.62644 928.013347 
Q 509.644345 830.10457 466.66225 732.195793 
" clip-path="url(#pe22595667f)" style="fill: none; stroke: #000000; stroke-linecap: round"/>
   </g>
   <g id="patch_20">
    <path d="M 550.343044 930.028929 
Q 409.86555 846.239038 269.388056 762.449147 
" clip-path="url(#pe22595667f)" style="fill: none; stroke: #000000; stroke-linecap: round"/>
   </g>
   <g id="patch_21">
    <path d="M 1163.050795 888.010085 
Q 898.681896 750.95939 634.312997 613.908694 
" clip-path="url(#pe22595667f)" style="fill: none; stroke: #000000; stroke-linecap: round"/>
   </g>
   <g id="patch_22">
    <path d="M 1163.050795 888.010085 
Q 898.681896 750.95939 634.312997 613.908694 
" clip-path="url(#pe22595667f)" style="fill: none; stroke: #000000; stroke-linecap: round"/>
   </g>
   <g id="patch_23">
    <path d="M 1165.133672 885.901281 
Q 1059.443496 688.268722 953.75332 490.636163 
" clip-path="url(#pe22595667f)" style="fill: none; stroke: #000000; stroke-linecap: round"/>
   </g>
   <g id="patch_24">
    <path d="M 1166.606716 885.394123 
Q 1156.069245 826.907785 1145.531775 768.421447 
" clip-path="url(#pe22595667f)" style="fill: none; stroke: #000000; stroke-linecap: round"/>
   </g>
   <g id="patch_25">
    <path d="M 1162.578795 889.382931 
Q 978.604838 854.566248 794.63088 819.749566 
" clip-path="url(#pe22595667f)" style="fill: none; stroke: #000000; stroke-linecap: round"/>
   </g>
   <g id="patch_26">
    <path d="M 1162.733715 891.852411 
Q 1040.808035 931.292322 918.882356 970.732233 
" clip-path="url(#pe22595667f)" style="fill: none; stroke: #000000; stroke-linecap: round"/>
   </g>
   <g id="patch_27">
    <path d="M 1167.725877 885.318088 
Q 1175.515065 718.299496 1183.304252 551.280905 
" clip-path="url(#pe22595667f)" style="fill: none; stroke: #000000; stroke-linecap: round"/>
   </g>
   <g id="patch_28">
    <path d="M 1164.211537 886.540872 
Q 1065.959546 773.597713 967.707555 660.654555 
" clip-path="url(#pe22595667f)" style="fill: none; stroke: #000000; stroke-linecap: round"/>
   </g>
   <g id="patch_29">
    <path d="M 627.766564 607.076038 
Q 510.856895 355.786752 393.947226 104.497465 
" clip-path="url(#pe22595667f)" style="fill: none; stroke: #000000; stroke-linecap: round"/>
   </g>
   <g id="patch_30">
    <path d="M 627.766564 607.076038 
Q 510.856895 355.786752 393.947226 104.497465 
" clip-path="url(#pe22595667f)" style="fill: none; stroke: #000000; stroke-linecap: round"/>
   </g>
   <g id="patch_31">
    <path d="M 624.876202 611.69751 
Q 396.70738 615.782458 168.538559 619.867407 
" clip-path="url(#pe22595667f)" style="fill: none; stroke: #000000; stroke-linecap: round"/>
   </g>
   <g id="patch_32">
    <path d="M 624.876202 611.69751 
Q 396.70738 615.782458 168.538559 619.867407 
" clip-path="url(#pe22595667f)" style="fill: none; stroke: #000000; stroke-linecap: round"/>
   </g>
   <g id="patch_33">
    <path d="M 634.533299 609.791511 
Q 790.635902 548.919045 946.738505 488.046579 
" clip-path="url(#pe22595667f)" style="fill: none; stroke: #000000; stroke-linecap: round"/>
   </g>
   <g id="patch_34">
    <path d="M 634.533299 609.791511 
Q 790.635902 548.919045 946.738505 488.046579 
" clip-path="url(#pe22595667f)" style="fill: none; stroke: #000000; stroke-linecap: round"/>
   </g>
   <g id="patch_35">
    <path d="M 630.192304 606.620842 
Q 637.55913 490.82748 644.925955 375.034118 
" clip-path="url(#pe22595667f)" style="fill: none; stroke: #000000; stroke-linecap: round"/>
   </g>
   <g id="patch_36">
    <path d="M 630.192304 606.620842 
Q 637.55913 490.82748 644.925955 375.034118 
" clip-path="url(#pe22595667f)" style="fill: none; stroke: #000000; stroke-linecap: round"/>
   </g>
   <g id="patch_37">
    <path d="M 628.334771 616.362665 
Q 558.53846 831.81961 488.74215 1047.276555 
" clip-path="url(#pe22595667f)" style="fill: none; stroke: #000000; stroke-linecap: round"/>
   </g>
   <g id="patch_38">
    <path d="M 628.334771 616.362665 
Q 558.53846 831.81961 488.74215 1047.276555 
" clip-path="url(#pe22595667f)" style="fill: none; stroke: #000000; stroke-linecap: round"/>
   </g>
   <g id="patch_39">
    <path d="M 634.670354 613.022963 
Q 887.259039 687.553711 1139.847724 762.084458 
" clip-path="url(#pe22595667f)" style="fill: none; stroke: #000000; stroke-linecap: round"/>
   </g>
   <g id="patch_40">
    <path d="M 634.670354 613.022963 
Q 887.259039 687.553711 1139.847724 762.084458 
" clip-path="url(#pe22595667f)" style="fill: none; stroke: #000000; stroke-linecap: round"/>
   </g>
   <g id="patch_41">
    <path d="M 626.010368 608.433794 
Q 449.350463 463.334588 272.690558 318.235383 
" clip-path="url(#pe22595667f)" style="fill: none; stroke: #000000; stroke-linecap: round"/>
   </g>
   <g id="patch_42">
    <path d="M 626.010368 608.433794 
Q 449.350463 463.334588 272.690558 318.235383 
" clip-path="url(#pe22595667f)" style="fill: none; stroke: #000000; stroke-linecap: round"/>
   </g>
   <g id="patch_43">
    <path d="M 625.418243 613.880194 
Q 371.169287 743.502867 116.920331 873.12554 
" clip-path="url(#pe22595667f)" style="fill: none; stroke: #000000; stroke-linecap: round"/>
   </g>
   <g id="patch_44">
    <path d="M 625.418243 613.880194 
Q 371.169287 743.502867 116.920331 873.12554 
" clip-path="url(#pe22595667f)" style="fill: none; stroke: #000000; stroke-linecap: round"/>
   </g>
   <g id="patch_45">
    <path d="M 632.9311 615.569752 
Q 709.797056 715.214578 786.663012 814.859405 
" clip-path="url(#pe22595667f)" style="fill: none; stroke: #000000; stroke-linecap: round"/>
   </g>
   <g id="patch_46">
    <path d="M 632.9311 615.569752 
Q 709.797056 715.214578 786.663012 814.859405 
" clip-path="url(#pe22595667f)" style="fill: none; stroke: #000000; stroke-linecap: round"/>
   </g>
   <g id="patch_47">
    <path d="M 625.990802 608.46232 
Q 520.248868 522.825505 414.506934 437.188689 
" clip-path="url(#pe22595667f)" style="fill: none; stroke: #000000; stroke-linecap: round"/>
   </g>
   <g id="patch_48">
    <path d="M 625.990802 608.46232 
Q 520.248868 522.825505 414.506934 437.188689 
" clip-path="url(#pe22595667f)" style="fill: none; stroke: #000000; stroke-linecap: round"/>
   </g>
   <g id="patch_49">
    <path d="M 626.602513 615.383433 
Q 447.971032 821.466662 269.339551 1027.549891 
" clip-path="url(#pe22595667f)" style="fill: none; stroke: #000000; stroke-linecap: round"/>
   </g>
   <g id="patch_50">
    <path d="M 626.602513 615.383433 
Q 447.971032 821.466662 269.339551 1027.549891 
" clip-path="url(#pe22595667f)" style="fill: none; stroke: #000000; stroke-linecap: round"/>
   </g>
   <g id="patch_51">
    <path d="M 632.969651 615.534619 
Q 771.997938 791.939736 911.026225 968.344854 
" clip-path="url(#pe22595667f)" style="fill: none; stroke: #000000; stroke-linecap: round"/>
   </g>
   <g id="patch_52">
    <path d="M 632.969651 615.534619 
Q 771.997938 791.939736 911.026225 968.344854 
" clip-path="url(#pe22595667f)" style="fill: none; stroke: #000000; stroke-linecap: round"/>
   </g>
   <g id="patch_53">
    <path d="M 630.956304 606.727039 
Q 684.679787 364.216717 738.40327 121.706396 
" clip-path="url(#pe22595667f)" style="fill: none; stroke: #000000; stroke-linecap: round"/>
   </g>
   <g id="patch_54">
    <path d="M 630.956304 606.727039 
Q 684.679787 364.216717 738.40327 121.706396 
" clip-path="url(#pe22595667f)" style="fill: none; stroke: #000000; stroke-linecap: round"/>
   </g>
   <g id="patch_55">
    <path d="M 625.783286 614.481011 
Q 547.264834 669.612473 468.746383 724.743935 
" clip-path="url(#pe22595667f)" style="fill: none; stroke: #000000; stroke-linecap: round"/>
   </g>
   <g id="patch_56">
    <path d="M 625.783286 614.481011 
Q 547.264834 669.612473 468.746383 724.743935 
" clip-path="url(#pe22595667f)" style="fill: none; stroke: #000000; stroke-linecap: round"/>
   </g>
   <g id="patch_57">
    <path d="M 634.838344 611.022435 
Q 906.703234 578.947428 1178.568123 546.872422 
" clip-path="url(#pe22595667f)" style="fill: none; stroke: #000000; stroke-linecap: round"/>
   </g>
   <g id="patch_58">
    <path d="M 634.838344 611.022435 
Q 906.703234 578.947428 1178.568123 546.872422 
" clip-path="url(#pe22595667f)" style="fill: none; stroke: #000000; stroke-linecap: round"/>
   </g>
   <g id="patch_59">
    <path d="M 628.814585 606.722632 
Q 582.501546 393.359959 536.188508 179.997286 
" clip-path="url(#pe22595667f)" style="fill: none; stroke: #000000; stroke-linecap: round"/>
   </g>
   <g id="patch_60">
    <path d="M 628.814585 606.722632 
Q 582.501546 393.359959 536.188508 179.997286 
" clip-path="url(#pe22595667f)" style="fill: none; stroke: #000000; stroke-linecap: round"/>
   </g>
   <g id="patch_61">
    <path d="M 625.241229 613.491608 
Q 447.482687 685.748827 269.724145 758.006047 
" clip-path="url(#pe22595667f)" style="fill: none; stroke: #000000; stroke-linecap: round"/>
   </g>
   <g id="patch_62">
    <path d="M 625.241229 613.491608 
Q 447.482687 685.748827 269.724145 758.006047 
" clip-path="url(#pe22595667f)" style="fill: none; stroke: #000000; stroke-linecap: round"/>
   </g>
   <g id="patch_63">
    <path d="M 634.829243 612.278438 
Q 797.148627 634.244057 959.468011 656.209676 
" clip-path="url(#pe22595667f)" style="fill: none; stroke: #000000; stroke-linecap: round"/>
   </g>
   <g id="patch_64">
    <path d="M 634.829243 612.278438 
Q 797.148627 634.244057 959.468011 656.209676 
" clip-path="url(#pe22595667f)" style="fill: none; stroke: #000000; stroke-linecap: round"/>
   </g>
   <g id="patch_65">
    <path d="M 389.827658 104.549068 
Q 277.687998 359.962474 165.548337 615.375879 
" clip-path="url(#pe22595667f)" style="fill: none; stroke: #000000; stroke-linecap: round"/>
   </g>
   <g id="patch_66">
    <path d="M 395.952711 102.806332 
Q 671.616384 293.097205 947.280056 483.388078 
" clip-path="url(#pe22595667f)" style="fill: none; stroke: #000000; stroke-linecap: round"/>
   </g>
   <g id="patch_67">
    <path d="M 395.259491 103.611978 
Q 518.541707 235.004481 641.823922 366.396984 
" clip-path="url(#pe22595667f)" style="fill: none; stroke: #000000; stroke-linecap: round"/>
   </g>
   <g id="patch_68">
    <path d="M 389.356192 104.309184 
Q 330.333129 207.517396 271.310067 310.725608 
" clip-path="url(#pe22595667f)" style="fill: none; stroke: #000000; stroke-linecap: round"/>
   </g>
   <g id="patch_69">
    <path d="M 392.12013 104.959995 
Q 401.229319 267.003209 410.338509 429.046422 
" clip-path="url(#pe22595667f)" style="fill: none; stroke: #000000; stroke-linecap: round"/>
   </g>
   <g id="patch_70">
    <path d="M 396.833783 100.209074 
Q 565.66174 108.394057 734.489697 116.57904 
" clip-path="url(#pe22595667f)" style="fill: none; stroke: #000000; stroke-linecap: round"/>
   </g>
   <g id="patch_71">
    <path d="M 396.26913 102.290058 
Q 463.484645 137.540769 530.70016 172.79148 
" clip-path="url(#pe22595667f)" style="fill: none; stroke: #000000; stroke-linecap: round"/>
   </g>
   <g id="patch_72">
    <path d="M 168.46895 619.11983 
Q 557.467502 553.093388 946.466054 487.066946 
" clip-path="url(#pe22595667f)" style="fill: none; stroke: #000000; stroke-linecap: round"/>
   </g>
   <g id="patch_73">
    <path d="M 166.532347 623.955579 
Q 325.368337 835.993911 484.204328 1048.032242 
" clip-path="url(#pe22595667f)" style="fill: none; stroke: #000000; stroke-linecap: round"/>
   </g>
   <g id="patch_74">
    <path d="M 162.557392 624.856388 
Q 138.000453 747.674812 113.443513 870.493237 
" clip-path="url(#pe22595667f)" style="fill: none; stroke: #000000; stroke-linecap: round"/>
   </g>
   <g id="patch_75">
    <path d="M 164.745532 624.805968 
Q 214.799635 825.640753 264.853738 1026.475538 
" clip-path="url(#pe22595667f)"  style="fill: none; stroke: #000000; stroke-linecap: round"/>
   </g>
   <g id="patch_76">
    <path d="M 642.701767 223.765503 
Q 630.93949 301.722479 619.177213 379.679455 
" clip-path="url(#pc43c639e26)" style="fill: none; stroke: #000000; stroke-linecap: round"/>
   </g>
   <g id="patch_77">
    <path d="M 648.140713 220.537332 
Q 840.966423 291.127117 1033.792133 361.716903 
" clip-path="url(#pc43c639e26)" style="fill: none; stroke: #000000; stroke-linecap: round"/>
   </g>
   <g id="patch_78">
    <path d="M 117.404628 559.931002 
Q 271.061265 582.63568 424.717903 605.340358 
" clip-path="url(#pc43c639e26)" style="fill: none; stroke: #000000; stroke-linecap: round"/>
   </g>
   <g id="patch_79">
    <path d="M 115.123799 563.436562 
Q 228.184483 743.407158 341.245168 923.377755 
" clip-path="url(#pc43c639e26)" style="fill: none; stroke: #000000; stroke-linecap: round"/>
   </g>
   <g id="patch_80">
    <path d="M 113.723269 564.037722 
Q 128.918065 622.346843 144.112862 680.655964 
" clip-path="url(#pc43c639e26)" style="fill: none; stroke: #000000; stroke-linecap: round"/>
   </g>
   <g id="patch_81">
    <path d="M 113.903951 563.99294 
Q 154.069258 697.552579 194.234564 831.112218 
" clip-path="url(#pc43c639e26)" style="fill: none; stroke: #000000; stroke-linecap: round"/>
   </g>
   <g id="patch_82">
    <path d="M 116.620078 561.977205 
Q 302.588704 686.175745 488.557329 810.374286 
" clip-path="url(#pc43c639e26)" style="fill: none; stroke: #000000; stroke-linecap: round"/>
   </g>
   <g id="patch_83">
    <path d="M 1181.570457 714.810669 
Q 1075.496334 466.876426 969.42221 218.942183 
" clip-path="url(#pc43c639e26)" style="fill: none; stroke: #000000; stroke-linecap: round"/>
   </g>
   <g id="patch_84">
    <path d="M 1178.593723 718.664452 
Q 806.603777 662.739899 434.613831 606.815346 
" clip-path="url(#pc43c639e26)" style="fill: none; stroke: #000000; stroke-linecap: round"/>
   </g>
   <g id="patch_85">
    <path d="M 1180.41335 723.313215 
Q 1050.512863 885.72071 920.612377 1048.128206 
" clip-path="url(#pc43c639e26)" style="fill: none; stroke: #000000; stroke-linecap: round"/>
   </g>
   <g id="patch_86">
    <path d="M 1178.54365 719.739746 
Q 1029.312962 729.664432 880.082274 739.589118 
" clip-path="url(#pc43c639e26)" style="fill: none; stroke: #000000; stroke-linecap: round"/>
   </g>
   <g id="patch_87">
    <path d="M 1179.605377 722.493157 
Q 1051.734354 822.840571 923.863332 923.187984 
" clip-path="url(#pc43c639e26)" style="fill: none; stroke: #000000; stroke-linecap: round"/>
   </g>
   <g id="patch_88">
    <path d="M 1183.043308 724.381311 
Q 1174.775179 807.645842 1166.50705 890.910373 
" clip-path="url(#pc43c639e26)" style="fill: none; stroke: #000000; stroke-linecap: round"/>
   </g>
   <g id="patch_89">
    <path d="M 963.413535 217.294139 
Q 698.561821 410.211058 433.710107 603.127977 
" clip-path="url(#pc43c639e26)" style="fill: none; stroke: #000000; stroke-linecap: round"/>
   </g>
   <g id="patch_90">
    <path d="M 965.120628 218.773197 
Q 905.363351 331.932079 845.606073 445.090961 
" clip-path="url(#pc43c639e26)" style="fill: none; stroke: #000000; stroke-linecap: round"/>
   </g>
   <g id="patch_91">
    <path d="M 962.458286 214.334427 
Q 723.163097 213.643331 483.867908 212.952235 
" clip-path="url(#pc43c639e26)" style="fill: none; stroke: #000000; stroke-linecap: round"/>
   </g>
   <g id="patch_92">
    <path d="M 962.964807 216.540424 
Q 792.944203 299.485826 622.9236 382.431228 
" clip-path="url(#pc43c639e26)" style="fill: none; stroke: #000000; stroke-linecap: round"/>
   </g>
   <g id="patch_93">
    <path d="M 969.608497 218.864525 
Q 1002.97336 288.893635 1036.338224 358.922746 
" clip-path="url(#pc43c639e26)" style="fill: none; stroke: #000000; stroke-linecap: round"/>
   </g>
   <g id="patch_94">
    <path d="M 428.380111 610.902094 
Q 386.785984 766.840613 345.191856 922.779132 
" clip-path="url(#pc43c639e26)" style="fill: none; stroke: #000000; stroke-linecap: round"/>
   </g>
   <g id="patch_95">
    <path d="M 424.848979 607.418257 
Q 287.518447 645.783112 150.187915 684.147966 
" clip-path="url(#pc43c639e26)" style="fill: none; stroke: #000000; stroke-linecap: round"/>
   </g>
   <g id="patch_96">
    <path d="M 426.099836 609.577082 
Q 312.672135 720.988079 199.244435 832.399076 
" clip-path="url(#pc43c639e26)" style="fill: none; stroke: #000000; stroke-linecap: round"/>
   </g>
   <g id="patch_97">
    <path d="M 431.124024 610.852612 
Q 461.191662 709.611063 491.259299 808.369513 
" clip-path="url(#pc43c639e26)" style="fill: none; stroke: #000000; stroke-linecap: round"/>
   </g>
   <g id="patch_98">
    <path d="M 916.878151 1047.073014 
Q 880.381204 750.773664 843.884257 454.474314 
" clip-path="url(#pc43c639e26)" style="fill: none; stroke: #000000; stroke-linecap: round"/>
   </g>
   <g id="patch_99">
    <path d="M 912.600993 1050.972714 
Q 630.697165 989.821359 348.793337 928.670003 
" clip-path="url(#pc43c639e26)" style="fill: none; stroke: #000000; stroke-linecap: round"/>
   </g>
   <g id="patch_100">
    <path d="M 916.815711 1047.075342 
Q 896.292045 895.975032 875.76838 744.874722 
" clip-path="url(#pc43c639e26)" style="fill: none; stroke: #000000; stroke-linecap: round"/>
   </g>
   <g id="patch_101">
    <path d="M 917.586198 1047.032328 
Q 918.709917 989.153662 919.833636 931.274995 
" clip-path="url(#pc43c639e26)" style="fill: none; stroke: #000000; stroke-linecap: round"/>
   </g>
   <g id="patch_102">
    <path d="M 921.724967 1049.371663 
Q 1041.753632 973.957516 1161.782296 898.543369 
" clip-path="url(#pc43c639e26)" style="fill: none; stroke: #000000; stroke-linecap: round"/>
   </g>
   <g id="patch_103">
    <path d="M 839.662847 452.965623 
Q 593.588292 688.559215 347.513736 924.152807 
" clip-path="url(#pc43c639e26)" style="fill: none; stroke: #000000; stroke-linecap: round"/>
   </g>
   <g id="patch_104">
    <path d="M 839.077417 446.785918 
Q 661.071261 331.224033 483.065104 215.662147 
" clip-path="url(#pc43c639e26)" style="fill: none; stroke: #000000; stroke-linecap: round"/>
   </g>
   <g id="patch_105">
    <path d="M 838.466152 448.122391 
Q 730.851019 417.065859 623.235885 386.009327 
" clip-path="url(#pc43c639e26)" style="fill: none; stroke: #000000; stroke-linecap: round"/>
   </g>
   <g id="patch_106">
    <path d="M 847.845107 447.493481 
Q 940.878946 406.473614 1033.912786 365.453748 
" clip-path="url(#pc43c639e26)" style="fill: none; stroke: #000000; stroke-linecap: round"/>
   </g>
   <g id="patch_107">
    <path d="M 340.731781 923.741246 
Q 244.636926 806.549314 148.542072 689.357382 
" clip-path="url(#pc43c639e26)" style="fill: none; stroke: #000000; stroke-linecap: round"/>
   </g>
   <g id="patch_108">
    <path d="M 339.653611 924.979988 
Q 269.790185 881.757186 199.926758 838.534383 
" clip-path="url(#pc43c639e26)" style="fill: none; stroke: #000000; stroke-linecap: round"/>
   </g>
   <g id="patch_109">
    <path d="M 347.865833 924.561651 
Q 418.308979 870.380373 488.752125 816.199095 
" clip-path="url(#pc43c639e26)" style="fill: none; stroke: #000000; stroke-linecap: round"/>
   </g>
   <g id="patch_110">
    <path d="M 872.092172 735.92634 
Q 676.981935 476.429106 481.871698 216.931873 
" clip-path="url(#pc43c639e26)" style="fill: none; stroke: #000000; stroke-linecap: round"/>
   </g>
   <g id="patch_111">
    <path d="M 870.109942 739.54891 
Q 510.233973 712.706837 150.358005 685.864764 
" clip-path="url(#pc43c639e26)" style="fill: none; stroke: #000000; stroke-linecap: round"/>
   </g>
   <g id="patch_112">
    <path d="M 876.264674 744.780354 
Q 897.513031 833.097107 918.761388 921.41386 
" clip-path="url(#pc43c639e26)" style="fill: none; stroke: #000000; stroke-linecap: round"/>
   </g>
   <g id="patch_113">
    <path d="M 879.50125 742.282747 
Q 1020.555939 817.903866 1161.610628 893.524985 
" clip-path="url(#pc43c639e26)" style="fill: none; stroke: #000000; stroke-linecap: round"/>
   </g>
   <g id="patch_114">
    <path d="M 475.985873 217.022613 
Q 312.121143 449.215169 148.256413 681.407725 
" clip-path="url(#pc43c639e26)" style="fill: none; stroke: #000000; stroke-linecap: round"/>
   </g>
   <g id="patch_115"      <path d="M 482.022516 216.81758 
Q 548.650249 298.780604 615.277982 380.743628 
" clip-path="url(#pc43c639e26)" style="fill: none; stroke: #000000; stroke-linecap: round"/>
   </g>
   <g id="patch_116">
    <path d="M 483.697515 214.236424 
Q 758.678304 288.186909 1033.659092 362.137394 
" clip-path="url(#pc43c639e26)" style="fill: none; stroke: #000000; stroke-linecap: round"/>
   </g>
   <g id="patch_117">
    <path d="M 146.959105 690.234641 
Q 170.524242 760.697832 194.089379 831.161023 
" clip-path="url(#pc43c639e26)" style="fill: none; stroke: #000000; stroke-linecap: round"/>
   </g>
   <g id="patch_118">
    <path d="M 150.066502 687.217845 
Q 319.044534 749.322115 488.022565 811.426386 
" clip-path="url(#pc43c639e26)" style="fill: none; stroke: #000000; stroke-linecap: round"/>
   </g>
   <g id="patch_119">
    <path d="M 917.499356 921.906091 
Q 769.180364 655.447237 620.861372 388.988383 
" clip-path="url(#pc43c639e26)" style="fill: none; stroke: #000000; stroke-linecap: round"/>
   </g>
   <g id="patch_120">
    <path d="M 914.971478 925.655317 
Q 557.805444 881.089514 200.639409 836.52371 
" clip-path="url(#pc43c639e26)" style="fill: none; stroke: #000000; stroke-linecap: round"/>
   </g>
   <g id="patch_121">
    <path d="M 924.890976 925.661568 
Q 1042.970374 911.079833 1161.049771 896.498099 
" clip-path="url(#pc43c639e26)" style="fill: none; stroke: #000000; stroke-linecap: round"/>
   </g>
   <g id="patch_122">
    <path d="M 615.015687 388.268935 
Q 407.055726 610.261229 199.095764 832.253523 
" clip-path="url(#pc43c639e26)" style="fill: none; stroke: #000000; stroke-linecap: round"/>
   </g>
   <g id="patch_123">
    <path d="M 623.42761 384.370794 
Q 828.461203 374.029434 1033.494796 363.688074 
" clip-path="url(#pc43c639e26)" style="fill: none; stroke: #000000; stroke-linecap: round"/>
   </g>
   <g id="patch_124">
    <path d="M 200.656876 835.522798 
Q 344.19258 824.527899 487.728284 813.533 
" clip-path="url(#pc43c639e26)" style="fill: none; stroke: #000000; stroke-linecap: round"/>
   </g>
   <g id="patch_125">
    <path d="M 1164.848452 891.022649 
Q 1102.251306 629.662636 1039.654161 368.302623 
" clip-path="url(#pc43c639e26)" style="fill: none; stroke: #000000; stroke-linecap: round"/>
   </g>
   <g id="patch_126">
    <path d="M 1161.048283 895.275112 
Q 829.363597 854.518038 497.678911 813.760964 
" clip-path="url(#pc43c639e26)" style="fill: none; stroke: #000000; stroke-linecap: round"/>
   </g>
   <g id="patch_127">
    <path d="M 1034.630752 366.615068 
Q 765.602677 588.292916 496.574601 809.970764 
" clip-path="url(#pc43c639e26)" style="fill: none; stroke: #000000; stroke-linecap: round"/>
   </g>
   <g id="PathCollection_1">
    <defs>
     <path id="m30dcc3982f" d="M 0 5 
C 1.326016 5 2.597899 4.473168 3.535534 3.535534 
C 4.473168 2.597899 5 1.326016 5 0 
C 5 -1.326016 4.473168 -2.597899 3.535534 -3.535534 
C 2.597899 -4.473168 1.326016 -5 0 -5 
C -1.326016 -5 -2.597899 -4.473168 -3.535534 -3.535534 
C -4.473168 -2.597899 -5 -1.326016 -5 0 
C -5 1.326016 -4.473168 2.597899 -3.535534 3.535534 
C -2.597899 4.473168 -1.326016 5 0 5 
z
" style="stroke: #0000ff"/>
    </defs>
    <g clip-path="url(#pc43c639e26)">
     <use xlink:href="#m30dcc3982f" x="1060.444594" y="602.283684" style="fill: #0000ff; stroke: #0000ff"/>
     <use xlink:href="#m30dcc3982f" x="796.298938" y="99.966942" style="fill: #0000ff; stroke: #0000ff"/>
     <use xlink:href="#m30dcc3982f" x="297.316861" y="451.493706" style="fill: #0000ff; stroke: #0000ff"/>
     <use xlink:href="#m30dcc3982f" x="676.248067" y="603.730126" style="fill: #0000ff; stroke: #0000ff"/>
     <use xlink:href="#m30dcc3982f" x="732.897705" y="869.385876" style="fill: #0000ff; stroke: #0000ff"/>
     <use xlink:href="#m30dcc3982f" x="643.448038" y="218.819434" style="fill: #0000ff; stroke: #0000ff"/>
     <use xlink:href="#m30dcc3982f" x="112.46281" y="559.200786" style="fill: #0000ff; stroke: #0000ff"/>
     <use xlink:href="#m30dcc3982f" x="1183.53719" y="719.407648" style="fill: #0000ff; stroke: #0000ff"/>
     <use xlink:href="#m30dcc3982f" x="967.457043" y="214.348864" style="fill: #0000ff; stroke: #0000ff"/>
     <use xlink:href="#m30dcc3982f" x="429.668497" y="606.07187" style="fill: #0000ff; stroke: #0000ff"/>
     <use xlink:href="#m30dcc3982f" x="917.489109" y="1052.033058" style="fill: #0000ff; stroke: #0000ff"/>
     <use xlink:href="#m30dcc3982f" x="843.272713" y="449.509511" style="fill: #0000ff; stroke: #0000ff"/>
     <use xlink:href="#m30dcc3982f" x="343.903489" y="927.609284" style="fill: #0000ff; stroke: #0000ff"/>
     <use xlink:href="#m30dcc3982f" x="875.095493" y="739.920767" style="fill: #0000ff; stroke: #0000ff"/>
     <use xlink:href="#m30dcc3982f" x="478.868641" y="212.937797" style="fill: #0000ff; stroke: #0000ff"/>
     <use xlink:href="#m30dcc3982f" x="145.37334" y="685.492973" style="fill: #0000ff; stroke: #0000ff"/>
     <use xlink:href="#m30dcc3982f" x="919.930729" y="926.274113" style="fill: #0000ff; stroke: #0000ff"/>
     <use xlink:href="#m30dcc3982f" x="618.431354" y="384.622792" style="fill: #0000ff; stroke: #0000ff"/>
     <use xlink:href="#m30dcc3982f" x="195.675702" y="835.904358" style="fill: #0000ff; stroke: #0000ff"/>
     <use xlink:href="#m30dcc3982f" x="1166.013054" y="895.885178" style="fill: #0000ff; stroke: #0000ff"/>
     <use xlink:href="#m30dcc3982f" x="1038.488626" y="363.436199" style="fill: #0000ff; stroke: #0000ff"/>
     <use xlink:href="#m30dcc3982f" x="492.715056" y="813.151011" style="fill: #0000ff; stroke: #0000ff"/>
    </g>
   </g>
   <g id="text_1">
    <g clip-path="url(#pc43c639e26)">
     <!-- 0 -->
     <g transform="translate(1055.672719 606.422747) scale(0.15 -0.15)">
      <defs>
       <path id="DejaVuSans-30" d="M 2034 4250 
Q 1547 4250 1301 3770 
Q 1056 3291 1056 2328 
Q 1056 1369 1301 889 
Q 1547 409 2034 409 
Q 2525 409 2770 889 
Q 3016 1369 3016 2328 
Q 3016 3291 2770 3770 
Q 2525 4250 2034 4250 
z
M 2034 4750 
Q 2819 4750 3233 4129 
Q 3647 3509 3647 2328 
Q 3647 1150 3233 529 
Q 2819 -91 2034 -91 
Q 1250 -91 836 529 
Q 422 1150 422 2328 
Q 422 3509 836 4129 
Q 1250 4750 2034 4750 
z
" transform="scale(0.015625)"/>
      </defs>
      <use xlink:href="#DejaVuSans-30"/>
     </g>
    </g>
   </g>
   <g id="text_2">
    <g clip-path="url(#pc43c639e26)">
     <!-- 1 -->
     <g transform="translate(791.527063 104.106005) scale(0.15 -0.15)">
      <defs>
       <path id="DejaVuSans-31" d="M 794 531 
L 1825 531 
L 1825 4091 
L 703 3866 
L 703 4441 
L 1819 4666 
L 2450 4666 
L 2450 531 
L 3481 531 
L 3481 0 
L 794 0 
L 794 531 
z
" transform="scale(0.015625)"/>
      </defs>
      <use xlink:href="#DejaVuSans-31"/>
     </g>
    </g>
   </g>
   <g id="text_3">
    <g clip-path="url(#pc43c639e26)">
     <!-- 2 -->
     <g transform="translate(292.544986 455.632768) scale(0.15 -0.15)">
      <defs>
       <path id="DejaVuSans-32" d="M 1228 531 
L 3431 531 
L 3431 0 
L 469 0 
L 469 531 
Q 828 903 1448 1529 
Q 2069 2156 2228 2338 
Q 2531 2678 2651 2914 
Q 2772 3150 2772 3378 
Q 2772 3750 2511 3984 
Q 2250 4219 1831 4219 
Q 1534 4219 1204 4116 
Q 875 4013 500 3803 
L 500 4441 
Q 881 4594 1212 4672 
Q 1544 4750 1819 4750 
Q 2544 4750 2975 4387 
Q 3406 4025 3406 3419 
Q 3406 3131 3298 2873 
Q 3191 2616 2906 2266 
Q 2828 2175 2409 1742 
Q 1991 1309 1228 531 
z
" transform="scale(0.015625)"/>
      </defs>
      <use xlink:href="#DejaVuSans-32"/>
     </g>
    </g>
   </g>
   <g id="text_4">
    <g clip-path="url(#pc43c639e26)">
     <!-- 21 -->
     <g transform="translate(666.704317 607.869188) scale(0.15 -0.15)">
      <use xlink:href="#DejaVuSans-32"/>
      <use xlink:href="#DejaVuSans-31" x="63.623047"/>
     </g>
    </g>
   </g>
   <g id="text_5">
    <g clip-path="url(#pc43c639e26)">
     <!-- 3 -->
     <g transform="translate(728.12583 873.524938) scale(0.15 -0.15)">
      <defs>
       <path id="DejaVuSans-33" d="M 2597 2516 
Q 3050 2419 3304 2112 
Q 3559 1806 3559 1356 
Q 3559 666 3084 287 
Q 2609 -91 1734 -91 
Q 1441 -91 1130 -33 
Q 819 25 488 141 
L 488 750 
Q 750 597 1062 519 
Q 1375 441 1716 441 
Q 2309 441 2620 675 
Q 2931 909 2931 1356 
Q 2931 1769 2642 2001 
Q 2353 2234 1838 2234 
L 1294 2234 
L 1294 2753 
L 1863 2753 
Q 2328 2753 2575 2939 
Q 2822 3125 2822 3475 
Q 2822 3834 2567 4026 
Q 2313 4219 1838 4219 
Q 1578 4219 1281 4162 
Q 984 4106 628 3988 
L 628 4550 
Q 988 4650 1302 4700 
Q 1616 4750 1894 4750 
Q 2613 4750 3031 4423 
Q 3450 4097 3450 3541 
Q 3450 3153 3228 2886 
Q 3006 2619 2597 2516 
z
" transform="scale(0.015625)"/>
      </defs>
      <use xlink:href="#DejaVuSans-33"/>
     </g>
    </g>
   </g>
   <g id="text_6">
    <g clip-path="url(#pc43c639e26)">
     <!-- 4 -->
     <g transform="translate(638.676163 222.958496) scale(0.15 -0.15)">
      <defs>
       <path id="DejaVuSans-34" d="M 2419 4116 
L 825 1625 
L 2419 1625 
L 2419 4116 
z
M 2253 4666 
L 3047 4666 
L 3047 1625 
L 3713 1625 
L 3713 1100 
L 3047 1100 
L 3047 0 
L 2419 0 
L 2419 1100 
L 313 1100 
L 313 1709 
L 2253 4666 
z
" transform="scale(0.015625)"/>
      </defs>
      <use xlink:href="#DejaVuSans-34"/>
     </g>
    </g>
   </g>
   <g id="text_7">
    <g clip-path="url(#pc43c639e26)">
     <!-- 5 -->
     <g transform="translate(107.690935 563.339849) scale(0.15 -0.15)">
      <defs>
       <path id="DejaVuSans-35" d="M 691 4666 
L 3169 4666 
L 3169 4134 
L 1269 4134 
L 1269 2991 
Q 1406 3038 1543 3061 
Q 1681 3084 1819 3084 
Q 2600 3084 3056 2656 
Q 3513 2228 3513 1497 
Q 3513 744 3044 326 
Q 2575 -91 1722 -91 
Q 1428 -91 1123 -41 
Q 819 9 494 109 
L 494 744 
Q 775 591 1075 516 
Q 1375 441 1709 441 
Q 2250 441 2565 725 
Q 2881 1009 2881 1497 
Q 2881 1984 2565 2268 
Q 2250 2553 1709 2553 
Q 1456 2553 1204 2497 
Q 953 2441 691 2322 
L 691 4666 
z
" transform="scale(0.015625)"/>
      </defs>
      <use xlink:href="#DejaVuSans-35"/>
     </g>
    </g>
   </g>
   <g id="text_8">
    <g clip-path="url(#pc43c639e26)">
     <!-- 6 -->
     <g transform="translate(1178.765315 723.54671) scale(0.15 -0.15)">
      <defs>
       <path id="DejaVuSans-36" d="M 2113 2584 
Q 1688 2584 1439 2293 
Q 1191 2003 1191 1497 
Q 1191 994 1439 701 
Q 1688 409 2113 409 
Q 2538 409 2786 701 
Q 3034 994 3034 1497 
Q 3034 2003 2786 2293 
Q 2538 2584 2113 2584 
z
M 3366 4563 
L 3366 3988 
Q 3128 4100 2886 4159 
Q 2644 4219 2406 4219 
Q 1781 4219 1451 3797 
Q 1122 3375 1075 2522 
Q 1259 2794 1537 2939 
Q 1816 3084 2150 3084 
Q 2853 3084 3261 2657 
Q 3669 2231 3669 1497 
Q 3669 778 3244 343 
Q 2819 -91 2113 -91 
Q 1303 -91 875 529 
Q 447 1150 447 2328 
Q 447 3434 972 4092 
Q 1497 4750 2381 4750 
Q 2619 4750 2861 4703 
Q 3103 4656 3366 4563 
z
" transform="scale(0.015625)"/>
      </defs>
      <use xlink:href="#DejaVuSans-36"/>
     </g>
    </g>
   </g>
   <g id="text_9">
    <g clip-path="url(#pc43c639e26)">
     <!-- 7 -->
     <g transform="translate(962.685168 218.487927) scale(0.15 -0.15)">
      <defs>
       <path id="DejaVuSans-37" d="M 525 4666 
L 3525 4666 
L 3525 4397 
L 1831 0 
L 1172 0 
L 2766 4134 
L 525 4134 
L 525 4666 
z
" transform="scale(0.015625)"/>
      </defs>
      <use xlink:href="#DejaVuSans-37"/>
     </g>
    </g>
   </g>
   <g id="text_10">
    <g clip-path="url(#pc43c639e26)">
     <!-- 8 -->
     <g transform="translate(424.896622 610.210932) scale(0.15 -0.15)">
      <defs>
       <path id="DejaVuSans-38" d="M 2034 2216 
Q 1584 2216 1326 1975 
Q 1069 1734 1069 1313 
Q 1069 891 1326 650 
Q 1584 409 2034 409 
Q 2484 409 2743 651 
Q 3003 894 3003 1313 
Q 3003 1734 2745 1975 
Q 2488 2216 2034 2216 
z
M 1403 2484 
Q 997 2584 770 2862 
Q 544 3141 544 3541 
Q 544 4100 942 4425 
Q 1341 4750 2034 4750 
Q 2731 4750 3128 4425 
Q 3525 4100 3525 3541 
Q 3525 3141 3298 2862 
Q 3072 2584 2669 2484 
Q 3125 2378 3379 2068 
Q 3634 1759 3634 1313 
Q 3634 634 3220 271 
Q 2806 -91 2034 -91 
Q 1263 -91 848 271 
Q 434 634 434 1313 
Q 434 1759 690 2068 
Q 947 2378 1403 2484 
z
M 1172 3481 
Q 1172 3119 1398 2916 
Q 1625 2713 2034 2713 
Q 2441 2713 2670 2916 
Q 2900 3119 2900 3481 
Q 2900 3844 2670 4047 
Q 2441 4250 2034 4250 
Q 1625 4250 1398 4047 
Q 1172 3844 1172 3481 
z
" transform="scale(0.015625)"/>
      </defs>
      <use xlink:href="#DejaVuSans-38"/>
     </g>
    </g>
   </g>
   <g id="text_11">
    <g clip-path="url(#pc43c639e26)">
     <!-- 9 -->
     <g transform="translate(912.717234 1056.17212) scale(0.15 -0.15)">
      <defs>
       <path id="DejaVuSans-39" d="M 703 97 
L 703 672 
Q 941 559 1184 500 
Q 1428 441 1663 441 
Q 2288 441 2617 861 
Q 2947 1281 2994 2138 
Q 2813 1869 2534 1725 
Q 2256 1581 1919 1581 
Q 1219 1581 811 2004 
Q 403 2428 403 3163 
Q 403 3881 828 4315 
Q 1253 4750 1959 4750 
Q 2769 4750 3195 4129 
Q 3622 3509 3622 2328 
Q 3622 1225 3098 567 
Q 2575 -91 1691 -91 
Q 1453 -91 1209 -44 
Q 966 3 703 97 
z
M 1959 2075 
Q 2384 2075 2632 2365 
Q 2881 2656 2881 3163 
Q 2881 3666 2632 3958 
Q 2384 4250 1959 4250 
Q 1534 4250 1286 3958 
Q 1038 3666 1038 3163 
Q 1038 2656 1286 2365 
Q 1534 2075 1959 2075 
z
" transform="scale(0.015625)"/>
      </defs>
      <use xlink:href="#DejaVuSans-39"/>
     </g>
    </g>
   </g>
   <g id="text_12">
    <g clip-path="url(#pc43c639e26)">
     <!-- 10 -->
     <g transform="translate(833.728963 453.648573) scale(0.15 -0.15)">
      <use xlink:href="#DejaVuSans-31"/>
      <use xlink:href="#DejaVuSans-30" x="63.623047"/>
     </g>
    </g>
   </g>
   <g id="text_13">
    <g clip-path="url(#pc43c639e26)">
     <!-- 11 -->
     <g transform="translate(334.359739 931.748347) scale(0.15 -0.15)">
      <use xlink:href="#DejaVuSans-31"/>
      <use xlink:href="#DejaVuSans-31" x="63.623047"/>
     </g>
    </g>
   </g>
   <g id="text_14">
    <g clip-path="url(#pc43c639e26)">
     <!-- 12 -->
     <g transform="translate(865.551743 744.05983) scale(0.15 -0.15)">
      <use xlink:href="#DejaVuSans-31"/>
      <use xlink:href="#DejaVuSans-32" x="63.623047"/>
     </g>
    </g>
   </g>
   <g id="text_15">
    <g clip-path="url(#pc43c639e26)">
     <!-- 13 -->
     <g transform="translate(469.324891 217.076859) scale(0.15 -0.15)">
      <use xlink:href="#DejaVuSans-31"/>
      <use xlink:href="#DejaVuSans-33" x="63.623047"/>
     </g>
    </g>
   </g>
   <g id="text_16">
    <g clip-path="url(#pc43c639e26)">
     <!-- 14 -->
     <g transform="translate(135.82959 689.632036) scale(0.15 -0.15)">
      <use xlink:href="#DejaVuSans-31"/>
      <use xlink:href="#DejaVuSans-34" x="63.623047"/>
     </g>
    </g>
   </g>
   <g id="text_17">
    <g clip-path="url(#pc43c639e26)">
     <!-- 15 -->
     <g transform="translate(910.386979 930.413176) scale(0.15 -0.15)">
      <use xlink:href="#DejaVuSans-31"/>
      <use xlink:href="#DejaVuSans-35" x="63.623047"/>
     </g>
    </g>
   </g>
   <g id="text_18">
    <g clip-path="url(#pc43c639e26)">
     <!-- 16 -->
     <g transform="translate(608.887604 388.761855) scale(0.15 -0.15)">
      <use xlink:href="#DejaVuSans-31"/>
      <use xlink:href="#DejaVuSans-36" x="63.623047"/>
     </g>
    </g>
   </g>
   <g id="text_19">
    <g clip-path="url(#pc43c639e26)">
     <!-- 17 -->
     <g transform="translate(186.131952 840.04342) scale(0.15 -0.15)">
      <use xlink:href="#DejaVuSans-31"/>
      <use xlink:href="#DejaVuSans-37" x="63.623047"/>
     </g>
    </g>
   </g>
   <g id="text_20">
    <g clip-path="url(#pc43c639e26)">
     <!-- 18 -->
     <g transform="translate(1156.469304 900.024241) scale(0.15 -0.15)">
      <use xlink:href="#DejaVuSans-31"/>
      <use xlink:href="#DejaVuSans-38" x="63.623047"/>
     </g>
    </g>
   </g>
   <g id="text_21">
    <g clip-path="url(#pc43c639e26)">
     <!-- 19 -->
     <g transform="translate(1028.944876 367.575261) scale(0.15 -0.15)">
      <use xlink:href="#DejaVuSans-31"/>
      <use xlink:href="#DejaVuSans-39" x="63.623047"/>
     </g>
    </g>
   </g>
   <g id="text_22">
    <g clip-path="url(#pc43c639e26)">
     <!-- 20 -->
     <g transform="translate(483.171306 817.290073) scale(0.15 -0.15)">
      <use xlink:href="#DejaVuSans-32"/>
      <use xlink:href="#DejaVuSans-30" x="63.623047"/>
     </g>
    </g>
   </g>
  </g>
 </g>
 <defs>
  <clipPath id="pc43c639e26">
   <rect x="0" y="0" width="1296" height="1152"/>
  </clipPath>
 </defs>
</svg>
