<?xml version="1.0" encoding="utf-8" standalone="no"?>
<!DOCTYPE svg PUBLIC "-//W3C//DTD SVG 1.1//EN"
  "http://www.w3.org/Graphics/SVG/1.1/DTD/svg11.dtd">
<svg xmlns:xlink="http://www.w3.org/1999/xlink" width="576pt" height="432pt" viewBox="0 0 576 432" xmlns="http://www.w3.org/2000/svg" version="1.1">
 <metadata>
  <rdf:RDF xmlns:dc="http://purl.org/dc/elements/1.1/" xmlns:cc="http://creativecommons.org/ns#" xmlns:rdf="http://www.w3.org/1999/02/22-rdf-syntax-ns#">
   <cc:Work>
    <dc:type rdf:resource="http://purl.org/dc/dcmitype/StillImage"/>
    <dc:date>2025-02-12T21:05:34.082148</dc:date>
    <dc:format>image/svg+xml</dc:format>
    <dc:creator>
     <cc:Agent>
      <dc:title>Matplotlib v3.9.1, https://matplotlib.org/</dc:title>
     </cc:Agent>
    </dc:creator>
   </cc:Work>
  </rdf:RDF>
 </metadata>
 <defs>
  <style type="text/css">*{stroke-linejoin: round; stroke-linecap: butt}</style>
 </defs>
 <g id="figure_1">
  <g id="patch_1">
   <path d="M 0 432 
L 576 432 
L 576 0 
L 0 0 
z
" style="fill: #ffffff"/>
  </g>
  <g id="axes_1">
   <g id="patch_2">
    <path d="M 416.848293 238.055589 
Q 366.634943 236.292697 316.421593 234.529806 
" clip-path="url(#p596ccd4629)" style="fill: none; stroke: #808080; stroke-linecap: round"/>
   </g>
   <g id="patch_3">
    <path d="M 416.848293 238.055589 
Q 366.634943 236.292697 316.421593 234.529806 
" clip-path="url(#p596ccd4629)" style="fill: none; stroke: #808080; stroke-linecap: round"/>
   </g>
   <g id="patch_4">
    <path d="M 416.848293 238.055589 
Q 366.634943 236.292697 316.421593 234.529806 
" clip-path="url(#p596ccd4629)" style="fill: none; stroke: #808080; stroke-linecap: round"/>
   </g>
   <g id="patch_5">
    <path d="M 417.161998 235.423456 
Q 318.598844 215.138802 220.03569 194.854149 
" clip-path="url(#p596ccd4629)" style="fill: none; stroke: #808080; stroke-linecap: round"/>
   </g>
   <g id="patch_6">
    <path d="M 417.161998 235.423456 
Q 318.598844 215.138802 220.03569 194.854149 
" clip-path="url(#p596ccd4629)" style="fill: none; stroke: #808080; stroke-linecap: round"/>
   </g>
   <g id="patch_7">
    <path d="M 416.836112 238.612135 
Q 292.283827 238.627102 167.731541 238.64207 
" clip-path="url(#p596ccd4629)" style="fill: none; stroke: #808080; stroke-linecap: round"/>
   </g>
   <g id="patch_8">
    <path d="M 416.836112 238.612135 
Q 292.283827 238.627102 167.731541 238.64207 
" clip-path="url(#p596ccd4629)" style="fill: none; stroke: #808080; stroke-linecap: round"/>
   </g>
   <g id="patch_9">
    <path d="M 421.580221 227.315859 
Q 361.724368 166.226592 301.868516 105.137325 
" clip-path="url(#p596ccd4629)" style="fill: none; stroke: #808080; stroke-linecap: round"/>
   </g>
   <g id="patch_10">
    <path d="M 424.137365 225.281814 
Q 416.66243 213.573413 409.187496 201.865011 
" clip-path="url(#p596ccd4629)" style="fill: none; stroke: #808080; stroke-linecap: round"/>
   </g>
   <g id="patch_11">
    <path d="M 424.137365 225.281814 
Q 416.66243 213.573413 409.187496 201.865011 
" clip-path="url(#p596ccd4629)" style="fill: none; stroke: #808080; stroke-linecap: round"/>
   </g>
   <g id="patch_12">
    <path d="M 441.418515 225.452268 
Q 479.33246 168.581208 517.246404 111.710148 
" clip-path="url(#p596ccd4629)" style="fill: none; stroke: #808080; stroke-linecap: round"/>
   </g>
   <g id="patch_13">
    <path d="M 417.695863 233.456103 
Q 241.314716 172.650124 64.93357 111.844146 
" clip-path="url(#p596ccd4629)" style="fill: none; stroke: #808080; stroke-linecap: round"/>
   </g>
   <g id="patch_14">
    <path d="M 419.978515 229.148352 
Q 300.969685 140.25952 181.960854 51.370689 
" clip-path="url(#p596ccd4629)" style="fill: none; stroke: #808080; stroke-linecap: round"/>
   </g>
   <g id="patch_15">
    <path d="M 429.669008 223.078594 
Q 413.367657 138.046735 397.066306 53.014877 
" clip-path="url(#p596ccd4629)" style="fill: none; stroke: #808080; stroke-linecap: round"/>
   </g>
   <g id="patch_16">
    <path d="M 417.995906 244.55339 
Q 273.499897 303.169355 129.003888 361.78532 
" clip-path="url(#p596ccd4629)" style="fill: none; stroke: #808080; stroke-linecap: round"/>
   </g>
   <g id="patch_17">
    <path d="M 439.476507 252.870095 
Q 462.526281 300.99441 485.576054 349.118725 
" clip-path="url(#p596ccd4629)" style="fill: none; stroke: #808080; stroke-linecap: round"/>
   </g>
   <g id="patch_18">
    <path d="M 422.658541 250.863836 
Q 369.10849 316.560651 315.558439 382.257467 
" clip-path="url(#p596ccd4629)" style="fill: none; stroke: #808080; stroke-linecap: round"/>
   </g>
   <g id="patch_19">
    <path d="M 286.151318 227.603319 
Q 252.586647 212.821749 219.021976 198.040179 
" clip-path="url(#p596ccd4629)" style="fill: none; stroke: #808080; stroke-linecap: round"/>
   </g>
   <g id="patch_20">
    <path d="M 286.151318 227.603319 
Q 252.586647 212.821749 219.021976 198.040179 
" clip-path="url(#p596ccd4629)" style="fill: none; stroke: #808080; stroke-linecap: round"/>
   </g>
   <g id="patch_21">
    <path d="M 284.814181 234.471305 
Q 226.270432 236.309516 167.726683 238.147727 
" clip-path="url(#p596ccd4629)" style="fill: none; stroke: #808080; stroke-linecap: round"/>
   </g>
   <g id="patch_22">
    <path d="M 284.814181 234.471305 
Q 226.270432 236.309516 167.726683 238.147727 
" clip-path="url(#p596ccd4629)" style="fill: none; stroke: #808080; stroke-linecap: round"/>
   </g>
   <g id="patch_23">
    <path d="M 299.514538 218.199204 
Q 295.711566 163.909681 291.908595 109.620157 
" clip-path="url(#p596ccd4629)" style="fill: none; stroke: #808080; stroke-linecap: round"/>
   </g>
   <g id="patch_24">
    <path d="M 299.514538 218.199204 
Q 295.711566 163.909681 291.908595 109.620157 
" clip-path="url(#p596ccd4629)" style="fill: none; stroke: #808080; stroke-linecap: round"/>
   </g>
   <g id="patch_25">
    <path d="M 315.017076 227.43682 
Q 350.64946 211.255338 386.281845 195.073855 
" clip-path="url(#p596ccd4629)" style="fill: none; stroke: #808080; stroke-linecap: round"/>
   </g>
   <g id="patch_26">
    <path d="M 315.017076 227.43682 
Q 350.64946 211.255338 386.281845 195.073855 
" clip-path="url(#p596ccd4629)" style="fill: none; stroke: #808080; stroke-linecap: round"/>
   </g>
   <g id="patch_27">
    <path d="M 315.017076 227.43682 
Q 350.64946 211.255338 386.281845 195.073855 
" clip-path="url(#p596ccd4629)" style="fill: none; stroke: #808080; stroke-linecap: round"/>
   </g>
   <g id="patch_28">
    <path d="M 314.173848 225.831558 
Q 413.31833 166.264829 512.462813 106.6981 
" clip-path="url(#p596ccd4629)" style="fill: none; stroke: #808080; stroke-linecap: round"/>
   </g>
   <g id="patch_29">
    <path d="M 286.519053 226.814094 
Q 175.298316 170.330982 64.077579 113.847869 
" clip-path="url(#p596ccd4629)" style="fill: none; stroke: #808080; stroke-linecap: round"/>
   </g>
   <g id="patch_30">
    <path d="M 291.696527 220.924789 
Q 234.95905 137.944949 178.221573 54.965108 
" clip-path="url(#p596ccd4629)" style="fill: none; stroke: #808080; stroke-linecap: round"/>
   </g>
   <g id="patch_31">
    <path d="M 307.412805 219.694793 
Q 347.355467 135.729519 387.29813 51.764244 
" clip-path="url(#p596ccd4629)" style="fill: none; stroke: #808080; stroke-linecap: round"/>
   </g>
   <g id="patch_32">
    <path d="M 287.775425 243.198052 
Q 207.483312 300.853301 127.191199 358.50855 
" clip-path="url(#p596ccd4629)" style="fill: none; stroke: #808080; stroke-linecap: round"/>
   </g>
   <g id="patch_33">
    <path d="M 313.727185 242.819177 
Q 396.514208 298.678616 479.30123 354.538054 
" clip-path="url(#p596ccd4629)" style="fill: none; stroke: #808080; stroke-linecap: round"/>
   </g>
   <g id="patch_34">
    <path d="M 301.106777 249.774988 
Q 303.094488 314.243825 305.082199 378.712662 
" clip-path="url(#p596ccd4629)" style="fill: none; stroke: #808080; stroke-linecap: round"/>
   </g>
   <g id="patch_35">
    <path d="M 192.752731 202.198696 
Q 178.23503 215.157189 163.71733 228.115681 
" clip-path="url(#p596ccd4629)" style="fill: none; stroke: #808080; stroke-linecap: round"/>
   </g>
   <g id="patch_36">
    <path d="M 192.752731 202.198696 
Q 178.23503 215.157189 163.71733 228.115681 
" clip-path="url(#p596ccd4629)" style="fill: none; stroke: #808080; stroke-linecap: round"/>
   </g>
   <g id="patch_37">
    <path d="M 215.008978 179.806694 
Q 247.677555 142.755611 280.346131 105.704528 
" clip-path="url(#p596ccd4629)" style="fill: none; stroke: #808080; stroke-linecap: round"/>
   </g>
   <g id="patch_38">
    <path d="M 220.361417 191.414974 
Q 302.6163 190.101769 384.871184 188.788564 
" clip-path="url(#p596ccd4629)" style="fill: none; stroke: #808080; stroke-linecap: round"/>
   </g>
   <g id="patch_39">
    <path d="M 220.361417 191.414974 
Q 302.6163 190.101769 384.871184 188.788564 
" clip-path="url(#p596ccd4629)" style="fill: none; stroke: #808080; stroke-linecap: round"/>
   </g>
   <g id="patch_40">
    <path d="M 219.740067 187.26793 
Q 365.286347 145.110438 510.832627 102.952947 
" clip-path="url(#p596ccd4629)" style="fill: none; stroke: #808080; stroke-linecap: round"/>
   </g>
   <g id="patch_41">
    <path d="M 190.694919 184.049574 
Q 127.267843 149.17908 63.840766 114.308586 
" clip-path="url(#p596ccd4629)" style="fill: none; stroke: #808080; stroke-linecap: round"/>
   </g>
   <g id="patch_42">
    <path d="M 200.928627 176.279527 
Q 186.923753 116.790095 172.918879 57.300663 
" clip-path="url(#p596ccd4629)" style="fill: none; stroke: #808080; stroke-linecap: round"/>
   </g>
   <g id="patch_43">
    <path d="M 216.816711 181.690022 
Q 299.319633 114.578116 381.822556 47.46621 
" clip-path="url(#p596ccd4629)" style="fill: none; stroke: #808080; stroke-linecap: round"/>
   </g>
   <g id="patch_44">
    <path d="M 197.340351 205.741993 
Q 159.449243 279.700311 121.558135 353.658629 
" clip-path="url(#p596ccd4629)" style="fill: none; stroke: #808080; stroke-linecap: round"/>
   </g>
   <g id="patch_45">
    <path d="M 218.130105 199.767561 
Q 348.478284 277.523713 478.826463 355.279865 
" clip-path="url(#p596ccd4629)" style="fill: none; stroke: #808080; stroke-linecap: round"/>
   </g>
   <g id="patch_46">
    <path d="M 211.600091 205.821594 
Q 255.061011 293.091378 298.521931 380.361162 
" clip-path="url(#p596ccd4629)" style="fill: none; stroke: #808080; stroke-linecap: round"/>
   </g>
   <g id="patch_47">
    <path d="M 162.867703 227.23207 
Q 221.362762 166.244248 279.85782 105.256427 
" clip-path="url(#p596ccd4629)" style="fill: none; stroke: #808080; stroke-linecap: round"/>
   </g>
   <g id="patch_48">
    <path d="M 167.420137 235.522174 
Q 276.298865 213.590346 385.177593 191.658519 
" clip-path="url(#p596ccd4629)" style="fill: none; stroke: #808080; stroke-linecap: round"/>
   </g>
   <g id="patch_49">
    <path d="M 167.420137 235.522174 
Q 276.298865 213.590346 385.177593 191.658519 
" clip-path="url(#p596ccd4629)" style="fill: none; stroke: #808080; stroke-linecap: round"/>
   </g>
   <g id="patch_50">
    <path d="M 166.732235 233.097995 
Q 338.971983 168.598476 511.211731 104.098958 
" clip-path="url(#p596ccd4629)" style="fill: none; stroke: #808080; stroke-linecap: round"/>
   </g>
   <g id="patch_51">
    <path d="M 142.255045 226.130351 
Q 100.952759 172.666968 59.650473 119.203585 
" clip-path="url(#p596ccd4629)" style="fill: none; stroke: #808080; stroke-linecap: round"/>
   </g>
   <g id="patch_52">
    <path d="M 153.313228 222.892974 
Q 160.609153 140.276645 167.905078 57.660317 
" clip-path="url(#p596ccd4629)" style="fill: none; stroke: #808080; stroke-linecap: round"/>
   </g>
   <g id="patch_53">
    <path d="M 164.083082 228.542566 
Q 273.005919 138.065785 381.928756 47.589005 
" clip-path="url(#p596ccd4629)" style="fill: none; stroke: #808080; stroke-linecap: round"/>
   </g>
   <g id="patch_54">
    <path d="M 147.504199 253.822483 
Q 133.135814 303.186118 118.767429 352.549752 
" clip-path="url(#p596ccd4629)" style="fill: none; stroke: #808080; stroke-linecap: round"/>
   </g>
   <g id="patch_55">
    <path d="M 166.768066 244.082759 
Q 322.165415 301.01281 477.562765 357.942861 
" clip-path="url(#p596ccd4629)" style="fill: none; stroke: #808080; stroke-linecap: round"/>
   </g>
   <g id="patch_56">
    <path d="M 163.023302 249.905521 
Q 228.746604 316.579008 294.469905 383.252495 
" clip-path="url(#p596ccd4629)" style="fill: none; stroke: #808080; stroke-linecap: round"/>
   </g>
   <g id="patch_57">
    <path d="M 302.777438 104.163659 
Q 345.738922 141.188654 388.700407 178.213649 
" clip-path="url(#p596ccd4629)" style="fill: none; stroke: #808080; stroke-linecap: round"/>
   </g>
   <g id="patch_58">
    <path d="M 306.613335 94.160923 
Q 408.412386 96.199661 510.211437 98.238398 
" clip-path="url(#p596ccd4629)" style="fill: none; stroke: #808080; stroke-linecap: round"/>
   </g>
   <g id="patch_59">
    <path d="M 275.013648 94.686567 
Q 170.394325 100.267214 65.775002 105.847861 
" clip-path="url(#p596ccd4629)" style="fill: none; stroke: #808080; stroke-linecap: round"/>
   </g>
   <g id="patch_60">
    <path d="M 276.26397 87.630004 
Q 230.048138 67.87704 183.832306 48.124075 
" clip-path="url(#p596ccd4629)" style="fill: none; stroke: #808080; stroke-linecap: round"/>
   </g>
   <g id="patch_61">
    <path d="M 304.681937 86.271712 
Q 342.445812 65.666351 380.209687 45.060991 
" clip-path="url(#p596ccd4629)" style="fill: none; stroke: #808080; stroke-linecap: round"/>
   </g>
   <g id="patch_62">
    <path d="M 413.518669 179.317848 
Q 463.345869 143.546588 513.173069 107.775328 
" clip-path="url(#p596ccd4629)" style="fill: none; stroke: #808080; stroke-linecap: round"/>
   </g>
   <g id="patch_63">
    <path d="M 385.28005 184.942581 
Q 225.330392 147.613126 65.380734 110.283672 
" clip-path="url(#p596ccd4629)" style="fill: none; stroke: #808080; stroke-linecap: round"/>
   </g>
   <g id="patch_64">
    <path d="M 387.321752 180.072419 
Q 284.9874 115.223928 182.653049 50.375437 
" clip-path="url(#p596ccd4629)" style="fill: none; stroke: #808080; stroke-linecap: round"/>
   </g>
   <g id="patch_65">
    <path d="M 399.989009 172.738978 
Q 397.383799 113.011347 394.77859 53.283716 
" clip-path="url(#p596ccd4629)" style="fill: none; stroke: #808080; stroke-linecap: round"/>
   </g>
   <g id="patch_66">
    <path d="M 387.276032 196.923623 
Q 257.515242 278.132104 127.754452 359.340585 
" clip-path="url(#p596ccd4629)" style="fill: none; stroke: #808080; stroke-linecap: round"/>
   </g>
   <g id="patch_67">
    <path d="M 408.024955 202.540129 
Q 446.543296 275.959924 485.061638 349.379719 
" clip-path="url(#p596ccd4629)" style="fill: none; stroke: #808080; stroke-linecap: round"/>
   </g>
   <g id="patch_68">
    <path d="M 394.050224 202.890046 
Q 353.123629 291.524447 312.197034 380.158849 
" clip-path="url(#p596ccd4629)" style="fill: none; stroke: #808080; stroke-linecap: round"/>
   </g>
   <g id="patch_69">
    <path d="M 510.207112 98.825107 
Q 288.000821 102.62256 65.79453 106.420012 
" clip-path="url(#p596ccd4629)" style="fill: none; stroke: #808080; stroke-linecap: round"/>
   </g>
   <g id="patch_70">
    <path d="M 510.402926 96.075638 
Q 347.658037 70.233312 184.913148 44.390986 
" clip-path="url(#p596ccd4629)" style="fill: none; stroke: #808080; stroke-linecap: round"/>
   </g>
   <g id="patch_71">
    <path d="M 511.671568 91.914826 
Q 460.05542 68.022358 408.439273 44.12989 
" clip-path="url(#p596ccd4629)" style="fill: none; stroke: #808080; stroke-linecap: round"/>
   </g>
   <g id="patch_72">
    <path d="M 63.881651 99.144387 
Q 109.641693 74.29958 155.401735 49.454773 
" clip-path="url(#p596ccd4629)" style="fill: none; stroke: #808080; stroke-linecap: round"/>
   </g>
   <g id="patch_73">
    <path d="M 65.485994 103.572533 
Q 222.037259 72.088765 378.588524 40.604998 
" clip-path="url(#p596ccd4629)" style="fill: none; stroke: #808080; stroke-linecap: round"/>
   </g>
   <g id="patch_74">
    <path d="M 185.105141 41.600022 
Q 281.693803 39.69934 378.282465 37.798658 
" clip-path="url(#p596ccd4629)" style="fill: none; stroke: #808080; stroke-linecap: round"/>
   </g>
   <g id="patch_75">
    <path d="M 130.157961 367.548408 
Q 303.376911 365.555727 476.595861 363.563045 
" clip-path="url(#p596ccd4629)" style="fill: none; stroke: #808080; stroke-linecap: round"/>
   </g>
   <g id="patch_76">
    <path d="M 130.0086 369.923567 
Q 209.960047 381.121472 289.911493 392.319377 
" clip-path="url(#p596ccd4629)" style="fill: none; stroke: #808080; stroke-linecap: round"/>
   </g>
   <g id="patch_77">
    <path d="M 476.809849 365.980016 
Q 398.987862 378.946846 321.165874 391.913676 
" clip-path="url(#p596ccd4629)" style="fill: none; stroke: #808080; stroke-linecap: round"/>
   </g>
   <g id="PathCollection_1">
    <defs>
     <path id="m371cacf292" d="M 0 15.811388 
C 4.193229 15.811388 8.215279 14.145401 11.18034 11.18034 
C 14.145401 8.215279 15.811388 4.193229 15.811388 0 
C 15.811388 -4.193229 14.145401 -8.215279 11.18034 -11.18034 
C 8.215279 -14.145401 4.193229 -15.811388 0 -15.811388 
C -4.193229 -15.811388 -8.215279 -14.145401 -11.18034 -11.18034 
C -14.145401 -8.215279 -15.811388 -4.193229 -15.811388 0 
C -15.811388 4.193229 -14.145401 8.215279 -11.18034 11.18034 
C -8.215279 14.145401 -4.193229 15.811388 0 15.811388 
z
" style="stroke: #add8e6"/>
    </defs>
    <g clip-path="url(#p596ccd4629)">
     <use xlink:href="#m371cacf292" x="432.646559" y="238.610235" style="fill: #add8e6; stroke: #add8e6"/>
     <use xlink:href="#m371cacf292" x="300.619631" y="233.97503" style="fill: #add8e6; stroke: #add8e6"/>
     <use xlink:href="#m371cacf292" x="204.551203" y="191.667385" style="fill: #add8e6; stroke: #add8e6"/>
     <use xlink:href="#m371cacf292" x="151.922243" y="238.64397" style="fill: #add8e6; stroke: #add8e6"/>
     <use xlink:href="#m371cacf292" x="290.803499" y="93.844299" style="fill: #add8e6; stroke: #add8e6"/>
     <use xlink:href="#m371cacf292" x="400.678055" y="188.536206" style="fill: #add8e6; stroke: #add8e6"/>
     <use xlink:href="#m371cacf292" x="526.016529" y="98.554928" style="fill: #add8e6; stroke: #add8e6"/>
     <use xlink:href="#m371cacf292" x="49.983471" y="106.69022" style="fill: #add8e6; stroke: #add8e6"/>
     <use xlink:href="#m371cacf292" x="169.295905" y="41.911118" style="fill: #add8e6; stroke: #add8e6"/>
     <use xlink:href="#m371cacf292" x="394.089592" y="37.487603" style="fill: #add8e6; stroke: #add8e6"/>
     <use xlink:href="#m371cacf292" x="114.348801" y="367.730274" style="fill: #add8e6; stroke: #add8e6"/>
     <use xlink:href="#m371cacf292" x="492.407232" y="363.381154" style="fill: #add8e6; stroke: #add8e6"/>
     <use xlink:href="#m371cacf292" x="305.569338" y="394.512397" style="fill: #add8e6; stroke: #add8e6"/>
    </g>
   </g>
   <g id="text_1">
    <g clip-path="url(#p596ccd4629)">
     <!-- 4 -->
     <g transform="translate(427.874684 242.749297) scale(0.15 -0.15)">
      <defs>
       <path id="DejaVuSans-34" d="M 2419 4116 
L 825 1625 
L 2419 1625 
L 2419 4116 
z
M 2253 4666 
L 3047 4666 
L 3047 1625 
L 3713 1625 
L 3713 1100 
L 3047 1100 
L 3047 0 
L 2419 0 
L 2419 1100 
L 313 1100 
L 313 1709 
L 2253 4666 
z
" transform="scale(0.015625)"/>
      </defs>
      <use xlink:href="#DejaVuSans-34"/>
     </g>
    </g>
   </g>
   <g id="text_2">
    <g clip-path="url(#p596ccd4629)">
     <!-- 12 -->
     <g transform="translate(291.075881 238.114093) scale(0.15 -0.15)">
      <defs>
       <path id="DejaVuSans-31" d="M 794 531 
L 1825 531 
L 1825 4091 
L 703 3866 
L 703 4441 
L 1819 4666 
L 2450 4666 
L 2450 531 
L 3481 531 
L 3481 0 
L 794 0 
L 794 531 
z
" transform="scale(0.015625)"/>
       <path id="DejaVuSans-32" d="M 1228 531 
L 3431 531 
L 3431 0 
L 469 0 
L 469 531 
Q 828 903 1448 1529 
Q 2069 2156 2228 2338 
Q 2531 2678 2651 2914 
Q 2772 3150 2772 3378 
Q 2772 3750 2511 3984 
Q 2250 4219 1831 4219 
Q 1534 4219 1204 4116 
Q 875 4013 500 3803 
L 500 4441 
Q 881 4594 1212 4672 
Q 1544 4750 1819 4750 
Q 2544 4750 2975 4387 
Q 3406 4025 3406 3419 
Q 3406 3131 3298 2873 
Q 3191 2616 2906 2266 
Q 2828 2175 2409 1742 
Q 1991 1309 1228 531 
z
" transform="scale(0.015625)"/>
      </defs>
      <use xlink:href="#DejaVuSans-31"/>
      <use xlink:href="#DejaVuSans-32" x="63.623047"/>
     </g>
    </g>
   </g>
   <g id="text_3">
    <g clip-path="url(#p596ccd4629)">
     <!-- 0 -->
     <g transform="translate(199.779328 195.806448) scale(0.15 -0.15)">
      <defs>
       <path id="DejaVuSans-30" d="M 2034 4250 
Q 1547 4250 1301 3770 
Q 1056 3291 1056 2328 
Q 1056 1369 1301 889 
Q 1547 409 2034 409 
Q 2525 409 2770 889 
Q 3016 1369 3016 2328 
Q 3016 3291 2770 3770 
Q 2525 4250 2034 4250 
z
M 2034 4750 
Q 2819 4750 3233 4129 
Q 3647 3509 3647 2328 
Q 3647 1150 3233 529 
Q 2819 -91 2034 -91 
Q 1250 -91 836 529 
Q 422 1150 422 2328 
Q 422 3509 836 4129 
Q 1250 4750 2034 4750 
z
" transform="scale(0.015625)"/>
      </defs>
      <use xlink:href="#DejaVuSans-30"/>
     </g>
    </g>
   </g>
   <g id="text_4">
    <g clip-path="url(#p596ccd4629)">
     <!-- 1 -->
     <g transform="translate(147.150368 242.783032) scale(0.15 -0.15)">
      <use xlink:href="#DejaVuSans-31"/>
     </g>
    </g>
   </g>
   <g id="text_5">
    <g clip-path="url(#p596ccd4629)">
     <!-- 2 -->
     <g transform="translate(286.031624 97.983361) scale(0.15 -0.15)">
      <use xlink:href="#DejaVuSans-32"/>
     </g>
    </g>
   </g>
   <g id="text_6">
    <g clip-path="url(#p596ccd4629)">
     <!-- 3 -->
     <g transform="translate(395.90618 192.675268) scale(0.15 -0.15)">
      <defs>
       <path id="DejaVuSans-33" d="M 2597 2516 
Q 3050 2419 3304 2112 
Q 3559 1806 3559 1356 
Q 3559 666 3084 287 
Q 2609 -91 1734 -91 
Q 1441 -91 1130 -33 
Q 819 25 488 141 
L 488 750 
Q 750 597 1062 519 
Q 1375 441 1716 441 
Q 2309 441 2620 675 
Q 2931 909 2931 1356 
Q 2931 1769 2642 2001 
Q 2353 2234 1838 2234 
L 1294 2234 
L 1294 2753 
L 1863 2753 
Q 2328 2753 2575 2939 
Q 2822 3125 2822 3475 
Q 2822 3834 2567 4026 
Q 2313 4219 1838 4219 
Q 1578 4219 1281 4162 
Q 984 4106 628 3988 
L 628 4550 
Q 988 4650 1302 4700 
Q 1616 4750 1894 4750 
Q 2613 4750 3031 4423 
Q 3450 4097 3450 3541 
Q 3450 3153 3228 2886 
Q 3006 2619 2597 2516 
z
" transform="scale(0.015625)"/>
      </defs>
      <use xlink:href="#DejaVuSans-33"/>
     </g>
    </g>
   </g>
   <g id="text_7">
    <g clip-path="url(#p596ccd4629)">
     <!-- 5 -->
     <g transform="translate(521.244654 102.69399) scale(0.15 -0.15)">
      <defs>
       <path id="DejaVuSans-35" d="M 691 4666 
L 3169 4666 
L 3169 4134 
L 1269 4134 
L 1269 2991 
Q 1406 3038 1543 3061 
Q 1681 3084 1819 3084 
Q 2600 3084 3056 2656 
Q 3513 2228 3513 1497 
Q 3513 744 3044 326 
Q 2575 -91 1722 -91 
Q 1428 -91 1123 -41 
Q 819 9 494 109 
L 494 744 
Q 775 591 1075 516 
Q 1375 441 1709 441 
Q 2250 441 2565 725 
Q 2881 1009 2881 1497 
Q 2881 1984 2565 2268 
Q 2250 2553 1709 2553 
Q 1456 2553 1204 2497 
Q 953 2441 691 2322 
L 691 4666 
z
" transform="scale(0.015625)"/>
      </defs>
      <use xlink:href="#DejaVuSans-35"/>
     </g>
    </g>
   </g>
   <g id="text_8">
    <g clip-path="url(#p596ccd4629)">
     <!-- 6 -->
     <g transform="translate(45.211596 110.829282) scale(0.15 -0.15)">
      <defs>
       <path id="DejaVuSans-36" d="M 2113 2584 
Q 1688 2584 1439 2293 
Q 1191 2003 1191 1497 
Q 1191 994 1439 701 
Q 1688 409 2113 409 
Q 2538 409 2786 701 
Q 3034 994 3034 1497 
Q 3034 2003 2786 2293 
Q 2538 2584 2113 2584 
z
M 3366 4563 
L 3366 3988 
Q 3128 4100 2886 4159 
Q 2644 4219 2406 4219 
Q 1781 4219 1451 3797 
Q 1122 3375 1075 2522 
Q 1259 2794 1537 2939 
Q 1816 3084 2150 3084 
Q 2853 3084 3261 2657 
Q 3669 2231 3669 1497 
Q 3669 778 3244 343 
Q 2819 -91 2113 -91 
Q 1303 -91 875 529 
Q 447 1150 447 2328 
Q 447 3434 972 4092 
Q 1497 4750 2381 4750 
Q 2619 4750 2861 4703 
Q 3103 4656 3366 4563 
z
" transform="scale(0.015625)"/>
      </defs>
      <use xlink:href="#DejaVuSans-36"/>
     </g>
    </g>
   </g>
   <g id="text_9">
    <g clip-path="url(#p596ccd4629)">
     <!-- 7 -->
     <g transform="translate(164.52403 46.05018) scale(0.15 -0.15)">
      <defs>
       <path id="DejaVuSans-37" d="M 525 4666 
L 3525 4666 
L 3525 4397 
L 1831 0 
L 1172 0 
L 2766 4134 
L 525 4134 
L 525 4666 
z
" transform="scale(0.015625)"/>
      </defs>
      <use xlink:href="#DejaVuSans-37"/>
     </g>
    </g>
   </g>
   <g id="text_10">
    <g clip-path="url(#p596ccd4629)">
     <!-- 8 -->
     <g transform="translate(389.317717 41.626666) scale(0.15 -0.15)">
      <defs>
       <path id="DejaVuSans-38" d="M 2034 2216 
Q 1584 2216 1326 1975 
Q 1069 1734 1069 1313 
Q 1069 891 1326 650 
Q 1584 409 2034 409 
Q 2484 409 2743 651 
Q 3003 894 3003 1313 
Q 3003 1734 2745 1975 
Q 2488 2216 2034 2216 
z
M 1403 2484 
Q 997 2584 770 2862 
Q 544 3141 544 3541 
Q 544 4100 942 4425 
Q 1341 4750 2034 4750 
Q 2731 4750 3128 4425 
Q 3525 4100 3525 3541 
Q 3525 3141 3298 2862 
Q 3072 2584 2669 2484 
Q 3125 2378 3379 2068 
Q 3634 1759 3634 1313 
Q 3634 634 3220 271 
Q 2806 -91 2034 -91 
Q 1263 -91 848 271 
Q 434 634 434 1313 
Q 434 1759 690 2068 
Q 947 2378 1403 2484 
z
M 1172 3481 
Q 1172 3119 1398 2916 
Q 1625 2713 2034 2713 
Q 2441 2713 2670 2916 
Q 2900 3119 2900 3481 
Q 2900 3844 2670 4047 
Q 2441 4250 2034 4250 
Q 1625 4250 1398 4047 
Q 1172 3844 1172 3481 
z
" transform="scale(0.015625)"/>
      </defs>
      <use xlink:href="#DejaVuSans-38"/>
     </g>
    </g>
   </g>
   <g id="text_11">
    <g clip-path="url(#p596ccd4629)">
     <!-- 9 -->
     <g transform="translate(109.576926 371.869336) scale(0.15 -0.15)">
      <defs>
       <path id="DejaVuSans-39" d="M 703 97 
L 703 672 
Q 941 559 1184 500 
Q 1428 441 1663 441 
Q 2288 441 2617 861 
Q 2947 1281 2994 2138 
Q 2813 1869 2534 1725 
Q 2256 1581 1919 1581 
Q 1219 1581 811 2004 
Q 403 2428 403 3163 
Q 403 3881 828 4315 
Q 1253 4750 1959 4750 
Q 2769 4750 3195 4129 
Q 3622 3509 3622 2328 
Q 3622 1225 3098 567 
Q 2575 -91 1691 -91 
Q 1453 -91 1209 -44 
Q 966 3 703 97 
z
M 1959 2075 
Q 2384 2075 2632 2365 
Q 2881 2656 2881 3163 
Q 2881 3666 2632 3958 
Q 2384 4250 1959 4250 
Q 1534 4250 1286 3958 
Q 1038 3666 1038 3163 
Q 1038 2656 1286 2365 
Q 1534 2075 1959 2075 
z
" transform="scale(0.015625)"/>
      </defs>
      <use xlink:href="#DejaVuSans-39"/>
     </g>
    </g>
   </g>
   <g id="text_12">
    <g clip-path="url(#p596ccd4629)">
     <!-- 10 -->
     <g transform="translate(482.863482 367.520217) scale(0.15 -0.15)">
      <use xlink:href="#DejaVuSans-31"/>
      <use xlink:href="#DejaVuSans-30" x="63.623047"/>
     </g>
    </g>
   </g>
   <g id="text_13">
    <g clip-path="url(#p596ccd4629)">
     <!-- 11 -->
     <g transform="translate(296.025588 398.651459) scale(0.15 -0.15)">
      <use xlink:href="#DejaVuSans-31"/>
      <use xlink:href="#DejaVuSans-31" x="63.623047"/>
     </g>
    </g>
   </g>
  </g>
 </g>
 <defs>
  <clipPath id="p596ccd4629">
   <rect x="0" y="0" width="576" height="432"/>
  </clipPath>
 </defs>
</svg>
