<?xml version="1.0" encoding="utf-8" standalone="no"?>
<!DOCTYPE svg PUBLIC "-//W3C//DTD SVG 1.1//EN"
  "http://www.w3.org/Graphics/SVG/1.1/DTD/svg11.dtd">
<svg xmlns:xlink="http://www.w3.org/1999/xlink" width="1296pt" height="1152pt" viewBox="0 0 1296 1152" xmlns="http://www.w3.org/2000/svg" version="1.1">
 <metadata>
  <rdf:RDF xmlns:dc="http://purl.org/dc/elements/1.1/" xmlns:cc="http://creativecommons.org/ns#" xmlns:rdf="http://www.w3.org/1999/02/22-rdf-syntax-ns#">
   <cc:Work>
    <dc:type rdf:resource="http://purl.org/dc/dcmitype/StillImage"/>
    <dc:date>2025-02-13T10:46:53.129815</dc:date>
    <dc:format>image/svg+xml</dc:format>
    <dc:creator>
     <cc:Agent>
      <dc:title>Matplotlib v3.9.1, https://matplotlib.org/</dc:title>
     </cc:Agent>
    </dc:creator>
   </cc:Work>
  </rdf:RDF>
 </metadata>
 <defs>
  <style type="text/css">*{stroke-linejoin: round; stroke-linecap: butt}</style>
 </defs>
 <g id="figure_1">
  <g id="patch_1">
   <path d="M 0 1152 
L 1296 1152 
L 1296 0 
L 0 0 
z
" style="fill: #ffffff"/>
  </g>
  <g id="axes_1">
   <g id="patch_2">
    <path d="M 1085.745057 800.770782 
Q 1134.062527 597.709592 1182.379997 394.648403 
" clip-path="url(#p94752e3f1f)" style="fill: none; stroke: #000000; stroke-linecap: round"/>
   </g>
   <g id="patch_3">
    <path d="M 1080.29788 803.06966 
Q 874.624291 680.101252 668.950701 557.132844 
" clip-path="url(#p94752e3f1f)" style="fill: none; stroke: #000000; stroke-linecap: round"/>
   </g>
   <g id="patch_4">
    <path d="M 1080.29788 803.06966 
Q 874.624291 680.101252 668.950701 557.132844 
" clip-path="url(#p94752e3f1f)" style="fill: none; stroke: #000000; stroke-linecap: round"/>
   </g>
   <g id="patch_5">
    <path d="M 1079.592594 805.456887 
Q 598.527208 788.351834 117.461821 771.246781 
" clip-path="url(#p94752e3f1f)" style="fill: none; stroke: #000000; stroke-linecap: round"/>
   </g>
   <g id="patch_6">
    <path d="M 1080.021636 807.66664 
Q 807.767106 928.832836 535.512577 1049.999033 
" clip-path="url(#p94752e3f1f)" style="fill: none; stroke: #000000; stroke-linecap: round"/>
   </g>
   <g id="patch_7">
    <path d="M 1178.774854 391.297532 
Q 924.100401 472.175864 669.425948 553.054197 
" clip-path="url(#p94752e3f1f)" style="fill: none; stroke: #000000; stroke-linecap: round"/>
   </g>
   <g id="patch_8">
    <path d="M 1178.774854 391.297532 
Q 924.100401 472.175864 669.425948 553.054197 
" clip-path="url(#p94752e3f1f)" style="fill: none; stroke: #000000; stroke-linecap: round"/>
   </g>
   <g id="patch_9">
    <path d="M 1178.540688 389.604776 
Q 715.416905 372.887685 252.293123 356.170593 
" clip-path="url(#p94752e3f1f)" style="fill: none; stroke: #000000; stroke-linecap: round"/>
   </g>
   <g id="patch_10">
    <path d="M 1178.894165 387.933304 
Q 820.213154 244.876712 461.532142 101.820119 
" clip-path="url(#p94752e3f1f)" style="fill: none; stroke: #000000; stroke-linecap: round"/>
   </g>
   <g id="patch_11">
    <path d="M 1182.284881 384.943162 
Q 1149.140106 256.791057 1115.99533 128.638952 
" clip-path="url(#p94752e3f1f)" style="fill: none; stroke: #000000; stroke-linecap: round"/>
   </g>
   <g id="patch_12">
    <path d="M 660.004962 556.392875 
Q 388.562795 662.817853 117.120628 769.242831 
" clip-path="url(#p94752e3f1f)" style="fill: none; stroke: #000000; stroke-linecap: round"/>
   </g>
   <g id="patch_13">
    <path d="M 660.004962 556.392875 
Q 388.562795 662.817853 117.120628 769.242831 
" clip-path="url(#p94752e3f1f)" style="fill: none; stroke: #000000; stroke-linecap: round"/>
   </g>
   <g id="patch_14">
    <path d="M 660.148177 552.420872 
Q 455.978368 455.279304 251.80856 358.137736 
" clip-path="url(#p94752e3f1f)" style="fill: none; stroke: #000000; stroke-linecap: round"/>
   </g>
   <g id="patch_15">
    <path d="M 660.148177 552.420872 
Q 455.978368 455.279304 251.80856 358.137736 
" clip-path="url(#p94752e3f1f)" style="fill: none; stroke: #000000; stroke-linecap: round"/>
   </g>
   <g id="patch_16">
    <path d="M 663.361554 559.399157 
Q 597.800992 803.301272 532.24043 1047.203387 
" clip-path="url(#p94752e3f1f)" style="fill: none; stroke: #000000; stroke-linecap: round"/>
   </g>
   <g id="patch_17">
    <path d="M 662.582063 550.020686 
Q 560.773585 327.268599 458.965107 104.516512 
" clip-path="url(#p94752e3f1f)" style="fill: none; stroke: #000000; stroke-linecap: round"/>
   </g>
   <g id="patch_18">
    <path d="M 668.269239 551.113536 
Q 889.699136 339.185014 1111.129033 127.256493 
" clip-path="url(#p94752e3f1f)" style="fill: none; stroke: #000000; stroke-linecap: round"/>
   </g>
   <g id="patch_19">
    <path d="M 114.006869 766.315665 
Q 179.878527 563.530561 245.750185 360.745457 
" clip-path="url(#p94752e3f1f)" style="fill: none; stroke: #000000; stroke-linecap: round"/>
   </g>
   <g id="patch_20">
    <path d="M 116.616571 773.857837 
Q 321.704164 911.552152 526.791757 1049.246467 
" clip-path="url(#p94752e3f1f)" style="fill: none; stroke: #000000; stroke-linecap: round"/>
   </g>
   <g id="patch_21">
    <path d="M 250.462588 352.120683 
Q 352.091402 227.977212 453.720217 103.833741 
" clip-path="url(#p94752e3f1f)" style="fill: none; stroke: #000000; stroke-linecap: round"/>
   </g>
   <g id="patch_22">
    <path d="M 252.122774 354.697872 
Q 681.019278 239.893744 1109.915782 125.089616 
" clip-path="url(#p94752e3f1f)" style="fill: none; stroke: #000000; stroke-linecap: round"/>
   </g>
   <g id="patch_23">
    <path d="M 461.882201 100.147936 
Q 785.814735 111.882212 1109.747268 123.616487 
" clip-path="url(#p94752e3f1f)" style="fill: none; stroke: #000000; stroke-linecap: round"/>
   </g>
   <g id="PathCollection_1">
    <defs>
     <path id="mac717e3eae" d="M 0 5 
C 1.326016 5 2.597899 4.473168 3.535534 3.535534 
C 4.473168 2.597899 5 1.326016 5 0 
C 5 -1.326016 4.473168 -2.597899 3.535534 -3.535534 
C 2.597899 -4.473168 1.326016 -5 0 -5 
C -1.326016 -5 -2.597899 -4.473168 -3.535534 -3.535534 
C -4.473168 -2.597899 -5 -1.326016 -5 0 
C -5 1.326016 -4.473168 2.597899 -3.535534 3.535534 
C -2.597899 4.473168 -1.326016 5 0 5 
z
" style="stroke: #0000ff"/>
    </defs>
    <g clip-path="url(#p94752e3f1f)">
     <use xlink:href="#mac717e3eae" x="1084.587758" y="805.634498" style="fill: #0000ff; stroke: #0000ff"/>
     <use xlink:href="#mac717e3eae" x="1183.53719" y="389.785131" style="fill: #0000ff; stroke: #0000ff"/>
     <use xlink:href="#mac717e3eae" x="664.660252" y="554.567664" style="fill: #0000ff; stroke: #0000ff"/>
     <use xlink:href="#mac717e3eae" x="112.46281" y="771.069033" style="fill: #0000ff; stroke: #0000ff"/>
     <use xlink:href="#mac717e3eae" x="247.294867" y="355.990174" style="fill: #0000ff; stroke: #0000ff"/>
     <use xlink:href="#mac717e3eae" x="530.942221" y="1052.033058" style="fill: #0000ff; stroke: #0000ff"/>
     <use xlink:href="#mac717e3eae" x="456.885733" y="99.966942" style="fill: #0000ff; stroke: #0000ff"/>
     <use xlink:href="#mac717e3eae" x="1114.743145" y="123.79746" style="fill: #0000ff; stroke: #0000ff"/>
    </g>
   </g>
   <g id="text_1">
    <g clip-path="url(#p94752e3f1f)">
     <!-- 0 -->
     <g transform="translate(1079.815883 809.773561) scale(0.15 -0.15)">
      <defs>
       <path id="DejaVuSans-30" d="M 2034 4250 
Q 1547 4250 1301 3770 
Q 1056 3291 1056 2328 
Q 1056 1369 1301 889 
Q 1547 409 2034 409 
Q 2525 409 2770 889 
Q 3016 1369 3016 2328 
Q 3016 3291 2770 3770 
Q 2525 4250 2034 4250 
z
M 2034 4750 
Q 2819 4750 3233 4129 
Q 3647 3509 3647 2328 
Q 3647 1150 3233 529 
Q 2819 -91 2034 -91 
Q 1250 -91 836 529 
Q 422 1150 422 2328 
Q 422 3509 836 4129 
Q 1250 4750 2034 4750 
z
" transform="scale(0.015625)"/>
      </defs>
      <use xlink:href="#DejaVuSans-30"/>
     </g>
    </g>
   </g>
   <g id="text_2">
    <g clip-path="url(#p94752e3f1f)">
     <!-- 1 -->
     <g transform="translate(1178.765315 393.924194) scale(0.15 -0.15)">
      <defs>
       <path id="DejaVuSans-31" d="M 794 531 
L 1825 531 
L 1825 4091 
L 703 3866 
L 703 4441 
L 1819 4666 
L 2450 4666 
L 2450 531 
L 3481 531 
L 3481 0 
L 794 0 
L 794 531 
z
" transform="scale(0.015625)"/>
      </defs>
      <use xlink:href="#DejaVuSans-31"/>
     </g>
    </g>
   </g>
   <g id="text_3">
    <g clip-path="url(#p94752e3f1f)">
     <!-- 7 -->
     <g transform="translate(659.888377 558.706727) scale(0.15 -0.15)">
      <defs>
       <path id="DejaVuSans-37" d="M 525 4666 
L 3525 4666 
L 3525 4397 
L 1831 0 
L 1172 0 
L 2766 4134 
L 525 4134 
L 525 4666 
z
" transform="scale(0.015625)"/>
      </defs>
      <use xlink:href="#DejaVuSans-37"/>
     </g>
    </g>
   </g>
   <g id="text_4">
    <g clip-path="url(#p94752e3f1f)">
     <!-- 2 -->
     <g transform="translate(107.690935 775.208095) scale(0.15 -0.15)">
      <defs>
       <path id="DejaVuSans-32" d="M 1228 531 
L 3431 531 
L 3431 0 
L 469 0 
L 469 531 
Q 828 903 1448 1529 
Q 2069 2156 2228 2338 
Q 2531 2678 2651 2914 
Q 2772 3150 2772 3378 
Q 2772 3750 2511 3984 
Q 2250 4219 1831 4219 
Q 1534 4219 1204 4116 
Q 875 4013 500 3803 
L 500 4441 
Q 881 4594 1212 4672 
Q 1544 4750 1819 4750 
Q 2544 4750 2975 4387 
Q 3406 4025 3406 3419 
Q 3406 3131 3298 2873 
Q 3191 2616 2906 2266 
Q 2828 2175 2409 1742 
Q 1991 1309 1228 531 
z
" transform="scale(0.015625)"/>
      </defs>
      <use xlink:href="#DejaVuSans-32"/>
     </g>
    </g>
   </g>
   <g id="text_5">
    <g clip-path="url(#p94752e3f1f)">
     <!-- 3 -->
     <g transform="translate(242.522992 360.129237) scale(0.15 -0.15)">
      <defs>
       <path id="DejaVuSans-33" d="M 2597 2516 
Q 3050 2419 3304 2112 
Q 3559 1806 3559 1356 
Q 3559 666 3084 287 
Q 2609 -91 1734 -91 
Q 1441 -91 1130 -33 
Q 819 25 488 141 
L 488 750 
Q 750 597 1062 519 
Q 1375 441 1716 441 
Q 2309 441 2620 675 
Q 2931 909 2931 1356 
Q 2931 1769 2642 2001 
Q 2353 2234 1838 2234 
L 1294 2234 
L 1294 2753 
L 1863 2753 
Q 2328 2753 2575 2939 
Q 2822 3125 2822 3475 
Q 2822 3834 2567 4026 
Q 2313 4219 1838 4219 
Q 1578 4219 1281 4162 
Q 984 4106 628 3988 
L 628 4550 
Q 988 4650 1302 4700 
Q 1616 4750 1894 4750 
Q 2613 4750 3031 4423 
Q 3450 4097 3450 3541 
Q 3450 3153 3228 2886 
Q 3006 2619 2597 2516 
z
" transform="scale(0.015625)"/>
      </defs>
      <use xlink:href="#DejaVuSans-33"/>
     </g>
    </g>
   </g>
   <g id="text_6">
    <g clip-path="url(#p94752e3f1f)">
     <!-- 4 -->
     <g transform="translate(526.170346 1056.17212) scale(0.15 -0.15)">
      <defs>
       <path id="DejaVuSans-34" d="M 2419 4116 
L 825 1625 
L 2419 1625 
L 2419 4116 
z
M 2253 4666 
L 3047 4666 
L 3047 1625 
L 3713 1625 
L 3713 1100 
L 3047 1100 
L 3047 0 
L 2419 0 
L 2419 1100 
L 313 1100 
L 313 1709 
L 2253 4666 
z
" transform="scale(0.015625)"/>
      </defs>
      <use xlink:href="#DejaVuSans-34"/>
     </g>
    </g>
   </g>
   <g id="text_7">
    <g clip-path="url(#p94752e3f1f)">
     <!-- 5 -->
     <g transform="translate(452.113858 104.106005) scale(0.15 -0.15)">
      <defs>
       <path id="DejaVuSans-35" d="M 691 4666 
L 3169 4666 
L 3169 4134 
L 1269 4134 
L 1269 2991 
Q 1406 3038 1543 3061 
Q 1681 3084 1819 3084 
Q 2600 3084 3056 2656 
Q 3513 2228 3513 1497 
Q 3513 744 3044 326 
Q 2575 -91 1722 -91 
Q 1428 -91 1123 -41 
Q 819 9 494 109 
L 494 744 
Q 775 591 1075 516 
Q 1375 441 1709 441 
Q 2250 441 2565 725 
Q 2881 1009 2881 1497 
Q 2881 1984 2565 2268 
Q 2250 2553 1709 2553 
Q 1456 2553 1204 2497 
Q 953 2441 691 2322 
L 691 4666 
z
" transform="scale(0.015625)"/>
      </defs>
      <use xlink:href="#DejaVuSans-35"/>
     </g>
    </g>
   </g>
   <g id="text_8">
    <g clip-path="url(#p94752e3f1f)">
     <!-- 6 -->
     <g transform="translate(1109.97127 127.936522) scale(0.15 -0.15)">
      <defs>
       <path id="DejaVuSans-36" d="M 2113 2584 
Q 1688 2584 1439 2293 
Q 1191 2003 1191 1497 
Q 1191 994 1439 701 
Q 1688 409 2113 409 
Q 2538 409 2786 701 
Q 3034 994 3034 1497 
Q 3034 2003 2786 2293 
Q 2538 2584 2113 2584 
z
M 3366 4563 
L 3366 3988 
Q 3128 4100 2886 4159 
Q 2644 4219 2406 4219 
Q 1781 4219 1451 3797 
Q 1122 3375 1075 2522 
Q 1259 2794 1537 2939 
Q 1816 3084 2150 3084 
Q 2853 3084 3261 2657 
Q 3669 2231 3669 1497 
Q 3669 778 3244 343 
Q 2819 -91 2113 -91 
Q 1303 -91 875 529 
Q 447 1150 447 2328 
Q 447 3434 972 4092 
Q 1497 4750 2381 4750 
Q 2619 4750 2861 4703 
Q 3103 4656 3366 4563 
z
" transform="scale(0.015625)"/>
      </defs>
      <use xlink:href="#DejaVuSans-36"/>
     </g>
    </g>
   </g>
  </g>
 </g>
 <defs>
  <clipPath id="p94752e3f1f">
   <rect x="0" y="0" width="1296" height="1152"/>
  </clipPath>
 </defs>
</svg>
