<?xml version="1.0" encoding="utf-8" standalone="no"?>
<!DOCTYPE svg PUBLIC "-//W3C//DTD SVG 1.1//EN"
  "http://www.w3.org/Graphics/SVG/1.1/DTD/svg11.dtd">
<svg xmlns:xlink="http://www.w3.org/1999/xlink" width="576pt" height="432pt" viewBox="0 0 576 432" xmlns="http://www.w3.org/2000/svg" version="1.1">
 <metadata>
  <rdf:RDF xmlns:dc="http://purl.org/dc/elements/1.1/" xmlns:cc="http://creativecommons.org/ns#" xmlns:rdf="http://www.w3.org/1999/02/22-rdf-syntax-ns#">
   <cc:Work>
    <dc:type rdf:resource="http://purl.org/dc/dcmitype/StillImage"/>
    <dc:date>2025-02-12T21:05:34.225142</dc:date>
    <dc:format>image/svg+xml</dc:format>
    <dc:creator>
     <cc:Agent>
      <dc:title>Matplotlib v3.9.1, https://matplotlib.org/</dc:title>
     </cc:Agent>
    </dc:creator>
   </cc:Work>
  </rdf:RDF>
 </metadata>
 <defs>
  <style type="text/css">*{stroke-linejoin: round; stroke-linecap: butt}</style>
 </defs>
 <g id="figure_1">
  <g id="patch_1">
   <path d="M 0 432 
L 576 432 
L 576 0 
L 0 0 
z
" style="fill: #ffffff"/>
  </g>
  <g id="axes_1">
   <g id="patch_2">
    <path d="M 402.380703 245.94005 
Q 355.677933 229.565748 308.975164 213.191446 
" clip-path="url(#p1ddcd2d623)" style="fill: none; stroke: #808080; stroke-linecap: round"/>
   </g>
   <g id="patch_3">
    <path d="M 402.380703 245.94005 
Q 355.677933 229.565748 308.975164 213.191446 
" clip-path="url(#p1ddcd2d623)" style="fill: none; stroke: #808080; stroke-linecap: round"/>
   </g>
   <g id="patch_4">
    <path d="M 402.380703 245.94005 
Q 355.677933 229.565748 308.975164 213.191446 
" clip-path="url(#p1ddcd2d623)" style="fill: none; stroke: #808080; stroke-linecap: round"/>
   </g>
   <g id="patch_5">
    <path d="M 401.618507 249.152314 
Q 349.593123 242.454694 297.56774 235.757075 
" clip-path="url(#p1ddcd2d623)" style="fill: none; stroke: #808080; stroke-linecap: round"/>
   </g>
   <g id="patch_6">
    <path d="M 401.618507 249.152314 
Q 349.593123 242.454694 297.56774 235.757075 
" clip-path="url(#p1ddcd2d623)" style="fill: none; stroke: #808080; stroke-linecap: round"/>
   </g>
   <g id="patch_7">
    <path d="M 402.922199 257.748815 
Q 341.610903 285.795258 280.299607 313.8417 
" clip-path="url(#p1ddcd2d623)" style="fill: none; stroke: #808080; stroke-linecap: round"/>
   </g>
   <g id="patch_8">
    <path d="M 421.217034 266.487095 
Q 430.418037 302.474149 439.61904 338.461203 
" clip-path="url(#p1ddcd2d623)" style="fill: none; stroke: #808080; stroke-linecap: round"/>
   </g>
   <g id="patch_9">
    <path d="M 412.41279 266.206155 
Q 393.999381 322.839374 375.585973 379.472593 
" clip-path="url(#p1ddcd2d623)" style="fill: none; stroke: #808080; stroke-linecap: round"/>
   </g>
   <g id="patch_10">
    <path d="M 420.446614 235.677324 
Q 431.979111 178.870473 443.511608 122.063623 
" clip-path="url(#p1ddcd2d623)" style="fill: none; stroke: #808080; stroke-linecap: round"/>
   </g>
   <g id="patch_11">
    <path d="M 427.799574 239.352932 
Q 464.103291 198.484965 500.407007 157.616997 
" clip-path="url(#p1ddcd2d623)" style="fill: none; stroke: #808080; stroke-linecap: round"/>
   </g>
   <g id="patch_12">
    <path d="M 432.287339 246.124552 
Q 471.659148 232.86581 511.030957 219.607068 
" clip-path="url(#p1ddcd2d623)" style="fill: none; stroke: #808080; stroke-linecap: round"/>
   </g>
   <g id="patch_13">
    <path d="M 278.513898 205.063078 
Q 242.015297 198.258394 205.516696 191.453711 
" clip-path="url(#p1ddcd2d623)" style="fill: none; stroke: #808080; stroke-linecap: round"/>
   </g>
   <g id="patch_14">
    <path d="M 278.513898 205.063078 
Q 242.015297 198.258394 205.516696 191.453711 
" clip-path="url(#p1ddcd2d623)" style="fill: none; stroke: #808080; stroke-linecap: round"/>
   </g>
   <g id="patch_15">
    <path d="M 278.513898 205.063078 
Q 242.015297 198.258394 205.516696 191.453711 
" clip-path="url(#p1ddcd2d623)" style="fill: none; stroke: #808080; stroke-linecap: round"/>
   </g>
   <g id="patch_16">
    <path d="M 287.308662 222.256259 
Q 284.598859 227.99745 281.889057 233.73864 
" clip-path="url(#p1ddcd2d623)" style="fill: none; stroke: #808080; stroke-linecap: round"/>
   </g>
   <g id="patch_17">
    <path d="M 287.308662 222.256259 
Q 284.598859 227.99745 281.889057 233.73864 
" clip-path="url(#p1ddcd2d623)" style="fill: none; stroke: #808080; stroke-linecap: round"/>
   </g>
   <g id="patch_18">
    <path d="M 287.308662 222.256259 
Q 284.598859 227.99745 281.889057 233.73864 
" clip-path="url(#p1ddcd2d623)" style="fill: none; stroke: #808080; stroke-linecap: round"/>
   </g>
   <g id="patch_19">
    <path d="M 287.308662 222.256259 
Q 284.598859 227.99745 281.889057 233.73864 
" clip-path="url(#p1ddcd2d623)" style="fill: none; stroke: #808080; stroke-linecap: round"/>
   </g>
   <g id="patch_20">
    <path d="M 287.308662 222.256259 
Q 284.598859 227.99745 281.889057 233.73864 
" clip-path="url(#p1ddcd2d623)" style="fill: none; stroke: #808080; stroke-linecap: round"/>
   </g>
   <g id="patch_21">
    <path d="M 291.555722 192.350829 
Q 280.403168 122.724289 269.250613 53.097748 
" clip-path="url(#p1ddcd2d623)" style="fill: none; stroke: #808080; stroke-linecap: round"/>
   </g>
   <g id="patch_22">
    <path d="M 290.218968 223.298105 
Q 279.988814 264.189444 269.758659 305.080783 
" clip-path="url(#p1ddcd2d623)" style="fill: none; stroke: #808080; stroke-linecap: round"/>
   </g>
   <g id="patch_23">
    <path d="M 290.218968 223.298105 
Q 279.988814 264.189444 269.758659 305.080783 
" clip-path="url(#p1ddcd2d623)" style="fill: none; stroke: #808080; stroke-linecap: round"/>
   </g>
   <g id="patch_24">
    <path d="M 305.376099 219.003667 
Q 368.796806 280.872033 432.217512 342.740399 
" clip-path="url(#p1ddcd2d623)" style="fill: none; stroke: #808080; stroke-linecap: round"/>
   </g>
   <g id="patch_25">
    <path d="M 300.063439 222.583452 
Q 332.37545 301.23512 364.687461 379.886788 
" clip-path="url(#p1ddcd2d623)" style="fill: none; stroke: #808080; stroke-linecap: round"/>
   </g>
   <g id="patch_26">
    <path d="M 278.982543 212.746747 
Q 227.684381 229.034575 176.386219 245.322403 
" clip-path="url(#p1ddcd2d623)" style="fill: none; stroke: #808080; stroke-linecap: round"/>
   </g>
   <g id="patch_27">
    <path d="M 278.982543 212.746747 
Q 227.684381 229.034575 176.386219 245.322403 
" clip-path="url(#p1ddcd2d623)" style="fill: none; stroke: #808080; stroke-linecap: round"/>
   </g>
   <g id="patch_28">
    <path d="M 278.522207 205.019144 
Q 172.020631 184.851495 65.519056 164.683847 
" clip-path="url(#p1ddcd2d623)" style="fill: none; stroke: #808080; stroke-linecap: round"/>
   </g>
   <g id="patch_29">
    <path d="M 280.987206 199.06556 
Q 210.951313 151.396528 140.91542 103.727495 
" clip-path="url(#p1ddcd2d623)" style="fill: none; stroke: #808080; stroke-linecap: round"/>
   </g>
   <g id="patch_30">
    <path d="M 278.324447 209.531674 
Q 200.313342 217.321891 122.302237 225.112108 
" clip-path="url(#p1ddcd2d623)" style="fill: none; stroke: #808080; stroke-linecap: round"/>
   </g>
   <g id="patch_31">
    <path d="M 283.319548 219.568777 
Q 228.037575 279.338349 172.755602 339.10792 
" clip-path="url(#p1ddcd2d623)" style="fill: none; stroke: #808080; stroke-linecap: round"/>
   </g>
   <g id="patch_32">
    <path d="M 280.162253 215.507048 
Q 194.975458 261.775736 109.788663 308.044425 
" clip-path="url(#p1ddcd2d623)" style="fill: none; stroke: #808080; stroke-linecap: round"/>
   </g>
   <g id="patch_33">
    <path d="M 307.223813 199.211611 
Q 370.356876 157.263867 433.489939 115.316123 
" clip-path="url(#p1ddcd2d623)" style="fill: none; stroke: #808080; stroke-linecap: round"/>
   </g>
   <g id="patch_34">
    <path d="M 309.253967 203.603813 
Q 402.483237 176.877085 495.712506 150.150357 
" clip-path="url(#p1ddcd2d623)" style="fill: none; stroke: #808080; stroke-linecap: round"/>
   </g>
   <g id="patch_35">
    <path d="M 309.859644 208.410361 
Q 410.037027 211.260659 510.21441 214.110958 
" clip-path="url(#p1ddcd2d623)" style="fill: none; stroke: #808080; stroke-linecap: round"/>
   </g>
   <g id="patch_36">
    <path d="M 204.162525 195.531269 
Q 235.929877 211.146876 267.697228 226.762484 
" clip-path="url(#p1 style="fill: none; stroke: #808080; stroke-linecap: round"/>
   </g>
   <g id="patch_37">
    <path d="M 265.550918 208.459508 
Q 254.635729 208.911018 243.72054 209.362528 
" clip-path="url(#pbe98d6b5be)" style="fill: none; stroke: #808080; stroke-linecap: round"/>
   </g>
   <g id="patch_38">
    <path d="M 279.023094 223.448009 
Q 273.13033 263.074684 267.237566 302.701359 
" clip-path="url(#pbe98d6b5be)" style="fill: none; stroke: #808080; stroke-linecap: round"/>
   </g>
   <g id="patch_39">
    <path d="M 279.023094 223.448009 
Q 273.13033 263.074684 267.237566 302.701359 
" clip-path="url(#pbe98d6b5be)" style="fill: none; stroke: #808080; stroke-linecap: round"/>
   </g>
   <g id="patch_40">
    <path d="M 287.134466 222.525797 
Q 308.992297 278.139648 330.850128 333.7535 
" clip-path="url(#pbe98d6b5be)" style="fill: none; stroke: #808080; stroke-linecap: round"/>
   </g>
   <g id="patch_41">
    <path d="M 293.022885 218.46928 
Q 337.453978 259.05454 381.885071 299.6398 
" clip-path="url(#pbe98d6b5be)" style="fill: none; stroke: #808080; stroke-linecap: round"/>
   </g>
   <g id="patch_42">
    <path d="M 296.08304 213.533039 
Q 347.106229 233.365666 398.129418 253.198293 
" clip-path="url(#pbe98d6b5be)" style="fill: none; stroke: #808080; stroke-linecap: round"/>
   </g>
   <g id="patch_43">
    <path d="M 272.26391 220.748622 
Q 215.818159 301.159707 159.372407 381.570792 
" clip-path="url(#pbe98d6b5be)" style="fill: none; stroke: #808080; stroke-linecap: round"/>
   </g>
   <g id="patch_44">
    <path d="M 267.555091 200.078926 
Q 205.495704 165.314877 143.436316 130.550828 
" clip-path="url(#pbe98d6b5be)" style="fill: none; stroke: #808080; stroke-linecap: round"/>
   </g>
   <g id="patch_45">
    <path d="M 265.784064 210.583585 
Q 176.983334 226.429979 88.182605 242.276373 
" clip-path="url(#pbe98d6b5be)" style="fill: none; stroke: #808080; stroke-linecap: round"/>
   </g>
   <g id="patch_46">
    <path d="M 266.215979 203.222786 
Q 171.953566 174.674569 77.691154 146.126353 
" clip-path="url(#pbe98d6b5be)" style="fill: none; stroke: #808080; stroke-linecap: round"/>
   </g>
   <g id="patch_47">
    <path d="M 265.564928 206.941097 
Q 165.667384 201.467122 65.769839 195.993146 
" clip-path="url(#pbe98d6b5be)" style="fill: none; stroke: #808080; stroke-linecap: round"/>
   </g>
   <g id="patch_48">
    <path d="M 278.851809 192.194701 
Q 267.726302 122.647798 256.600796 53.100896 
" clip-path="url(#pbe98d6b5be)" style="fill: none; stroke: #808080; stroke-linecap: round"/>
   </g>
   <g id="patch_49">
    <path d="M 287.224504 193.12831 
Q 314.966072 123.824619 342.707641 54.520927 
" clip-path="url(#pbe98d6b5be)" style="fill: none; stroke: #808080; stroke-linecap: round"/>
   </g>
   <g id="patch_50">
    <path d="M 208.961751 243.933646 
Q 214.585774 233.874667 220.209797 223.815687 
" clip-path="url(#pbe98d6b5be)" style="fill: none; stroke: #808080; stroke-linecap: round"/>
   </g>
   <g id="patch_51">
    <path d="M 208.961751 243.933646 
Q 214.585774 233.874667 220.209797 223.815687 
" clip-path="url(#pbe98d6b5be)" style="fill: none; stroke: #808080; stroke-linecap: round"/>
   </g>
   <g id="patch_52">
    <path d="M 212.698222 268.6397 
Q 233.079747 288.041151 253.461273 307.442603 
" clip-path="url(#pbe98d6b5be)" style="fill: none; stroke: #808080; stroke-linecap: round"/>
   </g>
   <g id="patch_53">
    <path d="M 214.379315 266.53923 
Q 268.938498 303.102942 323.497682 339.666654 
" clip-path="url(#pbe98d6b5be)" style="fill: none; stroke: #808080; stroke-linecap: round"/>
   </g>
   <g id="patch_54">
    <path d="M 216.494973 261.905217 
Q 297.401341 284.019962 378.307708 306.134706 
" clip-path="url(#pbe98d6b5be)" style="fill: none; stroke: #808080; stroke-linecap: round"/>
   </g>
   <g id="patch_55">
    <path d="M 217.05729 257.825575 
Q 307.057558 258.331598 397.057826 258.83762 
" clip-path="url(#pbe98d6b5be)" style="fill: none; stroke: #808080; stroke-linecap: round"/>
   </g>
   <g id="patch_56">
    <path d="M 193.830512 243.767081 
Q 165.444496 190.280974 137.058481 136.794867 
" clip-path="url(#pbe98d6b5be)" style="fill: none; stroke: #808080; stroke-linecap: round"/>
   </g>
   <g id="patch_57">
    <path d="M 185.507483 256.185015 
Q 136.929173 251.395219 88.350862 246.605424 
" clip-path="url(#pbe98d6b5be)" style="fill: none; stroke: #808080; stroke-linecap: round"/>
   </g>
   <g id="patch_58">
    <path d="M 189.125239 247.582922 
Q 131.902117 199.639979 74.678994 151.697037 
" clip-path="url(#pbe98d6b5be)" style="fill: none; stroke: #808080; stroke-linecap: round"/>
   </g>
   <g id="patch_59">
    <path d="M 186.634404 251.689425 
Q 125.61314 226.43206 64.591876 201.174696 
" clip-path="url(#pbe98d6b5be)" style="fill: none; stroke: #808080; stroke-linecap: round"/>
   </g>
   <g id="patch_60">
    <path d="M 233.035095 224.981536 
Q 246.419294 264.181515 259.803493 303.381495 
" clip-path="url(#pbe98d6b5be)" style="fill: none; stroke: #808080; stroke-linecap: round"/>
   </g>
   <g id="patch_61">
    <path d="M 233.035095 224.981536 
Q 246.419294 264.181515 259.803493 303.381495 
" clip-path="url(#pbe98d6b5be)" style="fill: none; stroke: #808080; stroke-linecap: round"/>
   </g>
   <g id="patch_62">
    <path d="M 237.690482 222.453056 
Q 282.281314 279.245059 326.872146 336.037063 
" clip-path="url(#pbe98d6b5be)" style="fill: none; stroke: #808080; stroke-linecap: round"/>
   </g>
   <g id="patch_63">
    <path d="M 241.449299 218.204365 
Q 310.742023 260.159546 380.034746 302.114727 
" clip-path="url(#pbe98d6b5be)" style="fill: none; stroke: #808080; stroke-linecap: round"/>
   </g>
   <g id="patch_64">
    <path d="M 243.211964 214.058699 
Q 320.395947 234.471236 397.57993 254.883772 
" clip-path="url(#pbe98d6b5be)" style="fill: none; stroke: #808080; stroke-linecap: round"/>
   </g>
   <g id="patch_65">
    <path d="M 221.792369 224.590157 
Q 189.106572 302.264191 156.420774 379.938225 
" clip-path="url(#pbe98d6b5be)" style="fill: none; stroke: #808080; stroke-linecap: round"/>
   </g>
   <g id="patch_66">
    <path d="M 216.099099 199.524145 
Q 178.785699 166.421172 141.472299 133.318199 
" clip-path="url(#pbe98d6b5be)" style="fill: none; stroke: #808080; stroke-linecap: round"/>
   </g>
   <g id="patch_67">
    <path d="M 212.497801 213.496408 
Q 150.268972 227.535461 88.040144 241.574514 
" clip-path="url(#pbe98d6b5be)" style="fill: none; stroke: #808080; stroke-linecap: round"/>
   </g>
   <g id="patch_68">
    <path d="M 213.318135 203.967557 
Q 145.24305 175.779954 77.167966 147.592352 
" clip-path="url(#pbe98d6b5be)" style="fill: none; stroke: #808080; stroke-linecap: round"/>
   </g>
   <g id="patch_69">
    <path d="M 212.169149 208.697637 
Q 138.953461 202.571932 65.737774 196.446227 
" clip-path="url(#pbe98d6b5be)" style="fill: none; stroke: #808080; stroke-linecap: round"/>
   </g>
   <g id="patch_70">
    <path d="M 230.297604 194.381051 
Q 241.014372 123.750751 251.731139 53.12045 
" clip-path="url(#pbe98d6b5be)" style="fill: none; stroke: #808080; stroke-linecap: round"/>
   </g>
   <g id="patch_71">
    <path d="M 237.069987 197.118515 
Q 288.25339 124.930832 339.436794 52.74315 
" clip-path="url(#pbe98d6b5be)" style="fill: none; stroke: #808080; stroke-linecap: round"/>
   </g>
   <g id="patch_72">
    <path d="M 279.493431 324.467626 
Q 300.77651 333.407849 322.059589 342.348072 
" clip-path="url(#pbe98d6b5be)" style="fill: none; stroke: #808080; stroke-linecap: round"/>
   </g>
   <g id="patch_73">
    <path d="M 280.690293 317.356399 
Q 329.235194 314.322967 377.780095 311.289535 
" clip-path="url(#pbe98d6b5be)" style="fill: none; stroke: #808080; stroke-linecap: round"/>
   </g>
   <g id="patch_74">
    <path d="M 279.581585 312.451184 
Q 338.888168 288.634759 398.194751 264.818334 
" clip-path="url(#pbe98d6b5be)" style="fill: none; stroke: #808080; stroke-linecap: round"/>
   </g>
   <g id="patch_75">
    <path d="M 251.741518 327.094199 
Q 207.598586 356.428151 163.455655 385.762104 
" clip-path="url(#pbe98d6b5be)" style="fill: none; stroke: #808080; stroke-linecap: round"/>
   </g>
   <g id="patch_76">
    <path d="M 349.764132 339.667103 
Q 365.09538 329.387884 380.426628 319.108664 
" clip-path="url(#pbe98d6b5be)" style="fill: none; stroke: #808080; stroke-linecap: round"/>
   </g>
   <g id="patch_77">
    <path d="M 346.882139 336.432975 
Q 374.750428 303.69827 402.618717 270.963565 
" clip-path="url(#pbe98d6b5be)" style="fill: none; stroke: #808080; stroke-linecap: round"/>
   </g>
   <g id="patch_78">
    <path d="M 399.120201 295.505672 
Q 403.211988 284.617207 407.303774 273.728742 
" clip-path="url(#pbe98d6b5be)" style="fill: none; stroke: #808080; stroke-linecap: round"/>
   </g>
   <g id="patch_79">
    <path d="M 122.959751 137.152413 
Q 101.130625 183.93954 79.301498 230.726666 
" clip-path="url(#pbe98d6b5be)" style="fill: none; stroke: #808080; stroke-linecap: round"/>
   </g>
   <g id="patch_80">
    <path d="M 114.417062 127.073972 
Q 96.102388 132.184466 77.787714 137.294961 
" clip-path="url(#pbe98d6b5be)" style="fill: none; stroke: #808080; stroke-linecap: round"/>
   </g>
   <g id="patch_81">
    <path d="M 117.938858 133.449341 
Q 89.81456 158.975975 61.690263 184.502609 
" clip-path="url(#pbe98d6b5be)" style="fill: none; stroke: #808080; stroke-linecap: round"/>
   </g>
   <g id="patch_82">
    <path d="M 71.088231 229.319685 
Q 67.588864 193.300494 64.089497 157.281303 
" clip-path="url(#pbe98d6b5be)" style="fill: none; stroke: #808080; stroke-linecap: round"/>
   </g>
   <g id="patch_83">
    <path d="M 66.089599 230.655863 
Q 61.301211 220.093385 56.512823 209.530906 
" clip-path="url(#pbe98d6b5be)" style="fill: none; stroke: #808080; stroke-linecap: round"/>
   </g>
   <g id="patch_84">
    <path d="M 58.947261 156.938256 
Q 56.271364 168.338806 53.595467 179.739357 
" clip-path="url(#pbe98d6b5be)" style="fill: none; stroke: #808080; stroke-linecap: round"/>
   </g>
   <g id="patch_85">
    <path d="M 269.912171 37.881917 
Q 301.346256 38.665954 332.780341 39.449991 
" clip-path="url(#pbe98d6b5be)" style="fill: none; stroke: #808080; stroke-linecap: round"/>
   </g>
   <g id="PathCollection_1">
    <defs>
     <path id="mb1d7ee3149" d="M 0 15.811388 
C 4.193229 15.811388 8.215279 14.145401 11.18034 11.18034 
C 14.145401 8.215279 15.811388 4.193229 15.811388 0 
C 15.811388 -4.193229 14.145401 -8.215279 11.18034 -11.18034 
C 8.215279 -14.145401 4.193229 -15.811388 0 -15.811388 
C -4.193229 -15.811388 -8.215279 -14.145401 -11.18034 -11.18034 
C -14.145401 -8.215279 -15.811388 -4.193229 -15.811388 0 
C -15.811388 4.193229 -14.145401 8.215279 -11.18034 11.18034 
C -8.215279 14.145401 -4.193229 15.811388 0 15.811388 
z
" style="stroke: #add8e6"/>
    </defs>
    <g clip-path="url(#pbe98d6b5be)">
     <use xlink:href="#mb1d7ee3149" x="388.161082" y="107.94421" style="fill: #add8e6; stroke: #add8e6"/>
     <use xlink:href="#mb1d7ee3149" x="281.319798" y="170.077762" style="fill: #add8e6; stroke: #add8e6"/>
     <use xlink:href="#mb1d7ee3149" x="526.016529" y="111.255975" style="fill: #add8e6; stroke: #add8e6"/>
     <use xlink:href="#mb1d7ee3149" x="281.349169" y="207.806009" style="fill: #add8e6; stroke: #add8e6"/>
     <use xlink:href="#mb1d7ee3149" x="201.244417" y="257.736668" style="fill: #add8e6; stroke: #add8e6"/>
     <use xlink:href="#mb1d7ee3149" x="227.925322" y="210.015902" style="fill: #add8e6; stroke: #add8e6"/>
     <use xlink:href="#mb1d7ee3149" x="264.911639" y="318.342362" style="fill: #add8e6; stroke: #add8e6"/>
     <use xlink:href="#mb1d7ee3149" x="336.634269" y="348.470348" style="fill: #add8e6; stroke: #add8e6"/>
     <use xlink:href="#mb1d7ee3149" x="393.559297" y="310.303538" style="fill: #add8e6; stroke: #add8e6"/>
     <use xlink:href="#mb1d7ee3149" x="412.866322" y="258.926503" style="fill: #add8e6; stroke: #add8e6"/>
     <use xlink:href="#mb1d7ee3149" x="150.287856" y="394.512397" style="fill: #add8e6; stroke: #add8e6"/>
     <use xlink:href="#mb1d7ee3149" x="129.644406" y="122.82496" style="fill: #add8e6; stroke: #add8e6"/>
     <use xlink:href="#mb1d7ee3149" x="72.616871" y="245.054061" style="fill: #add8e6; stroke: #add8e6"/>
     <use xlink:href="#mb1d7ee3149" x="62.560566" y="141.543918" style="fill: #add8e6; stroke: #add8e6"/>
     <use xlink:href="#mb1d7ee3149" x="49.983471" y="195.128118" style="fill: #add8e6; stroke: #add8e6"/>
     <use xlink:href="#mb1d7ee3149" x="254.103117" y="37.487603" style="fill: #add8e6; stroke: #add8e6"/>
     <use xlink:href="#mb1d7ee3149" x="348.582612" y="39.844136" style="fill: #add8e6; stroke: #add8e6"/>
    </g>
   </g>
   <g id="text_1">
    <g clip-path="url(#pbe98d6b5be)">
     <!-- 0 -->
     <g transform="translate(383.389207 112.083272) scale(0.15 -0.15)">
      <defs>
       <path id="DejaVuSans-30" d="M 2034 4250 
Q 1547 4250 1301 3770 
Q 1056 3291 1056 2328 
Q 1056 1369 1301 889 
Q 1547 409 2034 409 
Q 2525 409 2770 889 
Q 3016 1369 3016 2328 
Q 3016 3291 2770 3770 
Q 2525 4250 2034 4250 
z
M 2034 4750 
Q 2819 4750 3233 4129 
Q 3647 3509 3647 2328 
Q 3647 1150 3233 529 
Q 2819 -91 2034 -91 
Q 1250 -91 836 529 
Q 422 1150 422 2328 
Q 422 3509 836 4129 
Q 1250 4750 2034 4750 
z
" transform="scale(0.015625)"/>
      </defs>
      <use xlink:href="#DejaVuSans-30"/>
     </g>
    </g>
   </g>
   <g id="text_2">
    <g clip-path="url(#pbe98d6b5be)">
     <!-- 1 -->
     <g transform="translate(276.547923 174.216825) scale(0.15 -0.15)">
      <defs>
       <path id="DejaVuSans-31" d="M 794 531 
L 1825 531 
L 1825 4091 
L 703 3866 
L 703 4441 
L 1819 4666 
L 2450 4666 
L 2450 531 
L 3481 531 
L 3481 0 
L 794 0 
L 794 531 
z
" transform="scale(0.015625)"/>
      </defs>
      <use xlink:href="#DejaVuSans-31"/>
     </g>
    </g>
   </g>
   <g id="text_3">
    <g clip-path="url(#pbe98d6b5be)">
     <!-- 6 -->
     <g transform="translate(521.244654 115.395038) scale(0.15 -0.15)">
      <defs>
       <path id="DejaVuSans-36" d="M 2113 2584 
Q 1688 2584 1439 2293 
Q 1191 2003 1191 1497 
Q 1191 994 1439 701 
Q 1688 409 2113 409 
Q 2538 409 2786 701 
Q 3034 994 3034 1497 
Q 3034 2003 2786 2293 
Q 2538 2584 2113 2584 
z
M 3366 4563 
L 3366 3988 
Q 3128 4100 2886 4159 
Q 2644 4219 2406 4219 
Q 1781 4219 1451 3797 
Q 1122 3375 1075 2522 
Q 1259 2794 1537 2939 
Q 1816 3084 2150 3084 
Q 2853 3084 3261 2657 
Q 3669 2231 3669 1497 
Q 3669 778 3244 343 
Q 2819 -91 2113 -91 
Q 1303 -91 875 529 
Q 447 1150 447 2328 
Q 447 3434 972 4092 
Q 1497 4750 2381 4750 
Q 2619 4750 2861 4703 
Q 3103 4656 3366 4563 
z
" transform="scale(0.015625)"/>
      </defs>
      <use xlink:href="#DejaVuSans-36"/>
     </g>
    </g>
   </g>
   <g id="text_4">
    <g clip-path="url(#pbe98d6b5be)">
     <!-- 16 -->
     <g transform="translate(271.805419 211.945071) scale(0.15 -0.15)">
      <use xlink:href="#DejaVuSans-31"/>
      <use xlink:href="#DejaVuSans-36" x="63.623047"/>
     </g>
    </g>
   </g>
   <g id="text_5">
    <g clip-path="url(#pbe98d6b5be)">
     <!-- 5 -->
     <g transform="translate(196.472542 261.87573) scale(0.15 -0.15)">
      <defs>
       <path id="DejaVuSans-35" d="M 691 4666 
L 3169 4666 
L 3169 4134 
L 1269 4134 
L 1269 2991 
Q 1406 3038 1543 3061 
Q 1681 3084 1819 3084 
Q 2600 3084 3056 2656 
Q 3513 2228 3513 1497 
Q 3513 744 3044 326 
Q 2575 -91 1722 -91 
Q 1428 -91 1123 -41 
Q 819 9 494 109 
L 494 744 
Q 775 591 1075 516 
Q 1375 441 1709 441 
Q 2250 441 2565 725 
Q 2881 1009 2881 1497 
Q 2881 1984 2565 2268 
Q 2250 2553 1709 2553 
Q 1456 2553 1204 2497 
Q 953 2441 691 2322 
L 691 4666 
z
" transform="scale(0.015625)"/>
      </defs>
      <use xlink:href="#DejaVuSans-35"/>
     </g>
    </g>
   </g>
   <g id="text_6">
    <g clip-path="url(#pbe98d6b5be)">
     <!-- 2 -->
     <g transform="translate(223.153447 214.154965) scale(0.15 -0.15)">
      <defs>
       <path id="DejaVuSans-32" d="M 1228 531 
L 3431 531 
L 3431 0 
L 469 0 
L 469 531 
Q 828 903 1448 1529 
Q 2069 2156 2228 2338 
Q 2531 2678 2651 2914 
Q 2772 3150 2772 3378 
Q 2772 3750 2511 3984 
Q 2250 4219 1831 4219 
Q 1534 4219 1204 4116 
Q 875 4013 500 3803 
L 500 4441 
Q 881 4594 1212 4672 
Q 1544 4750 1819 4750 
Q 2544 4750 2975 4387 
Q 3406 4025 3406 3419 
Q 3406 3131 3298 2873 
Q 3191 2616 2906 2266 
Q 2828 2175 2409 1742 
Q 1991 1309 1228 531 
z
" transform="scale(0.015625)"/>
      </defs>
      <use xlink:href="#DejaVuSans-32"/>
     </g>
    </g>
   </g>
   <g id="text_7">
    <g clip-path="url(#pbe98d6b5be)">
     <!-- 3 -->
     <g transform="translate(260.139764 322.481425) scale(0.15 -0.15)">
      <defs>
       <path id="DejaVuSans-33" d="M 2597 2516 
Q 3050 2419 3304 2112 
Q 3559 1806 3559 1356 
Q 3559 666 3084 287 
Q 2609 -91 1734 -91 
Q 1441 -91 1130 -33 
Q 819 25 488 141 
L 488 750 
Q 750 597 1062 519 
Q 1375 441 1716 441 
Q 2309 441 2620 675 
Q 2931 909 2931 1356 
Q 2931 1769 2642 2001 
Q 2353 2234 1838 2234 
L 1294 2234 
L 1294 2753 
L 1863 2753 
Q 2328 2753 2575 2939 
Q 2822 3125 2822 3475 
Q 2822 3834 2567 4026 
Q 2313 4219 1838 4219 
Q 1578 4219 1281 4162 
Q 984 4106 628 3988 
L 628 4550 
Q 988 4650 1302 4700 
Q 1616 4750 1894 4750 
Q 2613 4750 3031 4423 
Q 3450 4097 3450 3541 
Q 3450 3153 3228 2886 
Q 3006 2619 2597 2516 
z
" transform="scale(0.015625)"/>
      </defs>
      <use xlink:href="#DejaVuSans-33"/>
     </g>
    </g>
   </g>
   <g id="text_8">
    <g clip-path="url(#pbe98d6b5be)">
     <!-- 7 -->
     <g transform="translate(331.862394 352.609411) scale(0.15 -0.15)">
      <defs>
       <path id="DejaVuSans-37" d="M 525 4666 
L 3525 4666 
L 3525 4397 
L 1831 0 
L 1172 0 
L 2766 4134 
L 525 4134 
L 525 4666 
z
" transform="scale(0.015625)"/>
      </defs>
      <use xlink:href="#DejaVuSans-37"/>
     </g>
    </g>
   </g>
   <g id="text_9">
    <g clip-path="url(#pbe98d6b5be)">
     <!-- 8 -->
     <g transform="translate(388.787422 314.4426) scale(0.15 -0.15)">
      <defs>
       <path id="DejaVuSans-38" d="M 2034 2216 
Q 1584 2216 1326 1975 
Q 1069 1734 1069 1313 
Q 1069 891 1326 650 
Q 1584 409 2034 409 
Q 2484 409 2743 651 
Q 3003 894 3003 1313 
Q 3003 1734 2745 1975 
Q 2488 2216 2034 2216 
z
M 1403 2484 
Q 997 2584 770 2862 
Q 544 3141 544 3541 
Q 544 4100 942 4425 
Q 1341 4750 2034 4750 
Q 2731 4750 3128 4425 
Q 3525 4100 3525 3541 
Q 3525 3141 3298 2862 
Q 3072 2584 2669 2484 
Q 3125 2378 3379 2068 
Q 3634 1759 3634 1313 
Q 3634 634 3220 271 
Q 2806 -91 2034 -91 
Q 1263 -91 848 271 
Q 434 634 434 1313 
Q 434 1759 690 2068 
Q 947 2378 1403 2484 
z
M 1172 3481 
Q 1172 3119 1398 2916 
Q 1625 2713 2034 2713 
Q 2441 2713 2670 2916 
Q 2900 3119 2900 3481 
Q 2900 3844 2670 4047 
Q 2441 4250 2034 4250 
Q 1625 4250 1398 4047 
Q 1172 3844 1172 3481 
z
" transform="scale(0.015625)"/>
      </defs>
      <use xlink:href="#DejaVuSans-38"/>
     </g>
    </g>
   </g>
   <g id="text_10">
    <g clip-path="url(#pbe98d6b5be)">
     <!-- 9 -->
     <g transform="translate(408.094447 263.065565) scale(0.15 -0.15)">
      <defs>
       <path id="DejaVuSans-39" d="M 703 97 
L 703 672 
Q 941 559 1184 500 
Q 1428 441 1663 441 
Q 2288 441 2617 861 
Q 2947 1281 2994 2138 
Q 2813 1869 2534 1725 
Q 2256 1581 1919 1581 
Q 1219 1581 811 2004 
Q 403 2428 403 3163 
Q 403 3881 828 4315 
Q 1253 4750 1959 4750 
Q 2769 4750 3195 4129 
Q 3622 3509 3622 2328 
Q 3622 1225 3098 567 
Q 2575 -91 1691 -91 
Q 1453 -91 1209 -44 
Q 966 3 703 97 
z
M 1959 2075 
Q 2384 2075 2632 2365 
Q 2881 2656 2881 3163 
Q 2881 3666 2632 3958 
Q 2384 4250 1959 4250 
Q 1534 4250 1286 3958 
Q 1038 3666 1038 3163 
Q 1038 2656 1286 2365 
Q 1534 2075 1959 2075 
z
" transform="scale(0.015625)"/>
      </defs>
      <use xlink:href="#DejaVuSans-39"/>
     </g>
    </g>
   </g>
   <g id="text_11">
    <g clip-path="url(#pbe98d6b5be)">
     <!-- 10 -->
     <g transform="translate(140.744106 398.651459) scale(0.15 -0.15)">
      <use xlink:href="#DejaVuSans-31"/>
      <use xlink:href="#DejaVuSans-30" x="63.623047"/>
     </g>
    </g>
   </g>
   <g id="text_12">
    <g clip-path="url(#pbe98d6b5be)">
     <!-- 4 -->
     <g transform="translate(124.872531 126.964023) scale(0.15 -0.15)">
      <defs>
       <path id="DejaVuSans-34" d="M 2419 4116 
L 825 1625 
L 2419 1625 
L 2419 4116 
z
M 2253 4666 
L 3047 4666 
L 3047 1625 
L 3713 1625 
L 3713 1100 
L 3047 1100 
L 3047 0 
L 2419 0 
L 2419 1100 
L 313 1100 
L 313 1709 
L 2253 4666 
z
" transform="scale(0.015625)"/>
      </defs>
      <use xlink:href="#DejaVuSans-34"/>
     </g>
    </g>
   </g>
   <g id="text_13">
    <g clip-path="url(#pbe98d6b5be)">
     <!-- 11 -->
     <g transform="translate(63.073121 249.193123) scale(0.15 -0.15)">
      <use xlink:href="#DejaVuSans-31"/>
      <use xlink:href="#DejaVuSans-31" x="63.623047"/>
     </g>
    </g>
   </g>
   <g id="text_14">
    <g clip-path="url(#pbe98d6b5be)">
     <!-- 12 -->
     <g transform="translate(53.016816 145.682981) scale(0.15 -0.15)">
      <use xlink:href="#DejaVuSans-31"/>
      <use xlink:href="#DejaVuSans-32" x="63.623047"/>
     </g>
    </g>
   </g>
   <g id="text_15">
    <g clip-path="url(#pbe98d6b5be)">
     <!-- 13 -->
     <g transform="translate(40.439721 199.267181) scale(0.15 -0.15)">
      <use xlink:href="#DejaVuSans-31"/>
      <use xlink:href="#DejaVuSans-33" x="63.623047"/>
     </g>
    </g>
   </g>
   <g id="text_16">
    <g clip-path="url(#pbe98d6b5be)">
     <!-- 14 -->
     <g transform="translate(244.559367 41.626666) scale(0.15 -0.15)">
      <use xlink:href="#DejaVuSans-31"/>
      <use xlink:href="#DejaVuSans-34" x="63.623047"/>
     </g>
    </g>
   </g>
   <g id="text_17">
    <g clip-path="url(#pbe98d6b5be)">
     <!-- 15 -->
     <g transform="translate(339.038862 43.983198) scale(0.15 -0.15)">
      <use xlink:href="#DejaVuSans-31"/>
      <use xlink:href="#DejaVuSans-35" x="63.623047"/>
     </g>
    </g>
   </g>
  </g>
 </g>
 <defs>
  <clipPath id="pbe98d6b5be">
   <rect x="0" y="0" width="576" height="432"/>
  </clipPath>
 </defs>
</svg>
