<?xml version="1.0" encoding="utf-8" standalone="no"?>
<!DOCTYPE svg PUBLIC "-//W3C//DTD SVG 1.1//EN"
  "http://www.w3.org/Graphics/SVG/1.1/DTD/svg11.dtd">
<svg xmlns:xlink="http://www.w3.org/1999/xlink" width="576pt" height="432pt" viewBox="0 0 576 432" xmlns="http://www.w3.org/2000/svg" version="1.1">
 <metadata>
  <rdf:RDF xmlns:dc="http://purl.org/dc/elements/1.1/" xmlns:cc="http://creativecommons.org/ns#" xmlns:rdf="http://www.w3.org/1999/02/22-rdf-syntax-ns#">
   <cc:Work>
    <dc:type rdf:resource="http://purl.org/dc/dcmitype/StillImage"/>
    <dc:date>2025-02-12T21:05:31.723885</dc:date>
    <dc:format>image/svg+xml</dc:format>
    <dc:creator>
     <cc:Agent>
      <dc:title>Matplotlib v3.9.1, https://matplotlib.org/</dc:title>
     </cc:Agent>
    </dc:creator>
   </cc:Work>
  </rdf:RDF>
 </metadata>
 <defs>
  <style type="text/css">*{stroke-linejoin: round; stroke-linecap: butt}</style>
 </defs>
 <g id="figure_1">
  <g id="patch_1">
   <path d="M 0 432 
L 576 432 
L 576 0 
L 0 0 
z
" style="fill: #ffffff"/>
  </g>
  <g id="axes_1">
   <g id="patch_2">
    <path d="M 56.046847 255.65675 
Q 63.916106 236.70404 71.785364 217.751331 
" clip-path="url(#p4ad1145e5f)" style="fill: none; stroke: #808080; stroke-linecap: round"/>
   </g>
   <g id="patch_3">
    <path d="M 62.061567 280.47016 
Q 79.371099 295.102568 96.680632 309.734977 
" clip-path="url(#p4ad1145e5f)" style="fill: none; stroke: #808080; stroke-linecap: round"/>
   </g>
   <g id="patch_4">
    <path d="M 65.479496 267.131064 
Q 172.842198 245.451948 280.2049 223.772833 
" clip-path="url(#p4ad1145e5f)" style="fill: none; stroke: #808080; stroke-linecap: round"/>
   </g>
   <g id="patch_5">
    <path d="M 81.894856 218.433693 
Q 93.302779 261.544416 104.710702 304.65514 
" clip-path="url(#p4ad1145e5f)" style="fill: none; stroke: #808080; stroke-linecap: round"/>
   </g>
   <g id="patch_6">
    <path d="M 93.609233 204.412012 
Q 186.774441 211.895034 279.939649 219.378056 
" clip-path="url(#p4ad1145e5f)" style="fill: none; stroke: #808080; stroke-linecap: round"/>
   </g>
   <g id="patch_7">
    <path d="M 122.719311 312.526039 
Q 202.227041 270.294009 281.73477 228.061979 
" clip-path="url(#p4ad1145e5f)" style="fill: none; stroke: #808080; stroke-linecap: round"/>
   </g>
   <g id="patch_8">
    <path d="M 305.500806 208.23648 
Q 332.570548 173.966262 359.640289 139.696044 
" clip-path="url(#p4ad1145e5f)" style="fill: none; stroke: #808080; stroke-linecap: round"/>
   </g>
   <g id="patch_9">
    <path d="M 305.500806 208.23648 
Q 332.570548 173.966262 359.640289 139.696044 
" clip-path="url(#p4ad1145e5f)" style="fill: none; stroke: #808080; stroke-linecap: round"/>
   </g>
   <g id="patch_10">
    <path d="M 308.726723 229.599581 
Q 347.588483 256.316857 386.450242 283.034134 
" clip-path="url(#p4ad1145e5f)" style="fill: none; stroke: #808080; stroke-linecap: round"/>
   </g>
   <g id="patch_11">
    <path d="M 308.726723 229.599581 
Q 347.588483 256.316857 386.450242 283.034134 
" clip-path="url(#p4ad1145e5f)" style="fill: none; stroke: #808080; stroke-linecap: round"/>
   </g>
   <g id="patch_12">
    <path d="M 311.510189 220.510682 
Q 378.284775 219.947827 445.05936 219.384972 
" clip-path="url(#p4ad1145e5f)" style="fill: none; stroke: #808080; stroke-linecap: round"/>
   </g>
   <g id="patch_13">
    <path d="M 311.510189 220.510682 
Q 378.284775 219.947827 445.05936 219.384972 
" clip-path="url(#p4ad1145e5f)" style="fill: none; stroke: #808080; stroke-linecap: round"/>
   </g>
   <g id="patch_14">
    <path d="M 290.978713 205.553134 
Q 282.991036 180.023239 275.003358 154.493344 
" clip-path="url(#p4ad1145e5f)" style="fill: none; stroke: #808080; stroke-linecap: round"/>
   </g>
   <g id="patch_15">
    <path d="M 290.978713 205.553134 
Q 282.991036 180.023239 275.003358 154.493344 
" clip-path="url(#p4ad1145e5f)" style="fill: none; stroke: #808080; stroke-linecap: round"/>
   </g>
   <g id="patch_16">
    <path d="M 297.34597 236.367079 
Q 299.501138 256.95755 301.656306 277.548021 
" clip-path="url(#p4ad1145e5f)" style="fill: none; stroke: #808080; stroke-linecap: round"/>
   </g>
   <g id="patch_17">
    <path d="M 297.34597 236.367079 
Q 299.501138 256.95755 301.656306 277.548021 
" clip-path="url(#p4ad1145e5f)" style="fill: none; stroke: #808080; stroke-linecap: round"/>
   </g>
   <g id="patch_18">
    <path d="M 310.834292 216.066626 
Q 344.907267 205.761183 378.980241 195.45574 
" clip-path="url(#p4ad1145e5f)" style="fill: none; stroke: #808080; stroke-linecap: round"/>
   </g>
   <g id="patch_19">
    <path d="M 310.834292 216.066626 
Q 344.907267 205.761183 378.980241 195.45574 
" clip-path="url(#p4ad1145e5f)" style="fill: none; stroke: #808080; stroke-linecap: round"/>
   </g>
   <g id="patch_20">
    <path d="M 294.613383 204.867617 
Q 289.39118 129.06569 284.168977 53.263762 
" clip-path="url(#p4ad1145e5f)" style="fill: none; stroke: #808080; stroke-linecap: round"/>
   </g>
   <g id="patch_21">
    <path d="M 300.361678 235.752907 
Q 322.521222 307.578156 344.680767 379.403404 
" clip-path="url(#p4ad1145e5f)" style="fill: none; stroke: #808080; stroke-linecap: round"/>
   </g>
   <g id="patch_22">
    <path d="M 310.984154 216.602967 
Q 410.856941 190.197138 510.729727 163.791309 
" clip-path="url(#p4ad1145e5f)" style="fill: none; stroke: #808080; stroke-linecap: round"/>
   </g>
   <g id="patch_23">
    <path d="M 372.278616 142.841608 
Q 384.461607 209.640609 396.644598 276.439609 
" clip-path="url(#p4ad1145e5f)" style="fill: none; stroke: #808080; stroke-linecap: round"/>
   </g>
   <g id="patch_24">
    <path d="M 380.588701 138.499452 
Q 415.155074 173.267913 449.721448 208.036374 
" clip-path="url(#p4ad1145e5f)" style="fill: none; stroke: #808080; stroke-linecap: round"/>
   </g>
   <g id="patch_25">
    <path d="M 353.745462 129.205676 
Q 319.860438 133.346886 285.975414 137.488097 
" clip-path="url(#p4ad1145e5f)" style="fill: none; stroke: #808080; stroke-linecap: round"/>
   </g>
   <g id="patch_26">
    <path d="M 358.480795 115.889751 
Q 326.261251 82.386758 294.041707 48.883765 
" clip-path="url(#p4ad1145e5f)" style="fill: none; stroke: #808080; stroke-linecap: round"/>
   </g>
   <g id="patch_27">
    <path d="M 409.678623 279.910055 
Q 430.177363 255.621162 450.676103 231.33227 
" clip-path="url(#p4ad1145e5f)" style="fill: none; stroke: #808080; stroke-linecap: round"/>
   </g>
   <g id="patch_28">
    <path d="M 383.669553 292.202992 
Q 351.390578 292.631907 319.111602 293.060822 
" clip-path="url(#p4ad1145e5f)" style="fill: none; stroke: #808080; stroke-linecap: round"/>
   </g>
   <g id="patch_29">
    <path d="M 392.536024 306.193819 
Q 374.411832 343.252422 356.28764 380.311024 
" clip-path="url(#p4ad1145e5f)" style="fill: none; stroke: #808080; stroke-linecap: round"/>
   </g>
   <g id="patch_30">
    <path d="M 446.321549 213.067499 
Q 427.49451 205.065452 408.667471 197.063406 
" clip-path="url(#p4ad1145e5f)" style="fill: none; stroke: #808080; stroke-linecap: round"/>
   </g>
   <g id="patch_31">
    <path d="M 472.547488 208.587138 
Q 493.445254 189.499527 514.343021 170.411915 
" clip-path="url(#p4ad1145e5f)" style="fill: none; stroke: #808080; stroke-linecap: round"/>
   </g>
   <g id="patch_32">
    <path d="M 273.601115 154.868502 
Q 286.79239 216.338205 299.983666 277.807909 
" clip-path="url(#p4ad1145e5f)" style="fill: none; stroke: #808080; stroke-linecap: round"/>
   </g>
   <g id="patch_33">
    <path d="M 284.881378 145.473971 
Q 332.199405 165.142251 379.517431 184.81053 
" clip-path="url(#p4ad1145e5f)" style="fill: none; stroke: #808080; stroke-linecap: round"/>
   </g>
   <g id="patch_34">
    <path d="M 272.252683 123.720691 
Q 276.68238 88.447705 281.112076 53.17472 
" clip-path="url(#p4ad1145e5f)" style="fill: none; stroke: #808080; stroke-linecap: round"/>
   </g>
   <g id="patch_35">
    <path d="M 313.791718 281.443614 
Q 348.708876 242.074132 383.626034 202.70465 
" clip-path="url(#p4ad1145e5f)" style="fill: none; stroke: #808080; stroke-linecap: round"/>
   </g>
   <g id="patch_36">
    <path d="M 309.848053 307.665554 
Q 326.322226 343.891936 342.796399 380.118317 
" clip-path="url(#p4ad1145e5f)" style="fill: none; stroke: #808080; stroke-linecap: round"/>
   </g>
   <g id="patch_37">
    <path d="M 409.503808 187.246453 
Q 460.067442 175.313484 510.631075 163.380514 
" clip-path="url(#p4ad1145e5f)" style="fill: none; stroke: #808080; stroke-linecap: round"/>
   </g>
   <g id="PathCollection_1">
    <defs>
     <path id="m2d61561d3f" d="M 0 15.811388 
C 4.193229 15.811388 8.215279 14.145401 11.18034 11.18034 
C 14.145401 8.215279 15.811388 4.193229 15.811388 0 
C 15.811388 -4.193229 14.145401 -8.215279 11.18034 -11.18034 
C 8.215279 -14.145401 4.193229 -15.811388 0 -15.811388 
C -4.193229 -15.811388 -8.215279 -14.145401 -11.18034 -11.18034 
C -14.145401 -8.215279 -15.811388 -4.193229 -15.811388 0 
C -15.811388 4.193229 -14.145401 8.215279 -11.18034 11.18034 
C -8.215279 14.145401 -4.193229 15.811388 0 15.811388 
z
" style="stroke: #add8e6"/>
    </defs>
    <g clip-path="url(#p4ad1145e5f)">
     <use xlink:href="#m2d61561d3f" x="49.983471" y="270.260084" style="fill: #add8e6; stroke: #add8e6"/>
     <use xlink:href="#m2d61561d3f" x="77.84949" y="203.146191" style="fill: #add8e6; stroke: #add8e6"/>
     <use xlink:href="#m2d61561d3f" x="108.756123" y="319.94285" style="fill: #add8e6; stroke: #add8e6"/>
     <use xlink:href="#m2d61561d3f" x="295.700258" y="220.643947" style="fill: #add8e6; stroke: #add8e6"/>
     <use xlink:href="#m2d61561d3f" x="369.44179" y="127.287371" style="fill: #add8e6; stroke: #add8e6"/>
     <use xlink:href="#m2d61561d3f" x="399.48125" y="291.99289" style="fill: #add8e6; stroke: #add8e6"/>
     <use xlink:href="#m2d61561d3f" x="460.871575" y="219.251688" style="fill: #add8e6; stroke: #add8e6"/>
     <use xlink:href="#m2d61561d3f" x="270.282879" y="139.405937" style="fill: #add8e6; stroke: #add8e6"/>
     <use xlink:href="#m2d61561d3f" x="303.301992" y="293.270896" style="fill: #add8e6; stroke: #add8e6"/>
     <use xlink:href="#m2d61561d3f" x="394.115032" y="190.87819" style="fill: #add8e6; stroke: #add8e6"/>
     <use xlink:href="#m2d61561d3f" x="283.082115" y="37.487603" style="fill: #add8e6; stroke: #add8e6"/>
     <use xlink:href="#m2d61561d3f" x="349.342197" y="394.512397" style="fill: #add8e6; stroke: #add8e6"/>
     <use xlink:href="#m2d61561d3f" x="526.016529" y="159.749561" style="fill: #add8e6; stroke: #add8e6"/>
    </g>
   </g>
   <g id="text_1">
    <g clip-path="url(#p4ad1145e5f)">
     <!-- 0 -->
     <g transform="translate(45.211596 274.399147) scale(0.15 -0.15)">
      <defs>
       <path id="DejaVuSans-30" d="M 2034 4250 
Q 1547 4250 1301 3770 
Q 1056 3291 1056 2328 
Q 1056 1369 1301 889 
Q 1547 409 2034 409 
Q 2525 409 2770 889 
Q 3016 1369 3016 2328 
Q 3016 3291 2770 3770 
Q 2525 4250 2034 4250 
z
M 2034 4750 
Q 2819 4750 3233 4129 
Q 3647 3509 3647 2328 
Q 3647 1150 3233 529 
Q 2819 -91 2034 -91 
Q 1250 -91 836 529 
Q 422 1150 422 2328 
Q 422 3509 836 4129 
Q 1250 4750 2034 4750 
z
" transform="scale(0.015625)"/>
      </defs>
      <use xlink:href="#DejaVuSans-30"/>
     </g>
    </g>
   </g>
   <g id="text_2">
    <g clip-path="url(#p4ad1145e5f)">
     <!-- 1 -->
     <g transform="translate(73.077615 207.285253) scale(0.15 -0.15)">
      <defs>
       <path id="DejaVuSans-31" d="M 794 531 
L 1825 531 
L 1825 4091 
L 703 3866 
L 703 4441 
L 1819 4666 
L 2450 4666 
L 2450 531 
L 3481 531 
L 3481 0 
L 794 0 
L 794 531 
z
" transform="scale(0.015625)"/>
      </defs>
      <use xlink:href="#DejaVuSans-31"/>
     </g>
    </g>
   </g>
   <g id="text_3">
    <g clip-path="url(#p4ad1145e5f)">
     <!-- 2 -->
     <g transform="translate(103.984248 324.081912) scale(0.15 -0.15)">
      <defs>
       <path id="DejaVuSans-32" d="M 1228 531 
L 3431 531 
L 3431 0 
L 469 0 
L 469 531 
Q 828 903 1448 1529 
Q 2069 2156 2228 2338 
Q 2531 2678 2651 2914 
Q 2772 3150 2772 3378 
Q 2772 3750 2511 3984 
Q 2250 4219 1831 4219 
Q 1534 4219 1204 4116 
Q 875 4013 500 3803 
L 500 4441 
Q 881 4594 1212 4672 
Q 1544 4750 1819 4750 
Q 2544 4750 2975 4387 
Q 3406 4025 3406 3419 
Q 3406 3131 3298 2873 
Q 3191 2616 2906 2266 
Q 2828 2175 2409 1742 
Q 1991 1309 1228 531 
z
" transform="scale(0.015625)"/>
      </defs>
      <use xlink:href="#DejaVuSans-32"/>
     </g>
    </g>
   </g>
   <g id="text_4">
    <g clip-path="url(#p4ad1145e5f)">
     <!-- 12 -->
     <g transform="translate(286.156508 224.783009) scale(0.15 -0.15)">
      <use xlink:href="#DejaVuSans-31"/>
      <use xlink:href="#DejaVuSans-32" x="63.623047"/>
     </g>
    </g>
   </g>
   <g id="text_5">
    <g clip-path="url(#p4ad1145e5f)">
     <!-- 3 -->
     <g transform="translate(364.669915 131.426434) scale(0.15 -0.15)">
      <defs>
       <path id="DejaVuSans-33" d="M 2597 2516 
Q 3050 2419 3304 2112 
Q 3559 1806 3559 1356 
Q 3559 666 3084 287 
Q 2609 -91 1734 -91 
Q 1441 -91 1130 -33 
Q 819 25 488 141 
L 488 750 
Q 750 597 1062 519 
Q 1375 441 1716 441 
Q 2309 441 2620 675 
Q 2931 909 2931 1356 
Q 2931 1769 2642 2001 
Q 2353 2234 1838 2234 
L 1294 2234 
L 1294 2753 
L 1863 2753 
Q 2328 2753 2575 2939 
Q 2822 3125 2822 3475 
Q 2822 3834 2567 4026 
Q 2313 4219 1838 4219 
Q 1578 4219 1281 4162 
Q 984 4106 628 3988 
L 628 4550 
Q 988 4650 1302 4700 
Q 1616 4750 1894 4750 
Q 2613 4750 3031 4423 
Q 3450 4097 3450 3541 
Q 3450 3153 3228 2886 
Q 3006 2619 2597 2516 
z
" transform="scale(0.015625)"/>
      </defs>
      <use xlink:href="#DejaVuSans-33"/>
     </g>
    </g>
   </g>
   <g id="text_6">
    <g clip-path="url(#p4ad1145e5f)">
     <!-- 4 -->
     <g transform="translate(394.709375 296.131953) scale(0.15 -0.15)">
      <defs>
       <path id="DejaVuSans-34" d="M 2419 4116 
L 825 1625 
L 2419 1625 
L 2419 4116 
z
M 2253 4666 
L 3047 4666 
L 3047 1625 
L 3713 1625 
L 3713 1100 
L 3047 1100 
L 3047 0 
L 2419 0 
L 2419 1100 
L 313 1100 
L 313 1709 
L 2253 4666 
z
" transform="scale(0.015625)"/>
      </defs>
      <use xlink:href="#DejaVuSans-34"/>
     </g>
    </g>
   </g>
   <g id="text_7">
    <g clip-path="url(#p4ad1145e5f)">
     <!-- 5 -->
     <g transform="translate(456.0997 223.390751) scale(0.15 -0.15)">
      <defs>
       <path id="DejaVuSans-35" d="M 691 4666 
L 3169 4666 
L 3169 4134 
L 1269 4134 
L 1269 2991 
Q 1406 3038 1543 3061 
Q 1681 3084 1819 3084 
Q 2600 3084 3056 2656 
Q 3513 2228 3513 1497 
Q 3513 744 3044 326 
Q 2575 -91 1722 -91 
Q 1428 -91 1123 -41 
Q 819 9 494 109 
L 494 744 
Q 775 591 1075 516 
Q 1375 441 1709 441 
Q 2250 441 2565 725 
Q 2881 1009 2881 1497 
Q 2881 1984 2565 2268 
Q 2250 2553 1709 2553 
Q 1456 2553 1204 2497 
Q 953 2441 691 2322 
L 691 4666 
z
" transform="scale(0.015625)"/>
      </defs>
      <use xlink:href="#DejaVuSans-35"/>
     </g>
    </g>
   </g>
   <g id="text_8">
    <g clip-path="url(#p4ad1145e5f)">
     <!-- 6 -->
     <g transform="translate(265.511004 143.545) scale(0.15 -0.15)">
      <defs>
       <path id="DejaVuSans-36" d="M 2113 2584 
Q 1688 2584 1439 2293 
Q 1191 2003 1191 1497 
Q 1191 994 1439 701 
Q 1688 409 2113 409 
Q 2538 409 2786 701 
Q 3034 994 3034 1497 
Q 3034 2003 2786 2293 
Q 2538 2584 2113 2584 
z
M 3366 4563 
L 3366 3988 
Q 3128 4100 2886 4159 
Q 2644 4219 2406 4219 
Q 1781 4219 1451 3797 
Q 1122 3375 1075 2522 
Q 1259 2794 1537 2939 
Q 1816 3084 2150 3084 
Q 2853 3084 3261 2657 
Q 3669 2231 3669 1497 
Q 3669 778 3244 343 
Q 2819 -91 2113 -91 
Q 1303 -91 875 529 
Q 447 1150 447 2328 
Q 447 3434 972 4092 
Q 1497 4750 2381 4750 
Q 2619 4750 2861 4703 
Q 3103 4656 3366 4563 
z
" transform="scale(0.015625)"/>
      </defs>
      <use xlink:href="#DejaVuSans-36"/>
     </g>
    </g>
   </g>
   <g id="text_9">
    <g clip-path="url(#p4ad1145e5f)">
     <!-- 7 -->
     <g transform="translate(298.530117 297.409959) scale(0.15 -0.15)">
      <defs>
       <path id="DejaVuSans-37" d="M 525 4666 
L 3525 4666 
L 3525 4397 
L 1831 0 
L 1172 0 
L 2766 4134 
L 525 4134 
L 525 4666 
z
" transform="scale(0.015625)"/>
      </defs>
      <use xlink:href="#DejaVuSans-37"/>
     </g>
    </g>
   </g>
   <g id="text_10">
    <g clip-path="url(#p4ad1145e5f)">
     <!-- 8 -->
     <g transform="translate(389.343157 195.017253) scale(0.15 -0.15)">
      <defs>
       <path id="DejaVuSans-38" d="M 2034 2216 
Q 1584 2216 1326 1975 
Q 1069 1734 1069 1313 
Q 1069 891 1326 650 
Q 1584 409 2034 409 
Q 2484 409 2743 651 
Q 3003 894 3003 1313 
Q 3003 1734 2745 1975 
Q 2488 2216 2034 2216 
z
M 1403 2484 
Q 997 2584 770 2862 
Q 544 3141 544 3541 
Q 544 4100 942 4425 
Q 1341 4750 2034 4750 
Q 2731 4750 3128 4425 
Q 3525 4100 3525 3541 
Q 3525 3141 3298 2862 
Q 3072 2584 2669 2484 
Q 3125 2378 3379 2068 
Q 3634 1759 3634 1313 
Q 3634 634 3220 271 
Q 2806 -91 2034 -91 
Q 1263 -91 848 271 
Q 434 634 434 1313 
Q 434 1759 690 2068 
Q 947 2378 1403 2484 
z
M 1172 3481 
Q 1172 3119 1398 2916 
Q 1625 2713 2034 2713 
Q 2441 2713 2670 2916 
Q 2900 3119 2900 3481 
Q 2900 3844 2670 4047 
Q 2441 4250 2034 4250 
Q 1625 4250 1398 4047 
Q 1172 3844 1172 3481 
z
" transform="scale(0.015625)"/>
      </defs>
      <use xlink:href="#DejaVuSans-38"/>
     </g>
    </g>
   </g>
   <g id="text_11">
    <g clip-path="url(#p4ad1145e5f)">
     <!-- 9 -->
     <g transform="translate(278.31024 41.626666) scale(0.15 -0.15)">
      <defs>
       <path id="DejaVuSans-39" d="M 703 97 
L 703 672 
Q 941 559 1184 500 
Q 1428 441 1663 441 
Q 2288 441 2617 861 
Q 2947 1281 2994 2138 
Q 2813 1869 2534 1725 
Q 2256 1581 1919 1581 
Q 1219 1581 811 2004 
Q 403 2428 403 3163 
Q 403 3881 828 4315 
Q 1253 4750 1959 4750 
Q 2769 4750 3195 4129 
Q 3622 3509 3622 2328 
Q 3622 1225 3098 567 
Q 2575 -91 1691 -91 
Q 1453 -91 1209 -44 
Q 966 3 703 97 
z
M 1959 2075 
Q 2384 2075 2632 2365 
Q 2881 2656 2881 3163 
Q 2881 3666 2632 3958 
Q 2384 4250 1959 4250 
Q 1534 4250 1286 3958 
Q 1038 3666 1038 3163 
Q 1038 2656 1286 2365 
Q 1534 2075 1959 2075 
z
" transform="scale(0.015625)"/>
      </defs>
      <use xlink:href="#DejaVuSans-39"/>
     </g>
    </g>
   </g>
   <g id="text_12">
    <g clip-path="url(#p4ad1145e5f)">
     <!-- 10 -->
     <g transform="translate(339.798447 398.651459) scale(0.15 -0.15)">
      <use xlink:href="#DejaVuSans-31"/>
      <use xlink:href="#DejaVuSans-30" x="63.623047"/>
     </g>
    </g>
   </g>
   <g id="text_13">
    <g clip-path="url(#p4ad1145e5f)">
     <!-- 11 -->
     <g transform="translate(516.472779 163.888624) scale(0.15 -0.15)">
      <use xlink:href="#DejaVuSans-31"/>
      <use xlink:href="#DejaVuSans-31" x="63.623047"/>
     </g>
    </g>
   </g>
  </g>
 </g>
 <defs>
  <clipPath id="p4ad1145e5f">
   <rect x="0" y="0" width="576" height="432"/>
  </clipPath>
 </defs>
</svg>
</defs>
</svg>
