<?xml version="1.0" encoding="utf-8" standalone="no"?>
<!DOCTYPE svg PUBLIC "-//W3C//DTD SVG 1.1//EN"
  "http://www.w3.org/Graphics/SVG/1.1/DTD/svg11.dtd">
<svg xmlns:xlink="http://www.w3.org/1999/xlink" width="1802.004455pt" height="870.89375pt" viewBox="0 0 1802.004455 870.89375" xmlns="http://www.w3.org/2000/svg" version="1.1">
 <metadata>
  <rdf:RDF xmlns:dc="http://purl.org/dc/elements/1.1/" xmlns:cc="http://creativecommons.org/ns#" xmlns:rdf="http://www.w3.org/1999/02/22-rdf-syntax-ns#">
   <cc:Work>
    <dc:type rdf:resource="http://purl.org/dc/dcmitype/StillImage"/>
    <dc:date>2024-11-22T14:55:36.399620</dc:date>
    <dc:format>image/svg+xml</dc:format>
    <dc:creator>
     <cc:Agent>
      <dc:title>Matplotlib v3.9.1, https://matplotlib.org/</dc:title>
     </cc:Agent>
    </dc:creator>
   </cc:Work>
  </rdf:RDF>
 </metadata>
 <defs>
  <style type="text/css">*{stroke-linejoin: round; stroke-linecap: butt}</style>
 </defs>
 <g id="figure_1">
  <g id="patch_1">
   <path d="M 0 870.89375 
L 1802.004455 870.89375 
L 1802.004455 0 
L 0 0 
z
" style="fill: #ffffff"/>
  </g>
  <g id="axes_1">
   <g id="patch_2">
    <path d="M 179.196875 727.2 
L 1161.276875 727.2 
L 1161.276875 7.2 
L 179.196875 7.2 
z
" style="fill: #ffffff"/>
   </g>
   <g id="matplotlib.axis_1">
    <g id="xtick_1">
     <g id="line2d_1">
      <defs>
       <path id="m4f096ba3c2" d="M 0 0 
L 0 20 
" style="stroke: #000000; stroke-width: 5"/>
      </defs>
      <g>
       <use xlink:href="#m4f096ba3c2" x="223.836875" y="727.2" style="fill: #f8d941; stroke: #000000; stroke-width: 5"/>
      </g>
     </g>
     <g id="text_1">
      <!-- 0 -->
      <g transform="translate(208.836875 792.3625) scale(0.6 -0.6)">
       <defs>
        <path id="TimesNewRomanPSMT-30" d="M 231 2094 
Q 231 2819 450 3342 
Q 669 3866 1031 4122 
Q 1313 4325 1613 4325 
Q 2100 4325 2488 3828 
Q 2972 3213 2972 2159 
Q 2972 1422 2759 906 
Q 2547 391 2217 158 
Q 1888 -75 1581 -75 
Q 975 -75 572 641 
Q 231 1244 231 2094 
z
M 844 2016 
Q 844 1141 1059 588 
Q 1238 122 1591 122 
Q 1759 122 1940 273 
Q 2122 425 2216 781 
Q 2359 1319 2359 2297 
Q 2359 3022 2209 3506 
Q 2097 3866 1919 4016 
Q 1791 4119 1609 4119 
Q 1397 4119 1231 3928 
Q 1006 3669 925 3112 
Q 844 2556 844 2016 
z
" transform="scale(0.015625)"/>
       </defs>
       <use xlink:href="#TimesNewRomanPSMT-30"/>
      </g>
     </g>
    </g>
    <g id="xtick_2">
     <g id="line2d_2">
      <g>
       <use xlink:href="#m4f096ba3c2" x="447.036875" y="727.2" style="fill: #f8d941; stroke: #000000; stroke-width: 5"/>
      </g>
     </g>
     <g id="text_2">
      <!-- 25 -->
      <g transform="translate(417.036875 792.3625) scale(0.6 -0.6)">
       <defs>
        <path id="TimesNewRomanPSMT-32" d="M 2934 816 
L 2638 0 
L 138 0 
L 138 116 
Q 1241 1122 1691 1759 
Q 2141 2397 2141 2925 
Q 2141 3328 1894 3587 
Q 1647 3847 1303 3847 
Q 991 3847 742 3664 
Q 494 3481 375 3128 
L 259 3128 
Q 338 3706 661 4015 
Q 984 4325 1469 4325 
Q 1984 4325 2329 3994 
Q 2675 3663 2675 3213 
Q 2675 2891 2525 2569 
Q 2294 2063 1775 1497 
Q 997 647 803 472 
L 1909 472 
Q 2247 472 2383 497 
Q 2519 522 2628 598 
Q 2738 675 2819 816 
L 2934 816 
z
" transform="scale(0.015625)"/>
        <path id="TimesNewRomanPSMT-35" d="M 2778 4238 
L 2534 3706 
L 1259 3706 
L 981 3138 
Q 1809 3016 2294 2522 
Q 2709 2097 2709 1522 
Q 2709 1188 2573 903 
Q 2438 619 2231 419 
Q 2025 219 1772 97 
Q 1413 -75 1034 -75 
Q 653 -75 479 54 
Q 306 184 306 341 
Q 306 428 378 495 
Q 450 563 559 563 
Q 641 563 702 538 
Q 763 513 909 409 
Q 1144 247 1384 247 
Q 1750 247 2026 523 
Q 2303 800 2303 1197 
Q 2303 1581 2056 1914 
Q 1809 2247 1375 2428 
Q 1034 2569 447 2591 
L 1259 4238 
L 2778 4238 
z
" transform="scale(0.015625)"/>
       </defs>
       <use xlink:href="#TimesNewRomanPSMT-32"/>
       <use xlink:href="#TimesNewRomanPSMT-35" x="50"/>
      </g>
     </g>
    </g>
    <g id="xtick_3">
     <g id="line2d_3">
      <g>
       <use xlink:href="#m4f096ba3c2" x="670.236875" y="727.2" style="fill: #f8d941; stroke: #000000; stroke-width: 5"/>
      </g>
     </g>
     <g id="text_3">
      <!-- 50 -->
      <g transform="translate(640.236875 792.3625) scale(0.6 -0.6)">
       <use xlink:href="#TimesNewRomanPSMT-35"/>
       <use xlink:href="#TimesNewRomanPSMT-30" x="50"/>
      </g>
     </g>
    </g>
    <g id="xtick_4">
     <g id="line2d_4">
      <g>
       <use xlink:href="#m4f096ba3c2" x="893.436875" y="727.2" style="fill: #f8d941; stroke: #000000; stroke-width: 5"/>
      </g>
     </g>
     <g id="text_4">
      <!-- 75 -->
      <g transform="translate(863.436875 792.3625) scale(0.6 -0.6)">
       <defs>
        <path id="TimesNewRomanPSMT-37" d="M 644 4238 
L 2916 4238 
L 2916 4119 
L 1503 -88 
L 1153 -88 
L 2419 3728 
L 1253 3728 
Q 900 3728 750 3644 
Q 488 3500 328 3200 
L 238 3234 
L 644 4238 
z
" transform="scale(0.015625)"/>
       </defs>
       <use xlink:href="#TimesNewRomanPSMT-37"/>
       <use xlink:href="#TimesNewRomanPSMT-35" x="50"/>
      </g>
     </g>
    </g>
    <g id="xtick_5">
     <g id="line2d_5">
      <g>
       <use xlink:href="#m4f096ba3c2" x="1116.636875" y="727.2" style="fill: #f8d941; stroke: #000000; stroke-width: 5"/>
      </g>
     </g>
     <g id="text_5">
      <!-- 100 -->
      <g transform="translate(1071.636875 792.3625) scale(0.6 -0.6)">
       <defs>
        <path id="TimesNewRomanPSMT-31" d="M 750 3822 
L 1781 4325 
L 1884 4325 
L 1884 747 
Q 1884 391 1914 303 
Q 1944 216 2037 169 
Q 2131 122 2419 116 
L 2419 0 
L 825 0 
L 825 116 
Q 1125 122 1212 167 
Q 1300 213 1334 289 
Q 1369 366 1369 747 
L 1369 3034 
Q 1369 3497 1338 3628 
Q 1316 3728 1258 3775 
Q 1200 3822 1119 3822 
Q 1003 3822 797 3725 
L 750 3822 
z
" transform="scale(0.015625)"/>
       </defs>
       <use xlink:href="#TimesNewRomanPSMT-31"/>
       <use xlink:href="#TimesNewRomanPSMT-30" x="50"/>
       <use xlink:href="#TimesNewRomanPSMT-30" x="100"/>
      </g>
     </g>
    </g>
    <g id="text_6">
     <!-- tau(%) -->
     <g transform="translate(588.618125 850.859375) scale(0.6 -0.6)">
      <defs>
       <path id="TimesNewRomanPSMT-74" d="M 1031 3803 
L 1031 2863 
L 1700 2863 
L 1700 2644 
L 1031 2644 
L 1031 788 
Q 1031 509 1111 412 
Q 1191 316 1316 316 
Q 1419 316 1516 380 
Q 1613 444 1666 569 
L 1788 569 
Q 1678 263 1478 108 
Q 1278 -47 1066 -47 
Q 922 -47 784 33 
Q 647 113 581 261 
Q 516 409 516 719 
L 516 2644 
L 63 2644 
L 63 2747 
Q 234 2816 414 2980 
Q 594 3144 734 3369 
Q 806 3488 934 3803 
L 1031 3803 
z
" transform="scale(0.015625)"/>
       <path id="TimesNewRomanPSMT-61" d="M 1822 413 
Q 1381 72 1269 19 
Q 1100 -59 909 -59 
Q 613 -59 420 144 
Q 228 347 228 678 
Q 228 888 322 1041 
Q 450 1253 767 1440 
Q 1084 1628 1822 1897 
L 1822 2009 
Q 1822 2438 1686 2597 
Q 1550 2756 1291 2756 
Q 1094 2756 978 2650 
Q 859 2544 859 2406 
L 866 2225 
Q 866 2081 792 2003 
Q 719 1925 600 1925 
Q 484 1925 411 2006 
Q 338 2088 338 2228 
Q 338 2497 613 2722 
Q 888 2947 1384 2947 
Q 1766 2947 2009 2819 
Q 2194 2722 2281 2516 
Q 2338 2381 2338 1966 
L 2338 994 
Q 2338 584 2353 492 
Q 2369 400 2405 369 
Q 2441 338 2488 338 
Q 2538 338 2575 359 
Q 2641 400 2828 588 
L 2828 413 
Q 2478 -56 2159 -56 
Q 2006 -56 1915 50 
Q 1825 156 1822 413 
z
M 1822 616 
L 1822 1706 
Q 1350 1519 1213 1441 
Q 966 1303 859 1153 
Q 753 1003 753 825 
Q 753 600 887 451 
Q 1022 303 1197 303 
Q 1434 303 1822 616 
z
" transform="scale(0.015625)"/>
       <path id="TimesNewRomanPSMT-75" d="M 2709 2863 
L 2709 1128 
Q 2709 631 2732 520 
Q 2756 409 2807 365 
Q 2859 322 2928 322 
Q 3025 322 3147 375 
L 3191 266 
L 2334 -88 
L 2194 -88 
L 2194 519 
Q 1825 119 1631 15 
Q 1438 -88 1222 -88 
Q 981 -88 804 51 
Q 628 191 559 409 
Q 491 628 491 1028 
L 491 2306 
Q 491 2509 447 2587 
Q 403 2666 317 2708 
Q 231 2750 6 2747 
L 6 2863 
L 1009 2863 
L 1009 947 
Q 1009 547 1148 422 
Q 1288 297 1484 297 
Q 1619 297 1789 381 
Q 1959 466 2194 703 
L 2194 2325 
Q 2194 2569 2105 2655 
Q 2016 2741 1734 2747 
L 1734 2863 
L 2709 2863 
z
" transform="scale(0.015625)"/>
       <path id="TimesNewRomanPSMT-28" d="M 1988 -1253 
L 1988 -1369 
Q 1516 -1131 1200 -813 
Q 750 -359 506 256 
Q 263 872 263 1534 
Q 263 2503 741 3301 
Q 1219 4100 1988 4444 
L 1988 4313 
Q 1603 4100 1356 3731 
Q 1109 3363 987 2797 
Q 866 2231 866 1616 
Q 866 947 969 400 
Q 1050 -31 1165 -292 
Q 1281 -553 1476 -793 
Q 1672 -1034 1988 -1253 
z
" transform="scale(0.015625)"/>
       <path id="TimesNewRomanPSMT-25" d="M 4350 4334 
L 1263 -175 
L 984 -175 
L 4072 4334 
L 4350 4334 
z
M 1138 4334 
Q 1559 4334 1792 3984 
Q 2025 3634 2025 3181 
Q 2025 2638 1762 2341 
Q 1500 2044 1131 2044 
Q 884 2044 678 2180 
Q 472 2316 348 2584 
Q 225 2853 225 3181 
Q 225 3509 350 3786 
Q 475 4063 692 4198 
Q 909 4334 1138 4334 
z
M 1128 4159 
Q 969 4159 845 3971 
Q 722 3784 722 3184 
Q 722 2750 791 2522 
Q 844 2350 956 2256 
Q 1022 2200 1119 2200 
Q 1269 2200 1375 2363 
Q 1531 2603 1531 3166 
Q 1531 3759 1378 4000 
Q 1278 4159 1128 4159 
z
M 4206 2103 
Q 4428 2103 4648 1962 
Q 4869 1822 4989 1553 
Q 5109 1284 5109 963 
Q 5109 409 4843 117 
Q 4578 -175 4216 -175 
Q 3988 -175 3773 -34 
Q 3559 106 3436 367 
Q 3313 628 3313 963 
Q 3313 1291 3436 1562 
Q 3559 1834 3773 1968 
Q 3988 2103 4206 2103 
z
M 4209 1938 
Q 4059 1938 3950 1769 
Q 3809 1550 3809 941 
Q 3809 381 3953 159 
Q 4059 0 4209 0 
Q 4353 0 4466 172 
Q 4616 400 4616 956 
Q 4616 1544 4466 1778 
Q 4363 1938 4209 1938 
z
" transform="scale(0.015625)"/>
       <path id="TimesNewRomanPSMT-29" d="M 144 4313 
L 144 4444 
Q 619 4209 934 3891 
Q 1381 3434 1625 2820 
Q 1869 2206 1869 1541 
Q 1869 572 1392 -226 
Q 916 -1025 144 -1369 
L 144 -1253 
Q 528 -1038 776 -670 
Q 1025 -303 1145 264 
Q 1266 831 1266 1447 
Q 1266 2113 1163 2663 
Q 1084 3094 967 3353 
Q 850 3613 656 3853 
Q 463 4094 144 4313 
z
" transform="scale(0.015625)"/>
      </defs>
      <use xlink:href="#TimesNewRomanPSMT-74"/>
      <use xlink:href="#TimesNewRomanPSMT-61" x="27.783203"/>
      <use xlink:href="#TimesNewRomanPSMT-75" x="72.167969"/>
      <use xlink:href="#TimesNewRomanPSMT-28" x="122.167969"/>
      <use xlink:href="#TimesNewRomanPSMT-25" x="155.46875"/>
      <use xlink:href="#TimesNewRomanPSMT-29" x="238.769531"/>
     </g>
    </g>
   </g>
   <g id="matplotlib.axis_2">
    <g id="ytick_1">
     <g id="line2d_6">
      <defs>
       <path id="m2c85cd5409" d="M 0 0 
L -20 0 
" style="stroke: #000000; stroke-width: 5"/>
      </defs>
      <g>
       <use xlink:href="#m2c85cd5409" x="179.196875" y="700.369533" style="fill: #f8d941; stroke: #000000; stroke-width: 5"/>
      </g>
     </g>
     <g id="text_7">
      <!-- 0 -->
      <g transform="translate(125.696875 721.200783) scale(0.6 -0.6)">
       <use xlink:href="#TimesNewRomanPSMT-30"/>
      </g>
     </g>
    </g>
    <g id="ytick_2">
     <g id="line2d_7">
      <g>
       <use xlink:href="#m2c85cd5409" x="179.196875" y="552.949386" style="fill: #f8d941; stroke: #000000; stroke-width: 5"/>
      </g>
     </g>
     <g id="text_8">
      <!-- 50 -->
      <g transform="translate(95.696875 573.780636) scale(0.6 -0.6)">
       <use xlink:href="#TimesNewRomanPSMT-35"/>
       <use xlink:href="#TimesNewRomanPSMT-30" x="50"/>
      </g>
     </g>
    </g>
    <g id="ytick_3">
     <g id="line2d_8">
      <g>
       <use xlink:href="#m2c85cd5409" x="179.196875" y="405.529238" style="fill: #f8d941; stroke: #000000; stroke-width: 5"/>
      </g>
     </g>
     <g id="text_9">
      <!-- 100 -->
      <g transform="translate(65.696875 426.360488) scale(0.6 -0.6)">
       <use xlink:href="#TimesNewRomanPSMT-31"/>
       <use xlink:href="#TimesNewRomanPSMT-30" x="50"/>
       <use xlink:href="#TimesNewRomanPSMT-30" x="100"/>
      </g>
     </g>
    </g>
    <g id="ytick_4">
     <g id="line2d_9">
      <g>
       <use xlink:href="#m2c85cd5409" x="179.196875" y="258.109091" style="fill: #f8d941; stroke: #000000; stroke-width: 5"/>
      </g>
     </g>
     <g id="text_10">
      <!-- 150 -->
      <g transform="translate(65.696875 278.940341) scale(0.6 -0.6)">
       <use xlink:href="#TimesNewRomanPSMT-31"/>
       <use xlink:href="#TimesNewRomanPSMT-35" x="50"/>
       <use xlink:href="#TimesNewRomanPSMT-30" x="100"/>
      </g>
     </g>
    </g>
    <g id="ytick_5">
     <g id="line2d_10">
      <g>
       <use xlink:href="#m2c85cd5409" x="179.196875" y="110.688943" style="fill: #f8d941; stroke: #000000; stroke-width: 5"/>
      </g>
     </g>
     <g id="text_11">
      <!-- 200 -->
      <g transform="translate(65.696875 131.520193) scale(0.6 -0.6)">
       <use xlink:href="#TimesNewRomanPSMT-32"/>
       <use xlink:href="#TimesNewRomanPSMT-30" x="50"/>
       <use xlink:href="#TimesNewRomanPSMT-30" x="100"/>
      </g>
     </g>
    </g>
    <g id="text_12">
     <!-- #state -->
     <g transform="translate(48.8625 437.179688) rotate(-90) scale(0.6 -0.6)">
      <defs>
       <path id="TimesNewRomanPSMT-23" d="M 359 -88 
L 650 1334 
L 116 1334 
L 116 1591 
L 700 1591 
L 916 2663 
L 116 2663 
L 116 2913 
L 975 2913 
L 1259 4334 
L 1519 4334 
L 1234 2913 
L 2288 2913 
L 2591 4334 
L 2850 4334 
L 2553 2913 
L 3084 2913 
L 3084 2663 
L 2506 2663 
L 2288 1591 
L 3084 1591 
L 3084 1334 
L 2234 1334 
L 1944 -88 
L 1691 -88 
L 1975 1334 
L 916 1334 
L 619 -88 
L 359 -88 
z
M 963 1591 
L 2022 1591 
L 2247 2663 
L 1181 2663 
L 963 1591 
z
" transform="scale(0.015625)"/>
       <path id="TimesNewRomanPSMT-73" d="M 2050 2947 
L 2050 1972 
L 1947 1972 
Q 1828 2431 1642 2597 
Q 1456 2763 1169 2763 
Q 950 2763 815 2647 
Q 681 2531 681 2391 
Q 681 2216 781 2091 
Q 878 1963 1175 1819 
L 1631 1597 
Q 2266 1288 2266 781 
Q 2266 391 1970 151 
Q 1675 -88 1309 -88 
Q 1047 -88 709 6 
Q 606 38 541 38 
Q 469 38 428 -44 
L 325 -44 
L 325 978 
L 428 978 
Q 516 541 762 319 
Q 1009 97 1316 97 
Q 1531 97 1667 223 
Q 1803 350 1803 528 
Q 1803 744 1651 891 
Q 1500 1038 1047 1263 
Q 594 1488 453 1669 
Q 313 1847 313 2119 
Q 313 2472 555 2709 
Q 797 2947 1181 2947 
Q 1350 2947 1591 2875 
Q 1750 2828 1803 2828 
Q 1853 2828 1881 2850 
Q 1909 2872 1947 2947 
L 2050 2947 
z
" transform="scale(0.015625)"/>
       <path id="TimesNewRomanPSMT-65" d="M 681 1784 
Q 678 1147 991 784 
Q 1303 422 1725 422 
Q 2006 422 2214 576 
Q 2422 731 2563 1106 
L 2659 1044 
Q 2594 616 2278 264 
Q 1963 -88 1488 -88 
Q 972 -88 605 314 
Q 238 716 238 1394 
Q 238 2128 614 2539 
Q 991 2950 1559 2950 
Q 2041 2950 2350 2633 
Q 2659 2316 2659 1784 
L 681 1784 
z
M 681 1966 
L 2006 1966 
Q 1991 2241 1941 2353 
Q 1863 2528 1708 2628 
Q 1553 2728 1384 2728 
Q 1125 2728 920 2526 
Q 716 2325 681 1966 
z
" transform="scale(0.015625)"/>
      </defs>
      <use xlink:href="#TimesNewRomanPSMT-23"/>
      <use xlink:href="#TimesNewRomanPSMT-73" x="50"/>
      <use xlink:href="#TimesNewRomanPSMT-74" x="88.916016"/>
      <use xlink:href="#TimesNewRomanPSMT-61" x="116.699219"/>
      <use xlink:href="#TimesNewRomanPSMT-74" x="161.083984"/>
      <use xlink:href="#TimesNewRomanPSMT-65" x="188.867188"/>
     </g>
    </g>
   </g>
   <g id="line2d_11">
    <path d="M 223.836875 694.472727 
L 256.903542 691.524324 
L 289.970208 691.524324 
L 323.036875 691.524324 
L 356.103542 685.627518 
L 389.170208 682.679115 
L 422.236875 679.730713 
L 455.303542 679.730713 
L 488.370208 679.730713 
L 521.436875 673.833907 
L 554.503542 667.937101 
L 587.570208 667.937101 
L 620.636875 662.040295 
L 653.703542 656.143489 
L 686.770208 653.195086 
L 719.836875 650.246683 
L 752.903542 644.349877 
L 785.970208 638.453071 
L 819.036875 629.607862 
L 852.103542 629.607862 
L 885.170208 629.607862 
L 918.236875 629.607862 
L 951.303542 629.607862 
L 984.370208 629.607862 
L 1017.436875 629.607862 
L 1050.503542 629.607862 
L 1083.570208 629.607862 
L 1116.636875 629.607862 
" clip-path="url(#pf756d72950)" style="fill: none; stroke-dasharray: 25.9,11.2; stroke-dashoffset: 0; stroke: #384b70; stroke-width: 7"/>
   </g>
   <g id="line2d_12">
    <path d="M 223.836875 694.472727 
L 256.903542 691.524324 
L 289.970208 685.627518 
L 323.036875 682.679115 
L 356.103542 679.730713 
L 389.170208 673.833907 
L 422.236875 667.937101 
L 455.303542 662.040295 
L 488.370208 656.143489 
L 521.436875 653.195086 
L 554.503542 650.246683 
L 587.570208 644.349877 
L 620.636875 638.453071 
L 653.703542 629.607862 
L 686.770208 629.607862 
L 719.836875 629.607862 
L 752.903542 629.607862 
L 785.970208 629.607862 
L 819.036875 629.607862 
L 852.103542 629.607862 
L 885.170208 629.607862 
L 918.236875 629.607862 
L 951.303542 629.607862 
L 984.370208 629.607862 
L 1017.436875 629.607862 
L 1050.503542 629.607862 
L 1083.570208 629.607862 
L 1116.636875 629.607862 
" clip-path="url(#pf756d72950)" style="fill: none; stroke: #384b70; stroke-width: 7; stroke-linecap: square"/>
   </g>
   <g id="line2d_13">
    <path d="M 223.836875 694.472727 
L 240.682158 691.524324 
L 257.527441 691.524324 
L 274.372724 691.524324 
L 291.218007 691.524324 
L 308.06329 691.524324 
L 324.908573 685.627518 
L 341.753856 682.679115 
L 358.599139 679.730713 
L 375.444422 679.730713 
L 392.289705 679.730713 
L 409.134988 673.833907 
L 425.980271 667.937101 
L 442.825554 656.143489 
L 459.670837 644.349877 
L 476.51612 644.349877 
L 493.361403 638.453071 
L 510.206686 632.556265 
L 527.051969 629.607862 
L 543.897252 626.659459 
L 560.742535 620.762654 
L 577.587818 608.969042 
L 594.433101 591.278624 
L 611.278384 573.588206 
L 628.123667 558.846192 
L 644.96895 558.846192 
L 661.814233 561.794595 
L 678.659517 558.846192 
L 695.5048 558.846192 
L 712.350083 550.000983 
L 729.195366 550.000983 
L 746.040649 552.949386 
L 762.885932 550.000983 
L 779.731215 547.05258 
L 796.576498 552.949386 
L 813.421781 547.05258 
L 830.267064 555.897789 
L 847.112347 544.104177 
L 863.95763 544.104177 
L 880.802913 547.05258 
L 897.648196 547.05258 
L 914.493479 544.104177 
L 931.338762 541.155774 
L 948.184045 541.155774 
L 965.029328 541.155774 
L 981.874611 541.155774 
L 998.719894 541.155774 
L 1015.565177 541.155774 
L 1032.41046 541.155774 
L 1049.255743 541.155774 
L 1066.101026 541.155774 
L 1082.946309 541.155774 
L 1099.791592 541.155774 
L 1116.636875 541.155774 
" clip-path="url(#pf756d72950)" style="fill: none; stroke-dasharray: 25.9,11.2; stroke-dashoffset: 0; stroke: #b8001f; stroke-width: 7"/>
   </g>
   <g id="line2d_14">
    <path d="M 223.836875 694.472727 
L 240.682158 691.524324 
L 257.527441 685.627518 
L 274.372724 682.679115 
L 291.218007 679.730713 
L 308.06329 673.833907 
L 324.908573 667.937101 
L 341.753856 656.143489 
L 358.599139 644.349877 
L 375.444422 638.453071 
L 392.289705 632.556265 
L 409.134988 629.607862 
L 425.980271 626.659459 
L 442.825554 620.762654 
L 459.670837 608.969042 
L 476.51612 591.278624 
L 493.361403 573.588206 
L 510.206686 561.794595 
L 527.051969 558.846192 
L 543.897252 555.897789 
L 560.742535 552.949386 
L 577.587818 550.000983 
L 594.433101 547.05258 
L 611.278384 544.104177 
L 628.123667 541.155774 
L 644.96895 541.155774 
L 661.814233 541.155774 
L 678.659517 541.155774 
L 695.5048 541.155774 
L 712.350083 541.155774 
L 729.195366 541.155774 
L 746.040649 541.155774 
L 762.885932 541.155774 
L 779.731215 541.155774 
L 796.576498 541.155774 
L 813.421781 541.155774 
L 830.267064 541.155774 
L 847.112347 541.155774 
L 863.95763 541.155774 
L 880.802913 541.155774 
L 897.648196 541.155774 
L 914.493479 541.155774 
L 931.338762 541.155774 
L 948.184045 541.155774 
L 965.029328 541.155774 
L 981.874611 541.155774 
L 998.719894 541.155774 
L 1015.565177 541.155774 
L 1032.41046 541.155774 
L 1049.255743 541.155774 
L 1066.101026 541.155774 
L 1082.946309 541.155774 
L 1099.791592 541.155774 
L 1116.636875 541.155774 
" clip-path="url(#pf756d72950)" style="fill: none; stroke: #b8001f; stroke-width: 7; stroke-linecap: square"/>
   </g>
   <g id="line2d_15">
    <path d="M 223.836875 694.472727 
L 231.533427 691.524324 
L 239.229978 688.575921 
L 246.92653 688.575921 
L 254.623082 688.575921 
L 262.319634 688.575921 
L 270.016185 688.575921 
L 277.712737 688.575921 
L 285.409289 688.575921 
L 293.105841 679.730713 
L 300.802392 676.78231 
L 308.498944 673.833907 
L 316.195496 670.885504 
L 323.892047 670.885504 
L 331.588599 670.885504 
L 339.285151 670.885504 
L 346.981703 664.988698 
L 354.678254 659.091892 
L 362.374806 653.195086 
L 370.071358 641.401474 
L 377.767909 629.607862 
L 385.464461 617.814251 
L 393.161013 617.814251 
L 400.857565 606.020639 
L 408.554116 600.123833 
L 416.250668 585.381818 
L 423.94722 576.536609 
L 431.643772 570.639803 
L 439.340323 567.6914 
L 447.036875 564.742998 
L 454.733427 558.846192 
L 462.429978 550.000983 
L 470.12653 529.362162 
L 477.823082 541.155774 
L 485.519634 538.207371 
L 493.216185 535.258968 
L 500.912737 517.56855 
L 508.609289 517.56855 
L 516.305841 505.774939 
L 524.002392 523.465356 
L 531.698944 517.56855 
L 539.395496 517.56855 
L 547.092047 508.723342 
L 554.788599 508.723342 
L 562.485151 488.084521 
L 570.181703 470.394103 
L 577.878254 470.394103 
L 585.574806 449.755283 
L 593.271358 435.013268 
L 600.967909 426.168059 
L 608.664461 432.064865 
L 616.361013 423.219656 
L 624.057565 432.064865 
L 631.754116 429.116462 
L 639.450668 402.580835 
L 647.14722 417.32285 
L 654.843772 411.426044 
L 662.540323 390.787224 
L 670.236875 376.045209 
L 677.933427 352.457985 
L 685.629978 346.561179 
L 693.32653 325.922359 
L 701.023082 320.025553 
L 708.719634 337.715971 
L 716.416185 317.07715 
L 724.112737 308.231941 
L 731.809289 308.231941 
L 739.505841 317.07715 
L 747.202392 311.180344 
L 754.898944 317.07715 
L 762.595496 296.438329 
L 770.292047 284.644717 
L 777.988599 272.851106 
L 785.685151 272.851106 
L 793.381703 249.263882 
L 801.078254 255.160688 
L 808.774806 243.367076 
L 816.471358 240.418673 
L 824.167909 246.315479 
L 831.864461 258.109091 
L 839.561013 243.367076 
L 847.257565 249.263882 
L 854.954116 234.521867 
L 862.650668 219.779853 
L 870.34722 196.192629 
L 878.043772 187.34742 
L 885.740323 184.399017 
L 893.436875 143.121376 
L 901.133427 154.914988 
L 908.829978 169.657002 
L 916.52653 143.121376 
L 924.223082 166.7086 
L 931.919634 160.811794 
L 939.616185 151.966585 
L 947.312737 146.069779 
L 955.009289 146.069779 
L 962.705841 119.534152 
L 970.402392 98.895332 
L 978.098944 104.792138 
L 985.795496 101.843735 
L 993.492047 48.772482 
L 1001.188599 54.669287 
L 1008.885151 60.566093 
L 1016.581703 48.772482 
L 1024.278254 48.772482 
L 1031.974806 57.61769 
L 1039.671358 54.669287 
L 1047.367909 54.669287 
L 1055.064461 48.772482 
L 1062.761013 45.824079 
L 1070.457565 42.875676 
L 1078.154116 48.772482 
L 1085.850668 39.927273 
L 1093.54722 42.875676 
L 1101.243772 39.927273 
L 1108.940323 39.927273 
L 1116.636875 39.927273 
" clip-path="url(#pf756d72950)" style="fill: none; stroke-dasharray: 25.9,11.2; stroke-dashoffset: 0; stroke: #6a9c89; stroke-width: 7"/>
   </g>
   <g id="line2d_16">
    <path d="M 223.836875 694.472727 
L 231.533427 691.524324 
L 239.229978 688.575921 
L 246.92653 679.730713 
L 254.623082 676.78231 
L 262.319634 673.833907 
L 270.016185 670.885504 
L 277.712737 664.988698 
L 285.409289 659.091892 
L 293.105841 653.195086 
L 300.802392 641.401474 
L 308.498944 629.607862 
L 316.195496 617.814251 
L 323.892047 606.020639 
L 331.588599 600.123833 
L 339.285151 585.381818 
L 346.981703 576.536609 
L 354.678254 570.639803 
L 362.374806 567.6914 
L 370.071358 564.742998 
L 377.767909 558.846192 
L 385.464461 550.000983 
L 393.161013 541.155774 
L 400.857565 538.207371 
L 408.554116 535.258968 
L 416.250668 529.362162 
L 423.94722 523.465356 
L 431.643772 517.56855 
L 439.340323 508.723342 
L 447.036875 505.774939 
L 454.733427 488.084521 
L 462.429978 470.394103 
L 470.12653 449.755283 
L 477.823082 435.013268 
L 485.519634 432.064865 
L 493.216185 429.116462 
L 500.912737 426.168059 
L 508.609289 423.219656 
L 516.305841 417.32285 
L 524.002392 411.426044 
L 531.698944 402.580835 
L 539.395496 390.787224 
L 547.092047 376.045209 
L 554.788599 352.457985 
L 562.485151 346.561179 
L 570.181703 337.715971 
L 577.878254 325.922359 
L 585.574806 320.025553 
L 593.271358 317.07715 
L 600.967909 311.180344 
L 608.664461 308.231941 
L 616.361013 296.438329 
L 624.057565 284.644717 
L 631.754116 272.851106 
L 639.450668 258.109091 
L 647.14722 255.160688 
L 654.843772 249.263882 
L 662.540323 246.315479 
L 670.236875 243.367076 
L 677.933427 240.418673 
L 685.629978 234.521867 
L 693.32653 219.779853 
L 701.023082 196.192629 
L 708.719634 187.34742 
L 716.416185 184.399017 
L 724.112737 169.657002 
L 731.809289 166.7086 
L 739.505841 160.811794 
L 747.202392 154.914988 
L 754.898944 151.966585 
L 762.595496 146.069779 
L 770.292047 143.121376 
L 777.988599 119.534152 
L 785.685151 104.792138 
L 793.381703 101.843735 
L 801.078254 98.895332 
L 808.774806 60.566093 
L 816.471358 57.61769 
L 824.167909 54.669287 
L 831.864461 48.772482 
L 839.561013 45.824079 
L 847.257565 42.875676 
L 854.954116 39.927273 
L 862.650668 39.927273 
L 870.34722 39.927273 
L 878.043772 39.927273 
L 885.740323 39.927273 
L 893.436875 39.927273 
L 901.133427 39.927273 
L 908.829978 39.927273 
L 916.52653 39.927273 
L 924.223082 39.927273 
L 931.919634 39.927273 
L 939.616185 39.927273 
L 947.312737 39.927273 
L 955.009289 39.927273 
L 962.705841 39.927273 
L 970.402392 39.927273 
L 978.098944 39.927273 
L 985.795496 39.927273 
L 993.492047 39.927273 
L 1001.188599 39.927273 
L 1008.885151 39.927273 
L 1016.581703 39.927273 
L 1024.278254 39.927273 
L 1031.974806 39.927273 
L 1039.671358 39.927273 
L 1047.367909 39.927273 
L 1055.064461 39.927273 
L 1062.761013 39.927273 
L 1070.457565 39.927273 
L 1078.154116 39.927273 
L 1085.850668 39.927273 
L 1093.54722 39.927273 
L 1101.243772 39.927273 
L 1108.940323 39.927273 
L 1116.636875 39.927273 
" clip-path="url(#pf756d72950)" style="fill: none; stroke: #6a9c89; stroke-width: 7; stroke-linecap: square"/>
   </g>
   <g id="patch_3">
    <path d="M 179.196875 727.2 
L 179.196875 7.2 
" style="fill: none; stroke: #000000; stroke-width: 5; stroke-linejoin: miter; stroke-linecap: square"/>
   </g>
   <g id="patch_4">
    <path d="M 1161.276875 727.2 
L 1161.276875 7.2 
" style="fill: none; stroke: #000000; stroke-width: 5; stroke-linejoin: miter; stroke-linecap: square"/>
   </g>
   <g id="patch_5">
    <path d="M 179.196875 727.2 
L 1161.276875 727.2 
" style="fill: none; stroke: #000000; stroke-width: 5; stroke-linejoin: miter; stroke-linecap: square"/>
   </g>
   <g id="patch_6">
    <path d="M 179.196875 7.2 
L 1161.276875 7.2 
" style="fill: none; stroke: #000000; stroke-width: 5; stroke-linejoin: miter; stroke-linecap: square"/>
   </g>
  </g>
  <g id="axes_2">
   <g id="patch_7">
    <path d="M 210.876875 295.2 
L 527.676875 295.2 
L 527.676875 43.2 
L 210.876875 43.2 
z
" style="fill: #ffffff"/>
   </g>
   <g id="matplotlib.axis_3"/>
   <g id="matplotlib.axis_4"/>
   <g id="line2d_17">
    <path d="M 210.876875 295.2 
L 248.235366 281.2 
L 285.593856 281.2 
L 322.952347 281.2 
L 360.310837 281.2 
L 397.669328 281.2 
L 435.027818 253.2 
L 472.386309 239.2 
L 509.7448 225.2 
L 547.10329 225.2 
L 584.461781 225.2 
L 621.820271 197.2 
L 659.178762 169.2 
L 696.537252 113.2 
L 733.895743 57.2 
L 771.254233 57.2 
L 808.612724 29.2 
L 845.971215 1.2 
L 851.841835 -1 
" clip-path="url(#p85a35e5455)" style="fill: none; stroke-dasharray: 18.5,8; stroke-dashoffset: 0; stroke: #b8001f; stroke-width: 5"/>
   </g>
   <g id="line2d_18">
    <path d="M 210.876875 295.2 
L 248.235366 281.2 
L 285.593856 253.2 
L 322.952347 239.2 
L 360.310837 225.2 
L 397.669328 197.2 
L 435.027818 169.2 
L 472.386309 113.2 
L 509.7448 57.2 
L 547.10329 29.2 
L 584.461781 1.2 
L 590.332401 -1 
" clip-path="url(#p85a35e5455)" style="fill: none; stroke: #b8001f; stroke-width: 5; stroke-linecap: square"/>
   </g>
   <g id="line2d_19">
    <path d="M 210.876875 295.2 
L 227.945841 281.2 
L 245.014806 267.2 
L 262.083772 267.2 
L 279.152737 267.2 
L 296.221703 267.2 
L 313.290668 267.2 
L 330.359634 267.2 
L 347.428599 267.2 
L 364.497565 225.2 
L 381.56653 211.2 
L 398.635496 197.2 
L 415.704461 183.2 
L 432.773427 183.2 
L 449.842392 183.2 
L 466.911358 183.2 
L 483.980323 155.2 
L 501.049289 127.2 
L 518.118254 99.2 
L 535.18722 43.2 
L 548.65951 -1 
" clip-path="url(#p85a35e5455)" style="fill: none; stroke-dasharray: 18.5,8; stroke-dashoffset: 0; stroke: #6a9c89; stroke-width: 5"/>
   </g>
   <g id="line2d_20">
    <path d="M 210.876875 295.2 
L 227.945841 281.2 
L 245.014806 267.2 
L 262.083772 225.2 
L 279.152737 211.2 
L 296.221703 197.2 
L 313.290668 183.2 
L 330.359634 155.2 
L 347.428599 127.2 
L 364.497565 99.2 
L 381.56653 43.2 
L 395.038821 -1 
" clip-path="url(#p85a35e5455)" style="fill: none; stroke: #6a9c89; stroke-width: 5; stroke-linecap: square"/>
   </g>
   <g id="patch_8">
    <path d="M 210.876875 295.2 
L 210.876875 43.2 
" style="fill: none; stroke-dasharray: 20,10; stroke-dashoffset: 0; stroke: #000000; stroke-width: 2; stroke-linejoin: miter; stroke-linecap: square"/>
   </g>
   <g id="patch_9">
    <path d="M 527.676875 295.2 
L 527.676875 43.2 
" style="fill: none; stroke-dasharray: 20,10; stroke-dashoffset: 0; stroke: #000000; stroke-width: 2; stroke-linejoin: miter; stroke-linecap: square"/>
   </g>
   <g id="patch_10">
    <path d="M 210.876875 295.2 
L 527.676875 295.2 
" style="fill: none; stroke-dasharray: 20,10; stroke-dashoffset: 0; stroke: #000000; stroke-width: 2; stroke-linejoin: miter; stroke-linecap: square"/>
   </g>
   <g id="patch_11">
    <path d="M 210.876875 43.2 
L 527.676875 43.2 
" style="fill: none; stroke-dasharray: 20,10; stroke-dashoffset: 0; stroke: #000000; stroke-width: 2; stroke-linejoin: miter; stroke-linecap: square"/>
   </g>
  </g>
  <g id="axes_3">
   <g id="patch_12">
    <path d="M 1287.996875 727.2 
L 1763.196875 727.2 
L 1763.196875 7.2 
L 1287.996875 7.2 
z
" style="fill: #ffffff"/>
   </g>
   <g id="patch_13">
    <path d="M 1287.996875 631.2 
L 1602.02603 631.2 
L 1602.02603 583.2 
L 1287.996875 583.2 
z
" clip-path="url(#p01343265be)" style="fill: #384b70; opacity: 0.5; stroke: #000000; stroke-width: 3; stroke-linejoin: miter"/>
   </g>
   <g id="patch_14">
    <path d="M 1287.996875 631.2 
L 1518.900665 631.2 
L 1518.900665 583.2 
L 1287.996875 583.2 
z
" clip-path="url(#p01343265be)" style="fill: #384b70; stroke: #000000; stroke-width: 3; stroke-linejoin: miter"/>
   </g>
   <g id="patch_15">
    <path d="M 1287.996875 391.2 
L 1657.442939 391.2 
L 1657.442939 343.2 
L 1287.996875 343.2 
z
" clip-path="url(#p01343265be)" style="fill: #b8001f; opacity: 0.5; stroke: #000000; stroke-width: 3; stroke-linejoin: miter"/>
   </g>
   <g id="patch_16">
    <path d="M 1287.996875 391.2 
L 1500.428362 391.2 
L 1500.428362 343.2 
L 1287.996875 343.2 
z
" clip-path="url(#p01343265be)" style="fill: #b8001f; stroke: #000000; stroke-width: 3; stroke-linejoin: miter"/>
   </g>
   <g id="patch_17">
    <path d="M 1287.996875 151.2 
L 1740.568304 151.2 
L 1740.568304 103.2 
L 1287.996875 103.2 
z
" clip-path="url(#p01343265be)" style="fill: #6a9c89; opacity: 0.5; stroke: #000000; stroke-width: 3; stroke-linejoin: miter"/>
   </g>
   <g id="patch_18">
    <path d="M 1287.996875 151.2 
L 1615.880257 151.2 
L 1615.880257 103.2 
L 1287.996875 103.2 
z
" clip-path="url(#p01343265be)" style="fill: #6a9c89; stroke: #000000; stroke-width: 3; stroke-linejoin: miter"/>
   </g>
   <g id="matplotlib.axis_5">
    <g id="xtick_6">
     <g id="line2d_21">
      <g>
       <use xlink:href="#m4f096ba3c2" x="1287.996875" y="727.2" style="fill: #f8d941; stroke: #000000; stroke-width: 5"/>
      </g>
     </g>
     <g id="text_13">
      <!-- 0 -->
      <g transform="translate(1272.996875 792.3625) scale(0.6 -0.6)">
       <use xlink:href="#TimesNewRomanPSMT-30"/>
      </g>
     </g>
    </g>
    <g id="xtick_7">
     <g id="line2d_22">
      <g>
       <use xlink:href="#m4f096ba3c2" x="1749.804455" y="727.2" style="fill: #f8d941; stroke: #000000; stroke-width: 5"/>
      </g>
     </g>
     <g id="text_14">
      <!-- 100 -->
      <g transform="translate(1704.804455 792.3625) scale(0.6 -0.6)">
       <use xlink:href="#TimesNewRomanPSMT-31"/>
       <use xlink:href="#TimesNewRomanPSMT-30" x="50"/>
       <use xlink:href="#TimesNewRomanPSMT-30" x="100"/>
      </g>
     </g>
    </g>
    <g id="text_15">
     <!-- tau(%) -->
     <g transform="translate(1443.978125 850.859375) scale(0.6 -0.6)">
      <use xlink:href="#TimesNewRomanPSMT-74"/>
      <use xlink:href="#TimesNewRomanPSMT-61" x="27.783203"/>
      <use xlink:href="#TimesNewRomanPSMT-75" x="72.167969"/>
      <use xlink:href="#TimesNewRomanPSMT-28" x="122.167969"/>
      <use xlink:href="#TimesNewRomanPSMT-25" x="155.46875"/>
      <use xlink:href="#TimesNewRomanPSMT-29" x="238.769531"/>
     </g>
    </g>
   </g>
   <g id="matplotlib.axis_6"/>
   <g id="patch_19">
    <path d="M 1287.996875 727.2 
L 1287.996875 7.2 
" style="fill: none; stroke: #000000; stroke-width: 5; stroke-linejoin: miter; stroke-linecap: square"/>
   </g>
   <g id="patch_20">
    <path d="M 1763.196875 727.2 
L 1763.196875 7.2 
" style="fill: none; stroke: #000000; stroke-width: 5; stroke-linejoin: miter; stroke-linecap: square"/>
   </g>
   <g id="patch_21">
    <path d="M 1287.996875 727.2 
L 1763.196875 727.2 
" style="fill: none; stroke: #000000; stroke-width: 5; stroke-linejoin: miter; stroke-linecap: square"/>
   </g>
   <g id="patch_22">
    <path d="M 1287.996875 7.2 
L 1763.196875 7.2 
" style="fill: none; stroke: #000000; stroke-width: 5; stroke-linejoin: miter; stroke-linecap: square"/>
   </g>
  </g>
 </g>
 <defs>
  <clipPath id="pf756d72950">
   <rect x="179.196875" y="7.2" width="982.08" height="720"/>
  </clipPath>
  <clipPath id="p85a35e5455">
   <rect x="210.876875" y="43.2" width="316.8" height="252"/>
  </clipPath>
  <clipPath id="p01343265be">
   <rect x="1287.996875" y="7.2" width="475.2" height="720"/>
  </clipPath>
 </defs>
</svg>
